<?xml version="1.0" encoding="utf-8"?>
<!-- Generator: Adobe Illustrator 15.0.2, SVG Export Plug-In . SVG Version: 6.00 Build 0)  -->
<!DOCTYPE svg PUBLIC "-//W3C//DTD SVG 1.1//EN" "http://www.w3.org/Graphics/SVG/1.1/DTD/svg11.dtd">
<svg version="1.1" id="Layer_1" xmlns="http://www.w3.org/2000/svg" xmlns:xlink="http://www.w3.org/1999/xlink" x="0px" y="0px"
	 width="280px" height="260px" viewBox="0 0 280 260" enable-background="new 0 0 280 260" xml:space="preserve">
<g>
	<g>
		<g>
			<g>
				<g>
					<path fill="#D4DAE6" d="M45.164,248.986c-1.064,0-2.143-0.207-3.191-0.641c-4.242-1.765-6.256-6.638-4.492-10.882l1.598-3.848
						c1.762-4.246,6.635-6.257,10.883-4.492c4.246,1.767,6.258,6.637,4.49,10.885l-1.596,3.847
						C51.527,247.055,48.429,248.986,45.164,248.986z M56.339,222.076c-1.062,0-2.145-0.209-3.191-0.641
						c-4.242-1.767-6.254-6.636-4.492-10.879l6.387-15.382c1.762-4.245,6.627-6.256,10.883-4.495
						c4.242,1.762,6.26,6.633,4.494,10.881l-6.385,15.379C62.703,220.145,59.605,222.076,56.339,222.076z"/>
				</g>
				<g>
					<path fill="#D4DAE6" d="M77.687,248.986c-1.064,0-2.145-0.207-3.186-0.641c-4.248-1.763-6.266-6.634-4.498-10.882l1.592-3.842
						c1.764-4.246,6.639-6.263,10.883-4.498c4.246,1.76,6.26,6.631,4.498,10.879l-1.594,3.847
						C84.05,247.055,80.953,248.986,77.687,248.986z M88.863,222.076c-1.062,0-2.145-0.207-3.191-0.641
						c-4.246-1.767-6.254-6.636-4.496-10.879l6.387-15.38c1.768-4.247,6.631-6.264,10.881-4.497
						c4.248,1.762,6.264,6.637,4.498,10.881l-6.385,15.379C95.226,220.145,92.128,222.076,88.863,222.076z"/>
				</g>
				<g>
					<path fill="#D4DAE6" d="M110.21,248.986c-1.064,0-2.145-0.207-3.186-0.641c-4.248-1.763-6.266-6.634-4.504-10.882l1.598-3.842
						c1.762-4.246,6.639-6.263,10.881-4.498c4.248,1.76,6.258,6.631,4.5,10.879l-1.598,3.847
						C116.574,247.055,113.476,248.986,110.21,248.986z M121.382,222.076c-1.059,0-2.145-0.207-3.189-0.641
						c-4.244-1.767-6.258-6.636-4.494-10.879l6.387-15.38c1.768-4.247,6.629-6.264,10.881-4.497
						c4.248,1.762,6.258,6.637,4.496,10.881l-6.383,15.379C127.746,220.145,124.65,222.076,121.382,222.076z"/>
				</g>
				<g>
					<path fill="#D4DAE6" d="M142.729,248.986c-1.062,0-2.145-0.207-3.188-0.641c-4.248-1.763-6.258-6.634-4.496-10.882l1.592-3.842
						c1.768-4.248,6.638-6.256,10.886-4.498c4.244,1.767,6.258,6.637,4.494,10.885l-1.597,3.841
						C149.093,247.055,145.993,248.986,142.729,248.986z M153.904,222.076c-1.063,0-2.145-0.207-3.188-0.641
						c-4.248-1.767-6.257-6.636-4.495-10.879l6.385-15.38c1.766-4.247,6.631-6.264,10.885-4.497
						c4.242,1.762,6.258,6.637,4.496,10.881l-6.389,15.379C160.268,220.145,157.167,222.076,153.904,222.076z"/>
				</g>
			</g>
			<g>
				<g>
					<path fill="#FFFFFF" d="M182.221,118.056c0.209,0.109,0.43,0.209,0.643,0.322c0.004-0.039,0.008-0.08,0.014-0.119
						C182.661,118.189,182.439,118.123,182.221,118.056z"/>
				</g>
				<g>
					<path fill="#FFFFFF" d="M165.189,114.396c4.927,0,9.654,0.816,14.072,2.303c-4.021-1.623-8.416-2.523-13.021-2.523
						c-1.945,0-3.847,0.164-5.695,0.471C162.066,114.488,163.618,114.396,165.189,114.396z"/>
				</g>
				<path fill="#D4DAE6" d="M266.768,166.434c-1.783-6.406-6.017-12.127-11.605-15.701c-4.885-3.166-10.996-4.713-16.859-4.241
					c-0.217-3.173-1.293-6.339-3.066-8.996c-1.03-1.562-2.321-2.981-3.838-4.224c2.107-5.156,2.681-11.014,1.605-16.553
					c-1.279-6.83-5.168-13.273-10.664-17.674c-5.205-4.227-12.025-6.65-18.721-6.65c-0.277,0-0.561,0.004-0.832,0.014
					c-5.557,0.119-11.096,1.893-15.678,5.008c-1.644-2.127-3.56-3.951-5.676-5.426c-1.101-0.775-2.302-1.479-3.67-2.146
					c-0.104-0.051-0.205-0.094-0.312-0.133l-0.182-0.078c-0.449-0.203-0.912-0.4-1.375-0.582c-0.188-0.068-0.369-0.133-0.547-0.195
					c-3.17-1.139-6.455-1.691-9.673-1.527c-0.151-0.611-0.301-1.283-0.454-2.066c-0.195-1.01-0.4-2.051-0.695-3.088
					c-0.629-2.344-1.488-4.652-2.555-6.859c-2.22-4.602-5.414-8.857-9.248-12.312c-4.052-3.66-8.936-6.514-14.122-8.248
					c-5.408-1.818-11.242-2.463-16.994-1.871c-8.973,0.881-17.781,5.029-24.17,11.375c-5.732,5.619-9.693,12.971-11.195,20.773
					c-0.996-0.201-1.965-0.297-2.947-0.297c-3.869,0-7.678,1.291-10.73,3.631c-2.232,1.67-4.072,3.895-5.324,6.426
					c-0.822,1.662-1.371,3.508-1.604,5.389c-5.947-1.531-12.307-1.467-18.197,0.154c-6.684,1.816-12.887,5.725-17.469,11.01
					c-3.643,4.184-6.287,9.207-7.645,14.523c-1.311,5.085-1.473,10.506-0.463,15.667c0.922,4.832,2.93,9.521,5.803,13.574
					c2.141,3.014,4.83,5.74,7.826,7.949c-3.33,1.502-6.182,4-8.084,7.098c-2.508,3.992-3.371,8.949-2.365,13.596
					c0.113,0.51,0.232,0.969,0.359,1.396l0.049,0.151c0.045,0.171,0.096,0.337,0.238,0.729l0.236,0.684
					c0.035,0.078,0.143,0.316,0.443,0.482l0.166,0.094h29.838h26.682h126.115h2.343h52.801l0.987-2.023l0.39-0.896
					c0.227-0.543,0.479-1.19,0.692-1.856C268.109,177.379,268.239,171.67,266.768,166.434z"/>
				<g>
					<path fill="#ACBAD1" d="M231.227,122.876c-0.062-0.092-0.125-0.182-0.201-0.256c0.051-0.48,0.082-0.965,0.104-1.449
						c-0.033-0.275-0.082-0.545-0.117-0.816c-0.055-0.385-0.104-0.77-0.17-1.152c-0.113-0.652-0.254-1.301-0.414-1.939
						c-1.521-6.164-5.104-11.76-10.082-15.752c-4.938-4.006-11.17-6.299-17.547-6.469c-0.324-0.012-0.646-0.018-0.967-0.018
						c-5.01,0-10.129,1.359-14.57,3.824c1.619,2.311,2.859,4.871,3.602,7.545c1.335,4.705,1.21,9.768-0.311,14.332
						c2.646,1.584,5.125,3.504,7.307,5.689c2.859,2.865,5.263,6.224,7.029,9.808c2.041-2.533,4.83-4.512,7.963-5.617
						c1.938-0.686,4.078-1.05,6.197-1.05c2.039,0,4.043,0.326,5.941,0.966c1.801,0.6,3.518,1.512,5.068,2.645
						c0.231-0.781,0.422-1.568,0.586-2.367c0.03-0.137,0.055-0.277,0.084-0.414C231.195,127.919,231.363,125.384,231.227,122.876z
						 M223.068,125.306c-14.239-0.469-25.715-11.76-26.479-25.926c2.315-0.916,4.841-1.441,7.479-1.441
						c11.205,0,20.291,9.086,20.291,20.293C224.359,120.724,223.891,123.097,223.068,125.306z"/>
					<path fill="#ACBAD1" d="M24.306,139.631c-0.012-0.125-0.023-0.25-0.033-0.377c0-0.008-0.006-0.014-0.006-0.02
						C24.281,139.363,24.292,139.498,24.306,139.631z"/>
					<path fill="#ACBAD1" d="M183.175,114.771c0,0.863-0.077,1.707-0.187,2.543l0.007,0.002c1.149,0.365,2.282,0.773,3.377,1.25
						c1.269,0.551,2.514,1.195,3.728,1.895c0.805-4.5,0.448-9.258-1.06-13.49c-1.746-4.967-5.097-9.367-9.431-12.387
						c-0.442-0.311-0.901-0.6-1.362-0.883c-0.627-0.352-1.252-0.703-1.886-1.014c-0.752-0.369-1.522-0.701-2.305-1.018
						c-2.856-1.078-5.91-1.66-8.973-1.66l-0.35,0.004c-4.744,0.033-9.619,1.479-13.724,4.066c0.429-0.266,0.873-0.498,1.314-0.736
						c2.485-0.926,5.163-1.455,7.961-1.455C172.932,91.888,183.175,102.128,183.175,114.771z"/>
					<path fill="#ACBAD1" d="M161.434,88.578c0.108-0.021,0.215-0.041,0.321-0.062c0.951-0.188,1.906-0.334,2.877-0.406
						c-0.299-0.875-0.562-1.766-0.797-2.65c-0.244-0.939-0.506-1.912-0.84-2.846c-0.742-2.201-1.688-4.355-2.81-6.404
						c-2.319-4.23-5.5-8.115-9.209-11.229c-3.883-3.275-8.492-5.816-13.319-7.346c-3.781-1.197-7.729-1.805-11.742-1.805
						c-1.328,0-2.676,0.068-3.99,0.205c-8.371,0.826-16.369,4.469-22.525,10.254c-5.727,5.318-9.82,12.436-11.531,20.045
						c-0.029,0.139-0.098,0.246-0.193,0.326c-0.586,2.674-0.912,5.438-0.955,8.213c0,0.107-0.09,0.197-0.199,0.197
						c-0.111,0-0.199-0.084-0.205-0.191c-0.162-2.814-0.012-5.646,0.432-8.418c-4.455,0.23-8.791,1.785-12.275,4.43
						c-3.432,2.584-6.1,6.271-7.605,10.434c0.027,0.018,0.061,0.025,0.084,0.045c0.711,0.646,2.637,0.918,3.562,1.316
						c1.246,0.541,2.453,1.16,3.629,1.844c2.404,1.412,4.66,3.111,6.629,5.082c1.559-0.709,2.85-2.252,4.463-3.064
						c4.016-2.012,8.023-3.416,12.672-3.393c0.035-0.025,0.072-0.045,0.107-0.072c-0.217-0.674-0.561-2.494-0.582-2.574
						c-0.127-0.662-0.242-1.33-0.33-1.998c-0.188-1.365-0.277-2.742-0.277-4.121c0-17.176,13.928-31.098,31.102-31.098
						c15.462,0,28.251,11.287,30.658,26.064C159.516,89.039,160.471,88.779,161.434,88.578z"/>
					<path fill="#ACBAD1" d="M134.638,150.131c-1.104,0-2.188,0.061-3.264,0.156c-0.012-0.404-0.035-0.807-0.035-1.215
						c0-4.254,0.781-8.32,2.172-12.09c2.932-8.562,8.665-15.178,15.902-19.272c-0.222,0.084-0.431,0.189-0.649,0.277l0.485-0.215
						c0,0-6.7,1.191-14.429,7.373c-1.227,0.986-2.482,2.096-3.738,3.348c-0.057,0.057-0.115,0.117-0.172,0.176
						c-0.617,0.617-1.234,1.266-1.85,1.955c-0.002,0.006-0.012,0.015-0.02,0.021c-0.578,0.652-1.162,1.346-1.734,2.064
						c-0.088,0.111-0.178,0.219-0.266,0.332c-0.566,0.719-1.127,1.473-1.686,2.26c-0.092,0.139-0.184,0.272-0.279,0.409
						c-0.504,0.729-1,1.485-1.49,2.271c-0.078,0.125-0.152,0.234-0.223,0.357c-0.525,0.854-1.041,1.756-1.551,2.682
						c-0.113,0.209-0.221,0.422-0.334,0.638c-0.516,0.963-1.014,1.952-1.5,2.995c-0.215,0.107-0.432,0.228-0.652,0.322
						c-2.803,1.246-5.861,1.89-8.932,1.89c-0.674,0-1.348-0.039-2.021-0.099c0,0,0-0.004-0.006-0.004
						c-4.662-0.422-8.904-2.287-12.291-5.15c-0.029-0.018-0.062-0.045-0.096-0.062c-5.359-4.379-8.785-11.034-8.785-18.495
						c0-7.816,3.777-14.732,9.582-19.088c0.453-0.119,0.816-0.248,0.932-0.391c-0.035,0.01-0.076,0.02-0.115,0.029
						c-2.336,0.504-4.611,1.258-6.76,2.242c-0.006,0-0.014,0.006-0.02,0.012c-0.721,0.328-1.428,0.682-2.113,1.062
						c-0.068,0.037-0.131,0.076-0.193,0.113c-0.627,0.354-1.25,0.717-1.854,1.107c-0.156,0.104-0.301,0.221-0.457,0.322
						c-0.498,0.34-1,0.68-1.479,1.045c-0.271,0.213-0.525,0.439-0.793,0.654c-0.34,0.283-0.695,0.555-1.025,0.852
						c-0.582,0.525-1.148,1.068-1.688,1.637c-4.383,4.559-7.375,10.613-8.404,17.059c-0.021,0.096-0.105,0.17-0.205,0.17
						c-0.113-0.006-0.197-0.088-0.203-0.189c-0.182-3.152,0.295-6.432,1.367-9.49c1.203-3.43,3.166-6.621,5.678-9.236
						c0.346-0.361,0.727-0.688,1.094-1.027c-3.023-2.562-6.484-4.605-10.176-6.01c-1.227-0.467-2.482-0.867-3.752-1.189
						c-0.131,0.031-0.266,0.029-0.395-0.006c-0.438-0.002-0.941-0.182-1.4-0.301c-0.006-0.002-0.012-0.004-0.018-0.004
						c-0.736-0.148-1.484-0.273-2.232-0.375c-0.004,0-0.004,0-0.01-0.002c-0.443-0.049-0.867-0.047-1.303-0.049
						c-0.201-0.002-0.383-0.068-0.561-0.141c-0.885-0.068-1.766-0.113-2.652-0.113c-3.342,0-6.637,0.475-9.799,1.42
						c-6.066,1.799-11.701,5.441-15.881,10.252c-3.326,3.82-5.777,8.389-7.104,13.215c-0.316,1.152-0.572,2.326-0.77,3.512
						c-0.098,0.605-0.133,1.218-0.199,1.832c-0.062,0.578-0.152,1.152-0.189,1.734c-0.049,0.812-0.025,1.633-0.014,2.45
						c0.006,0.385-0.023,0.764-0.006,1.149c0.027,0.648,0.125,1.291,0.193,1.939c0.047,0.252,0.096,0.502,0.152,0.75
						c-0.01,0.256,0,0.51,0,0.768c0.014,0.101,0.014,0.195,0.033,0.295c0.691,4.508,2.377,8.976,4.855,12.914
						c2.146,3.406,4.967,6.472,8.146,8.957c3.215-1.322,6.863-1.756,10.277-1.227c0.051-0.865,0.148-1.73,0.324-2.59
						c0.611-3.062,2.074-6.025,4.123-8.336c1.84-2.109,4.154-3.734,6.684-4.703c0.096-0.039,0.197,0.002,0.246,0.09
						c0.053,0.092,0.025,0.201-0.057,0.262c-4.436,3.188-7.57,7.986-8.604,13.174c-1.068,5.217-0.057,10.863,2.783,15.486
						c0.049,0.084,0.035,0.201-0.049,0.262c-0.035,0.031-0.082,0.047-0.127,0.047c-0.053,0-0.102-0.02-0.141-0.055
						c-1.955-1.889-3.455-4.287-4.328-6.941c-0.645-1.983-0.918-4.071-0.855-6.159c-0.021,0-0.039,0.004-0.062,0.004l0.062-0.067
						c0,0-0.787-0.015-2.033,0.094c-1.039,0.062-2.064,0.209-3.076,0.43c-5.912,1.139-14.844,4.762-14.811,16.25
						c-0.062,1.383,0.033,2.779,0.326,4.133c0.037,0.176,0.088,0.398,0.158,0.66c0.074,0.271,0.166,0.527,0.264,0.758l52.691,1.893
						c-0.254-1.264-0.418-2.555-0.418-3.891c0-11.051,8.955-20.012,20.012-20.012c6.938,0,13.049,3.541,16.641,8.91
						c4.162-10.529,14.408-17.996,26.42-17.996c1.688,0,3.326,0.176,4.929,0.459c0.365-0.133,0.75-0.232,1.121-0.35
						C145.303,151.355,140.117,150.131,134.638,150.131z M144.799,119.755l0.758-0.34c-0.393,0.195-0.772,0.412-1.16,0.617
						L144.799,119.755z M47.97,145.76c-7.629-2.861-13.072-10.201-13.072-18.84c0-11.119,9.014-20.135,20.133-20.135
						c6.301,0,11.914,2.891,15.607,7.414c-5.438,6.088-9.143,13.738-10.445,22.18C55.39,138.473,51.203,141.715,47.97,145.76z
						 M62.47,146.51c-0.057-0.014-0.119-0.02-0.178-0.037c0.115-0.08,0.246-0.158,0.359-0.244
						C62.595,146.322,62.527,146.416,62.47,146.51z M63.91,167.746c-3.793-6.709-3.229-14.824,3.33-21.205
						c2.135-2.074,4.744-2.887,7.326-2.66c2.191,3.799,5.275,6.93,8.922,9.525C74.796,154.561,67.511,160.105,63.91,167.746z"/>
					<path fill="#ACBAD1" d="M198.564,161.959c7.67,2.6,14.207,7.674,18.629,14.283c-0.229-1.24-0.354-2.514-0.354-3.822
						c0-11.504,9.326-20.826,20.826-20.826c11.492,0,20.819,9.322,20.819,20.826c0,4.684-1.567,8.992-4.186,12.473
						c0.898-0.035,1.791-0.062,2.691-0.098c0.561-0.016,1.121-0.037,1.682-0.057l0.662-0.021c0.318-0.012,0.709-0.062,1.072-0.037
						l1.93-0.063l0.576-1.378c0.166-0.428,0.348-0.938,0.512-1.454c0-0.007,0-0.013,0-0.019c0.062-0.396,0.215-0.793,0.346-1.188
						c0.045-0.175,0.103-0.347,0.146-0.521c0.076-0.328,0.146-0.656,0.209-0.986c0.056-0.266,0.11-0.531,0.16-0.797
						c0.059-0.34,0.098-0.687,0.139-1.025c0.039-0.273,0.072-0.545,0.103-0.816c0.033-0.348,0.045-0.697,0.067-1.047
						c0.009-0.262,0.031-0.525,0.033-0.789c0.013-0.361-0.002-0.729-0.013-1.098c-0.006-0.25,0-0.498-0.014-0.75
						c-0.02-0.371-0.059-0.74-0.094-1.107c-0.025-0.244-0.037-0.494-0.068-0.735c-0.051-0.396-0.123-0.785-0.188-1.175
						c-0.037-0.221-0.063-0.436-0.104-0.649c-0.125-0.603-0.268-1.201-0.432-1.793c-1.58-5.658-5.287-10.787-10.184-14.072
						c-0.668-0.446-1.359-0.86-2.068-1.245c-0.174-0.097-0.354-0.183-0.531-0.271c-0.541-0.277-1.088-0.541-1.647-0.781
						c-0.177-0.074-0.357-0.148-0.535-0.223c-0.711-0.277-1.425-0.541-2.158-0.758c-1.151-0.34-2.323-0.605-3.51-0.781
						c-2.418-0.363-4.896-0.557-7.332-0.262c-1.136,0.139-2.263,0.356-3.373,0.641c-1.127,0.289-2.233,0.65-3.312,1.088
						c-2.16,0.869-4.211,2.02-6.066,3.43c-0.084,0.064-0.207,0.051-0.277-0.031c-0.068-0.086-0.057-0.211,0.023-0.28
						c3.912-3.5,8.984-5.759,14.312-6.39c-0.679-3.078-2.027-5.94-3.966-8.324c-2.295-2.842-5.442-5.041-8.871-6.188
						c-1.946-0.65-3.991-0.982-6.088-0.982c-1.598,0-3.187,0.195-4.729,0.584c-3.012,0.752-5.851,2.25-8.246,4.334
						c0.182,0.385,0.363,0.771,0.527,1.158c1.643,3.789,2.633,7.944,2.864,12.018c0.006,0.107-0.067,0.197-0.172,0.209
						c-0.006,0-0.006-0.006-0.011-0.006c-0.01,0.002-0.01,0.008-0.02,0.012c-0.094,0-0.178-0.066-0.197-0.158
						c-1.858-8.225-6.129-15.99-12.014-21.858c-0.678-0.68-1.385-1.338-2.109-1.975c-0.396-0.346-0.805-0.672-1.213-1.006
						c-0.312-0.252-0.617-0.51-0.936-0.756c-0.576-0.439-1.16-0.861-1.756-1.271c-0.135-0.096-0.277-0.193-0.41-0.289
						c-0.711-0.48-1.43-0.945-2.166-1.385v-0.002c8.258,6.383,13.594,16.366,13.594,27.612c0,4.564-0.883,8.922-2.475,12.914
						C198.628,161.975,198.602,161.969,198.564,161.959z M217.286,133.559c7.221,0,13.084,5.789,13.226,12.978
						c-0.994,0.213-2.021,0.328-3.074,0.328c-7.394,0-13.498-5.438-14.592-12.526C214.238,133.841,215.727,133.559,217.286,133.559z
						"/>
				</g>
				<path fill="#231F20" d="M266.768,166.434c-1.783-6.406-6.017-12.127-11.605-15.701c-4.885-3.166-10.996-4.713-16.859-4.241
					c-0.217-3.173-1.293-6.339-3.066-8.996c-1.03-1.562-2.321-2.981-3.838-4.224c2.107-5.156,2.681-11.014,1.605-16.553
					c-1.279-6.83-5.168-13.273-10.664-17.674c-5.205-4.227-12.025-6.65-18.721-6.65c-0.277,0-0.561,0.004-0.832,0.014
					c-5.557,0.119-11.096,1.893-15.678,5.008c-1.644-2.127-3.56-3.951-5.676-5.426c-1.101-0.775-2.302-1.479-3.67-2.146
					c-0.104-0.051-0.205-0.094-0.312-0.133l-0.182-0.078c-0.449-0.203-0.912-0.4-1.375-0.582c-0.188-0.068-0.369-0.133-0.547-0.195
					c-3.17-1.139-6.455-1.691-9.673-1.527c-0.151-0.611-0.301-1.283-0.454-2.066c-0.195-1.01-0.4-2.051-0.695-3.088
					c-0.629-2.344-1.488-4.652-2.555-6.859c-2.22-4.602-5.414-8.857-9.248-12.312c-4.052-3.66-8.936-6.514-14.122-8.248
					c-5.408-1.818-11.242-2.463-16.994-1.871c-8.973,0.881-17.781,5.029-24.17,11.375c-5.732,5.619-9.693,12.971-11.195,20.773
					c-0.996-0.201-1.965-0.297-2.947-0.297c-3.869,0-7.678,1.291-10.73,3.631c-2.232,1.67-4.072,3.895-5.324,6.426
					c-0.822,1.662-1.371,3.508-1.604,5.389c-5.947-1.531-12.307-1.467-18.197,0.154c-6.684,1.816-12.887,5.725-17.469,11.01
					c-3.643,4.184-6.287,9.207-7.645,14.523c-1.311,5.085-1.473,10.506-0.463,15.667c0.922,4.832,2.93,9.521,5.803,13.574
					c2.141,3.014,4.83,5.74,7.826,7.949c-3.33,1.502-6.182,4-8.084,7.098c-2.508,3.992-3.371,8.949-2.365,13.596
					c0.113,0.51,0.232,0.969,0.359,1.396l0.049,0.151c0.045,0.171,0.096,0.337,0.238,0.729l0.236,0.684
					c0.035,0.078,0.143,0.316,0.443,0.482l0.166,0.094h56.52l-0.264-0.727h-0.773c-0.027-0.076-0.084-0.14-0.17-0.14l-53.281-1.916
					c-0.098-0.229-0.189-0.485-0.264-0.758c-0.07-0.263-0.121-0.483-0.158-0.66c-0.293-1.354-0.389-2.75-0.326-4.133
					c-0.033-11.488,8.898-15.11,14.811-16.25c1.012-0.222,2.037-0.367,3.076-0.431c1.246-0.106,2.033-0.094,2.033-0.094
					s-0.062,0.068,0,0.064c-0.062,2.088,0.211,4.176,0.855,6.16c0.873,2.654,2.373,5.053,4.328,6.941
					c0.039,0.034,0.088,0.055,0.141,0.055c0.045,0,0.092-0.016,0.127-0.047c0.084-0.062,0.098-0.178,0.049-0.262
					c-2.84-4.623-3.852-10.271-2.783-15.486c1.033-5.188,4.168-9.986,8.604-13.174c0.082-0.062,0.109-0.17,0.057-0.263
					c-0.049-0.088-0.15-0.129-0.246-0.09c-2.529,0.969-4.844,2.594-6.684,4.703c-2.049,2.312-3.512,5.272-4.123,8.336
					c-0.176,0.858-0.273,1.726-0.324,2.59c-3.414-0.528-7.062-0.096-10.277,1.228c-3.18-2.486-6-5.551-8.146-8.957
					c-2.479-3.939-4.164-8.406-4.855-12.914c-0.764-4.795-0.484-9.782,0.799-14.43c1.326-4.826,3.777-9.395,7.104-13.215
					c4.18-4.811,9.814-8.453,15.881-10.252c3.162-0.945,6.457-1.42,9.799-1.42c2.77,0,5.518,0.328,8.176,0.984
					c0.129,0.035,0.264,0.037,0.395,0.006c5.08,1.291,9.898,3.781,13.928,7.199c-0.367,0.34-0.748,0.666-1.094,1.027
					c-2.512,2.615-4.475,5.807-5.678,9.236c-1.072,3.059-1.549,6.338-1.367,9.49c0.006,0.102,0.09,0.184,0.203,0.189
					c0.1,0,0.184-0.074,0.205-0.17c1.029-6.445,4.021-12.5,8.404-17.059c4.334-4.561,10.258-7.801,16.682-9.121
					c0.102-0.02,0.166-0.113,0.16-0.215c-0.008-0.105-0.092-0.184-0.201-0.184c-3.129-0.055-6.416,0.562-9.418,1.764
					c-2.781,1.1-5.369,2.746-7.627,4.74c-3.85-3.807-8.641-6.666-13.857-8.27c-0.023-0.02-0.057-0.027-0.084-0.045
					c1.506-4.162,4.174-7.85,7.605-10.434c3.484-2.645,7.82-4.199,12.275-4.43c-0.443,2.771-0.594,5.604-0.432,8.418
					c0.006,0.107,0.094,0.191,0.205,0.191c0.109,0,0.199-0.09,0.199-0.197c0.043-2.775,0.369-5.539,0.955-8.213
					c0.096-0.08,0.164-0.188,0.193-0.326c1.711-7.609,5.805-14.727,11.531-20.045c6.156-5.785,14.154-9.428,22.525-10.254
					c1.314-0.137,2.662-0.205,3.99-0.205c4.014,0,7.961,0.607,11.742,1.805c4.827,1.529,9.437,4.07,13.319,7.346
					c3.709,3.113,6.89,6.998,9.209,11.229c1.121,2.049,2.066,4.203,2.81,6.404c0.334,0.934,0.597,1.906,0.84,2.846
					c0.236,0.885,0.498,1.775,0.798,2.65c-5.099,0.375-10.015,2.379-13.854,5.648c-0.084,0.066-0.097,0.186-0.033,0.271
					c0.062,0.084,0.181,0.107,0.269,0.051c4.104-2.588,8.979-4.033,13.723-4.066l0.35-0.004c3.062,0,6.115,0.582,8.973,1.66
					c0.781,0.316,1.554,0.648,2.306,1.018c0.633,0.311,1.258,0.662,1.885,1.014c0.461,0.283,0.92,0.572,1.363,0.883
					c4.334,3.02,7.684,7.42,9.43,12.387c1.509,4.232,1.863,8.99,1.06,13.49c-1.213-0.699-2.459-1.344-3.728-1.895
					c-3.789-1.648-7.938-2.652-12.014-2.895c-0.101,0.002-0.193,0.068-0.212,0.176c-0.014,0.102,0.056,0.203,0.16,0.227
					c8.213,1.879,15.967,6.168,21.826,12.07c5.885,5.868,10.154,13.633,12.014,21.858c0.021,0.092,0.104,0.158,0.228,0.152
					c0.104-0.012,0.179-0.103,0.173-0.209c-0.232-4.072-1.224-8.229-2.865-12.019c-0.164-0.387-0.347-0.772-0.527-1.157
					c2.396-2.084,5.234-3.582,8.246-4.334c1.545-0.389,3.133-0.584,4.73-0.584c2.096,0,4.141,0.332,6.088,0.982
					c3.428,1.146,6.575,3.348,8.871,6.188c1.938,2.383,3.286,5.246,3.965,8.324c-5.328,0.631-10.4,2.889-14.312,6.389
					c-0.08,0.07-0.092,0.195-0.023,0.281c0.07,0.082,0.193,0.096,0.277,0.031c3.693-2.807,8.156-4.598,12.752-5.158
					c2.436-0.295,4.914-0.102,7.332,0.262c2.334,0.349,4.623,1.025,6.77,1.996c1.285,0.58,2.517,1.271,3.683,2.064
					c4.896,3.285,8.604,8.414,10.185,14.072c1.303,4.643,1.229,9.711-0.216,14.281c-0.182,0.598-0.399,1.184-0.586,1.672
					l-0.575,1.377l-51.968,1.801c-0.086,0.006-0.144,0.068-0.17,0.145h-0.772l-0.258,0.728h55.143l0.988-2.022l0.389-0.896
					c0.227-0.543,0.479-1.191,0.693-1.857C268.109,177.379,268.239,171.67,266.768,166.434z M224.988,130.523
					c-1.897-0.642-3.901-0.967-5.94-0.967c-2.118,0-4.26,0.365-6.196,1.051c-3.134,1.104-5.922,3.082-7.963,5.615
					c-1.769-3.582-4.171-6.941-7.029-9.807c-2.183-2.186-4.662-4.105-7.308-5.689c1.521-4.564,1.646-9.627,0.312-14.332
					c-0.742-2.674-1.982-5.234-3.603-7.545c4.441-2.465,9.562-3.824,14.57-3.824c0.319,0,0.644,0.006,0.967,0.018
					c6.377,0.17,12.606,2.463,17.548,6.469c4.979,3.992,8.561,9.588,10.081,15.752c1.298,5.176,1.154,10.77-0.368,15.904
					C228.507,132.034,226.79,131.122,224.988,130.523z"/>
			</g>
			<g>
				<g>
					<g>
						<path fill="#231F20" d="M60.306,213.049c0.188-3.66,1.986-11.244,3.424-17.498c-3.494,5.562-7.629,12.23-10.117,14.971
							l-0.006,0.004c-0.219,0.273-0.412,0.586-0.557,0.933c-0.793,1.926,0.125,4.129,2.049,4.928c1.922,0.8,4.131-0.112,4.93-2.038
							C60.205,213.92,60.292,213.484,60.306,213.049L60.306,213.049z"/>
						<path fill="#FFFFFF" d="M56.845,212.924c0.074-1.461,0.789-4.492,1.363-6.996c-1.396,2.221-3.051,4.891-4.047,5.988l0,0
							c-0.088,0.113-0.164,0.23-0.225,0.373c-0.314,0.77,0.049,1.654,0.822,1.971c0.768,0.32,1.65-0.045,1.969-0.814
							C56.8,213.275,56.835,213.1,56.845,212.924L56.845,212.924z"/>
						<g>
							<path fill="#231F20" d="M48.412,232.537c-1.971,2.086-3.967,3.869-5.779,5.201v0.006c-0.457,0.379-0.824,0.865-1.068,1.455
								c-0.795,1.922,0.119,4.131,2.043,4.934c1.926,0.793,4.131-0.125,4.93-2.049c0.277-0.664,0.34-1.369,0.238-2.035
								C48.46,237.873,48.322,235.291,48.412,232.537z"/>
						</g>
						<g>
							<path fill="#FFFFFF" d="M45.476,237.16c-0.791,0.826-1.59,1.547-2.314,2.072v0.006c-0.184,0.148-0.328,0.346-0.428,0.58
								c-0.316,0.771,0.049,1.654,0.818,1.975c0.771,0.316,1.654-0.051,1.971-0.818c0.113-0.27,0.139-0.547,0.098-0.815
								C45.496,239.287,45.439,238.258,45.476,237.16z"/>
						</g>
					</g>
				</g>
				<g>
					<g>
						<path fill="#231F20" d="M92.916,213.049c0.186-3.66,1.982-11.244,3.414-17.498c-3.488,5.562-7.623,12.23-10.113,14.971
							l-0.008,0.004c-0.215,0.273-0.408,0.586-0.549,0.933c-0.799,1.926,0.119,4.129,2.045,4.928c1.926,0.8,4.131-0.112,4.93-2.038
							C92.812,213.92,92.898,213.484,92.916,213.049L92.916,213.049z"/>
						<path fill="#FFFFFF" d="M89.449,212.924c0.07-1.461,0.793-4.492,1.365-6.996c-1.4,2.221-3.047,4.891-4.045,5.988l0,0
							c-0.09,0.113-0.166,0.23-0.227,0.373c-0.32,0.77,0.049,1.654,0.822,1.971c0.764,0.32,1.652-0.045,1.967-0.814
							C89.406,213.275,89.437,213.1,89.449,212.924L89.449,212.924z"/>
						<g>
							<path fill="#231F20" d="M81.015,232.537c-1.967,2.086-3.965,3.869-5.777,5.201v0.006c-0.453,0.379-0.822,0.865-1.07,1.455
								c-0.793,1.922,0.121,4.131,2.045,4.934c1.926,0.793,4.135-0.125,4.93-2.049c0.277-0.664,0.34-1.369,0.234-2.035
								C81.06,237.873,80.927,235.291,81.015,232.537z"/>
						</g>
						<g>
							<path fill="#FFFFFF" d="M78.076,237.16c-0.783,0.826-1.58,1.547-2.312,2.072v0.006c-0.18,0.148-0.324,0.346-0.424,0.58
								c-0.316,0.771,0.049,1.654,0.818,1.975c0.768,0.316,1.654-0.051,1.971-0.818c0.111-0.27,0.133-0.547,0.094-0.815
								C78.097,239.287,78.046,238.258,78.076,237.16z"/>
						</g>
					</g>
				</g>
				<g>
					<g>
						<path fill="#231F20" d="M125.523,213.049c0.182-3.66,1.979-11.244,3.412-17.498c-3.486,5.562-7.627,12.23-10.119,14.971v0.004
							c-0.221,0.273-0.412,0.586-0.555,0.933c-0.793,1.926,0.119,4.129,2.047,4.928c1.926,0.8,4.133-0.112,4.932-2.038
							C125.416,213.92,125.503,213.484,125.523,213.049L125.523,213.049z"/>
						<path fill="#FFFFFF" d="M122.054,212.924c0.07-1.461,0.789-4.492,1.365-6.996c-1.396,2.221-3.051,4.891-4.051,5.988l0,0
							c-0.088,0.113-0.164,0.23-0.219,0.373c-0.322,0.77,0.047,1.654,0.816,1.971c0.768,0.32,1.65-0.045,1.971-0.814
							C122.011,213.275,122.042,213.1,122.054,212.924L122.054,212.924z"/>
						<g>
							<path fill="#231F20" d="M113.623,232.537c-1.971,2.086-3.967,3.869-5.779,5.201v0.006c-0.457,0.379-0.824,0.865-1.068,1.455
								c-0.797,1.922,0.119,4.131,2.045,4.934c1.922,0.793,4.131-0.125,4.928-2.049c0.271-0.664,0.34-1.369,0.238-2.035
								C113.667,237.873,113.533,235.291,113.623,232.537z"/>
						</g>
						<g>
							<path fill="#FFFFFF" d="M110.683,237.16c-0.787,0.826-1.586,1.547-2.314,2.072v0.006c-0.178,0.148-0.324,0.346-0.422,0.58
								c-0.322,0.771,0.045,1.654,0.816,1.975c0.77,0.316,1.654-0.051,1.971-0.818c0.107-0.27,0.137-0.547,0.094-0.815
								C110.703,239.287,110.65,238.258,110.683,237.16z"/>
						</g>
					</g>
				</g>
				<g>
					<g>
						<path fill="#231F20" d="M158.124,213.049c0.187-3.66,1.981-11.244,3.416-17.498c-3.485,5.562-7.623,12.23-10.115,14.971
							l-0.006,0.004c-0.219,0.273-0.408,0.586-0.551,0.933c-0.793,1.926,0.118,4.129,2.043,4.928c1.922,0.8,4.131-0.112,4.93-2.038
							C158.021,213.92,158.107,213.484,158.124,213.049L158.124,213.049z"/>
						<path fill="#FFFFFF" d="M154.654,212.924c0.076-1.461,0.794-4.492,1.367-6.996c-1.395,2.221-3.053,4.891-4.049,5.988l0,0
							c-0.088,0.113-0.164,0.23-0.221,0.373c-0.318,0.77,0.047,1.654,0.818,1.971c0.768,0.32,1.65-0.045,1.971-0.814
							C154.611,213.275,154.646,213.1,154.654,212.924L154.654,212.924z"/>
						<g>
							<path fill="#231F20" d="M146.225,232.537c-1.971,2.086-3.965,3.869-5.778,5.201v0.006c-0.455,0.379-0.82,0.865-1.07,1.455
								c-0.793,1.922,0.123,4.131,2.049,4.934c1.922,0.793,4.131-0.125,4.924-2.049c0.276-0.664,0.346-1.369,0.239-2.035
								C146.275,237.873,146.141,235.291,146.225,232.537z"/>
						</g>
						<g>
							<path fill="#FFFFFF" d="M143.289,237.16c-0.785,0.826-1.586,1.547-2.314,2.072v0.006c-0.183,0.148-0.322,0.346-0.425,0.58
								c-0.318,0.771,0.046,1.654,0.819,1.975c0.768,0.316,1.65-0.051,1.973-0.818c0.107-0.27,0.133-0.547,0.092-0.815
								C143.309,239.287,143.252,238.258,143.289,237.16z"/>
						</g>
					</g>
				</g>
			</g>
		</g>
		<g>
			<polygon fill="#FFDFA0" points="200.118,196.934 209.12,187.209 187.499,187.209 175.857,210.646 189.663,210.646 
				179.411,231.943 193.208,231.943 182.229,255.412 211.23,218.414 198.307,218.414 212.688,196.934 			"/>
			<polygon fill="#231F20" points="206.398,195.891 203.262,195.859 202.083,195.824 211.396,186.387 207.708,186.518 
				198.146,198.043 206.398,197.982 210.848,197.916 196.971,219.131 210.068,218.996 182.216,255.402 212.357,217.848 
				199.626,217.709 214.518,195.959 			"/>
			<polygon fill="#231F20" points="190.749,209.961 177.161,209.83 188.941,187.102 185.945,187.203 174.566,211.453 
				188.587,211.32 178.689,232.393 192.698,232.26 182.232,255.412 193.734,231.611 180.146,231.484 			"/>
		</g>
		<polygon fill="#231F20" points="169.118,186.945 168.857,187.287 188.843,187.287 189.609,185.738 		"/>
	</g>
</g>
</svg>
