<?xml version="1.0" encoding="utf-8"?>
<!-- Generator: Adobe Illustrator 15.0.2, SVG Export Plug-In . SVG Version: 6.00 Build 0)  -->
<!DOCTYPE svg PUBLIC "-//W3C//DTD SVG 1.1//EN" "http://www.w3.org/Graphics/SVG/1.1/DTD/svg11.dtd">
<svg version="1.1" id="Layer_1" xmlns="http://www.w3.org/2000/svg" xmlns:xlink="http://www.w3.org/1999/xlink" x="0px" y="0px"
	 width="280px" height="260px" viewBox="0 0 280 260" enable-background="new 0 0 280 260" xml:space="preserve">
<g>
	<g>
		<path fill="#3479BE" d="M34.26,147.279c34.459,1.498,74.74,2.365,117.777,2.365c43.047,0,83.324-0.867,117.779-2.365
			c-34.455-1.498-74.732-2.355-117.779-2.355C109,144.924,68.719,145.781,34.26,147.279z"/>
		<path fill="#3479BE" d="M31.782,140.318c35.408,1.496,76.793,2.356,121.021,2.356c44.23,0,85.615-0.86,121.021-2.356
			c-35.406-1.504-76.791-2.361-121.021-2.361C108.575,137.957,67.19,138.814,31.782,140.318z"/>
		<path fill="#3479BE" d="M35.621,133.352c35.326,1.498,76.623,2.359,120.746,2.359c44.139,0,85.434-0.861,120.762-2.359
			c-35.328-1.504-76.623-2.367-120.762-2.367C112.244,130.984,70.948,131.848,35.621,133.352z"/>
		<path fill="#3479BE" d="M20.164,126.389c37.797,1.494,81.967,2.359,129.178,2.359c47.209,0,91.383-0.865,129.178-2.359
			c-37.795-1.502-81.969-2.363-129.178-2.363C102.131,124.025,57.961,124.887,20.164,126.389z"/>
		<path fill="#3479BE" d="M10.491,119.416c38.025,1.506,82.461,2.367,129.955,2.367c47.498,0,91.935-0.861,129.955-2.367
			c-38.021-1.498-82.457-2.357-129.955-2.357C92.952,117.059,48.517,117.918,10.491,119.416z"/>
		<path fill="#3479BE" d="M10.281,112.457c37.402,1.492,81.135,2.359,127.86,2.359c46.728,0,90.453-0.867,127.859-2.359
			c-37.406-1.498-81.131-2.365-127.859-2.365C91.415,110.092,47.683,110.959,10.281,112.457z"/>
		<path fill="#3479BE" d="M4.476,105.49c39.813,1.502,86.359,2.361,136.094,2.361c49.738,0,96.283-0.859,136.094-2.361
			c-39.811-1.498-86.355-2.359-136.094-2.359C90.835,103.131,44.289,103.992,4.476,105.49z"/>
		<path fill="#3479BE" d="M1.71,98.523c38.748,1.498,84.036,2.359,132.432,2.359c48.405,0,93.684-0.861,132.436-2.359
			c-38.752-1.498-84.031-2.365-132.436-2.365C85.746,96.158,40.458,97.025,1.71,98.523z"/>
		<path fill="#3479BE" d="M19.605,91.557c33.574,1.504,72.814,2.367,114.75,2.367c41.942,0,81.178-0.863,114.737-2.367
			c-33.559-1.498-72.795-2.354-114.737-2.354C92.419,89.203,53.179,90.059,19.605,91.557z"/>
		<path fill="#3479BE" d="M20.204,84.598c32.354,1.496,70.178,2.357,110.596,2.357c40.421,0,78.241-0.861,110.579-2.357
			c-32.338-1.506-70.158-2.363-110.579-2.363C90.382,82.234,52.558,83.092,20.204,84.598z"/>
		<path fill="#3479BE" d="M6.856,77.629c35.393,1.498,76.771,2.359,120.984,2.359c44.223,0,85.596-0.861,121-2.359
			c-35.404-1.498-76.777-2.359-121-2.359C83.627,75.27,42.248,76.131,6.856,77.629z"/>
		<path fill="#3479BE" d="M25.811,70.668c30.236,1.496,65.559,2.355,103.316,2.355c37.756,0,73.094-0.859,103.324-2.355
			c-30.23-1.502-65.568-2.365-103.324-2.365C91.369,68.303,56.047,69.166,25.811,70.668z"/>
		<path fill="#3479BE" d="M51.372,63.695c23.217,1.504,50.35,2.367,79.348,2.367c29.004,0,56.137-0.863,79.354-2.367
			c-23.217-1.5-50.35-2.359-79.354-2.359C101.722,61.336,74.589,62.195,51.372,63.695z"/>
		<path fill="#3479BE" d="M55.646,56.734c20.506,1.492,44.475,2.361,70.092,2.361c25.62,0,49.59-0.869,70.102-2.361
			c-20.512-1.498-44.48-2.359-70.102-2.359C100.12,54.375,76.152,55.236,55.646,56.734z"/>
		<path fill="#3479BE" d="M54.536,49.77c19.006,1.498,41.23,2.365,64.973,2.365c23.747,0,45.959-0.867,64.97-2.365
			c-19.011-1.5-41.224-2.357-64.97-2.357C95.767,47.412,73.542,48.27,54.536,49.77z"/>
		<path fill="#3479BE" d="M61.197,42.807c18.033,1.498,39.117,2.355,61.642,2.355c22.533,0,43.613-0.857,61.647-2.355
			c-18.034-1.504-39.114-2.361-61.647-2.361C100.314,40.445,79.23,41.303,61.197,42.807z"/>
		<path fill="#3479BE" d="M77.5,35.84c14.436,1.498,31.307,2.365,49.345,2.365c18.032,0,34.905-0.867,49.34-2.365
			c-14.438-1.498-31.312-2.359-49.34-2.359C108.807,33.48,91.936,34.342,77.5,35.84z"/>
		<path fill="#3479BE" d="M92.633,28.875c9.641,1.502,20.899,2.363,32.937,2.363c12.039,0,23.303-0.861,32.942-2.363
			c-9.64-1.504-20.903-2.361-32.942-2.361C113.533,26.514,102.274,27.371,92.633,28.875z"/>
	</g>
	<path fill="#D4DAE6" d="M54.029,248.936c-1.064,0-2.143-0.209-3.189-0.641c-4.248-1.766-6.258-6.637-4.496-10.881l1.604-3.852
		c1.76-4.242,6.631-6.252,10.879-4.49c4.248,1.768,6.258,6.639,4.492,10.887l-1.598,3.84
		C60.39,247.004,57.294,248.936,54.029,248.936z M65.204,222.025c-1.059,0-2.145-0.209-3.189-0.644
		c-4.244-1.766-6.258-6.637-4.494-10.885l6.387-15.379c1.762-4.242,6.627-6.261,10.881-4.496c4.248,1.769,6.258,6.637,4.496,10.885
		L72.9,216.889C71.568,220.094,68.466,222.025,65.204,222.025z"/>
	<path fill="#D4DAE6" d="M86.552,248.936c-1.064,0-2.145-0.209-3.189-0.641c-4.248-1.762-6.258-6.633-4.496-10.881l1.596-3.846
		c1.762-4.242,6.633-6.258,10.881-4.496c4.246,1.762,6.26,6.633,4.498,10.881l-1.594,3.846
		C92.919,247.004,89.818,248.936,86.552,248.936z M97.728,222.025c-1.061,0-2.145-0.209-3.189-0.644
		c-4.248-1.766-6.26-6.637-4.498-10.885l6.387-15.379c1.764-4.242,6.631-6.261,10.883-4.492c4.248,1.765,6.26,6.633,4.498,10.881
		l-6.389,15.382C104.091,220.094,100.99,222.025,97.728,222.025z"/>
	<path fill="#D4DAE6" d="M119.075,248.936c-1.064,0-2.145-0.209-3.189-0.641c-4.248-1.762-6.258-6.633-4.498-10.881l1.598-3.846
		c1.76-4.242,6.633-6.258,10.879-4.496c4.248,1.762,6.262,6.633,4.5,10.881l-1.598,3.846
		C125.435,247.004,122.341,248.936,119.075,248.936z M130.249,222.025c-1.064,0-2.146-0.209-3.188-0.644
		c-4.248-1.766-6.26-6.637-4.498-10.885l6.387-15.379c1.764-4.242,6.629-6.261,10.883-4.492c4.249,1.765,6.261,6.633,4.499,10.881
		l-6.389,15.382C136.611,220.094,133.513,222.025,130.249,222.025z"/>
	<path fill="#D4DAE6" d="M151.594,248.936c-1.062,0-2.145-0.209-3.184-0.641c-4.252-1.762-6.266-6.633-4.5-10.881l1.594-3.846
		c1.766-4.248,6.633-6.252,10.881-4.496c4.248,1.768,6.266,6.639,4.498,10.887l-1.596,3.84
		C157.959,247.004,154.861,248.936,151.594,248.936z M162.773,222.025c-1.064,0-2.146-0.209-3.193-0.644
		c-4.246-1.766-6.26-6.637-4.494-10.885l6.385-15.379c1.764-4.242,6.631-6.261,10.881-4.492c4.248,1.765,6.265,6.633,4.498,10.881
		l-6.385,15.382C169.133,220.094,166.037,222.025,162.773,222.025z"/>
	<path fill="#FFFFFF" d="M191.082,118.002c0.217,0.107,0.438,0.211,0.646,0.324c0.006-0.041,0.012-0.08,0.012-0.119
		C191.525,118.135,191.309,118.07,191.082,118.002z"/>
	<path fill="#FFFFFF" d="M174.057,114.34c4.926,0,9.653,0.816,14.076,2.307c-4.027-1.623-8.418-2.523-13.027-2.523
		c-1.941,0-3.844,0.166-5.691,0.469C170.936,114.432,172.488,114.34,174.057,114.34z"/>
	<path fill="#D4DAE6" d="M275.631,166.383c-1.779-6.41-6.01-12.131-11.604-15.705c-4.885-3.166-10.996-4.711-16.859-4.242
		c-0.217-3.172-1.291-6.338-3.07-8.994c-1.024-1.562-2.315-2.979-3.834-4.223c2.107-5.156,2.682-11.014,1.609-16.553
		c-1.281-6.832-5.172-13.273-10.672-17.676c-5.199-4.225-12.025-6.648-18.713-6.648c-0.283,0-0.562,0.002-0.834,0.012
		c-5.562,0.117-11.104,1.895-15.678,5.012c-1.648-2.129-3.56-3.953-5.685-5.432c-1.097-0.77-2.293-1.473-3.67-2.145
		c-0.101-0.051-0.2-0.094-0.306-0.133l-0.184-0.078c-0.453-0.205-0.912-0.402-1.383-0.582c-0.182-0.07-0.367-0.133-0.543-0.195
		c-3.166-1.139-6.457-1.688-9.67-1.529c-0.158-0.611-0.303-1.279-0.457-2.064c-0.193-1.008-0.4-2.051-0.697-3.09
		c-0.629-2.342-1.49-4.65-2.555-6.855c-2.215-4.602-5.412-8.861-9.244-12.311c-4.055-3.666-8.938-6.514-14.125-8.25
		c-5.41-1.818-11.245-2.465-16.993-1.873c-8.973,0.885-17.781,5.031-24.17,11.375c-5.732,5.617-9.693,12.971-11.191,20.775
		c-0.998-0.199-1.965-0.297-2.951-0.297c-3.869,0-7.68,1.287-10.729,3.627c-2.234,1.67-4.074,3.896-5.324,6.428
		c-0.826,1.66-1.369,3.51-1.605,5.393c-5.943-1.535-12.305-1.469-18.197,0.15c-6.682,1.818-12.889,5.729-17.467,11.008
		c-3.646,4.186-6.293,9.207-7.646,14.523c-1.311,5.089-1.473,10.509-0.463,15.669c0.922,4.828,2.934,9.521,5.805,13.572
		c2.139,3.012,4.832,5.74,7.828,7.951c-3.336,1.502-6.186,4-8.088,7.1c-2.51,3.99-3.371,8.947-2.363,13.595
		c0.111,0.51,0.227,0.969,0.357,1.396l0.049,0.151c0.047,0.17,0.098,0.336,0.238,0.729l0.24,0.687
		c0.033,0.077,0.139,0.315,0.441,0.479l0.164,0.096h29.838H91.91h126.124h2.338h52.802l0.992-2.026l0.385-0.896
		c0.229-0.543,0.479-1.188,0.694-1.856C276.973,177.324,277.105,171.615,275.631,166.383z"/>
	<g>
		<path fill="#ACBAD1" d="M240.094,122.822c-0.062-0.09-0.125-0.182-0.203-0.254c0.053-0.484,0.082-0.969,0.104-1.451
			c-0.028-0.273-0.08-0.543-0.119-0.814c-0.051-0.387-0.097-0.771-0.164-1.154c-0.118-0.65-0.256-1.299-0.416-1.939
			c-1.521-6.164-5.103-11.758-10.086-15.752c-4.937-4.002-11.166-6.301-17.543-6.471c-0.325-0.008-0.646-0.014-0.967-0.014
			c-5.007,0-10.13,1.361-14.567,3.826c1.614,2.305,2.856,4.867,3.602,7.539c1.334,4.711,1.209,9.77-0.312,14.336
			c2.646,1.582,5.122,3.502,7.311,5.689c2.854,2.865,5.262,6.225,7.027,9.807c2.039-2.531,4.828-4.512,7.963-5.615
			c1.938-0.686,4.08-1.055,6.196-1.055c2.039,0,4.039,0.326,5.94,0.967c1.802,0.604,3.519,1.514,5.068,2.646
			c0.232-0.781,0.418-1.57,0.582-2.367c0.031-0.135,0.059-0.277,0.08-0.412C240.066,127.863,240.23,125.332,240.094,122.822z
			 M231.936,125.25c-14.242-0.465-25.719-11.754-26.479-25.922c2.314-0.92,4.84-1.441,7.479-1.441
			c11.209,0,20.293,9.084,20.293,20.291C233.229,120.67,232.76,123.043,231.936,125.25z"/>
		<path fill="#ACBAD1" d="M33.173,139.576c-0.014-0.123-0.025-0.248-0.039-0.377c0-0.008-0.002-0.014-0.002-0.02
			C33.146,139.311,33.158,139.443,33.173,139.576z"/>
		<path fill="#ACBAD1" d="M192.041,114.715c0,0.865-0.08,1.711-0.182,2.545l0.006,0.004c1.143,0.365,2.275,0.773,3.373,1.248
			c1.266,0.551,2.512,1.193,3.729,1.896c0.805-4.5,0.447-9.258-1.059-13.492c-1.744-4.967-5.098-9.365-9.432-12.387
			c-0.441-0.311-0.902-0.6-1.363-0.881c-0.627-0.354-1.252-0.705-1.887-1.014c-0.754-0.371-1.523-0.699-2.307-1.016
			c-2.854-1.076-5.906-1.66-8.975-1.66H173.6c-4.744,0.039-9.615,1.484-13.725,4.072c0.426-0.271,0.873-0.504,1.314-0.742
			c2.484-0.924,5.16-1.453,7.959-1.453C181.793,91.834,192.041,102.078,192.041,114.715z"/>
		<path fill="#ACBAD1" d="M170.301,88.523c0.107-0.021,0.213-0.039,0.324-0.062c0.947-0.186,1.902-0.334,2.873-0.408
			c-0.303-0.871-0.561-1.766-0.795-2.645c-0.25-0.939-0.508-1.914-0.838-2.85c-0.742-2.203-1.688-4.355-2.811-6.4
			c-2.322-4.232-5.504-8.115-9.209-11.23c-3.888-3.279-8.496-5.818-13.322-7.348c-3.783-1.197-7.729-1.803-11.745-1.803
			c-1.33,0-2.672,0.068-3.99,0.203c-8.367,0.828-16.365,4.469-22.525,10.256c-5.723,5.318-9.82,12.438-11.531,20.045
			c-0.029,0.135-0.098,0.246-0.189,0.326c-0.59,2.672-0.912,5.434-0.959,8.209c0,0.111-0.09,0.199-0.197,0.199
			c-0.113,0-0.201-0.08-0.207-0.191c-0.162-2.816-0.008-5.648,0.432-8.416c-4.455,0.229-8.789,1.781-12.275,4.43
			c-3.43,2.586-6.1,6.273-7.604,10.434c0.023,0.016,0.062,0.025,0.084,0.045c0.709,0.643,2.635,0.914,3.559,1.316
			c1.246,0.541,2.457,1.158,3.631,1.844c2.4,1.408,4.66,3.107,6.629,5.08c1.559-0.707,2.852-2.25,4.467-3.064
			c4.012-2.01,8.02-3.418,12.668-3.395c0.035-0.023,0.07-0.045,0.109-0.068c-0.215-0.674-0.566-2.492-0.584-2.574
			c-0.129-0.662-0.242-1.33-0.33-2.002c-0.186-1.365-0.275-2.742-0.275-4.117c0-17.178,13.922-31.102,31.102-31.102
			c15.46,0,28.247,11.291,30.657,26.07C168.381,88.986,169.332,88.729,170.301,88.523z"/>
		<path fill="#ACBAD1" d="M143.504,150.078c-1.104,0-2.188,0.059-3.268,0.152c-0.008-0.402-0.027-0.808-0.027-1.211
			c0-4.254,0.775-8.32,2.168-12.09c2.932-8.562,8.664-15.181,15.906-19.273c-0.227,0.082-0.432,0.188-0.652,0.277l0.486-0.215
			c0,0-6.703,1.193-14.432,7.375c-1.229,0.986-2.48,2.096-3.741,3.348c-0.057,0.057-0.113,0.115-0.17,0.172
			c-0.617,0.621-1.236,1.27-1.852,1.957c-0.002,0.006-0.012,0.016-0.018,0.02c-0.58,0.654-1.16,1.35-1.736,2.068
			c-0.088,0.111-0.178,0.219-0.262,0.332c-0.57,0.719-1.131,1.473-1.689,2.26c-0.092,0.135-0.18,0.271-0.277,0.408
			c-0.506,0.727-1.002,1.486-1.494,2.27c-0.076,0.123-0.148,0.236-0.221,0.357c-0.527,0.855-1.041,1.756-1.547,2.682
			c-0.117,0.211-0.227,0.422-0.34,0.635c-0.51,0.967-1.012,1.957-1.502,3c-0.215,0.107-0.43,0.229-0.645,0.322
			c-2.805,1.246-5.863,1.889-8.936,1.889c-0.678,0-1.346-0.039-2.021-0.102c0,0,0,0-0.006,0c-4.662-0.422-8.904-2.291-12.289-5.152
			c-0.033-0.02-0.062-0.045-0.096-0.062c-5.361-4.375-8.785-11.031-8.785-18.49c0-7.816,3.771-14.734,9.58-19.086
			c0.451-0.121,0.816-0.254,0.932-0.393c-0.039,0.008-0.072,0.02-0.115,0.025c-2.336,0.506-4.611,1.26-6.76,2.242
			c-0.006,0.006-0.012,0.01-0.023,0.012c-0.713,0.328-1.422,0.686-2.111,1.064c-0.068,0.035-0.125,0.076-0.193,0.113
			c-0.625,0.352-1.248,0.721-1.852,1.111c-0.156,0.103-0.301,0.215-0.453,0.32c-0.502,0.336-1.004,0.68-1.482,1.045
			c-0.271,0.209-0.525,0.438-0.789,0.656c-0.346,0.281-0.699,0.553-1.031,0.85c-0.584,0.523-1.15,1.07-1.686,1.637
			c-4.387,4.557-7.371,10.611-8.408,17.057c-0.018,0.098-0.102,0.17-0.201,0.17c-0.113-0.004-0.195-0.088-0.201-0.189
			c-0.182-3.152,0.289-6.434,1.365-9.49c1.203-3.43,3.166-6.623,5.682-9.234c0.346-0.363,0.723-0.686,1.088-1.031
			c-3.02-2.561-6.486-4.602-10.174-6.006c-1.229-0.469-2.482-0.865-3.754-1.188c-0.125,0.029-0.264,0.025-0.393-0.012
			c-0.441,0-0.945-0.176-1.4-0.299c-0.004,0-0.01,0-0.02-0.004c-0.736-0.15-1.479-0.275-2.227-0.373
			C71.427,102,71.421,102,71.421,102c-0.445-0.045-0.867-0.045-1.309-0.051c-0.197,0-0.379-0.068-0.555-0.141
			c-0.883-0.066-1.768-0.113-2.656-0.113c-3.336,0-6.633,0.479-9.797,1.424c-6.062,1.799-11.701,5.439-15.881,10.25
			c-3.322,3.822-5.781,8.391-7.104,13.217c-0.316,1.152-0.568,2.322-0.768,3.508c-0.096,0.607-0.135,1.222-0.201,1.837
			c-0.062,0.576-0.152,1.15-0.189,1.729c-0.045,0.812-0.025,1.637-0.018,2.453c0.006,0.381-0.016,0.764-0.002,1.146
			c0.031,0.65,0.125,1.294,0.189,1.941c0.051,0.254,0.102,0.502,0.158,0.752c-0.012,0.254-0.006,0.51,0,0.769
			c0.012,0.1,0.012,0.194,0.029,0.291c0.695,4.514,2.379,8.979,4.857,12.916c2.148,3.407,4.963,6.475,8.146,8.961
			c3.215-1.322,6.863-1.759,10.281-1.229c0.045-0.867,0.146-1.729,0.32-2.595c0.613-3.061,2.074-6.021,4.119-8.338
			c1.848-2.104,4.158-3.729,6.688-4.703c0.096-0.036,0.201,0.009,0.246,0.097c0.051,0.09,0.027,0.198-0.057,0.26
			c-4.436,3.188-7.57,7.986-8.604,13.179c-1.07,5.219-0.057,10.862,2.783,15.485c0.049,0.084,0.031,0.197-0.049,0.261
			c-0.033,0.032-0.082,0.047-0.123,0.047c-0.057,0-0.104-0.019-0.145-0.054c-1.957-1.891-3.453-4.286-4.324-6.94
			c-0.652-1.982-0.918-4.072-0.861-6.158c-0.02,0-0.041,0-0.057,0l0.057-0.066c0,0-0.787-0.012-2.033,0.096
			c-1.037,0.062-2.062,0.209-3.07,0.433c-5.916,1.139-14.846,4.758-14.814,16.249c-0.062,1.384,0.031,2.773,0.326,4.132
			c0.037,0.174,0.09,0.397,0.158,0.662c0.074,0.271,0.166,0.524,0.264,0.758l52.695,1.896c-0.256-1.267-0.422-2.558-0.422-3.894
			c0-11.059,8.957-20.013,20.008-20.013c6.939,0,13.057,3.541,16.641,8.908c4.164-10.53,14.417-17.997,26.422-17.997
			c1.688,0,3.324,0.178,4.932,0.454c0.363-0.129,0.75-0.229,1.121-0.348C154.164,151.301,148.982,150.078,143.504,150.078z
			 M153.666,119.701l0.76-0.34c-0.396,0.195-0.775,0.414-1.168,0.617L153.666,119.701z M56.839,145.705
			c-7.633-2.859-13.074-10.201-13.074-18.838c0-11.119,9.012-20.137,20.131-20.137c6.301,0,11.918,2.893,15.604,7.414
			c-5.434,6.086-9.135,13.736-10.438,22.182C64.253,138.418,60.068,141.662,56.839,145.705z M71.333,146.455
			c-0.057-0.014-0.119-0.02-0.176-0.035c0.119-0.084,0.242-0.16,0.361-0.244C71.456,146.27,71.39,146.363,71.333,146.455z
			 M72.775,167.695c-3.793-6.711-3.229-14.828,3.332-21.209c2.133-2.072,4.742-2.885,7.324-2.658
			c2.191,3.797,5.275,6.93,8.922,9.521C83.661,154.508,76.374,160.053,72.775,167.695z"/>
		<path fill="#ACBAD1" d="M207.436,161.908c7.668,2.6,14.203,7.668,18.625,14.283c-0.229-1.24-0.354-2.517-0.354-3.822
			c0-11.506,9.326-20.83,20.824-20.83c11.496,0,20.818,9.324,20.818,20.83c0,4.684-1.566,8.988-4.187,12.473
			c0.899-0.035,1.793-0.062,2.694-0.098c0.562-0.016,1.121-0.039,1.685-0.057l0.658-0.021c0.317-0.012,0.704-0.062,1.067-0.041
			l1.933-0.061l0.577-1.377c0.166-0.435,0.349-0.941,0.517-1.461v-0.015c0.06-0.396,0.212-0.793,0.341-1.188
			c0.047-0.176,0.102-0.346,0.146-0.521c0.08-0.328,0.144-0.655,0.209-0.985c0.058-0.267,0.111-0.531,0.16-0.797
			c0.057-0.341,0.098-0.687,0.141-1.023c0.033-0.273,0.074-0.547,0.098-0.816c0.034-0.354,0.049-0.695,0.066-1.047
			c0.013-0.262,0.035-0.525,0.037-0.789c0.012-0.359-0.002-0.729-0.008-1.098c-0.008-0.25-0.008-0.506-0.021-0.756
			c-0.021-0.365-0.06-0.734-0.094-1.104c-0.024-0.244-0.037-0.494-0.068-0.735c-0.051-0.396-0.122-0.787-0.188-1.181
			c-0.039-0.215-0.062-0.43-0.106-0.646c-0.125-0.604-0.265-1.2-0.431-1.795c-1.578-5.659-5.285-10.787-10.181-14.071
			c-0.672-0.451-1.36-0.861-2.065-1.246c-0.176-0.099-0.354-0.183-0.534-0.272c-0.541-0.275-1.089-0.541-1.646-0.781
			c-0.178-0.072-0.357-0.146-0.535-0.221c-0.709-0.281-1.428-0.541-2.158-0.761c-1.152-0.34-2.324-0.604-3.51-0.78
			c-2.414-0.359-4.896-0.556-7.332-0.261c-1.139,0.14-2.262,0.356-3.369,0.642c-1.127,0.287-2.238,0.649-3.316,1.086
			c-2.16,0.867-4.211,2.02-6.062,3.432c-0.091,0.064-0.209,0.051-0.276-0.031c-0.07-0.084-0.062-0.209,0.021-0.277
			c3.912-3.5,8.982-5.76,14.31-6.391c-0.674-3.08-2.026-5.941-3.965-8.322c-2.291-2.846-5.438-5.041-8.869-6.188
			c-1.942-0.652-3.993-0.98-6.084-0.98c-1.601,0-3.188,0.193-4.729,0.578c-3.02,0.758-5.852,2.256-8.252,4.338
			c0.183,0.385,0.361,0.771,0.531,1.156c1.646,3.789,2.635,7.942,2.867,12.018c0.002,0.105-0.068,0.197-0.176,0.211
			c-0.006,0-0.006-0.006-0.01-0.006c-0.008,0.002-0.008,0.008-0.021,0.01c-0.094,0-0.176-0.063-0.195-0.157
			c-1.858-8.226-6.129-15.988-12.016-21.857c-0.68-0.68-1.389-1.336-2.111-1.975c-0.393-0.344-0.807-0.67-1.213-1.004
			c-0.312-0.256-0.617-0.51-0.936-0.756c-0.574-0.439-1.156-0.861-1.754-1.271c-0.137-0.098-0.272-0.193-0.41-0.289
			c-0.711-0.482-1.432-0.947-2.164-1.385l-0.006-0.004c8.268,6.381,13.599,16.362,13.599,27.612c0,4.562-0.882,8.92-2.479,12.916
			C207.498,161.924,207.463,161.918,207.436,161.908z M226.152,133.506c7.221,0,13.086,5.787,13.223,12.975
			c-0.992,0.213-2.02,0.326-3.072,0.326c-7.395,0-13.502-5.434-14.588-12.522C223.102,133.789,224.592,133.506,226.152,133.506z"/>
	</g>
	<polygon fill="#FFDFA0" points="208.984,196.875 217.986,187.158 196.365,187.158 184.723,210.594 198.525,210.594 
		188.273,231.891 202.07,231.891 191.092,255.355 220.094,218.357 207.172,218.357 221.555,196.875 	"/>
	<g>
		<path fill="#231F20" d="M275.631,166.383c-1.779-6.41-6.01-12.131-11.604-15.705c-4.885-3.166-10.996-4.711-16.859-4.242
			c-0.217-3.172-1.291-6.338-3.07-8.994c-1.024-1.562-2.315-2.979-3.834-4.223c2.107-5.156,2.682-11.014,1.609-16.553
			c-1.281-6.832-5.172-13.273-10.672-17.676c-5.199-4.225-12.025-6.648-18.713-6.648c-0.283,0-0.562,0.002-0.834,0.012
			c-5.562,0.117-11.104,1.895-15.678,5.012c-1.648-2.129-3.56-3.953-5.685-5.432c-1.097-0.77-2.293-1.473-3.67-2.145
			c-0.101-0.051-0.2-0.094-0.306-0.133l-0.184-0.078c-0.453-0.205-0.912-0.402-1.383-0.582c-0.182-0.07-0.367-0.133-0.543-0.195
			c-3.166-1.139-6.457-1.688-9.67-1.529c-0.158-0.611-0.303-1.279-0.457-2.064c-0.193-1.008-0.4-2.051-0.697-3.09
			c-0.629-2.342-1.49-4.65-2.555-6.855c-2.215-4.602-5.412-8.861-9.244-12.311c-4.055-3.666-8.938-6.514-14.125-8.25
			c-5.41-1.818-11.245-2.465-16.993-1.873c-8.973,0.885-17.781,5.031-24.17,11.375c-5.732,5.617-9.693,12.971-11.191,20.775
			c-0.998-0.199-1.965-0.297-2.951-0.297c-3.869,0-7.68,1.287-10.729,3.627c-2.234,1.67-4.074,3.896-5.324,6.428
			c-0.826,1.66-1.369,3.51-1.605,5.393c-5.943-1.535-12.305-1.469-18.197,0.15c-6.682,1.818-12.889,5.729-17.467,11.008
			c-3.646,4.186-6.293,9.207-7.646,14.523c-1.311,5.089-1.473,10.509-0.463,15.669c0.922,4.828,2.934,9.521,5.805,13.572
			c2.139,3.012,4.832,5.74,7.828,7.951c-3.336,1.502-6.186,4-8.088,7.1c-2.51,3.99-3.371,8.947-2.363,13.595
			c0.111,0.51,0.227,0.969,0.357,1.396l0.049,0.151c0.047,0.17,0.098,0.336,0.238,0.729l0.24,0.687
			c0.033,0.077,0.139,0.315,0.441,0.479l0.164,0.096H91.91l-0.26-0.729h-0.773c-0.027-0.071-0.088-0.135-0.172-0.135l-53.279-1.916
			c-0.098-0.229-0.189-0.485-0.264-0.758c-0.068-0.263-0.121-0.488-0.158-0.662c-0.295-1.354-0.389-2.748-0.326-4.132
			c-0.031-11.491,8.898-15.11,14.814-16.25c1.008-0.221,2.033-0.366,3.07-0.43c1.246-0.106,2.033-0.098,2.033-0.098
			s-0.057,0.064,0,0.064c-0.057,2.088,0.209,4.178,0.861,6.158c0.871,2.655,2.367,5.055,4.324,6.942
			c0.041,0.035,0.088,0.052,0.145,0.052c0.041,0,0.09-0.013,0.123-0.046c0.08-0.062,0.098-0.176,0.049-0.26
			c-2.84-4.623-3.854-10.271-2.783-15.488c1.033-5.188,4.168-9.985,8.604-13.176c0.084-0.06,0.107-0.17,0.057-0.26
			c-0.045-0.089-0.15-0.132-0.246-0.095c-2.529,0.972-4.84,2.599-6.688,4.703c-2.045,2.312-3.506,5.275-4.119,8.338
			c-0.174,0.859-0.275,1.726-0.32,2.592c-3.418-0.528-7.066-0.096-10.281,1.229c-3.184-2.487-5.998-5.553-8.146-8.961
			c-2.479-3.938-4.162-8.403-4.857-12.916c-0.762-4.791-0.482-9.78,0.801-14.426c1.322-4.826,3.781-9.395,7.104-13.217
			c4.18-4.811,9.818-8.451,15.881-10.25c3.164-0.943,6.461-1.424,9.797-1.424c2.775,0,5.521,0.33,8.178,0.984
			c0.129,0.037,0.268,0.041,0.393,0.012c5.08,1.291,9.9,3.777,13.928,7.193c-0.365,0.346-0.742,0.668-1.088,1.031
			c-2.516,2.611-4.479,5.805-5.682,9.234c-1.076,3.057-1.547,6.338-1.365,9.49c0.006,0.103,0.088,0.188,0.201,0.189
			c0.1,0,0.184-0.072,0.201-0.17c1.037-6.445,4.021-12.5,8.408-17.057c4.336-4.562,10.262-7.799,16.684-9.121
			c0.1-0.021,0.164-0.117,0.158-0.219c-0.01-0.102-0.092-0.182-0.203-0.182c-3.127-0.057-6.418,0.561-9.416,1.762
			c-2.785,1.102-5.367,2.752-7.627,4.744c-3.852-3.807-8.641-6.664-13.855-8.27c-0.021-0.02-0.061-0.029-0.084-0.045
			c1.504-4.16,4.174-7.848,7.604-10.434c3.486-2.648,7.82-4.201,12.275-4.43c-0.439,2.768-0.594,5.6-0.432,8.416
			c0.006,0.111,0.094,0.191,0.207,0.191c0.107,0,0.197-0.088,0.197-0.199c0.047-2.775,0.369-5.537,0.959-8.209
			c0.092-0.08,0.16-0.191,0.189-0.326c1.711-7.607,5.809-14.727,11.531-20.045c6.16-5.787,14.158-9.428,22.525-10.256
			c1.318-0.135,2.66-0.203,3.99-0.203c4.014,0,7.959,0.605,11.743,1.803c4.826,1.529,9.438,4.068,13.321,7.348
			c3.707,3.115,6.888,6.998,9.21,11.23c1.122,2.045,2.067,4.197,2.812,6.4c0.328,0.937,0.588,1.91,0.838,2.85
			c0.232,0.879,0.49,1.773,0.795,2.645c-5.096,0.377-10.018,2.383-13.854,5.648c-0.08,0.068-0.095,0.188-0.031,0.272
			c0.062,0.086,0.181,0.109,0.269,0.055c4.106-2.588,8.979-4.033,13.726-4.072h0.348c3.062,0,6.115,0.584,8.974,1.66
			c0.78,0.316,1.552,0.645,2.306,1.016c0.636,0.309,1.261,0.66,1.888,1.014c0.461,0.281,0.922,0.57,1.362,0.881
			c4.334,3.021,7.688,7.42,9.433,12.387c1.506,4.234,1.862,8.992,1.06,13.492c-1.218-0.701-2.464-1.344-3.729-1.895
			c-3.787-1.648-7.938-2.65-12.014-2.891c-0.102,0-0.193,0.064-0.215,0.172c-0.012,0.102,0.059,0.201,0.158,0.227
			c8.219,1.881,15.971,6.168,21.83,12.07c5.885,5.869,10.153,13.633,12.014,21.855c0.021,0.096,0.104,0.157,0.229,0.153
			c0.105-0.012,0.178-0.104,0.176-0.211c-0.23-4.071-1.225-8.228-2.865-12.017c-0.172-0.389-0.354-0.772-0.531-1.157
			c2.398-2.082,5.23-3.58,8.252-4.336c1.541-0.386,3.13-0.58,4.729-0.58c2.092,0,4.143,0.33,6.084,0.981
			c3.434,1.146,6.577,3.345,8.868,6.188c1.938,2.381,3.291,5.244,3.966,8.324c-5.322,0.631-10.396,2.889-14.31,6.389
			c-0.084,0.07-0.097,0.195-0.021,0.279c0.067,0.082,0.188,0.098,0.276,0.03c3.689-2.807,8.152-4.596,12.75-5.155
			c2.438-0.295,4.918-0.103,7.332,0.26c2.334,0.351,4.617,1.024,6.771,1.996c1.28,0.582,2.518,1.272,3.684,2.065
			c4.896,3.285,8.603,8.412,10.18,14.072c1.305,4.646,1.229,9.713-0.217,14.281c-0.18,0.598-0.396,1.186-0.582,1.674l-0.578,1.377
			l-51.963,1.801c-0.084,0.006-0.146,0.066-0.176,0.142h-0.771l-0.254,0.729h55.139l0.992-2.026l0.385-0.896
			c0.229-0.543,0.48-1.189,0.695-1.857C276.973,177.324,277.105,171.615,275.631,166.383z M233.857,130.467
			c-1.902-0.641-3.902-0.967-5.941-0.967c-2.117,0-4.262,0.369-6.199,1.055c-3.133,1.104-5.922,3.084-7.961,5.615
			c-1.768-3.582-4.174-6.941-7.029-9.807c-2.186-2.188-4.664-4.107-7.309-5.689c1.52-4.566,1.645-9.625,0.311-14.336
			c-0.74-2.672-1.981-5.234-3.6-7.539c4.439-2.465,9.562-3.826,14.568-3.826c0.322,0,0.641,0.006,0.967,0.014
			c6.377,0.17,12.607,2.469,17.543,6.471c4.984,3.994,8.564,9.588,10.086,15.752c1.299,5.178,1.154,10.771-0.365,15.904
			C237.375,131.98,235.658,131.07,233.857,130.467z"/>
		<g>
			<path fill="#231F20" d="M69.175,212.992c0.186-3.654,1.982-11.238,3.42-17.492c-3.494,5.557-7.629,12.225-10.117,14.971h-0.006
				c-0.219,0.277-0.412,0.59-0.553,0.938c-0.797,1.926,0.121,4.129,2.045,4.928c1.926,0.799,4.129-0.11,4.93-2.039
				C69.07,213.863,69.158,213.428,69.175,212.992L69.175,212.992z"/>
			<path fill="#FFFFFF" d="M65.71,212.867c0.072-1.455,0.791-4.486,1.363-6.996c-1.396,2.227-3.051,4.895-4.047,5.994l0,0
				c-0.088,0.113-0.168,0.23-0.225,0.373c-0.316,0.77,0.049,1.654,0.822,1.965c0.764,0.324,1.65-0.039,1.969-0.809
				C65.663,213.225,65.702,213.049,65.71,212.867L65.71,212.867z"/>
		</g>
		<g>
			<path fill="#231F20" d="M57.275,232.486c-1.969,2.086-3.965,3.869-5.777,5.201v0.006c-0.453,0.373-0.822,0.865-1.064,1.455
				c-0.799,1.92,0.113,4.129,2.039,4.934c1.926,0.793,4.135-0.125,4.934-2.051c0.273-0.662,0.34-1.371,0.234-2.033
				C57.325,237.822,57.189,235.234,57.275,232.486z"/>
			<path fill="#FFFFFF" d="M54.341,237.104c-0.787,0.832-1.59,1.556-2.314,2.078v0.006c-0.184,0.148-0.328,0.349-0.428,0.578
				c-0.316,0.771,0.045,1.654,0.822,1.979c0.768,0.313,1.646-0.054,1.971-0.82c0.109-0.271,0.135-0.545,0.09-0.813
				C54.357,239.232,54.304,238.207,54.341,237.104z"/>
		</g>
		<g>
			<path fill="#231F20" d="M101.781,212.992c0.186-3.654,1.984-11.238,3.418-17.492c-3.49,5.557-7.631,12.225-10.117,14.971h-0.006
				c-0.215,0.277-0.412,0.59-0.551,0.938c-0.797,1.926,0.119,4.129,2.041,4.928c1.926,0.799,4.135-0.11,4.934-2.039
				C101.675,213.863,101.765,213.428,101.781,212.992L101.781,212.992z"/>
			<path fill="#FFFFFF" d="M98.31,212.867c0.074-1.455,0.797-4.486,1.365-6.996c-1.393,2.227-3.047,4.895-4.043,5.994l0,0
				c-0.086,0.113-0.164,0.23-0.221,0.373c-0.324,0.77,0.045,1.654,0.82,1.965c0.766,0.324,1.648-0.039,1.965-0.809
				C98.271,213.225,98.304,213.049,98.31,212.867L98.31,212.867z"/>
		</g>
		<g>
			<path fill="#231F20" d="M89.88,232.486c-1.969,2.086-3.963,3.869-5.781,5.201v0.006c-0.449,0.373-0.818,0.865-1.066,1.455
				c-0.797,1.92,0.121,4.129,2.047,4.934c1.92,0.793,4.129-0.125,4.928-2.051c0.277-0.662,0.34-1.371,0.238-2.033
				C89.927,237.822,89.792,235.234,89.88,232.486z"/>
			<path fill="#FFFFFF" d="M86.943,237.104c-0.787,0.832-1.586,1.556-2.311,2.078v0.006c-0.182,0.148-0.328,0.349-0.426,0.578
				c-0.316,0.771,0.047,1.654,0.816,1.979c0.77,0.313,1.654-0.054,1.971-0.82c0.111-0.271,0.137-0.545,0.094-0.813
				C86.966,239.232,86.909,238.207,86.943,237.104z"/>
		</g>
		<g>
			<path fill="#231F20" d="M134.384,212.992c0.182-3.654,1.982-11.238,3.416-17.492c-3.486,5.557-7.623,12.225-10.115,14.971h-0.006
				c-0.219,0.277-0.41,0.59-0.549,0.938c-0.797,1.926,0.117,4.129,2.043,4.928c1.926,0.799,4.133-0.11,4.928-2.039
				C134.281,213.863,134.368,213.428,134.384,212.992L134.384,212.992z"/>
			<path fill="#FFFFFF" d="M130.919,212.867c0.072-1.455,0.787-4.486,1.365-6.996c-1.396,2.227-3.051,4.895-4.051,5.994l0,0
				c-0.084,0.113-0.164,0.23-0.219,0.373c-0.318,0.77,0.043,1.654,0.816,1.965c0.768,0.324,1.65-0.039,1.975-0.809
				C130.876,213.225,130.908,213.049,130.919,212.867L130.919,212.867z"/>
		</g>
		<g>
			<path fill="#231F20" d="M122.486,232.486c-1.967,2.086-3.965,3.869-5.777,5.201v0.006c-0.453,0.373-0.822,0.865-1.072,1.455
				c-0.793,1.92,0.119,4.129,2.045,4.934c1.926,0.793,4.135-0.125,4.928-2.051c0.277-0.662,0.346-1.371,0.242-2.033
				C122.533,237.822,122.4,235.234,122.486,232.486z"/>
			<path fill="#FFFFFF" d="M119.548,237.104c-0.787,0.832-1.584,1.556-2.314,2.078v0.006c-0.178,0.148-0.322,0.349-0.424,0.578
				c-0.32,0.771,0.047,1.654,0.814,1.979c0.771,0.313,1.66-0.054,1.975-0.82c0.111-0.271,0.137-0.545,0.094-0.813
				C119.568,239.232,119.515,238.207,119.548,237.104z"/>
		</g>
		<g>
			<path fill="#231F20" d="M166.99,212.992c0.186-3.654,1.982-11.238,3.416-17.492c-3.486,5.557-7.623,12.225-10.115,14.971h-0.006
				c-0.219,0.277-0.412,0.59-0.551,0.938c-0.795,1.926,0.119,4.129,2.043,4.928c1.926,0.799,4.135-0.11,4.93-2.039
				C166.887,213.863,166.971,213.428,166.99,212.992L166.99,212.992z"/>
			<path fill="#FFFFFF" d="M163.521,212.867c0.076-1.455,0.793-4.486,1.363-6.996c-1.394,2.227-3.047,4.895-4.045,5.994l0,0
				c-0.091,0.113-0.164,0.23-0.222,0.373c-0.321,0.77,0.045,1.654,0.813,1.965c0.771,0.324,1.65-0.039,1.973-0.809
				C163.477,213.225,163.516,213.049,163.521,212.867L163.521,212.867z"/>
		</g>
		<g>
			<path fill="#231F20" d="M155.09,232.486c-1.971,2.086-3.965,3.869-5.779,5.201v0.006c-0.451,0.373-0.819,0.865-1.062,1.455
				c-0.797,1.92,0.119,4.129,2.045,4.934c1.921,0.793,4.13-0.125,4.925-2.051c0.276-0.662,0.348-1.371,0.239-2.033
				C155.139,237.822,155.002,235.234,155.09,232.486z"/>
			<path fill="#FFFFFF" d="M152.154,237.104c-0.787,0.832-1.586,1.556-2.312,2.078v0.006c-0.187,0.148-0.324,0.349-0.429,0.578
				c-0.317,0.771,0.041,1.654,0.817,1.979c0.769,0.313,1.648-0.054,1.972-0.82c0.106-0.271,0.136-0.545,0.097-0.813
				C152.176,239.232,152.119,238.207,152.154,237.104z"/>
		</g>
		<polygon fill="#231F20" points="215.268,195.838 212.125,195.805 210.947,195.77 220.262,186.336 216.576,186.467 207.01,197.99 
			215.268,197.928 219.709,197.859 205.832,219.078 218.934,218.941 191.082,255.35 221.221,217.791 208.492,217.656 
			223.383,195.906 		"/>
		<polygon fill="#231F20" points="199.619,209.908 186.027,209.771 197.812,187.051 194.812,187.152 183.432,211.396 
			197.453,211.268 187.561,232.338 201.564,232.207 191.104,255.355 202.598,231.555 189.01,231.426 		"/>
		<polygon fill="#231F20" points="177.984,186.891 177.727,187.236 197.709,187.236 198.477,185.686 		"/>
	</g>
</g>
</svg>
