<?xml version="1.0" encoding="utf-8"?>
<!-- Generator: Adobe Illustrator 15.0.2, SVG Export Plug-In . SVG Version: 6.00 Build 0)  -->
<!DOCTYPE svg PUBLIC "-//W3C//DTD SVG 1.1//EN" "http://www.w3.org/Graphics/SVG/1.1/DTD/svg11.dtd">
<svg version="1.1" id="Layer_1" xmlns="http://www.w3.org/2000/svg" xmlns:xlink="http://www.w3.org/1999/xlink" x="0px" y="0px"
	 width="280px" height="260px" viewBox="0 0 280 260" enable-background="new 0 0 280 260" xml:space="preserve">
<g>
	<g>
		<g>
			<g>
				<polygon fill="#FFEECE" points="239.217,129.188 238.139,128.355 238.361,128.895 				"/>
			</g>
		</g>
		<g>
			<g>
				<g>
					<path fill="#3479BE" d="M34.919,147.318c34.459,1.498,74.736,2.365,117.778,2.365c43.047,0,83.324-0.867,117.779-2.365
						c-34.455-1.498-74.732-2.355-117.779-2.355C109.655,144.963,69.378,145.82,34.919,147.318z"/>
				</g>
			</g>
			<g>
				<g>
					<path fill="#3479BE" d="M32.438,140.357c35.41,1.496,76.793,2.358,121.024,2.358c44.229,0,85.611-0.862,121.019-2.358
						c-35.406-1.504-76.787-2.361-121.019-2.361C109.231,137.996,67.849,138.854,32.438,140.357z"/>
				</g>
			</g>
			<g>
				<g>
					<path fill="#3479BE" d="M36.278,133.391c35.326,1.498,76.623,2.359,120.748,2.359c44.141,0,85.438-0.861,120.764-2.359
						c-35.326-1.504-76.623-2.367-120.764-2.367C112.901,131.023,71.604,131.887,36.278,133.391z"/>
				</g>
			</g>
			<g>
				<g>
					<path fill="#3479BE" d="M20.821,126.428c37.795,1.494,81.971,2.359,129.181,2.359c47.211,0,91.385-0.865,129.174-2.359
						c-37.789-1.502-81.963-2.363-129.174-2.363C102.792,124.064,58.616,124.926,20.821,126.428z"/>
				</g>
			</g>
			<g>
				<g>
					<path fill="#3479BE" d="M10.829,119.455c39.111,1.506,84.82,2.367,133.667,2.367c48.859,0,94.562-0.861,133.666-2.367
						c-39.104-1.498-84.807-2.357-133.666-2.357C95.649,117.098,49.94,117.957,10.829,119.455z"/>
				</g>
			</g>
			<g>
				<g>
					<path fill="#3479BE" d="M10.597,112.496c37.961,1.492,82.344,2.359,129.764,2.359c47.421,0,91.8-0.867,129.759-2.359
						c-37.959-1.498-82.338-2.365-129.759-2.365C92.94,110.131,48.558,110.998,10.597,112.496z"/>
				</g>
			</g>
			<g>
				<g>
					<path fill="#3479BE" d="M5.2,105.53c39.279,1.501,85.203,2.361,134.277,2.361c49.073,0,95-0.859,134.278-2.361
						c-39.278-1.498-85.205-2.359-134.278-2.359C90.403,103.17,44.479,104.032,5.2,105.53z"/>
				</g>
			</g>
			<g>
				<g>
					<path fill="#3479BE" d="M2.47,98.563c38.232,1.498,82.916,2.359,130.664,2.359c47.761,0,92.438-0.861,130.671-2.359
						c-38.231-1.498-82.91-2.365-130.671-2.365C85.386,96.198,40.702,97.065,2.47,98.563z"/>
				</g>
			</g>
			<g>
				<g>
					<path fill="#3479BE" d="M26.7,91.596c35.48,1.504,76.941,2.367,121.257,2.367c44.322,0,85.783-0.863,121.256-2.367
						c-35.473-1.498-76.934-2.354-121.256-2.354C103.642,89.243,62.181,90.098,26.7,91.596z"/>
				</g>
			</g>
			<g>
				<g>
					<path fill="#3479BE" d="M27.335,84.637c34.188,1.496,74.154,2.357,116.866,2.357c42.707,0,82.674-0.861,116.861-2.357
						c-34.188-1.506-74.154-2.363-116.861-2.363C101.489,82.274,61.522,83.131,27.335,84.637z"/>
				</g>
			</g>
			<g>
				<g>
					<path fill="#3479BE" d="M7.517,77.668c35.389,1.498,76.77,2.359,120.984,2.359c44.22,0,85.595-0.861,120.995-2.359
						c-35.4-1.498-76.775-2.359-120.995-2.359C84.286,75.309,42.905,76.17,7.517,77.668z"/>
				</g>
			</g>
			<g>
				<g>
					<path fill="#3479BE" d="M26.468,70.708c30.234,1.496,65.562,2.355,103.318,2.355c37.757,0,73.095-0.859,103.325-2.355
						c-30.23-1.502-65.568-2.365-103.325-2.365C92.03,68.342,56.702,69.206,26.468,70.708z"/>
				</g>
			</g>
			<g>
				<g>
					<path fill="#3479BE" d="M29.782,63.735c28.717,1.504,62.281,2.367,98.152,2.367c35.876,0,69.437-0.863,98.153-2.367
						c-28.717-1.5-62.276-2.359-98.153-2.359C92.063,61.375,58.499,62.235,29.782,63.735z"/>
				</g>
			</g>
			<g>
				<g>
					<path fill="#3479BE" d="M27.017,56.774c26.508,1.492,57.484,2.361,90.598,2.361c33.111,0,64.101-0.869,90.607-2.361
						c-26.508-1.498-57.496-2.359-90.607-2.359C84.501,54.415,53.524,55.276,27.017,56.774z"/>
				</g>
			</g>
			<g>
				<g>
					<path fill="#3479BE" d="M24.95,49.809c24.877,1.498,53.955,2.365,85.029,2.365c31.072,0,60.142-0.867,85.019-2.365
						c-24.877-1.5-53.946-2.357-85.019-2.357C78.905,47.452,49.827,48.309,24.95,49.809z"/>
				</g>
			</g>
			<g>
				<g>
					<path fill="#3479BE" d="M33.667,42.846c23.602,1.498,51.191,2.355,80.668,2.355c29.487,0,57.071-0.857,80.673-2.355
						c-23.602-1.504-51.186-2.361-80.673-2.361C84.858,40.485,57.269,41.342,33.667,42.846z"/>
				</g>
			</g>
			<g>
				<g>
					<path fill="#3479BE" d="M48.421,35.879c21.252,1.498,46.096,2.365,72.648,2.365c26.548,0,51.392-0.867,72.642-2.365
						c-21.25-1.498-46.094-2.359-72.642-2.359C94.517,33.52,69.673,34.381,48.421,35.879z"/>
				</g>
			</g>
			<g>
				<g>
					<path fill="#3479BE" d="M62.763,28.915c15.43,1.502,33.447,2.363,52.705,2.363c19.27,0,37.292-0.861,52.716-2.363
						c-15.424-1.504-33.446-2.361-52.716-2.361C96.21,26.553,78.192,27.411,62.763,28.915z"/>
				</g>
			</g>
			<g>
				<g>
					<path fill="#3479BE" d="M56.583,21.946c13.68,1.498,29.67,2.367,46.746,2.367c17.088,0,33.072-0.869,46.753-2.367
						c-13.681-1.492-29.665-2.359-46.753-2.359C86.253,19.586,70.263,20.454,56.583,21.946z"/>
				</g>
			</g>
			<g>
				<g>
					<path fill="#3479BE" d="M64.399,14.985c10.355,1.5,22.453,2.361,35.391,2.361c12.924,0,25.029-0.861,35.377-2.361
						c-10.348-1.496-22.453-2.359-35.377-2.359C86.853,12.625,74.755,13.489,64.399,14.985z"/>
				</g>
			</g>
		</g>
		<g>
			<path fill="#FFEECE" d="M107.181,54.604c-0.396-3.461-1.139-6.885-2.17-10.217C94.731,10.969,59.161,5.823,59.167,5.831
				c0.113,0.098,11.639,10.207,16.844,24.752c3.943,10.643,3.008,23.172-2.904,32.926c-1.457,2.402-3.275,4.76-5.258,6.754
				c-3.953,3.953-7.934,7.008-13.207,8.998c-5.285,1.988-10.91,2.941-16.551,3.004c-4.674,0.041-9.238-0.939-13.549-2.732
				C17.778,76.743,11.39,72.45,6.054,67.45c-1.369-1.273-2.615-2.641-3.805-4.088L2.3,63.485l-0.271-0.34
				c0,0,4.129,26.436,27.062,40.324c8.15,4.938,17.615,7.882,27.193,7.882c17.184,0,33.117-8.521,42.639-22.8
				c5.402-8.107,8.422-17.668,8.586-27.404C107.55,58.959,107.431,56.774,107.181,54.604z"/>
			<path fill="#FFD88C" d="M16.075,79.819C35.944,93.051,62.78,87.68,76.022,67.813c10.541-15.836,9.244-36.062-1.762-50.342
				c2.668,1.123,5.256,2.479,7.744,4.137c21.301,14.189,27.062,42.949,12.873,64.242c-14.193,21.291-42.949,27.05-64.246,12.865
				c-7.93-5.283-13.697-12.588-17.09-20.777C14.37,78.577,15.196,79.227,16.075,79.819z"/>
		</g>
		<g>
			<g>
				<g>
					<path fill="#FFFFFF" d="M182.25,118.041c0.215,0.107,0.438,0.205,0.648,0.318c0.004-0.041,0.01-0.08,0.016-0.119
						C182.691,118.172,182.477,118.104,182.25,118.041z"/>
				</g>
				<g>
					<path fill="#FFFFFF" d="M165.227,114.377c4.922,0,9.652,0.816,14.072,2.299c-4.021-1.619-8.416-2.52-13.021-2.52
						c-1.94,0-3.846,0.164-5.696,0.471C162.104,114.467,163.656,114.377,165.227,114.377z"/>
				</g>
				<path fill="#FFFFFF" d="M266.799,166.412c-1.779-6.4-6.01-12.127-11.604-15.701c-4.883-3.16-10.996-4.711-16.859-4.242
					c-0.219-3.172-1.291-6.338-3.064-8.988c-1.032-1.562-2.321-2.983-3.84-4.229c2.107-5.154,2.68-11.012,1.609-16.551
					c-1.281-6.83-5.172-13.271-10.672-17.671c-5.199-4.225-12.025-6.65-18.715-6.65c-0.283,0-0.562,0-0.832,0.012
					c-5.557,0.119-11.096,1.893-15.678,5.008c-1.648-2.125-3.551-3.953-5.676-5.426c-1.101-0.777-2.3-1.473-3.671-2.148
					c-0.104-0.051-0.204-0.09-0.312-0.129l-0.18-0.08c-0.453-0.203-0.912-0.402-1.377-0.584c-0.188-0.066-0.369-0.135-0.548-0.197
					c-3.17-1.133-6.454-1.688-9.672-1.523c-0.157-0.611-0.303-1.285-0.455-2.068c-0.194-1.008-0.396-2.049-0.692-3.086
					c-0.635-2.346-1.49-4.65-2.562-6.854c-2.215-4.605-5.41-8.865-9.244-12.32c-4.051-3.658-8.936-6.508-14.122-8.246
					c-5.414-1.818-11.242-2.465-16.998-1.869c-8.969,0.883-17.775,5.029-24.166,11.373c-5.734,5.619-9.693,12.971-11.193,20.775
					c-0.998-0.203-1.967-0.299-2.949-0.299c-3.871,0-7.684,1.291-10.73,3.631c-2.23,1.67-4.072,3.896-5.324,6.428
					c-0.82,1.66-1.371,3.506-1.604,5.393c-5.947-1.535-12.307-1.473-18.197,0.146c-6.684,1.818-12.887,5.732-17.469,11.011
					c-3.643,4.186-6.287,9.209-7.646,14.521c-1.309,5.093-1.469,10.507-0.461,15.667c0.922,4.832,2.932,9.521,5.803,13.576
					c2.141,3.014,4.832,5.738,7.828,7.947c-3.336,1.5-6.184,3.998-8.09,7.098c-2.508,3.992-3.367,8.953-2.361,13.598
					c0.111,0.511,0.232,0.97,0.359,1.4l0.045,0.146c0.049,0.17,0.1,0.34,0.242,0.729l0.238,0.687
					c0.033,0.074,0.139,0.312,0.441,0.482l0.166,0.09h29.838h26.682h126.116h2.34h52.803l0.988-2.021l0.389-0.9
					c0.226-0.539,0.479-1.188,0.693-1.854C268.141,177.361,268.273,171.652,266.799,166.412z"/>
				<g>
					<path fill="#ADD3F0" d="M231.262,122.855c-0.061-0.09-0.125-0.182-0.203-0.254c0.053-0.482,0.082-0.963,0.103-1.451
						c-0.029-0.271-0.08-0.543-0.119-0.814c-0.051-0.385-0.097-0.771-0.164-1.15c-0.112-0.65-0.256-1.297-0.416-1.943
						c-1.521-6.162-5.103-11.757-10.08-15.751c-4.94-4.004-11.172-6.297-17.547-6.467c-0.321-0.012-0.646-0.018-0.967-0.018
						c-5.011,0-10.13,1.359-14.57,3.822c1.615,2.312,2.856,4.871,3.604,7.545c1.33,4.707,1.209,9.771-0.314,14.335
						c2.646,1.58,5.129,3.5,7.309,5.688c2.855,2.865,5.263,6.23,7.029,9.811c2.039-2.533,4.832-4.517,7.963-5.619
						c1.937-0.686,4.078-1.049,6.197-1.049c2.039,0,4.039,0.324,5.941,0.963c1.801,0.603,3.518,1.515,5.07,2.646
						c0.229-0.776,0.422-1.569,0.586-2.362c0.026-0.142,0.053-0.277,0.082-0.418C231.232,127.896,231.4,125.371,231.262,122.855z
						 M223.105,125.285c-14.246-0.463-25.715-11.752-26.482-25.923c2.32-0.918,4.84-1.439,7.482-1.439
						c11.207,0,20.291,9.085,20.291,20.289C224.396,120.703,223.926,123.082,223.105,125.285z"/>
					<path fill="#ADD3F0" d="M24.341,139.609c-0.014-0.123-0.025-0.248-0.033-0.373c-0.006-0.006-0.006-0.012-0.006-0.023
						C24.313,139.35,24.327,139.48,24.341,139.609z"/>
					<path fill="#ADD3F0" d="M183.211,114.75c0,0.867-0.082,1.711-0.184,2.549h0.004c1.145,0.369,2.277,0.771,3.373,1.246
						c1.271,0.557,2.514,1.195,3.729,1.898c0.812-4.504,0.451-9.262-1.053-13.492c-1.75-4.966-5.103-9.369-9.435-12.386
						c-0.444-0.312-0.905-0.602-1.369-0.879c-0.623-0.355-1.245-0.707-1.879-1.02c-0.76-0.367-1.524-0.695-2.307-1.014
						c-2.859-1.082-5.91-1.66-8.971-1.66h-0.352c-4.744,0.035-9.617,1.484-13.72,4.068c0.427-0.268,0.873-0.5,1.312-0.736
						c2.484-0.924,5.158-1.457,7.961-1.457C172.961,91.868,183.211,102.11,183.211,114.75z"/>
					<path fill="#ADD3F0" d="M161.469,88.561c0.107-0.023,0.215-0.045,0.322-0.062c0.949-0.188,1.906-0.334,2.875-0.408
						c-0.303-0.877-0.561-1.768-0.795-2.645c-0.25-0.947-0.508-1.914-0.838-2.85c-0.74-2.203-1.689-4.355-2.811-6.406
						c-2.318-4.23-5.5-8.111-9.207-11.227c-3.89-3.279-8.492-5.816-13.324-7.352c-3.779-1.195-7.73-1.801-11.74-1.801
						c-1.328,0-2.678,0.068-3.99,0.203c-8.373,0.828-16.369,4.469-22.527,10.258c-5.727,5.318-9.82,12.434-11.531,20.045
						c-0.031,0.137-0.096,0.244-0.193,0.33c-0.588,2.666-0.912,5.432-0.953,8.207c0,0.107-0.092,0.197-0.201,0.197
						c-0.111,0-0.199-0.084-0.205-0.188c-0.16-2.82-0.01-5.652,0.432-8.422c-4.455,0.232-8.791,1.785-12.275,4.436
						c-3.432,2.576-6.1,6.27-7.605,10.428c0.027,0.016,0.062,0.027,0.084,0.045c0.709,0.646,2.637,0.918,3.557,1.314
						c1.246,0.549,2.459,1.16,3.631,1.846c2.408,1.41,4.664,3.109,6.633,5.08c1.559-0.701,2.85-2.254,4.463-3.062
						c4.018-2.006,8.023-3.416,12.672-3.395c0.033-0.021,0.072-0.045,0.107-0.066c-0.215-0.674-0.566-2.492-0.58-2.578
						c-0.131-0.662-0.244-1.324-0.336-2c-0.184-1.363-0.273-2.74-0.273-4.117c0-17.18,13.928-31.102,31.102-31.102
						c15.46,0,28.247,11.289,30.657,26.066C159.551,89.02,160.5,88.764,161.469,88.561z"/>
					<path fill="#ADD3F0" d="M134.671,150.117c-1.102,0-2.186,0.057-3.268,0.146c-0.008-0.402-0.029-0.804-0.029-1.205
						c0-4.261,0.777-8.326,2.174-12.095c2.93-8.564,8.663-15.18,15.901-19.275c-0.227,0.086-0.43,0.193-0.65,0.283l0.486-0.221
						c0,0-6.699,1.195-14.427,7.375c-1.229,0.986-2.48,2.096-3.744,3.348c-0.057,0.062-0.113,0.119-0.17,0.176
						c-0.617,0.617-1.234,1.27-1.85,1.954c-0.006,0.012-0.012,0.018-0.014,0.022c-0.584,0.651-1.166,1.349-1.742,2.067
						c-0.088,0.113-0.176,0.216-0.264,0.328c-0.566,0.726-1.127,1.474-1.684,2.267c-0.094,0.129-0.186,0.267-0.281,0.401
						c-0.504,0.73-1,1.482-1.496,2.275c-0.07,0.119-0.146,0.232-0.221,0.352c-0.525,0.855-1.039,1.757-1.545,2.687
						c-0.111,0.209-0.221,0.418-0.334,0.636c-0.516,0.963-1.018,1.952-1.502,2.995c-0.215,0.107-0.43,0.228-0.65,0.328
						c-2.805,1.24-5.863,1.888-8.936,1.888c-0.674,0-1.346-0.041-2.02-0.104c0,0,0,0-0.006,0c-4.662-0.425-8.906-2.287-12.291-5.147
						c-0.027-0.021-0.062-0.052-0.096-0.066c-5.361-4.379-8.785-11.035-8.785-18.494c0-7.816,3.771-14.732,9.584-19.082
						c0.453-0.125,0.814-0.256,0.932-0.396c-0.037,0.012-0.076,0.023-0.117,0.033c-2.336,0.5-4.609,1.252-6.76,2.238
						c-0.006,0.006-0.014,0.006-0.02,0.012c-0.719,0.328-1.428,0.68-2.119,1.058c-0.062,0.039-0.123,0.08-0.186,0.119
						c-0.629,0.352-1.252,0.719-1.855,1.109c-0.156,0.102-0.303,0.215-0.457,0.324c-0.498,0.334-0.998,0.68-1.477,1.041
						c-0.275,0.209-0.531,0.436-0.793,0.658c-0.346,0.277-0.697,0.549-1.025,0.85c-0.59,0.52-1.15,1.064-1.689,1.631
						c-4.389,4.559-7.373,10.613-8.41,17.064c-0.018,0.098-0.1,0.166-0.199,0.166c-0.113-0.006-0.197-0.086-0.203-0.188
						c-0.182-3.154,0.289-6.436,1.365-9.494c1.207-3.426,3.168-6.621,5.682-9.236c0.346-0.357,0.721-0.686,1.092-1.025
						c-3.023-2.561-6.49-4.605-10.178-6.009c-1.229-0.465-2.48-0.867-3.756-1.189c-0.123,0.033-0.264,0.027-0.387-0.006
						c-0.443,0-0.943-0.182-1.402-0.301c-0.006-0.006-0.012-0.006-0.018-0.006c-0.742-0.146-1.484-0.271-2.23-0.373
						c-0.006,0-0.006,0-0.012,0c-0.445-0.051-0.867-0.045-1.309-0.051c-0.195-0.006-0.379-0.068-0.555-0.143
						c-0.885-0.068-1.766-0.113-2.65-0.113c-3.342,0-6.639,0.482-9.799,1.428c-6.066,1.795-11.705,5.437-15.883,10.246
						c-3.324,3.824-5.777,8.389-7.104,13.215c-0.316,1.15-0.572,2.328-0.77,3.512c-0.096,0.605-0.133,1.223-0.199,1.834
						c-0.064,0.578-0.152,1.15-0.189,1.734c-0.047,0.811-0.025,1.631-0.014,2.447c0.006,0.385-0.023,0.77-0.006,1.147
						c0.029,0.651,0.125,1.297,0.193,1.942c0.045,0.25,0.096,0.498,0.152,0.748c-0.008,0.254-0.006,0.511,0,0.771
						c0.014,0.099,0.014,0.192,0.029,0.295c0.695,4.509,2.379,8.974,4.859,12.914c2.146,3.404,4.961,6.47,8.145,8.955
						c3.215-1.32,6.865-1.756,10.279-1.224c0.053-0.866,0.148-1.733,0.32-2.59c0.615-3.063,2.08-6.024,4.127-8.342
						c1.84-2.107,4.154-3.734,6.684-4.701c0.096-0.041,0.197,0.004,0.246,0.09c0.049,0.09,0.025,0.203-0.057,0.261
						c-4.436,3.188-7.572,7.991-8.604,13.176c-1.068,5.224-0.057,10.863,2.783,15.483c0.049,0.093,0.029,0.205-0.047,0.269
						c-0.037,0.026-0.082,0.045-0.129,0.045c-0.053,0-0.102-0.019-0.141-0.057c-1.959-1.894-3.455-4.287-4.328-6.939
						c-0.65-1.987-0.916-4.071-0.859-6.161c-0.021,0-0.035,0-0.057,0l0.057-0.068c0,0-0.783-0.006-2.029,0.098
						c-1.039,0.062-2.064,0.215-3.074,0.43c-5.914,1.14-14.846,4.764-14.812,16.25c-0.064,1.389,0.029,2.781,0.326,4.135
						c0.037,0.177,0.088,0.396,0.156,0.658c0.072,0.271,0.166,0.525,0.266,0.758l52.693,1.894c-0.256-1.258-0.42-2.556-0.42-3.894
						c0-11.049,8.955-20.01,20.006-20.01c6.943,0,13.055,3.539,16.646,8.908c4.158-10.529,14.41-17.994,26.418-17.994
						c1.688,0,3.33,0.176,4.933,0.459c0.369-0.131,0.748-0.227,1.123-0.352C145.338,151.334,140.149,150.117,134.671,150.117z
						 M144.834,119.734l0.758-0.34c-0.396,0.199-0.771,0.414-1.166,0.617L144.834,119.734z M48.005,145.744
						c-7.629-2.865-13.072-10.207-13.072-18.844c0-11.119,9.014-20.13,20.131-20.13c6.301,0,11.916,2.888,15.607,7.414
						c-5.438,6.084-9.139,13.736-10.441,22.182C55.419,138.455,51.237,141.695,48.005,145.744z M62.505,146.492
						c-0.059-0.018-0.121-0.023-0.178-0.033c0.115-0.086,0.244-0.166,0.359-0.25C62.63,146.305,62.562,146.396,62.505,146.492z
						 M63.94,167.727c-3.789-6.707-3.229-14.822,3.334-21.207c2.135-2.071,4.74-2.883,7.326-2.655
						c2.189,3.795,5.277,6.928,8.918,9.521C74.831,154.541,67.546,160.086,63.94,167.727z"/>
					<path fill="#ADD3F0" d="M198.604,161.943c7.668,2.594,14.205,7.67,18.625,14.279c-0.231-1.234-0.354-2.517-0.354-3.822
						c0-11.504,9.322-20.828,20.82-20.828s20.822,9.324,20.822,20.828c0,4.684-1.57,8.994-4.187,12.471
						c0.899-0.033,1.795-0.062,2.694-0.096c0.562-0.019,1.121-0.033,1.683-0.058l0.66-0.022c0.317-0.01,0.705-0.057,1.067-0.033
						l1.933-0.068l0.577-1.375c0.166-0.432,0.349-0.936,0.515-1.457v-0.016c0.062-0.396,0.218-0.793,0.34-1.189
						c0.05-0.17,0.109-0.346,0.148-0.521c0.077-0.328,0.146-0.658,0.213-0.986c0.053-0.266,0.108-0.53,0.153-0.799
						c0.058-0.34,0.101-0.687,0.144-1.024c0.033-0.271,0.074-0.543,0.103-0.814c0.032-0.352,0.045-0.697,0.062-1.043
						c0.012-0.266,0.033-0.527,0.039-0.787c0.01-0.367-0.006-0.736-0.013-1.1c-0.004-0.254,0-0.504-0.016-0.752
						c-0.018-0.369-0.061-0.736-0.094-1.105c-0.025-0.248-0.037-0.492-0.068-0.742c-0.051-0.391-0.121-0.781-0.188-1.172
						c-0.039-0.215-0.062-0.436-0.106-0.65c-0.125-0.602-0.265-1.201-0.433-1.791c-1.574-5.664-5.283-10.789-10.179-14.074
						c-0.672-0.446-1.36-0.86-2.065-1.245c-0.176-0.099-0.356-0.183-0.535-0.269c-0.538-0.283-1.086-0.549-1.646-0.787
						c-0.182-0.071-0.359-0.146-0.535-0.215c-0.711-0.283-1.43-0.543-2.16-0.764c-1.152-0.34-2.322-0.602-3.51-0.783
						c-2.416-0.361-4.896-0.555-7.332-0.254c-1.139,0.135-2.26,0.352-3.369,0.635c-1.127,0.293-2.234,0.656-3.314,1.086
						c-2.164,0.873-4.213,2.023-6.065,3.435c-0.084,0.062-0.209,0.051-0.277-0.035c-0.073-0.084-0.062-0.203,0.021-0.276
						c3.914-3.5,8.99-5.761,14.316-6.39c-0.679-3.08-2.027-5.94-3.966-8.326c-2.297-2.838-5.442-5.034-8.875-6.19
						c-1.942-0.646-3.993-0.979-6.084-0.979c-1.601,0-3.188,0.197-4.729,0.582c-3.014,0.754-5.852,2.256-8.254,4.334
						c0.183,0.386,0.363,0.771,0.533,1.16c1.644,3.791,2.633,7.94,2.865,12.014c0.006,0.107-0.066,0.199-0.176,0.212
						c-0.002,0-0.002,0-0.008,0c-0.008,0-0.008,0-0.019,0.006c-0.092,0-0.178-0.068-0.196-0.16
						c-1.861-8.224-6.129-15.982-12.017-21.857c-0.676-0.68-1.383-1.336-2.106-1.977c-0.396-0.34-0.806-0.668-1.219-0.996
						c-0.312-0.256-0.617-0.516-0.935-0.76c-0.572-0.436-1.156-0.861-1.75-1.273c-0.14-0.098-0.272-0.193-0.414-0.289
						c-0.709-0.482-1.429-0.941-2.164-1.383l0,0c8.258,6.379,13.592,16.357,13.592,27.613c0,4.563-0.881,8.914-2.479,12.914
						C198.664,161.961,198.631,161.949,198.604,161.943z M217.32,133.539c7.221,0,13.086,5.787,13.223,12.98
						c-0.992,0.211-2.018,0.323-3.074,0.323c-7.395,0-13.5-5.438-14.588-12.528C214.27,133.822,215.76,133.539,217.32,133.539z"/>
				</g>
				<path fill="#231F20" d="M266.799,166.412c-1.779-6.4-6.01-12.127-11.604-15.701c-4.883-3.16-10.996-4.711-16.859-4.242
					c-0.219-3.172-1.291-6.338-3.064-8.988c-1.032-1.562-2.321-2.983-3.84-4.229c2.107-5.154,2.68-11.012,1.609-16.551
					c-1.281-6.83-5.172-13.271-10.672-17.671c-5.199-4.225-12.025-6.65-18.715-6.65c-0.283,0-0.562,0-0.832,0.012
					c-5.557,0.119-11.096,1.893-15.678,5.008c-1.648-2.125-3.551-3.953-5.676-5.426c-1.101-0.777-2.3-1.473-3.671-2.148
					c-0.104-0.051-0.204-0.09-0.312-0.129l-0.18-0.08c-0.453-0.203-0.912-0.402-1.377-0.584c-0.188-0.066-0.369-0.135-0.548-0.197
					c-3.17-1.133-6.454-1.688-9.672-1.523c-0.157-0.611-0.303-1.285-0.455-2.068c-0.194-1.008-0.396-2.049-0.692-3.086
					c-0.635-2.346-1.49-4.65-2.562-6.854c-2.215-4.605-5.41-8.865-9.244-12.32c-4.051-3.658-8.936-6.508-14.122-8.246
					c-5.414-1.818-11.242-2.465-16.998-1.869c-8.969,0.883-17.775,5.029-24.166,11.373c-5.734,5.619-9.693,12.971-11.193,20.775
					c-0.998-0.203-1.967-0.299-2.949-0.299c-3.871,0-7.684,1.291-10.73,3.631c-2.23,1.67-4.072,3.896-5.324,6.428
					c-0.82,1.66-1.371,3.506-1.604,5.393c-5.947-1.535-12.307-1.473-18.197,0.146c-6.684,1.818-12.887,5.732-17.469,11.011
					c-3.643,4.186-6.287,9.209-7.646,14.521c-1.309,5.093-1.469,10.507-0.461,15.667c0.922,4.832,2.932,9.521,5.803,13.576
					c2.141,3.014,4.832,5.738,7.828,7.947c-3.336,1.5-6.184,3.998-8.09,7.098c-2.508,3.992-3.367,8.953-2.361,13.598
					c0.111,0.511,0.232,0.97,0.359,1.4l0.045,0.146c0.049,0.17,0.1,0.34,0.242,0.729l0.238,0.687
					c0.033,0.074,0.139,0.312,0.441,0.482l0.166,0.09h56.52l-0.266-0.726h-0.771c-0.031-0.08-0.09-0.144-0.17-0.144l-53.281-1.914
					c-0.1-0.231-0.193-0.485-0.266-0.758c-0.068-0.262-0.119-0.481-0.156-0.658c-0.297-1.354-0.391-2.745-0.326-4.135
					c-0.033-11.485,8.898-15.11,14.812-16.25c1.01-0.215,2.035-0.367,3.074-0.43c1.246-0.104,2.029-0.098,2.029-0.098
					s-0.057,0.068,0,0.068c-0.057,2.09,0.209,4.174,0.859,6.161c0.873,2.652,2.369,5.048,4.328,6.939
					c0.039,0.039,0.088,0.057,0.141,0.057c0.047,0,0.092-0.018,0.129-0.045c0.076-0.062,0.096-0.176,0.047-0.269
					c-2.84-4.62-3.852-10.262-2.783-15.483c1.031-5.185,4.168-9.985,8.604-13.176c0.082-0.058,0.105-0.17,0.057-0.261
					c-0.049-0.086-0.15-0.131-0.246-0.09c-2.529,0.967-4.844,2.594-6.684,4.701c-2.047,2.316-3.512,5.277-4.127,8.342
					c-0.172,0.855-0.268,1.724-0.32,2.59c-3.414-0.532-7.064-0.098-10.279,1.224c-3.184-2.485-5.998-5.551-8.145-8.955
					c-2.48-3.94-4.164-8.405-4.859-12.914c-0.76-4.797-0.48-9.787,0.803-14.432c1.326-4.826,3.779-9.391,7.104-13.215
					c4.178-4.809,9.816-8.451,15.883-10.246c3.16-0.945,6.457-1.428,9.799-1.428c2.77,0,5.516,0.328,8.176,0.986
					c0.123,0.033,0.264,0.039,0.387,0.006c5.088,1.297,9.902,3.783,13.934,7.199c-0.371,0.34-0.746,0.668-1.092,1.025
					c-2.514,2.615-4.475,5.811-5.682,9.236c-1.076,3.059-1.547,6.34-1.365,9.494c0.006,0.102,0.09,0.182,0.203,0.188
					c0.1,0,0.182-0.068,0.199-0.166c1.037-6.451,4.021-12.506,8.41-17.064c4.334-4.555,10.258-7.794,16.682-9.119
					c0.1-0.018,0.166-0.113,0.158-0.215c-0.006-0.104-0.094-0.182-0.197-0.182c-3.133-0.057-6.424,0.561-9.42,1.762
					c-2.783,1.098-5.369,2.751-7.629,4.74c-3.852-3.806-8.641-6.66-13.855-8.269c-0.021-0.018-0.057-0.029-0.084-0.045
					c1.506-4.158,4.174-7.852,7.605-10.428c3.484-2.65,7.82-4.203,12.275-4.436c-0.441,2.77-0.592,5.602-0.432,8.422
					c0.006,0.104,0.094,0.188,0.205,0.188c0.109,0,0.201-0.09,0.201-0.197c0.041-2.775,0.365-5.541,0.953-8.207
					c0.098-0.086,0.162-0.193,0.193-0.33c1.711-7.611,5.805-14.727,11.531-20.045c6.158-5.789,14.154-9.43,22.527-10.258
					c1.312-0.135,2.662-0.203,3.99-0.203c4.01,0,7.961,0.605,11.74,1.801c4.832,1.535,9.435,4.072,13.324,7.352
					c3.707,3.115,6.889,6.996,9.207,11.227c1.121,2.051,2.069,4.203,2.811,6.406c0.33,0.936,0.588,1.902,0.838,2.85
					c0.234,0.877,0.492,1.768,0.795,2.645c-5.094,0.373-10.016,2.379-13.852,5.646c-0.084,0.068-0.096,0.188-0.037,0.273
					c0.066,0.084,0.186,0.113,0.275,0.051c4.102-2.584,8.975-4.033,13.719-4.068h0.352c3.061,0,6.111,0.578,8.971,1.66
					c0.781,0.318,1.547,0.646,2.307,1.014c0.634,0.312,1.257,0.664,1.88,1.02c0.463,0.277,0.924,0.566,1.368,0.879
					c4.332,3.018,7.685,7.42,9.435,12.386c1.504,4.23,1.863,8.988,1.054,13.492c-1.218-0.703-2.459-1.342-3.73-1.898
					c-3.785-1.648-7.938-2.65-12.01-2.895c-0.103,0.006-0.195,0.074-0.209,0.176c-0.019,0.104,0.051,0.205,0.151,0.227
					c8.22,1.881,15.974,6.168,21.83,12.07c5.888,5.875,10.154,13.635,12.017,21.857c0.02,0.092,0.104,0.16,0.223,0.153
					c0.109-0.012,0.182-0.104,0.176-0.211c-0.232-4.071-1.223-8.223-2.865-12.014c-0.17-0.392-0.352-0.775-0.533-1.16
					c2.402-2.078,5.24-3.58,8.254-4.334c1.539-0.386,3.129-0.582,4.729-0.582c2.091,0,4.142,0.334,6.084,0.979
					c3.433,1.155,6.578,3.354,8.875,6.19c1.938,2.385,3.287,5.246,3.966,8.326c-5.326,0.629-10.402,2.889-14.316,6.389
					c-0.082,0.074-0.094,0.193-0.021,0.277c0.068,0.086,0.193,0.098,0.277,0.034c3.69-2.811,8.153-4.594,12.75-5.153
					c2.437-0.301,4.916-0.106,7.332,0.254c2.336,0.353,4.618,1.024,6.771,2c1.281,0.578,2.516,1.271,3.682,2.062
					c4.896,3.285,8.604,8.41,10.179,14.074c1.304,4.639,1.231,9.715-0.209,14.279c-0.185,0.6-0.397,1.184-0.588,1.672l-0.578,1.375
					l-51.963,1.801c-0.084,0.006-0.146,0.068-0.177,0.148h-0.768l-0.258,0.725h55.143l0.988-2.021l0.389-0.9
					c0.226-0.538,0.479-1.188,0.693-1.854C268.141,177.361,268.273,171.652,266.799,166.412z M225.025,130.502
					c-1.902-0.639-3.902-0.963-5.941-0.963c-2.119,0-4.262,0.363-6.197,1.049c-3.131,1.104-5.924,3.086-7.963,5.619
					c-1.768-3.58-4.174-6.945-7.029-9.811c-2.18-2.188-4.662-4.107-7.309-5.688c1.523-4.564,1.645-9.629,0.314-14.335
					c-0.746-2.674-1.988-5.232-3.604-7.545c4.44-2.463,9.562-3.822,14.57-3.822c0.319,0,0.645,0.006,0.967,0.018
					c6.375,0.17,12.604,2.463,17.547,6.467c4.979,3.994,8.56,9.589,10.08,15.751c1.299,5.178,1.153,10.773-0.365,15.906
					C228.543,132.016,226.826,131.104,225.025,130.502z"/>
			</g>
		</g>
	</g>
</g>
</svg>
