<?xml version="1.0" encoding="utf-8"?>
<!-- Generator: Adobe Illustrator 15.0.2, SVG Export Plug-In . SVG Version: 6.00 Build 0)  -->
<!DOCTYPE svg PUBLIC "-//W3C//DTD SVG 1.1//EN" "http://www.w3.org/Graphics/SVG/1.1/DTD/svg11.dtd">
<svg version="1.1" id="Layer_1" xmlns="http://www.w3.org/2000/svg" xmlns:xlink="http://www.w3.org/1999/xlink" x="0px" y="0px"
	 width="280px" height="260px" viewBox="0 0 280 260" enable-background="new 0 0 280 260" xml:space="preserve">
<g>
	<g>
		<g>
			<g>
				<g>
					<path fill="#D4DAE6" d="M45.169,249.016c-1.066,0-2.146-0.207-3.193-0.642c-4.244-1.763-6.258-6.636-4.494-10.882l1.596-3.842
						c1.764-4.248,6.637-6.256,10.883-4.498c4.248,1.766,6.26,6.637,4.498,10.886l-1.598,3.84
						C51.529,247.083,48.431,249.016,45.169,249.016z M56.343,222.104c-1.064,0-2.146-0.207-3.188-0.641
						c-4.248-1.76-6.262-6.635-4.498-10.879l6.383-15.379c1.766-4.248,6.633-6.258,10.887-4.498
						c4.242,1.762,6.26,6.633,4.494,10.881l-6.385,15.379C62.705,220.172,59.609,222.104,56.343,222.104z"/>
				</g>
				<g>
					<path fill="#D4DAE6" d="M77.687,249.016c-1.062,0-2.143-0.207-3.189-0.642c-4.242-1.763-6.26-6.636-4.492-10.882l1.592-3.842
						c1.768-4.248,6.635-6.256,10.883-4.498c4.247,1.766,6.262,6.637,4.497,10.886l-1.592,3.84
						C84.052,247.083,80.955,249.016,77.687,249.016z M88.867,222.104c-1.064,0-2.146-0.207-3.193-0.641
						c-4.245-1.76-6.258-6.635-4.499-10.879l6.389-15.379c1.764-4.248,6.631-6.258,10.881-4.498
						c4.248,1.762,6.264,6.633,4.498,10.881l-6.387,15.379C95.229,220.172,92.131,222.104,88.867,222.104z"/>
				</g>
				<g>
					<path fill="#D4DAE6" d="M110.209,249.016c-1.061,0-2.146-0.207-3.188-0.642c-4.248-1.763-6.26-6.636-4.498-10.882l1.598-3.842
						c1.762-4.248,6.635-6.256,10.883-4.498c4.246,1.766,6.26,6.637,4.494,10.886l-1.594,3.84
						C116.57,247.083,113.475,249.016,110.209,249.016z M121.387,222.104c-1.064,0-2.143-0.207-3.191-0.641
						c-4.248-1.76-6.258-6.635-4.496-10.879l6.389-15.379c1.762-4.248,6.633-6.258,10.881-4.498
						c4.244,1.762,6.258,6.633,4.496,10.881l-6.385,15.379C127.748,220.172,124.652,222.104,121.387,222.104z"/>
				</g>
				<g>
					<path fill="#D4DAE6" d="M142.732,249.016c-1.064,0-2.146-0.207-3.191-0.642c-4.246-1.763-6.26-6.636-4.494-10.882l1.598-3.842
						c1.762-4.248,6.632-6.256,10.88-4.498c4.248,1.766,6.261,6.637,4.496,10.886l-1.598,3.84
						C149.094,247.083,145.998,249.016,142.732,249.016z M153.908,222.104c-1.062,0-2.145-0.207-3.189-0.641
						c-4.248-1.76-6.258-6.635-4.496-10.879l6.385-15.379c1.767-4.248,6.631-6.258,10.886-4.498
						c4.243,1.762,6.258,6.633,4.493,10.881l-6.387,15.379C160.271,220.172,157.17,222.104,153.908,222.104z"/>
				</g>
				<g>
					<path fill="#D4DAE6" d="M175.252,249.016c-1.061,0-2.146-0.207-3.191-0.642c-4.248-1.763-6.258-6.636-4.496-10.882l1.603-3.842
						c1.763-4.248,6.633-6.256,10.881-4.498c4.242,1.766,6.257,6.637,4.498,10.886l-1.601,3.84
						C181.617,247.083,178.516,249.016,175.252,249.016z M186.428,222.104c-1.062,0-2.143-0.207-3.186-0.641
						c-4.248-1.76-6.264-6.635-4.498-10.879l6.387-15.379c1.762-4.248,6.627-6.258,10.883-4.498
						c4.244,1.762,6.254,6.633,4.496,10.881l-6.387,15.379C192.791,220.172,189.693,222.104,186.428,222.104z"/>
				</g>
				<g>
					<path fill="#D4DAE6" d="M207.736,249.016c-1.062,0-2.146-0.207-3.187-0.642c-4.248-1.763-6.266-6.636-4.498-10.882l1.593-3.842
						c1.768-4.248,6.639-6.256,10.887-4.498c4.244,1.766,6.258,6.637,4.494,10.886l-1.594,3.84
						C214.1,247.083,211.002,249.016,207.736,249.016z M218.914,222.104c-1.064,0-2.146-0.207-3.191-0.641
						c-4.246-1.76-6.256-6.635-4.494-10.879l6.383-15.379c1.769-4.248,6.634-6.258,10.884-4.498
						c4.246,1.762,6.262,6.633,4.496,10.881l-6.386,15.379C225.275,220.172,222.178,222.104,218.914,222.104z"/>
				</g>
			</g>
			<g>
				<g>
					<g>
						<path fill="#231F20" d="M60.308,213.076c0.188-3.66,1.986-11.244,3.422-17.498c-3.492,5.562-7.629,12.23-10.115,14.971
							l-0.006,0.004c-0.221,0.273-0.412,0.586-0.557,0.932c-0.793,1.927,0.125,4.129,2.049,4.929
							c1.922,0.799,4.129-0.113,4.93-2.039C60.207,213.947,60.294,213.512,60.308,213.076L60.308,213.076z"/>
						<path fill="#FFFFFF" d="M56.847,212.951c0.074-1.461,0.789-4.492,1.363-6.996c-1.396,2.221-3.051,4.891-4.047,5.988l0,0
							c-0.092,0.113-0.168,0.229-0.225,0.373c-0.316,0.77,0.049,1.654,0.818,1.971c0.771,0.32,1.654-0.045,1.973-0.814
							C56.8,213.303,56.837,213.127,56.847,212.951L56.847,212.951z"/>
						<g>
							<path fill="#231F20" d="M48.414,232.564c-1.971,2.086-3.965,3.875-5.779,5.201v0.006c-0.457,0.379-0.824,0.865-1.068,1.455
								c-0.795,1.922,0.119,4.131,2.039,4.935c1.93,0.793,4.135-0.125,4.934-2.05c0.277-0.663,0.34-1.368,0.238-2.034
								C48.462,237.9,48.324,235.318,48.414,232.564z"/>
						</g>
						<g>
							<path fill="#FFFFFF" d="M45.474,237.188c-0.787,0.826-1.586,1.547-2.311,2.074v0.006c-0.182,0.147-0.328,0.346-0.43,0.58
								c-0.314,0.771,0.047,1.653,0.82,1.975c0.771,0.316,1.654-0.051,1.971-0.818c0.113-0.27,0.137-0.547,0.094-0.816
								C45.498,239.314,45.441,238.285,45.474,237.188z"/>
						</g>
					</g>
				</g>
				<g>
					<g>
						<path fill="#231F20" d="M92.918,213.076c0.186-3.66,1.982-11.244,3.414-17.498c-3.488,5.562-7.627,12.23-10.113,14.971
							l-0.008,0.004c-0.215,0.273-0.408,0.586-0.549,0.932c-0.799,1.927,0.119,4.129,2.041,4.929
							c1.93,0.799,4.133-0.113,4.934-2.039C92.812,213.947,92.9,213.512,92.918,213.076L92.918,213.076z"/>
						<path fill="#FFFFFF" d="M89.447,212.951c0.074-1.461,0.797-4.492,1.369-6.996c-1.4,2.221-3.051,4.891-4.047,5.988l0,0
							c-0.088,0.113-0.168,0.229-0.225,0.373c-0.322,0.77,0.049,1.654,0.822,1.971c0.764,0.32,1.65-0.045,1.967-0.814
							C89.406,213.303,89.445,213.127,89.447,212.951L89.447,212.951z"/>
						<g>
							<path fill="#231F20" d="M81.017,232.564c-1.969,2.086-3.965,3.875-5.777,5.201v0.006c-0.453,0.379-0.822,0.865-1.07,1.455
								c-0.797,1.922,0.121,4.131,2.045,4.935c1.926,0.793,4.135-0.125,4.93-2.05c0.277-0.663,0.34-1.368,0.238-2.034
								C81.062,237.9,80.925,235.318,81.017,232.564z"/>
						</g>
						<g>
							<path fill="#FFFFFF" d="M78.078,237.188c-0.783,0.826-1.584,1.547-2.312,2.074v0.006c-0.18,0.147-0.324,0.346-0.424,0.58
								c-0.316,0.771,0.045,1.653,0.82,1.975c0.768,0.316,1.648-0.051,1.967-0.818c0.113-0.27,0.135-0.547,0.096-0.816
								C78.099,239.314,78.046,238.285,78.078,237.188z"/>
						</g>
					</g>
				</g>
				<g>
					<g>
						<path fill="#231F20" d="M125.521,213.076c0.186-3.66,1.98-11.244,3.414-17.498c-3.49,5.562-7.619,12.23-10.111,14.971
							l-0.006,0.004c-0.221,0.273-0.412,0.586-0.551,0.932c-0.797,1.927,0.115,4.129,2.041,4.929
							c1.926,0.799,4.133-0.113,4.934-2.039C125.418,213.947,125.506,213.512,125.521,213.076L125.521,213.076z"/>
						<path fill="#FFFFFF" d="M122.053,212.951c0.076-1.461,0.793-4.492,1.365-6.996c-1.393,2.221-3.047,4.891-4.043,5.988l0,0
							c-0.092,0.113-0.168,0.229-0.223,0.373c-0.318,0.77,0.047,1.654,0.816,1.971c0.77,0.32,1.654-0.045,1.971-0.814
							C122.01,213.303,122.045,213.127,122.053,212.951L122.053,212.951z"/>
						<g>
							<path fill="#231F20" d="M113.623,232.564c-1.969,2.086-3.963,3.875-5.781,5.201v0.006c-0.453,0.379-0.818,0.865-1.068,1.455
								c-0.795,1.922,0.119,4.131,2.049,4.935c1.92,0.793,4.129-0.125,4.924-2.05c0.275-0.663,0.344-1.368,0.242-2.034
								C113.67,237.9,113.535,235.318,113.623,232.564z"/>
						</g>
						<g>
							<path fill="#FFFFFF" d="M110.686,237.188c-0.787,0.826-1.586,1.547-2.314,2.074v0.006c-0.178,0.147-0.324,0.346-0.422,0.58
								c-0.322,0.771,0.045,1.653,0.812,1.975c0.773,0.316,1.658-0.051,1.975-0.818c0.113-0.27,0.137-0.547,0.094-0.816
								C110.709,239.314,110.652,238.285,110.686,237.188z"/>
						</g>
					</g>
				</g>
				<g>
					<g>
						<path fill="#231F20" d="M158.127,213.076c0.182-3.66,1.982-11.244,3.416-17.498c-3.488,5.562-7.627,12.23-10.115,14.971
							l-0.004,0.004c-0.221,0.273-0.41,0.586-0.553,0.932c-0.797,1.927,0.119,4.129,2.043,4.929c1.926,0.799,4.131-0.113,4.93-2.039
							C158.023,213.947,158.111,213.512,158.127,213.076L158.127,213.076z"/>
						<path fill="#FFFFFF" d="M154.658,212.951c0.076-1.461,0.797-4.492,1.365-6.996c-1.396,2.221-3.047,4.891-4.045,5.988l0,0
							c-0.088,0.113-0.166,0.229-0.224,0.373c-0.317,0.77,0.045,1.654,0.82,1.971c0.766,0.32,1.651-0.045,1.967-0.814
							C154.615,213.303,154.65,213.127,154.658,212.951L154.658,212.951z"/>
						<g>
							<path fill="#231F20" d="M146.227,232.564c-1.967,2.086-3.961,3.875-5.778,5.201v0.006c-0.451,0.379-0.818,0.865-1.062,1.455
								c-0.801,1.922,0.113,4.131,2.039,4.935c1.925,0.793,4.134-0.125,4.929-2.05c0.276-0.663,0.34-1.368,0.237-2.034
								C146.275,237.9,146.137,235.318,146.227,232.564z"/>
						</g>
						<g>
							<path fill="#FFFFFF" d="M143.291,237.188c-0.787,0.826-1.586,1.547-2.314,2.074v0.006c-0.182,0.147-0.328,0.346-0.424,0.58
								c-0.318,0.771,0.045,1.653,0.814,1.975c0.773,0.316,1.654-0.051,1.971-0.818c0.113-0.27,0.139-0.547,0.098-0.816
								C143.311,239.314,143.256,238.285,143.291,237.188z"/>
						</g>
					</g>
				</g>
				<g>
					<g>
						<path fill="#231F20" d="M190.732,213.076c0.184-3.66,1.985-11.244,3.412-17.498c-3.482,5.562-7.623,12.23-10.113,14.971
							l-0.008,0.004c-0.215,0.273-0.408,0.586-0.549,0.932c-0.793,1.927,0.118,4.129,2.045,4.929
							c1.926,0.799,4.135-0.113,4.934-2.039C190.629,213.947,190.719,213.512,190.732,213.076L190.732,213.076z"/>
						<path fill="#FFFFFF" d="M187.264,212.951c0.074-1.461,0.793-4.492,1.365-6.996c-1.395,2.221-3.047,4.891-4.045,5.988l0,0
							c-0.088,0.113-0.164,0.229-0.221,0.373c-0.322,0.77,0.045,1.654,0.818,1.971c0.762,0.32,1.647-0.045,1.965-0.814
							C187.219,213.303,187.252,213.127,187.264,212.951L187.264,212.951z"/>
						<g>
							<path fill="#231F20" d="M178.832,232.564c-1.967,2.086-3.967,3.875-5.779,5.201v0.006c-0.451,0.379-0.822,0.865-1.064,1.455
								c-0.799,1.922,0.115,4.131,2.041,4.935c1.925,0.793,4.134-0.125,4.927-2.05c0.278-0.663,0.346-1.368,0.242-2.034
								C178.881,237.9,178.744,235.318,178.832,232.564z"/>
						</g>
						<g>
							<path fill="#FFFFFF" d="M175.896,237.188c-0.787,0.826-1.586,1.547-2.316,2.074v0.006c-0.176,0.147-0.324,0.346-0.426,0.58
								c-0.316,0.771,0.045,1.653,0.822,1.975c0.764,0.316,1.646-0.051,1.971-0.818c0.107-0.27,0.135-0.547,0.09-0.816
								C175.912,239.314,175.861,238.285,175.896,237.188z"/>
						</g>
					</g>
				</g>
				<g>
					<g>
						<path fill="#231F20" d="M222.924,213.076c0.182-3.66,1.98-11.244,3.416-17.498c-3.488,5.562-7.627,12.23-10.119,14.971
							l-0.006,0.004c-0.217,0.273-0.408,0.586-0.551,0.932c-0.793,1.927,0.121,4.129,2.047,4.929
							c1.922,0.799,4.131-0.113,4.93-2.039C222.816,213.947,222.902,213.512,222.924,213.076L222.924,213.076z"/>
						<path fill="#FFFFFF" d="M219.455,212.951c0.07-1.461,0.791-4.492,1.365-6.996c-1.396,2.221-3.051,4.891-4.051,5.988l0,0
							c-0.086,0.113-0.16,0.229-0.217,0.373c-0.318,0.77,0.045,1.654,0.813,1.971c0.772,0.32,1.651-0.045,1.973-0.814
							C219.412,213.303,219.447,213.127,219.455,212.951L219.455,212.951z"/>
						<g>
							<path fill="#231F20" d="M211.023,232.564c-1.967,2.086-3.961,3.875-5.779,5.201v0.006c-0.451,0.379-0.824,0.865-1.068,1.455
								c-0.795,1.922,0.119,4.131,2.045,4.935c1.926,0.793,4.129-0.125,4.928-2.05c0.275-0.663,0.34-1.368,0.238-2.034
								C211.07,237.9,210.934,235.318,211.023,232.564z"/>
						</g>
						<g>
							<path fill="#FFFFFF" d="M208.084,237.188c-0.787,0.826-1.582,1.547-2.311,2.074v0.006c-0.178,0.147-0.328,0.346-0.424,0.58
								c-0.324,0.771,0.045,1.653,0.813,1.975c0.769,0.316,1.653-0.051,1.971-0.818c0.111-0.27,0.138-0.547,0.099-0.816
								C208.107,239.314,208.047,238.285,208.084,237.188z"/>
						</g>
					</g>
				</g>
			</g>
		</g>
		<g>
			<g>
				<path fill="#FFFFFF" d="M182.217,118.084c0.215,0.113,0.436,0.209,0.646,0.322c0.006-0.039,0.01-0.08,0.014-0.119
					C182.658,118.219,182.441,118.15,182.217,118.084z"/>
			</g>
			<g>
				<path fill="#FFFFFF" d="M165.193,114.424c4.922,0,9.652,0.816,14.072,2.303c-4.023-1.623-8.416-2.523-13.023-2.523
					c-1.941,0-3.844,0.164-5.695,0.471C162.07,114.516,163.621,114.424,165.193,114.424z"/>
			</g>
			<path fill="#D4DAE6" d="M266.764,166.461c-1.777-6.406-6.01-12.127-11.602-15.701c-4.887-3.166-10.998-4.713-16.859-4.242
				c-0.219-3.172-1.291-6.338-3.063-8.996c-1.037-1.562-2.322-2.979-3.841-4.223c2.107-5.156,2.679-11.014,1.605-16.553
				c-1.281-6.83-5.168-13.273-10.668-17.672c-5.199-4.229-12.025-6.652-18.715-6.652c-0.283,0-0.561,0.004-0.832,0.014
				c-5.557,0.119-11.1,1.893-15.678,5.008c-1.648-2.127-3.553-3.951-5.676-5.426c-1.101-0.773-2.302-1.479-3.67-2.146
				c-0.107-0.051-0.205-0.094-0.312-0.133l-0.182-0.078c-0.453-0.203-0.912-0.4-1.375-0.582c-0.188-0.068-0.371-0.133-0.547-0.195
				c-3.17-1.139-6.457-1.691-9.672-1.527c-0.158-0.611-0.304-1.283-0.455-2.066c-0.195-1.01-0.4-2.051-0.697-3.088
				c-0.631-2.344-1.49-4.652-2.558-6.859c-2.215-4.602-5.409-8.857-9.243-12.312c-4.054-3.66-8.937-6.514-14.122-8.248
				c-5.414-1.818-11.242-2.463-16.998-1.871c-8.969,0.883-17.779,5.029-24.168,11.375c-5.732,5.619-9.691,12.971-11.193,20.773
				c-0.996-0.201-1.965-0.297-2.95-0.297c-3.869,0-7.682,1.291-10.732,3.631c-2.229,1.67-4.068,3.895-5.324,6.426
				c-0.818,1.662-1.367,3.508-1.6,5.389c-5.947-1.531-12.307-1.467-18.197,0.154c-6.684,1.816-12.887,5.729-17.469,11.01
				c-3.643,4.184-6.287,9.207-7.646,14.523c-1.309,5.085-1.471,10.505-0.465,15.666c0.926,4.832,2.934,9.521,5.807,13.574
				c2.141,3.014,4.83,5.74,7.824,7.949c-3.334,1.502-6.182,4-8.086,7.098c-2.508,3.992-3.367,8.949-2.361,13.596
				c0.109,0.511,0.229,0.97,0.359,1.396l0.043,0.152c0.051,0.17,0.102,0.336,0.244,0.732l0.236,0.68
				c0.031,0.078,0.139,0.316,0.439,0.482l0.168,0.094h29.84h26.682H209.17h2.342h52.803l0.988-2.023l0.389-0.896
				c0.224-0.543,0.479-1.19,0.693-1.856C268.107,177.406,268.24,171.697,266.764,166.461z"/>
			<g>
				<path fill="#ACBAD1" d="M231.229,122.904c-0.061-0.092-0.129-0.182-0.205-0.256c0.056-0.48,0.082-0.965,0.104-1.449
					c-0.028-0.275-0.08-0.545-0.119-0.816c-0.051-0.385-0.098-0.77-0.163-1.152c-0.117-0.652-0.257-1.297-0.419-1.939
					c-1.52-6.164-5.1-11.76-10.077-15.752c-4.941-4.006-11.173-6.299-17.548-6.469c-0.325-0.012-0.646-0.018-0.969-0.018
					c-5.008,0-10.127,1.359-14.567,3.824c1.612,2.311,2.854,4.871,3.602,7.545c1.332,4.705,1.209,9.77-0.314,14.332
					c2.648,1.584,5.127,3.504,7.312,5.691c2.854,2.863,5.262,6.223,7.028,9.805c2.039-2.531,4.83-4.51,7.963-5.615
					c1.935-0.686,4.078-1.051,6.197-1.051c2.039,0,4.037,0.326,5.941,0.967c1.801,0.6,3.518,1.512,5.068,2.645
					c0.229-0.78,0.422-1.567,0.584-2.364c0.031-0.14,0.057-0.276,0.082-0.416C231.197,127.947,231.363,125.416,231.229,122.904z
					 M223.072,125.334c-14.246-0.465-25.715-11.76-26.482-25.922c2.318-0.92,4.84-1.441,7.482-1.441
					c11.205,0,20.291,9.084,20.291,20.289C224.363,120.752,223.893,123.125,223.072,125.334z"/>
				<path fill="#ACBAD1" d="M24.308,139.658c-0.018-0.125-0.025-0.25-0.033-0.375c-0.006-0.01-0.006-0.016-0.006-0.021
					C24.279,139.391,24.291,139.525,24.308,139.658z"/>
				<path fill="#ACBAD1" d="M183.174,114.799c0,0.863-0.078,1.707-0.182,2.543l0.006,0.002c1.145,0.365,2.277,0.773,3.373,1.25
					c1.27,0.551,2.512,1.195,3.73,1.896c0.811-4.502,0.448-9.26-1.058-13.492c-1.748-4.967-5.099-9.367-9.433-12.387
					c-0.442-0.311-0.905-0.6-1.366-0.883c-0.623-0.352-1.246-0.703-1.884-1.014c-0.756-0.369-1.522-0.701-2.303-1.018
					c-2.858-1.076-5.91-1.66-8.975-1.66l-0.348,0.004c-4.748,0.033-9.619,1.479-13.719,4.066c0.422-0.266,0.871-0.498,1.309-0.736
					c2.486-0.926,5.16-1.455,7.963-1.455C172.928,91.916,183.174,102.156,183.174,114.799z"/>
				<path fill="#ACBAD1" d="M161.436,88.605c0.107-0.021,0.215-0.041,0.32-0.062c0.949-0.188,1.908-0.334,2.877-0.406
					c-0.303-0.875-0.561-1.766-0.795-2.65c-0.25-0.939-0.51-1.912-0.84-2.846c-0.738-2.201-1.688-4.354-2.809-6.404
					c-2.32-4.23-5.5-8.113-9.207-11.229c-3.89-3.275-8.494-5.816-13.324-7.346c-3.779-1.197-7.729-1.805-11.742-1.805
					c-1.328,0-2.674,0.068-3.988,0.205c-8.371,0.826-16.369,4.471-22.525,10.254c-5.727,5.318-9.82,12.436-11.531,20.045
					c-0.031,0.139-0.098,0.246-0.193,0.326c-0.588,2.674-0.912,5.438-0.957,8.213c0,0.107-0.09,0.197-0.201,0.197
					c-0.109,0-0.195-0.084-0.201-0.191c-0.162-2.814-0.012-5.646,0.432-8.418c-4.456,0.23-8.795,1.785-12.276,4.434
					c-3.432,2.58-6.1,6.27-7.609,10.43c0.029,0.018,0.064,0.025,0.088,0.045c0.709,0.646,2.635,0.918,3.557,1.316
					c1.246,0.541,2.459,1.16,3.631,1.844c2.408,1.412,4.664,3.111,6.633,5.082c1.559-0.709,2.85-2.252,4.463-3.062
					c4.016-2.014,8.023-3.418,12.672-3.395c0.033-0.025,0.072-0.045,0.107-0.072c-0.219-0.674-0.566-2.494-0.582-2.574
					c-0.129-0.662-0.246-1.33-0.336-1.998c-0.182-1.365-0.271-2.742-0.271-4.121c0-17.176,13.928-31.098,31.102-31.098
					c15.459,0,28.246,11.287,30.656,26.064C159.518,89.066,160.467,88.809,161.436,88.605z"/>
				<path fill="#ACBAD1" d="M134.639,150.158c-1.102,0-2.186,0.061-3.268,0.156c-0.01-0.404-0.029-0.808-0.029-1.215
					c0-4.254,0.777-8.32,2.17-12.091c2.934-8.561,8.666-15.178,15.904-19.271c-0.227,0.084-0.43,0.189-0.65,0.277l0.486-0.215
					c0,0-6.701,1.191-14.426,7.373c-1.232,0.986-2.48,2.096-3.744,3.348c-0.057,0.061-0.113,0.117-0.17,0.176
					c-0.621,0.617-1.234,1.266-1.852,1.955c-0.004,0.006-0.01,0.014-0.016,0.021c-0.58,0.652-1.164,1.347-1.738,2.068
					c-0.088,0.106-0.178,0.215-0.264,0.327c-0.566,0.72-1.127,1.474-1.688,2.261c-0.09,0.137-0.182,0.271-0.277,0.407
					c-0.504,0.73-1.002,1.486-1.496,2.273c-0.07,0.123-0.146,0.232-0.221,0.355c-0.527,0.854-1.039,1.756-1.547,2.682
					c-0.109,0.209-0.221,0.422-0.336,0.637c-0.514,0.963-1.018,1.953-1.498,2.996c-0.219,0.107-0.432,0.228-0.652,0.322
					c-2.803,1.246-5.861,1.889-8.934,1.889c-0.678,0-1.346-0.039-2.02-0.098c0,0,0-0.004-0.006-0.004
					c-4.662-0.422-8.906-2.287-12.291-5.15c-0.029-0.018-0.062-0.045-0.096-0.062c-5.365-4.379-8.785-11.033-8.785-18.494
					c0-7.816,3.771-14.732,9.582-19.088c0.453-0.119,0.816-0.248,0.932-0.391c-0.039,0.01-0.076,0.02-0.115,0.029
					c-2.34,0.504-4.611,1.258-6.764,2.242c-0.002,0-0.014,0.006-0.016,0.012c-0.721,0.328-1.432,0.682-2.119,1.062
					c-0.062,0.037-0.125,0.076-0.188,0.113c-0.627,0.354-1.25,0.717-1.854,1.107c-0.156,0.104-0.303,0.221-0.457,0.322
					c-0.498,0.34-1.002,0.68-1.479,1.045c-0.273,0.213-0.53,0.439-0.793,0.656c-0.346,0.281-0.695,0.553-1.025,0.85
					c-0.588,0.525-1.148,1.07-1.688,1.637c-4.389,4.559-7.375,10.613-8.41,17.059c-0.018,0.096-0.102,0.17-0.199,0.17
					c-0.113-0.006-0.197-0.088-0.203-0.189c-0.182-3.152,0.289-6.432,1.365-9.49c1.205-3.43,3.168-6.621,5.68-9.236
					c0.346-0.361,0.723-0.688,1.092-1.027c-3.021-2.562-6.488-4.605-10.176-6.01c-1.229-0.467-2.48-0.867-3.756-1.189
					c-0.125,0.031-0.264,0.029-0.389-0.006c-0.441-0.002-0.945-0.182-1.4-0.301c-0.006-0.002-0.012-0.004-0.018-0.004
					c-0.742-0.148-1.484-0.273-2.232-0.375c-0.004,0-0.004,0-0.01-0.002c-0.447-0.049-0.867-0.047-1.309-0.049
					c-0.199-0.002-0.381-0.068-0.555-0.141c-0.885-0.068-1.766-0.113-2.652-0.113c-3.342,0-6.637,0.475-9.799,1.42
					c-6.066,1.803-11.707,5.441-15.881,10.252c-3.326,3.82-5.781,8.389-7.104,13.215c-0.316,1.152-0.572,2.326-0.77,3.512
					c-0.098,0.605-0.137,1.22-0.199,1.832c-0.064,0.578-0.152,1.152-0.189,1.736c-0.049,0.812-0.025,1.631-0.014,2.446
					c0.002,0.386-0.023,0.765-0.006,1.15c0.027,0.648,0.125,1.291,0.193,1.941c0.045,0.25,0.096,0.5,0.152,0.748
					c-0.012,0.256-0.006,0.51,0,0.768c0.014,0.1,0.014,0.195,0.027,0.297c0.697,4.506,2.379,8.973,4.861,12.912
					c2.146,3.406,4.961,6.471,8.145,8.957c3.213-1.322,6.865-1.756,10.279-1.227c0.051-0.865,0.148-1.73,0.32-2.59
					c0.615-3.062,2.078-6.025,4.127-8.336c1.84-2.109,4.154-3.734,6.684-4.703c0.096-0.039,0.197,0.002,0.246,0.09
					c0.049,0.092,0.025,0.201-0.061,0.262c-4.432,3.188-7.568,7.986-8.6,13.174c-1.07,5.217-0.061,10.863,2.783,15.486
					c0.049,0.084,0.029,0.201-0.049,0.262c-0.035,0.031-0.082,0.047-0.129,0.047c-0.051,0-0.1-0.02-0.139-0.055
					c-1.961-1.889-3.455-4.287-4.328-6.941c-0.65-1.983-0.918-4.072-0.861-6.16c-0.02,0-0.033,0.004-0.057,0.004l0.057-0.067
					c0,0-0.781-0.015-2.027,0.094c-1.041,0.062-2.066,0.209-3.076,0.431c-5.912,1.139-14.844,4.762-14.811,16.25
					c-0.068,1.383,0.027,2.778,0.326,4.133c0.037,0.176,0.088,0.398,0.154,0.66c0.074,0.271,0.166,0.526,0.268,0.758l52.691,1.893
					c-0.254-1.264-0.418-2.555-0.418-3.891c0-11.051,8.956-20.012,20.006-20.012c6.943,0,13.055,3.541,16.643,8.91
					c4.16-10.529,14.412-17.996,26.419-17.996c1.689,0,3.328,0.176,4.935,0.459c0.369-0.133,0.748-0.232,1.121-0.351
					C145.305,151.383,140.115,150.158,134.639,150.158z M144.801,119.783l0.758-0.34c-0.396,0.195-0.772,0.412-1.166,0.617
					L144.801,119.783z M47.972,145.787c-7.629-2.861-13.072-10.201-13.072-18.84c0-11.119,9.014-20.135,20.131-20.135
					c6.301,0,11.916,2.891,15.605,7.414c-5.439,6.088-9.139,13.738-10.441,22.18C55.386,138.5,51.205,141.742,47.972,145.787z
					 M62.47,146.537c-0.057-0.014-0.119-0.02-0.176-0.035c0.115-0.082,0.242-0.16,0.359-0.246
					C62.593,146.35,62.529,146.443,62.47,146.537z M63.908,167.773c-3.791-6.709-3.23-14.824,3.33-21.205
					c2.139-2.074,4.744-2.887,7.33-2.66c2.189,3.799,5.275,6.93,8.918,9.525C74.798,154.588,67.513,160.133,63.908,167.773z"/>
				<path fill="#ACBAD1" d="M198.568,161.986c7.67,2.6,14.207,7.674,18.625,14.283c-0.23-1.236-0.353-2.515-0.353-3.822
					c0-11.504,9.322-20.826,20.82-20.826s20.821,9.322,20.821,20.826c0,4.684-1.569,8.992-4.188,12.473
					c0.902-0.035,1.797-0.062,2.693-0.098c0.561-0.016,1.125-0.037,1.686-0.057l0.66-0.021c0.314-0.012,0.705-0.061,1.068-0.035
					l1.932-0.066l0.576-1.377c0.164-0.428,0.35-0.938,0.516-1.455c0-0.006,0-0.012,0-0.018c0.062-0.396,0.215-0.793,0.34-1.189
					c0.049-0.174,0.105-0.346,0.148-0.521c0.078-0.328,0.145-0.656,0.211-0.985c0.055-0.267,0.111-0.531,0.156-0.798
					c0.057-0.34,0.1-0.687,0.143-1.024c0.033-0.273,0.07-0.545,0.098-0.816c0.035-0.348,0.049-0.697,0.066-1.047
					c0.012-0.262,0.033-0.521,0.039-0.785c0.006-0.365-0.006-0.734-0.012-1.102c-0.006-0.25,0-0.498-0.016-0.75
					c-0.019-0.371-0.062-0.74-0.095-1.107c-0.024-0.244-0.037-0.494-0.067-0.736c-0.056-0.396-0.121-0.785-0.189-1.174
					c-0.041-0.217-0.066-0.436-0.107-0.65c-0.125-0.602-0.264-1.2-0.432-1.793c-1.574-5.657-5.283-10.787-10.182-14.071
					c-0.67-0.447-1.359-0.861-2.064-1.246c-0.174-0.097-0.355-0.183-0.537-0.271c-0.535-0.277-1.082-0.541-1.643-0.781
					c-0.182-0.074-0.359-0.148-0.539-0.219c-0.707-0.281-1.426-0.545-2.156-0.763c-1.154-0.34-2.322-0.604-3.512-0.78
					c-2.414-0.363-4.895-0.558-7.33-0.263c-1.139,0.14-2.26,0.356-3.371,0.642c-1.127,0.289-2.234,0.649-3.312,1.088
					c-2.164,0.869-4.215,2.021-6.065,3.43c-0.088,0.064-0.209,0.053-0.276-0.031c-0.074-0.086-0.062-0.211,0.018-0.281
					c3.916-3.5,8.99-5.758,14.314-6.389c-0.677-3.078-2.027-5.941-3.962-8.324c-2.297-2.842-5.442-5.041-8.875-6.188
					c-1.942-0.65-3.993-0.982-6.084-0.982c-1.6,0-3.188,0.195-4.729,0.584c-3.016,0.752-5.85,2.25-8.252,4.332
					c0.182,0.385,0.363,0.771,0.529,1.162c1.646,3.785,2.637,7.941,2.866,12.014c0.009,0.107-0.065,0.197-0.174,0.211
					c-0.002,0-0.002-0.008-0.008-0.008c-0.009,0.002-0.009,0.008-0.021,0.012c-0.092,0-0.176-0.065-0.195-0.157
					c-1.86-8.226-6.133-15.988-12.018-21.857c-0.674-0.68-1.385-1.338-2.105-1.975c-0.396-0.346-0.809-0.672-1.219-1.006
					c-0.311-0.252-0.617-0.51-0.934-0.754c-0.572-0.441-1.156-0.863-1.752-1.273c-0.139-0.096-0.271-0.193-0.412-0.289
					c-0.709-0.48-1.428-0.943-2.164-1.383c0,0,0-0.002,0-0.004c8.258,6.383,13.59,16.364,13.59,27.61
					c0,4.564-0.879,8.922-2.477,12.914C198.631,162.002,198.598,161.996,198.568,161.986z M217.283,133.586
					c7.225,0,13.09,5.789,13.225,12.977c-0.99,0.213-2.016,0.328-3.072,0.328c-7.395,0-13.5-5.438-14.59-12.524
					C214.236,133.869,215.725,133.586,217.283,133.586z"/>
			</g>
			<path fill="#231F20" d="M266.764,166.461c-1.777-6.406-6.01-12.127-11.602-15.701c-4.887-3.166-10.998-4.713-16.859-4.242
				c-0.219-3.172-1.291-6.338-3.063-8.996c-1.037-1.562-2.322-2.979-3.841-4.223c2.107-5.156,2.679-11.014,1.605-16.553
				c-1.281-6.83-5.168-13.273-10.668-17.672c-5.199-4.229-12.025-6.652-18.715-6.652c-0.283,0-0.561,0.004-0.832,0.014
				c-5.557,0.119-11.1,1.893-15.678,5.008c-1.648-2.127-3.553-3.951-5.676-5.426c-1.101-0.773-2.302-1.479-3.67-2.146
				c-0.107-0.051-0.205-0.094-0.312-0.133l-0.182-0.078c-0.453-0.203-0.912-0.4-1.375-0.582c-0.188-0.068-0.371-0.133-0.547-0.195
				c-3.17-1.139-6.457-1.691-9.672-1.527c-0.158-0.611-0.304-1.283-0.455-2.066c-0.195-1.01-0.4-2.051-0.697-3.088
				c-0.631-2.344-1.49-4.652-2.558-6.859c-2.215-4.602-5.409-8.857-9.243-12.312c-4.054-3.66-8.937-6.514-14.122-8.248
				c-5.414-1.818-11.242-2.463-16.998-1.871c-8.969,0.883-17.779,5.029-24.168,11.375c-5.732,5.619-9.691,12.971-11.193,20.773
				c-0.996-0.201-1.965-0.297-2.95-0.297c-3.869,0-7.682,1.291-10.732,3.631c-2.229,1.67-4.068,3.895-5.324,6.426
				c-0.818,1.662-1.367,3.508-1.6,5.389c-5.947-1.531-12.307-1.467-18.197,0.154c-6.684,1.816-12.887,5.729-17.469,11.01
				c-3.643,4.184-6.287,9.207-7.646,14.523c-1.309,5.085-1.471,10.505-0.465,15.666c0.926,4.832,2.934,9.521,5.807,13.574
				c2.141,3.014,4.83,5.74,7.824,7.949c-3.334,1.502-6.182,4-8.086,7.098c-2.508,3.992-3.367,8.949-2.361,13.596
				c0.109,0.511,0.229,0.97,0.359,1.396l0.043,0.152c0.051,0.17,0.102,0.336,0.244,0.732l0.236,0.68
				c0.031,0.078,0.139,0.316,0.439,0.482l0.168,0.094h56.521l-0.268-0.728h-0.77c-0.033-0.075-0.09-0.139-0.172-0.139l-53.279-1.916
				c-0.102-0.23-0.193-0.486-0.268-0.759c-0.066-0.262-0.117-0.483-0.154-0.66c-0.299-1.354-0.395-2.75-0.326-4.133
				c-0.033-11.487,8.898-15.11,14.811-16.25c1.01-0.221,2.035-0.366,3.076-0.43c1.246-0.107,2.027-0.094,2.027-0.094
				s-0.057,0.068,0,0.064c-0.057,2.088,0.211,4.176,0.861,6.16c0.873,2.653,2.367,5.053,4.328,6.94
				c0.039,0.035,0.088,0.055,0.139,0.055c0.047,0,0.094-0.016,0.129-0.047c0.078-0.062,0.098-0.178,0.049-0.262
				c-2.844-4.623-3.854-10.271-2.783-15.486c1.031-5.188,4.168-9.985,8.6-13.174c0.086-0.062,0.109-0.17,0.061-0.262
				c-0.049-0.089-0.15-0.13-0.246-0.091c-2.529,0.97-4.844,2.595-6.684,4.703c-2.049,2.312-3.512,5.273-4.127,8.336
				c-0.172,0.859-0.27,1.726-0.32,2.59c-3.414-0.528-7.066-0.096-10.279,1.228c-3.184-2.485-5.998-5.551-8.145-8.957
				c-2.482-3.938-4.164-8.405-4.861-12.912c-0.758-4.797-0.479-9.782,0.805-14.432c1.322-4.826,3.777-9.395,7.104-13.215
				c4.174-4.811,9.814-8.449,15.881-10.252c3.162-0.945,6.457-1.42,9.799-1.42c2.77,0,5.518,0.328,8.176,0.984
				c0.125,0.035,0.264,0.037,0.389,0.006c5.084,1.291,9.9,3.781,13.932,7.199c-0.369,0.34-0.746,0.666-1.092,1.027
				c-2.512,2.615-4.475,5.807-5.68,9.236c-1.076,3.059-1.547,6.338-1.365,9.49c0.006,0.102,0.09,0.184,0.203,0.189
				c0.098,0,0.182-0.074,0.199-0.17c1.035-6.445,4.021-12.5,8.41-17.059c4.334-4.561,10.258-7.801,16.682-9.121
				c0.098-0.02,0.164-0.113,0.158-0.215c-0.008-0.105-0.094-0.182-0.199-0.184c-3.131-0.055-6.422,0.562-9.418,1.764
				c-2.785,1.1-5.37,2.746-7.631,4.74c-3.852-3.807-8.641-6.666-13.854-8.27c-0.023-0.02-0.059-0.027-0.088-0.045
				c1.51-4.16,4.178-7.85,7.609-10.43c3.48-2.648,7.82-4.203,12.276-4.434c-0.443,2.771-0.594,5.604-0.432,8.418
				c0.006,0.107,0.092,0.191,0.201,0.191c0.111,0,0.201-0.09,0.201-0.197c0.045-2.775,0.369-5.539,0.957-8.213
				c0.096-0.08,0.162-0.188,0.193-0.326c1.711-7.609,5.805-14.727,11.531-20.045c6.156-5.783,14.154-9.428,22.525-10.254
				c1.314-0.137,2.66-0.205,3.988-0.205c4.014,0,7.963,0.607,11.742,1.805c4.83,1.529,9.436,4.07,13.324,7.346
				c3.707,3.115,6.887,6.998,9.207,11.229c1.121,2.051,2.069,4.203,2.809,6.404c0.33,0.934,0.59,1.906,0.84,2.846
				c0.234,0.885,0.492,1.775,0.795,2.65c-5.096,0.375-10.018,2.379-13.852,5.648c-0.084,0.066-0.096,0.186-0.039,0.271
				c0.068,0.084,0.186,0.107,0.277,0.051c4.1-2.588,8.971-4.033,13.719-4.066l0.348-0.004c3.064,0,6.115,0.584,8.975,1.66
				c0.779,0.316,1.547,0.648,2.303,1.018c0.638,0.311,1.261,0.662,1.884,1.014c0.461,0.283,0.924,0.572,1.366,0.883
				c4.334,3.02,7.685,7.42,9.433,12.387c1.506,4.232,1.867,8.99,1.058,13.492c-1.22-0.701-2.461-1.346-3.73-1.896
				c-3.785-1.648-7.938-2.652-12.01-2.895c-0.102,0.002-0.195,0.068-0.211,0.176c-0.016,0.102,0.053,0.203,0.154,0.227
				c8.219,1.879,15.973,6.168,21.827,12.07c5.886,5.869,10.156,13.633,12.019,21.857c0.02,0.092,0.104,0.158,0.223,0.154
				c0.107-0.015,0.182-0.104,0.174-0.212c-0.23-4.071-1.221-8.229-2.867-12.014c-0.166-0.392-0.348-0.777-0.529-1.162
				c2.402-2.082,5.236-3.58,8.252-4.332c1.541-0.39,3.132-0.584,4.73-0.584c2.09,0,4.141,0.332,6.084,0.981
				c3.432,1.146,6.578,3.347,8.875,6.188c1.934,2.384,3.285,5.246,3.961,8.324c-5.324,0.631-10.397,2.889-14.313,6.389
				c-0.08,0.07-0.093,0.195-0.019,0.281c0.068,0.084,0.189,0.096,0.277,0.03c3.689-2.807,8.15-4.598,12.75-5.157
				c2.436-0.295,4.916-0.103,7.33,0.262c2.338,0.351,4.621,1.025,6.773,1.998c1.278,0.578,2.516,1.271,3.678,2.062
				c4.898,3.285,8.607,8.414,10.182,14.072c1.303,4.644,1.232,9.711-0.213,14.281c-0.18,0.598-0.396,1.184-0.586,1.672l-0.576,1.377
				l-51.963,1.801c-0.086,0.006-0.146,0.068-0.176,0.146h-0.768l-0.261,0.728h55.146l0.988-2.023l0.389-0.896
				c0.223-0.543,0.479-1.19,0.692-1.856C268.107,177.406,268.24,171.697,266.764,166.461z M224.992,130.551
				c-1.904-0.641-3.902-0.967-5.941-0.967c-2.119,0-4.264,0.365-6.197,1.051c-3.133,1.105-5.924,3.084-7.963,5.615
				c-1.768-3.582-4.176-6.941-7.029-9.805c-2.184-2.188-4.661-4.107-7.311-5.691c1.523-4.562,1.646-9.627,0.314-14.332
				c-0.746-2.674-1.988-5.234-3.602-7.545c4.44-2.465,9.561-3.824,14.567-3.824c0.321,0,0.644,0.006,0.969,0.018
				c6.375,0.17,12.604,2.463,17.548,6.469c4.979,3.992,8.559,9.588,10.077,15.752c1.298,5.176,1.154,10.77-0.364,15.903
				C228.51,132.062,226.793,131.15,224.992,130.551z"/>
		</g>
	</g>
</g>
</svg>
