<?xml version="1.0" encoding="utf-8"?>
<!-- Generator: Adobe Illustrator 15.0.2, SVG Export Plug-In . SVG Version: 6.00 Build 0)  -->
<!DOCTYPE svg PUBLIC "-//W3C//DTD SVG 1.1//EN" "http://www.w3.org/Graphics/SVG/1.1/DTD/svg11.dtd">
<svg version="1.1" id="Layer_1" xmlns="http://www.w3.org/2000/svg" xmlns:xlink="http://www.w3.org/1999/xlink" x="0px" y="0px"
	 width="280px" height="260px" viewBox="0 0 280 260" enable-background="new 0 0 280 260" xml:space="preserve">
<g>
	<g>
		<path fill="#FFFFFF" d="M112.796,84.731c-2.863,20.509-21.811,34.824-42.315,31.964c-20.514-2.859-34.824-21.811-31.96-42.32
			c2.857-20.512,21.803-34.821,42.311-31.962C101.346,45.276,115.656,64.217,112.796,84.731z"/>
		<g>
			<g>
				<path fill="#FFD88C" d="M125.732,90.331c6.723-1.514,15.266-1.654,25.567-0.222c-9.838-1.372-17.749-3.699-23.711-6.771h0.011
					c-9.89-4.91-7.911-15.231,6.642-19.005c-14.11,3.659-20.883-3.806-15.566-12.559c3.688-5.82,9.627-11.973,17.934-18.245
					c-8.097,6.118-15.469,10.096-21.96,12.099c-10.202,3.159-15.856-5.454-8.337-18.237c-7.357,12.513-17.367,12.066-19.848,2.237
					c-1.537-6.744-1.698-15.34-0.246-25.714c-1.434,10.234-3.893,18.373-7.148,24.409c-5.046,9.029-14.915,6.811-18.589-7.351
					c3.663,14.123-3.834,20.894-12.601,15.534l0.02,0.042c-5.825-3.684-11.982-9.632-18.263-17.951
					c5.986,7.933,9.932,15.17,11.977,21.561c3.525,10.46-5.172,16.355-18.122,8.737c12.542,7.383,12.061,17.43,2.152,19.875
					c-6.729,1.521-15.294,1.673-25.63,0.232c9.857,1.372,17.771,3.707,23.738,6.782l-0.038-0.006
					c9.893,4.903,7.911,15.226-6.635,19.001c14.092-3.653,20.863,3.793,15.575,12.54c-3.684,5.82-9.632,11.975-17.944,18.256
					c7.943-5.998,15.191-9.943,21.589-11.992L36.28,113.6c10.462-3.531,16.36,5.172,8.741,18.125
					c7.303-12.421,17.211-12.061,19.787-2.449c1.58,6.771,1.757,15.443,0.29,25.922c1.374-9.839,3.697-17.742,6.771-23.701l0,0
					c4.903-9.891,15.221-7.91,19,6.633c-3.662-14.113,3.818-20.881,12.58-15.551c5.814,3.691,11.961,9.627,18.227,17.93
					c-5.984-7.932-9.93-15.17-11.977-21.559l0.007,0.008c-3.521-10.457,5.174-16.357,18.135-8.736
					C115.267,102.822,115.771,92.744,125.732,90.331z M112.796,84.731c-2.863,20.509-21.811,34.824-42.315,31.964
					c-20.514-2.859-34.824-21.811-31.96-42.32c2.857-20.512,21.803-34.821,42.311-31.962
					C101.346,45.276,115.656,64.217,112.796,84.731z"/>
				<path fill="#FEC343" d="M105.593,83.729c-2.305,16.532-17.58,28.07-34.11,25.765c-16.536-2.309-28.072-17.581-25.768-34.113
					c2.308-16.536,17.58-28.07,34.116-25.762C96.365,51.924,107.903,67.199,105.593,83.729z"/>
			</g>
		</g>
		<g>
			<g>
				<path fill="#ADD3F0" d="M64.8,209.156l2.576,2.697l-1.807,3.237l1.496,0.845l1.943-3.443l1.398-0.186l-1.127,2.694l3.02-0.437
					l-0.602,1.449l-3.828,0.963l0.418,1.66l3.604-0.918l1.932,3.217l1.473-0.867l-2.012-3.397l0.566-1.362l1.723,2.27l1.109-2.764
					l1.014,1.326l-1.059,3.737l1.648,0.466l1.002-3.574l3.762-0.062l-0.018-1.711l-4.022,0.039l-0.957-1.252l2.901-0.367
					l-1.813-2.305l1.575-0.205l2.764,2.838l1.229-1.195l-2.35-2.412l-0.256-0.262l1.836-3.268l-1.496-0.838l-1.941,3.438
					l-1.61,0.211l1.151-2.742l-2.815,0.408l0.57-1.377l3.836-0.969l-0.42-1.664l-3.631,0.906l-1.902-3.207l-1.473,0.873l2.01,3.403
					l-0.623,1.482l-1.846-2.437l-1.064,2.658l-0.867-1.133l1.076-3.801l-1.648-0.465l-1.041,3.596l-3.723,0.041l0.018,1.715
					l3.959-0.039l0.924,1.207l-3.014,0.379l1.84,2.346l-1.426,0.187l-2.754-2.832L64.8,209.156z M72.774,211.094l-1.189-1.518
					l1.914-0.238l0.715-1.795l1.172,1.535l1.902-0.273l-0.746,1.779l1.195,1.512l-1.916,0.244l-0.713,1.795l-1.166-1.541
					l-1.916,0.279L72.774,211.094z"/>
				<path fill="#ADD3F0" d="M51.603,241.045l2.582,2.697l-1.812,3.238l1.496,0.84l1.943-3.445l1.404-0.18l-1.133,2.688l3.023-0.43
					l-0.605,1.442l-3.828,0.97l0.418,1.666l3.604-0.931l1.926,3.229l1.479-0.867l-2.012-3.407l0.566-1.365l1.723,2.281l1.109-2.775
					l1.014,1.326l-1.053,3.744l1.648,0.465l0.996-3.574l3.768-0.062l-0.018-1.711l-4.021,0.033l-0.963-1.246l2.9-0.373l-1.807-2.305
					l1.574-0.199l2.758,2.838l1.229-1.195l-2.35-2.418l-0.256-0.26l1.836-3.264l-1.49-0.844l-1.941,3.438l-1.609,0.217l1.15-2.736
					l-2.816,0.396l0.566-1.371l3.842-0.969l-0.426-1.664l-3.625,0.9l-1.902-3.207l-1.479,0.873l2.01,3.41l-0.617,1.479l-1.846-2.436
					l-1.064,2.662l-0.867-1.133l1.07-3.802l-1.643-0.471l-1.043,3.596l-3.721,0.054l0.018,1.702l3.953-0.032l0.924,1.207
					l-3.014,0.379l1.84,2.352l-1.42,0.18l-2.76-2.832L51.603,241.045z M59.583,242.982l-1.195-1.519l1.914-0.243l0.721-1.789
					l1.166,1.534l1.908-0.272l-0.746,1.779l1.193,1.518l-1.914,0.238l-0.719,1.795l-1.166-1.535l-1.91,0.268L59.583,242.982z"/>
			</g>
			<g>
				<path fill="#ADD3F0" d="M64.8,209.156l2.576,2.697l-1.807,3.237l1.496,0.845l1.943-3.443l1.398-0.186l-1.127,2.694l3.02-0.437
					l-0.602,1.449l-3.828,0.963l0.418,1.66l3.604-0.918l1.932,3.217l1.473-0.867l-2.012-3.397l0.566-1.362l1.723,2.27l1.109-2.764
					l1.014,1.326l-1.059,3.737l1.648,0.466l1.002-3.574l3.762-0.062l-0.018-1.711l-4.022,0.039l-0.957-1.252l2.901-0.367
					l-1.813-2.305l1.575-0.205l2.764,2.838l1.229-1.195l-2.35-2.412l-0.256-0.262l1.836-3.268l-1.496-0.838l-1.941,3.438
					l-1.61,0.211l1.151-2.742l-2.815,0.408l0.57-1.377l3.836-0.969l-0.42-1.664l-3.631,0.906l-1.902-3.207l-1.473,0.873l2.01,3.403
					l-0.623,1.482l-1.846-2.437l-1.064,2.658l-0.867-1.133l1.076-3.801l-1.648-0.465l-1.041,3.596l-3.723,0.041l0.018,1.715
					l3.959-0.039l0.924,1.207l-3.014,0.379l1.84,2.346l-1.426,0.187l-2.754-2.832L64.8,209.156z M72.774,211.094l-1.189-1.518
					l1.914-0.238l0.715-1.795l1.172,1.535l1.902-0.273l-0.746,1.779l1.195,1.512l-1.916,0.244l-0.713,1.795l-1.166-1.541
					l-1.916,0.279L72.774,211.094z"/>
				<path fill="#ADD3F0" d="M51.603,241.045l2.582,2.697l-1.812,3.238l1.496,0.84l1.943-3.445l1.404-0.18l-1.133,2.688l3.023-0.43
					l-0.605,1.442l-3.828,0.97l0.418,1.666l3.604-0.931l1.926,3.229l1.479-0.867l-2.012-3.407l0.566-1.365l1.723,2.281l1.109-2.775
					l1.014,1.326l-1.053,3.744l1.648,0.465l0.996-3.574l3.768-0.062l-0.018-1.711l-4.021,0.033l-0.963-1.246l2.9-0.373l-1.807-2.305
					l1.574-0.199l2.758,2.838l1.229-1.195l-2.35-2.418l-0.256-0.26l1.836-3.264l-1.49-0.844l-1.941,3.438l-1.609,0.217l1.15-2.736
					l-2.816,0.396l0.566-1.371l3.842-0.969l-0.426-1.664l-3.625,0.9l-1.902-3.207l-1.479,0.873l2.01,3.41l-0.617,1.479l-1.846-2.436
					l-1.064,2.662l-0.867-1.133l1.07-3.802l-1.643-0.471l-1.043,3.596l-3.721,0.054l0.018,1.702l3.953-0.032l0.924,1.207
					l-3.014,0.379l1.84,2.352l-1.42,0.18l-2.76-2.832L51.603,241.045z M59.583,242.982l-1.195-1.519l1.914-0.243l0.721-1.789
					l1.166,1.534l1.908-0.272l-0.746,1.779l1.193,1.518l-1.914,0.238l-0.719,1.795l-1.166-1.535l-1.91,0.268L59.583,242.982z"/>
			</g>
			<g>
				<path fill="#ADD3F0" d="M224.885,209.156l2.576,2.697l-1.807,3.237l1.49,0.845l1.946-3.443l1.4-0.186l-1.128,2.694l3.019-0.437
					l-0.6,1.449l-3.834,0.963l0.424,1.66l3.603-0.918l1.926,3.217l1.473-0.867l-2.01-3.397l0.572-1.362l1.721,2.27l1.105-2.764
					l1.02,1.326l-1.059,3.737l1.651,0.466l0.998-3.574l3.76-0.062l-0.016-1.711l-4.021,0.039l-0.964-1.252l2.904-0.367l-1.815-2.305
					l1.579-0.205l2.765,2.838l1.229-1.195l-2.35-2.412l-0.262-0.262l1.836-3.268l-1.49-0.838l-1.943,3.438l-1.607,0.211l1.15-2.742
					l-2.816,0.408l0.572-1.377l3.834-0.969l-0.424-1.664l-3.631,0.906l-1.896-3.207l-1.473,0.873l2.004,3.403l-0.617,1.482
					l-1.846-2.437l-1.066,2.658l-0.865-1.133l1.076-3.801l-1.647-0.465l-1.043,3.596l-3.722,0.041l0.019,1.715l3.959-0.039
					l0.922,1.207l-3.012,0.379l1.84,2.346l-1.428,0.187l-2.752-2.832L224.885,209.156z M232.859,211.094l-1.189-1.518l1.914-0.238
					l0.713-1.795l1.174,1.535l1.902-0.273l-0.748,1.779l1.195,1.512l-1.908,0.244l-0.719,1.795l-1.168-1.541l-1.914,0.279
					L232.859,211.094z"/>
				<path fill="#ADD3F0" d="M211.688,241.045l2.582,2.697l-1.812,3.238l1.496,0.84l1.94-3.445l1.4-0.18l-1.127,2.688l3.023-0.43
					l-0.605,1.442l-3.83,0.97l0.42,1.666l3.602-0.931l1.933,3.229l1.474-0.867l-2.011-3.407l0.566-1.365l1.721,2.281l1.11-2.775
					l1.015,1.326l-1.06,3.744l1.652,0.465l0.998-3.574l3.76-0.062l-0.016-1.711l-4.016,0.033l-0.963-1.246l2.897-0.373l-1.812-2.305
					l1.576-0.199l2.77,2.838l1.223-1.195l-2.35-2.418l-0.256-0.26l1.836-3.264l-1.496-0.844l-1.943,3.438l-1.602,0.217l1.145-2.736
					l-2.816,0.396l0.572-1.371l3.834-0.969l-0.418-1.664l-3.631,0.9l-1.897-3.207l-1.478,0.873l2.01,3.41l-0.617,1.479l-1.852-2.436
					l-1.066,2.662l-0.864-1.133l1.076-3.802l-1.648-0.471l-1.036,3.596l-3.728,0.054l0.022,1.702l3.953-0.032l0.922,1.207
					l-3.012,0.379l1.84,2.352l-1.428,0.18l-2.752-2.832L211.688,241.045z M219.662,242.982l-1.189-1.519l1.914-0.243l0.713-1.789
					l1.174,1.534l1.902-0.272l-0.742,1.779l1.195,1.518l-1.914,0.238l-0.719,1.795l-1.168-1.535l-1.908,0.268L219.662,242.982z"/>
			</g>
			<g>
				<path fill="#ADD3F0" d="M118.224,209.156l2.576,2.697l-1.807,3.237l1.49,0.845l1.943-3.443l1.404-0.186l-1.127,2.694
					l3.018-0.437l-0.6,1.449l-3.834,0.963l0.424,1.66l3.604-0.918l1.926,3.217l1.477-0.867l-2.016-3.397l0.572-1.362l1.723,2.27
					l1.104-2.764l1.02,1.326l-1.059,3.737l1.648,0.466l0.996-3.574l3.768-0.062l-0.018-1.711l-4.021,0.039l-0.963-1.252l2.906-0.367
					l-1.812-2.305l1.574-0.205l2.764,2.838l1.223-1.195l-2.344-2.412l-0.256-0.262l1.83-3.268l-1.49-0.838l-1.941,3.438
					l-1.609,0.211l1.15-2.742l-2.816,0.408l0.566-1.377l3.842-0.969l-0.426-1.664l-3.631,0.906l-1.896-3.207l-1.473,0.873
					l2.01,3.403l-0.623,1.482l-1.846-2.437l-1.064,2.658l-0.867-1.133l1.076-3.801l-1.648-0.465l-1.043,3.596l-3.721,0.041
					l0.018,1.715l3.959-0.039l0.918,1.207l-3.008,0.379l1.84,2.346l-1.428,0.187l-2.752-2.832L118.224,209.156z M126.199,211.094
					l-1.189-1.518l1.908-0.238l0.721-1.795l1.172,1.535l1.902-0.273l-0.748,1.779l1.195,1.512l-1.908,0.244l-0.719,1.795
					l-1.168-1.541l-1.914,0.279L126.199,211.094z"/>
				<path fill="#ADD3F0" d="M104.998,241.027l2.578,2.703l-1.812,3.233l1.494,0.838l1.943-3.442l1.404-0.183l-1.127,2.689
					l3.02-0.431l-0.602,1.439l-3.834,0.973l0.42,1.666l3.607-0.924l1.926,3.223l1.473-0.871l-2.01-3.403l0.57-1.365l1.723,2.277
					l1.105-2.771l1.02,1.324l-1.061,3.744l1.654,0.465l0.996-3.574l3.762-0.062l-0.018-1.711l-4.021,0.041l-0.957-1.246l2.9-0.375
					l-1.812-2.306l1.574-0.203l2.764,2.836l1.225-1.188l-2.346-2.424l-0.254-0.254l1.834-3.271l-1.494-0.844l-1.943,3.439
					l-1.609,0.209l1.15-2.73l-2.814,0.396l0.566-1.377l3.84-0.963l-0.424-1.664l-3.625,0.899l-1.904-3.2l-1.473,0.873l2.012,3.403
					l-0.623,1.479l-1.848-2.437l-1.064,2.668l-0.867-1.133l1.07-3.802l-1.643-0.477l-1.041,3.604l-3.721,0.038l0.016,1.712
					l3.959-0.035l0.924,1.213l-3.014,0.373l1.842,2.353l-1.428,0.182l-2.752-2.832L104.998,241.027z M112.757,243.006l-1.324-1.689
					l2.123-0.266l0.799-1.988l1.297,1.699l2.119-0.301l-0.828,1.979l1.326,1.683l-2.125,0.271l-0.797,1.988l-1.299-1.705
					l-2.117,0.307L112.757,243.006z"/>
			</g>
			<g>
				<path fill="#ADD3F0" d="M171.596,209.201l2.584,2.703l-1.812,3.238l1.493,0.84l1.943-3.449l1.404-0.182l-1.133,2.688
					l3.025-0.431l-0.601,1.443l-3.836,0.969l0.42,1.666l3.606-0.924l1.927,3.223l1.473-0.864l-2.01-3.41l0.565-1.358l1.722,2.276
					l1.11-2.771l1.021,1.326l-1.062,3.744l1.648,0.465l0.998-3.574l3.76-0.062l-0.012-1.717l-4.021,0.041l-0.963-1.246l2.906-0.375
					l-1.818-2.305l1.58-0.199l2.767,2.832l1.223-1.195l-2.346-2.412l-0.261-0.26l1.836-3.27l-1.489-0.838l-1.942,3.438l-1.607,0.217
					l1.143-2.742l-2.814,0.402l0.572-1.377l3.84-0.969l-0.424-1.664l-3.631,0.906l-1.898-3.207l-1.479,0.873l2.012,3.404
					l-0.617,1.483l-1.854-2.437l-1.064,2.656l-0.86-1.127l1.071-3.801l-1.643-0.471l-1.043,3.6l-3.721,0.045l0.016,1.711
					l3.959-0.041l0.918,1.207l-3.008,0.379l1.842,2.357l-1.428,0.18l-2.752-2.836L171.596,209.201z M179.578,211.139l-1.195-1.518
					l1.914-0.238l0.719-1.795l1.168,1.535l1.908-0.271l-0.748,1.777l1.195,1.518l-1.914,0.244l-0.721,1.789l-1.166-1.533
					l-1.908,0.271L179.578,211.139z"/>
				<path fill="#ADD3F0" d="M158.389,241.045l2.576,2.697l-1.807,3.238l1.496,0.84l1.941-3.445l1.399-0.18l-1.127,2.688l3.019-0.43
					l-0.595,1.442l-3.836,0.97l0.42,1.666l3.606-0.931l1.927,3.229l1.473-0.867l-2.01-3.407l0.565-1.365l1.722,2.281l1.11-2.775
					l1.015,1.326l-1.06,3.744l1.652,0.465l0.998-3.574l3.76-0.062l-0.016-1.711l-4.021,0.033l-0.957-1.246l2.898-0.373l-1.812-2.305
					l1.576-0.199l2.77,2.838l1.224-1.195l-2.344-2.418l-0.263-0.26l1.836-3.264l-1.496-0.844l-1.938,3.438l-1.607,0.217l1.146-2.736
					l-2.815,0.396l0.572-1.371l3.834-0.969l-0.418-1.664l-3.632,0.9l-1.897-3.207l-1.478,0.873l2.011,3.41l-0.617,1.479
					l-1.853-2.436l-1.065,2.662l-0.865-1.133l1.076-3.802l-1.648-0.471l-1.037,3.596l-3.727,0.054l0.022,1.702l3.959-0.032
					l0.916,1.207l-3.012,0.379l1.846,2.352l-1.434,0.18l-2.752-2.832L158.389,241.045z M166.363,242.982l-1.189-1.519l1.914-0.243
					l0.713-1.789l1.174,1.534l1.902-0.272l-0.742,1.779l1.195,1.518l-1.914,0.238l-0.719,1.795l-1.168-1.535l-1.908,0.268
					L166.363,242.982z"/>
			</g>
			<g>
				<g>
					<path fill="#FFFFFF" d="M193.879,117.988c0.215,0.107,0.436,0.209,0.646,0.322c0.006-0.039,0.01-0.08,0.016-0.119
						C194.32,118.123,194.105,118.057,193.879,117.988z"/>
				</g>
				<g>
					<path fill="#FFFFFF" d="M176.854,114.328c4.922,0,9.656,0.816,14.074,2.301c-4.021-1.621-8.416-2.521-13.021-2.521
						c-1.943,0-3.847,0.17-5.697,0.471C173.732,114.414,175.283,114.328,176.854,114.328z"/>
				</g>
				<path fill="#FFFFFF" d="M278.426,166.359c-1.777-6.398-6.01-12.119-11.6-15.689c-4.883-3.172-11-4.725-16.861-4.248
					c-0.215-3.172-1.291-6.338-3.064-8.994c-1.03-1.563-2.321-2.986-3.84-4.227c2.107-5.154,2.678-11.01,1.607-16.551
					c-1.279-6.83-5.164-13.269-10.664-17.677c-5.205-4.225-12.025-6.648-18.721-6.648c-0.277,0-0.561,0.006-0.832,0.018
					c-5.557,0.117-11.096,1.889-15.678,5.01c-1.644-2.131-3.553-3.951-5.676-5.434c-1.101-0.771-2.302-1.475-3.671-2.143
					c-0.104-0.051-0.204-0.094-0.312-0.137l-0.182-0.072c-0.453-0.205-0.912-0.402-1.375-0.584
					c-0.188-0.068-0.369-0.137-0.552-0.199c-3.166-1.139-6.45-1.688-9.668-1.525c-0.151-0.609-0.301-1.283-0.452-2.068
					c-0.197-1.004-0.402-2.051-0.697-3.09c-0.629-2.338-1.488-4.645-2.56-6.854c-2.215-4.604-5.409-8.861-9.244-12.312
					c-4.051-3.662-8.934-6.514-14.12-8.248c-5.408-1.818-11.244-2.463-17-1.875c-8.971,0.885-17.779,5.033-24.168,11.381
					c-5.732,5.615-9.691,12.967-11.193,20.77c-0.99-0.195-1.965-0.295-2.949-0.295c-3.869,0-7.682,1.285-10.729,3.631
					c-2.232,1.67-4.072,3.891-5.325,6.426c-0.822,1.662-1.371,3.51-1.604,5.389c-5.947-1.529-12.307-1.463-18.197,0.154
					c-6.684,1.82-12.887,5.73-17.469,11.009c-3.643,4.186-6.287,9.205-7.646,14.523c-1.309,5.086-1.467,10.507-0.465,15.666
					c0.93,4.832,2.934,9.521,5.807,13.574c2.141,3.015,4.83,5.744,7.826,7.949c-3.33,1.502-6.184,3.993-8.088,7.098
					c-2.508,3.992-3.369,8.949-2.361,13.595c0.113,0.51,0.232,0.969,0.363,1.397l0.039,0.153c0.051,0.17,0.107,0.334,0.244,0.726
					l0.236,0.687c0.035,0.078,0.137,0.315,0.443,0.479l0.164,0.097h29.838h26.684h126.116h2.346h52.801l0.984-2.027l0.385-0.896
					c0.228-0.543,0.482-1.188,0.697-1.856C279.775,177.312,279.904,171.598,278.426,166.359z"/>
				<g>
					<path fill="#ADD3F0" d="M242.891,122.809c-0.057-0.092-0.125-0.176-0.205-0.256c0.058-0.48,0.086-0.969,0.104-1.449
						c-0.028-0.271-0.08-0.545-0.113-0.816c-0.057-0.385-0.104-0.77-0.17-1.15c-0.112-0.656-0.256-1.303-0.414-1.941
						c-1.522-6.162-5.104-11.756-10.081-15.751c-4.939-4.004-11.171-6.299-17.548-6.471c-0.323-0.01-0.646-0.016-0.969-0.016
						c-5.009,0-10.127,1.359-14.567,3.826c1.618,2.309,2.858,4.869,3.602,7.542c1.338,4.707,1.213,9.764-0.312,14.33
						c2.646,1.586,5.125,3.506,7.308,5.691c2.854,2.867,5.262,6.225,7.029,9.811c2.045-2.537,4.829-4.515,7.963-5.619
						c1.938-0.686,4.078-1.047,6.196-1.047c2.039,0,4.037,0.316,5.941,0.963c1.801,0.594,3.518,1.512,5.067,2.646
						c0.232-0.781,0.426-1.568,0.59-2.361c0.027-0.143,0.052-0.283,0.08-0.42C242.861,127.85,243.025,125.316,242.891,122.809z
						 M234.734,125.238c-14.24-0.471-25.715-11.76-26.48-25.925c2.316-0.916,4.838-1.438,7.477-1.438
						c11.209,0,20.295,9.08,20.295,20.289C236.025,120.65,235.555,123.029,234.734,125.238z"/>
					<path fill="#ADD3F0" d="M35.97,139.562c-0.012-0.125-0.023-0.25-0.033-0.375c-0.006-0.011-0.006-0.017-0.006-0.027
						C35.94,139.297,35.952,139.426,35.97,139.562z"/>
					<path fill="#ADD3F0" d="M194.836,114.703c0,0.865-0.074,1.705-0.182,2.543h0.006c1.15,0.367,2.283,0.775,3.377,1.252
						c1.268,0.549,2.508,1.195,3.727,1.896c0.812-4.502,0.447-9.26-1.055-13.492c-1.75-4.966-5.102-9.365-9.43-12.386
						c-0.447-0.311-0.906-0.604-1.371-0.883c-0.623-0.352-1.246-0.705-1.881-1.014c-0.752-0.369-1.523-0.701-2.305-1.014
						c-2.855-1.082-5.908-1.666-8.974-1.666l-0.351,0.006c-4.748,0.033-9.619,1.48-13.719,4.066
						c0.424-0.271,0.871-0.498,1.309-0.736c2.486-0.924,5.166-1.455,7.964-1.455C184.596,91.821,194.836,102.061,194.836,114.703z"
						/>
					<path fill="#ADD3F0" d="M173.098,88.506c0.113-0.016,0.215-0.039,0.322-0.062c0.951-0.186,1.91-0.328,2.877-0.402
						c-0.299-0.877-0.561-1.766-0.797-2.65c-0.25-0.938-0.506-1.914-0.84-2.844c-0.742-2.205-1.688-4.355-2.809-6.404
						c-2.316-4.232-5.5-8.117-9.205-11.232c-3.892-3.273-8.5-5.814-13.326-7.342c-3.779-1.199-7.732-1.807-11.743-1.807
						c-1.326,0-2.674,0.068-3.988,0.205c-8.371,0.826-16.369,4.469-22.525,10.258c-5.727,5.318-9.82,12.436-11.531,20.039
						c-0.029,0.135-0.098,0.248-0.193,0.328c-0.588,2.674-0.912,5.438-0.957,8.207c0,0.111-0.09,0.199-0.197,0.205
						c-0.113,0-0.199-0.084-0.205-0.193c-0.158-2.818-0.012-5.646,0.432-8.416c-4.459,0.229-8.791,1.783-12.275,4.428
						c-3.432,2.584-6.1,6.273-7.606,10.434c0.027,0.02,0.061,0.023,0.084,0.045c0.709,0.646,2.639,0.918,3.557,1.32
						c1.246,0.539,2.465,1.156,3.631,1.842c2.408,1.41,4.662,3.105,6.633,5.08c1.559-0.709,2.85-2.248,4.463-3.064
						c4.01-2.011,8.021-3.416,12.672-3.396c0.033-0.02,0.072-0.041,0.107-0.066c-0.217-0.678-0.561-2.492-0.578-2.574
						c-0.131-0.66-0.25-1.332-0.34-2c-0.182-1.365-0.271-2.742-0.271-4.123c0-17.174,13.928-31.102,31.102-31.102
						c15.458,0,28.252,11.293,30.659,26.076C171.184,88.971,172.129,88.711,173.098,88.506z"/>
					<path fill="#ADD3F0" d="M146.301,150.062c-1.1,0-2.186,0.057-3.262,0.153c-0.018-0.401-0.035-0.805-0.035-1.213
						c0-4.254,0.777-8.319,2.17-12.092c2.934-8.553,8.666-15.174,15.904-19.27c-0.221,0.078-0.43,0.191-0.65,0.277l0.486-0.215
						c0,0-6.701,1.189-14.426,7.375c-1.23,0.984-2.48,2.096-3.744,3.346c-0.057,0.062-0.113,0.119-0.17,0.176
						c-0.617,0.617-1.234,1.264-1.852,1.955c-0.007,0.006-0.007,0.012-0.013,0.019c-0.584,0.655-1.168,1.348-1.74,2.071
						c-0.09,0.107-0.18,0.215-0.266,0.328c-0.566,0.719-1.127,1.474-1.688,2.26c-0.09,0.138-0.182,0.271-0.277,0.408
						c-0.504,0.726-1.002,1.484-1.49,2.271c-0.078,0.119-0.152,0.238-0.227,0.357c-0.527,0.854-1.037,1.75-1.547,2.684
						c-0.113,0.205-0.221,0.42-0.334,0.629c-0.516,0.969-1.014,1.961-1.5,3.002c-0.215,0.107-0.432,0.227-0.652,0.322
						c-2.803,1.246-5.861,1.893-8.932,1.893c-0.674,0-1.348-0.045-2.021-0.107c0,0,0,0-0.006,0c-4.662-0.42-8.91-2.289-12.291-5.147
						c-0.029-0.022-0.062-0.039-0.096-0.062c-5.365-4.379-8.785-11.033-8.785-18.494c0-7.816,3.777-14.736,9.582-19.087
						c0.453-0.117,0.816-0.254,0.936-0.393c-0.039,0.012-0.08,0.02-0.119,0.031c-2.34,0.504-4.611,1.258-6.764,2.242
						c-0.004,0-0.01,0.006-0.016,0.012c-0.721,0.328-1.428,0.686-2.119,1.064c-0.062,0.029-0.125,0.074-0.188,0.113
						c-0.627,0.35-1.25,0.717-1.857,1.105c-0.152,0.102-0.295,0.221-0.453,0.322c-0.498,0.34-1.002,0.68-1.479,1.043
						c-0.277,0.215-0.525,0.441-0.793,0.662c-0.346,0.277-0.695,0.549-1.025,0.844c-0.582,0.527-1.148,1.07-1.688,1.643
						c-4.383,4.555-7.369,10.609-8.41,17.055c-0.012,0.096-0.102,0.17-0.199,0.17c-0.113-0.006-0.191-0.086-0.203-0.193
						c-0.182-3.148,0.289-6.428,1.365-9.486c1.205-3.428,3.166-6.621,5.68-9.238c0.346-0.357,0.727-0.686,1.094-1.031
						c-3.023-2.557-6.49-4.6-10.178-6.003c-1.229-0.467-2.48-0.861-3.75-1.189c-0.131,0.031-0.266,0.025-0.396-0.006
						c-0.436-0.006-0.939-0.182-1.398-0.299c-0.006,0-0.012-0.006-0.018-0.006c-0.736-0.148-1.484-0.275-2.232-0.375
						c0,0-0.004,0-0.01,0c-0.443-0.045-0.867-0.045-1.303-0.051c-0.205-0.006-0.387-0.068-0.561-0.141
						c-0.885-0.068-1.762-0.113-2.652-0.113c-3.342,0-6.637,0.475-9.799,1.422c-6.066,1.795-11.707,5.441-15.881,10.246
						c-3.326,3.822-5.777,8.393-7.104,13.219c-0.316,1.15-0.572,2.322-0.764,3.512c-0.104,0.602-0.143,1.219-0.205,1.836
						c-0.062,0.572-0.152,1.15-0.191,1.732c-0.047,0.815-0.023,1.631-0.012,2.447c0.006,0.379-0.023,0.766-0.006,1.149
						c0.027,0.649,0.125,1.291,0.193,1.94c0.045,0.25,0.096,0.5,0.152,0.748c-0.012,0.256,0,0.517,0,0.771
						c0.018,0.096,0.018,0.191,0.027,0.293c0.697,4.504,2.379,8.973,4.861,12.912c2.146,3.41,4.967,6.469,8.15,8.957
						c3.211-1.324,6.859-1.752,10.273-1.229c0.051-0.863,0.148-1.73,0.318-2.586c0.617-3.064,2.084-6.023,4.129-8.334
						c1.84-2.107,4.156-3.738,6.684-4.714c0.096-0.032,0.203,0.007,0.248,0.097c0.047,0.086,0.023,0.205-0.062,0.268
						c-4.434,3.182-7.572,7.982-8.604,13.166c-1.064,5.219-0.057,10.865,2.781,15.482c0.057,0.09,0.041,0.203-0.045,0.266
						c-0.033,0.035-0.08,0.045-0.125,0.045c-0.051,0-0.102-0.016-0.141-0.057c-1.955-1.885-3.449-4.287-4.328-6.933
						c-0.65-1.987-0.918-4.077-0.855-6.161c-0.021,0-0.039,0.004-0.062,0.004l0.062-0.072c0,0-0.787-0.012-2.033,0.09
						c-1.041,0.062-2.066,0.215-3.076,0.432c-5.912,1.137-14.844,4.762-14.811,16.25c-0.068,1.387,0.033,2.781,0.328,4.135
						c0.035,0.176,0.086,0.402,0.158,0.662c0.068,0.271,0.164,0.521,0.262,0.754l52.692,1.896c-0.254-1.268-0.418-2.561-0.418-3.896
						c0-11.045,8.955-20.006,20.006-20.006c6.943,0,13.055,3.541,16.646,8.91c4.162-10.527,14.409-17.99,26.417-17.99
						c1.689,0,3.332,0.17,4.935,0.451c0.369-0.131,0.748-0.229,1.121-0.348C156.967,151.287,151.777,150.062,146.301,150.062z
						 M156.463,119.688l0.758-0.34c-0.396,0.191-0.77,0.412-1.16,0.617L156.463,119.688z M59.634,145.691
						c-7.629-2.861-13.072-10.207-13.072-18.84c0-11.117,9.012-20.135,20.135-20.135c6.293,0,11.912,2.895,15.606,7.414
						c-5.444,6.082-9.143,13.74-10.446,22.181C67.054,138.4,62.868,141.646,59.634,145.691z M74.134,146.438
						c-0.057-0.01-0.119-0.016-0.182-0.033c0.119-0.084,0.25-0.157,0.363-0.243C74.259,146.252,74.19,146.348,74.134,146.438z
						 M75.573,167.674c-3.795-6.705-3.229-14.818,3.33-21.201c2.135-2.078,4.741-2.889,7.325-2.656
						c2.191,3.795,5.277,6.922,8.92,9.521C86.46,154.496,79.175,160.035,75.573,167.674z"/>
					<path fill="#ADD3F0" d="M210.23,161.891c7.676,2.601,14.207,7.668,18.629,14.283c-0.23-1.24-0.355-2.52-0.355-3.828
						c0-11.496,9.322-20.82,20.826-20.82c11.492,0,20.82,9.324,20.82,20.82c0,4.689-1.568,8.994-4.191,12.479
						c0.902-0.035,1.797-0.068,2.697-0.099c0.561-0.016,1.121-0.039,1.682-0.057l0.662-0.021c0.318-0.018,0.703-0.062,1.072-0.035
						l1.926-0.071l0.582-1.371c0.164-0.426,0.346-0.937,0.51-1.455c0-0.012,0-0.019,0-0.022c0.062-0.392,0.215-0.787,0.346-1.185
						c0.045-0.176,0.103-0.352,0.144-0.521c0.078-0.328,0.146-0.662,0.215-0.984c0.051-0.268,0.106-0.533,0.151-0.805
						c0.062-0.34,0.103-0.686,0.144-1.02c0.033-0.277,0.072-0.546,0.103-0.816c0.033-0.353,0.045-0.701,0.062-1.047
						c0.013-0.269,0.039-0.527,0.039-0.787c0.006-0.369,0-0.736-0.013-1.1c-0.006-0.25,0-0.505-0.016-0.755
						c-0.018-0.366-0.057-0.735-0.098-1.104c-0.021-0.243-0.033-0.493-0.062-0.735c-0.051-0.396-0.123-0.787-0.186-1.174
						c-0.041-0.222-0.068-0.437-0.113-0.649c-0.119-0.601-0.262-1.207-0.432-1.796c-1.574-5.653-5.279-10.782-10.178-14.069
						c-0.668-0.453-1.359-0.861-2.062-1.246c-0.18-0.096-0.361-0.176-0.537-0.271c-0.539-0.277-1.088-0.545-1.648-0.775
						c-0.176-0.08-0.356-0.153-0.538-0.227c-0.707-0.279-1.427-0.545-2.156-0.76c-1.149-0.34-2.321-0.605-3.508-0.781
						c-2.418-0.363-4.897-0.555-7.328-0.262c-1.14,0.137-2.267,0.357-3.377,0.641c-1.127,0.289-2.229,0.652-3.312,1.088
						c-2.158,0.871-4.215,2.016-6.066,3.43c-0.084,0.068-0.203,0.052-0.277-0.028c-0.068-0.084-0.062-0.209,0.023-0.283
						c3.912-3.496,8.988-5.758,14.312-6.385c-0.674-3.082-2.026-5.947-3.965-8.326c-2.295-2.844-5.442-5.041-8.875-6.19
						c-1.942-0.652-3.987-0.98-6.078-0.98c-1.604,0-3.194,0.199-4.729,0.578c-3.018,0.76-5.855,2.254-8.252,4.338
						c0.176,0.387,0.363,0.766,0.527,1.156c1.643,3.789,2.633,7.947,2.864,12.02c0.006,0.107-0.067,0.197-0.176,0.209
						c-0.007,0-0.007-0.006-0.007-0.006c-0.01,0-0.01,0.012-0.016,0.012c-0.098,0-0.182-0.068-0.199-0.164
						c-1.862-8.225-6.135-15.983-12.02-21.852c-0.674-0.686-1.381-1.338-2.105-1.973c-0.396-0.35-0.805-0.674-1.219-1.008
						c-0.307-0.254-0.617-0.51-0.934-0.758c-0.572-0.438-1.156-0.861-1.752-1.27c-0.135-0.096-0.271-0.193-0.412-0.289
						c-0.709-0.48-1.428-0.945-2.164-1.387l0,0c8.258,6.377,13.594,16.363,13.594,27.611c0,4.566-0.883,8.924-2.475,12.914
						C210.293,161.906,210.26,161.9,210.23,161.891z M228.945,133.484c7.221,0,13.09,5.789,13.229,12.981
						c-0.995,0.216-2.021,0.328-3.073,0.328c-7.394,0-13.498-5.438-14.593-12.528C225.904,133.773,227.387,133.484,228.945,133.484z
						"/>
				</g>
				<path fill="#231F20" d="M278.426,166.359c-1.777-6.398-6.01-12.119-11.6-15.689c-4.883-3.172-11-4.725-16.861-4.248
					c-0.215-3.172-1.291-6.338-3.064-8.994c-1.03-1.563-2.321-2.986-3.84-4.227c2.107-5.154,2.678-11.01,1.607-16.551
					c-1.279-6.83-5.164-13.269-10.664-17.677c-5.205-4.225-12.025-6.648-18.721-6.648c-0.277,0-0.561,0.006-0.832,0.018
					c-5.557,0.117-11.096,1.889-15.678,5.01c-1.644-2.131-3.553-3.951-5.676-5.434c-1.101-0.771-2.302-1.475-3.671-2.143
					c-0.104-0.051-0.204-0.094-0.312-0.137l-0.182-0.072c-0.453-0.205-0.912-0.402-1.375-0.584
					c-0.188-0.068-0.369-0.137-0.552-0.199c-3.166-1.139-6.45-1.688-9.668-1.525c-0.151-0.609-0.301-1.283-0.452-2.068
					c-0.197-1.004-0.402-2.051-0.697-3.09c-0.629-2.338-1.488-4.645-2.56-6.854c-2.215-4.604-5.409-8.861-9.244-12.312
					c-4.051-3.662-8.934-6.514-14.12-8.248c-5.408-1.818-11.244-2.463-17-1.875c-8.971,0.885-17.779,5.033-24.168,11.381
					c-5.732,5.615-9.691,12.967-11.193,20.77c-0.99-0.195-1.965-0.295-2.949-0.295c-3.869,0-7.682,1.285-10.729,3.631
					c-2.232,1.67-4.072,3.891-5.325,6.426c-0.822,1.662-1.371,3.51-1.604,5.389c-5.947-1.529-12.307-1.463-18.197,0.154
					c-6.684,1.82-12.887,5.73-17.469,11.009c-3.643,4.186-6.287,9.205-7.646,14.523c-1.309,5.086-1.467,10.507-0.465,15.666
					c0.93,4.832,2.934,9.521,5.807,13.574c2.141,3.015,4.83,5.744,7.826,7.949c-3.33,1.502-6.184,3.993-8.088,7.098
					c-2.508,3.992-3.369,8.949-2.361,13.595c0.113,0.51,0.232,0.969,0.363,1.397l0.039,0.153c0.051,0.17,0.107,0.334,0.244,0.726
					l0.236,0.687c0.035,0.078,0.137,0.315,0.443,0.479l0.164,0.097h56.522l-0.268-0.73h-0.77c-0.027-0.072-0.084-0.135-0.17-0.135
					l-53.282-1.92c-0.098-0.232-0.193-0.482-0.262-0.754c-0.072-0.261-0.123-0.486-0.158-0.662
					c-0.295-1.354-0.396-2.748-0.328-4.136c-0.033-11.487,8.898-15.112,14.811-16.25c1.01-0.217,2.035-0.368,3.076-0.432
					c1.246-0.103,2.033-0.091,2.033-0.091s-0.062,0.072,0,0.068c-0.062,2.084,0.205,4.174,0.855,6.162
					c0.879,2.645,2.373,5.047,4.328,6.932c0.039,0.041,0.09,0.058,0.141,0.058c0.045,0,0.092-0.01,0.125-0.045
					c0.086-0.062,0.102-0.177,0.045-0.267c-2.838-4.617-3.846-10.264-2.781-15.481c1.031-5.185,4.17-9.983,8.604-13.166
					c0.086-0.062,0.109-0.183,0.062-0.269c-0.045-0.09-0.152-0.129-0.248-0.096c-2.527,0.975-4.844,2.605-6.684,4.713
					c-2.045,2.312-3.512,5.271-4.129,8.334c-0.17,0.855-0.268,1.723-0.318,2.586c-3.414-0.522-7.062-0.096-10.273,1.229
					c-3.184-2.488-6.004-5.547-8.15-8.957c-2.482-3.938-4.164-8.408-4.861-12.912c-0.758-4.797-0.475-9.787,0.805-14.432
					c1.326-4.826,3.777-9.396,7.104-13.219c4.174-4.805,9.814-8.451,15.881-10.246c3.162-0.947,6.457-1.422,9.799-1.422
					c2.77,0,5.518,0.328,8.174,0.984c0.131,0.031,0.266,0.037,0.396,0.006c5.081,1.291,9.895,3.777,13.928,7.193
					c-0.367,0.346-0.748,0.674-1.094,1.031c-2.514,2.617-4.475,5.811-5.68,9.238c-1.076,3.059-1.547,6.338-1.365,9.486
					c0.012,0.107,0.09,0.188,0.203,0.193c0.098,0,0.188-0.074,0.199-0.17c1.041-6.445,4.027-12.5,8.41-17.055
					c4.334-4.564,10.258-7.804,16.682-9.125c0.102-0.02,0.164-0.113,0.158-0.215c-0.006-0.105-0.09-0.182-0.199-0.182
					c-3.131-0.059-6.422,0.561-9.418,1.76c-2.781,1.101-5.369,2.75-7.625,4.742c-3.852-3.805-8.643-6.666-13.86-8.269
					c-0.023-0.021-0.057-0.025-0.084-0.045c1.506-4.16,4.174-7.85,7.606-10.434c3.484-2.645,7.816-4.199,12.275-4.428
					c-0.443,2.77-0.59,5.598-0.432,8.416c0.006,0.109,0.092,0.193,0.205,0.193c0.107-0.006,0.197-0.094,0.197-0.205
					c0.045-2.77,0.369-5.533,0.957-8.207c0.096-0.08,0.164-0.193,0.193-0.328c1.711-7.604,5.805-14.721,11.531-20.039
					c6.156-5.789,14.154-9.432,22.525-10.258c1.314-0.137,2.662-0.205,3.988-0.205c4.01,0,7.963,0.607,11.743,1.807
					c4.826,1.527,9.436,4.068,13.326,7.342c3.705,3.115,6.889,7,9.205,11.232c1.12,2.049,2.065,4.199,2.809,6.404
					c0.334,0.93,0.59,1.906,0.84,2.844c0.236,0.885,0.498,1.773,0.797,2.65c-5.098,0.375-10.02,2.379-13.854,5.648
					c-0.084,0.068-0.097,0.186-0.033,0.271c0.062,0.088,0.18,0.107,0.271,0.051c4.101-2.586,8.972-4.033,13.72-4.066l0.35-0.006
					c3.064,0,6.117,0.584,8.973,1.666c0.781,0.312,1.553,0.645,2.305,1.014c0.636,0.309,1.259,0.662,1.881,1.014
					c0.466,0.279,0.925,0.572,1.371,0.883c4.328,3.021,7.681,7.42,9.431,12.386c1.502,4.232,1.864,8.99,1.055,13.492
					c-1.219-0.701-2.459-1.348-3.727-1.896c-3.789-1.648-7.941-2.65-12.015-2.895c-0.102,0-0.199,0.068-0.211,0.176
					c-0.016,0.102,0.053,0.197,0.154,0.227c8.219,1.881,15.973,6.168,21.828,12.07c5.885,5.866,10.156,13.627,12.02,21.852
					c0.019,0.097,0.103,0.164,0.222,0.158c0.106-0.012,0.182-0.103,0.176-0.209c-0.231-4.071-1.224-8.229-2.865-12.021
					c-0.163-0.391-0.352-0.77-0.526-1.155c2.396-2.084,5.233-3.578,8.252-4.339c1.535-0.379,3.127-0.577,4.729-0.577
					c2.091,0,4.136,0.327,6.078,0.979c3.433,1.15,6.58,3.348,8.875,6.191c1.938,2.379,3.291,5.244,3.965,8.326
					c-5.323,0.627-10.399,2.889-14.312,6.385c-0.086,0.074-0.092,0.199-0.023,0.283c0.074,0.08,0.193,0.098,0.277,0.029
					c3.688-2.808,8.156-4.599,12.756-5.158c2.43-0.293,4.91-0.103,7.328,0.262c2.334,0.346,4.623,1.025,6.77,1.998
					c1.279,0.584,2.516,1.27,3.682,2.062c4.898,3.286,8.604,8.416,10.179,14.069c1.31,4.64,1.233,9.713-0.209,14.283
					c-0.183,0.596-0.396,1.187-0.584,1.672l-0.582,1.371l-51.963,1.808c-0.087,0.006-0.144,0.067-0.171,0.141h-0.774l-0.256,0.729
					h55.146l0.984-2.026l0.385-0.896c0.228-0.543,0.482-1.188,0.697-1.856C279.775,177.312,279.904,171.598,278.426,166.359z
					 M236.654,130.455c-1.904-0.646-3.902-0.963-5.941-0.963c-2.119,0-4.26,0.361-6.197,1.047c-3.133,1.105-5.918,3.082-7.963,5.619
					c-1.768-3.586-4.176-6.943-7.029-9.811c-2.182-2.186-4.662-4.105-7.307-5.691c1.523-4.566,1.648-9.623,0.311-14.33
					c-0.741-2.673-1.981-5.234-3.602-7.542c4.441-2.467,9.561-3.826,14.568-3.826c0.322,0,0.645,0.006,0.969,0.016
					c6.377,0.172,12.607,2.467,17.547,6.471c4.979,3.996,8.559,9.589,10.082,15.751c1.297,5.176,1.154,10.773-0.369,15.904
					C240.172,131.967,238.455,131.049,236.654,130.455z"/>
			</g>
		</g>
	</g>
</g>
</svg>
