<?xml version="1.0" encoding="utf-8"?>
<!-- Generator: Adobe Illustrator 15.0.2, SVG Export Plug-In . SVG Version: 6.00 Build 0)  -->
<!DOCTYPE svg PUBLIC "-//W3C//DTD SVG 1.1//EN" "http://www.w3.org/Graphics/SVG/1.1/DTD/svg11.dtd">
<svg version="1.1" id="Layer_1" xmlns="http://www.w3.org/2000/svg" xmlns:xlink="http://www.w3.org/1999/xlink" x="0px" y="0px"
	 width="280px" height="260px" viewBox="0 0 280 260" enable-background="new 0 0 280 260" xml:space="preserve">
<g>
	<g>
		<g>
			<g>
				<g>
					<g>
						<path fill="#3479BE" d="M34.622,146.783c34.461,1.498,74.738,2.365,117.778,2.365c43.047,0,83.322-0.867,117.776-2.365
							c-34.454-1.498-74.729-2.355-117.776-2.355C109.36,144.428,69.083,145.285,34.622,146.783z"/>
					</g>
				</g>
				<g>
					<g>
						<path fill="#3479BE" d="M32.142,139.822c35.412,1.494,76.793,2.359,121.022,2.359c44.23,0,85.617-0.865,121.023-2.359
							c-35.406-1.504-76.793-2.361-121.023-2.361C108.935,137.461,67.554,138.318,32.142,139.822z"/>
					</g>
				</g>
				<g>
					<g>
						<path fill="#3479BE" d="M35.981,132.855c35.328,1.498,76.625,2.358,120.751,2.358c44.135,0,85.432-0.86,120.758-2.358
							c-35.326-1.504-76.623-2.368-120.758-2.368C112.606,130.488,71.31,131.352,35.981,132.855z"/>
					</g>
				</g>
				<g>
					<g>
						<path fill="#3479BE" d="M20.524,125.891c37.797,1.496,81.971,2.359,129.179,2.359c47.211,0,91.385-0.863,129.18-2.359
							c-37.795-1.5-81.969-2.361-129.18-2.361C102.495,123.529,58.321,124.391,20.524,125.891z"/>
					</g>
				</g>
				<g>
					<g>
						<path fill="#3479BE" d="M10.534,118.918c39.109,1.508,84.818,2.369,133.667,2.369c48.855,0,94.564-0.861,133.668-2.369
							c-39.104-1.498-84.812-2.355-133.668-2.355C95.353,116.562,49.644,117.42,10.534,118.918z"/>
					</g>
				</g>
				<g>
					<g>
						<path fill="#3479BE" d="M10.302,111.961c37.961,1.492,82.344,2.359,129.764,2.359c47.423,0,91.795-0.867,129.754-2.359
							c-37.959-1.498-82.331-2.365-129.754-2.365C92.646,109.596,48.263,110.463,10.302,111.961z"/>
					</g>
				</g>
				<g>
					<g>
						<path fill="#3479BE" d="M4.903,104.995c39.281,1.5,85.205,2.361,134.277,2.361c49.077,0,95.003-0.861,134.282-2.361
							c-39.278-1.498-85.205-2.359-134.282-2.359C90.108,102.635,44.185,103.497,4.903,104.995z"/>
					</g>
				</g>
				<g>
					<g>
						<path fill="#3479BE" d="M2.173,98.028c38.232,1.498,82.916,2.359,130.664,2.359c47.765,0,92.437-0.861,130.675-2.359
							c-38.238-1.498-82.91-2.365-130.675-2.365C85.089,95.663,40.405,96.53,2.173,98.028z"/>
					</g>
				</g>
				<g>
					<g>
						<path fill="#3479BE" d="M26.403,91.061c35.48,1.504,76.941,2.367,121.255,2.367c44.322,0,85.783-0.863,121.262-2.367
							c-35.479-1.498-76.939-2.354-121.262-2.354C103.345,88.708,61.884,89.563,26.403,91.061z"/>
					</g>
				</g>
				<g>
					<g>
						<path fill="#3479BE" d="M27.038,84.102c34.189,1.496,74.154,2.357,116.868,2.357c42.709,0,82.676-0.861,116.863-2.357
							c-34.188-1.506-74.154-2.365-116.863-2.365C101.192,81.737,61.228,82.596,27.038,84.102z"/>
					</g>
				</g>
				<g>
					<g>
						<path fill="#3479BE" d="M7.22,77.133c35.389,1.498,76.771,2.359,120.984,2.359c44.224,0,85.595-0.861,120.999-2.359
							c-35.404-1.498-76.775-2.359-120.999-2.359C83.991,74.774,42.608,75.635,7.22,77.133z"/>
					</g>
				</g>
				<g>
					<g>
						<path fill="#3479BE" d="M26.173,70.172c30.234,1.494,65.561,2.355,103.316,2.355c37.755,0,73.095-0.861,103.324-2.355
							c-30.229-1.502-65.568-2.365-103.324-2.365C91.733,67.807,56.407,68.67,26.173,70.172z"/>
					</g>
				</g>
				<g>
					<g>
						<path fill="#3479BE" d="M29.485,63.2c28.717,1.504,62.281,2.367,98.152,2.367c35.875,0,69.44-0.863,98.157-2.367
							c-28.717-1.502-62.282-2.359-98.157-2.359C91.767,60.84,58.202,61.698,29.485,63.2z"/>
					</g>
				</g>
				<g>
					<g>
						<path fill="#3479BE" d="M26.722,56.239C53.23,57.731,84.206,58.6,117.318,58.6c33.116,0,64.099-0.869,90.612-2.361
							c-26.514-1.5-57.496-2.359-90.612-2.359C84.206,53.879,53.229,54.739,26.722,56.239z"/>
					</g>
				</g>
				<g>
					<g>
						<path fill="#3479BE" d="M24.653,49.274c24.877,1.498,53.957,2.365,85.029,2.365c31.074,0,60.146-0.867,85.022-2.365
							c-24.877-1.502-53.948-2.359-85.022-2.359C78.61,46.915,49.53,47.772,24.653,49.274z"/>
					</g>
				</g>
				<g>
					<g>
						<path fill="#3479BE" d="M33.37,42.309c23.604,1.498,51.193,2.357,80.668,2.357c29.489,0,57.075-0.859,80.677-2.357
							c-23.602-1.504-51.188-2.361-80.677-2.361C84.563,39.948,56.974,40.805,33.37,42.309z"/>
					</g>
				</g>
				<g>
					<g>
						<path fill="#3479BE" d="M48.126,35.342c21.252,1.498,46.094,2.365,72.646,2.365c26.552,0,51.39-0.867,72.64-2.365
							c-21.25-1.498-46.088-2.357-72.64-2.357C94.22,32.985,69.378,33.844,48.126,35.342z"/>
					</g>
				</g>
				<g>
					<g>
						<path fill="#3479BE" d="M62.468,28.379c15.428,1.5,33.445,2.361,52.703,2.361c19.27,0,37.29-0.861,52.72-2.361
							c-15.43-1.504-33.45-2.361-52.72-2.361C95.913,26.018,77.896,26.875,62.468,28.379z"/>
					</g>
				</g>
				<g>
					<g>
						<path fill="#3479BE" d="M56.288,21.409c13.678,1.498,29.668,2.369,46.746,2.369c17.088,0,33.072-0.871,46.749-2.369
							c-13.677-1.492-29.661-2.357-46.749-2.357C85.956,19.051,69.966,19.917,56.288,21.409z"/>
					</g>
				</g>
				<g>
					<g>
						<path fill="#3479BE" d="M64.104,14.448c10.354,1.502,22.451,2.363,35.389,2.363c12.926,0,25.029-0.861,35.377-2.363
							c-10.348-1.494-22.451-2.359-35.377-2.359C86.556,12.088,74.458,12.954,64.104,14.448z"/>
					</g>
				</g>
			</g>
			<g>
				<path fill="#FFEECE" d="M106.886,54.069c-0.396-3.461-1.139-6.885-2.17-10.219C94.435,10.432,58.864,5.288,58.87,5.295
					c0.113,0.096,11.641,10.207,16.846,24.752c3.941,10.643,3.008,23.172-2.906,32.926c-1.455,2.4-3.273,4.76-5.256,6.754
					c-3.953,3.953-7.936,7.006-13.209,8.998c-5.285,1.986-10.908,2.941-16.551,3.004c-4.672,0.039-9.238-0.939-13.547-2.732
					c-6.764-2.791-13.152-7.084-18.488-12.082c-1.371-1.273-2.617-2.643-3.807-4.09l0.051,0.125l-0.271-0.34
					c0,0,4.129,26.434,27.062,40.322c8.15,4.939,17.615,7.884,27.193,7.884c17.186,0,33.117-8.521,42.639-22.8
					c5.404-8.107,8.424-17.67,8.588-27.406C107.253,58.424,107.134,56.239,106.886,54.069z"/>
				<path fill="#FFD88C" d="M15.778,79.282c19.869,13.234,46.705,7.861,59.949-12.004c10.541-15.838,9.242-36.064-1.762-50.344
					c2.668,1.125,5.256,2.479,7.742,4.139c21.303,14.188,27.062,42.947,12.875,64.242c-14.195,21.291-42.951,27.05-64.248,12.865
					c-7.93-5.285-13.695-12.588-17.088-20.779C14.073,78.042,14.901,78.69,15.778,79.282z"/>
			</g>
		</g>
		<g>
			<g>
				<g>
					<g>
						<path fill="#ADD3F0" d="M53.909,248.906c-1.068,0-2.146-0.203-3.195-0.635c-4.244-1.769-6.258-6.64-4.496-10.888l1.6-3.846
							c1.764-4.248,6.635-6.258,10.883-4.496c4.242,1.767,6.26,6.638,4.498,10.881l-1.6,3.853
							C60.271,246.969,57.171,248.906,53.909,248.906z M65.081,221.996c-1.062,0-2.145-0.203-3.191-0.641
							c-4.242-1.763-6.26-6.633-4.494-10.881l6.387-15.377c1.764-4.248,6.631-6.261,10.879-4.498
							c4.248,1.768,6.262,6.639,4.498,10.881l-6.383,15.385C71.444,220.059,68.347,221.996,65.081,221.996z"/>
					</g>
					<g>
						<path fill="#ADD3F0" d="M86.427,248.906c-1.064,0-2.146-0.203-3.189-0.635c-4.248-1.769-6.258-6.64-4.498-10.888l1.598-3.846
							c1.766-4.248,6.633-6.258,10.881-4.496c4.248,1.767,6.26,6.638,4.498,10.881l-1.598,3.853
							C92.79,246.969,89.692,248.906,86.427,248.906z M97.604,221.996c-1.064,0-2.146-0.203-3.191-0.641
							c-4.246-1.763-6.26-6.633-4.498-10.881l6.389-15.377c1.762-4.248,6.627-6.261,10.881-4.498
							c4.246,1.768,6.26,6.639,4.498,10.881l-6.387,15.385C103.968,220.059,100.866,221.996,97.604,221.996z"/>
					</g>
					<g>
						<path fill="#ADD3F0" d="M118.95,248.906c-1.066,0-2.148-0.203-3.189-0.635c-4.248-1.769-6.262-6.64-4.498-10.888l1.598-3.846
							c1.762-4.248,6.635-6.258,10.881-4.496c4.248,1.767,6.258,6.638,4.498,10.881l-1.598,3.853
							C125.31,246.969,122.214,248.906,118.95,248.906z M130.128,221.996c-1.068,0-2.15-0.203-3.191-0.641
							c-4.248-1.763-6.262-6.633-4.498-10.881l6.389-15.377c1.766-4.248,6.627-6.261,10.881-4.498
							c4.243,1.768,6.262,6.639,4.499,10.881l-6.388,15.385C136.491,220.059,133.39,221.996,130.128,221.996z"/>
					</g>
				</g>
				<g>
					<g>
						<g>
							<path fill="#231F20" d="M69.05,212.963c0.186-3.654,1.982-11.232,3.42-17.492c-3.494,5.562-7.629,12.229-10.119,14.978
								h-0.006c-0.217,0.271-0.41,0.584-0.551,0.93c-0.793,1.927,0.119,4.129,2.045,4.933c1.926,0.793,4.131-0.123,4.932-2.043
								C68.946,213.84,69.032,213.404,69.05,212.963L69.05,212.963z"/>
							<path fill="#FFFFFF" d="M65.583,212.844c0.072-1.463,0.793-4.498,1.365-7.002c-1.396,2.232-3.049,4.9-4.047,5.992l0,0
								c-0.088,0.113-0.164,0.238-0.221,0.375c-0.318,0.77,0.047,1.654,0.818,1.971c0.768,0.322,1.65-0.051,1.967-0.816
								C65.54,213.193,65.573,213.02,65.583,212.844L65.583,212.844z"/>
							<g>
								<path fill="#231F20" d="M57.151,232.457c-1.971,2.09-3.967,3.869-5.779,5.205l0,0c-0.453,0.381-0.822,0.873-1.066,1.451
									c-0.797,1.932,0.119,4.141,2.043,4.934c1.922,0.799,4.131-0.119,4.93-2.045c0.275-0.662,0.34-1.371,0.236-2.033
									C57.2,237.793,57.063,235.211,57.151,232.457z"/>
							</g>
							<g>
								<path fill="#FFFFFF" d="M54.214,237.074c-0.787,0.838-1.586,1.551-2.311,2.084l0,0c-0.184,0.146-0.328,0.346-0.43,0.578
									c-0.318,0.775,0.045,1.66,0.82,1.977c0.766,0.316,1.648-0.045,1.973-0.822c0.109-0.266,0.135-0.543,0.09-0.809
									C54.235,239.209,54.179,238.178,54.214,237.074z"/>
							</g>
						</g>
					</g>
					<g>
						<g>
							<path fill="#231F20" d="M101.657,212.963c0.184-3.654,1.982-11.232,3.412-17.492c-3.486,5.562-7.623,12.229-10.113,14.978
								H94.95c-0.217,0.271-0.412,0.584-0.551,0.93c-0.797,1.927,0.121,4.129,2.043,4.933c1.926,0.793,4.133-0.123,4.932-2.043
								C101.552,213.84,101.64,213.404,101.657,212.963L101.657,212.963z"/>
							<path fill="#FFFFFF" d="M98.188,212.844c0.07-1.463,0.795-4.498,1.365-7.002c-1.396,2.232-3.051,4.9-4.049,5.992l0,0
								c-0.084,0.113-0.164,0.238-0.221,0.375c-0.322,0.77,0.047,1.654,0.822,1.971c0.764,0.322,1.648-0.051,1.965-0.816
								C98.146,213.193,98.179,213.02,98.188,212.844L98.188,212.844z"/>
							<g>
								<path fill="#231F20" d="M89.755,232.457c-1.969,2.09-3.963,3.869-5.777,5.205l0,0c-0.453,0.381-0.824,0.873-1.068,1.451
									c-0.797,1.932,0.119,4.141,2.045,4.934c1.92,0.799,4.131-0.119,4.928-2.045c0.277-0.662,0.342-1.371,0.238-2.033
									C89.802,237.793,89.667,235.211,89.755,232.457z"/>
							</g>
							<g>
								<path fill="#FFFFFF" d="M86.817,237.074c-0.787,0.838-1.586,1.551-2.311,2.084l0,0c-0.182,0.146-0.33,0.346-0.426,0.578
									c-0.32,0.775,0.045,1.66,0.816,1.977c0.77,0.316,1.654-0.045,1.971-0.822c0.113-0.266,0.137-0.543,0.096-0.809
									C86.839,239.209,86.782,238.178,86.817,237.074z"/>
							</g>
						</g>
					</g>
					<g>
						<g>
							<path fill="#231F20" d="M134.263,212.963c0.182-3.654,1.979-11.232,3.412-17.492c-3.484,5.562-7.623,12.229-10.115,14.978
								h-0.006c-0.217,0.271-0.408,0.584-0.551,0.93c-0.793,1.927,0.119,4.129,2.045,4.933c1.926,0.793,4.133-0.123,4.928-2.043
								C134.157,213.84,134.243,213.404,134.263,212.963L134.263,212.963z"/>
							<path fill="#FFFFFF" d="M130.792,212.844c0.074-1.463,0.791-4.498,1.365-7.002c-1.393,2.232-3.053,4.9-4.049,5.992l0,0
								c-0.086,0.113-0.162,0.238-0.215,0.375c-0.324,0.77,0.041,1.654,0.814,1.971c0.766,0.322,1.648-0.051,1.969-0.816
								C130.753,213.193,130.782,213.02,130.792,212.844L130.792,212.844z"/>
							<g>
								<path fill="#231F20" d="M122.358,232.457c-1.965,2.09-3.965,3.869-5.777,5.205l0,0c-0.455,0.381-0.82,0.873-1.066,1.451
									c-0.797,1.932,0.119,4.141,2.045,4.934c1.922,0.799,4.131-0.119,4.924-2.045c0.277-0.662,0.346-1.371,0.244-2.033
									C122.409,237.793,122.274,235.211,122.358,232.457z"/>
							</g>
							<g>
								<path fill="#FFFFFF" d="M119.425,237.074c-0.793,0.838-1.586,1.551-2.316,2.084l0,0c-0.182,0.146-0.322,0.346-0.424,0.578
									c-0.318,0.775,0.047,1.66,0.818,1.977c0.768,0.316,1.652-0.045,1.973-0.822c0.107-0.266,0.137-0.543,0.092-0.809
									C119.442,239.209,119.386,238.178,119.425,237.074z"/>
							</g>
						</g>
					</g>
				</g>
			</g>
		</g>
		<g>
			<g>
				<path fill="#FFFFFF" d="M190.957,117.98c0.215,0.109,0.434,0.205,0.646,0.324c0.006-0.045,0.008-0.086,0.014-0.125
					C191.398,118.111,191.182,118.043,190.957,117.98z"/>
			</g>
			<g>
				<path fill="#FFFFFF" d="M173.932,114.316c4.922,0,9.654,0.816,14.074,2.305c-4.023-1.619-8.418-2.525-13.023-2.525
					c-1.944,0-3.844,0.164-5.694,0.471C170.811,114.408,172.363,114.316,173.932,114.316z"/>
			</g>
			<path fill="#FFFFFF" d="M275.506,166.348c-1.779-6.399-6.01-12.117-11.602-15.695c-4.887-3.166-10.998-4.713-16.861-4.241
				c-0.215-3.172-1.291-6.341-3.066-8.99c-1.035-1.567-2.319-2.983-3.838-4.226c2.107-5.159,2.68-11.017,1.605-16.556
				c-1.277-6.83-5.168-13.275-10.666-17.671c-5.201-4.225-12.023-6.648-18.717-6.648c-0.279,0-0.562,0.004-0.832,0.004
				c-5.559,0.125-11.098,1.898-15.682,5.02c-1.644-2.135-3.554-3.959-5.673-5.432c-1.1-0.771-2.299-1.479-3.674-2.146
				c-0.099-0.051-0.205-0.092-0.31-0.131l-0.18-0.08c-0.453-0.203-0.916-0.402-1.383-0.582c-0.184-0.074-0.369-0.137-0.543-0.199
				c-3.168-1.133-6.455-1.682-9.672-1.523c-0.152-0.611-0.297-1.279-0.457-2.066c-0.195-1.01-0.396-2.051-0.693-3.088
				c-0.629-2.346-1.49-4.656-2.557-6.859c-2.215-4.6-5.41-8.857-9.244-12.312c-4.053-3.66-8.938-6.51-14.123-8.248
				c-5.41-1.818-11.247-2.463-16.997-1.869c-8.971,0.885-17.779,5.029-24.168,11.373c-5.732,5.619-9.691,12.971-11.195,20.777
				c-0.994-0.205-1.963-0.295-2.947-0.295c-3.869,0-7.682,1.285-10.729,3.619c-2.23,1.676-4.074,3.902-5.326,6.434
				c-0.818,1.66-1.369,3.506-1.604,5.393c-5.945-1.541-12.305-1.473-18.195,0.146c-6.684,1.818-12.893,5.727-17.469,11.011
				c-3.646,4.18-6.293,9.209-7.646,14.518c-1.309,5.092-1.473,10.512-0.465,15.672c0.924,4.826,2.936,9.521,5.807,13.576
				c2.141,3.014,4.832,5.738,7.828,7.947c-3.336,1.502-6.186,3.998-8.09,7.098c-2.508,3.992-3.369,8.955-2.361,13.594
				c0.113,0.51,0.23,0.975,0.359,1.404l0.043,0.146c0.051,0.17,0.102,0.334,0.24,0.729l0.242,0.687
				c0.033,0.079,0.135,0.312,0.438,0.481l0.168,0.09h29.838h26.682h126.118h2.34h52.802l0.989-2.026l0.388-0.896
				c0.227-0.545,0.479-1.188,0.694-1.856C276.848,177.301,276.984,171.586,275.506,166.348z"/>
			<g>
				<path fill="#ADD3F0" d="M239.969,122.795c-0.062-0.09-0.125-0.18-0.203-0.254c0.051-0.482,0.082-0.963,0.103-1.449
					c-0.029-0.273-0.08-0.545-0.117-0.816c-0.053-0.385-0.099-0.77-0.166-1.15c-0.117-0.65-0.256-1.303-0.414-1.941
					c-1.522-6.17-5.104-11.759-10.084-15.751c-4.938-4-11.17-6.305-17.551-6.469c-0.32-0.012-0.644-0.018-0.963-0.018
					c-5.009,0-10.134,1.365-14.57,3.824c1.619,2.311,2.863,4.871,3.604,7.543c1.33,4.707,1.205,9.771-0.312,14.335
					c2.64,1.58,5.123,3.502,7.308,5.693c2.854,2.865,5.26,6.225,7.028,9.799c2.039-2.526,4.832-4.51,7.964-5.613
					c1.938-0.69,4.077-1.052,6.194-1.052c2.041,0,4.041,0.328,5.942,0.967c1.802,0.602,3.517,1.514,5.07,2.641
					c0.23-0.771,0.422-1.567,0.582-2.36c0.035-0.138,0.055-0.273,0.082-0.415C239.938,127.836,240.105,125.305,239.969,122.795z
					 M231.812,125.221c-14.242-0.459-25.717-11.754-26.48-25.919c2.318-0.918,4.838-1.438,7.477-1.438
					c11.211,0,20.295,9.083,20.295,20.287C233.104,120.643,232.633,123.021,231.812,125.221z"/>
				<path fill="#ADD3F0" d="M33.048,139.551c-0.014-0.125-0.021-0.25-0.037-0.375c-0.002-0.006-0.002-0.016-0.006-0.021
					C33.021,139.283,33.03,139.42,33.048,139.551z"/>
				<path fill="#ADD3F0" d="M191.914,114.691c0,0.865-0.076,1.709-0.18,2.549h0.002c1.15,0.367,2.283,0.77,3.379,1.25
					c1.266,0.551,2.51,1.186,3.727,1.887c0.805-4.496,0.447-9.254-1.059-13.486c-1.748-4.972-5.098-9.367-9.432-12.386
					c-0.443-0.312-0.9-0.6-1.365-0.883c-0.623-0.352-1.252-0.703-1.883-1.016c-0.754-0.367-1.523-0.701-2.306-1.02
					c-2.856-1.07-5.909-1.652-8.973-1.652h-0.349c-4.746,0.033-9.621,1.479-13.725,4.072c0.428-0.271,0.873-0.504,1.314-0.748
					c2.485-0.924,5.162-1.449,7.961-1.449C181.672,91.809,191.914,102.049,191.914,114.691z"/>
				<path fill="#ADD3F0" d="M170.176,88.5c0.107-0.023,0.215-0.039,0.322-0.062c0.953-0.188,1.904-0.34,2.879-0.408
					c-0.303-0.877-0.561-1.768-0.803-2.645c-0.246-0.945-0.5-1.914-0.834-2.85c-0.742-2.203-1.689-4.355-2.811-6.406
					c-2.322-4.23-5.503-8.109-9.209-11.225c-3.888-3.281-8.496-5.818-13.322-7.348c-3.781-1.201-7.733-1.807-11.744-1.807
					c-1.328,0-2.674,0.068-3.992,0.205c-8.367,0.832-16.363,4.469-22.521,10.256c-5.727,5.314-9.82,12.434-11.531,20.047
					c-0.031,0.135-0.096,0.242-0.193,0.328c-0.588,2.668-0.912,5.426-0.957,8.207c0,0.107-0.09,0.197-0.197,0.197
					c-0.113,0-0.199-0.084-0.205-0.186c-0.16-2.822-0.01-5.654,0.432-8.424c-4.459,0.227-8.793,1.779-12.275,4.436
					c-3.432,2.578-6.102,6.264-7.609,10.428c0.029,0.018,0.066,0.027,0.088,0.051c0.709,0.641,2.637,0.912,3.557,1.309
					c1.246,0.543,2.459,1.16,3.631,1.846c2.402,1.41,4.662,3.109,6.633,5.082c1.559-0.709,2.848-2.256,4.463-3.064
					c4.012-2.005,8.021-3.416,12.672-3.392c0.033-0.029,0.07-0.047,0.107-0.068c-0.219-0.674-0.566-2.498-0.584-2.578
					c-0.127-0.662-0.244-1.324-0.334-1.998c-0.182-1.371-0.271-2.742-0.271-4.119c0-17.178,13.926-31.102,31.102-31.102
					c15.458,0,28.251,11.295,30.659,26.066C168.26,88.959,169.207,88.704,170.176,88.5z"/>
				<path fill="#ADD3F0" d="M143.379,150.051c-1.102,0-2.191,0.057-3.267,0.154c-0.014-0.402-0.031-0.805-0.031-1.213
					c0-4.254,0.776-8.32,2.171-12.094c2.928-8.558,8.66-15.174,15.904-19.273c-0.227,0.09-0.43,0.191-0.65,0.283l0.486-0.215
					c0,0-6.705,1.189-14.432,7.373c-1.229,0.986-2.481,2.096-3.74,3.348c-0.057,0.057-0.113,0.113-0.172,0.17
					c-0.617,0.623-1.232,1.275-1.85,1.961c-0.006,0.006-0.012,0.016-0.018,0.021c-0.584,0.651-1.16,1.348-1.736,2.067
					c-0.088,0.107-0.178,0.216-0.264,0.328c-0.572,0.72-1.133,1.479-1.688,2.261c-0.09,0.137-0.182,0.276-0.277,0.401
					c-0.504,0.735-1.002,1.496-1.492,2.283c-0.076,0.118-0.15,0.227-0.225,0.35c-0.525,0.854-1.039,1.757-1.545,2.687
					c-0.113,0.209-0.225,0.42-0.338,0.635c-0.512,0.963-1.012,1.953-1.5,2.996c-0.219,0.107-0.432,0.227-0.648,0.328
					c-2.807,1.24-5.863,1.881-8.939,1.881c-0.674,0-1.342-0.039-2.016-0.096c0,0,0-0.006-0.006-0.006
					c-4.662-0.42-8.91-2.283-12.291-5.144c-0.031-0.022-0.062-0.054-0.096-0.067c-5.365-4.38-8.785-11.03-8.785-18.495
					c0-7.816,3.771-14.732,9.584-19.082c0.449-0.125,0.814-0.254,0.932-0.396c-0.041,0.006-0.076,0.023-0.117,0.029
					c-2.338,0.504-4.609,1.256-6.762,2.242c-0.006,0.006-0.016,0.012-0.02,0.012c-0.717,0.328-1.426,0.685-2.117,1.058
					c-0.064,0.039-0.123,0.08-0.189,0.119c-0.629,0.352-1.248,0.713-1.855,1.109c-0.152,0.098-0.297,0.211-0.453,0.324
					c-0.5,0.334-1.002,0.674-1.477,1.041c-0.279,0.211-0.531,0.438-0.793,0.652c-0.346,0.283-0.697,0.555-1.029,0.855
					c-0.586,0.521-1.148,1.07-1.688,1.631c-4.387,4.559-7.371,10.615-8.408,17.061c-0.018,0.096-0.102,0.17-0.199,0.17
					c-0.113-0.006-0.197-0.092-0.203-0.188c-0.182-3.148,0.289-6.434,1.365-9.498c1.203-3.428,3.166-6.615,5.682-9.227
					c0.346-0.363,0.725-0.686,1.086-1.031c-3.018-2.566-6.484-4.605-10.172-6.009c-1.229-0.465-2.48-0.867-3.756-1.184
					c-0.123,0.027-0.262,0.021-0.391-0.012c-0.438,0-0.943-0.176-1.398-0.301c-0.006,0-0.014,0-0.018,0
					c-0.742-0.152-1.486-0.277-2.23-0.373c-0.006-0.006-0.012-0.006-0.012-0.006c-0.445-0.051-0.867-0.045-1.309-0.057
					c-0.199,0-0.379-0.062-0.555-0.137c-0.885-0.066-1.766-0.113-2.656-0.113c-3.336,0-6.633,0.482-9.797,1.422
					c-6.062,1.803-11.705,5.437-15.881,10.251c-3.322,3.824-5.777,8.389-7.104,13.221c-0.316,1.15-0.57,2.322-0.768,3.506
					c-0.096,0.605-0.137,1.219-0.199,1.83c-0.064,0.582-0.154,1.154-0.191,1.732c-0.045,0.816-0.023,1.637-0.014,2.453
					c0.002,0.385-0.021,0.764-0.004,1.15c0.029,0.645,0.125,1.297,0.189,1.94c0.049,0.25,0.1,0.498,0.156,0.748
					c-0.012,0.256-0.002,0.511,0,0.771c0.014,0.098,0.014,0.199,0.029,0.289c0.695,4.516,2.379,8.973,4.859,12.914
					c2.146,3.409,4.961,6.475,8.145,8.961c3.215-1.32,6.865-1.75,10.279-1.229c0.053-0.86,0.148-1.729,0.318-2.584
					c0.617-3.062,2.082-6.031,4.123-8.342c1.846-2.107,4.16-3.732,6.689-4.701c0.094-0.035,0.197,0.006,0.246,0.09
					c0.049,0.093,0.025,0.199-0.059,0.263c-4.436,3.188-7.574,7.985-8.604,13.174c-1.072,5.217-0.057,10.862,2.779,15.485
					c0.055,0.084,0.037,0.197-0.045,0.267c-0.037,0.026-0.078,0.039-0.125,0.039c-0.053,0-0.102-0.019-0.141-0.058
					c-1.957-1.881-3.453-4.28-4.328-6.932c-0.65-1.988-0.916-4.078-0.859-6.164c-0.021,0-0.041,0-0.057,0l0.057-0.062
					c0,0-0.789-0.017-2.035,0.092c-1.035,0.062-2.061,0.215-3.068,0.43c-5.914,1.139-14.846,4.764-14.812,16.25
					c-0.068,1.383,0.031,2.775,0.326,4.135c0.033,0.17,0.088,0.402,0.156,0.652c0.072,0.277,0.166,0.531,0.266,0.764l52.693,1.893
					c-0.256-1.264-0.422-2.555-0.422-3.891c0-11.051,8.957-20.012,20.008-20.012c6.943,0,13.053,3.539,16.645,8.91
					c4.162-10.529,14.412-17.996,26.421-17.996c1.688,0,3.326,0.176,4.928,0.459c0.367-0.129,0.752-0.232,1.127-0.346
					C154.039,151.27,148.857,150.051,143.379,150.051z M153.541,119.676l0.758-0.34c-0.396,0.197-0.775,0.406-1.162,0.617
					L153.541,119.676z M56.712,145.678c-7.629-2.859-13.074-10.199-13.074-18.838c0-11.119,9.014-20.131,20.133-20.131
					c6.299,0,11.916,2.885,15.609,7.416c-5.443,6.082-9.141,13.729-10.443,22.18C64.13,138.389,59.944,141.635,56.712,145.678z
					 M71.212,146.432c-0.062-0.018-0.121-0.026-0.18-0.033c0.117-0.086,0.242-0.164,0.361-0.244
					C71.331,146.244,71.267,146.342,71.212,146.432z M72.651,167.666c-3.795-6.705-3.23-14.822,3.328-21.199
					c2.137-2.08,4.742-2.889,7.326-2.668c2.191,3.795,5.275,6.932,8.92,9.521C83.534,154.48,76.247,160.025,72.651,167.666z"/>
				<path fill="#ADD3F0" d="M207.311,161.877c7.668,2.602,14.205,7.676,18.623,14.285c-0.227-1.234-0.352-2.514-0.352-3.822
					c0-11.504,9.322-20.828,20.824-20.828c11.494,0,20.82,9.324,20.82,20.828c0,4.684-1.568,8.994-4.188,12.473
					c0.899-0.028,1.795-0.062,2.692-0.092c0.562-0.021,1.121-0.045,1.685-0.062l0.664-0.021c0.315-0.013,0.7-0.062,1.065-0.041
					l1.931-0.062l0.577-1.369c0.171-0.438,0.351-0.941,0.517-1.463v-0.016c0.062-0.392,0.215-0.793,0.343-1.189
					c0.049-0.176,0.102-0.346,0.145-0.521c0.08-0.328,0.145-0.656,0.209-0.985c0.057-0.267,0.113-0.531,0.158-0.804
					c0.061-0.336,0.104-0.68,0.143-1.02c0.033-0.273,0.074-0.545,0.1-0.816c0.031-0.352,0.047-0.696,0.064-1.049
					c0.012-0.26,0.033-0.525,0.039-0.787c0.006-0.36-0.006-0.729-0.01-1.092c-0.006-0.256-0.006-0.504-0.019-0.76
					c-0.021-0.367-0.062-0.73-0.096-1.104c-0.022-0.244-0.035-0.488-0.062-0.736c-0.052-0.393-0.125-0.783-0.193-1.18
					c-0.037-0.209-0.062-0.431-0.107-0.646c-0.121-0.603-0.264-1.201-0.43-1.791c-1.576-5.664-5.285-10.789-10.182-14.074
					c-0.666-0.446-1.357-0.86-2.064-1.245c-0.176-0.097-0.357-0.183-0.533-0.271c-0.543-0.277-1.094-0.539-1.654-0.783
					c-0.176-0.066-0.352-0.141-0.53-0.221c-0.71-0.283-1.429-0.537-2.158-0.758c-1.149-0.34-2.322-0.607-3.506-0.781
					c-2.421-0.363-4.9-0.557-7.336-0.256c-1.136,0.137-2.261,0.352-3.373,0.641c-1.123,0.283-2.234,0.65-3.312,1.082
					c-2.164,0.865-4.213,2.021-6.065,3.426c-0.089,0.068-0.21,0.057-0.279-0.021c-0.067-0.093-0.062-0.212,0.021-0.283
					c3.914-3.508,8.992-5.763,14.315-6.392c-0.678-3.08-2.028-5.946-3.969-8.325c-2.287-2.839-5.438-5.041-8.869-6.185
					c-1.942-0.652-3.99-0.986-6.084-0.986c-1.599,0-3.188,0.197-4.729,0.584c-3.018,0.752-5.852,2.255-8.25,4.332
					c0.179,0.386,0.361,0.771,0.529,1.162c1.641,3.789,2.633,7.939,2.865,12.015c0.006,0.106-0.07,0.196-0.176,0.215
					c-0.004,0-0.004-0.006-0.004-0.006c-0.012,0-0.012,0.006-0.023,0.006c-0.09,0-0.176-0.062-0.199-0.158
					c-1.856-8.225-6.127-15.983-12.012-21.859c-0.68-0.68-1.385-1.336-2.113-1.971c-0.395-0.346-0.805-0.674-1.213-1.008
					c-0.309-0.25-0.617-0.51-0.934-0.754c-0.572-0.436-1.156-0.859-1.75-1.273c-0.137-0.096-0.277-0.199-0.414-0.289
					c-0.709-0.477-1.434-0.945-2.164-1.383c0-0.006-0.006-0.006-0.006-0.006c8.262,6.385,13.6,16.365,13.6,27.613
					c0,4.563-0.887,8.92-2.479,12.92C207.371,161.9,207.338,161.889,207.311,161.877z M226.023,133.479
					c7.223,0,13.09,5.789,13.229,12.982c-0.994,0.203-2.02,0.316-3.072,0.316c-7.395,0-13.5-5.433-14.592-12.523
					C222.979,133.762,224.467,133.479,226.023,133.479z"/>
			</g>
			<path fill="#231F20" d="M275.506,166.348c-1.779-6.399-6.01-12.117-11.602-15.695c-4.887-3.166-10.998-4.713-16.861-4.241
				c-0.215-3.172-1.291-6.341-3.066-8.99c-1.035-1.567-2.319-2.983-3.838-4.226c2.107-5.159,2.68-11.017,1.605-16.556
				c-1.277-6.83-5.168-13.275-10.666-17.671c-5.201-4.225-12.023-6.648-18.717-6.648c-0.279,0-0.562,0.004-0.832,0.004
				c-5.559,0.125-11.098,1.898-15.682,5.02c-1.644-2.135-3.554-3.959-5.673-5.432c-1.1-0.771-2.299-1.479-3.674-2.146
				c-0.099-0.051-0.205-0.092-0.31-0.131l-0.18-0.08c-0.453-0.203-0.916-0.402-1.383-0.582c-0.184-0.074-0.369-0.137-0.543-0.199
				c-3.168-1.133-6.455-1.682-9.672-1.523c-0.152-0.611-0.297-1.279-0.457-2.066c-0.195-1.01-0.396-2.051-0.693-3.088
				c-0.629-2.346-1.49-4.656-2.557-6.859c-2.215-4.6-5.41-8.857-9.244-12.312c-4.053-3.66-8.938-6.51-14.123-8.248
				c-5.41-1.818-11.247-2.463-16.997-1.869c-8.971,0.885-17.779,5.029-24.168,11.373c-5.732,5.619-9.691,12.971-11.195,20.777
				c-0.994-0.205-1.963-0.295-2.947-0.295c-3.869,0-7.682,1.285-10.729,3.619c-2.23,1.676-4.074,3.902-5.326,6.434
				c-0.818,1.66-1.369,3.506-1.604,5.393c-5.945-1.541-12.305-1.473-18.195,0.146c-6.684,1.818-12.893,5.727-17.469,11.011
				c-3.646,4.18-6.293,9.209-7.646,14.518c-1.309,5.092-1.473,10.512-0.465,15.672c0.924,4.826,2.936,9.521,5.807,13.576
				c2.141,3.014,4.832,5.738,7.828,7.947c-3.336,1.502-6.186,3.998-8.09,7.098c-2.508,3.992-3.369,8.955-2.361,13.594
				c0.113,0.51,0.23,0.975,0.359,1.404l0.043,0.146c0.051,0.17,0.102,0.334,0.24,0.729l0.242,0.687
				c0.033,0.079,0.135,0.312,0.438,0.481l0.168,0.09h56.52l-0.264-0.729h-0.773c-0.029-0.074-0.086-0.135-0.174-0.135l-53.275-1.916
				c-0.1-0.232-0.193-0.486-0.266-0.765c-0.068-0.25-0.123-0.481-0.156-0.651c-0.295-1.359-0.395-2.752-0.326-4.136
				c-0.033-11.485,8.898-15.11,14.812-16.25c1.008-0.215,2.033-0.366,3.068-0.43c1.246-0.107,2.035-0.093,2.035-0.093
				s-0.057,0.062,0,0.062c-0.057,2.086,0.209,4.176,0.859,6.164c0.875,2.65,2.371,5.051,4.328,6.932
				c0.039,0.039,0.088,0.058,0.141,0.058c0.047,0,0.088-0.013,0.125-0.039c0.082-0.068,0.1-0.183,0.045-0.267
				c-2.836-4.623-3.852-10.27-2.779-15.485c1.029-5.188,4.168-9.986,8.604-13.175c0.084-0.062,0.107-0.17,0.059-0.262
				c-0.049-0.084-0.152-0.125-0.246-0.09c-2.529,0.969-4.844,2.594-6.689,4.701c-2.041,2.311-3.506,5.279-4.123,8.342
				c-0.17,0.855-0.266,1.723-0.318,2.584c-3.414-0.521-7.064-0.092-10.279,1.229c-3.184-2.485-5.998-5.551-8.145-8.961
				c-2.48-3.94-4.164-8.397-4.859-12.914c-0.76-4.791-0.479-9.78,0.801-14.419c1.326-4.832,3.781-9.396,7.104-13.221
				c4.176-4.814,9.818-8.449,15.881-10.251c3.164-0.939,6.461-1.422,9.797-1.422c2.775,0,5.521,0.33,8.178,0.986
				c0.129,0.033,0.268,0.039,0.391,0.012c5.084,1.285,9.902,3.777,13.932,7.193c-0.365,0.346-0.744,0.668-1.09,1.031
				c-2.516,2.611-4.479,5.799-5.682,9.227c-1.076,3.064-1.547,6.35-1.365,9.498c0.006,0.096,0.09,0.182,0.203,0.188
				c0.098,0,0.182-0.074,0.199-0.17c1.037-6.445,4.021-12.502,8.408-17.061c4.336-4.555,10.26-7.792,16.682-9.119
				c0.098-0.023,0.166-0.113,0.16-0.215c-0.008-0.107-0.094-0.188-0.201-0.188c-3.129-0.051-6.42,0.561-9.418,1.768
				c-2.785,1.098-5.367,2.746-7.625,4.74c-3.854-3.806-8.643-6.666-13.857-8.263c-0.021-0.023-0.059-0.033-0.088-0.051
				c1.508-4.164,4.178-7.85,7.609-10.428c3.482-2.656,7.816-4.209,12.275-4.436c-0.441,2.77-0.592,5.602-0.432,8.424
				c0.006,0.102,0.092,0.186,0.205,0.186c0.107,0,0.197-0.09,0.197-0.197c0.045-2.781,0.369-5.539,0.957-8.207
				c0.098-0.086,0.162-0.193,0.193-0.328c1.711-7.613,5.805-14.732,11.531-20.047c6.158-5.787,14.154-9.424,22.521-10.256
				c1.318-0.137,2.664-0.205,3.992-0.205c4.01,0,7.962,0.605,11.743,1.807c4.826,1.529,9.436,4.066,13.322,7.348
				c3.707,3.115,6.887,6.994,9.209,11.225c1.121,2.051,2.067,4.203,2.811,6.406c0.334,0.936,0.588,1.904,0.834,2.85
				c0.242,0.877,0.5,1.768,0.803,2.645c-5.102,0.375-10.02,2.379-13.855,5.648c-0.088,0.066-0.096,0.186-0.032,0.271
				c0.062,0.084,0.182,0.113,0.266,0.057c4.104-2.594,8.979-4.039,13.726-4.072h0.348c3.062,0,6.115,0.582,8.973,1.652
				c0.781,0.318,1.551,0.652,2.305,1.02c0.632,0.312,1.261,0.664,1.884,1.016c0.465,0.283,0.922,0.57,1.364,0.883
				c4.334,3.02,7.685,7.414,9.433,12.386c1.506,4.232,1.862,8.99,1.06,13.486c-1.218-0.701-2.461-1.336-3.728-1.887
				c-3.789-1.652-7.94-2.656-12.015-2.898c-0.102,0-0.198,0.066-0.215,0.176c-0.012,0.107,0.058,0.203,0.158,0.227
				c8.219,1.873,15.973,6.168,21.83,12.068c5.885,5.875,10.154,13.635,12.012,21.859c0.023,0.096,0.109,0.158,0.228,0.158
				c0.104-0.018,0.183-0.107,0.176-0.215c-0.231-4.074-1.226-8.225-2.864-12.014c-0.168-0.392-0.353-0.777-0.529-1.162
				c2.397-2.078,5.231-3.58,8.25-4.332c1.539-0.387,3.131-0.584,4.729-0.584c2.094,0,4.141,0.334,6.084,0.986
				c3.43,1.143,6.582,3.346,8.869,6.184c1.939,2.379,3.291,5.246,3.969,8.326c-5.324,0.629-10.402,2.883-14.316,6.391
				c-0.079,0.072-0.088,0.191-0.02,0.283c0.07,0.078,0.191,0.09,0.279,0.021c3.688-2.804,8.15-4.589,12.75-5.148
				c2.436-0.301,4.916-0.107,7.336,0.256c2.328,0.35,4.619,1.02,6.766,1.998c1.283,0.578,2.519,1.27,3.682,2.062
				c4.896,3.284,8.605,8.409,10.183,14.073c1.306,4.64,1.233,9.709-0.213,14.279c-0.183,0.602-0.399,1.184-0.586,1.678l-0.578,1.369
				l-51.963,1.81c-0.084,0-0.146,0.061-0.172,0.135h-0.773l-0.256,0.729h55.142l0.989-2.026l0.388-0.896
				c0.227-0.545,0.479-1.188,0.694-1.856C276.848,177.301,276.984,171.586,275.506,166.348z M233.732,130.441
				c-1.902-0.639-3.902-0.967-5.943-0.967c-2.117,0-4.258,0.361-6.195,1.053c-3.131,1.104-5.924,3.086-7.963,5.613
				c-1.77-3.574-4.174-6.935-7.029-9.8c-2.184-2.191-4.668-4.113-7.307-5.693c1.518-4.564,1.643-9.629,0.312-14.335
				c-0.742-2.672-1.986-5.232-3.605-7.543c4.438-2.459,9.562-3.824,14.57-3.824c0.32,0,0.643,0.006,0.963,0.018
				c6.381,0.164,12.613,2.469,17.551,6.469c4.98,3.992,8.561,9.582,10.084,15.751c1.297,5.176,1.15,10.771-0.367,15.898
				C237.248,131.955,235.533,131.043,233.732,130.441z"/>
		</g>
		<g>
			<path fill="#ADD3F0" d="M153.252,209.184l2.576,2.703l-1.807,3.238l1.494,0.84l1.944-3.451l1.397-0.18l-1.127,2.689l3.021-0.431
				l-0.603,1.443l-3.832,0.969l0.422,1.666l3.604-0.924l1.929,3.224l1.477-0.867l-2.014-3.408l0.565-1.359l1.726,2.275l1.108-2.771
				l1.015,1.326l-1.053,3.744l1.647,0.465l0.996-3.574l3.762-0.062l-0.019-1.717l-4.018,0.039l-0.963-1.246l2.902-0.373
				l-1.816-2.305l1.578-0.199l2.768,2.832l1.226-1.195l-2.351-2.412l-0.256-0.266l1.834-3.265l-1.49-0.838l-1.938,3.438
				l-1.615,0.217l1.15-2.742l-2.813,0.396l0.569-1.371l3.838-0.969l-0.428-1.664l-3.625,0.905l-1.902-3.207l-1.473,0.873l2.01,3.404
				l-0.619,1.483l-1.85-2.436l-1.063,2.656l-0.867-1.127l1.076-3.801l-1.648-0.472l-1.039,3.597l-3.725,0.047l0.02,1.709
				l3.957-0.039l0.924,1.207l-3.014,0.379l1.84,2.357l-1.426,0.18l-2.754-2.832L153.252,209.184z M161.227,211.121l-1.188-1.518
				l1.914-0.238l0.715-1.795l1.172,1.535l1.902-0.273l-0.74,1.779l1.188,1.518l-1.91,0.244l-0.719,1.789l-1.166-1.535l-1.91,0.273
				L161.227,211.121z"/>
			<path fill="#ADD3F0" d="M140.042,241.027l2.579,2.695l-1.812,3.239l1.498,0.838l1.944-3.442l1.403-0.183l-1.133,2.691
				l3.021-0.431l-0.603,1.443l-3.83,0.969l0.423,1.666l3.602-0.93l1.927,3.229l1.479-0.867l-2.014-3.409l0.565-1.363l1.726,2.281
				l1.106-2.774l1.017,1.325l-1.06,3.744l1.647,0.465l1.002-3.573l3.763-0.062l-0.019-1.711l-4.021,0.033l-0.957-1.246l2.902-0.373
				l-1.816-2.305l1.576-0.199l2.765,2.838l1.225-1.195l-2.346-2.418l-0.258-0.262l1.836-3.262l-1.496-0.845l-1.935,3.438
				l-1.61,0.215l1.146-2.734l-2.813,0.396l0.565-1.371l3.84-0.969l-0.426-1.666l-3.627,0.902l-1.9-3.207l-1.473,0.873l2.008,3.409
				l-0.617,1.478l-1.85-2.437l-1.07,2.662l-0.86-1.133l1.076-3.8l-1.648-0.471l-1.039,3.596l-3.725,0.048l0.018,1.709l3.959-0.033
				l0.924,1.207l-3.014,0.379l1.842,2.351l-1.428,0.182l-2.758-2.832L140.042,241.027z M148.018,242.965l-1.188-1.518l1.916-0.244
				l0.713-1.789l1.172,1.533l1.904-0.271l-0.748,1.779l1.194,1.518l-1.914,0.238l-0.715,1.795l-1.166-1.535l-1.91,0.269
				L148.018,242.965z"/>
		</g>
		<g>
			<path fill="#ADD3F0" d="M186.096,209.184l2.574,2.703l-1.807,3.238l1.488,0.84l1.948-3.451l1.398-0.18l-1.128,2.689l3.021-0.431
				l-0.598,1.443l-3.834,0.969l0.422,1.666l3.603-0.924l1.926,3.224l1.479-0.867l-2.014-3.408l0.568-1.359l1.723,2.275l1.107-2.771
				l1.016,1.326l-1.055,3.744l1.649,0.465l0.996-3.574l3.762-0.062l-0.018-1.717l-4.019,0.039l-0.963-1.246l2.902-0.373
				l-1.814-2.305l1.576-0.199l2.764,2.832l1.23-1.195l-2.352-2.412l-0.254-0.266l1.832-3.265l-1.49-0.838l-1.945,3.438l-1.609,0.217
				l1.15-2.742l-2.814,0.396l0.572-1.371l3.836-0.969l-0.422-1.664l-3.631,0.905l-1.902-3.207l-1.473,0.873l2.008,3.404
				l-0.619,1.483l-1.848-2.436l-1.064,2.656l-0.867-1.127l1.076-3.801l-1.647-0.472l-1.041,3.597l-3.72,0.047l0.015,1.709
				l3.959-0.039l0.922,1.207l-3.014,0.379l1.844,2.357l-1.429,0.18l-2.754-2.832L186.096,209.184z M194.07,211.121l-1.193-1.518
				l1.912-0.238l0.715-1.795l1.174,1.535l1.904-0.273l-0.742,1.779l1.189,1.518l-1.91,0.244l-0.719,1.789l-1.166-1.535l-1.912,0.273
				L194.07,211.121z"/>
			<path fill="#ADD3F0" d="M172.883,241.027l2.578,2.695l-1.812,3.239l1.494,0.838l1.949-3.442l1.398-0.183l-1.127,2.691l3.02-0.431
				l-0.6,1.443l-3.832,0.969l0.422,1.666l3.602-0.93l1.93,3.229l1.476-0.867l-2.014-3.409l0.565-1.363l1.726,2.281l1.11-2.774
				l1.015,1.325l-1.062,3.744l1.648,0.465l1.004-3.573l3.76-0.062l-0.018-1.711l-4.023,0.033l-0.957-1.246l2.902-0.373l-1.814-2.305
				l1.576-0.199l2.766,2.838l1.224-1.195l-2.347-2.418l-0.258-0.262l1.836-3.262l-1.496-0.845l-1.936,3.438l-1.611,0.215
				l1.146-2.734l-2.812,0.396l0.566-1.371l3.838-0.969l-0.422-1.666l-3.625,0.902l-1.904-3.207l-1.473,0.873l2.012,3.409
				l-0.623,1.478l-1.848-2.437l-1.07,2.662l-0.861-1.133l1.076-3.8l-1.646-0.471l-1.041,3.596l-3.724,0.048l0.015,1.709l3.961-0.033
				l0.924,1.207l-3.014,0.379l1.842,2.351l-1.428,0.182l-2.757-2.832L172.883,241.027z M180.859,242.965l-1.189-1.518l1.91-0.244
				l0.717-1.789l1.172,1.533l1.904-0.271l-0.748,1.779l1.195,1.518l-1.914,0.238l-0.715,1.795l-1.166-1.535l-1.912,0.269
				L180.859,242.965z"/>
		</g>
		<g>
			<path fill="#ADD3F0" d="M218.932,209.184l2.584,2.703l-1.812,3.238l1.487,0.84l1.949-3.451l1.402-0.18l-1.131,2.689l3.02-0.431
				l-0.6,1.443l-3.836,0.969l0.422,1.666l3.605-0.924l1.932,3.224l1.473-0.867l-2.014-3.408l0.57-1.359l1.721,2.275l1.111-2.771
				l1.014,1.326l-1.057,3.744l1.649,0.465l0.998-3.574l3.765-0.062l-0.021-1.717l-4.018,0.039l-0.961-1.246l2.899-0.373
				l-1.812-2.305l1.574-0.199l2.77,2.832l1.225-1.195l-2.352-2.412l-0.254-0.266l1.834-3.265l-1.494-0.838l-1.939,3.438
				l-1.611,0.217l1.148-2.742l-2.814,0.396l0.572-1.371l3.834-0.969l-0.418-1.664l-3.631,0.905l-1.904-3.207l-1.475,0.873
				l2.014,3.404l-0.623,1.483l-1.848-2.436l-1.064,2.656l-0.862-1.127l1.071-3.801l-1.646-0.472l-1.043,3.597l-3.719,0.047
				l0.014,1.709l3.959-0.039l0.925,1.207l-3.015,0.379l1.843,2.357l-1.429,0.18l-2.752-2.832L218.932,209.184z M226.91,211.121
				l-1.191-1.518l1.914-0.238l0.713-1.795l1.172,1.535l1.904-0.273l-0.744,1.779l1.193,1.518l-1.914,0.244l-0.717,1.789
				l-1.166-1.535l-1.912,0.273L226.91,211.121z"/>
			<path fill="#ADD3F0" d="M205.721,241.027l2.58,2.695l-1.812,3.239l1.503,0.838l1.94-3.442l1.402-0.183l-1.131,2.691l3.02-0.431
				l-0.6,1.443l-3.836,0.969l0.424,1.666l3.604-0.93l1.927,3.229l1.479-0.867l-2.015-3.409l0.563-1.363l1.728,2.281l1.106-2.774
				l1.015,1.325l-1.06,3.744l1.65,0.465l1.004-3.573l3.76-0.062l-0.016-1.711l-4.021,0.033l-0.957-1.246l2.898-0.373l-1.814-2.305
				l1.578-0.199l2.764,2.838l1.228-1.195l-2.348-2.418l-0.257-0.262l1.832-3.262l-1.491-0.845l-1.938,3.438l-1.611,0.215
				l1.147-2.734l-2.813,0.396l0.57-1.371l3.836-0.969l-0.425-1.666l-3.625,0.902l-1.903-3.207l-1.476,0.873l2.009,3.409
				l-0.617,1.478l-1.847-2.437l-1.067,2.662l-0.863-1.133l1.076-3.8l-1.648-0.471l-1.037,3.596l-3.727,0.048l0.018,1.709
				l3.959-0.033l0.922,1.207l-3.012,0.379l1.84,2.351l-1.424,0.182l-2.756-2.832L205.721,241.027z M213.699,242.965l-1.189-1.518
				l1.914-0.244l0.717-1.789l1.17,1.533l1.902-0.271l-0.748,1.779l1.199,1.518l-1.916,0.238l-0.715,1.795l-1.168-1.535l-1.912,0.269
				L213.699,242.965z"/>
		</g>
	</g>
</g>
</svg>
