<?xml version="1.0" encoding="utf-8"?>
<!-- Generator: Adobe Illustrator 15.0.2, SVG Export Plug-In . SVG Version: 6.00 Build 0)  -->
<!DOCTYPE svg PUBLIC "-//W3C//DTD SVG 1.1//EN" "http://www.w3.org/Graphics/SVG/1.1/DTD/svg11.dtd">
<svg version="1.1" id="Layer_1" xmlns="http://www.w3.org/2000/svg" xmlns:xlink="http://www.w3.org/1999/xlink" x="0px" y="0px"
	 width="280px" height="260px" viewBox="0 0 280 260" enable-background="new 0 0 280 260" xml:space="preserve">
<g>
	<g>
		<path fill="#FFFFFF" d="M113.212,84.729c-2.864,20.511-21.81,34.824-42.317,31.964c-20.512-2.859-34.818-21.809-31.958-42.317
			c2.857-20.514,21.803-34.822,42.315-31.96C101.762,45.276,116.069,64.217,113.212,84.729z"/>
		<g>
			<g>
				<path fill="#FFD88C" d="M126.148,90.329c6.721-1.513,15.267-1.654,25.565-0.224c-9.838-1.369-17.748-3.697-23.712-6.767h0.012
					c-9.89-4.912-7.911-15.231,6.645-19.007c-14.113,3.659-20.886-3.806-15.568-12.557c3.684-5.818,9.626-11.971,17.93-18.247
					c-8.094,6.122-15.467,10.096-21.957,12.101c-10.203,3.159-15.857-5.454-8.337-18.239C99.367,39.9,89.357,39.456,86.879,29.626
					c-1.537-6.739-1.697-15.338-0.247-25.712c-1.433,10.235-3.892,18.367-7.148,24.409c-5.042,9.029-14.915,6.811-18.589-7.353
					c3.663,14.125-3.831,20.896-12.597,15.535l0.015,0.042c-5.824-3.683-11.98-9.629-18.262-17.95
					c5.986,7.935,9.932,15.17,11.979,21.56c3.523,10.462-5.174,16.354-18.124,8.735c12.542,7.387,12.061,17.433,2.152,19.878
					c-6.729,1.523-15.294,1.672-25.63,0.23c9.857,1.375,17.774,3.706,23.738,6.785l-0.038-0.006
					c9.891,4.903,7.911,15.224-6.635,18.999c14.094-3.657,20.863,3.795,15.573,12.542c-3.682,5.82-9.63,11.973-17.946,18.256
					c7.951-6,15.199-9.945,21.593-11.992l-0.017,0.014c10.462-3.525,16.36,5.172,8.741,18.126
					c7.307-12.419,17.211-12.061,19.787-2.451c1.58,6.771,1.757,15.445,0.29,25.921c1.375-9.838,3.703-17.737,6.767-23.698l0,0
					c4.907-9.891,15.226-7.912,19.005,6.635c-3.664-14.115,3.816-20.885,12.578-15.551c5.815,3.689,11.962,9.627,18.227,17.928
					c-5.984-7.932-9.93-15.168-11.977-21.559l0.008,0.006c-3.521-10.457,5.176-16.356,18.135-8.74
					C115.684,102.824,116.186,92.744,126.148,90.329z M113.212,84.729c-2.864,20.511-21.81,34.824-42.317,31.964
					c-20.512-2.859-34.818-21.809-31.958-42.317c2.857-20.514,21.803-34.822,42.315-31.96
					C101.762,45.276,116.069,64.217,113.212,84.729z"/>
				<path fill="#FEC343" d="M106.01,83.728c-2.307,16.534-17.581,28.067-34.111,25.768c-16.536-2.312-28.072-17.586-25.764-34.117
					c2.304-16.536,17.576-28.068,34.111-25.762C96.777,51.922,108.318,67.196,106.01,83.728z"/>
			</g>
		</g>
		<g>
			<g>
				<g>
					<g>
						<path fill="#D4DAE6" d="M57.232,248.912c-1.064,0-2.146-0.209-3.191-0.639c-4.246-1.769-6.256-6.64-4.494-10.881l1.6-3.853
							c1.762-4.242,6.635-6.254,10.883-4.492c4.246,1.769,6.254,6.64,4.492,10.888l-1.598,3.84
							C63.593,246.982,60.494,248.912,57.232,248.912z M68.408,222.004c-1.062,0-2.148-0.211-3.193-0.641
							c-4.244-1.768-6.256-6.639-4.494-10.887L67.11,195.1c1.762-4.244,6.627-6.261,10.881-4.498
							c4.247,1.768,6.26,6.639,4.499,10.887l-6.389,15.377C74.767,220.072,71.669,222.004,68.408,222.004z"/>
					</g>
					<g>
						<path fill="#D4DAE6" d="M89.756,248.912c-1.066,0-2.146-0.209-3.189-0.639c-4.248-1.762-6.262-6.633-4.498-10.881l1.596-3.847
							c1.764-4.241,6.635-6.26,10.883-4.498c4.242,1.763,6.26,6.634,4.498,10.882l-1.598,3.846
							C96.119,246.982,93.018,248.912,89.756,248.912z M100.93,222.004c-1.061,0-2.146-0.211-3.191-0.641
							c-4.244-1.768-6.256-6.639-4.494-10.887l6.383-15.377c1.768-4.244,6.633-6.261,10.885-4.492
							c4.248,1.762,6.262,6.633,4.496,10.881l-6.385,15.377C107.291,220.072,104.193,222.004,100.93,222.004z"/>
					</g>
					<g>
						<path fill="#D4DAE6" d="M122.277,248.912c-1.064,0-2.146-0.209-3.188-0.639c-4.248-1.762-6.262-6.633-4.5-10.881l1.598-3.847
							c1.758-4.241,6.635-6.26,10.877-4.498c4.248,1.763,6.262,6.634,4.502,10.882l-1.596,3.846
							C128.639,246.982,125.541,248.912,122.277,248.912z M133.451,222.004c-1.062,0-2.145-0.211-3.189-0.641
							c-4.246-1.768-6.258-6.639-4.494-10.887l6.383-15.377c1.768-4.244,6.633-6.261,10.886-4.492
							c4.248,1.762,6.258,6.633,4.496,10.881l-6.389,15.377C139.814,220.072,136.717,222.004,133.451,222.004z"/>
					</g>
					<g>
						<path fill="#D4DAE6" d="M154.796,248.912c-1.063,0-2.146-0.209-3.187-0.639c-4.25-1.762-6.262-6.633-4.5-10.881l1.595-3.847
							c1.767-4.248,6.637-6.254,10.885-4.498c4.248,1.769,6.261,6.64,4.496,10.888l-1.597,3.84
							C161.163,246.982,158.062,248.912,154.796,248.912z M165.975,222.004c-1.064,0-2.144-0.211-3.191-0.641
							c-4.248-1.768-6.258-6.639-4.496-10.887l6.389-15.377c1.76-4.244,6.625-6.261,10.879-4.492
							c4.244,1.762,6.258,6.633,4.496,10.881l-6.385,15.377C172.331,220.072,169.234,222.004,165.975,222.004z"/>
					</g>
				</g>
				<g>
					<g>
						<path fill="#FFFFFF" d="M194.284,117.982c0.213,0.107,0.434,0.209,0.646,0.322c0.002-0.039,0.008-0.078,0.012-0.119
							C194.727,118.113,194.509,118.051,194.284,117.982z"/>
					</g>
					<g>
						<path fill="#FFFFFF" d="M177.259,114.32c4.923,0,9.65,0.816,14.072,2.303c-4.024-1.619-8.418-2.52-13.024-2.52
							c-1.941,0-3.847,0.164-5.691,0.469C174.134,114.412,175.688,114.32,177.259,114.32z"/>
					</g>
					<path fill="#D4DAE6" d="M278.831,166.359c-1.781-6.406-6.013-12.127-11.604-15.701c-4.882-3.166-10.994-4.713-16.855-4.242
						c-0.221-3.172-1.295-6.338-3.07-8.994c-1.031-1.564-2.322-2.984-3.834-4.227c2.107-5.154,2.68-11.01,1.605-16.549
						c-1.279-6.832-5.168-13.277-10.668-17.677c-5.203-4.227-12.025-6.65-18.717-6.65c-0.281,0-0.562,0.006-0.832,0.012
						c-5.562,0.121-11.101,1.896-15.681,5.012c-1.646-2.129-3.557-3.953-5.678-5.428c-1.101-0.773-2.297-1.477-3.67-2.145
						c-0.103-0.051-0.205-0.096-0.31-0.135l-0.182-0.078c-0.451-0.205-0.912-0.404-1.379-0.58c-0.184-0.074-0.369-0.135-0.545-0.197
						c-3.168-1.139-6.457-1.689-9.67-1.527c-0.156-0.611-0.303-1.283-0.457-2.064c-0.195-1.008-0.402-2.051-0.695-3.092
						c-0.629-2.34-1.49-4.65-2.555-6.854c-2.219-4.605-5.416-8.861-9.246-12.314c-4.053-3.662-8.934-6.514-14.123-8.246
						c-5.408-1.818-11.243-2.465-16.993-1.875c-8.971,0.883-17.779,5.029-24.168,11.373c-5.732,5.621-9.697,12.973-11.195,20.775
						c-0.996-0.197-1.965-0.295-2.947-0.295c-3.869,0-7.682,1.289-10.73,3.629c-2.234,1.67-4.076,3.895-5.325,6.426
						c-0.824,1.662-1.371,3.512-1.607,5.393c-5.943-1.535-12.301-1.467-18.197,0.152c-6.682,1.818-12.887,5.726-17.465,11.007
						c-3.646,4.184-6.291,9.207-7.645,14.52c-1.314,5.092-1.473,10.514-0.465,15.674c0.924,4.824,2.934,9.521,5.803,13.57
						c2.139,3.014,4.832,5.743,7.828,7.952c-3.334,1.5-6.182,3.998-8.086,7.097c-2.508,3.994-3.369,8.948-2.361,13.594
						c0.107,0.511,0.227,0.97,0.357,1.4l0.045,0.151c0.049,0.17,0.1,0.334,0.238,0.726l0.24,0.687
						c0.033,0.079,0.139,0.315,0.441,0.479l0.168,0.098H68.44h26.678h126.118h2.342h52.801l0.988-2.026l0.387-0.896
						c0.227-0.543,0.48-1.189,0.697-1.857C280.175,177.303,280.305,171.594,278.831,166.359z"/>
					<g>
						<path fill="#ACBAD1" d="M243.292,122.803c-0.06-0.09-0.123-0.182-0.201-0.256c0.054-0.486,0.08-0.967,0.104-1.449
							c-0.031-0.277-0.08-0.543-0.119-0.816c-0.051-0.385-0.1-0.77-0.168-1.154c-0.115-0.652-0.252-1.297-0.416-1.938
							c-1.518-6.166-5.098-11.758-10.082-15.751c-4.939-4.004-11.17-6.305-17.547-6.471c-0.322-0.008-0.643-0.014-0.963-0.014
							c-5.01,0-10.133,1.359-14.57,3.822c1.617,2.309,2.857,4.871,3.6,7.541c1.336,4.711,1.211,9.77-0.312,14.334
							c2.646,1.586,5.127,3.506,7.312,5.691c2.856,2.867,5.262,6.227,7.03,9.805c2.039-2.53,4.826-4.508,7.957-5.612
							c1.938-0.684,4.082-1.053,6.199-1.053c2.043,0,4.043,0.322,5.942,0.963c1.801,0.605,3.517,1.518,5.07,2.65
							c0.23-0.781,0.42-1.574,0.584-2.367c0.029-0.137,0.055-0.276,0.08-0.414C243.266,127.844,243.432,125.312,243.292,122.803z
							 M235.134,125.227c-14.239-0.465-25.715-11.752-26.479-25.917c2.318-0.924,4.844-1.445,7.482-1.445
							c11.206,0,20.293,9.085,20.293,20.294C236.43,120.65,235.96,123.023,235.134,125.227z"/>
						<path fill="#ACBAD1" d="M36.375,139.557c-0.016-0.125-0.025-0.248-0.037-0.379c0-0.006-0.006-0.012-0.006-0.018
							C36.349,139.291,36.359,139.422,36.375,139.557z"/>
						<path fill="#ACBAD1" d="M195.241,114.695c0,0.863-0.078,1.707-0.185,2.545h0.006c1.146,0.369,2.279,0.775,3.373,1.252
							c1.269,0.549,2.515,1.189,3.73,1.893c0.803-4.498,0.449-9.256-1.061-13.492c-1.744-4.966-5.095-9.363-9.429-12.384
							c-0.442-0.312-0.905-0.6-1.364-0.881c-0.629-0.354-1.252-0.707-1.886-1.014c-0.754-0.371-1.524-0.703-2.307-1.021
							c-2.854-1.076-5.906-1.66-8.972-1.66l-0.35,0.004c-4.742,0.037-9.617,1.48-13.719,4.068c0.426-0.268,0.873-0.5,1.314-0.742
							c2.483-0.922,5.157-1.449,7.955-1.449C184.995,91.815,195.241,102.055,195.241,114.695z"/>
						<path fill="#ACBAD1" d="M173.501,88.502c0.108-0.023,0.211-0.041,0.322-0.062c0.948-0.188,1.905-0.334,2.875-0.406
							c-0.302-0.875-0.562-1.768-0.798-2.646c-0.246-0.941-0.506-1.916-0.838-2.85c-0.742-2.201-1.688-4.355-2.809-6.4
							c-2.32-4.23-5.504-8.117-9.209-11.232c-3.883-3.277-8.492-5.816-13.318-7.346c-3.783-1.195-7.731-1.801-11.743-1.801
							c-1.33,0-2.676,0.066-3.992,0.203c-8.369,0.826-16.367,4.469-22.527,10.252c-5.723,5.318-9.82,12.438-11.531,20.045
							c-0.029,0.137-0.096,0.25-0.189,0.328c-0.586,2.674-0.912,5.432-0.955,8.211c0,0.109-0.09,0.195-0.201,0.197
							c-0.109,0-0.201-0.082-0.207-0.189c-0.158-2.82-0.008-5.65,0.432-8.416c-4.453,0.227-8.789,1.777-12.275,4.43
							c-3.428,2.582-6.1,6.27-7.604,10.432c0.025,0.018,0.062,0.023,0.086,0.047c0.711,0.643,2.637,0.914,3.559,1.312
							c1.246,0.545,2.457,1.162,3.631,1.848c2.402,1.404,4.662,3.105,6.627,5.08c1.559-0.707,2.852-2.254,4.467-3.064
							c4.014-2.009,8.023-3.417,12.668-3.394c0.039-0.025,0.072-0.047,0.109-0.072c-0.215-0.674-0.562-2.492-0.58-2.57
							c-0.131-0.662-0.244-1.332-0.334-2.002c-0.184-1.365-0.275-2.742-0.275-4.121c0-17.174,13.926-31.1,31.102-31.1
							c15.462,0,28.249,11.293,30.655,26.07C171.583,88.965,172.534,88.706,173.501,88.502z"/>
						<path fill="#ACBAD1" d="M146.708,150.059c-1.104,0-2.19,0.058-3.269,0.152c-0.012-0.402-0.03-0.805-0.03-1.213
							c0-4.252,0.778-8.32,2.172-12.092c2.928-8.559,8.66-15.174,15.901-19.271c-0.225,0.08-0.432,0.188-0.651,0.277l0.487-0.215
							c0,0-6.702,1.189-14.43,7.375c-1.229,0.984-2.484,2.096-3.738,3.348c-0.057,0.057-0.114,0.113-0.172,0.17
							c-0.619,0.623-1.237,1.268-1.851,1.959c-0.006,0.007-0.012,0.013-0.021,0.019c-0.582,0.656-1.162,1.348-1.735,2.065
							c-0.086,0.113-0.176,0.222-0.264,0.334c-0.57,0.722-1.131,1.474-1.686,2.263c-0.096,0.135-0.184,0.271-0.279,0.405
							c-0.508,0.728-1,1.484-1.494,2.271c-0.078,0.118-0.148,0.231-0.221,0.356c-0.525,0.855-1.041,1.756-1.549,2.68
							c-0.115,0.209-0.223,0.425-0.336,0.634c-0.514,0.969-1.016,1.961-1.502,3.002c-0.215,0.108-0.43,0.228-0.648,0.323
							c-2.803,1.246-5.861,1.886-8.936,1.886c-0.674,0-1.344-0.039-2.021-0.103c0,0,0,0-0.006,0
							c-4.662-0.418-8.904-2.287-12.287-5.147c-0.031-0.021-0.062-0.045-0.098-0.068c-5.361-4.37-8.785-11.027-8.785-18.486
							c0-7.816,3.775-14.738,9.582-19.087c0.453-0.119,0.814-0.252,0.934-0.391c-0.039,0.006-0.076,0.016-0.119,0.025
							c-2.334,0.506-4.609,1.26-6.756,2.242c-0.006,0.004-0.016,0.008-0.023,0.012c-0.717,0.328-1.424,0.682-2.113,1.062
							c-0.068,0.035-0.127,0.078-0.191,0.113c-0.629,0.35-1.252,0.719-1.854,1.109c-0.158,0.102-0.299,0.219-0.455,0.322
							c-0.502,0.338-1,0.68-1.48,1.043c-0.273,0.213-0.527,0.441-0.791,0.656c-0.342,0.283-0.699,0.557-1.027,0.85
							c-0.584,0.527-1.15,1.07-1.689,1.637c-4.383,4.561-7.371,10.615-8.404,17.061c-0.018,0.098-0.102,0.17-0.205,0.17
							c-0.113-0.006-0.195-0.09-0.199-0.191c-0.182-3.15,0.291-6.436,1.367-9.488c1.201-3.432,3.166-6.623,5.678-9.238
							c0.346-0.361,0.723-0.686,1.09-1.027c-3.021-2.562-6.484-4.602-10.172-6.007c-1.229-0.469-2.487-0.865-3.756-1.189
							c-0.127,0.029-0.266,0.029-0.391-0.008c-0.441-0.002-0.945-0.178-1.404-0.301c-0.002-0.002-0.008-0.002-0.018-0.002
							c-0.736-0.15-1.48-0.277-2.229-0.373c-0.006-0.004-0.008-0.004-0.012-0.006c-0.443-0.047-0.865-0.047-1.305-0.051
							c-0.199,0-0.379-0.066-0.559-0.141c-0.881-0.064-1.764-0.113-2.652-0.113c-3.338,0-6.637,0.48-9.799,1.426
							c-6.061,1.795-11.703,5.437-15.883,10.248c-3.322,3.82-5.777,8.393-7.104,13.219c-0.316,1.148-0.568,2.322-0.768,3.506
							c-0.096,0.605-0.133,1.223-0.201,1.834c-0.061,0.578-0.152,1.156-0.186,1.734c-0.049,0.813-0.029,1.637-0.018,2.45
							c0.006,0.382-0.02,0.767-0.006,1.146c0.035,0.652,0.125,1.297,0.193,1.943c0.051,0.254,0.1,0.504,0.156,0.754
							c-0.01,0.254-0.004,0.51,0,0.764c0.014,0.102,0.014,0.199,0.029,0.295c0.695,4.508,2.379,8.977,4.855,12.914
							c2.152,3.41,4.967,6.475,8.15,8.961c3.211-1.326,6.859-1.756,10.277-1.23c0.049-0.865,0.146-1.727,0.32-2.588
							c0.613-3.064,2.078-6.027,4.123-8.338c1.844-2.107,4.158-3.732,6.684-4.707c0.096-0.033,0.201,0.006,0.25,0.098
							c0.051,0.09,0.025,0.197-0.057,0.26c-4.436,3.189-7.574,7.986-8.605,13.175c-1.07,5.217-0.057,10.864,2.781,15.485
							c0.051,0.086,0.035,0.199-0.045,0.261c-0.037,0.034-0.084,0.047-0.127,0.047c-0.055,0-0.102-0.019-0.145-0.052
							c-1.955-1.893-3.449-4.288-4.322-6.944c-0.65-1.981-0.92-4.072-0.861-6.156c-0.021,0-0.039,0-0.059,0l0.059-0.067
							c0,0-0.787-0.012-2.033,0.096c-1.035,0.062-2.061,0.211-3.072,0.432c-5.916,1.139-14.842,4.758-14.814,16.25
							c-0.062,1.381,0.035,2.775,0.328,4.129c0.035,0.176,0.088,0.402,0.16,0.662c0.072,0.271,0.164,0.527,0.26,0.76l52.696,1.892
							c-0.254-1.263-0.422-2.554-0.422-3.892c0-11.057,8.957-20.012,20.012-20.012c6.938,0,13.053,3.541,16.641,8.91
							c4.162-10.529,14.413-17.994,26.422-17.994c1.689,0,3.326,0.176,4.928,0.453c0.369-0.131,0.755-0.227,1.123-0.346
							C157.368,151.281,152.186,150.059,146.708,150.059z M156.866,119.682l0.76-0.34c-0.396,0.193-0.772,0.414-1.164,0.617
							L156.866,119.682z M60.041,145.686c-7.635-2.86-13.074-10.201-13.074-18.837c0-11.119,9.014-20.137,20.133-20.137
							c6.297,0,11.914,2.889,15.604,7.414c-5.438,6.084-9.139,13.736-10.442,22.182C67.455,138.396,63.269,141.641,60.041,145.686z
							 M74.535,146.434c-0.057-0.012-0.119-0.018-0.176-0.035c0.117-0.084,0.244-0.157,0.361-0.241
							C74.66,146.246,74.591,146.342,74.535,146.434z M75.974,167.674c-3.789-6.713-3.229-14.828,3.334-21.207
							c2.131-2.072,4.743-2.889,7.327-2.662c2.191,3.801,5.273,6.935,8.92,9.521C86.861,154.488,79.576,160.033,75.974,167.674z"/>
						<path fill="#ACBAD1" d="M210.634,161.885c7.671,2.6,14.203,7.67,18.628,14.285c-0.232-1.24-0.357-2.516-0.357-3.824
							c0-11.504,9.328-20.826,20.826-20.826c11.496,0,20.821,9.322,20.821,20.826c0,4.687-1.569,8.99-4.186,12.473
							c0.899-0.032,1.788-0.062,2.692-0.096c0.562-0.018,1.121-0.041,1.683-0.057l0.659-0.023c0.316-0.012,0.707-0.062,1.07-0.039
							l1.932-0.062l0.576-1.377c0.166-0.431,0.347-0.938,0.515-1.461c0,0,0-0.006,0-0.013c0.059-0.396,0.213-0.793,0.342-1.188
							c0.047-0.176,0.104-0.346,0.147-0.521c0.076-0.328,0.142-0.656,0.209-0.984c0.056-0.266,0.111-0.533,0.158-0.799
							c0.058-0.34,0.099-0.686,0.14-1.025c0.036-0.271,0.073-0.543,0.1-0.816c0.033-0.35,0.046-0.694,0.068-1.047
							c0.012-0.26,0.032-0.526,0.032-0.787c0.013-0.362,0-0.729-0.008-1.1c-0.006-0.248-0.004-0.504-0.014-0.752
							c-0.023-0.369-0.062-0.736-0.098-1.105c-0.021-0.243-0.033-0.491-0.066-0.735c-0.053-0.396-0.125-0.787-0.188-1.178
							c-0.039-0.216-0.064-0.433-0.107-0.646c-0.125-0.6-0.268-1.2-0.432-1.795c-1.58-5.657-5.283-10.784-10.18-14.069
							c-0.673-0.453-1.363-0.859-2.068-1.246c-0.176-0.097-0.354-0.181-0.535-0.271c-0.537-0.277-1.088-0.543-1.648-0.781
							c-0.176-0.074-0.356-0.146-0.531-0.221c-0.711-0.283-1.428-0.545-2.157-0.76c-1.156-0.34-2.328-0.605-3.513-0.781
							c-2.416-0.363-4.895-0.555-7.33-0.26c-1.139,0.135-2.266,0.355-3.373,0.639c-1.127,0.289-2.233,0.652-3.315,1.088
							c-2.157,0.867-4.209,2.018-6.062,3.428c-0.088,0.066-0.207,0.052-0.277-0.028c-0.072-0.084-0.061-0.209,0.02-0.283
							c3.914-3.5,8.988-5.754,14.312-6.39c-0.674-3.075-2.027-5.94-3.965-8.319c-2.293-2.844-5.439-5.041-8.869-6.19
							c-1.943-0.65-3.994-0.98-6.086-0.98c-1.602,0-3.188,0.193-4.73,0.578c-3.016,0.76-5.852,2.254-8.25,4.34
							c0.182,0.385,0.363,0.77,0.529,1.154c1.643,3.789,2.637,7.947,2.867,12.02c0.002,0.107-0.068,0.199-0.174,0.209
							c-0.006,0-0.006-0.006-0.01-0.006c-0.011,0-0.011,0.006-0.019,0.012c-0.097,0-0.179-0.068-0.199-0.158
							c-1.856-8.225-6.127-15.99-12.014-21.856c-0.681-0.68-1.388-1.336-2.111-1.977c-0.396-0.346-0.805-0.668-1.213-1.002
							c-0.312-0.256-0.616-0.51-0.935-0.76c-0.577-0.436-1.157-0.861-1.756-1.27c-0.137-0.096-0.274-0.191-0.407-0.289
							c-0.716-0.48-1.435-0.945-2.166-1.387h-0.005c8.263,6.377,13.595,16.363,13.595,27.611c0,4.566-0.881,8.923-2.476,12.914
							C210.695,161.902,210.665,161.896,210.634,161.885z M229.352,133.484c7.223,0,13.09,5.789,13.227,12.977
							c-0.992,0.211-2.023,0.324-3.076,0.324c-7.393,0-13.498-5.434-14.588-12.523C226.305,133.768,227.794,133.484,229.352,133.484
							z"/>
					</g>
					<path fill="#231F20" d="M278.831,166.359c-1.781-6.406-6.013-12.127-11.604-15.701c-4.882-3.166-10.994-4.713-16.855-4.242
						c-0.221-3.172-1.295-6.338-3.07-8.994c-1.031-1.564-2.322-2.984-3.834-4.227c2.107-5.154,2.68-11.01,1.605-16.549
						c-1.279-6.832-5.168-13.277-10.668-17.677c-5.203-4.227-12.025-6.65-18.717-6.65c-0.281,0-0.562,0.006-0.832,0.012
						c-5.562,0.121-11.101,1.896-15.681,5.012c-1.646-2.129-3.557-3.953-5.678-5.428c-1.101-0.773-2.297-1.477-3.67-2.145
						c-0.103-0.051-0.205-0.096-0.31-0.135l-0.182-0.078c-0.451-0.205-0.912-0.404-1.379-0.58c-0.184-0.074-0.369-0.135-0.545-0.197
						c-3.168-1.139-6.457-1.689-9.67-1.527c-0.156-0.611-0.303-1.283-0.457-2.064c-0.195-1.008-0.402-2.051-0.695-3.092
						c-0.629-2.34-1.49-4.65-2.555-6.854c-2.219-4.605-5.416-8.861-9.246-12.314c-4.053-3.662-8.934-6.514-14.123-8.246
						c-5.408-1.818-11.243-2.465-16.993-1.875c-8.971,0.883-17.779,5.029-24.168,11.373c-5.732,5.621-9.697,12.973-11.195,20.775
						c-0.996-0.197-1.965-0.295-2.947-0.295c-3.869,0-7.682,1.289-10.73,3.629c-2.234,1.67-4.076,3.895-5.325,6.426
						c-0.824,1.662-1.371,3.512-1.607,5.393c-5.943-1.535-12.301-1.467-18.197,0.152c-6.682,1.818-12.887,5.726-17.465,11.007
						c-3.646,4.184-6.291,9.207-7.645,14.52c-1.314,5.092-1.473,10.514-0.465,15.674c0.924,4.824,2.934,9.521,5.803,13.57
						c2.139,3.014,4.832,5.743,7.828,7.952c-3.334,1.5-6.182,3.998-8.086,7.097c-2.508,3.994-3.369,8.948-2.361,13.594
						c0.107,0.511,0.227,0.97,0.357,1.4l0.045,0.151c0.049,0.17,0.1,0.334,0.238,0.726l0.24,0.687
						c0.033,0.079,0.139,0.315,0.441,0.479l0.168,0.098h56.516l-0.26-0.729h-0.777c-0.027-0.074-0.084-0.137-0.17-0.137
						l-53.282-1.914c-0.096-0.232-0.188-0.488-0.26-0.761c-0.072-0.26-0.125-0.485-0.16-0.661c-0.293-1.354-0.391-2.748-0.328-4.13
						c-0.027-11.491,8.898-15.11,14.814-16.25c1.012-0.221,2.037-0.368,3.072-0.432c1.246-0.107,2.033-0.097,2.033-0.097
						s-0.059,0.068,0,0.068c-0.059,2.084,0.211,4.174,0.861,6.156c0.873,2.656,2.367,5.053,4.322,6.945
						c0.043,0.033,0.09,0.051,0.145,0.051c0.043,0,0.09-0.012,0.127-0.047c0.08-0.062,0.096-0.174,0.045-0.26
						c-2.838-4.621-3.852-10.271-2.781-15.486c1.031-5.188,4.17-9.984,8.605-13.174c0.082-0.062,0.107-0.17,0.057-0.26
						c-0.049-0.093-0.154-0.132-0.25-0.099c-2.525,0.976-4.84,2.601-6.684,4.707c-2.045,2.312-3.51,5.272-4.123,8.338
						c-0.174,0.861-0.271,1.724-0.32,2.588c-3.418-0.524-7.066-0.096-10.277,1.229c-3.184-2.485-5.998-5.551-8.15-8.961
						c-2.477-3.938-4.16-8.405-4.855-12.914c-0.764-4.793-0.48-9.78,0.799-14.425c1.326-4.826,3.781-9.398,7.104-13.219
						c4.18-4.811,9.822-8.453,15.883-10.248c3.162-0.945,6.461-1.426,9.799-1.426c2.771,0,5.52,0.332,8.178,0.986
						c0.125,0.037,0.264,0.037,0.391,0.008c5.083,1.293,9.901,3.779,13.928,7.197c-0.367,0.342-0.744,0.666-1.09,1.027
						c-2.512,2.615-4.477,5.807-5.678,9.238c-1.076,3.053-1.549,6.338-1.367,9.488c0.004,0.102,0.086,0.186,0.199,0.191
						c0.104,0,0.188-0.072,0.205-0.17c1.033-6.445,4.021-12.5,8.404-17.061c4.336-4.559,10.262-7.798,16.684-9.119
						c0.1-0.021,0.168-0.115,0.162-0.217c-0.012-0.105-0.096-0.184-0.203-0.184c-3.127-0.055-6.418,0.561-9.42,1.764
						c-2.781,1.101-5.367,2.75-7.623,4.744c-3.852-3.807-8.645-6.667-13.858-8.269c-0.023-0.023-0.061-0.029-0.086-0.047
						c1.504-4.162,4.176-7.85,7.604-10.432c3.486-2.652,7.822-4.203,12.275-4.43c-0.439,2.766-0.59,5.596-0.432,8.416
						c0.006,0.107,0.098,0.189,0.207,0.189c0.111-0.002,0.201-0.088,0.201-0.197c0.043-2.779,0.369-5.537,0.955-8.211
						c0.094-0.078,0.16-0.191,0.189-0.328c1.711-7.607,5.809-14.727,11.531-20.045c6.16-5.783,14.158-9.426,22.527-10.252
						c1.316-0.137,2.662-0.203,3.992-0.203c4.011,0,7.959,0.605,11.743,1.801c4.826,1.529,9.437,4.068,13.318,7.346
						c3.705,3.115,6.889,7.002,9.209,11.232c1.121,2.045,2.066,4.199,2.809,6.4c0.332,0.934,0.592,1.908,0.838,2.85
						c0.236,0.879,0.496,1.771,0.797,2.646c-5.096,0.377-10.016,2.383-13.854,5.648c-0.082,0.066-0.096,0.189-0.033,0.273
						c0.062,0.086,0.183,0.107,0.271,0.051c4.102-2.588,8.977-4.031,13.719-4.068l0.35-0.004c3.064,0,6.117,0.584,8.972,1.66
						c0.78,0.316,1.553,0.648,2.307,1.02c0.634,0.307,1.257,0.66,1.886,1.014c0.459,0.281,0.922,0.568,1.364,0.881
						c4.334,3.021,7.685,7.418,9.429,12.384c1.51,4.236,1.862,8.994,1.061,13.492c-1.217-0.703-2.463-1.344-3.73-1.893
						c-3.783-1.648-7.936-2.65-12.012-2.895c-0.098,0-0.195,0.068-0.211,0.176c-0.012,0.102,0.057,0.199,0.158,0.227
						c8.219,1.881,15.967,6.168,21.828,12.07c5.887,5.868,10.156,13.633,12.014,21.857c0.021,0.09,0.104,0.158,0.227,0.152
						c0.105-0.011,0.177-0.103,0.175-0.21c-0.23-4.071-1.226-8.229-2.867-12.02c-0.166-0.385-0.349-0.77-0.529-1.154
						c2.398-2.086,5.234-3.58,8.25-4.34c1.544-0.385,3.13-0.578,4.73-0.578c2.092,0,4.143,0.33,6.086,0.98
						c3.43,1.15,6.575,3.348,8.868,6.191c1.938,2.379,3.291,5.244,3.966,8.32c-5.324,0.635-10.397,2.889-14.312,6.389
						c-0.08,0.074-0.093,0.199-0.021,0.283c0.069,0.08,0.188,0.096,0.276,0.028c3.689-2.805,8.152-4.594,12.752-5.153
						c2.437-0.295,4.914-0.104,7.33,0.26c2.332,0.346,4.621,1.024,6.771,1.994c1.281,0.584,2.518,1.272,3.682,2.065
						c4.896,3.285,8.601,8.412,10.18,14.07c1.304,4.645,1.23,9.713-0.215,14.284c-0.182,0.595-0.396,1.185-0.584,1.67l-0.576,1.378
						l-51.963,1.801c-0.088,0.006-0.146,0.067-0.176,0.144h-0.77l-0.258,0.729h55.143l0.988-2.026l0.387-0.896
						c0.227-0.543,0.48-1.189,0.697-1.857C280.175,177.303,280.305,171.594,278.831,166.359z M237.059,130.443
						c-1.9-0.641-3.9-0.963-5.943-0.963c-2.117,0-4.262,0.369-6.199,1.053c-3.131,1.105-5.918,3.082-7.957,5.613
						c-1.77-3.578-4.174-6.938-7.031-9.806c-2.184-2.186-4.666-4.105-7.311-5.691c1.523-4.564,1.648-9.623,0.312-14.334
						c-0.742-2.669-1.982-5.232-3.601-7.541c4.438-2.463,9.562-3.822,14.569-3.822c0.32,0,0.642,0.006,0.963,0.014
						c6.377,0.166,12.607,2.467,17.548,6.471c4.983,3.994,8.563,9.585,10.082,15.751c1.301,5.178,1.155,10.768-0.363,15.904
						C240.573,131.961,238.857,131.049,237.059,130.443z"/>
				</g>
				<g>
					<g>
						<g>
							<path fill="#231F20" d="M72.376,212.969c0.188-3.652,1.982-11.238,3.422-17.49c-3.494,5.558-7.629,12.224-10.121,14.972
								h-0.006c-0.215,0.276-0.408,0.588-0.553,0.934c-0.795,1.927,0.121,4.13,2.047,4.929c1.924,0.799,4.131-0.113,4.928-2.039
								C72.269,213.842,72.361,213.404,72.376,212.969L72.376,212.969z"/>
							<path fill="#FFFFFF" d="M68.912,212.844c0.072-1.455,0.789-4.486,1.365-6.994c-1.4,2.226-3.055,4.894-4.051,5.992l0,0
								c-0.084,0.113-0.164,0.232-0.221,0.373c-0.316,0.771,0.045,1.654,0.82,1.967c0.766,0.322,1.648-0.041,1.967-0.811
								C68.865,213.201,68.902,213.025,68.912,212.844L68.912,212.844z"/>
							<g>
								<path fill="#231F20" d="M60.478,232.465c-1.973,2.084-3.965,3.869-5.777,5.199v0.006c-0.453,0.373-0.824,0.867-1.068,1.455
									c-0.797,1.92,0.115,4.129,2.041,4.934c1.926,0.793,4.133-0.125,4.932-2.051c0.273-0.662,0.34-1.369,0.234-2.033
									C60.529,237.801,60.39,235.211,60.478,232.465z"/>
							</g>
							<g>
								<path fill="#FFFFFF" d="M57.542,237.08c-0.789,0.834-1.592,1.553-2.316,2.08v0.006c-0.182,0.146-0.328,0.344-0.424,0.576
									c-0.318,0.771,0.045,1.654,0.818,1.977c0.768,0.318,1.65-0.051,1.971-0.82c0.111-0.266,0.139-0.543,0.094-0.815
									C57.56,239.211,57.503,238.186,57.542,237.08z"/>
							</g>
						</g>
					</g>
					<g>
						<g>
							<path fill="#231F20" d="M104.98,212.969c0.188-3.652,1.984-11.238,3.418-17.49c-3.488,5.558-7.627,12.224-10.113,14.972
								h-0.008c-0.215,0.276-0.412,0.588-0.553,0.934c-0.795,1.927,0.119,4.13,2.045,4.929c1.926,0.799,4.135-0.113,4.934-2.039
								C104.879,213.842,104.967,213.404,104.98,212.969L104.98,212.969z"/>
							<path fill="#FFFFFF" d="M101.514,212.844c0.074-1.455,0.793-4.486,1.365-6.994c-1.396,2.226-3.047,4.894-4.045,5.992l0,0
								c-0.088,0.113-0.164,0.232-0.223,0.373c-0.32,0.771,0.047,1.654,0.82,1.967c0.766,0.322,1.652-0.041,1.969-0.811
								C101.475,213.201,101.506,213.025,101.514,212.844L101.514,212.844z"/>
							<g>
								<path fill="#231F20" d="M93.08,232.465c-1.965,2.084-3.963,3.869-5.777,5.199v0.006c-0.453,0.373-0.822,0.867-1.07,1.455
									c-0.793,1.92,0.125,4.129,2.047,4.934c1.924,0.793,4.133-0.125,4.932-2.051c0.277-0.662,0.34-1.369,0.234-2.033
									C93.129,237.801,92.994,235.211,93.08,232.465z"/>
							</g>
							<g>
								<path fill="#FFFFFF" d="M90.143,237.08c-0.783,0.834-1.582,1.553-2.311,2.08v0.006c-0.182,0.146-0.326,0.344-0.424,0.576
									c-0.318,0.771,0.047,1.654,0.818,1.977c0.768,0.318,1.652-0.051,1.971-0.82c0.107-0.266,0.133-0.543,0.09-0.815
									C90.166,239.211,90.111,238.186,90.143,237.08z"/>
							</g>
						</g>
					</g>
					<g>
						<g>
							<path fill="#231F20" d="M137.588,212.969c0.182-3.652,1.982-11.238,3.416-17.49c-3.49,5.558-7.627,12.224-10.119,14.972
								h-0.002c-0.223,0.276-0.414,0.588-0.553,0.934c-0.797,1.927,0.119,4.13,2.047,4.929c1.926,0.799,4.129-0.113,4.928-2.039
								C137.48,213.842,137.57,213.404,137.588,212.969L137.588,212.969z"/>
							<path fill="#FFFFFF" d="M134.121,212.844c0.072-1.455,0.787-4.486,1.365-6.994c-1.398,2.226-3.053,4.894-4.049,5.992l0,0
								c-0.088,0.113-0.164,0.232-0.221,0.373c-0.32,0.771,0.045,1.654,0.814,1.967c0.771,0.322,1.654-0.041,1.975-0.811
								C134.076,213.201,134.111,213.025,134.121,212.844L134.121,212.844z"/>
							<g>
								<path fill="#231F20" d="M125.688,232.465c-1.967,2.084-3.965,3.869-5.777,5.199v0.006c-0.455,0.373-0.824,0.867-1.07,1.455
									c-0.793,1.92,0.119,4.129,2.045,4.934c1.926,0.793,4.135-0.125,4.928-2.051c0.275-0.662,0.344-1.369,0.238-2.033
									C125.732,237.801,125.6,235.211,125.688,232.465z"/>
							</g>
							<g>
								<path fill="#FFFFFF" d="M122.748,237.08c-0.787,0.834-1.582,1.553-2.311,2.08v0.006c-0.182,0.146-0.326,0.344-0.426,0.576
									c-0.322,0.771,0.047,1.654,0.816,1.977c0.77,0.318,1.656-0.051,1.971-0.82c0.111-0.266,0.137-0.543,0.098-0.815
									C122.771,239.211,122.715,238.186,122.748,237.08z"/>
							</g>
						</g>
					</g>
					<g>
						<g>
							<path fill="#231F20" d="M170.189,212.969c0.187-3.652,1.982-11.238,3.414-17.49c-3.481,5.558-7.623,12.224-10.112,14.972
								h-0.007c-0.215,0.276-0.407,0.588-0.549,0.934c-0.793,1.927,0.119,4.13,2.043,4.929c1.922,0.799,4.131-0.113,4.929-2.039
								C170.087,213.842,170.173,213.404,170.189,212.969L170.189,212.969z"/>
							<path fill="#FFFFFF" d="M166.725,212.844c0.071-1.455,0.793-4.486,1.364-6.994c-1.396,2.226-3.051,4.894-4.045,5.992l0,0
								c-0.088,0.113-0.164,0.232-0.221,0.373c-0.32,0.771,0.047,1.654,0.817,1.967c0.767,0.322,1.646-0.041,1.969-0.811
								C166.68,213.201,166.714,213.025,166.725,212.844L166.725,212.844z"/>
							<g>
								<path fill="#231F20" d="M158.292,232.465c-1.974,2.084-3.965,3.869-5.776,5.199v0.006c-0.453,0.373-0.822,0.867-1.068,1.455
									c-0.795,1.92,0.121,4.129,2.047,4.934c1.92,0.793,4.129-0.125,4.922-2.051c0.279-0.662,0.346-1.369,0.244-2.033
									C158.343,237.801,158.206,235.211,158.292,232.465z"/>
							</g>
							<g>
								<path fill="#FFFFFF" d="M155.355,237.08c-0.787,0.834-1.586,1.553-2.312,2.08v0.006c-0.185,0.146-0.326,0.344-0.428,0.576
									c-0.318,0.771,0.045,1.654,0.819,1.977c0.767,0.318,1.648-0.051,1.974-0.82c0.106-0.266,0.135-0.543,0.092-0.815
									C155.378,239.211,155.32,238.186,155.355,237.08z"/>
							</g>
						</g>
					</g>
				</g>
			</g>
			<g>
				<polygon fill="#FFDFA0" points="212.184,196.855 221.188,187.135 199.562,187.135 187.923,210.572 201.729,210.572 
					191.477,231.869 205.271,231.869 194.292,255.336 223.296,218.338 210.37,218.338 224.755,196.855 				"/>
				<polygon fill="#231F20" points="218.468,195.818 215.327,195.783 214.146,195.75 223.46,186.314 219.775,186.443 
					210.212,197.971 218.468,197.908 222.911,197.84 209.034,219.059 222.134,218.922 194.282,255.33 224.423,217.771 
					211.689,217.637 226.581,195.887 				"/>
				<polygon fill="#231F20" points="202.816,209.887 189.227,209.752 201.012,187.027 198.012,187.129 186.632,211.377 
					200.65,211.246 190.759,232.316 204.764,232.188 194.302,255.336 205.8,231.535 192.212,231.406 				"/>
			</g>
			<polygon fill="#231F20" points="181.184,186.869 180.927,187.215 200.911,187.215 201.677,185.662 			"/>
		</g>
	</g>
</g>
</svg>
