<?xml version="1.0" encoding="utf-8"?>
<!-- Generator: Adobe Illustrator 15.0.2, SVG Export Plug-In . SVG Version: 6.00 Build 0)  -->
<!DOCTYPE svg PUBLIC "-//W3C//DTD SVG 1.1//EN" "http://www.w3.org/Graphics/SVG/1.1/DTD/svg11.dtd">
<svg version="1.1" id="Layer_1" xmlns="http://www.w3.org/2000/svg" xmlns:xlink="http://www.w3.org/1999/xlink" x="0px" y="0px"
	 width="280px" height="260px" viewBox="0 0 280 260" enable-background="new 0 0 280 260" xml:space="preserve">
<g>
	<path fill="#3479BE" d="M34.771,146.379c34.461,1.498,74.74,2.365,117.78,2.365c43.047,0,83.319-0.867,117.774-2.365
		c-34.455-1.498-74.729-2.355-117.774-2.355C109.512,144.023,69.232,144.881,34.771,146.379z"/>
	<path fill="#3479BE" d="M32.293,139.418c35.41,1.494,76.793,2.359,121.021,2.359c44.228,0,85.611-0.865,121.02-2.359
		c-35.406-1.504-76.789-2.361-121.02-2.361C109.086,137.057,67.703,137.914,32.293,139.418z"/>
	<path fill="#3479BE" d="M36.133,132.451c35.328,1.498,76.625,2.359,120.748,2.359c44.135,0,85.432-0.861,120.758-2.359
		c-35.326-1.504-76.623-2.367-120.758-2.367C112.758,130.084,71.461,130.947,36.133,132.451z"/>
	<path fill="#3479BE" d="M20.676,125.486c37.797,1.496,81.969,2.359,129.178,2.359c47.211,0,91.383-0.863,129.176-2.359
		c-37.793-1.5-81.965-2.361-129.176-2.361C102.644,123.125,58.472,123.986,20.676,125.486z"/>
	<path fill="#3479BE" d="M10.685,118.514c39.109,1.508,84.816,2.369,133.667,2.369c48.854,0,94.561-0.861,133.664-2.369
		c-39.104-1.498-84.81-2.355-133.664-2.355C95.502,116.158,49.795,117.016,10.685,118.514z"/>
	<path fill="#3479BE" d="M10.453,111.557c37.961,1.492,82.342,2.359,129.76,2.359c47.423,0,91.796-0.867,129.755-2.359
		c-37.959-1.498-82.331-2.365-129.755-2.365C92.795,109.191,48.414,110.059,10.453,111.557z"/>
	<path fill="#3479BE" d="M5.053,104.59c39.283,1.5,85.207,2.361,134.28,2.361c49.074,0,94.996-0.861,134.276-2.361
		c-39.28-1.498-85.202-2.359-134.276-2.359C90.26,102.23,44.336,103.092,5.053,104.59z"/>
	<path fill="#3479BE" d="M2.322,97.623c38.232,1.498,82.916,2.359,130.667,2.359c47.759,0,92.433-0.861,130.667-2.359
		c-38.234-1.498-82.908-2.365-130.667-2.365C85.238,95.258,40.554,96.125,2.322,97.623z"/>
	<path fill="#3479BE" d="M26.553,90.656c35.48,1.504,76.943,2.367,121.255,2.367c44.32,0,85.779-0.863,121.258-2.367
		c-35.479-1.498-76.938-2.354-121.258-2.354C103.496,88.303,62.033,89.158,26.553,90.656z"/>
	<path fill="#3479BE" d="M27.187,83.697c34.188,1.496,74.156,2.357,116.868,2.357c42.709,0,82.672-0.861,116.86-2.357
		c-34.188-1.506-74.151-2.365-116.86-2.365C101.344,81.332,61.375,82.191,27.187,83.697z"/>
	<path fill="#3479BE" d="M7.369,76.729c35.391,1.498,76.77,2.359,120.985,2.359c44.222,0,85.593-0.861,120.996-2.359
		c-35.399-1.498-76.771-2.359-120.996-2.359C84.138,74.369,42.76,75.23,7.369,76.729z"/>
	<path fill="#3479BE" d="M26.324,69.768c30.234,1.494,65.559,2.355,103.315,2.355c37.755,0,73.093-0.861,103.322-2.355
		c-30.229-1.502-65.566-2.365-103.322-2.365C91.883,67.402,56.558,68.266,26.324,69.768z"/>
	<path fill="#3479BE" d="M29.637,62.795c28.717,1.504,62.279,2.367,98.151,2.367c35.875,0,69.437-0.863,98.151-2.367
		c-28.715-1.502-62.276-2.359-98.151-2.359C91.916,60.436,58.353,61.293,29.637,62.795z"/>
	<path fill="#3479BE" d="M26.873,55.834c26.504,1.492,57.484,2.361,90.596,2.361c33.113,0,64.098-0.869,90.607-2.361
		c-26.51-1.5-57.494-2.359-90.607-2.359C84.357,53.475,53.377,54.334,26.873,55.834z"/>
	<path fill="#3479BE" d="M24.804,48.869c24.875,1.498,53.957,2.365,85.027,2.365c31.077,0,60.144-0.867,85.021-2.365
		c-24.877-1.502-53.941-2.359-85.021-2.359C78.762,46.51,49.679,47.367,24.804,48.869z"/>
	<path fill="#3479BE" d="M33.523,41.904c23.598,1.498,51.188,2.357,80.665,2.357c29.49,0,57.074-0.859,80.675-2.357
		c-23.604-1.504-51.188-2.361-80.675-2.361C84.711,39.543,57.121,40.4,33.523,41.904z"/>
	<path fill="#3479BE" d="M48.277,34.938c21.252,1.498,46.092,2.365,72.647,2.365c26.549,0,51.389-0.867,72.639-2.365
		c-21.25-1.498-46.09-2.357-72.639-2.357C94.369,32.58,69.529,33.439,48.277,34.938z"/>
	<path fill="#3479BE" d="M62.619,27.975c15.426,1.5,33.443,2.361,52.704,2.361c19.268,0,37.288-0.861,52.716-2.361
		c-15.428-1.504-33.449-2.361-52.716-2.361C96.062,25.613,78.045,26.471,62.619,27.975z"/>
	<path fill="#3479BE" d="M56.439,21.004c13.678,1.498,29.666,2.369,46.746,2.369c17.084,0,33.073-0.871,46.749-2.369
		c-13.675-1.492-29.665-2.357-46.749-2.357C86.105,18.646,70.117,19.512,56.439,21.004z"/>
	<path fill="#3479BE" d="M64.256,14.043c10.354,1.502,22.449,2.363,35.387,2.363c12.928,0,25.03-0.861,35.381-2.363
		c-10.352-1.494-22.454-2.359-35.381-2.359C86.705,11.684,74.609,12.549,64.256,14.043z"/>
</g>
<g>
	<path fill="#D4DAE6" d="M144.25,117.443c-1.029-3.691-3.464-6.988-6.689-9.051c-2.822-1.83-6.35-2.719-9.727-2.447
		c-0.123-1.828-0.746-3.656-1.771-5.188c-0.596-0.9-1.338-1.719-2.215-2.436c1.217-2.975,1.549-6.352,0.928-9.545
		c-0.736-3.941-2.979-7.656-6.148-10.195c-2.998-2.436-6.937-3.834-10.792-3.834c-0.164,0-0.328,0.004-0.482,0.008
		c-3.209,0.066-6.398,1.092-9.043,2.889c-0.947-1.225-2.049-2.279-3.275-3.129c-0.631-0.447-1.322-0.852-2.111-1.24
		c-0.062-0.027-0.119-0.051-0.182-0.074l-0.102-0.045c-0.268-0.119-0.527-0.232-0.797-0.336c-0.109-0.041-0.211-0.078-0.316-0.113
		c-1.824-0.658-3.725-0.973-5.576-0.881c-0.088-0.352-0.174-0.74-0.262-1.189c-0.113-0.584-0.23-1.184-0.4-1.785
		c-0.365-1.35-0.859-2.68-1.477-3.953c-1.277-2.654-3.121-5.109-5.33-7.1c-2.338-2.109-5.15-3.758-8.146-4.756
		c-3.115-1.047-6.48-1.422-9.799-1.082c-5.172,0.51-10.256,2.9-13.934,6.561c-3.309,3.238-5.594,7.48-6.463,11.982
		c-0.57-0.117-1.131-0.174-1.697-0.174c-2.23,0-4.432,0.744-6.188,2.094c-1.289,0.965-2.352,2.244-3.07,3.707
		c-0.477,0.957-0.787,2.021-0.926,3.109c-3.43-0.885-7.094-0.848-10.49,0.084c-3.854,1.051-7.434,3.305-10.078,6.35
		c-2.1,2.414-3.625,5.312-4.408,8.377c-0.752,2.936-0.846,6.061-0.266,9.035c0.533,2.787,1.688,5.494,3.348,7.828
		c1.234,1.738,2.787,3.312,4.508,4.582c-1.916,0.869-3.562,2.311-4.658,4.094c-1.447,2.303-1.939,5.164-1.361,7.842
		c0.062,0.295,0.129,0.559,0.207,0.809l0.025,0.084c0.027,0.098,0.057,0.193,0.135,0.42l0.139,0.396
		c0.02,0.045,0.082,0.182,0.256,0.277l0.096,0.053h17.211h15.383h72.73h1.35h30.453l0.571-1.166l0.224-0.518
		c0.125-0.312,0.271-0.686,0.396-1.07C145.021,123.76,145.1,120.463,144.25,117.443z"/>
	<path fill="#ACBAD1" d="M100.298,91.086c1.523,0.916,2.953,2.02,4.213,3.283c1.648,1.65,3.037,3.59,4.051,5.654
		c1.178-1.461,2.789-2.602,4.596-3.236c1.115-0.396,2.353-0.609,3.57-0.609c1.18,0,2.334,0.189,3.428,0.559
		c1.043,0.346,2.031,0.873,2.922,1.523c0.572-1.914,0.785-3.936,0.674-5.934c-0.033-0.053-0.07-0.104-0.113-0.146
		c0.029-0.281,0.043-0.559,0.057-0.838c-0.084-0.76-0.221-1.514-0.4-2.252c-0.879-3.555-2.945-6.779-5.818-9.086
		c-2.844-2.305-6.441-3.631-10.119-3.729c-0.186-0.006-0.367-0.01-0.557-0.01c-2.889,0-5.84,0.785-8.4,2.203
		c0.93,1.334,1.648,2.811,2.078,4.352C101.245,85.539,101.175,88.455,100.298,91.086z M107.454,78.152
		c6.464,0,11.705,5.24,11.705,11.701c0,1.438-0.275,2.811-0.748,4.078c-8.21-0.266-14.828-6.775-15.271-14.947
		C104.477,78.453,105.93,78.152,107.454,78.152z"/>
	<path fill="#ACBAD1" d="M99.425,83.154c-1.008-2.867-2.939-5.404-5.438-7.143c-0.256-0.182-0.523-0.346-0.787-0.51
		c-0.359-0.205-0.725-0.406-1.088-0.584c-0.43-0.215-0.877-0.404-1.328-0.59c-1.645-0.619-3.406-0.957-5.172-0.957l-0.201,0.004
		c-2.424,0.02-4.881,0.705-7.062,1.889c1.408-0.51,2.918-0.807,4.492-0.807c7.293,0,13.203,5.904,13.203,13.193
		c0,0.5-0.047,0.986-0.107,1.467c0.662,0.217,1.318,0.449,1.951,0.727c0.732,0.316,1.447,0.686,2.148,1.092
		C100.501,88.34,100.298,85.596,99.425,83.154z"/>
	<path fill="#ACBAD1" d="M144.561,120.027c0-0.617-0.188-1.156-0.312-1.756c-0.047-0.232-0.094-0.471-0.153-0.709
		c-0.105-0.439-0.228-0.877-0.402-1.271c-0.166-0.365-0.396-0.705-0.549-1.072c-0.42-0.988-0.851-1.822-1.512-2.668
		c-0.709-0.904-1.402-1.756-2.368-2.385c-0.412-0.266-0.879-0.391-1.299-0.635c-0.479-0.271-0.934-0.527-1.424-0.781
		c-0.58-0.301-1.164-0.572-1.758-0.832c-1.666-0.723-3.559-1.205-5.365-1.355c-0.566-0.045-1.148-0.02-1.699-0.189
		c-0.234-0.072-0.588-0.207-0.732-0.428c-0.131-0.209-0.158-0.576-0.24-0.818c-0.438-1.266-1.082-2.449-1.922-3.486
		c-1.324-1.643-3.137-2.91-5.119-3.568c-1.121-0.379-2.301-0.568-3.51-0.568c-0.922,0-1.838,0.113-2.727,0.336
		c-1.738,0.434-3.373,1.299-4.757,2.498c0.107,0.225,0.209,0.445,0.307,0.67c0.947,2.186,1.52,4.582,1.652,6.926
		c0.006,0.062-0.039,0.117-0.113,0.125c-0.057,0-0.107-0.033-0.113-0.09c-1.076-4.742-3.533-9.219-6.932-12.604
		c-0.385-0.391-0.793-0.764-1.209-1.133c-0.236-0.203-0.479-0.396-0.717-0.594c-0.17-0.143-0.344-0.283-0.516-0.42
		c-0.34-0.26-0.688-0.51-1.037-0.754c-0.074-0.047-0.141-0.102-0.217-0.15c-0.412-0.279-0.83-0.545-1.256-0.803
		c4.758,3.678,7.84,9.436,7.84,15.924c0,1.908-0.277,3.75-0.777,5.496c4.416,0.191,8.474,1.711,11.798,4.182
		c2.516-3.914,6.893-6.514,11.895-6.514c7.822,0,14.161,6.338,14.161,14.156c0,1.652-0.295,3.229-0.813,4.701
		c0.078-0.051,0.146-0.125,0.215-0.27c0.15-0.303,0.336-0.625,0.438-0.947c0.096-0.328,0.125-0.646,0.281-0.957
		c0.098-0.18,0.312-0.332,0.379-0.496c0.1-0.227-0.062-0.152-0.105-0.389c-0.057-0.271,0.148-0.844,0.221-1.109
		c0.133-0.539,0.331-1.008,0.408-1.553c0.08-0.504,0.02-1.041,0.035-1.551C144.566,121.465,144.561,120.746,144.561,120.027z
		 M122.006,106.213c-4.26,0-7.787-3.133-8.41-7.223c0.801-0.283,1.658-0.447,2.561-0.447c4.16,0,7.543,3.336,7.623,7.482
		C123.211,106.15,122.617,106.213,122.006,106.213z"/>
	<path fill="#ACBAD1" d="M68.139,107.521c-0.758-0.132-1.52-0.255-2.277-0.382c-5.24-0.876-11.176-0.528-16.253-1.84
		c-1.51-0.391-2.448-1.625-3.796-2.168c-0.02-0.008-0.033-0.023-0.057-0.033c-3.092-2.527-5.062-6.365-5.062-10.666
		c0-4.508,2.174-8.496,5.521-11.006c0.264-0.072,0.471-0.146,0.539-0.227c-3.66,0.773-7.035,2.629-9.51,5.234
		c-2.535,2.627-4.254,6.117-4.85,9.836c-0.01,0.057-0.059,0.098-0.119,0.098c-0.064-0.004-0.113-0.051-0.115-0.109
		c-0.105-1.816,0.168-3.711,0.785-5.475c0.695-1.977,1.828-3.818,3.273-5.324c0.203-0.209,0.422-0.396,0.635-0.592
		c-2.326-1.975-5.104-3.406-8.037-4.148c-0.074,0.014-0.148,0.012-0.223-0.006c-0.254-0.006-0.545-0.107-0.809-0.176
		c-0.434-0.086-0.863-0.158-1.301-0.219c-0.258-0.027-0.5-0.025-0.756-0.031c-0.113,0-0.221-0.037-0.322-0.078
		c-0.508-0.041-1.014-0.066-1.529-0.066c-1.926,0-3.824,0.275-5.652,0.818c-3.49,1.041-6.746,3.139-9.16,5.914
		c-1.914,2.203-3.33,4.838-4.09,7.621c-0.65,2.342-0.82,4.834-0.57,7.275c0.031,0.143,0.057,0.289,0.088,0.43
		c-0.006,0.162,0,0.324,0,0.488c0.008,0.043,0.008,0.084,0.02,0.127c0.402,2.6,1.369,5.174,2.803,7.445
		c1.234,1.965,2.861,3.732,4.695,5.168c1.854-0.762,3.959-1.01,5.932-0.705c0.021-0.504,0.078-1.002,0.18-1.494
		c0.355-1.768,1.201-3.473,2.379-4.809c1.062-1.219,2.396-2.152,3.852-2.713c0.062-0.023,0.119,0.002,0.148,0.053
		c0.027,0.055,0.012,0.117-0.035,0.15c-2.559,1.838-4.367,4.605-4.961,7.596c-0.621,3.01-0.033,6.264,1.604,8.932
		c0.027,0.051,0.02,0.117-0.029,0.152c-0.02,0.018-0.045,0.023-0.07,0.023c-0.031,0-0.061-0.008-0.082-0.031
		c-1.127-1.084-1.988-2.473-2.492-4.002c-0.375-1.145-0.533-2.348-0.492-3.551c-0.018,0-0.029,0-0.041,0l0.041-0.039
		c0,0-0.459-0.006-1.176,0.057c-0.598,0.033-1.193,0.119-1.775,0.248c-3.41,0.654-8.559,2.742-8.543,9.369
		c-0.033,0.799,0.023,1.604,0.188,2.385c0.023,0.102,0.051,0.232,0.094,0.379c0.043,0.158,0.096,0.307,0.156,0.439l30.385,1.09
		c-0.15-0.729-0.246-1.473-0.246-2.242c0-6.375,5.168-11.541,11.537-11.541c4.008,0,7.527,2.041,9.6,5.137
		c2.402-6.074,8.311-10.377,15.234-10.377c0.977,0,1.924,0.1,2.846,0.264c0.213-0.076,0.434-0.133,0.648-0.201
		c-0.848,0.27-4.338-1.543-5.393-1.799C70.387,107.93,69.265,107.716,68.139,107.521z M26.432,105.957
		c-0.031-0.012-0.066-0.014-0.104-0.021c0.068-0.047,0.143-0.092,0.211-0.141C26.505,105.85,26.466,105.9,26.432,105.957z
		 M24.645,99.613c-2.605,1.133-4.869,2.889-6.619,5.08c-4.131-1.551-7.076-5.527-7.076-10.199c0-6.021,4.879-10.904,10.896-10.904
		c3.412,0,6.455,1.562,8.453,4.016C27.348,90.898,25.35,95.043,24.645,99.613z"/>
	<path fill="#ACBAD1" d="M85.348,72.279c-0.172-0.504-0.322-1.02-0.457-1.529c-0.145-0.545-0.295-1.102-0.484-1.643
		c-0.428-1.27-0.975-2.51-1.621-3.693c-1.34-2.441-3.168-4.68-5.311-6.475c-2.242-1.891-4.898-3.354-7.682-4.236
		c-2.182-0.691-4.455-1.039-6.771-1.039c-0.768,0-1.541,0.037-2.303,0.115c-4.824,0.479-9.438,2.578-12.988,5.916
		c-3.303,3.068-5.664,7.168-6.652,11.559c-0.014,0.078-0.057,0.141-0.107,0.186c-0.342,1.541-0.529,3.137-0.553,4.736
		c0,0.062-0.053,0.113-0.115,0.115c-0.062,0-0.117-0.047-0.119-0.109c-0.092-1.627-0.006-3.258,0.252-4.855
		c-2.572,0.131-5.072,1.029-7.084,2.555c-1.977,1.49-3.516,3.621-4.383,6.016c0.014,0.012,0.033,0.018,0.051,0.029
		c3.002,0.922,5.766,2.574,7.988,4.771c0.477-0.408,0.984-0.793,1.504-1.156c-0.5,0.137-1.004,0.307-1.488,0.527
		c-0.828-1.406-2.057-2.373-3.484-3.037c0.666-0.6,1.461-1.115,2.082-1.75c0.365-0.383,0.789-0.701,1.242-0.957
		c0.621,1.643,1.777,3.141,3.143,4.297c0.449-0.244,0.926-0.471,1.4-0.66c1.729-0.691,3.625-1.049,5.432-1.018
		c0.012,0,0.021,0.01,0.029,0.01c0.021-0.012,0.045-0.023,0.062-0.041c-0.125-0.385-0.326-1.436-0.328-1.482
		c-0.08-0.381-0.148-0.766-0.199-1.154c-0.105-0.787-0.158-1.582-0.158-2.375c0-9.906,8.029-17.934,17.936-17.934
		c8.918,0,16.293,6.508,17.68,15.033C82.987,72.615,84.159,72.363,85.348,72.279z"/>
	<path fill="#231F20" d="M145.527,117.088c-1.113-4.006-3.754-7.582-7.242-9.811c-2.699-1.748-5.982-2.707-9.283-2.707
		c-0.295-1.615-0.93-3.195-1.83-4.549c-0.502-0.754-1.088-1.449-1.756-2.088c1.033-2.984,1.27-6.289,0.666-9.402
		c-0.797-4.244-3.209-8.25-6.613-10.979c-3.236-2.627-7.476-4.135-11.634-4.135l-0.512,0.01c-3.039,0.062-6.1,0.936-8.736,2.473
		c-0.838-0.939-1.773-1.77-2.787-2.473c-0.697-0.492-1.445-0.932-2.322-1.359c-0.1-0.045-0.193-0.084-0.295-0.123
		c-0.283-0.129-0.566-0.25-0.877-0.375l-0.33-0.113c-1.652-0.594-3.318-0.924-4.961-0.969c-0.006-0.033-0.018-0.068-0.023-0.104
		c-0.117-0.621-0.242-1.262-0.424-1.879c-0.385-1.443-0.912-2.854-1.559-4.186c-1.35-2.809-3.301-5.402-5.635-7.508
		c-2.475-2.234-5.455-3.973-8.615-5.031c-3.303-1.111-6.861-1.502-10.354-1.143c-5.475,0.541-10.848,3.07-14.734,6.934
		c-3.193,3.123-5.492,7.15-6.562,11.453c-2.719-0.174-5.5,0.686-7.652,2.336c-1.453,1.088-2.65,2.537-3.461,4.18
		c-0.326,0.656-0.59,1.367-0.781,2.104c-3.229-0.602-6.641-0.469-9.793,0.4c-4.109,1.115-7.918,3.518-10.734,6.758
		c-2.23,2.568-3.857,5.652-4.691,8.918c-0.803,3.129-0.9,6.457-0.281,9.613c0.564,2.971,1.795,5.857,3.566,8.35
		c0.922,1.303,2.023,2.529,3.242,3.617c-0.113-0.105-1.787,1.48-1.939,1.639c-1.848,1.92-3.254,4.633-2.91,7.367
		c0.148,1.164,0.5,2.369,0.924,3.461c0.113,0.283,0.385,0.922,0.699,1.197l0.062,0.176c0.02,0.045,0.082,0.182,0.256,0.277
		l0.096,0.053h32.594l-0.152-0.418h-0.445c-0.014-0.043-0.053-0.08-0.1-0.082l-30.721-1.102c-0.061-0.133-0.113-0.281-0.156-0.439
		c-0.043-0.146-0.07-0.277-0.094-0.379c-0.164-0.781-0.221-1.586-0.188-2.385c-0.016-6.627,5.133-8.715,8.543-9.369
		c0.582-0.129,1.178-0.215,1.775-0.248c0.717-0.062,1.176-0.057,1.176-0.057l-0.041,0.039c0.012,0,0.023,0,0.041,0
		c-0.041,1.203,0.117,2.406,0.492,3.551c0.504,1.529,1.365,2.918,2.492,4.002c0.021,0.023,0.051,0.031,0.082,0.031
		c0.025,0,0.051-0.006,0.07-0.023c0.049-0.035,0.057-0.102,0.029-0.152c-1.637-2.668-2.225-5.922-1.604-8.932
		c0.594-2.99,2.402-5.758,4.961-7.596c0.047-0.033,0.062-0.096,0.035-0.15c-0.029-0.051-0.086-0.076-0.148-0.053
		c-1.455,0.561-2.789,1.494-3.852,2.713c-1.178,1.336-2.023,3.041-2.379,4.809c-0.102,0.492-0.158,0.99-0.18,1.494
		c-1.973-0.305-4.078-0.057-5.932,0.705c-1.834-1.436-3.461-3.203-4.695-5.168c-1.434-2.271-2.4-4.846-2.803-7.445
		c-0.443-2.764-0.277-5.641,0.463-8.32c0.76-2.783,2.176-5.418,4.09-7.621c2.414-2.775,5.67-4.873,9.16-5.914
		c1.828-0.543,3.727-0.818,5.652-0.818c1.602,0,3.184,0.191,4.713,0.564l0,0l0.004,0.006c0.074,0.018,0.148,0.02,0.223,0.006
		c2.934,0.742,5.711,2.174,8.037,4.148c-0.213,0.195-0.432,0.383-0.635,0.592c-1.445,1.506-2.578,3.348-3.273,5.324
		c-0.617,1.764-0.891,3.658-0.785,5.475c0.002,0.059,0.051,0.105,0.111,0.109c0.002,0,0.002,0,0.004,0
		c0.061,0,0.109-0.041,0.119-0.098c0.596-3.719,2.314-7.209,4.85-9.836c2.498-2.631,5.912-4.498,9.617-5.262
		c0.057-0.012,0.1-0.066,0.09-0.125c-0.006-0.061-0.051-0.105-0.113-0.105c-1.807-0.031-3.703,0.326-5.432,1.018
		c-1.607,0.635-3.098,1.586-4.393,2.752c-0.002-0.006-0.002-0.012-0.006-0.016c-2.223-2.195-4.986-3.848-7.988-4.77
		c-0.018-0.012-0.037-0.018-0.051-0.029c0.867-2.395,2.406-4.525,4.383-6.016c2.012-1.525,4.512-2.424,7.084-2.555
		c-0.258,1.598-0.344,3.229-0.252,4.855c0.002,0.062,0.057,0.109,0.119,0.109l0,0c0.062-0.002,0.115-0.053,0.115-0.115
		c0.023-1.6,0.211-3.195,0.553-4.736c0.051-0.045,0.094-0.107,0.107-0.186c0.988-4.391,3.35-8.49,6.652-11.559
		c3.551-3.338,8.164-5.438,12.988-5.916c0.762-0.078,1.535-0.115,2.303-0.115c2.316,0,4.59,0.348,6.771,1.039
		c2.783,0.883,5.439,2.346,7.682,4.236c2.143,1.795,3.971,4.033,5.311,6.475c0.646,1.184,1.193,2.424,1.621,3.693
		c0.189,0.541,0.34,1.098,0.484,1.643c0.135,0.51,0.285,1.025,0.457,1.529c-2.939,0.215-5.777,1.369-7.99,3.254
		c-0.047,0.039-0.055,0.109-0.018,0.158c0.039,0.049,0.105,0.064,0.158,0.031c2.361-1.496,5.178-2.328,7.912-2.348l0.201-0.004
		c1.766,0,3.527,0.338,5.172,0.957c0.451,0.186,0.898,0.375,1.328,0.59c0.363,0.178,0.729,0.379,1.088,0.584
		c0.264,0.164,0.531,0.328,0.787,0.51c2.498,1.738,4.43,4.275,5.438,7.143c0.873,2.441,1.076,5.186,0.611,7.781
		c-0.701-0.406-1.416-0.775-2.148-1.092c-2.188-0.953-4.58-1.529-6.932-1.672c-0.057,0-0.109,0.039-0.117,0.102
		c-0.006,0.061,0.027,0.113,0.09,0.131c4.734,1.084,9.207,3.557,12.586,6.961c3.398,3.385,5.855,7.861,6.932,12.604
		c0.006,0.057,0.057,0.09,0.113,0.09c0.006,0,0.012,0,0.016,0c0.059-0.008,0.104-0.062,0.098-0.125
		c-0.133-2.344-0.705-4.74-1.652-6.926c-0.098-0.225-0.199-0.445-0.307-0.67c1.385-1.199,3.02-2.064,4.757-2.498
		c0.889-0.223,1.805-0.336,2.727-0.336c1.209,0,2.389,0.189,3.51,0.568c1.982,0.658,3.795,1.926,5.119,3.568
		c1.117,1.371,1.898,3.025,2.287,4.799c-3.074,0.361-5.996,1.664-8.256,3.684c-0.045,0.043-0.051,0.117-0.012,0.162
		c0,0,0.006,0,0.008,0.002c2.641-1.939,5.9-3.098,9.443-3.098c8.77,0,15.89,7.031,15.89,15.711c0,2.309-0.521,4.496-1.422,6.473
		l0.069,0.098l0.101-0.209h1.459l0.475-0.982c0.135-0.34,0.289-0.748,0.41-1.139C146.367,123.938,146.449,120.367,145.527,117.088z
		 M123.076,98.26c-0.891-0.65-1.879-1.178-2.922-1.523c-1.094-0.369-2.248-0.559-3.428-0.559c-1.217,0-2.455,0.213-3.57,0.609
		c-1.807,0.635-3.418,1.775-4.596,3.236c-1.014-2.064-2.402-4.004-4.051-5.654c-1.26-1.264-2.689-2.367-4.213-3.283
		c0.877-2.631,0.947-5.547,0.18-8.266c-0.43-1.541-1.148-3.018-2.078-4.352c2.561-1.418,5.512-2.203,8.4-2.203
		c0.189,0,0.371,0.004,0.557,0.01c3.678,0.098,7.275,1.424,10.119,3.729c2.873,2.307,4.939,5.531,5.818,9.086
		C124.039,92.078,123.955,95.303,123.076,98.26z"/>
</g>
<g>
	<path fill="#ACBAD1" d="M143.211,150.066c-1.104,0-2.186,0.057-3.261,0.158c-0.014-0.408-0.033-0.812-0.033-1.22
		c0-4.254,0.776-8.319,2.171-12.094c2.926-8.559,8.656-15.174,15.902-19.275c-0.223,0.092-0.432,0.193-0.654,0.283l0.488-0.221
		c0,0-6.705,1.195-14.432,7.381c-1.229,0.986-2.479,2.096-3.74,3.348c-0.057,0.057-0.113,0.113-0.17,0.176
		c-0.617,0.617-1.234,1.262-1.852,1.956c-0.002,0.006-0.012,0.012-0.018,0.021c-0.578,0.647-1.16,1.342-1.732,2.063
		c-0.092,0.107-0.182,0.219-0.264,0.33c-0.572,0.719-1.133,1.476-1.688,2.26c-0.094,0.138-0.182,0.271-0.281,0.406
		c-0.504,0.732-1.002,1.49-1.492,2.271c-0.076,0.125-0.15,0.232-0.223,0.357c-0.525,0.854-1.037,1.756-1.547,2.68
		c-0.113,0.209-0.221,0.424-0.334,0.639c-0.516,0.963-1.018,1.955-1.502,2.998c-0.221,0.107-0.43,0.227-0.65,0.322
		c-2.805,1.246-5.863,1.887-8.934,1.887c-0.676,0-1.348-0.041-2.021-0.098c0,0,0-0.006-0.006-0.006
		c-4.66-0.418-8.908-2.287-12.287-5.148c-0.031-0.016-0.066-0.045-0.1-0.062c-5.361-4.377-8.785-11.03-8.785-18.489
		c0-7.816,3.775-14.732,9.584-19.088c0.453-0.119,0.812-0.25,0.928-0.391c-0.033,0.006-0.07,0.016-0.113,0.027
		c-2.336,0.504-4.609,1.258-6.76,2.244c-0.002,0-0.014,0.006-0.02,0.01c-0.719,0.33-1.428,0.686-2.117,1.066
		c-0.062,0.033-0.125,0.072-0.188,0.113c-0.629,0.35-1.252,0.713-1.852,1.104c-0.16,0.102-0.305,0.215-0.459,0.322
		c-0.502,0.34-1.004,0.68-1.479,1.043c-0.275,0.215-0.527,0.441-0.793,0.656c-0.344,0.283-0.697,0.557-1.025,0.85
		c-0.59,0.527-1.152,1.076-1.691,1.643c-4.383,4.555-7.371,10.609-8.404,17.055c-0.021,0.098-0.104,0.17-0.201,0.17
		c-0.113-0.006-0.199-0.09-0.201-0.191c-0.186-3.15,0.285-6.436,1.365-9.494c1.203-3.426,3.168-6.615,5.678-9.227
		c0.346-0.367,0.725-0.691,1.088-1.031c-3.02-2.564-6.486-4.604-10.174-6.008c-1.229-0.471-2.48-0.867-3.752-1.189
		c-0.127,0.027-0.264,0.027-0.389-0.006c-0.441-0.006-0.945-0.182-1.404-0.301c-0.006,0-0.012-0.006-0.02-0.006
		c-0.738-0.146-1.48-0.271-2.229-0.373c-0.006,0-0.008,0-0.012,0c-0.445-0.051-0.867-0.051-1.305-0.051
		c-0.199,0-0.381-0.068-0.559-0.143c-0.881-0.068-1.762-0.113-2.654-0.113c-3.338,0-6.633,0.477-9.795,1.422
		c-6.064,1.801-11.705,5.438-15.885,10.252c-3.32,3.818-5.775,8.389-7.1,13.215c-0.318,1.154-0.572,2.322-0.768,3.512
		c-0.1,0.604-0.137,1.217-0.201,1.828c-0.062,0.577-0.156,1.153-0.188,1.737c-0.049,0.812-0.029,1.633-0.018,2.445
		c0,0.387-0.021,0.766-0.006,1.15c0.031,0.646,0.125,1.291,0.193,1.943c0.045,0.248,0.096,0.498,0.152,0.748
		c-0.008,0.254-0.002,0.51,0,0.764c0.012,0.102,0.012,0.199,0.031,0.301c0.693,4.502,2.377,8.971,4.857,12.908
		c2.15,3.41,4.961,6.469,8.145,8.961c3.217-1.32,6.865-1.756,10.281-1.23c0.047-0.865,0.146-1.727,0.32-2.588
		c0.613-3.062,2.08-6.025,4.125-8.332c1.842-2.111,4.152-3.738,6.684-4.707c0.096-0.039,0.201,0,0.25,0.092
		c0.045,0.09,0.021,0.197-0.061,0.263c-4.438,3.188-7.572,7.983-8.6,13.176c-1.07,5.215-0.062,10.86,2.777,15.481
		c0.049,0.086,0.035,0.199-0.049,0.265c-0.033,0.03-0.078,0.045-0.123,0.045c-0.051,0-0.1-0.021-0.143-0.06
		c-1.957-1.881-3.451-4.28-4.324-6.934c-0.65-1.988-0.92-4.078-0.863-6.162c-0.018,0-0.035,0.006-0.057,0.006l0.057-0.065
		c0,0-0.781-0.021-2.027,0.09c-1.043,0.062-2.068,0.211-3.076,0.435c-5.914,1.139-14.844,4.758-14.812,16.25
		c-0.064,1.383,0.031,2.772,0.33,4.129c0.033,0.176,0.084,0.399,0.152,0.662c0.074,0.271,0.166,0.524,0.266,0.76l52.693,1.893
		c-0.256-1.264-0.422-2.555-0.422-3.893c0-11.051,8.957-20.01,20.008-20.01c6.941,0,13.056,3.536,16.646,8.905
		c4.164-10.526,14.41-17.994,26.418-17.994c1.687,0,3.321,0.179,4.926,0.459c0.371-0.137,0.752-0.229,1.121-0.352
		C153.871,151.283,148.689,150.066,143.211,150.066z M153.373,119.689l0.76-0.34c-0.396,0.193-0.771,0.408-1.162,0.617
		L153.373,119.689z M56.55,145.693c-7.633-2.859-13.076-10.201-13.076-18.838c0-11.119,9.018-20.137,20.131-20.137
		c6.301,0,11.918,2.889,15.609,7.414c-5.439,6.09-9.141,13.736-10.443,22.183C63.964,138.404,59.78,141.648,56.55,145.693z
		 M71.048,146.441c-0.057-0.021-0.119-0.021-0.182-0.029c0.119-0.084,0.242-0.164,0.361-0.248
		C71.165,146.254,71.104,146.35,71.048,146.441z M72.485,167.682c-3.791-6.713-3.23-14.828,3.33-21.207
		c2.137-2.072,4.742-2.889,7.33-2.662c2.186,3.795,5.273,6.937,8.918,9.527C83.372,154.496,76.085,160.041,72.485,167.682z"/>
	<path fill="#FFFFFF" d="M190.793,117.99c0.213,0.113,0.434,0.209,0.643,0.322c0.008-0.039,0.015-0.078,0.015-0.117
		C191.234,118.127,191.016,118.059,190.793,117.99z"/>
	<path fill="#FFFFFF" d="M173.764,114.332c4.928,0,9.658,0.814,14.076,2.305c-4.025-1.625-8.418-2.525-13.027-2.525
		c-1.941,0-3.842,0.164-5.688,0.469C170.643,114.422,172.195,114.332,173.764,114.332z"/>
	<path fill="#D4DAE6" d="M275.338,166.361c-1.779-6.4-6.016-12.121-11.604-15.695c-4.885-3.166-10.998-4.713-16.859-4.242
		c-0.213-3.172-1.295-6.338-3.062-8.994c-1.035-1.562-2.32-2.979-3.84-4.221c2.104-5.164,2.68-11.021,1.604-16.555
		c-1.276-6.832-5.17-13.277-10.668-17.672c-5.205-4.232-12.024-6.65-18.72-6.65c-0.276,0-0.562,0-0.83,0.012
		c-5.555,0.119-11.096,1.893-15.683,5.008c-1.64-2.131-3.552-3.949-5.677-5.428c-1.092-0.77-2.293-1.479-3.67-2.146
		c-0.098-0.051-0.201-0.096-0.307-0.135l-0.182-0.074c-0.453-0.209-0.912-0.402-1.383-0.584c-0.184-0.068-0.367-0.129-0.544-0.191
		c-3.165-1.145-6.454-1.693-9.67-1.529c-0.153-0.613-0.3-1.281-0.455-2.068c-0.196-1.008-0.397-2.051-0.696-3.086
		c-0.625-2.346-1.488-4.656-2.556-6.859c-2.218-4.6-5.413-8.859-9.245-12.314c-4.057-3.664-8.938-6.514-14.121-8.246
		c-5.408-1.818-11.245-2.465-16.993-1.875c-8.971,0.883-17.785,5.029-24.169,11.373c-5.736,5.625-9.695,12.977-11.195,20.775
		c-0.998-0.197-1.965-0.295-2.949-0.295c-3.871,0-7.682,1.293-10.73,3.625c-2.23,1.678-4.072,3.898-5.324,6.43
		c-0.824,1.666-1.369,3.512-1.605,5.393c-5.943-1.535-12.303-1.467-18.195,0.152c-6.684,1.818-12.889,5.727-17.469,11.012
		c-3.645,4.18-6.289,9.203-7.646,14.521c-1.309,5.086-1.467,10.508-0.461,15.668c0.926,4.83,2.932,9.521,5.803,13.57
		c2.141,3.014,4.832,5.744,7.828,7.953c-3.336,1.5-6.186,3.998-8.088,7.096c-2.51,3.994-3.365,8.949-2.359,13.594
		c0.109,0.51,0.229,0.969,0.359,1.4l0.043,0.152c0.047,0.17,0.102,0.334,0.24,0.729l0.238,0.682c0.033,0.08,0.139,0.314,0.441,0.48
		l0.164,0.098h29.838h26.682h126.111h2.343h52.804l0.985-2.026l0.392-0.892c0.221-0.551,0.475-1.195,0.694-1.863
		C276.68,177.316,276.811,171.602,275.338,166.361z"/>
	<path fill="#ACBAD1" d="M239.801,122.811c-0.062-0.09-0.131-0.182-0.203-0.254c0.055-0.488,0.078-0.969,0.104-1.451
		c-0.033-0.277-0.08-0.543-0.121-0.814c-0.052-0.387-0.095-0.771-0.168-1.156c-0.112-0.652-0.254-1.297-0.414-1.938
		c-1.521-6.162-5.099-11.758-10.075-15.752c-4.941-4.004-11.175-6.299-17.554-6.469c-0.319-0.01-0.644-0.016-0.963-0.016
		c-5.007,0-10.13,1.359-14.567,3.822c1.62,2.311,2.86,4.871,3.604,7.545c1.334,4.707,1.209,9.771-0.312,14.33
		c2.646,1.586,5.123,3.506,7.306,5.697c2.856,2.861,5.26,6.221,7.03,9.799c2.039-2.531,4.826-4.508,7.966-5.611
		c1.932-0.691,4.073-1.055,6.192-1.055c2.041,0,4.041,0.328,5.938,0.969c1.805,0.6,3.522,1.512,5.076,2.639
		c0.231-0.772,0.418-1.562,0.582-2.361c0.028-0.135,0.057-0.271,0.079-0.411C239.77,127.857,239.938,125.32,239.801,122.811z
		 M231.645,125.24c-14.248-0.465-25.715-11.758-26.479-25.918c2.316-0.93,4.83-1.445,7.479-1.445
		c11.209,0,20.287,9.086,20.287,20.289C232.93,120.658,232.467,123.031,231.645,125.24z"/>
	<path fill="#ACBAD1" d="M32.882,139.564c-0.014-0.125-0.021-0.248-0.033-0.373c-0.002-0.012-0.006-0.021-0.006-0.023
		C32.854,139.299,32.868,139.436,32.882,139.564z"/>
	<path fill="#ACBAD1" d="M191.748,114.705c0,0.867-0.078,1.705-0.182,2.543l0.006,0.006c1.146,0.363,2.279,0.771,3.375,1.246
		c1.266,0.549,2.512,1.195,3.727,1.898c0.805-4.504,0.447-9.262-1.059-13.492c-1.744-4.967-5.098-9.369-9.428-12.387
		c-0.447-0.312-0.904-0.602-1.367-0.885c-0.627-0.357-1.25-0.701-1.885-1.014c-0.75-0.367-1.525-0.703-2.307-1.02
		c-2.854-1.07-5.906-1.66-8.975-1.66l-0.35,0.006c-4.746,0.035-9.621,1.479-13.721,4.066c0.424-0.266,0.871-0.498,1.312-0.736
		c2.487-0.928,5.162-1.455,7.961-1.455C181.506,91.822,191.748,102.062,191.748,114.705z"/>
	<path fill="#ACBAD1" d="M170.008,88.51c0.111-0.023,0.217-0.035,0.324-0.062c0.951-0.188,1.906-0.334,2.877-0.402
		c-0.301-0.873-0.561-1.768-0.799-2.65c-0.246-0.941-0.504-1.91-0.838-2.844c-0.742-2.203-1.688-4.354-2.812-6.406
		c-2.316-4.23-5.502-8.111-9.209-11.232c-3.886-3.273-8.494-5.816-13.32-7.346c-3.777-1.195-7.729-1.801-11.738-1.801
		c-1.328,0-2.674,0.068-3.994,0.203c-8.367,0.828-16.365,4.469-22.521,10.252c-5.727,5.318-9.822,12.439-11.533,20.045
		c-0.027,0.143-0.096,0.25-0.191,0.328c-0.59,2.674-0.912,5.438-0.959,8.213c0,0.109-0.09,0.199-0.197,0.199
		c-0.111,0-0.199-0.086-0.203-0.193c-0.16-2.814-0.012-5.646,0.43-8.416c-4.451,0.227-8.791,1.779-12.273,4.43
		c-3.434,2.582-6.104,6.27-7.607,10.434c0.027,0.016,0.062,0.021,0.084,0.045c0.711,0.645,2.637,0.918,3.559,1.318
		c1.246,0.539,2.457,1.156,3.633,1.842c2.404,1.404,4.664,3.109,6.629,5.08c1.559-0.707,2.85-2.248,4.467-3.059
		c4.01-2.016,8.018-3.426,12.668-3.398c0.033-0.027,0.074-0.045,0.107-0.072c-0.215-0.676-0.562-2.492-0.578-2.572
		c-0.135-0.662-0.246-1.332-0.336-2c-0.186-1.365-0.271-2.74-0.271-4.117c0-17.18,13.923-31.102,31.097-31.102
		c15.461,0,28.25,11.289,30.66,26.066C168.088,88.973,169.045,88.719,170.008,88.51z"/>
	<path fill="#ACBAD1" d="M143.211,150.066c-1.104,0-2.186,0.057-3.261,0.158c-0.014-0.408-0.033-0.812-0.033-1.22
		c0-4.254,0.776-8.319,2.171-12.094c2.926-8.559,8.656-15.174,15.902-19.275c-0.223,0.092-0.432,0.193-0.654,0.283l0.488-0.221
		c0,0-6.705,1.195-14.432,7.381c-1.229,0.986-2.479,2.096-3.74,3.348c-0.057,0.057-0.113,0.113-0.17,0.176
		c-0.617,0.617-1.234,1.262-1.852,1.956c-0.002,0.006-0.012,0.012-0.018,0.021c-0.578,0.647-1.16,1.342-1.732,2.063
		c-0.092,0.107-0.182,0.219-0.264,0.33c-0.572,0.719-1.133,1.476-1.688,2.26c-0.094,0.138-0.182,0.271-0.281,0.406
		c-0.504,0.732-1.002,1.49-1.492,2.271c-0.076,0.125-0.15,0.232-0.223,0.357c-0.525,0.854-1.037,1.756-1.547,2.68
		c-0.113,0.209-0.221,0.424-0.334,0.639c-0.516,0.963-1.018,1.955-1.502,2.998c-0.221,0.107-0.43,0.227-0.65,0.322
		c-2.805,1.246-5.863,1.887-8.934,1.887c-0.676,0-1.348-0.041-2.021-0.098c0,0,0-0.006-0.006-0.006
		c-4.66-0.418-8.908-2.287-12.287-5.148c-0.031-0.016-0.066-0.045-0.1-0.062c-5.361-4.377-8.785-11.03-8.785-18.489
		c0-7.816,3.775-14.732,9.584-19.088c0.453-0.119,0.812-0.25,0.928-0.391c-0.033,0.006-0.07,0.016-0.113,0.027
		c-2.336,0.504-4.609,1.258-6.76,2.244c-0.002,0-0.014,0.006-0.02,0.01c-0.719,0.33-1.428,0.686-2.117,1.066
		c-0.062,0.033-0.125,0.072-0.188,0.113c-0.629,0.35-1.252,0.713-1.852,1.104c-0.16,0.102-0.305,0.215-0.459,0.322
		c-0.502,0.34-1.004,0.68-1.479,1.043c-0.275,0.215-0.527,0.441-0.793,0.656c-0.344,0.283-0.697,0.557-1.025,0.85
		c-0.59,0.527-1.152,1.076-1.691,1.643c-4.383,4.555-7.371,10.609-8.404,17.055c-0.021,0.098-0.104,0.17-0.201,0.17
		c-0.113-0.006-0.199-0.09-0.201-0.191c-0.186-3.15,0.285-6.436,1.365-9.494c1.203-3.426,3.168-6.615,5.678-9.227
		c0.346-0.367,0.725-0.691,1.088-1.031c-3.02-2.564-6.486-4.604-10.174-6.008c-1.229-0.471-2.48-0.867-3.752-1.189
		c-0.127,0.027-0.264,0.027-0.389-0.006c-0.441-0.006-0.945-0.182-1.404-0.301c-0.006,0-0.012-0.006-0.02-0.006
		c-0.738-0.146-1.48-0.271-2.229-0.373c-0.006,0-0.008,0-0.012,0c-0.445-0.051-0.867-0.051-1.305-0.051
		c-0.199,0-0.381-0.068-0.559-0.143c-0.881-0.068-1.762-0.113-2.654-0.113c-3.338,0-6.633,0.477-9.795,1.422
		c-6.064,1.801-11.705,5.438-15.885,10.252c-3.32,3.818-5.775,8.389-7.1,13.215c-0.318,1.154-0.572,2.322-0.768,3.512
		c-0.1,0.604-0.137,1.217-0.201,1.828c-0.062,0.577-0.156,1.153-0.188,1.737c-0.049,0.812-0.029,1.633-0.018,2.445
		c0,0.387-0.021,0.766-0.006,1.15c0.031,0.646,0.125,1.291,0.193,1.943c0.045,0.248,0.096,0.498,0.152,0.748
		c-0.008,0.254-0.002,0.51,0,0.764c0.012,0.102,0.012,0.199,0.031,0.301c0.693,4.502,2.377,8.971,4.857,12.908
		c2.15,3.41,4.961,6.469,8.145,8.961c3.217-1.32,6.865-1.756,10.281-1.23c0.047-0.865,0.146-1.727,0.32-2.588
		c0.613-3.062,2.08-6.025,4.125-8.332c1.842-2.111,4.152-3.738,6.684-4.707c0.096-0.039,0.201,0,0.25,0.092
		c0.045,0.09,0.021,0.197-0.061,0.263c-4.438,3.188-7.572,7.983-8.6,13.176c-1.07,5.215-0.062,10.86,2.777,15.481
		c0.049,0.086,0.035,0.199-0.049,0.265c-0.033,0.03-0.078,0.045-0.123,0.045c-0.051,0-0.1-0.021-0.143-0.06
		c-1.957-1.881-3.451-4.28-4.324-6.934c-0.65-1.988-0.92-4.078-0.863-6.162c-0.018,0-0.035,0.006-0.057,0.006l0.057-0.065
		c0,0-0.781-0.021-2.027,0.09c-1.043,0.062-2.068,0.211-3.076,0.435c-5.914,1.139-14.844,4.758-14.812,16.25
		c-0.064,1.383,0.031,2.772,0.33,4.129c0.033,0.176,0.084,0.399,0.152,0.662c0.074,0.271,0.166,0.524,0.266,0.76l52.693,1.893
		c-0.256-1.264-0.422-2.555-0.422-3.893c0-11.051,8.957-20.01,20.008-20.01c6.941,0,13.056,3.536,16.646,8.905
		c4.164-10.526,14.41-17.994,26.418-17.994c1.687,0,3.321,0.179,4.926,0.459c0.371-0.137,0.752-0.229,1.121-0.352
		C153.871,151.283,148.689,150.066,143.211,150.066z M153.373,119.689l0.76-0.34c-0.396,0.193-0.771,0.408-1.162,0.617
		L153.373,119.689z M56.55,145.693c-7.633-2.859-13.076-10.201-13.076-18.838c0-11.119,9.018-20.137,20.131-20.137
		c6.301,0,11.918,2.889,15.609,7.414c-5.439,6.09-9.141,13.736-10.443,22.183C63.964,138.404,59.78,141.648,56.55,145.693z
		 M71.048,146.441c-0.057-0.021-0.119-0.021-0.182-0.029c0.119-0.084,0.242-0.164,0.361-0.248
		C71.165,146.254,71.104,146.35,71.048,146.441z M72.485,167.682c-3.791-6.713-3.23-14.828,3.33-21.207
		c2.137-2.072,4.742-2.889,7.33-2.662c2.186,3.795,5.273,6.937,8.918,9.527C83.372,154.496,76.085,160.041,72.485,167.682z"/>
	<path fill="#ACBAD1" d="M207.137,161.893c7.674,2.603,14.205,7.676,18.629,14.285c-0.229-1.24-0.352-2.521-0.352-3.824
		c0-11.504,9.318-20.826,20.826-20.826c11.488,0,20.818,9.322,20.818,20.826c0,4.688-1.57,8.99-4.188,12.476
		c0.896-0.033,1.795-0.062,2.692-0.099c0.562-0.018,1.121-0.039,1.683-0.057l0.666-0.023c0.312-0.012,0.698-0.062,1.069-0.03
		l1.927-0.068l0.573-1.377c0.168-0.424,0.354-0.934,0.521-1.454c0,0,0-0.013,0-0.021c0.058-0.391,0.216-0.787,0.341-1.186
		c0.045-0.177,0.102-0.347,0.145-0.521c0.076-0.33,0.146-0.658,0.211-0.986c0.059-0.266,0.107-0.53,0.156-0.805
		c0.059-0.334,0.102-0.683,0.141-1.021c0.039-0.271,0.079-0.543,0.104-0.812c0.031-0.348,0.047-0.697,0.062-1.051
		c0.015-0.26,0.037-0.521,0.041-0.785c0.006-0.363-0.004-0.73-0.018-1.102c-0.007-0.248,0-0.498-0.015-0.752
		c-0.017-0.369-0.062-0.736-0.094-1.104c-0.029-0.244-0.037-0.492-0.068-0.736c-0.051-0.396-0.118-0.787-0.188-1.172
		c-0.039-0.224-0.067-0.438-0.106-0.649c-0.119-0.603-0.267-1.199-0.43-1.789c-1.576-5.658-5.283-10.791-10.187-14.076
		c-0.668-0.447-1.354-0.865-2.062-1.246c-0.177-0.096-0.354-0.18-0.539-0.271c-0.534-0.277-1.086-0.537-1.646-0.781
		c-0.176-0.073-0.355-0.146-0.531-0.221c-0.715-0.277-1.428-0.539-2.16-0.76c-1.148-0.34-2.32-0.605-3.51-0.781
		c-2.416-0.361-4.896-0.555-7.332-0.26c-1.131,0.141-2.258,0.355-3.371,0.639c-1.123,0.289-2.23,0.652-3.312,1.088
		c-2.158,0.867-4.213,2.023-6.064,3.429c-0.086,0.067-0.211,0.053-0.279-0.027c-0.07-0.084-0.062-0.209,0.02-0.283
		c3.916-3.5,8.988-5.754,14.316-6.383c-0.678-3.082-2.031-5.946-3.969-8.326c-2.293-2.844-5.439-5.041-8.871-6.188
		c-1.941-0.654-3.988-0.982-6.082-0.982c-1.602,0-3.191,0.189-4.729,0.582c-3.019,0.754-5.854,2.25-8.258,4.334
		c0.186,0.386,0.364,0.771,0.528,1.16c1.646,3.781,2.644,7.938,2.866,12.015c0.011,0.104-0.066,0.198-0.17,0.217
		c-0.006,0-0.006-0.013-0.014-0.013c-0.006,0.005-0.012,0.013-0.018,0.013c-0.09,0-0.176-0.062-0.195-0.158
		c-1.865-8.227-6.131-15.984-12.021-21.857c-0.674-0.68-1.379-1.336-2.104-1.971c-0.396-0.352-0.806-0.68-1.213-1.008
		c-0.312-0.256-0.619-0.51-0.937-0.754c-0.57-0.441-1.154-0.861-1.75-1.275c-0.137-0.096-0.275-0.197-0.414-0.287
		c-0.707-0.482-1.435-0.947-2.164-1.383l-0.006-0.006c8.264,6.383,13.596,16.369,13.596,27.613c0,4.563-0.885,8.92-2.477,12.914
		C207.205,161.91,207.17,161.904,207.137,161.893z M225.855,133.492c7.223,0,13.09,5.789,13.229,12.977
		c-0.996,0.211-2.02,0.33-3.072,0.33c-7.397,0-13.506-5.438-14.596-12.523C222.809,133.775,224.299,133.492,225.855,133.492z"/>
	<path fill="#231F20" d="M275.338,166.361c-1.779-6.4-6.016-12.121-11.604-15.695c-4.885-3.166-10.998-4.713-16.859-4.242
		c-0.213-3.172-1.295-6.338-3.062-8.994c-1.035-1.562-2.32-2.979-3.84-4.221c2.104-5.164,2.68-11.021,1.604-16.555
		c-1.276-6.832-5.17-13.277-10.668-17.672c-5.205-4.232-12.024-6.65-18.72-6.65c-0.276,0-0.562,0-0.83,0.012
		c-5.555,0.119-11.096,1.893-15.683,5.008c-1.64-2.131-3.552-3.949-5.677-5.428c-1.092-0.77-2.293-1.479-3.67-2.146
		c-0.098-0.051-0.201-0.096-0.307-0.135l-0.182-0.074c-0.453-0.209-0.912-0.402-1.383-0.584c-0.184-0.068-0.367-0.129-0.544-0.191
		c-3.165-1.145-6.454-1.693-9.67-1.529c-0.153-0.613-0.3-1.281-0.455-2.068c-0.196-1.008-0.397-2.051-0.696-3.086
		c-0.625-2.346-1.488-4.656-2.556-6.859c-2.218-4.6-5.413-8.859-9.245-12.314c-4.057-3.664-8.938-6.514-14.121-8.246
		c-5.408-1.818-11.245-2.465-16.993-1.875c-8.971,0.883-17.785,5.029-24.169,11.373c-5.736,5.625-9.695,12.977-11.195,20.775
		c-0.998-0.197-1.965-0.295-2.949-0.295c-3.871,0-7.682,1.293-10.73,3.625c-2.23,1.678-4.072,3.898-5.324,6.43
		c-0.824,1.666-1.369,3.512-1.605,5.393c-5.943-1.535-12.303-1.467-18.195,0.152c-6.684,1.818-12.889,5.727-17.469,11.012
		c-3.645,4.18-6.289,9.203-7.646,14.521c-1.309,5.086-1.467,10.508-0.461,15.668c0.926,4.83,2.932,9.521,5.803,13.57
		c2.141,3.014,4.832,5.744,7.828,7.953c-3.336,1.5-6.186,3.998-8.088,7.096c-2.51,3.994-3.365,8.949-2.359,13.594
		c0.109,0.51,0.229,0.969,0.359,1.4l0.043,0.152c0.047,0.17,0.102,0.334,0.24,0.729l0.238,0.682c0.033,0.08,0.139,0.314,0.441,0.48
		l0.164,0.098h56.52l-0.264-0.729H90.59c-0.027-0.074-0.084-0.138-0.168-0.138l-53.281-1.914c-0.1-0.231-0.191-0.485-0.266-0.76
		c-0.068-0.262-0.119-0.485-0.152-0.662c-0.299-1.354-0.395-2.746-0.33-4.129c-0.031-11.492,8.898-15.11,14.812-16.25
		c1.008-0.223,2.033-0.369,3.076-0.434c1.246-0.105,2.027-0.09,2.027-0.09s-0.057,0.066,0,0.062
		c-0.057,2.084,0.213,4.174,0.863,6.16c0.873,2.65,2.367,5.055,4.324,6.936c0.043,0.039,0.092,0.058,0.143,0.058
		c0.045,0,0.09-0.012,0.123-0.045c0.084-0.062,0.098-0.177,0.049-0.263c-2.84-4.62-3.848-10.271-2.777-15.483
		c1.027-5.188,4.162-9.985,8.6-13.176c0.082-0.062,0.105-0.17,0.061-0.261c-0.049-0.092-0.154-0.131-0.25-0.092
		c-2.531,0.969-4.842,2.596-6.684,4.707c-2.045,2.307-3.512,5.269-4.125,8.331c-0.174,0.86-0.273,1.724-0.32,2.589
		c-3.416-0.524-7.064-0.092-10.281,1.229c-3.184-2.492-5.994-5.553-8.145-8.961c-2.48-3.938-4.164-8.406-4.857-12.908
		c-0.762-4.797-0.479-9.779,0.803-14.432c1.324-4.826,3.779-9.396,7.1-13.215c4.18-4.814,9.82-8.451,15.885-10.252
		c3.162-0.945,6.457-1.422,9.795-1.422c2.773,0,5.52,0.328,8.182,0.986c0.125,0.033,0.262,0.033,0.389,0.006
		c5.084,1.291,9.9,3.777,13.932,7.197c-0.369,0.34-0.748,0.664-1.094,1.031c-2.51,2.611-4.475,5.801-5.678,9.227
		c-1.08,3.059-1.551,6.344-1.365,9.494c0.002,0.102,0.088,0.186,0.201,0.191c0.098,0,0.18-0.072,0.201-0.17
		c1.033-6.445,4.021-12.5,8.404-17.055c4.34-4.564,10.262-7.805,16.684-9.123c0.102-0.023,0.168-0.113,0.158-0.223
		c-0.006-0.102-0.09-0.18-0.197-0.18c-3.133-0.051-6.42,0.566-9.422,1.766c-2.785,1.1-5.367,2.748-7.625,4.742
		c-3.854-3.807-8.641-6.668-13.857-8.27c-0.021-0.023-0.057-0.029-0.084-0.045c1.504-4.164,4.174-7.852,7.607-10.434
		c3.482-2.65,7.822-4.203,12.273-4.43c-0.441,2.77-0.59,5.602-0.43,8.416C94.898,94.914,94.986,95,95.097,95
		c0.107,0,0.197-0.09,0.197-0.199c0.047-2.775,0.369-5.539,0.959-8.213c0.096-0.078,0.164-0.186,0.191-0.328
		c1.711-7.604,5.807-14.727,11.533-20.045c6.156-5.783,14.154-9.424,22.521-10.252c1.32-0.135,2.666-0.203,3.994-0.203
		c4.01,0,7.96,0.605,11.738,1.801c4.826,1.529,9.438,4.072,13.321,7.346c3.707,3.121,6.892,7.002,9.21,11.232
		c1.122,2.051,2.065,4.203,2.811,6.406c0.334,0.934,0.592,1.902,0.838,2.844c0.238,0.883,0.498,1.777,0.799,2.65
		c-5.098,0.373-10.018,2.379-13.859,5.646c-0.082,0.068-0.092,0.188-0.026,0.271c0.062,0.086,0.183,0.107,0.271,0.051
		c4.1-2.588,8.975-4.031,13.721-4.066l0.349-0.006c3.063,0,6.117,0.59,8.974,1.66c0.778,0.316,1.557,0.652,2.307,1.021
		c0.635,0.312,1.258,0.656,1.885,1.014c0.463,0.283,0.92,0.572,1.367,0.885c4.33,3.018,7.684,7.42,9.428,12.387
		c1.506,4.23,1.863,8.988,1.061,13.492c-1.216-0.703-2.461-1.35-3.729-1.898c-3.789-1.648-7.939-2.65-12.016-2.895
		c-0.104,0-0.195,0.068-0.215,0.176c-0.013,0.102,0.059,0.205,0.162,0.227c8.215,1.881,15.963,6.168,21.819,12.07
		c5.892,5.872,10.155,13.633,12.021,21.854c0.021,0.096,0.104,0.158,0.226,0.158c0.103-0.016,0.18-0.113,0.17-0.215
		c-0.228-4.072-1.22-8.23-2.867-12.014c-0.164-0.394-0.346-0.775-0.528-1.16c2.403-2.084,5.239-3.58,8.258-4.334
		c1.535-0.391,3.127-0.582,4.729-0.582c2.096,0,4.143,0.328,6.082,0.984c3.434,1.145,6.578,3.342,8.871,6.186
		c1.938,2.379,3.291,5.244,3.971,8.326c-5.328,0.629-10.4,2.883-14.316,6.383c-0.081,0.074-0.09,0.199-0.021,0.283
		c0.067,0.08,0.192,0.098,0.278,0.029c3.688-2.808,8.15-4.597,12.748-5.154c2.438-0.295,4.916-0.104,7.332,0.26
		c2.334,0.352,4.621,1.02,6.77,2c1.281,0.578,2.521,1.268,3.682,2.061c4.902,3.285,8.609,8.418,10.187,14.076
		c1.304,4.639,1.229,9.709-0.217,14.279c-0.181,0.594-0.394,1.184-0.586,1.67l-0.574,1.377l-51.963,1.801
		c-0.084,0.006-0.146,0.068-0.179,0.145h-0.769l-0.261,0.729h55.146l0.983-2.026l0.394-0.892c0.221-0.549,0.475-1.194,0.693-1.862
		C276.68,177.316,276.811,171.602,275.338,166.361z M233.559,130.457c-1.896-0.641-3.896-0.969-5.938-0.969
		c-2.119,0-4.264,0.363-6.191,1.055c-3.141,1.104-5.928,3.08-7.966,5.611c-1.772-3.578-4.175-6.938-7.03-9.799
		c-2.184-2.191-4.662-4.111-7.307-5.697c1.521-4.559,1.646-9.623,0.312-14.33c-0.741-2.674-1.981-5.234-3.604-7.545
		c4.438-2.463,9.562-3.822,14.567-3.822c0.322,0,0.644,0.006,0.964,0.016c6.379,0.17,12.608,2.465,17.553,6.469
		c4.979,3.994,8.56,9.59,10.076,15.752c1.303,5.178,1.155,10.773-0.361,15.896C237.082,131.969,235.361,131.057,233.559,130.457z"/>
</g>
<g>
	<g>
		<path fill="#ACBAD1" d="M54.819,213.242c0.188-3.691,2.006-11.344,3.461-17.666c-3.529,5.613-7.711,12.342-10.229,15.113v0.004
			c-0.225,0.279-0.42,0.59-0.562,0.938c-0.803,1.943,0.113,4.177,2.062,4.979c1.945,0.806,4.168-0.112,4.979-2.062
			C54.712,214.127,54.8,213.686,54.819,213.242L54.819,213.242z"/>
		<path fill="#FFFFFF" d="M51.315,213.119c0.072-1.473,0.803-4.537,1.381-7.064c-1.408,2.238-3.082,4.937-4.088,6.045l0,0
			c-0.088,0.113-0.166,0.236-0.227,0.379c-0.32,0.775,0.049,1.67,0.824,1.982c0.775,0.328,1.668-0.039,1.994-0.816
			C51.274,213.465,51.307,213.295,51.315,213.119L51.315,213.119z"/>
	</g>
	<g>
		<path fill="#ACBAD1" d="M78.909,245.697c0.186-3.691,2.01-11.344,3.463-17.66c-3.531,5.613-7.711,12.342-10.227,15.111
			l-0.006,0.006c-0.227,0.277-0.416,0.59-0.555,0.941c-0.807,1.938,0.113,4.168,2.059,4.979c1.943,0.811,4.176-0.113,4.982-2.057
			C78.802,246.588,78.891,246.146,78.909,245.697L78.909,245.697z"/>
		<path fill="#FFFFFF" d="M75.403,245.58c0.078-1.479,0.807-4.537,1.393-7.064c-1.416,2.244-3.092,4.937-4.096,6.045l0,0
			c-0.09,0.113-0.166,0.242-0.227,0.373c-0.318,0.775,0.049,1.676,0.822,1.994c0.781,0.322,1.67-0.045,1.994-0.822
			C75.362,245.93,75.399,245.75,75.403,245.58L75.403,245.58z"/>
	</g>
	<g>
		<path fill="#ACBAD1" d="M130.559,213.242c0.191-3.691,2.01-11.344,3.469-17.666c-3.537,5.613-7.717,12.342-10.232,15.113v0.004
			c-0.227,0.279-0.422,0.59-0.561,0.938c-0.807,1.943,0.113,4.177,2.059,4.979c1.946,0.806,4.172-0.112,4.984-2.062
			C130.457,214.127,130.541,213.686,130.559,213.242L130.559,213.242z"/>
		<path fill="#FFFFFF" d="M127.059,213.119c0.072-1.473,0.801-4.537,1.381-7.064c-1.41,2.238-3.084,4.937-4.09,6.045l0,0
			c-0.084,0.113-0.166,0.236-0.227,0.379c-0.318,0.775,0.049,1.67,0.828,1.982c0.775,0.328,1.664-0.039,1.994-0.816
			C127.018,213.465,127.049,213.295,127.059,213.119L127.059,213.119z"/>
	</g>
	<g>
		<path fill="#ACBAD1" d="M154.863,245.697c0.191-3.691,2.016-11.344,3.467-17.66c-3.529,5.613-7.709,12.342-10.225,15.111
			l-0.014,0.006c-0.218,0.277-0.416,0.59-0.556,0.941c-0.806,1.938,0.118,4.168,2.062,4.979c1.938,0.811,4.174-0.113,4.983-2.057
			C154.762,246.588,154.85,246.146,154.863,245.697L154.863,245.697z"/>
		<path fill="#FFFFFF" d="M151.359,245.58c0.076-1.479,0.805-4.537,1.391-7.064c-1.416,2.244-3.086,4.937-4.096,6.045l0,0
			c-0.09,0.113-0.166,0.242-0.223,0.373c-0.32,0.775,0.047,1.676,0.822,1.994c0.78,0.322,1.668-0.045,1.993-0.822
			C151.316,245.93,151.354,245.75,151.359,245.58L151.359,245.58z"/>
	</g>
	<g>
		<path fill="#ACBAD1" d="M206.312,213.242c0.188-3.691,2.002-11.344,3.463-17.666c-3.531,5.613-7.715,12.342-10.234,15.113v0.004
			c-0.221,0.279-0.42,0.59-0.561,0.938c-0.807,1.943,0.111,4.177,2.061,4.979c1.949,0.806,4.176-0.112,4.984-2.062
			C206.201,214.127,206.293,213.686,206.312,213.242L206.312,213.242z"/>
		<path fill="#FFFFFF" d="M202.809,213.119c0.072-1.473,0.799-4.537,1.379-7.064c-1.404,2.238-3.084,4.937-4.086,6.045l0,0
			c-0.088,0.113-0.17,0.236-0.228,0.379c-0.321,0.775,0.045,1.67,0.824,1.982c0.778,0.328,1.668-0.039,1.993-0.816
			C202.768,213.465,202.797,213.295,202.809,213.119L202.809,213.119z"/>
	</g>
	<g>
		<path fill="#ACBAD1" d="M230.818,245.697c0.189-3.691,2.01-11.344,3.463-17.66c-3.525,5.613-7.711,12.342-10.227,15.111
			l-0.008,0.006c-0.222,0.277-0.416,0.59-0.556,0.941c-0.806,1.938,0.118,4.168,2.062,4.979c1.938,0.811,4.174-0.113,4.979-2.057
			C230.717,246.588,230.805,246.146,230.818,245.697L230.818,245.697z"/>
		<path fill="#FFFFFF" d="M227.314,245.58c0.076-1.479,0.805-4.537,1.391-7.064c-1.416,2.244-3.086,4.937-4.096,6.045l0,0
			c-0.09,0.113-0.166,0.242-0.225,0.373c-0.32,0.775,0.049,1.676,0.823,1.994c0.781,0.322,1.669-0.045,1.987-0.822
			C227.271,245.93,227.309,245.75,227.314,245.58L227.314,245.58z"/>
	</g>
	<g>
		<path fill="#D4DAE6" d="M188.943,255.367c-1.061,0-2.146-0.199-3.189-0.635c-4.242-1.762-6.258-6.642-4.494-10.887l6.391-15.371
			c1.761-4.248,6.638-6.269,10.882-4.498c4.245,1.768,6.26,6.639,4.493,10.881l-6.391,15.377
			C195.311,253.436,192.209,255.367,188.943,255.367z"/>
		<g>
			<path fill="#231F20" d="M193.406,245.709c0.188-3.652,1.982-11.23,3.416-17.496c-3.484,5.562-7.619,12.234-10.111,14.977h-0.004
				c-0.223,0.271-0.414,0.582-0.553,0.931c-0.797,1.932,0.121,4.135,2.041,4.935c1.926,0.801,4.133-0.111,4.934-2.046
				C193.305,246.582,193.393,246.146,193.406,245.709L193.406,245.709z"/>
			<path fill="#FFFFFF" d="M189.939,245.59c0.078-1.461,0.793-4.496,1.369-6.994c-1.396,2.229-3.053,4.889-4.049,5.98l0,0
				c-0.092,0.119-0.168,0.244-0.222,0.375c-0.317,0.775,0.045,1.658,0.812,1.977c0.771,0.322,1.654-0.045,1.974-0.816
				C189.898,245.941,189.936,245.76,189.939,245.59L189.939,245.59z"/>
		</g>
	</g>
	<g>
		<path fill="#D4DAE6" d="M112.909,255.367c-1.064,0-2.146-0.199-3.191-0.635c-4.244-1.762-6.256-6.642-4.494-10.887l6.389-15.371
			c1.761-4.248,6.632-6.269,10.88-4.498c4.242,1.768,6.26,6.639,4.492,10.881l-6.383,15.377
			C119.27,253.436,116.172,255.367,112.909,255.367z"/>
		<g>
			<path fill="#231F20" d="M117.373,245.709c0.186-3.652,1.982-11.23,3.414-17.496c-3.488,5.562-7.623,12.234-10.115,14.977h-0.006
				c-0.215,0.271-0.408,0.582-0.549,0.931c-0.797,1.932,0.119,4.135,2.045,4.935c1.921,0.801,4.128-0.111,4.927-2.046
				C117.266,246.582,117.356,246.146,117.373,245.709L117.373,245.709z"/>
			<path fill="#FFFFFF" d="M113.901,245.59c0.08-1.461,0.795-4.496,1.371-6.994c-1.395,2.229-3.052,4.889-4.05,5.98l0,0
				c-0.084,0.119-0.164,0.244-0.215,0.375c-0.322,0.775,0.039,1.658,0.816,1.977c0.768,0.322,1.648-0.045,1.97-0.816
				C113.862,245.941,113.899,245.76,113.901,245.59L113.901,245.59z"/>
		</g>
	</g>
	<g>
		<path fill="#D4DAE6" d="M36.87,255.367c-1.059,0-2.146-0.199-3.189-0.635c-4.242-1.762-6.258-6.642-4.494-10.887l6.389-15.371
			c1.76-4.248,6.637-6.269,10.881-4.498c4.246,1.768,6.26,6.639,4.494,10.881l-6.389,15.377
			C43.237,253.436,40.136,255.367,36.87,255.367z"/>
		<g>
			<path fill="#231F20" d="M41.333,245.709c0.188-3.652,1.982-11.23,3.416-17.496c-3.484,5.562-7.619,12.234-10.111,14.977h-0.006
				c-0.221,0.271-0.412,0.582-0.551,0.931c-0.797,1.932,0.121,4.135,2.041,4.935c1.926,0.801,4.133-0.111,4.934-2.046
				C41.231,246.582,41.319,246.146,41.333,245.709L41.333,245.709z"/>
			<path fill="#FFFFFF" d="M37.866,245.59c0.078-1.461,0.793-4.496,1.369-6.994c-1.396,2.229-3.051,4.889-4.047,5.98l0,0
				c-0.092,0.119-0.168,0.244-0.221,0.375c-0.32,0.775,0.045,1.658,0.814,1.977c0.771,0.322,1.654-0.045,1.971-0.816
				C37.825,245.941,37.86,245.76,37.866,245.59L37.866,245.59z"/>
		</g>
	</g>
	<g>
		<path fill="#D4DAE6" d="M90.413,216.488c-1.066,0-2.146-0.203-3.191-0.641c-4.246-1.763-6.26-6.634-4.496-10.882l1.598-3.842
			c1.762-4.248,6.637-6.258,10.881-4.496c4.248,1.765,6.26,6.636,4.498,10.881l-1.598,3.849
			C96.772,214.557,93.675,216.488,90.413,216.488z"/>
		<path fill="#231F20" d="M93.657,200.041c-1.971,2.09-3.965,3.873-5.779,5.205v0.006c-0.457,0.379-0.824,0.865-1.068,1.449
			c-0.795,1.92,0.119,4.135,2.043,4.934c1.926,0.793,4.131-0.125,4.93-2.045c0.277-0.662,0.34-1.371,0.238-2.033
			C93.706,205.381,93.567,202.793,93.657,200.041z"/>
		<path fill="#FFFFFF" d="M90.721,204.662c-0.791,0.832-1.586,1.547-2.314,2.078l0,0c-0.182,0.148-0.328,0.346-0.428,0.578
			c-0.316,0.772,0.049,1.66,0.818,1.979c0.771,0.316,1.654-0.057,1.971-0.817c0.113-0.273,0.139-0.545,0.098-0.816
			C90.741,206.791,90.684,205.762,90.721,204.662z"/>
	</g>
	<g>
		<path fill="#D4DAE6" d="M166.621,216.488c-1.064,0-2.146-0.203-3.191-0.641c-4.246-1.763-6.258-6.634-4.494-10.882l1.601-3.842
			c1.763-4.248,6.635-6.258,10.881-4.496c4.248,1.765,6.259,6.636,4.496,10.881l-1.601,3.849
			C172.982,214.557,169.885,216.488,166.621,216.488z"/>
		<g>
			<path fill="#231F20" d="M169.867,200.041c-1.971,2.09-3.965,3.873-5.781,5.205v0.006c-0.455,0.379-0.824,0.865-1.066,1.449
				c-0.797,1.92,0.119,4.135,2.041,4.934c1.929,0.793,4.135-0.125,4.935-2.045c0.274-0.662,0.34-1.371,0.233-2.033
				C169.916,205.381,169.775,202.793,169.867,200.041z"/>
			<path fill="#FFFFFF" d="M166.93,204.662c-0.789,0.832-1.586,1.547-2.312,2.078l0,0c-0.183,0.148-0.33,0.346-0.429,0.578
				c-0.317,0.772,0.047,1.66,0.817,1.979c0.771,0.316,1.651-0.057,1.972-0.817c0.112-0.273,0.14-0.545,0.097-0.816
				C166.949,206.791,166.893,205.762,166.93,204.662z"/>
		</g>
	</g>
	<g>
		<path fill="#D4DAE6" d="M242.832,216.488c-1.066,0-2.146-0.203-3.191-0.641c-4.246-1.763-6.26-6.634-4.496-10.882l1.601-3.842
			c1.763-4.248,6.638-6.258,10.881-4.496c4.248,1.765,6.261,6.636,4.498,10.881l-1.599,3.849
			C249.191,214.557,246.094,216.488,242.832,216.488z"/>
		<g>
			<path fill="#231F20" d="M246.076,200.041c-1.971,2.09-3.965,3.873-5.779,5.205v0.006c-0.457,0.379-0.824,0.865-1.068,1.449
				c-0.795,1.92,0.119,4.135,2.045,4.934c1.927,0.793,4.131-0.125,4.931-2.045c0.274-0.662,0.34-1.371,0.237-2.033
				C246.125,205.381,245.986,202.793,246.076,200.041z"/>
			<path fill="#FFFFFF" d="M243.141,204.662c-0.791,0.832-1.586,1.547-2.312,2.078l0,0c-0.184,0.148-0.328,0.346-0.43,0.578
				c-0.314,0.772,0.051,1.66,0.818,1.979c0.771,0.316,1.653-0.057,1.971-0.817c0.113-0.273,0.141-0.545,0.1-0.816
				C243.16,206.791,243.104,205.762,243.141,204.662z"/>
		</g>
	</g>
</g>
</svg>
