<?xml version="1.0" encoding="utf-8"?>
<!-- Generator: Adobe Illustrator 15.0.2, SVG Export Plug-In . SVG Version: 6.00 Build 0)  -->
<!DOCTYPE svg PUBLIC "-//W3C//DTD SVG 1.1//EN" "http://www.w3.org/Graphics/SVG/1.1/DTD/svg11.dtd">
<svg version="1.1" id="Layer_1" xmlns="http://www.w3.org/2000/svg" xmlns:xlink="http://www.w3.org/1999/xlink" x="0px" y="0px"
	 width="280px" height="260px" viewBox="0 0 280 260" enable-background="new 0 0 280 260" xml:space="preserve">
<g>
	<path fill="#3479BE" d="M33.712,147.346c34.459,1.498,74.74,2.365,117.778,2.365c43.047,0,83.324-0.867,117.779-2.365
		c-34.455-1.498-74.732-2.354-117.779-2.354C108.452,144.99,68.171,145.848,33.712,147.346z"/>
	<path fill="#3479BE" d="M31.234,140.385c35.408,1.496,76.793,2.359,121.021,2.359c44.229,0,85.615-0.863,121.021-2.359
		c-35.404-1.504-76.791-2.361-121.021-2.361C108.027,138.023,66.642,138.881,31.234,140.385z"/>
	<path fill="#3479BE" d="M35.074,133.418c35.326,1.498,76.623,2.359,120.746,2.359c44.14,0,85.436-0.861,120.763-2.359
		c-35.327-1.504-76.623-2.367-120.763-2.367C111.697,131.051,70.4,131.914,35.074,133.418z"/>
	<path fill="#3479BE" d="M19.616,126.455c37.797,1.494,81.967,2.359,129.178,2.359c47.209,0,91.384-0.865,129.179-2.359
		c-37.795-1.502-81.97-2.363-129.179-2.363C101.583,124.092,57.413,124.953,19.616,126.455z"/>
	<path fill="#3479BE" d="M9.944,119.482c38.025,1.506,82.461,2.367,129.955,2.367c47.496,0,91.933-0.861,129.955-2.367
		c-38.021-1.498-82.459-2.357-129.955-2.357C92.405,117.125,47.969,117.984,9.944,119.482z"/>
	<path fill="#3479BE" d="M9.733,112.523c37.402,1.492,81.135,2.359,127.86,2.359c46.728,0,90.454-0.867,127.86-2.359
		c-37.406-1.498-81.133-2.365-127.86-2.365C90.867,110.158,47.135,111.025,9.733,112.523z"/>
	<path fill="#3479BE" d="M3.928,105.557c39.813,1.502,86.359,2.361,136.095,2.361c49.738,0,96.282-0.859,136.094-2.361
		c-39.812-1.498-86.355-2.359-136.094-2.359C90.287,103.197,43.741,104.059,3.928,105.557z"/>
	<path fill="#3479BE" d="M1.162,98.59c38.748,1.498,84.036,2.359,132.432,2.359c48.406,0,93.685-0.861,132.437-2.359
		c-38.752-1.498-84.031-2.365-132.437-2.365C85.199,96.225,39.91,97.092,1.162,98.59z"/>
	<path fill="#3479BE" d="M19.057,91.623c33.574,1.504,72.814,2.367,114.75,2.367c41.943,0,81.177-0.863,114.738-2.367
		c-33.561-1.498-72.795-2.354-114.738-2.354C91.871,89.27,52.631,90.125,19.057,91.623z"/>
	<path fill="#3479BE" d="M19.657,84.664c32.354,1.496,70.178,2.357,110.596,2.357s78.24-0.861,110.578-2.357
		c-32.338-1.506-70.157-2.363-110.578-2.363C89.834,82.301,52.01,83.158,19.657,84.664z"/>
	<path fill="#3479BE" d="M6.308,77.695c35.393,1.498,76.771,2.359,120.984,2.359c44.224,0,85.597-0.861,121-2.359
		c-35.403-1.498-76.776-2.359-121-2.359C83.079,75.336,41.7,76.197,6.308,77.695z"/>
	<path fill="#3479BE" d="M25.263,70.734c30.236,1.496,65.559,2.355,103.316,2.355c37.756,0,73.095-0.859,103.325-2.355
		c-30.23-1.502-65.568-2.365-103.325-2.365S55.499,69.232,25.263,70.734z"/>
	<path fill="#3479BE" d="M50.825,63.762c23.217,1.504,50.35,2.367,79.348,2.367c29.002,0,56.138-0.863,79.353-2.367
		c-23.215-1.5-50.351-2.359-79.353-2.359C101.174,61.402,74.041,62.262,50.825,63.762z"/>
	<path fill="#3479BE" d="M55.098,56.801c20.506,1.492,44.475,2.361,70.092,2.361c25.619,0,49.591-0.869,70.101-2.361
		c-20.51-1.498-44.482-2.359-70.101-2.359C99.573,54.441,75.604,55.303,55.098,56.801z"/>
	<path fill="#3479BE" d="M53.989,49.836c19.006,1.498,41.23,2.365,64.973,2.365c23.746,0,45.958-0.867,64.968-2.365
		c-19.011-1.5-41.224-2.357-64.968-2.357C95.219,47.479,72.994,48.336,53.989,49.836z"/>
	<path fill="#3479BE" d="M60.649,42.873c18.033,1.498,39.117,2.355,61.642,2.355c22.534,0,43.611-0.857,61.648-2.355
		c-18.037-1.504-39.114-2.361-61.648-2.361C99.766,40.512,78.682,41.369,60.649,42.873z"/>
	<path fill="#3479BE" d="M76.952,35.906c14.436,1.498,31.307,2.365,49.345,2.365c18.033,0,34.904-0.867,49.339-2.365
		c-14.437-1.498-31.308-2.359-49.339-2.359C108.259,33.547,91.388,34.408,76.952,35.906z"/>
	<path fill="#3479BE" d="M92.085,28.941c9.641,1.502,20.899,2.363,32.937,2.363c12.039,0,23.302-0.861,32.943-2.363
		c-9.641-1.504-20.904-2.361-32.942-2.361S101.726,27.438,92.085,28.941z"/>
</g>
<path fill="#FFFFFF" d="M190.996,118.004c0.215,0.107,0.436,0.203,0.646,0.316c0.004-0.033,0.01-0.078,0.016-0.119
	C191.438,118.135,191.223,118.066,190.996,118.004z"/>
<path fill="#FFFFFF" d="M173.973,114.334c4.922,0,9.651,0.82,14.071,2.305c-4.026-1.619-8.415-2.521-13.021-2.521
	c-1.945,0-3.848,0.166-5.697,0.471C170.85,114.43,172.4,114.334,173.973,114.334z"/>
<path fill="#FFFFFF" d="M275.543,166.375c-1.777-6.406-6.01-12.127-11.602-15.701c-4.883-3.166-10.998-4.713-16.859-4.242
	c-0.219-3.172-1.291-6.338-3.064-8.988c-1.031-1.562-2.324-2.983-3.84-4.229c2.105-5.154,2.68-11.01,1.607-16.549
	c-1.279-6.826-5.17-13.271-10.67-17.672c-5.201-4.227-12.025-6.65-18.715-6.65c-0.283,0-0.562,0-0.832,0.012
	c-5.562,0.119-11.104,1.891-15.678,5.012c-1.648-2.129-3.562-3.953-5.678-5.432c-1.104-0.775-2.302-1.473-3.67-2.146
	c-0.104-0.051-0.207-0.09-0.312-0.131l-0.183-0.078c-0.452-0.205-0.911-0.402-1.381-0.584c-0.183-0.068-0.369-0.137-0.546-0.197
	c-3.166-1.133-6.457-1.689-9.668-1.525c-0.157-0.611-0.303-1.285-0.459-2.061c-0.191-1.014-0.396-2.057-0.696-3.094
	c-0.629-2.344-1.487-4.648-2.556-6.854c-2.213-4.604-5.407-8.863-9.241-12.318c-4.052-3.658-8.938-6.508-14.127-8.242
	c-5.408-1.822-11.243-2.469-16.993-1.873c-8.973,0.883-17.779,5.029-24.168,11.373c-5.732,5.619-9.691,12.971-11.195,20.775
	c-0.994-0.199-1.963-0.301-2.949-0.301c-3.867,0-7.68,1.291-10.727,3.631c-2.232,1.672-4.076,3.896-5.328,6.43
	c-0.82,1.658-1.367,3.512-1.602,5.391c-5.947-1.533-12.307-1.473-18.197,0.148c-6.684,1.818-12.891,5.727-17.467,11.006
	c-3.648,4.191-6.293,9.215-7.646,14.527c-1.309,5.09-1.473,10.506-0.465,15.667c0.924,4.832,2.934,9.521,5.807,13.576
	c2.141,3.016,4.83,5.736,7.826,7.941c-3.336,1.506-6.184,4.004-8.088,7.104c-2.51,3.992-3.369,8.953-2.361,13.594
	c0.109,0.511,0.229,0.976,0.359,1.396l0.043,0.146c0.051,0.178,0.102,0.342,0.24,0.736l0.24,0.68
	c0.035,0.078,0.137,0.315,0.439,0.485l0.168,0.093h29.84h26.68h126.121h2.34h52.805l0.986-2.027l0.391-0.896
	c0.223-0.543,0.479-1.188,0.691-1.854C276.887,177.324,277.02,171.607,275.543,166.375z"/>
<g>
	<path fill="#ADD3F0" d="M132.677,206.312l4.227,4.43l-2.967,5.303l2.447,1.382l3.187-5.646l2.298-0.299l-1.853,4.406l4.953-0.709
		l-0.979,2.368l-6.285,1.593l0.688,2.721l5.911-1.518l3.158,5.288l2.416-1.423l-3.295-5.58l0.928-2.236l2.828,3.729l1.818-4.532
		l1.664,2.166l-1.736,6.14l2.707,0.76l1.635-5.86l6.172-0.101l-0.029-2.805l-6.592,0.062l-1.574-2.047l4.757-0.604l-2.976-3.781
		l2.588-0.336l4.527,4.655l2.016-1.963l-3.854-3.957l-0.42-0.431l3.01-5.354l-2.448-1.377l-3.185,5.642l-2.636,0.343l1.88-4.48
		l-4.611,0.656l0.933-2.252l6.293-1.593l-0.689-2.729l-5.955,1.483l-3.113-5.251l-2.414,1.432l3.295,5.573l-1.018,2.437l-3.029-3.99
		l-1.744,4.354l-1.42-1.853l1.76-6.23l-2.7-0.77l-1.703,5.894l-6.1,0.074l0.028,2.812l6.488-0.07l1.511,1.98l-4.939,0.618
		l3.021,3.854l-2.339,0.301l-4.513-4.645L132.677,206.312z M145.75,209.486l-1.953-2.483l3.135-0.396l1.176-2.941l1.925,2.521
		l3.12-0.445l-1.227,2.908l1.959,2.488l-3.139,0.399l-1.172,2.938l-1.916-2.522l-3.131,0.456L145.75,209.486z"/>
	<path fill="#ADD3F0" d="M124.651,235.126l2.818,2.95l-1.979,3.541l1.635,0.921l2.125-3.769l1.532-0.196l-1.236,2.935l3.303-0.472
		l-0.658,1.582l-4.188,1.062l0.457,1.814l3.941-1.014l2.105,3.528l1.615-0.954l-2.198-3.721l0.618-1.486l1.881,2.481l1.211-3.021
		l1.112,1.442l-1.159,4.092l1.806,0.513l1.091-3.916l4.11-0.062l-0.017-1.871l-4.394,0.045l-1.05-1.361l3.169-0.403l-1.98-2.521
		l1.721-0.223l3.021,3.104l1.34-1.306l-2.564-2.646l-0.277-0.286l2.004-3.562l-1.629-0.925l-2.121,3.759l-1.756,0.232l1.25-2.993
		l-3.076,0.438l0.624-1.498l4.191-1.066l-0.461-1.812l-3.966,0.984l-2.077-3.502l-1.615,0.952l2.201,3.724l-0.678,1.616
		l-2.019-2.655l-1.166,2.901l-0.947-1.235l1.176-4.154l-1.801-0.516l-1.139,3.936l-4.066,0.052l0.021,1.869l4.323-0.042l1.006,1.32
		l-3.29,0.41l2.013,2.567l-1.56,0.203l-3.007-3.099L124.651,235.126z M133.368,237.246l-1.3-1.662l2.086-0.266l0.784-1.953
		l1.282,1.675l2.083-0.291l-0.816,1.938l1.305,1.651l-2.093,0.271l-0.782,1.953l-1.275-1.674l-2.087,0.297L133.368,237.246z"/>
	<path fill="#ADD3F0" d="M225.943,206.312l4.225,4.43l-2.963,5.303l2.445,1.382l3.188-5.646l2.299-0.299l-1.852,4.406l4.951-0.709
		l-0.984,2.368l-6.285,1.593l0.689,2.721l5.912-1.518l3.16,5.288l2.414-1.423l-3.297-5.58l0.93-2.236l2.826,3.729l1.816-4.532
		l1.663,2.166l-1.729,6.14l2.699,0.76l1.643-5.86l6.164-0.101l-0.027-2.805l-6.594,0.062l-1.572-2.047l4.758-0.604l-2.973-3.781
		l2.586-0.336l4.529,4.655l2.014-1.963l-3.854-3.957l-0.42-0.431l3.008-5.354l-2.451-1.377l-3.178,5.642l-2.641,0.343l1.881-4.48
		l-4.607,0.656l0.932-2.252l6.287-1.593l-0.689-2.729l-5.947,1.483l-3.114-5.251l-2.423,1.432l3.296,5.573l-1.019,2.437l-3.022-3.99
		l-1.746,4.354l-1.42-1.853l1.765-6.23l-2.699-0.77l-1.705,5.894l-6.104,0.074l0.03,2.812l6.486-0.07l1.512,1.98l-4.938,0.618
		l3.021,3.854l-2.34,0.301l-4.518-4.645L225.943,206.312z M239.018,209.486l-1.955-2.483l3.139-0.396l1.174-2.941l1.922,2.521
		l3.123-0.445l-1.225,2.908l1.957,2.488l-3.141,0.399l-1.17,2.938l-1.914-2.522l-3.134,0.456L239.018,209.486z"/>
	<path fill="#ADD3F0" d="M217.92,235.126l2.816,2.95l-1.979,3.541l1.633,0.921l2.125-3.769l1.529-0.196l-1.23,2.935l3.299-0.472
		l-0.652,1.582l-4.191,1.062l0.465,1.814l3.937-1.014l2.106,3.528l1.613-0.954l-2.199-3.721l0.617-1.486l1.885,2.481l1.211-3.021
		l1.105,1.442l-1.152,4.092l1.808,0.513l1.09-3.916l4.111-0.062l-0.019-1.871l-4.396,0.045l-1.05-1.361l3.175-0.403l-1.983-2.521
		l1.725-0.223l3.021,3.104l1.34-1.306l-2.568-2.646l-0.274-0.286l2.005-3.562l-1.636-0.925l-2.119,3.759l-1.76,0.232l1.254-2.993
		l-3.073,0.438l0.625-1.498l4.19-1.066l-0.464-1.812l-3.965,0.984l-2.078-3.502l-1.608,0.952l2.194,3.724l-0.678,1.616l-2.02-2.655
		l-1.168,2.901l-0.941-1.235l1.17-4.154l-1.793-0.516l-1.139,3.936l-4.068,0.052l0.019,1.869l4.325-0.042l1.005,1.32l-3.287,0.41
		l2.013,2.567l-1.562,0.203l-3.008-3.099L217.92,235.126z M226.637,237.246l-1.301-1.662l2.088-0.266l0.783-1.953l1.279,1.675
		l2.086-0.291l-0.82,1.938l1.305,1.651l-2.088,0.271l-0.781,1.953l-1.276-1.674l-2.088,0.297L226.637,237.246z"/>
	<path fill="#ADD3F0" d="M186.477,207.154l2.82,2.953l-1.979,3.539l1.633,0.92l2.123-3.771l1.535-0.196l-1.234,2.939l3.3-0.479
		l-0.655,1.582l-4.188,1.062l0.459,1.812l3.938-1.004l2.106,3.521l1.608-0.949l-2.196-3.721l0.619-1.491l1.885,2.481l1.209-3.021
		l1.11,1.444l-1.153,4.096l1.804,0.509l1.09-3.907l4.112-0.07l-0.021-1.869l-4.396,0.047l-1.048-1.363l3.17-0.4l-1.984-2.521
		l1.729-0.229l3.021,3.109l1.338-1.312l-2.569-2.639l-0.279-0.283l2.009-3.568l-1.632-0.915l-2.125,3.754l-1.76,0.235l1.258-3
		l-3.073,0.443l0.623-1.5l4.188-1.068l-0.457-1.812l-3.97,0.987L198.368,198l-1.613,0.95l2.197,3.719l-0.677,1.62l-2.021-2.658
		l-1.162,2.907l-0.943-1.235l1.174-4.152l-1.803-0.517l-1.139,3.933l-4.062,0.047l0.019,1.877l4.33-0.047l1,1.314l-3.289,0.415
		l2.017,2.565l-1.562,0.203l-3.011-3.097L186.477,207.154z M195.193,209.273l-1.301-1.662l2.092-0.26l0.785-1.961l1.275,1.678
		l2.082-0.293l-0.812,1.938l1.307,1.653l-2.096,0.269l-0.783,1.963l-1.273-1.68l-2.09,0.298L195.193,209.273z"/>
	<path fill="#ADD3F0" d="M167.812,234.346l4.229,4.43l-2.969,5.31l2.449,1.379l3.184-5.649l2.3-0.291l-1.853,4.406l4.949-0.714
		l-0.98,2.365l-6.282,1.593l0.69,2.727l5.904-1.519l3.16,5.292l2.418-1.425l-3.302-5.587l0.931-2.23l2.825,3.727l1.816-4.527
		l1.668,2.167l-1.734,6.134l2.705,0.765l1.638-5.861l6.164-0.103l-0.025-2.811l-6.592,0.066l-1.57-2.039l4.759-0.609l-2.978-3.781
		l2.59-0.336l4.523,4.651l2.016-1.956l-3.854-3.96l-0.42-0.431l3.009-5.352l-2.445-1.384l-3.182,5.646l-2.64,0.338l1.883-4.483
		l-4.614,0.661l0.936-2.252l6.291-1.592l-0.692-2.728l-5.948,1.483l-3.115-5.258l-2.418,1.429l3.295,5.581l-1.014,2.438
		l-3.031-3.992l-1.748,4.354l-1.416-1.848l1.763-6.234l-2.701-0.771l-1.705,5.896l-6.104,0.075l0.028,2.805l6.487-0.064l1.513,1.982
		l-4.938,0.627l3.021,3.844l-2.342,0.309l-4.516-4.646L167.812,234.346z M180.889,237.525l-1.953-2.489l3.139-0.396l1.174-2.938
		l1.918,2.519l3.123-0.449l-1.225,2.918l1.957,2.479l-3.135,0.404l-1.177,2.938l-1.913-2.521l-3.134,0.445L180.889,237.525z"/>
	<path fill="#ADD3F0" d="M39.409,206.312l4.226,4.43l-2.963,5.303l2.445,1.382l3.189-5.646l2.297-0.299l-1.852,4.406l4.952-0.709
		l-0.986,2.368l-6.279,1.593l0.688,2.721l5.907-1.518l3.159,5.289l2.417-1.423l-3.295-5.58l0.929-2.237l2.824,3.729l1.818-4.532
		l1.667,2.166l-1.735,6.142l2.708,0.76l1.632-5.862l6.167-0.101l-0.026-2.805l-6.593,0.062l-1.573-2.046l4.757-0.604l-2.975-3.78
		l2.585-0.334l4.534,4.651l2.01-1.963l-3.852-3.957l-0.42-0.431l3.007-5.354l-2.445-1.377l-3.185,5.644l-2.638,0.341l1.882-4.48
		l-4.611,0.656l0.933-2.252l6.291-1.593l-0.693-2.729l-5.95,1.483l-3.116-5.251l-2.417,1.432l3.295,5.573l-1.016,2.436l-3.03-3.99
		l-1.747,4.355l-1.42-1.852l1.764-6.231l-2.699-0.769l-1.708,5.893l-6.102,0.074l0.031,2.811l6.489-0.07l1.508,1.981l-4.936,0.618
		l3.019,3.855l-2.338,0.299l-4.513-4.643L39.409,206.312z M52.482,209.486l-1.952-2.483l3.138-0.396l1.174-2.941l1.919,2.521
		l3.122-0.445l-1.222,2.908l1.957,2.488l-3.134,0.399l-1.177,2.938l-1.911-2.522l-3.132,0.456L52.482,209.486z"/>
	<path fill="#ADD3F0" d="M31.387,235.126l2.82,2.95l-1.98,3.541l1.632,0.921l2.125-3.769l1.531-0.196l-1.234,2.935l3.304-0.472
		l-0.656,1.582l-4.189,1.062l0.459,1.814l3.936-1.014l2.108,3.528l1.612-0.954l-2.2-3.721l0.619-1.486l1.884,2.481l1.213-3.021
		l1.11,1.442l-1.158,4.092l1.804,0.513l1.09-3.916l4.112-0.062l-0.019-1.871l-4.393,0.045l-1.05-1.361l3.171-0.403l-1.983-2.521
		l1.724-0.223l3.019,3.104l1.341-1.306l-2.566-2.646l-0.282-0.286l2.004-3.562l-1.628-0.925l-2.125,3.759l-1.757,0.232l1.255-2.993
		l-3.077,0.438l0.622-1.498l4.194-1.066l-0.464-1.812l-3.963,0.984l-2.077-3.502l-1.612,0.952l2.198,3.724l-0.679,1.616l-2.02-2.655
		l-1.164,2.901l-0.946-1.235l1.176-4.154l-1.799-0.516l-1.138,3.936l-4.07,0.052l0.021,1.869l4.326-0.042l1.008,1.32l-3.293,0.41
		l2.014,2.567l-1.559,0.203l-3.012-3.099L31.387,235.126z M40.103,237.246l-1.304-1.662l2.092-0.266l0.782-1.953l1.281,1.675
		l2.082-0.291l-0.817,1.938l1.306,1.651l-2.089,0.271l-0.783,1.953l-1.278-1.674l-2.088,0.297L40.103,237.246z"/>
	<path fill="#ADD3F0" d="M93.21,207.154l2.818,2.953l-1.978,3.539l1.631,0.92l2.126-3.771l1.53-0.196l-1.232,2.939l3.3-0.479
		l-0.656,1.582l-4.191,1.062l0.461,1.812l3.939-1.004l2.105,3.521l1.614-0.949l-2.202-3.721l0.619-1.491l1.883,2.481l1.214-3.021
		l1.109,1.444l-1.156,4.096l1.802,0.509l1.091-3.907l4.112-0.07l-0.018-1.869l-4.394,0.047l-1.05-1.363l3.173-0.4l-1.983-2.521
		l1.722-0.229l3.021,3.109l1.342-1.312l-2.569-2.639l-0.278-0.283l2.003-3.568l-1.63-0.915l-2.125,3.754l-1.756,0.235l1.253-3
		l-3.072,0.443l0.62-1.5l4.192-1.068l-0.458-1.812l-3.969,0.987l-2.08-3.499l-1.609,0.95l2.194,3.719l-0.674,1.62l-2.02-2.658
		l-1.165,2.907l-0.948-1.235l1.176-4.152l-1.799-0.517l-1.136,3.933l-4.07,0.047l0.021,1.877l4.328-0.047l1.005,1.314l-3.291,0.415
		l2.011,2.565l-1.558,0.203l-3.012-3.097L93.21,207.154z M101.925,209.273l-1.303-1.662l2.09-0.26l0.785-1.961l1.28,1.678
		l2.082-0.293l-0.817,1.938l1.308,1.653l-2.094,0.269l-0.783,1.963l-1.273-1.68l-2.089,0.298L101.925,209.273z"/>
	<path fill="#ADD3F0" d="M74.546,234.346l4.225,4.43l-2.965,5.31l2.446,1.379l3.188-5.649l2.298-0.291l-1.853,4.406l4.953-0.714
		l-0.985,2.365l-6.283,1.593l0.689,2.727l5.911-1.519l3.159,5.292l2.418-1.425l-3.3-5.587l0.93-2.23l2.827,3.727l1.817-4.527
		l1.664,2.167l-1.732,6.134l2.706,0.765l1.633-5.861l6.17-0.103l-0.028-2.811l-6.593,0.066l-1.574-2.039l4.759-0.609l-2.975-3.781
		l2.587-0.336l4.527,4.651l2.013-1.956l-3.849-3.96l-0.421-0.431l3.01-5.352l-2.448-1.384l-3.183,5.646l-2.636,0.338l1.879-4.483
		l-4.612,0.661l0.935-2.252l6.289-1.592l-0.692-2.728l-5.947,1.483l-3.118-5.258l-2.421,1.429l3.302,5.581l-1.018,2.438
		l-3.035-3.992l-1.744,4.354l-1.419-1.848l1.761-6.234l-2.697-0.771l-1.705,5.896l-6.103,0.075l0.028,2.805l6.488-0.064l1.511,1.982
		l-4.937,0.627l3.019,3.844l-2.339,0.309l-4.517-4.646L74.546,234.346z M87.619,237.525l-1.952-2.489l3.132-0.396l1.175-2.938
		l1.918,2.519l3.125-0.449l-1.223,2.918l1.957,2.479l-3.134,0.404l-1.178,2.938l-1.912-2.521l-3.13,0.445L87.619,237.525z"/>
	<path fill="#ADD3F0" d="M240.008,122.818c-0.062-0.092-0.125-0.182-0.205-0.256c0.057-0.48,0.082-0.963,0.104-1.443
		c-0.026-0.277-0.078-0.549-0.117-0.822c-0.054-0.379-0.099-0.77-0.166-1.148c-0.112-0.652-0.254-1.303-0.416-1.943
		c-1.521-6.162-5.101-11.758-10.084-15.752c-4.938-4.004-11.166-6.305-17.545-6.469c-0.326-0.012-0.646-0.016-0.963-0.016
		c-5.013,0-10.134,1.359-14.569,3.828c1.612,2.305,2.855,4.871,3.602,7.539c1.334,4.707,1.209,9.77-0.312,14.336
		c2.646,1.58,5.123,3.5,7.311,5.686c2.854,2.867,5.265,6.23,7.029,9.811c2.039-2.53,4.83-4.514,7.961-5.619
		c1.938-0.686,4.08-1.047,6.199-1.047c2.039,0,4.037,0.322,5.941,0.963c1.801,0.601,3.518,1.513,5.066,2.646
		c0.231-0.773,0.424-1.566,0.588-2.365c0.026-0.139,0.055-0.271,0.08-0.408C239.979,127.859,240.143,125.332,240.008,122.818z
		 M231.848,125.242c-14.242-0.459-25.717-11.752-26.479-25.918c2.314-0.918,4.84-1.439,7.48-1.439
		c11.205,0,20.291,9.086,20.291,20.289C233.143,120.666,232.672,123.045,231.848,125.242z"/>
	<path fill="#ADD3F0" d="M33.088,139.572c-0.014-0.125-0.025-0.25-0.037-0.379c-0.002,0-0.002-0.006-0.006-0.021
		C33.059,139.312,33.071,139.441,33.088,139.572z"/>
	<path fill="#ADD3F0" d="M191.953,114.707c0,0.873-0.08,1.717-0.182,2.555h0.006c1.145,0.367,2.277,0.77,3.373,1.246
		c1.266,0.555,2.512,1.189,3.729,1.896c0.807-4.502,0.446-9.254-1.062-13.484c-1.743-4.975-5.1-9.369-9.432-12.395
		c-0.439-0.311-0.902-0.6-1.363-0.877c-0.623-0.357-1.248-0.709-1.889-1.014c-0.752-0.375-1.518-0.703-2.305-1.025
		c-2.855-1.076-5.908-1.654-8.973-1.654h-0.345c-4.747,0.033-9.618,1.484-13.725,4.066c0.423-0.266,0.873-0.498,1.312-0.742
		c2.485-0.916,5.159-1.443,7.963-1.443C181.707,91.836,191.953,102.07,191.953,114.707z"/>
	<path fill="#ADD3F0" d="M170.215,88.521c0.107-0.021,0.213-0.045,0.322-0.062c0.949-0.186,1.904-0.334,2.875-0.406
		c-0.303-0.879-0.561-1.768-0.797-2.646c-0.248-0.939-0.506-1.914-0.838-2.848c-0.742-2.203-1.688-4.361-2.811-6.406
		c-2.32-4.232-5.5-8.111-9.211-11.227c-3.886-3.279-8.496-5.816-13.318-7.352c-3.779-1.195-7.729-1.801-11.744-1.801
		c-1.332,0-2.674,0.066-3.99,0.203c-8.369,0.832-16.367,4.469-22.525,10.258c-5.725,5.312-9.82,12.432-11.529,20.045
		c-0.031,0.137-0.098,0.25-0.193,0.328c-0.59,2.668-0.912,5.432-0.957,8.207c0,0.107-0.09,0.199-0.199,0.205
		c-0.113,0-0.197-0.092-0.203-0.193c-0.162-2.82-0.012-5.652,0.43-8.422c-4.457,0.232-8.793,1.783-12.273,4.434
		c-3.432,2.578-6.104,6.271-7.609,10.428c0.029,0.018,0.064,0.029,0.088,0.047c0.707,0.645,2.637,0.922,3.557,1.312
		c1.246,0.545,2.459,1.168,3.631,1.854c2.402,1.404,4.662,3.104,6.633,5.074c1.557-0.703,2.846-2.254,4.463-3.062
		c4.01-2.004,8.021-3.416,12.67-3.393c0.035-0.023,0.072-0.039,0.109-0.068c-0.217-0.674-0.566-2.498-0.582-2.576
		c-0.133-0.664-0.246-1.326-0.336-2c-0.182-1.365-0.271-2.742-0.271-4.117c0-17.18,13.922-31.096,31.1-31.096
		c15.46,0,28.248,11.283,30.658,26.061C168.297,88.98,169.246,88.727,170.215,88.521z"/>
	<path fill="#ADD3F0" d="M143.418,150.08c-1.102,0-2.189,0.057-3.267,0.146c-0.01-0.402-0.029-0.808-0.029-1.207
		c0-4.263,0.774-8.332,2.169-12.095c2.932-8.563,8.662-15.18,15.904-19.275c-0.229,0.086-0.43,0.188-0.65,0.277l0.486-0.215
		c0,0-6.703,1.195-14.43,7.375c-1.232,0.984-2.482,2.096-3.742,3.348c-0.057,0.057-0.113,0.113-0.17,0.17
		c-0.617,0.623-1.238,1.273-1.854,1.958c-0.002,0.014-0.01,0.02-0.016,0.022c-0.58,0.649-1.162,1.349-1.736,2.062
		c-0.088,0.119-0.176,0.229-0.264,0.334c-0.568,0.729-1.129,1.475-1.688,2.268c-0.094,0.131-0.182,0.27-0.277,0.4
		c-0.508,0.729-1,1.483-1.496,2.277c-0.074,0.118-0.146,0.231-0.221,0.354c-0.527,0.854-1.043,1.756-1.547,2.684
		c-0.113,0.211-0.223,0.42-0.336,0.637c-0.514,0.963-1.014,1.955-1.498,3.002c-0.221,0.103-0.434,0.222-0.652,0.322
		c-2.807,1.246-5.861,1.887-8.934,1.887c-0.678,0-1.346-0.039-2.02-0.104c-0.004,0-0.004,0-0.006,0
		c-4.662-0.424-8.91-2.289-12.291-5.146c-0.035-0.022-0.066-0.045-0.098-0.062c-5.363-4.385-8.783-11.033-8.783-18.498
		c0-7.811,3.771-14.732,9.58-19.082c0.453-0.125,0.816-0.256,0.932-0.396c-0.037,0.01-0.074,0.021-0.113,0.033
		c-2.34,0.498-4.611,1.252-6.764,2.242c-0.006,0-0.01,0-0.02,0c-0.719,0.334-1.424,0.686-2.115,1.066
		c-0.064,0.039-0.125,0.078-0.189,0.117c-0.629,0.352-1.25,0.721-1.855,1.111c-0.152,0.096-0.301,0.215-0.453,0.322
		c-0.5,0.334-1.002,0.68-1.479,1.043c-0.277,0.209-0.531,0.441-0.793,0.65c-0.346,0.289-0.695,0.555-1.027,0.855
		c-0.586,0.521-1.15,1.064-1.688,1.631c-4.387,4.561-7.373,10.621-8.408,17.066c-0.018,0.09-0.104,0.164-0.199,0.164
		c-0.113,0-0.197-0.084-0.203-0.188c-0.182-3.154,0.289-6.434,1.365-9.492c1.203-3.432,3.166-6.621,5.68-9.238
		c0.346-0.357,0.723-0.687,1.088-1.025c-3.02-2.561-6.484-4.6-10.172-6.01c-1.23-0.463-2.48-0.865-3.756-1.189
		c-0.127,0.035-0.264,0.029-0.391,0c-0.439-0.006-0.943-0.186-1.398-0.305c-0.006-0.006-0.016-0.006-0.02-0.006
		c-0.74-0.148-1.484-0.271-2.23-0.375c-0.006,0-0.008,0-0.014,0c-0.441-0.045-0.863-0.045-1.305-0.051
		c-0.199-0.006-0.381-0.066-0.557-0.141c-0.883-0.068-1.764-0.119-2.656-0.119c-3.336,0-6.633,0.486-9.795,1.434
		c-6.064,1.795-11.705,5.438-15.883,10.246c-3.322,3.822-5.777,8.389-7.102,13.219c-0.318,1.145-0.57,2.322-0.768,3.506
		c-0.098,0.605-0.137,1.227-0.199,1.83c-0.064,0.584-0.156,1.156-0.191,1.732c-0.047,0.813-0.023,1.639-0.016,2.451
		c0.004,0.387-0.02,0.771-0.002,1.149c0.027,0.649,0.125,1.297,0.189,1.938c0.049,0.254,0.1,0.504,0.156,0.752
		c-0.012,0.258-0.006,0.512,0,0.771c0.012,0.097,0.012,0.197,0.027,0.289c0.697,4.515,2.379,8.978,4.859,12.92
		c2.148,3.397,4.963,6.463,8.146,8.955c3.213-1.319,6.863-1.756,10.279-1.226c0.049-0.871,0.148-1.731,0.318-2.588
		c0.617-3.063,2.08-6.033,4.123-8.345c1.846-2.106,4.156-3.731,6.689-4.7c0.094-0.039,0.197,0.006,0.246,0.092
		c0.047,0.091,0.025,0.203-0.061,0.261c-4.434,3.188-7.572,7.985-8.604,13.174c-1.07,5.217-0.057,10.858,2.781,15.485
		c0.051,0.091,0.035,0.197-0.045,0.267c-0.037,0.029-0.08,0.041-0.125,0.041c-0.053,0-0.102-0.012-0.141-0.058
		c-1.961-1.887-3.455-4.282-4.328-6.934c-0.65-1.988-0.918-4.072-0.861-6.162c-0.02,0-0.039,0-0.057,0l0.057-0.067
		c0,0-0.787-0.007-2.033,0.096c-1.037,0.062-2.061,0.215-3.07,0.433c-5.912,1.141-14.846,4.766-14.811,16.25
		c-0.068,1.381,0.027,2.78,0.326,4.129c0.033,0.178,0.088,0.401,0.154,0.655c0.074,0.283,0.168,0.533,0.268,0.767l52.691,1.893
		c-0.254-1.262-0.422-2.555-0.422-3.896c0-11.045,8.959-20.006,20.01-20.006c6.941,0,13.053,3.541,16.643,8.91
		c4.16-10.535,14.412-17.994,26.418-17.994c1.688,0,3.33,0.176,4.933,0.459c0.366-0.131,0.75-0.228,1.122-0.353
		C154.078,151.297,148.895,150.08,143.418,150.08z M153.58,119.697l0.758-0.34c-0.396,0.197-0.775,0.414-1.166,0.617L153.58,119.697
		z M56.752,145.707c-7.629-2.861-13.076-10.201-13.076-18.846c0-11.117,9.016-20.129,20.133-20.129
		c6.299,0,11.918,2.883,15.607,7.414c-5.439,6.084-9.139,13.73-10.441,22.18C64.166,138.416,59.985,141.662,56.752,145.707z
		 M71.252,146.455c-0.062-0.018-0.121-0.023-0.182-0.035c0.119-0.084,0.244-0.164,0.363-0.248
		C71.371,146.268,71.307,146.357,71.252,146.455z M72.688,167.689c-3.791-6.707-3.229-14.83,3.33-21.207
		c2.139-2.072,4.744-2.883,7.328-2.662c2.191,3.801,5.275,6.934,8.92,9.527C83.575,154.502,76.287,160.049,72.688,167.689z"/>
	<path fill="#ADD3F0" d="M207.348,161.9c7.67,2.6,14.205,7.674,18.627,14.285c-0.23-1.24-0.354-2.519-0.354-3.824
		c0-11.504,9.322-20.826,20.82-20.826c11.496,0,20.82,9.322,20.82,20.826c0,4.684-1.568,8.994-4.188,12.473
		c0.899-0.033,1.797-0.062,2.696-0.096c0.562-0.021,1.121-0.041,1.683-0.057l0.659-0.023c0.316-0.012,0.705-0.057,1.068-0.039
		l1.932-0.068l0.576-1.371c0.168-0.43,0.351-0.934,0.517-1.455c0,0,0-0.012,0-0.018c0.062-0.396,0.215-0.793,0.34-1.189
		c0.049-0.17,0.106-0.346,0.147-0.521c0.078-0.328,0.146-0.656,0.209-0.99c0.058-0.262,0.113-0.526,0.158-0.793
		c0.058-0.34,0.101-0.687,0.144-1.024c0.032-0.271,0.071-0.543,0.096-0.814c0.033-0.352,0.05-0.695,0.068-1.047
		c0.012-0.264,0.032-0.521,0.036-0.787c0.011-0.363-0.004-0.729-0.01-1.096c-0.006-0.254-0.006-0.504-0.018-0.754
		c-0.021-0.365-0.061-0.74-0.094-1.104c-0.024-0.25-0.037-0.498-0.067-0.742c-0.052-0.391-0.12-0.785-0.188-1.178
		c-0.041-0.211-0.062-0.438-0.106-0.646c-0.125-0.604-0.264-1.201-0.433-1.789c-1.575-5.664-5.282-10.791-10.178-14.082
		c-0.672-0.439-1.363-0.854-2.067-1.244c-0.177-0.092-0.354-0.178-0.535-0.262c-0.541-0.283-1.086-0.549-1.647-0.787
		c-0.179-0.072-0.354-0.146-0.533-0.215c-0.707-0.289-1.428-0.545-2.158-0.767c-1.151-0.34-2.324-0.601-3.508-0.774
		c-2.416-0.375-4.896-0.562-7.332-0.267c-1.141,0.142-2.266,0.354-3.371,0.64c-1.127,0.295-2.236,0.651-3.312,1.088
		c-2.164,0.867-4.216,2.021-6.066,3.434c-0.086,0.062-0.209,0.047-0.275-0.033c-0.072-0.084-0.062-0.203,0.021-0.275
		c3.914-3.506,8.986-5.762,14.312-6.391c-0.672-3.082-2.021-5.939-3.965-8.324c-2.291-2.84-5.438-5.041-8.871-6.191
		c-1.94-0.646-3.992-0.979-6.082-0.979c-1.601,0-3.188,0.199-4.729,0.584c-3.012,0.755-5.851,2.255-8.252,4.334
		c0.184,0.386,0.362,0.771,0.533,1.16c1.643,3.789,2.633,7.94,2.864,12.015c0.004,0.106-0.067,0.196-0.176,0.209
		c-0.003,0-0.003,0-0.009,0c-0.01,0-0.01,0-0.02,0c-0.096,0-0.178-0.062-0.195-0.15c-1.86-8.227-6.129-15.984-12.02-21.857
		c-0.682-0.68-1.389-1.338-2.109-1.971c-0.395-0.346-0.807-0.674-1.215-1.004c-0.312-0.254-0.615-0.51-0.938-0.758
		c-0.572-0.438-1.152-0.861-1.752-1.275c-0.137-0.09-0.273-0.191-0.408-0.283c-0.711-0.486-1.434-0.951-2.164-1.387h-0.006
		c8.264,6.377,13.596,16.355,13.596,27.609c0,4.565-0.881,8.916-2.479,12.914C207.41,161.922,207.377,161.912,207.348,161.9z
		 M226.064,133.5c7.223,0,13.088,5.789,13.223,12.982c-0.99,0.209-2.016,0.322-3.072,0.322c-7.395,0-13.5-5.438-14.588-12.527
		C223.016,133.783,224.504,133.5,226.064,133.5z"/>
</g>
<path fill="#231F20" d="M275.543,166.375c-1.777-6.406-6.01-12.127-11.602-15.701c-4.883-3.166-10.998-4.713-16.859-4.242
	c-0.219-3.172-1.291-6.338-3.064-8.988c-1.031-1.562-2.324-2.983-3.84-4.229c2.105-5.154,2.68-11.01,1.607-16.549
	c-1.279-6.826-5.17-13.271-10.67-17.672c-5.201-4.227-12.025-6.65-18.715-6.65c-0.283,0-0.562,0-0.832,0.012
	c-5.562,0.119-11.104,1.891-15.678,5.012c-1.648-2.129-3.562-3.953-5.678-5.432c-1.104-0.775-2.302-1.473-3.67-2.146
	c-0.104-0.051-0.207-0.09-0.312-0.131l-0.183-0.078c-0.452-0.205-0.911-0.402-1.381-0.584c-0.183-0.068-0.369-0.137-0.546-0.197
	c-3.166-1.133-6.457-1.689-9.668-1.525c-0.157-0.611-0.303-1.285-0.459-2.061c-0.191-1.014-0.396-2.057-0.696-3.094
	c-0.629-2.344-1.487-4.648-2.556-6.854c-2.213-4.604-5.407-8.863-9.241-12.318c-4.052-3.658-8.938-6.508-14.127-8.242
	c-5.408-1.822-11.243-2.469-16.993-1.873c-8.973,0.883-17.779,5.029-24.168,11.373c-5.732,5.619-9.691,12.971-11.195,20.775
	c-0.994-0.199-1.963-0.301-2.949-0.301c-3.867,0-7.68,1.291-10.727,3.631c-2.232,1.672-4.076,3.896-5.328,6.43
	c-0.82,1.658-1.367,3.512-1.602,5.391c-5.947-1.533-12.307-1.473-18.197,0.148c-6.684,1.818-12.891,5.727-17.467,11.006
	c-3.648,4.191-6.293,9.215-7.646,14.527c-1.309,5.09-1.473,10.506-0.465,15.667c0.924,4.832,2.934,9.521,5.807,13.576
	c2.141,3.016,4.83,5.736,7.826,7.941c-3.336,1.506-6.184,4.004-8.088,7.104c-2.51,3.992-3.369,8.953-2.361,13.594
	c0.109,0.511,0.229,0.976,0.359,1.396l0.043,0.146c0.051,0.178,0.102,0.342,0.24,0.736l0.24,0.68
	c0.035,0.078,0.137,0.315,0.439,0.485l0.168,0.093h56.516l-0.262-0.729h-0.771c-0.029-0.074-0.088-0.14-0.174-0.146l-53.275-1.905
	c-0.1-0.232-0.193-0.482-0.268-0.769c-0.066-0.254-0.121-0.479-0.154-0.656c-0.299-1.348-0.395-2.748-0.326-4.129
	c-0.035-11.483,8.898-15.108,14.811-16.25c1.01-0.217,2.033-0.369,3.07-0.432c1.246-0.102,2.033-0.096,2.033-0.096
	s-0.057,0.068,0,0.068c-0.057,2.09,0.211,4.174,0.861,6.162c0.873,2.647,2.367,5.047,4.328,6.934
	c0.039,0.045,0.088,0.057,0.141,0.057c0.045,0,0.088-0.012,0.125-0.041c0.08-0.068,0.096-0.176,0.045-0.266
	c-2.838-4.627-3.852-10.271-2.781-15.486c1.031-5.188,4.17-9.984,8.604-13.174c0.086-0.057,0.107-0.17,0.061-0.26
	c-0.049-0.086-0.152-0.131-0.246-0.092c-2.533,0.969-4.844,2.594-6.689,4.7c-2.043,2.312-3.506,5.277-4.123,8.345
	c-0.17,0.854-0.27,1.717-0.318,2.588c-3.416-0.531-7.066-0.096-10.279,1.225c-3.184-2.492-5.998-5.557-8.146-8.955
	c-2.48-3.943-4.162-8.406-4.859-12.92c-0.758-4.793-0.479-9.783,0.803-14.422c1.324-4.83,3.779-9.396,7.102-13.219
	c4.178-4.809,9.818-8.451,15.883-10.246c3.162-0.947,6.459-1.434,9.795-1.434c2.775,0,5.523,0.334,8.18,0.996
	c0.127,0.029,0.264,0.035,0.391,0c5.084,1.297,9.9,3.785,13.932,7.199c-0.369,0.34-0.746,0.668-1.092,1.025
	c-2.514,2.617-4.477,5.807-5.68,9.238c-1.076,3.059-1.547,6.338-1.365,9.492c0.006,0.104,0.09,0.188,0.203,0.188
	c0.096,0,0.182-0.074,0.199-0.164c1.035-6.445,4.021-12.506,8.408-17.066c4.336-4.553,10.26-7.793,16.684-9.113
	c0.098-0.027,0.164-0.119,0.158-0.221c-0.008-0.102-0.096-0.188-0.199-0.188c-3.131-0.051-6.422,0.566-9.422,1.768
	c-2.783,1.1-5.367,2.754-7.627,4.746c-3.852-3.811-8.643-6.666-13.854-8.273c-0.023-0.018-0.059-0.029-0.088-0.047
	c1.506-4.156,4.178-7.85,7.609-10.428c3.48-2.65,7.816-4.201,12.273-4.434c-0.441,2.77-0.592,5.602-0.43,8.422
	c0.006,0.102,0.09,0.193,0.203,0.193c0.109-0.006,0.199-0.098,0.199-0.205c0.045-2.775,0.367-5.539,0.957-8.207
	c0.096-0.078,0.162-0.191,0.193-0.328c1.709-7.613,5.805-14.732,11.529-20.045c6.158-5.789,14.156-9.426,22.525-10.258
	c1.316-0.137,2.658-0.203,3.99-0.203c4.014,0,7.962,0.605,11.743,1.801c4.822,1.535,9.437,4.072,13.318,7.352
	c3.711,3.115,6.891,6.994,9.211,11.227c1.121,2.045,2.066,4.203,2.811,6.406c0.332,0.934,0.591,1.908,0.839,2.848
	c0.233,0.879,0.493,1.768,0.797,2.646c-5.097,0.373-10.021,2.379-13.854,5.646c-0.086,0.068-0.1,0.193-0.035,0.271
	c0.062,0.086,0.183,0.113,0.271,0.051c4.104-2.582,8.977-4.033,13.725-4.066h0.344c3.062,0,6.117,0.578,8.974,1.654
	c0.787,0.322,1.554,0.65,2.306,1.025c0.641,0.305,1.266,0.656,1.887,1.014c0.463,0.277,0.926,0.566,1.365,0.877
	c4.332,3.025,7.688,7.42,9.432,12.395c1.508,4.23,1.863,8.982,1.061,13.484c-1.219-0.707-2.465-1.342-3.729-1.896
	c-3.787-1.643-7.938-2.65-12.012-2.889c-0.104,0-0.193,0.068-0.217,0.17c-0.011,0.102,0.057,0.203,0.159,0.227
	c8.22,1.881,15.974,6.168,21.828,12.07c5.89,5.873,10.155,13.633,12.019,21.856c0.021,0.09,0.104,0.15,0.225,0.15
	c0.105-0.012,0.181-0.102,0.176-0.209c-0.23-4.07-1.225-8.225-2.863-12.014c-0.171-0.393-0.354-0.775-0.533-1.16
	c2.4-2.08,5.239-3.58,8.252-4.334c1.541-0.385,3.131-0.584,4.729-0.584c2.091,0,4.143,0.334,6.082,0.979
	c3.436,1.149,6.58,3.354,8.871,6.19c1.941,2.385,3.293,5.244,3.965,8.326c-5.32,0.629-10.396,2.883-14.312,6.389
	c-0.082,0.074-0.094,0.193-0.021,0.277c0.067,0.079,0.19,0.096,0.276,0.032c3.688-2.811,8.154-4.6,12.75-5.157
	c2.437-0.296,4.916-0.109,7.332,0.266c2.334,0.347,4.619,1.015,6.771,1.994c1.278,0.576,2.515,1.269,3.683,2.056
	c4.896,3.291,8.603,8.418,10.179,14.082c1.303,4.641,1.231,9.713-0.209,14.278c-0.185,0.601-0.402,1.179-0.591,1.67l-0.575,1.371
	l-51.964,1.808c-0.086,0-0.147,0.062-0.176,0.145h-0.77l-0.258,0.729h55.144l0.987-2.029l0.391-0.896
	c0.223-0.543,0.479-1.188,0.691-1.856C276.887,177.324,277.02,171.607,275.543,166.375z M233.771,130.465
	c-1.904-0.641-3.902-0.963-5.941-0.963c-2.119,0-4.264,0.361-6.199,1.047c-3.131,1.105-5.922,3.088-7.961,5.619
	c-1.768-3.58-4.176-6.943-7.029-9.811c-2.188-2.186-4.664-4.105-7.311-5.686c1.521-4.566,1.646-9.629,0.312-14.336
	c-0.742-2.668-1.986-5.234-3.603-7.539c4.438-2.469,9.562-3.828,14.569-3.828c0.318,0,0.638,0.004,0.964,0.016
	c6.379,0.164,12.606,2.465,17.545,6.469c4.981,3.994,8.562,9.59,10.084,15.752c1.302,5.178,1.155,10.773-0.364,15.904
	C237.289,131.977,235.572,131.064,233.771,130.465z"/>
</svg>
