<?xml version="1.0" encoding="utf-8"?>
<!-- Generator: Adobe Illustrator 15.0.2, SVG Export Plug-In . SVG Version: 6.00 Build 0)  -->
<!DOCTYPE svg PUBLIC "-//W3C//DTD SVG 1.1//EN" "http://www.w3.org/Graphics/SVG/1.1/DTD/svg11.dtd">
<svg version="1.1" id="Layer_1" xmlns="http://www.w3.org/2000/svg" xmlns:xlink="http://www.w3.org/1999/xlink" x="0px" y="0px"
	 width="280px" height="260px" viewBox="0 0 280 260" enable-background="new 0 0 280 260" xml:space="preserve">
<g>
	<g>
		<path fill="#3479BE" d="M33.631,147.234c34.459,1.498,74.74,2.365,117.777,2.365c43.047,0,83.324-0.867,117.779-2.365
			c-34.455-1.498-74.732-2.354-117.779-2.354C108.371,144.88,68.09,145.736,33.631,147.234z"/>
		<path fill="#3479BE" d="M31.152,140.273c35.408,1.496,76.793,2.357,121.021,2.357c44.229,0,85.614-0.861,121.021-2.357
			c-35.404-1.504-76.791-2.36-121.021-2.36C107.945,137.913,66.56,138.771,31.152,140.273z"/>
		<path fill="#3479BE" d="M34.992,133.309c35.326,1.498,76.623,2.358,120.746,2.358c44.139,0,85.434-0.86,120.762-2.358
			c-35.328-1.504-76.623-2.367-120.762-2.367C111.615,130.939,70.318,131.805,34.992,133.309z"/>
		<path fill="#3479BE" d="M19.535,126.345c37.797,1.494,81.967,2.359,129.178,2.359c47.209,0,91.383-0.865,129.178-2.359
			c-37.795-1.502-81.969-2.363-129.178-2.363C101.502,123.981,57.332,124.843,19.535,126.345z"/>
		<path fill="#3479BE" d="M9.862,119.372c38.024,1.506,82.461,2.367,129.955,2.367c47.498,0,91.935-0.861,129.955-2.367
			c-38.021-1.498-82.457-2.357-129.955-2.357C92.323,117.015,47.887,117.874,9.862,119.372z"/>
		<path fill="#3479BE" d="M9.651,112.413c37.403,1.492,81.135,2.359,127.86,2.359c46.729,0,90.454-0.867,127.859-2.359
			c-37.405-1.498-81.131-2.365-127.859-2.365C90.786,110.048,47.054,110.915,9.651,112.413z"/>
		<path fill="#3479BE" d="M3.845,105.446c39.814,1.502,86.36,2.361,136.096,2.361c49.739,0,96.284-0.859,136.094-2.361
			c-39.811-1.498-86.355-2.359-136.094-2.359C90.206,103.087,43.66,103.948,3.845,105.446z"/>
		<path fill="#3479BE" d="M1.08,98.479c38.75,1.498,84.037,2.359,132.433,2.359c48.405,0,93.685-0.861,132.437-2.359
			c-38.752-1.498-84.031-2.365-132.437-2.365C85.117,96.114,39.83,96.981,1.08,98.479z"/>
		<path fill="#3479BE" d="M18.974,91.513c33.575,1.504,72.815,2.367,114.751,2.367c41.942,0,81.179-0.863,114.738-2.367
			c-33.561-1.498-72.796-2.354-114.738-2.354C91.79,89.159,52.55,90.015,18.974,91.513z"/>
		<path fill="#3479BE" d="M19.576,84.554c32.353,1.496,70.177,2.357,110.595,2.357c40.42,0,78.241-0.861,110.579-2.357
			c-32.338-1.506-70.158-2.363-110.579-2.363C89.753,82.19,51.929,83.048,19.576,84.554z"/>
		<path fill="#3479BE" d="M6.226,77.585c35.393,1.498,76.771,2.359,120.984,2.359c44.224,0,85.597-0.861,121-2.359
			c-35.403-1.498-76.776-2.359-121-2.359C82.998,75.226,41.619,76.087,6.226,77.585z"/>
		<path fill="#3479BE" d="M25.181,70.624c30.236,1.496,65.559,2.355,103.316,2.355s73.095-0.859,103.323-2.355
			c-30.229-1.502-65.566-2.365-103.323-2.365S55.418,69.122,25.181,70.624z"/>
		<path fill="#3479BE" d="M50.743,63.651c23.216,1.504,50.35,2.367,79.348,2.367c29.005,0,56.138-0.863,79.354-2.367
			c-23.217-1.5-50.35-2.359-79.354-2.359C101.093,61.292,73.959,62.151,50.743,63.651z"/>
		<path fill="#3479BE" d="M55.016,56.69c20.506,1.492,44.475,2.361,70.092,2.361c25.621,0,49.591-0.869,70.103-2.361
			c-20.512-1.498-44.482-2.359-70.103-2.359C99.491,54.331,75.522,55.192,55.016,56.69z"/>
		<path fill="#3479BE" d="M53.907,49.726c19.007,1.498,41.23,2.365,64.973,2.365c23.747,0,45.959-0.867,64.97-2.365
			c-19.011-1.5-41.224-2.357-64.97-2.357C95.137,47.368,72.914,48.226,53.907,49.726z"/>
		<path fill="#3479BE" d="M60.568,42.763c18.033,1.498,39.116,2.355,61.641,2.355c22.533,0,43.613-0.857,61.648-2.355
			c-18.035-1.504-39.115-2.361-61.648-2.361C99.684,40.401,78.601,41.259,60.568,42.763z"/>
		<path fill="#3479BE" d="M76.871,35.796c14.436,1.498,31.307,2.365,49.345,2.365c18.032,0,34.905-0.867,49.341-2.365
			c-14.437-1.498-31.31-2.359-49.341-2.359C108.178,33.437,91.306,34.298,76.871,35.796z"/>
		<path fill="#3479BE" d="M92.004,28.831c9.641,1.502,20.899,2.363,32.937,2.363c12.039,0,23.304-0.861,32.941-2.363
			c-9.639-1.504-20.903-2.361-32.941-2.361S101.644,27.327,92.004,28.831z"/>
	</g>
	<path fill="#FFFFFF" d="M51.58,213.2c0.07-1.474,0.799-4.537,1.379-7.06c-1.41,2.236-3.082,4.935-4.09,6.045l0,0
		c-0.084,0.105-0.166,0.23-0.223,0.379c-0.32,0.771,0.047,1.666,0.824,1.98c0.775,0.328,1.668-0.039,1.992-0.82
		C51.537,213.552,51.568,213.382,51.58,213.2L51.58,213.2z"/>
	<path fill="#FFFFFF" d="M76.527,245.661c0.078-1.479,0.805-4.537,1.393-7.06c-1.418,2.244-3.092,4.935-4.098,6.045l0,0
		c-0.088,0.105-0.166,0.234-0.223,0.373c-0.324,0.771,0.045,1.67,0.82,1.994c0.781,0.32,1.672-0.047,1.994-0.828
		C76.488,246.018,76.521,245.837,76.527,245.661L76.527,245.661z"/>
	<path fill="#FFFFFF" d="M128.209,213.2c0.076-1.474,0.801-4.537,1.379-7.06c-1.408,2.236-3.082,4.935-4.086,6.045l0,0
		c-0.088,0.105-0.168,0.23-0.227,0.379c-0.32,0.771,0.047,1.666,0.83,1.98c0.77,0.328,1.664-0.039,1.986-0.82
		C128.166,213.552,128.201,213.382,128.209,213.2L128.209,213.2z"/>
	<path fill="#FFFFFF" d="M153.156,245.661c0.08-1.479,0.805-4.537,1.393-7.06c-1.418,2.244-3.092,4.935-4.098,6.045l0,0
		c-0.088,0.105-0.166,0.234-0.223,0.373c-0.324,0.771,0.045,1.67,0.826,1.994c0.772,0.32,1.666-0.047,1.985-0.828
		C153.117,246.018,153.15,245.837,153.156,245.661L153.156,245.661z"/>
	<path fill="#FFFFFF" d="M204.836,213.2c0.072-1.474,0.797-4.537,1.381-7.06c-1.408,2.236-3.084,4.935-4.086,6.045l0,0
		c-0.088,0.105-0.174,0.23-0.229,0.379c-0.322,0.771,0.049,1.666,0.826,1.98c0.776,0.328,1.664-0.039,1.994-0.82
		C204.795,213.552,204.824,213.382,204.836,213.2L204.836,213.2z"/>
	<path fill="#FFFFFF" d="M229.785,245.661c0.076-1.479,0.805-4.537,1.389-7.06c-1.416,2.244-3.088,4.935-4.096,6.045l0,0
		c-0.088,0.105-0.164,0.234-0.221,0.373c-0.324,0.771,0.045,1.67,0.824,1.994c0.774,0.32,1.668-0.047,1.986-0.828
		C229.74,246.018,229.779,245.837,229.785,245.661L229.785,245.661z"/>
	<path fill="#FFFFFF" d="M191.055,118.071c0.215,0.113,0.43,0.211,0.646,0.328c0.006-0.039,0.012-0.084,0.012-0.117
		C191.496,118.208,191.281,118.14,191.055,118.071z"/>
	<path fill="#FFFFFF" d="M174.027,114.413c4.926,0,9.654,0.814,14.076,2.305c-4.021-1.625-8.416-2.52-13.027-2.52
		c-1.939,0-3.84,0.164-5.693,0.469C170.908,114.503,172.459,114.413,174.027,114.413z"/>
	<path fill="#FFFFFF" d="M275.596,166.448c-1.771-6.4-6.011-12.128-11.603-15.695c-4.882-3.166-10.998-4.717-16.858-4.248
		c-0.213-3.166-1.291-6.332-3.064-8.994c-1.029-1.562-2.318-2.979-3.834-4.219c2.102-5.16,2.68-11.018,1.604-16.557
		c-1.271-6.832-5.17-13.271-10.668-17.672c-5.203-4.227-12.023-6.65-18.717-6.65c-0.283,0-0.562,0-0.832,0.012
		c-5.559,0.119-11.098,1.898-15.68,5.014c-1.643-2.131-3.553-3.955-5.676-5.434c-1.094-0.77-2.295-1.477-3.67-2.146
		c-0.099-0.051-0.201-0.09-0.308-0.129l-0.183-0.08c-0.448-0.203-0.911-0.402-1.381-0.584c-0.184-0.066-0.369-0.129-0.545-0.191
		c-3.166-1.139-6.451-1.688-9.668-1.529c-0.152-0.611-0.305-1.281-0.457-2.062c-0.195-1.014-0.397-2.051-0.692-3.092
		c-0.636-2.346-1.49-4.65-2.562-6.859c-2.217-4.6-5.408-8.859-9.242-12.309c-4.059-3.664-8.938-6.52-14.121-8.252
		c-5.409-1.818-11.25-2.459-16.997-1.869c-8.971,0.883-17.781,5.029-24.168,11.373c-5.734,5.619-9.693,12.971-11.195,20.775
		c-0.996-0.197-1.965-0.299-2.947-0.299c-3.871,0-7.684,1.291-10.73,3.629c-2.234,1.672-4.072,3.898-5.324,6.43
		c-0.824,1.66-1.371,3.506-1.605,5.393c-5.945-1.535-12.303-1.467-18.197,0.152c-6.684,1.818-12.891,5.727-17.467,11.006
		c-3.648,4.186-6.293,9.209-7.646,14.521c-1.309,5.088-1.467,10.508-0.463,15.668c0.928,4.83,2.932,9.527,5.803,13.576
		c2.143,3.014,4.832,5.738,7.828,7.947c-3.336,1.506-6.186,4.004-8.088,7.096c-2.51,4-3.367,8.949-2.359,13.6
		c0.111,0.51,0.23,0.969,0.359,1.396l0.043,0.15c0.049,0.17,0.1,0.342,0.24,0.729l0.238,0.681c0.035,0.08,0.139,0.317,0.441,0.487
		l0.164,0.09h29.84h26.68h126.113h2.34h52.808l0.983-2.021l0.392-0.896c0.223-0.545,0.479-1.193,0.692-1.857
		C276.943,177.396,277.074,171.688,275.596,166.448z"/>
	<g>
		<path fill="#ADD3F0" d="M52.234,244.171l-5.488,0.068l-1.215-1.587l4.117-0.487l-2.58-3.336l2.09-0.277l3.844,3.933l1.701-1.658
			l-3.607-3.705l2.52-4.547l-2.072-1.17l-2.691,4.787l-1.959,0.254l1.572-3.65l-4.209,0.572l0.854-2.068l5.318-1.354l-0.59-2.312
			l-5.012,1.271l-2.668-4.452l-2.055,1.213l2.811,4.729l-0.797,1.902l-2.361-3.162l-1.568,3.812l-1.371-1.788l1.484-5.285
			l-2.295-0.646l-1.412,5.008l-0.508,0.007l-4.684,0.057l0.027,2.38l5.504-0.062l1.344,1.756l-4.047,0.471l2.482,3.223l-2.168,0.277
			l-3.904-3.998l-1.703,1.664l3.631,3.762l-2.543,4.486l2.076,1.166l2.648-4.707l2.299-0.295l-1.637,3.801l3.926-0.531l-0.785,1.894
			l-5.32,1.356l0.588,2.308l5.064-1.271l2.625,4.451l2.041-1.217l-2.797-4.725l0.832-2.004l2.531,3.399l1.541-3.754l1.195,1.56
			l-1.484,5.291l2.295,0.645l1.41-4.949l5.188-0.113L52.234,244.171z M41.517,243.083l-1.604-2.146l-2.656,0.36l1.055-2.471
			l-1.633-2.117l2.662-0.312l1.02-2.477l1.598,2.143l2.656-0.354l-1.059,2.466l1.637,2.116l-2.66,0.312L41.517,243.083z"/>
		<path fill="#ADD3F0" d="M55.082,213.325c0.188-3.688,2.006-11.341,3.461-17.668c-3.527,5.612-7.711,12.348-10.229,15.112v0.006
			c-0.225,0.283-0.422,0.595-0.561,0.938c-0.805,1.943,0.113,4.176,2.061,4.979c1.948,0.807,4.17-0.111,4.98-2.062
			C54.974,214.208,55.062,213.768,55.082,213.325L55.082,213.325z"/>
		<path fill="#ADD3F0" d="M101.324,215.566l-5.488,0.062l-1.215-1.586l4.115-0.487l-2.58-3.343l2.092-0.271l3.842,3.938l1.703-1.666
			l-3.607-3.709l2.521-4.543l-2.08-1.168l-2.689,4.793l-1.961,0.254l1.576-3.656l-4.209,0.564l0.855-2.062l5.318-1.354l-0.586-2.312
			l-5.016,1.275l-2.668-4.459l-2.051,1.213l2.805,4.729l-0.793,1.904l-2.363-3.16l-1.568,3.812l-1.373-1.789l1.486-5.285
			l-2.293-0.641l-1.416,5.002l-0.506,0.006l-4.68,0.059l0.025,2.379l5.504-0.062l1.34,1.75l-4.047,0.478l2.48,3.225l-2.166,0.275
			l-3.898-3.998l-1.705,1.664l3.631,3.764l-2.547,4.484l2.076,1.172l2.645-4.713l2.301-0.302l-1.635,3.808l3.926-0.537l-0.785,1.896
			l-5.322,1.354l0.592,2.309l5.062-1.265l2.625,4.45l2.047-1.211l-2.801-4.729l0.83-1.998l2.535,3.396l1.539-3.75l1.199,1.557
			l-1.486,5.291l2.291,0.646l1.412-4.951l5.186-0.113L101.324,215.566z M90.605,214.475L89,212.328l-2.654,0.357l1.059-2.465
			l-1.633-2.117l2.662-0.312l1.016-2.48l1.6,2.146l2.658-0.357l-1.061,2.465l1.637,2.123L91.622,212L90.605,214.475z"/>
		<path fill="#ADD3F0" d="M80.033,245.784c0.188-3.691,2.008-11.345,3.461-17.666c-3.529,5.612-7.709,12.348-10.23,15.112
			l-0.002,0.004c-0.221,0.279-0.416,0.591-0.559,0.939c-0.803,1.943,0.119,4.168,2.062,4.979c1.943,0.812,4.174-0.111,4.979-2.057
			C79.926,246.669,80.015,246.229,80.033,245.784L80.033,245.784z"/>
		<path fill="#ADD3F0" d="M128.863,244.171l-5.488,0.068l-1.215-1.587l4.117-0.487l-2.58-3.336l2.09-0.277l3.846,3.933l1.699-1.658
			l-3.602-3.705l2.514-4.547l-2.072-1.17l-2.689,4.787l-1.961,0.254l1.572-3.65l-4.205,0.572l0.85-2.068l5.32-1.354l-0.586-2.312
			l-5.018,1.271l-2.668-4.452l-2.051,1.213l2.807,4.729l-0.797,1.902l-2.361-3.162l-1.566,3.812l-1.371-1.788l1.482-5.285
			l-2.291-0.646l-1.416,5.008l-0.508,0.007l-4.678,0.057l0.025,2.38l5.502-0.062l1.344,1.756l-4.049,0.471l2.484,3.223l-2.17,0.277
			l-3.902-3.998l-1.705,1.664l3.631,3.762l-2.539,4.486l2.076,1.166l2.645-4.707l2.299-0.295l-1.637,3.801l3.926-0.531l-0.781,1.894
			l-5.324,1.356l0.588,2.308l5.064-1.271l2.627,4.451l2.045-1.217l-2.803-4.725l0.832-2.004l2.531,3.399l1.541-3.754l1.199,1.56
			l-1.488,5.291l2.295,0.645l1.41-4.949l5.191-0.113L128.863,244.171z M118.146,243.083l-1.604-2.146l-2.656,0.36l1.057-2.471
			l-1.635-2.117l2.662-0.312l1.02-2.477l1.604,2.143l2.65-0.354l-1.053,2.466l1.635,2.116l-2.66,0.312L118.146,243.083z"/>
		<path fill="#ADD3F0" d="M131.713,213.325c0.186-3.688,2.004-11.341,3.465-17.668c-3.533,5.612-7.717,12.348-10.234,15.112v0.006
			c-0.225,0.283-0.42,0.595-0.561,0.938c-0.805,1.943,0.113,4.176,2.062,4.979c1.945,0.807,4.168-0.111,4.984-2.062
			C131.603,214.208,131.691,213.768,131.713,213.325L131.713,213.325z"/>
		<path fill="#ADD3F0" d="M177.953,215.566l-5.488,0.062l-1.213-1.586l4.113-0.487l-2.578-3.343l2.094-0.271l3.838,3.938
			l1.705-1.666l-3.607-3.709l2.521-4.543l-2.072-1.168l-2.688,4.793l-1.962,0.254l1.572-3.656l-4.211,0.564l0.855-2.062l5.314-1.354
			l-0.586-2.312l-5.017,1.275l-2.668-4.459l-2.051,1.213l2.806,4.729l-0.791,1.904l-2.365-3.16l-1.562,3.812l-1.375-1.789
			l1.482-5.285l-2.291-0.641l-1.418,5.002l-0.504,0.006l-4.683,0.059l0.024,2.379l5.506-0.062l1.343,1.75l-4.052,0.478l2.48,3.225
			l-2.168,0.275l-3.896-3.998l-1.704,1.664l3.631,3.764l-2.543,4.484l2.077,1.172l2.646-4.713l2.298-0.302l-1.636,3.808l3.927-0.537
			l-0.787,1.896l-5.317,1.354l0.59,2.309l5.062-1.265l2.623,4.45l2.047-1.211l-2.801-4.729l0.832-1.998l2.535,3.396l1.538-3.75
			l1.197,1.557l-1.485,5.291l2.291,0.646l1.411-4.951l5.188-0.113L177.953,215.566z M167.234,214.475l-1.602-2.146l-2.654,0.356
			l1.055-2.465l-1.633-2.117l2.662-0.312l1.02-2.479l1.598,2.146l2.656-0.356l-1.061,2.465l1.637,2.123L168.256,212L167.234,214.475
			z"/>
		<path fill="#ADD3F0" d="M156.662,245.784c0.193-3.691,2.012-11.345,3.461-17.666c-3.523,5.612-7.707,12.348-10.225,15.112
			l-0.008,0.004c-0.224,0.279-0.416,0.591-0.558,0.939c-0.808,1.943,0.119,4.168,2.062,4.979c1.941,0.812,4.174-0.111,4.982-2.057
			C156.555,246.669,156.645,246.229,156.662,245.784L156.662,245.784z"/>
		<path fill="#ADD3F0" d="M205.488,244.171l-5.484,0.068l-1.219-1.587l4.119-0.487l-2.58-3.336l2.092-0.277l3.84,3.933l1.705-1.658
			l-3.607-3.705l2.521-4.547l-2.067-1.17l-2.689,4.787l-1.967,0.254l1.576-3.65l-4.207,0.572l0.854-2.068l5.32-1.354l-0.592-2.312
			l-5.012,1.271l-2.671-4.452l-2.057,1.213l2.812,4.729l-0.793,1.902l-2.361-3.162l-1.568,3.812l-1.371-1.788l1.484-5.285
			l-2.291-0.646l-1.414,5.008l-0.51,0.007l-4.681,0.057l0.027,2.38l5.5-0.062l1.344,1.756l-4.045,0.471l2.479,3.223l-2.168,0.277
			l-3.902-3.998l-1.703,1.664l3.629,3.762l-2.539,4.486l2.076,1.166l2.646-4.707l2.299-0.295l-1.639,3.801l3.928-0.531l-0.787,1.894
			l-5.318,1.356l0.594,2.308l5.059-1.271l2.632,4.451l2.043-1.217l-2.806-4.725l0.83-2.004l2.535,3.399l1.539-3.754l1.195,1.56
			l-1.484,5.291l2.295,0.645l1.41-4.949l5.188-0.113L205.488,244.171z M194.773,243.083l-1.605-2.146l-2.652,0.36l1.062-2.471
			l-1.637-2.117l2.664-0.312l1.018-2.477l1.602,2.143l2.657-0.354l-1.06,2.466l1.635,2.116l-2.666,0.312L194.773,243.083z"/>
		<path fill="#ADD3F0" d="M208.342,213.325c0.188-3.688,2.004-11.341,3.461-17.668c-3.527,5.612-7.715,12.348-10.229,15.112v0.006
			c-0.228,0.283-0.423,0.595-0.562,0.938c-0.805,1.943,0.115,4.176,2.062,4.979c1.944,0.807,4.174-0.111,4.981-2.062
			C208.23,214.208,208.318,213.768,208.342,213.325L208.342,213.325z"/>
		<path fill="#ADD3F0" d="M254.582,215.566l-5.488,0.062l-1.217-1.586l4.117-0.487l-2.58-3.343l2.094-0.271l3.836,3.938l1.709-1.666
			l-3.607-3.709l2.52-4.543l-2.072-1.168l-2.691,4.793l-1.957,0.254l1.572-3.656l-4.209,0.564l0.854-2.062l5.318-1.354l-0.59-2.312
			l-5.017,1.275l-2.668-4.459l-2.055,1.213l2.812,4.729l-0.794,1.904l-2.358-3.16l-1.57,3.812l-1.375-1.789l1.48-5.285l-2.285-0.641
			l-1.416,5.002l-0.506,0.006l-4.687,0.059l0.029,2.379l5.5-0.062l1.348,1.75l-4.051,0.478l2.481,3.225l-2.164,0.275l-3.908-3.998
			l-1.698,1.664l3.627,3.764l-2.545,4.484l2.078,1.172l2.647-4.713l2.293-0.302l-1.627,3.808l3.924-0.537l-0.787,1.896l-5.317,1.354
			l0.584,2.309l5.062-1.265l2.629,4.45l2.045-1.211l-2.799-4.729l0.834-1.998l2.53,3.396l1.534-3.75l1.201,1.557l-1.483,5.291
			l2.287,0.646l1.413-4.951l5.188-0.113L254.582,215.566z M243.865,214.475l-1.605-2.146l-2.658,0.356l1.062-2.465l-1.638-2.117
			l2.664-0.312l1.019-2.479l1.603,2.146l2.658-0.356l-1.062,2.465l1.64,2.123L244.883,212L243.865,214.475z"/>
		<path fill="#ADD3F0" d="M233.289,245.784c0.189-3.691,2.008-11.345,3.463-17.666c-3.525,5.612-7.711,12.348-10.229,15.112
			l-0.006,0.004c-0.221,0.279-0.414,0.591-0.557,0.939c-0.807,1.943,0.116,4.168,2.062,4.979c1.941,0.812,4.174-0.111,4.979-2.057
			C233.184,246.669,233.273,246.229,233.289,245.784L233.289,245.784z"/>
		<path fill="#ADD3F0" d="M240.066,122.892c-0.062-0.09-0.131-0.176-0.205-0.254c0.051-0.482,0.08-0.963,0.096-1.451
			c-0.027-0.271-0.076-0.543-0.117-0.814c-0.053-0.381-0.092-0.771-0.166-1.15c-0.113-0.652-0.254-1.297-0.416-1.943
			c-1.514-6.162-5.098-11.752-10.078-15.752c-4.938-3.998-11.17-6.297-17.547-6.467c-0.324-0.012-0.646-0.018-0.967-0.018
			c-5.004,0-10.131,1.365-14.57,3.828c1.619,2.307,2.863,4.865,3.605,7.539c1.334,4.713,1.209,9.771-0.312,14.336
			c2.646,1.58,5.123,3.5,7.307,5.693c2.855,2.859,5.263,6.225,7.029,9.803c2.043-2.531,4.828-4.514,7.963-5.611
			c1.935-0.691,4.076-1.055,6.195-1.055c2.041,0,4.037,0.322,5.941,0.963c1.801,0.605,3.518,1.512,5.072,2.645
			c0.232-0.781,0.422-1.565,0.586-2.358c0.023-0.144,0.051-0.277,0.078-0.418C240.031,127.938,240.199,125.407,240.066,122.892z
			 M231.906,125.321c-14.248-0.465-25.717-11.752-26.479-25.918c2.315-0.924,4.834-1.445,7.478-1.445
			c11.212,0,20.291,9.086,20.291,20.289C233.195,120.739,232.729,123.112,231.906,125.321z"/>
		<path fill="#ADD3F0" d="M33.146,139.646c-0.016-0.123-0.023-0.248-0.035-0.373c-0.006-0.006-0.006-0.021-0.006-0.021
			C33.117,139.38,33.131,139.518,33.146,139.646z"/>
		<path fill="#ADD3F0" d="M192.012,114.786c0,0.867-0.08,1.711-0.182,2.549h0.006c1.146,0.363,2.277,0.771,3.373,1.252
			c1.266,0.549,2.512,1.189,3.73,1.893c0.803-4.504,0.441-9.262-1.062-13.492c-1.743-4.967-5.1-9.363-9.428-12.387
			c-0.442-0.312-0.901-0.602-1.367-0.885c-0.627-0.352-1.25-0.701-1.881-1.014c-0.754-0.367-1.528-0.697-2.305-1.014
			c-2.861-1.076-5.91-1.66-8.976-1.66h-0.353c-4.741,0.041-9.616,1.484-13.721,4.072c0.428-0.271,0.873-0.504,1.312-0.74
			c2.484-0.924,5.156-1.457,7.961-1.457C181.771,91.903,192.012,102.149,192.012,114.786z"/>
		<path fill="#ADD3F0" d="M170.273,88.597c0.105-0.023,0.215-0.041,0.322-0.062c0.947-0.188,1.903-0.334,2.877-0.408
			c-0.301-0.873-0.562-1.768-0.801-2.65c-0.248-0.936-0.504-1.91-0.839-2.844c-0.741-2.203-1.688-4.355-2.81-6.4
			c-2.319-4.236-5.5-8.117-9.211-11.232c-3.887-3.279-8.492-5.816-13.319-7.346c-3.778-1.201-7.73-1.801-11.74-1.801
			c-1.328,0-2.676,0.062-3.992,0.203c-8.369,0.822-16.367,4.469-22.523,10.252c-5.727,5.318-9.822,12.439-11.531,20.045
			c-0.031,0.137-0.098,0.244-0.193,0.324c-0.59,2.672-0.912,5.438-0.957,8.213c0,0.113-0.092,0.197-0.199,0.197
			c-0.109,0-0.197-0.08-0.203-0.193c-0.162-2.814-0.012-5.646,0.43-8.416c-4.455,0.232-8.789,1.785-12.273,4.436
			c-3.432,2.582-6.104,6.27-7.607,10.428c0.029,0.021,0.062,0.027,0.086,0.045c0.711,0.645,2.637,0.918,3.557,1.32
			c1.246,0.537,2.459,1.154,3.633,1.84c2.404,1.41,4.662,3.109,6.631,5.08c1.557-0.707,2.85-2.248,4.463-3.059
			c4.014-2.016,8.02-3.42,12.67-3.398c0.035-0.021,0.074-0.045,0.107-0.066c-0.215-0.676-0.566-2.492-0.58-2.578
			c-0.133-0.656-0.244-1.33-0.334-2c-0.184-1.365-0.275-2.74-0.275-4.117c0-17.18,13.93-31.102,31.102-31.102
			c15.459,0,28.252,11.289,30.659,26.072C168.354,89.06,169.305,88.8,170.273,88.597z"/>
		<path fill="#ADD3F0" d="M143.477,150.146c-1.104,0-2.188,0.062-3.264,0.158c-0.014-0.408-0.033-0.812-0.033-1.219
			c0-4.248,0.775-8.318,2.171-12.088c2.928-8.559,8.66-15.18,15.9-19.275c-0.229,0.086-0.43,0.193-0.65,0.277l0.487-0.215
			c0,0-6.702,1.195-14.431,7.375c-1.231,0.986-2.483,2.102-3.744,3.354c-0.053,0.057-0.109,0.113-0.166,0.17
			c-0.617,0.623-1.236,1.268-1.854,1.958c-0.002,0-0.01,0.014-0.016,0.02c-0.582,0.648-1.162,1.349-1.736,2.064
			c-0.088,0.108-0.18,0.225-0.264,0.33c-0.57,0.719-1.131,1.479-1.686,2.26c-0.094,0.137-0.184,0.276-0.279,0.408
			c-0.504,0.729-1.004,1.487-1.496,2.274c-0.074,0.119-0.146,0.231-0.221,0.353c-0.527,0.854-1.039,1.756-1.547,2.688
			c-0.113,0.209-0.221,0.418-0.334,0.635c-0.516,0.969-1.016,1.953-1.5,2.996c-0.221,0.105-0.432,0.23-0.652,0.322
			c-2.803,1.246-5.861,1.894-8.936,1.894c-0.674,0-1.344-0.041-2.018-0.104c0,0,0,0-0.006,0c-4.662-0.425-8.91-2.287-12.291-5.148
			c-0.029-0.021-0.062-0.045-0.098-0.067c-5.358-4.379-8.782-11.032-8.782-18.485c0-7.822,3.773-14.738,9.582-19.094
			c0.455-0.119,0.814-0.25,0.932-0.385c-0.035,0.006-0.074,0.016-0.113,0.021c-2.336,0.504-4.611,1.264-6.76,2.244
			c-0.006,0.006-0.016,0.006-0.02,0.012c-0.721,0.328-1.428,0.684-2.119,1.064c-0.062,0.033-0.125,0.078-0.188,0.113
			c-0.629,0.352-1.252,0.719-1.855,1.104c-0.154,0.107-0.299,0.221-0.455,0.328c-0.502,0.336-1.002,0.676-1.479,1.043
			c-0.275,0.209-0.529,0.436-0.793,0.656c-0.346,0.279-0.699,0.557-1.025,0.85c-0.588,0.521-1.154,1.072-1.689,1.639
			c-4.387,4.553-7.373,10.613-8.408,17.053c-0.018,0.104-0.1,0.17-0.199,0.17c-0.113,0-0.197-0.084-0.203-0.186
			c-0.182-3.156,0.289-6.436,1.367-9.494c1.203-3.426,3.166-6.621,5.678-9.232c0.346-0.361,0.725-0.686,1.088-1.025
			c-3.02-2.564-6.484-4.609-10.172-6.008c-1.23-0.471-2.482-0.867-3.756-1.189c-0.125,0.027-0.264,0.027-0.389-0.012
			c-0.438,0-0.943-0.176-1.4-0.301c-0.006,0-0.012,0-0.021-0.006c-0.738-0.146-1.48-0.271-2.229-0.373c-0.006,0-0.012,0-0.012,0
			c-0.443-0.045-0.865-0.045-1.307-0.051c-0.197,0-0.377-0.068-0.557-0.143c-0.881-0.068-1.764-0.113-2.656-0.113
			c-3.336,0-6.633,0.477-9.793,1.422c-6.062,1.801-11.705,5.443-15.885,10.252c-3.322,3.824-5.773,8.395-7.1,13.221
			c-0.32,1.148-0.572,2.322-0.77,3.506c-0.098,0.604-0.135,1.226-0.201,1.834c-0.062,0.578-0.154,1.147-0.188,1.731
			c-0.049,0.814-0.025,1.631-0.014,2.451c0,0.381-0.023,0.76-0.006,1.146c0.031,0.65,0.125,1.291,0.191,1.941
			c0.047,0.25,0.098,0.498,0.154,0.748c-0.01,0.254-0.004,0.518,0,0.771c0.01,0.096,0.01,0.198,0.027,0.295
			c0.697,4.508,2.379,8.976,4.859,12.914c2.15,3.401,4.963,6.469,8.146,8.961c3.213-1.326,6.863-1.756,10.279-1.229
			c0.049-0.864,0.146-1.731,0.32-2.588c0.615-3.063,2.082-6.024,4.127-8.34c1.84-2.104,4.15-3.736,6.68-4.705
			c0.1-0.039,0.201,0.006,0.25,0.098c0.047,0.091,0.025,0.197-0.057,0.261c-4.438,3.185-7.574,7.985-8.604,13.17
			c-1.068,5.221-0.061,10.862,2.779,15.483c0.049,0.086,0.035,0.205-0.047,0.269c-0.035,0.026-0.08,0.045-0.125,0.045
			c-0.055,0-0.102-0.019-0.141-0.057c-1.957-1.888-3.453-4.289-4.326-6.939c-0.654-1.987-0.92-4.071-0.863-6.155
			c-0.02,0-0.033,0-0.057,0l0.057-0.066c0,0-0.781-0.02-2.027,0.096c-1.043,0.059-2.068,0.211-3.076,0.428
			c-5.912,1.14-14.842,4.765-14.811,16.256c-0.066,1.384,0.031,2.773,0.328,4.129c0.033,0.177,0.084,0.396,0.152,0.656
			c0.074,0.277,0.168,0.525,0.268,0.76l52.691,1.894c-0.254-1.258-0.422-2.555-0.422-3.894c0-11.051,8.959-20.01,20.008-20.01
			c6.941,0,13.057,3.537,16.648,8.906c4.162-10.527,14.407-17.986,26.416-17.986c1.688,0,3.323,0.177,4.932,0.451
			c0.367-0.131,0.752-0.229,1.121-0.352C154.137,151.37,148.953,150.146,143.477,150.146z M153.637,119.771l0.762-0.34
			c-0.396,0.199-0.772,0.414-1.166,0.623L153.637,119.771z M56.812,145.78c-7.631-2.859-13.074-10.207-13.074-18.844
			c0-11.119,9.014-20.137,20.129-20.137c6.303,0,11.918,2.895,15.611,7.42c-5.441,6.084-9.143,13.736-10.445,22.176
			C64.226,138.491,60.041,141.734,56.812,145.78z M71.31,146.527c-0.057-0.02-0.119-0.022-0.182-0.034
			c0.119-0.084,0.244-0.164,0.363-0.242C71.429,146.341,71.367,146.434,71.31,146.527z M72.75,167.77
			c-3.793-6.713-3.232-14.828,3.33-21.213c2.135-2.072,4.74-2.884,7.326-2.656c2.189,3.795,5.275,6.93,8.92,9.521
			C83.635,154.577,76.345,160.122,72.75,167.77z"/>
		<path fill="#ADD3F0" d="M207.4,161.979c7.676,2.597,14.205,7.67,18.629,14.279c-0.232-1.234-0.354-2.516-0.354-3.824
			c0-11.502,9.319-20.817,20.823-20.817c11.492,0,20.82,9.315,20.82,20.817c0,4.691-1.57,8.996-4.188,12.476
			c0.896-0.027,1.795-0.06,2.693-0.093c0.561-0.021,1.12-0.039,1.682-0.057l0.666-0.029c0.312-0.006,0.699-0.057,1.065-0.03
			l1.931-0.068l0.574-1.377c0.168-0.424,0.354-0.937,0.521-1.455v-0.021c0.057-0.396,0.213-0.793,0.338-1.184
			c0.047-0.176,0.104-0.35,0.146-0.525c0.078-0.327,0.146-0.655,0.215-0.983c0.059-0.269,0.105-0.524,0.15-0.799
			c0.059-0.34,0.102-0.683,0.145-1.024c0.033-0.271,0.078-0.535,0.104-0.812c0.033-0.346,0.047-0.697,0.062-1.049
			c0.017-0.26,0.039-0.521,0.041-0.781c0.006-0.369-0.002-0.73-0.014-1.105c-0.007-0.248,0-0.498-0.019-0.746
			c-0.018-0.375-0.059-0.742-0.093-1.108c-0.024-0.242-0.037-0.492-0.065-0.736c-0.054-0.396-0.121-0.778-0.188-1.172
			c-0.047-0.215-0.066-0.438-0.109-0.649c-0.121-0.603-0.266-1.193-0.436-1.789c-1.571-5.658-5.278-10.789-10.178-14.074
			c-0.672-0.449-1.356-0.861-2.062-1.246c-0.177-0.092-0.359-0.176-0.541-0.273c-0.535-0.277-1.084-0.537-1.646-0.774
			c-0.176-0.08-0.354-0.15-0.533-0.222c-0.711-0.283-1.43-0.543-2.162-0.76c-1.146-0.346-2.316-0.611-3.508-0.787
			c-2.416-0.361-4.896-0.555-7.332-0.26c-1.135,0.141-2.26,0.357-3.371,0.645c-1.127,0.283-2.229,0.652-3.312,1.088
			c-2.16,0.867-4.211,2.021-6.062,3.431c-0.092,0.065-0.215,0.051-0.282-0.035c-0.068-0.084-0.062-0.209,0.021-0.276
			c3.914-3.5,8.99-5.761,14.312-6.39c-0.674-3.075-2.025-5.938-3.965-8.319c-2.295-2.851-5.441-5.041-8.877-6.189
			c-1.938-0.65-3.984-0.984-6.076-0.984c-1.604,0-3.193,0.197-4.729,0.582c-3.02,0.754-5.852,2.256-8.258,4.334
			c0.183,0.391,0.363,0.775,0.531,1.16c1.645,3.789,2.639,7.941,2.865,12.014c0.008,0.107-0.066,0.199-0.172,0.215
			c-0.008,0-0.008-0.004-0.012-0.004c-0.006,0-0.012,0.004-0.016,0.004c-0.095,0-0.176-0.061-0.199-0.149
			c-1.862-8.228-6.131-15.989-12.021-21.863c-0.674-0.68-1.381-1.336-2.106-1.971c-0.396-0.346-0.803-0.674-1.217-1.008
			c-0.312-0.25-0.617-0.51-0.938-0.754c-0.566-0.441-1.146-0.861-1.745-1.273c-0.138-0.098-0.274-0.193-0.41-0.289
			c-0.711-0.477-1.435-0.941-2.163-1.383h-0.007c8.259,6.377,13.595,16.361,13.595,27.604c0,4.564-0.886,8.92-2.479,12.92
			C207.469,161.991,207.432,161.984,207.4,161.979z M226.117,133.575c7.223,0,13.09,5.793,13.229,12.979
			c-0.996,0.211-2.02,0.322-3.07,0.322c-7.399,0-13.508-5.438-14.596-12.521C223.07,133.857,224.561,133.575,226.117,133.575z"/>
	</g>
	<path fill="#231F20" d="M275.596,166.448c-1.771-6.4-6.011-12.128-11.603-15.695c-4.882-3.166-10.998-4.717-16.858-4.248
		c-0.213-3.166-1.291-6.332-3.064-8.994c-1.029-1.562-2.318-2.979-3.834-4.219c2.102-5.16,2.68-11.018,1.604-16.557
		c-1.271-6.832-5.17-13.271-10.668-17.672c-5.203-4.227-12.023-6.65-18.717-6.65c-0.283,0-0.562,0-0.832,0.012
		c-5.559,0.119-11.098,1.898-15.68,5.014c-1.643-2.131-3.553-3.955-5.676-5.434c-1.094-0.77-2.295-1.477-3.67-2.146
		c-0.099-0.051-0.201-0.09-0.308-0.129l-0.183-0.08c-0.448-0.203-0.911-0.402-1.381-0.584c-0.184-0.066-0.369-0.129-0.545-0.191
		c-3.166-1.139-6.451-1.688-9.668-1.529c-0.152-0.611-0.305-1.281-0.457-2.062c-0.195-1.014-0.397-2.051-0.692-3.092
		c-0.636-2.346-1.49-4.65-2.562-6.859c-2.217-4.6-5.408-8.859-9.242-12.309c-4.059-3.664-8.938-6.52-14.121-8.252
		c-5.409-1.818-11.25-2.459-16.997-1.869c-8.971,0.883-17.781,5.029-24.168,11.373c-5.734,5.619-9.693,12.971-11.195,20.775
		c-0.996-0.197-1.965-0.299-2.947-0.299c-3.871,0-7.684,1.291-10.73,3.629c-2.234,1.672-4.072,3.898-5.324,6.43
		c-0.824,1.66-1.371,3.506-1.605,5.393c-5.945-1.535-12.303-1.467-18.197,0.152c-6.684,1.818-12.891,5.727-17.467,11.006
		c-3.648,4.186-6.293,9.209-7.646,14.521c-1.309,5.088-1.467,10.508-0.463,15.668c0.928,4.83,2.932,9.527,5.803,13.576
		c2.143,3.014,4.832,5.738,7.828,7.947c-3.336,1.506-6.186,4.004-8.088,7.096c-2.51,4-3.367,8.949-2.359,13.6
		c0.111,0.51,0.23,0.969,0.359,1.396l0.043,0.15c0.049,0.17,0.1,0.342,0.24,0.729l0.238,0.681c0.035,0.08,0.139,0.317,0.441,0.487
		l0.164,0.09h56.52l-0.264-0.725h-0.774c-0.027-0.08-0.084-0.138-0.166-0.144l-53.281-1.914c-0.1-0.231-0.193-0.479-0.268-0.76
		c-0.068-0.262-0.119-0.479-0.152-0.656c-0.297-1.354-0.395-2.746-0.328-4.129c-0.031-11.492,8.898-15.117,14.811-16.256
		c1.008-0.217,2.033-0.369,3.076-0.428c1.246-0.111,2.027-0.096,2.027-0.096s-0.057,0.065,0,0.065
		c-0.057,2.085,0.209,4.169,0.863,6.156c0.873,2.649,2.369,5.054,4.326,6.938c0.039,0.039,0.086,0.058,0.141,0.058
		c0.045,0,0.09-0.019,0.125-0.045c0.082-0.062,0.096-0.183,0.047-0.269c-2.84-4.621-3.848-10.266-2.779-15.483
		c1.029-5.185,4.166-9.986,8.604-13.17c0.082-0.062,0.104-0.171,0.057-0.261c-0.049-0.092-0.15-0.137-0.25-0.1
		c-2.529,0.971-4.84,2.604-6.68,4.707c-2.045,2.312-3.512,5.273-4.127,8.34c-0.174,0.854-0.271,1.723-0.32,2.588
		c-3.416-0.524-7.066-0.098-10.279,1.229c-3.184-2.492-5.996-5.56-8.146-8.961c-2.48-3.939-4.162-8.406-4.859-12.914
		c-0.758-4.798-0.479-9.781,0.805-14.426c1.326-4.826,3.777-9.396,7.1-13.221c4.18-4.809,9.822-8.451,15.885-10.252
		c3.16-0.945,6.457-1.422,9.793-1.422c2.775,0,5.523,0.334,8.182,0.986c0.125,0.039,0.264,0.039,0.389,0.012
		c5.086,1.285,9.904,3.777,13.934,7.197c-0.369,0.34-0.748,0.664-1.094,1.025c-2.512,2.611-4.475,5.807-5.678,9.232
		c-1.078,3.059-1.549,6.338-1.367,9.494c0.006,0.102,0.09,0.186,0.203,0.186c0.1,0,0.182-0.066,0.199-0.17
		c1.035-6.439,4.021-12.5,8.408-17.053c4.336-4.566,10.26-7.801,16.684-9.125c0.098-0.018,0.166-0.113,0.158-0.217
		c-0.006-0.102-0.094-0.18-0.199-0.18c-3.131-0.057-6.422,0.561-9.422,1.762c-2.783,1.098-5.367,2.746-7.623,4.74
		c-3.855-3.807-8.645-6.666-13.857-8.27c-0.023-0.018-0.057-0.023-0.086-0.045c1.504-4.158,4.176-7.846,7.607-10.428
		c3.484-2.65,7.818-4.203,12.273-4.437c-0.441,2.771-0.592,5.602-0.43,8.416c0.006,0.113,0.094,0.193,0.203,0.193
		c0.107,0,0.199-0.084,0.199-0.197c0.045-2.775,0.367-5.541,0.957-8.213c0.096-0.08,0.162-0.188,0.193-0.324
		c1.709-7.604,5.805-14.727,11.531-20.045c6.156-5.783,14.154-9.43,22.523-10.252c1.316-0.141,2.664-0.203,3.992-0.203
		c4.01,0,7.961,0.6,11.74,1.801c4.828,1.529,9.438,4.066,13.318,7.346c3.711,3.115,6.893,6.996,9.211,11.232
		c1.121,2.045,2.066,4.197,2.812,6.4c0.334,0.934,0.591,1.908,0.838,2.844c0.235,0.883,0.5,1.777,0.8,2.65
		c-5.1,0.373-10.021,2.385-13.856,5.646c-0.082,0.068-0.093,0.188-0.031,0.271c0.062,0.092,0.183,0.113,0.271,0.057
		c4.104-2.588,8.979-4.031,13.723-4.072h0.354c3.062,0,6.109,0.584,8.974,1.66c0.774,0.316,1.551,0.646,2.305,1.014
		c0.631,0.312,1.254,0.662,1.881,1.014c0.466,0.283,0.925,0.572,1.367,0.885c4.328,3.023,7.685,7.42,9.429,12.387
		c1.504,4.23,1.862,8.988,1.062,13.492c-1.221-0.703-2.467-1.344-3.729-1.893c-3.789-1.648-7.938-2.65-12.012-2.895
		c-0.104,0-0.197,0.062-0.217,0.17c-0.012,0.107,0.057,0.205,0.158,0.227c8.217,1.881,15.969,6.168,21.822,12.07
		c5.89,5.874,10.155,13.639,12.021,21.864c0.021,0.092,0.104,0.151,0.227,0.151c0.104-0.017,0.18-0.106,0.172-0.215
		c-0.229-4.072-1.225-8.226-2.865-12.015c-0.168-0.386-0.354-0.771-0.532-1.16c2.407-2.078,5.239-3.58,8.258-4.334
		c1.535-0.386,3.125-0.582,4.729-0.582c2.09,0,4.138,0.334,6.076,0.983c3.435,1.149,6.582,3.343,8.877,6.19
		c1.938,2.379,3.291,5.242,3.965,8.318c-5.323,0.629-10.399,2.891-14.313,6.391c-0.084,0.066-0.092,0.191-0.021,0.275
		c0.066,0.086,0.189,0.104,0.283,0.035c3.685-2.806,8.148-4.601,12.742-5.16c2.438-0.295,4.916-0.103,7.332,0.262
		c2.336,0.352,4.619,1.023,6.771,2c1.279,0.584,2.519,1.271,3.683,2.062c4.897,3.285,8.604,8.416,10.179,14.074
		c1.308,4.639,1.231,9.709-0.209,14.284c-0.183,0.595-0.396,1.179-0.591,1.664l-0.573,1.377l-51.963,1.808
		c-0.082,0-0.146,0.062-0.179,0.144h-0.769l-0.258,0.727h55.146l0.985-2.021l0.39-0.896c0.223-0.543,0.479-1.192,0.694-1.856
		C276.943,177.396,277.074,171.688,275.596,166.448z M233.824,130.538c-1.904-0.641-3.9-0.963-5.941-0.963
		c-2.119,0-4.264,0.363-6.195,1.055c-3.135,1.099-5.92,3.08-7.963,5.611c-1.77-3.578-4.174-6.943-7.029-9.803
		c-2.184-2.193-4.661-4.113-7.307-5.693c1.521-4.564,1.646-9.623,0.312-14.336c-0.742-2.674-1.986-5.232-3.605-7.539
		c4.439-2.463,9.566-3.828,14.57-3.828c0.32,0,0.643,0.006,0.967,0.018c6.377,0.17,12.607,2.469,17.547,6.467
		c4.98,4,8.564,9.59,10.078,15.752c1.309,5.184,1.158,10.773-0.359,15.905C237.342,132.05,235.625,131.145,233.824,130.538z"/>
</g>
</svg>
