<?xml version="1.0" encoding="utf-8"?>
<!-- Generator: Adobe Illustrator 15.0.2, SVG Export Plug-In . SVG Version: 6.00 Build 0)  -->
<!DOCTYPE svg PUBLIC "-//W3C//DTD SVG 1.1//EN" "http://www.w3.org/Graphics/SVG/1.1/DTD/svg11.dtd">
<svg version="1.1" id="Layer_1" xmlns="http://www.w3.org/2000/svg" xmlns:xlink="http://www.w3.org/1999/xlink" x="0px" y="0px"
	 width="280px" height="260px" viewBox="0 0 280 260" enable-background="new 0 0 280 260" xml:space="preserve">
<g>
	<g>
		<path fill="#FFFFFF" d="M112.852,84.733c-2.861,20.509-21.809,34.82-42.316,31.96c-20.514-2.859-34.82-21.809-31.96-42.317
			c2.859-20.514,21.805-34.821,42.317-31.962C101.4,45.276,115.713,64.217,112.852,84.733z"/>
		<g>
			<g>
				<path fill="#FFD88C" d="M125.79,90.331c6.718-1.515,15.265-1.654,25.562-0.224c-9.838-1.369-17.749-3.694-23.711-6.769h0.012
					c-9.891-4.91-7.91-15.23,6.645-19.004c-14.113,3.66-20.887-3.807-15.569-12.559c3.688-5.82,9.626-11.971,17.933-18.246
					c-8.096,6.118-15.468,10.098-21.958,12.1c-10.204,3.159-15.854-5.454-8.339-18.238c-7.355,12.513-17.367,12.066-19.846,2.24
					C84.98,22.885,84.82,14.289,86.27,3.915c-1.427,10.235-3.892,18.372-7.148,24.409c-5.042,9.029-14.911,6.811-18.589-7.352
					c3.663,14.124-3.831,20.895-12.597,15.538l0.021,0.04c-5.828-3.684-11.986-9.63-18.264-17.952
					c5.986,7.935,9.93,15.171,11.975,21.563c3.527,10.458-5.17,16.353-18.124,8.731c12.542,7.387,12.061,17.433,2.152,19.878
					c-6.729,1.522-15.292,1.672-25.626,0.233c9.853,1.371,17.77,3.706,23.734,6.782l-0.037-0.006
					c9.89,4.902,7.91,15.226-6.637,18.999c14.098-3.655,20.863,3.794,15.573,12.541c-3.682,5.82-9.626,11.979-17.94,18.258
					c7.946-6.002,15.193-9.947,21.588-11.992l-0.013,0.016c10.458-3.529,16.356,5.172,8.737,18.124
					c7.307-12.42,17.211-12.062,19.791-2.446c1.576,6.766,1.753,15.439,0.29,25.92c1.375-9.836,3.699-17.742,6.769-23.701l0,0
					c4.901-9.893,15.222-7.912,18.999,6.633c-3.663-14.115,3.819-20.885,12.579-15.553c5.818,3.691,11.961,9.627,18.23,17.932
					c-5.988-7.934-9.934-15.168-11.979-21.561l0.01,0.008c-3.521-10.457,5.176-16.354,18.135-8.736
					C115.326,102.824,115.824,92.744,125.79,90.331z M112.852,84.733c-2.861,20.509-21.809,34.82-42.316,31.96
					c-20.514-2.859-34.82-21.809-31.96-42.317c2.859-20.514,21.805-34.821,42.317-31.962
					C101.4,45.276,115.713,64.217,112.852,84.733z"/>
				<path fill="#FEC343" d="M105.648,83.732c-2.307,16.53-17.582,28.065-34.112,25.764c-16.534-2.307-28.072-17.583-25.764-34.113
					c2.306-16.538,17.58-28.071,34.116-25.762C96.421,51.926,107.957,67.198,105.648,83.732z"/>
			</g>
		</g>
		<g>
			<g>
				<path fill="#FFFFFF" d="M194.007,118.066c0.216,0.111,0.437,0.207,0.65,0.32c0.004-0.039,0.006-0.082,0.012-0.119
					C194.448,118.193,194.232,118.129,194.007,118.066z"/>
			</g>
			<g>
				<path fill="#FFFFFF" d="M176.982,114.398c4.922,0,9.654,0.822,14.078,2.307c-4.026-1.621-8.424-2.521-13.026-2.521
					c-1.943,0-3.845,0.164-5.699,0.471C173.863,114.496,175.411,114.398,176.982,114.398z"/>
			</g>
			<path fill="#FFFFFF" d="M278.555,166.441c-1.773-6.406-6.011-12.127-11.601-15.701c-4.884-3.166-11-4.713-16.861-4.242
				c-0.213-3.172-1.293-6.338-3.063-8.998c-1.031-1.559-2.32-2.982-3.836-4.223c2.102-5.154,2.68-11.012,1.604-16.551
				c-1.273-6.834-5.166-13.276-10.666-17.674c-5.205-4.227-12.023-6.652-18.713-6.652c-0.283,0-0.566,0.006-0.838,0.012
				c-5.557,0.117-11.098,1.896-15.68,5.012c-1.644-2.129-3.551-3.953-5.674-5.426c-1.099-0.775-2.295-1.482-3.672-2.152
				c-0.103-0.045-0.203-0.086-0.312-0.127l-0.177-0.078c-0.455-0.209-0.918-0.406-1.383-0.582c-0.186-0.074-0.367-0.137-0.545-0.199
				c-3.168-1.135-6.455-1.688-9.672-1.523c-0.154-0.615-0.301-1.285-0.453-2.066c-0.199-1.01-0.399-2.051-0.697-3.09
				c-0.631-2.342-1.489-4.654-2.561-6.854c-2.211-4.607-5.408-8.861-9.238-12.316c-4.055-3.66-8.938-6.512-14.125-8.25
				c-5.41-1.816-11.245-2.461-16.993-1.869c-8.973,0.881-17.783,5.031-24.17,11.375c-5.736,5.619-9.693,12.971-11.197,20.773
				c-0.99-0.201-1.965-0.303-2.945-0.303c-3.873,0-7.686,1.295-10.732,3.631c-2.232,1.67-4.072,3.9-5.324,6.434
				c-0.822,1.654-1.371,3.504-1.604,5.387c-5.947-1.535-12.303-1.467-18.195,0.154c-6.688,1.816-12.889,5.725-17.471,11.004
				c-3.643,4.186-6.287,9.213-7.645,14.523c-1.309,5.094-1.469,10.51-0.461,15.672c0.922,4.826,2.928,9.521,5.803,13.576
				c2.141,3.012,4.828,5.737,7.824,7.94c-3.33,1.508-6.182,4.006-8.088,7.101c-2.51,3.995-3.365,8.959-2.355,13.598
				c0.107,0.511,0.227,0.972,0.355,1.397l0.043,0.148c0.055,0.172,0.105,0.34,0.24,0.732l0.244,0.684
				c0.027,0.076,0.133,0.312,0.436,0.486l0.164,0.088h29.844h26.678h126.118h2.345h52.801l0.985-2.025l0.39-0.895
				c0.223-0.543,0.479-1.189,0.694-1.857C279.9,177.387,280.032,171.674,278.555,166.441z"/>
			<g>
				<path fill="#ADD3F0" d="M243.021,122.885c-0.062-0.088-0.129-0.182-0.203-0.262c0.052-0.475,0.08-0.963,0.097-1.447
					c-0.026-0.273-0.076-0.541-0.113-0.814c-0.057-0.383-0.096-0.768-0.166-1.154c-0.116-0.648-0.256-1.297-0.415-1.941
					c-1.521-6.162-5.103-11.754-10.082-15.747c-4.939-4.006-11.171-6.305-17.55-6.469c-0.321-0.012-0.646-0.018-0.965-0.018
					c-5.008,0-10.131,1.359-14.569,3.824c1.618,2.311,2.856,4.867,3.604,7.545c1.332,4.705,1.209,9.77-0.318,14.332
					c2.647,1.584,5.13,3.5,7.312,5.689c2.856,2.861,5.262,6.226,7.031,9.806c2.041-2.529,4.828-4.515,7.963-5.613
					c1.936-0.686,4.076-1.053,6.192-1.053c2.043,0,4.039,0.328,5.943,0.965c1.803,0.604,3.516,1.516,5.071,2.643
					c0.234-0.773,0.422-1.568,0.586-2.361c0.025-0.137,0.052-0.276,0.078-0.417C242.988,127.926,243.157,125.398,243.021,122.885z
					 M234.863,125.309c-14.241-0.463-25.719-11.754-26.481-25.92c2.32-0.916,4.839-1.443,7.479-1.443
					c11.213,0,20.295,9.088,20.295,20.297C236.154,120.732,235.686,123.107,234.863,125.309z"/>
				<path fill="#ADD3F0" d="M36.104,139.633c-0.018-0.125-0.029-0.25-0.041-0.375c-0.002-0.004-0.002-0.014-0.006-0.02
					C36.068,139.375,36.082,139.502,36.104,139.633z"/>
				<path fill="#ADD3F0" d="M194.971,114.773c0,0.865-0.087,1.711-0.183,2.549l0,0c1.149,0.365,2.282,0.775,3.375,1.252
					c1.271,0.551,2.51,1.189,3.729,1.896c0.809-4.502,0.448-9.264-1.056-13.494c-1.75-4.971-5.101-9.366-9.43-12.385
					c-0.447-0.311-0.906-0.6-1.371-0.887c-0.623-0.348-1.246-0.699-1.882-1.01c-0.754-0.371-1.522-0.703-2.305-1.02
					c-2.854-1.076-5.908-1.658-8.973-1.658h-0.348c-4.744,0.037-9.621,1.482-13.721,4.07c0.424-0.27,0.871-0.498,1.312-0.742
					c2.481-0.924,5.159-1.453,7.959-1.453C184.725,91.892,194.971,102.136,194.971,114.773z"/>
				<path fill="#ADD3F0" d="M173.23,88.585c0.107-0.025,0.211-0.043,0.316-0.062c0.949-0.188,1.908-0.338,2.877-0.406
					c-0.301-0.877-0.561-1.77-0.799-2.646c-0.248-0.943-0.504-1.918-0.832-2.854c-0.742-2.197-1.691-4.355-2.814-6.4
					c-2.315-4.23-5.5-8.115-9.205-11.23c-3.891-3.273-8.496-5.812-13.323-7.348c-3.781-1.191-7.733-1.801-11.739-1.801
					c-1.332,0-2.678,0.068-3.994,0.205c-8.371,0.826-16.363,4.469-22.525,10.252c-5.725,5.318-9.822,12.438-11.529,20.047
					c-0.031,0.137-0.1,0.246-0.189,0.326c-0.596,2.67-0.918,5.432-0.963,8.209c0,0.111-0.088,0.199-0.199,0.199
					c-0.107,0-0.197-0.076-0.201-0.193c-0.16-2.811-0.014-5.643,0.432-8.416c-4.455,0.229-8.795,1.787-12.277,4.436
					c-3.432,2.58-6.104,6.268-7.607,10.43c0.029,0.018,0.068,0.025,0.086,0.045c0.713,0.646,2.639,0.916,3.557,1.314
					c1.246,0.547,2.463,1.158,3.637,1.844c2.4,1.409,4.66,3.114,6.629,5.084c1.559-0.709,2.846-2.254,4.463-3.064
					c4.012-2.008,8.018-3.417,12.672-3.393c0.031-0.029,0.07-0.049,0.109-0.074c-0.221-0.672-0.566-2.492-0.582-2.572
					c-0.131-0.662-0.248-1.328-0.338-1.998c-0.182-1.365-0.27-2.748-0.27-4.123c0-17.174,13.922-31.1,31.096-31.1
					c15.462,0,28.253,11.291,30.661,26.068C171.311,89.046,172.259,88.787,173.23,88.585z"/>
				<path fill="#ADD3F0" d="M146.43,150.143c-1.101,0-2.188,0.06-3.265,0.15c-0.015-0.402-0.033-0.805-0.033-1.213
					c0-4.254,0.779-8.32,2.177-12.088c2.928-8.562,8.659-15.184,15.897-19.273c-0.226,0.084-0.427,0.186-0.651,0.279l0.489-0.223
					c0,0-6.703,1.201-14.43,7.379c-1.229,0.986-2.48,2.096-3.743,3.348c-0.057,0.057-0.113,0.119-0.17,0.17
					c-0.619,0.623-1.232,1.275-1.85,1.961c-0.006,0.008-0.011,0.014-0.017,0.02c-0.582,0.654-1.162,1.353-1.738,2.064
					c-0.09,0.115-0.178,0.221-0.26,0.334c-0.572,0.719-1.133,1.473-1.688,2.26c-0.094,0.133-0.186,0.271-0.281,0.408
					c-0.504,0.729-1.002,1.484-1.496,2.273c-0.072,0.123-0.145,0.236-0.223,0.355c-0.523,0.854-1.037,1.756-1.541,2.684
					c-0.115,0.207-0.227,0.42-0.34,0.635c-0.512,0.963-1.014,1.949-1.5,2.994c-0.217,0.109-0.432,0.229-0.652,0.324
					c-2.803,1.244-5.861,1.887-8.932,1.887c-0.674,0-1.348-0.039-2.02-0.096c0,0-0.004,0-0.006,0
					c-4.664-0.428-8.91-2.291-12.289-5.158c-0.033-0.014-0.066-0.041-0.098-0.062c-5.365-4.375-8.785-11.033-8.785-18.49
					c0-7.816,3.775-14.732,9.58-19.084c0.453-0.125,0.816-0.256,0.936-0.395c-0.041,0.012-0.076,0.02-0.117,0.025
					c-2.338,0.508-4.609,1.262-6.76,2.245c-0.006,0.002-0.018,0.002-0.023,0.008c-0.719,0.334-1.426,0.686-2.117,1.064
					c-0.062,0.037-0.125,0.08-0.188,0.113c-0.629,0.357-1.248,0.721-1.852,1.113c-0.156,0.105-0.301,0.219-0.457,0.32
					c-0.5,0.34-1.002,0.682-1.48,1.045c-0.275,0.207-0.527,0.436-0.789,0.654c-0.346,0.279-0.701,0.555-1.029,0.852
					c-0.584,0.525-1.15,1.068-1.688,1.635c-4.385,4.561-7.369,10.615-8.408,17.061c-0.014,0.102-0.102,0.17-0.199,0.17
					c-0.113-0.006-0.195-0.092-0.201-0.188c-0.186-3.154,0.283-6.439,1.365-9.492c1.201-3.434,3.166-6.627,5.676-9.238
					c0.346-0.363,0.725-0.686,1.094-1.025c-3.02-2.566-6.488-4.605-10.176-6.01c-1.232-0.465-2.484-0.867-3.752-1.189
					c-0.131,0.033-0.268,0.029-0.391-0.008c-0.443,0-0.947-0.18-1.402-0.303c-0.008,0-0.014,0-0.02-0.006
					c-0.736-0.143-1.484-0.268-2.227-0.375c-0.006,0-0.012,0-0.018,0c-0.441-0.045-0.865-0.045-1.303-0.051
					c-0.201,0-0.379-0.062-0.555-0.135c-0.883-0.072-1.768-0.119-2.656-0.119c-3.342,0-6.635,0.484-9.799,1.426
					c-6.061,1.799-11.705,5.438-15.885,10.252c-3.316,3.82-5.775,8.389-7.1,13.215c-0.318,1.15-0.572,2.326-0.766,3.51
					c-0.098,0.607-0.135,1.221-0.203,1.832c-0.062,0.584-0.152,1.152-0.188,1.732c-0.045,0.816-0.025,1.637-0.016,2.453
					c0.004,0.385-0.018,0.768-0.004,1.146c0.031,0.647,0.125,1.295,0.189,1.938c0.049,0.25,0.102,0.5,0.154,0.748
					c-0.006,0.263,0,0.517,0,0.771c0.016,0.097,0.016,0.197,0.031,0.293c0.693,4.517,2.375,8.979,4.859,12.914
					c2.148,3.404,4.965,6.476,8.146,8.961c3.213-1.321,6.863-1.756,10.281-1.223c0.045-0.867,0.141-1.734,0.314-2.592
					c0.613-3.064,2.082-6.029,4.125-8.34c1.842-2.107,4.158-3.732,6.684-4.701c0.098-0.039,0.205,0.002,0.25,0.09
					c0.045,0.092,0.023,0.199-0.059,0.262c-4.439,3.188-7.574,7.986-8.602,13.174c-1.07,5.218-0.059,10.857,2.777,15.486
					c0.055,0.09,0.037,0.197-0.047,0.267c-0.035,0.024-0.076,0.038-0.125,0.038c-0.051,0-0.1-0.014-0.139-0.051
					c-1.957-1.891-3.453-4.287-4.328-6.94c-0.65-1.984-0.92-4.068-0.857-6.16c-0.023,0-0.039,0-0.062,0l0.062-0.065
					c0,0-0.787-0.017-2.033,0.096c-1.039,0.062-2.064,0.213-3.076,0.43c-5.91,1.139-14.842,4.762-14.809,16.25
					c-0.068,1.383,0.031,2.779,0.326,4.131c0.033,0.174,0.09,0.4,0.158,0.656c0.07,0.283,0.164,0.533,0.264,0.764l52.695,1.893
					c-0.26-1.264-0.428-2.555-0.428-3.896c0-11.049,8.963-20.006,20.008-20.006c6.945,0,13.057,3.537,16.646,8.91
					c4.164-10.535,14.412-17.996,26.419-17.996c1.688,0,3.33,0.176,4.934,0.459c0.367-0.135,0.75-0.229,1.121-0.354
					C157.093,151.363,151.904,150.143,146.43,150.143z M156.596,119.758l0.76-0.334c-0.4,0.195-0.775,0.412-1.168,0.617
					L156.596,119.758z M59.768,145.768c-7.633-2.86-13.078-10.205-13.078-18.839c0-11.119,9.016-20.135,20.135-20.135
					c6.297,0,11.914,2.889,15.605,7.414c-5.441,6.088-9.143,13.74-10.439,22.18C67.182,138.477,62.996,141.723,59.768,145.768z
					 M74.262,146.52c-0.057-0.021-0.119-0.026-0.176-0.039c0.113-0.08,0.244-0.157,0.357-0.244
					C74.381,146.334,74.318,146.424,74.262,146.52z M75.699,167.754c-3.791-6.705-3.229-14.822,3.332-21.211
					c2.137-2.07,4.742-2.881,7.328-2.656c2.188,3.801,5.273,6.932,8.918,9.521C86.586,154.568,79.299,160.113,75.699,167.754z"/>
				<path fill="#ADD3F0" d="M210.361,161.967c7.673,2.6,14.201,7.674,18.625,14.283c-0.231-1.236-0.354-2.514-0.354-3.822
					c0-11.504,9.32-20.826,20.824-20.826c11.494,0,20.82,9.322,20.82,20.826c0,4.684-1.568,8.994-4.188,12.473
					c0.896-0.034,1.795-0.062,2.693-0.098c0.561-0.016,1.12-0.039,1.682-0.057l0.666-0.021c0.313-0.012,0.699-0.061,1.065-0.041
					l1.931-0.065l0.574-1.375c0.17-0.429,0.354-0.935,0.521-1.451c0-0.006,0-0.013,0-0.019c0.057-0.396,0.213-0.793,0.34-1.188
					c0.045-0.17,0.103-0.347,0.142-0.522c0.086-0.326,0.147-0.654,0.217-0.988c0.058-0.264,0.108-0.527,0.151-0.793
					c0.062-0.344,0.103-0.687,0.146-1.029c0.031-0.27,0.076-0.541,0.101-0.812c0.033-0.352,0.047-0.696,0.061-1.045
					c0.018-0.264,0.041-0.522,0.043-0.791c0.006-0.36-0.002-0.729-0.014-1.098c-0.006-0.25,0-0.498-0.018-0.748
					c-0.017-0.373-0.058-0.738-0.095-1.107c-0.021-0.25-0.035-0.491-0.063-0.741c-0.051-0.388-0.121-0.779-0.188-1.171
					c-0.039-0.215-0.065-0.436-0.108-0.649c-0.123-0.604-0.265-1.2-0.435-1.793c-1.571-5.662-5.278-10.791-10.179-14.078
					c-0.67-0.444-1.356-0.86-2.062-1.239c-0.176-0.097-0.358-0.183-0.536-0.275c-0.539-0.273-1.089-0.541-1.648-0.777
					c-0.176-0.074-0.357-0.15-0.535-0.219c-0.709-0.287-1.428-0.547-2.162-0.762c-1.146-0.346-2.318-0.604-3.506-0.785
					c-2.418-0.365-4.896-0.557-7.328-0.26c-1.139,0.139-2.264,0.358-3.377,0.643c-1.127,0.289-2.23,0.65-3.311,1.088
					c-2.16,0.865-4.211,2.02-6.062,3.432c-0.092,0.062-0.217,0.045-0.283-0.037c-0.072-0.082-0.062-0.207,0.021-0.278
					c3.914-3.5,8.99-5.756,14.314-6.39c-0.677-3.069-2.029-5.938-3.966-8.321c-2.295-2.847-5.442-5.041-8.877-6.188
					c-1.938-0.646-3.985-0.98-6.076-0.98c-1.606,0-3.194,0.199-4.729,0.584c-3.021,0.75-5.852,2.25-8.252,4.332
					c0.176,0.385,0.361,0.771,0.525,1.158c1.643,3.787,2.637,7.945,2.866,12.018c0.009,0.107-0.067,0.195-0.174,0.209
					c-0.004,0-0.004-0.006-0.009-0.006c-0.006,0-0.012,0.006-0.018,0.006c-0.092,0-0.176-0.062-0.197-0.152
					c-1.862-8.225-6.131-15.99-12.016-21.86c-0.678-0.68-1.387-1.334-2.111-1.975c-0.396-0.344-0.805-0.668-1.217-1.002
					c-0.307-0.252-0.617-0.512-0.936-0.756c-0.568-0.441-1.152-0.863-1.746-1.271c-0.139-0.1-0.275-0.199-0.418-0.291
					c-0.705-0.479-1.426-0.938-2.162-1.381c0-0.004,0-0.004,0-0.004c8.258,6.379,13.594,16.363,13.594,27.611
					c0,4.568-0.885,8.918-2.477,12.916C210.423,161.982,210.391,161.977,210.361,161.967z M229.075,133.566
					c7.223,0,13.09,5.789,13.229,12.977c-0.996,0.209-2.021,0.322-3.072,0.322c-7.396,0-13.5-5.434-14.594-12.523
					C226.027,133.844,227.52,133.566,229.075,133.566z"/>
			</g>
			<path fill="#231F20" d="M278.555,166.441c-1.773-6.406-6.011-12.127-11.601-15.701c-4.884-3.166-11-4.713-16.861-4.242
				c-0.213-3.172-1.293-6.338-3.063-8.998c-1.031-1.559-2.32-2.982-3.836-4.223c2.102-5.154,2.68-11.012,1.604-16.551
				c-1.273-6.834-5.166-13.276-10.666-17.674c-5.205-4.227-12.023-6.652-18.713-6.652c-0.283,0-0.566,0.006-0.838,0.012
				c-5.557,0.117-11.098,1.896-15.68,5.012c-1.644-2.129-3.551-3.953-5.674-5.426c-1.099-0.775-2.295-1.482-3.672-2.152
				c-0.103-0.045-0.203-0.086-0.312-0.127l-0.177-0.078c-0.455-0.209-0.918-0.406-1.383-0.582c-0.186-0.074-0.367-0.137-0.545-0.199
				c-3.168-1.135-6.455-1.688-9.672-1.523c-0.154-0.615-0.301-1.285-0.453-2.066c-0.199-1.01-0.399-2.051-0.697-3.09
				c-0.631-2.342-1.489-4.654-2.561-6.854c-2.211-4.607-5.408-8.861-9.238-12.316c-4.055-3.66-8.938-6.512-14.125-8.25
				c-5.41-1.816-11.245-2.461-16.993-1.869c-8.973,0.881-17.783,5.031-24.17,11.375c-5.736,5.619-9.693,12.971-11.197,20.773
				c-0.99-0.201-1.965-0.303-2.945-0.303c-3.873,0-7.686,1.295-10.732,3.631c-2.232,1.67-4.072,3.9-5.324,6.434
				c-0.822,1.654-1.371,3.504-1.604,5.387c-5.947-1.535-12.303-1.467-18.195,0.154c-6.688,1.816-12.889,5.725-17.471,11.004
				c-3.643,4.186-6.287,9.213-7.645,14.523c-1.309,5.094-1.469,10.51-0.461,15.672c0.922,4.826,2.928,9.521,5.803,13.576
				c2.141,3.012,4.828,5.737,7.824,7.94c-3.33,1.508-6.182,4.006-8.088,7.101c-2.51,3.995-3.365,8.959-2.355,13.598
				c0.107,0.511,0.227,0.972,0.355,1.397l0.043,0.148c0.055,0.172,0.105,0.34,0.24,0.732l0.244,0.684
				c0.027,0.076,0.133,0.312,0.436,0.486l0.164,0.088h56.521l-0.266-0.729h-0.77c-0.029-0.072-0.086-0.136-0.17-0.142l-53.279-1.91
				c-0.1-0.229-0.193-0.479-0.264-0.764c-0.068-0.256-0.125-0.481-0.158-0.656c-0.295-1.353-0.395-2.748-0.326-4.131
				c-0.033-11.487,8.898-15.11,14.809-16.25c1.012-0.217,2.037-0.367,3.076-0.431c1.246-0.11,2.033-0.096,2.033-0.096
				s-0.062,0.066,0,0.066c-0.062,2.092,0.207,4.176,0.857,6.16c0.875,2.654,2.371,5.051,4.328,6.941
				c0.039,0.037,0.088,0.051,0.139,0.051c0.049,0,0.09-0.015,0.125-0.039c0.084-0.068,0.102-0.176,0.047-0.266
				c-2.836-4.63-3.848-10.271-2.777-15.486c1.027-5.188,4.162-9.986,8.602-13.174c0.082-0.062,0.104-0.17,0.059-0.263
				c-0.045-0.088-0.152-0.129-0.25-0.09c-2.525,0.969-4.842,2.594-6.684,4.701c-2.043,2.312-3.512,5.274-4.125,8.34
				c-0.174,0.856-0.27,1.726-0.314,2.592c-3.418-0.532-7.068-0.1-10.281,1.224c-3.182-2.486-5.998-5.558-8.146-8.961
				c-2.484-3.937-4.166-8.398-4.859-12.914c-0.76-4.791-0.48-9.781,0.801-14.426c1.324-4.826,3.783-9.395,7.1-13.215
				c4.18-4.814,9.824-8.453,15.885-10.252c3.164-0.941,6.457-1.426,9.799-1.426c2.773,0,5.523,0.334,8.18,0.988
				c0.123,0.037,0.26,0.041,0.391,0.008c5.08,1.295,9.898,3.782,13.928,7.2c-0.369,0.34-0.748,0.662-1.094,1.025
				c-2.51,2.611-4.475,5.805-5.676,9.238c-1.082,3.053-1.551,6.338-1.365,9.492c0.006,0.096,0.088,0.182,0.201,0.188
				c0.098,0,0.186-0.068,0.199-0.17c1.039-6.445,4.023-12.5,8.408-17.061c4.338-4.559,10.264-7.799,16.68-9.122
				c0.104-0.021,0.17-0.113,0.16-0.219c-0.006-0.102-0.092-0.176-0.199-0.182c-3.129-0.051-6.42,0.566-9.422,1.768
				c-2.777,1.1-5.367,2.75-7.621,4.739c-3.852-3.801-8.643-6.668-13.859-8.268c-0.018-0.02-0.057-0.027-0.086-0.045
				c1.504-4.162,4.176-7.85,7.607-10.43c3.482-2.648,7.822-4.207,12.277-4.436c-0.445,2.773-0.592,5.605-0.432,8.416
				c0.004,0.117,0.094,0.193,0.201,0.193c0.111,0,0.199-0.088,0.199-0.199c0.045-2.777,0.367-5.539,0.963-8.209
				c0.09-0.08,0.158-0.189,0.189-0.326c1.707-7.609,5.805-14.729,11.529-20.047c6.162-5.783,14.154-9.426,22.525-10.252
				c1.316-0.137,2.662-0.205,3.994-0.205c4.006,0,7.958,0.609,11.739,1.801c4.827,1.535,9.434,4.074,13.323,7.348
				c3.705,3.115,6.89,7,9.205,11.23c1.123,2.045,2.072,4.203,2.814,6.4c0.328,0.936,0.584,1.91,0.832,2.854
				c0.238,0.877,0.498,1.77,0.799,2.646c-5.098,0.375-10.02,2.379-13.854,5.645c-0.086,0.068-0.094,0.188-0.035,0.275
				c0.062,0.084,0.186,0.107,0.273,0.051c4.1-2.588,8.977-4.033,13.721-4.07h0.348c3.064,0,6.117,0.582,8.973,1.658
				c0.781,0.316,1.551,0.648,2.305,1.02c0.636,0.311,1.259,0.662,1.882,1.01c0.465,0.287,0.924,0.576,1.37,0.887
				c4.33,3.02,7.681,7.414,9.431,12.385c1.504,4.23,1.863,8.992,1.056,13.494c-1.22-0.707-2.459-1.346-3.729-1.896
				c-3.785-1.648-7.938-2.652-12.011-2.895c-0.104,0-0.198,0.07-0.213,0.176c-0.018,0.102,0.052,0.203,0.152,0.221
				c8.223,1.885,15.973,6.168,21.834,12.072c5.885,5.871,10.152,13.636,12.016,21.861c0.021,0.09,0.105,0.152,0.224,0.152
				c0.104-0.014,0.183-0.103,0.174-0.209c-0.229-4.072-1.226-8.23-2.866-12.019c-0.164-0.387-0.351-0.772-0.525-1.157
				c2.4-2.082,5.232-3.582,8.252-4.332c1.535-0.386,3.123-0.584,4.73-0.584c2.09,0,4.137,0.334,6.075,0.979
				c3.435,1.147,6.582,3.344,8.877,6.188c1.937,2.386,3.289,5.252,3.966,8.322c-5.324,0.633-10.4,2.889-14.314,6.389
				c-0.084,0.072-0.094,0.197-0.021,0.279c0.066,0.082,0.191,0.1,0.283,0.037c3.684-2.809,8.15-4.602,12.75-5.162
				c2.432-0.297,4.91-0.104,7.328,0.26c2.334,0.351,4.623,1.023,6.77,1.996c1.279,0.584,2.519,1.275,3.683,2.062
				c4.897,3.287,8.604,8.416,10.178,14.078c1.31,4.643,1.233,9.713-0.209,14.281c-0.183,0.598-0.396,1.18-0.59,1.668l-0.574,1.375
				l-51.963,1.807c-0.082,0-0.146,0.062-0.172,0.141h-0.772l-0.259,0.729h55.146l0.985-2.025l0.39-0.895
				c0.223-0.544,0.479-1.189,0.695-1.857C279.9,177.387,280.032,171.674,278.555,166.441z M236.782,130.527
				c-1.904-0.637-3.9-0.965-5.943-0.965c-2.116,0-4.258,0.367-6.192,1.053c-3.135,1.1-5.922,3.084-7.963,5.613
				c-1.771-3.58-4.175-6.943-7.031-9.806c-2.182-2.189-4.662-4.105-7.312-5.689c1.527-4.562,1.65-9.627,0.318-14.332
				c-0.748-2.678-1.986-5.235-3.604-7.545c4.438-2.465,9.562-3.824,14.569-3.824c0.319,0,0.644,0.006,0.965,0.018
				c6.379,0.164,12.608,2.463,17.55,6.469c4.979,3.993,8.562,9.584,10.082,15.747c1.303,5.182,1.153,10.773-0.365,15.904
				C240.298,132.043,238.585,131.131,236.782,130.527z"/>
		</g>
		<g>
			<g>
				<g>
					<path fill="#ADD3F0" d="M85.805,221.498c-1.057,0-2.129-0.201-3.16-0.629c-4.256-1.744-6.287-6.609-4.539-10.861l1.582-3.852
						c1.75-4.254,6.615-6.289,10.869-4.533c4.252,1.748,6.281,6.607,4.531,10.861l-1.58,3.852
						C92.186,219.555,89.078,221.498,85.805,221.498z"/>
				</g>
				<g>
					<path fill="#ADD3F0" d="M104.879,254.229c-1.057,0-2.127-0.205-3.164-0.629c-4.254-1.75-6.283-6.615-4.533-10.867l1.582-3.848
						c1.744-4.252,6.613-6.283,10.863-4.531c4.254,1.744,6.287,6.609,4.537,10.863l-1.586,3.852
						C111.26,252.279,108.15,254.229,104.879,254.229z"/>
				</g>
				<g>
					<path fill="#ADD3F0" d="M150.848,221.498c-1.056,0-2.125-0.201-3.16-0.629c-4.254-1.744-6.285-6.609-4.537-10.861l1.586-3.852
						c1.744-4.254,6.611-6.289,10.863-4.533c4.25,1.748,6.282,6.607,4.537,10.861l-1.585,3.852
						C157.229,219.555,154.122,221.498,150.848,221.498z"/>
				</g>
				<g>
					<path fill="#ADD3F0" d="M169.923,254.229c-1.053,0-2.127-0.205-3.159-0.629c-4.255-1.75-6.285-6.615-4.541-10.867l1.584-3.848
						c1.75-4.252,6.614-6.283,10.868-4.531c4.252,1.744,6.281,6.609,4.535,10.863l-1.584,3.852
						C176.305,252.279,173.195,254.229,169.923,254.229z"/>
				</g>
				<g>
					<path fill="#ADD3F0" d="M215.893,221.498c-1.06,0-2.129-0.201-3.162-0.629c-4.258-1.744-6.285-6.609-4.535-10.861l1.58-3.852
						c1.75-4.254,6.617-6.289,10.865-4.533c4.252,1.748,6.286,6.607,4.534,10.861l-1.582,3.852
						C222.271,219.555,219.163,221.498,215.893,221.498z"/>
				</g>
			</g>
			<g>
				<g>
					<path fill="#231F20" d="M89.289,204.803c-1.967,2.09-3.965,3.869-5.777,5.199v0.006c-0.453,0.381-0.824,0.867-1.068,1.453
						c-0.797,1.926,0.115,4.133,2.041,4.932c1.926,0.801,4.135-0.119,4.932-2.045c0.277-0.664,0.34-1.371,0.234-2.033
						C89.34,210.139,89.201,207.551,89.289,204.803z"/>
				</g>
				<g>
					<path fill="#FFFFFF" d="M86.354,209.42c-0.787,0.832-1.586,1.549-2.316,2.078l0,0c-0.182,0.15-0.324,0.352-0.424,0.58
						c-0.318,0.773,0.047,1.658,0.818,1.98c0.768,0.315,1.654-0.05,1.971-0.822c0.113-0.266,0.139-0.543,0.094-0.814
						C86.371,211.555,86.32,210.521,86.354,209.42z"/>
				</g>
				<g>
					<path fill="#231F20" d="M154.499,204.803c-1.967,2.09-3.965,3.869-5.776,5.199v0.006c-0.455,0.381-0.824,0.867-1.07,1.453
						c-0.793,1.926,0.123,4.133,2.049,4.932c1.922,0.801,4.131-0.119,4.922-2.045c0.279-0.664,0.348-1.371,0.24-2.033
						C154.55,210.139,154.415,207.551,154.499,204.803z"/>
				</g>
				<g>
					<path fill="#FFFFFF" d="M151.562,209.42c-0.791,0.832-1.586,1.549-2.313,2.078l0,0c-0.183,0.15-0.322,0.352-0.426,0.58
						c-0.316,0.773,0.047,1.658,0.819,1.98c0.767,0.315,1.652-0.05,1.967-0.822c0.113-0.266,0.14-0.543,0.099-0.814
						C151.583,211.555,151.525,210.521,151.562,209.42z"/>
				</g>
				<g>
					<path fill="#231F20" d="M219.71,204.803c-1.969,2.09-3.965,3.869-5.778,5.199v0.006c-0.451,0.381-0.82,0.867-1.062,1.453
						c-0.803,1.926,0.113,4.133,2.039,4.932c1.922,0.801,4.131-0.119,4.928-2.045c0.277-0.664,0.34-1.371,0.238-2.033
						C219.755,210.139,219.624,207.551,219.71,204.803z"/>
				</g>
				<g>
					<path fill="#FFFFFF" d="M216.771,209.42c-0.785,0.832-1.584,1.549-2.312,2.078l0,0c-0.183,0.15-0.33,0.352-0.426,0.58
						c-0.316,0.773,0.045,1.658,0.815,1.98c0.771,0.315,1.654-0.05,1.971-0.822c0.113-0.266,0.138-0.543,0.097-0.814
						C216.792,211.555,216.738,210.521,216.771,209.42z"/>
				</g>
			</g>
			<g>
				<g>
					<path fill="#231F20" d="M108.385,237.188c-1.969,2.088-3.963,3.869-5.781,5.203l0,0c-0.449,0.379-0.818,0.865-1.064,1.455
						c-0.793,1.926,0.119,4.131,2.045,4.93c1.926,0.804,4.129-0.118,4.932-2.045c0.273-0.664,0.34-1.369,0.234-2.035
						C108.434,242.52,108.297,239.934,108.385,237.188z"/>
				</g>
				<g>
					<path fill="#FFFFFF" d="M105.447,241.803c-0.787,0.83-1.586,1.551-2.311,2.082l0,0c-0.182,0.154-0.328,0.35-0.424,0.584
						c-0.318,0.768,0.045,1.648,0.818,1.971c0.768,0.318,1.65-0.045,1.967-0.819c0.113-0.265,0.137-0.545,0.098-0.815
						C105.471,243.936,105.414,242.906,105.447,241.803z"/>
				</g>
				<g>
					<path fill="#231F20" d="M173.6,237.188c-1.976,2.088-3.968,3.869-5.777,5.203l0,0c-0.455,0.379-0.824,0.865-1.07,1.455
						c-0.795,1.926,0.119,4.131,2.045,4.93c1.92,0.804,4.129-0.118,4.924-2.045c0.279-0.664,0.346-1.369,0.242-2.035
						C173.645,242.52,173.509,239.934,173.6,237.188z"/>
				</g>
				<g>
					<path fill="#FFFFFF" d="M170.659,241.803c-0.787,0.83-1.584,1.551-2.312,2.082l0,0c-0.182,0.154-0.326,0.35-0.426,0.584
						c-0.322,0.768,0.041,1.648,0.816,1.971c0.77,0.318,1.65-0.045,1.971-0.819c0.111-0.265,0.137-0.545,0.096-0.815
						C170.684,243.936,170.626,242.906,170.659,241.803z"/>
				</g>
				<g>
					<path fill="#231F20" d="M108.385,237.188c-1.969,2.088-3.963,3.869-5.781,5.203l0,0c-0.449,0.379-0.818,0.865-1.064,1.455
						c-0.793,1.926,0.119,4.131,2.045,4.93c1.926,0.804,4.129-0.118,4.932-2.045c0.273-0.664,0.34-1.369,0.234-2.035
						C108.434,242.52,108.297,239.934,108.385,237.188z"/>
				</g>
				<g>
					<path fill="#FFFFFF" d="M105.447,241.803c-0.787,0.83-1.586,1.551-2.311,2.082l0,0c-0.182,0.154-0.328,0.35-0.424,0.584
						c-0.318,0.768,0.045,1.648,0.818,1.971c0.768,0.318,1.65-0.045,1.967-0.819c0.113-0.265,0.137-0.545,0.098-0.815
						C105.471,243.936,105.414,242.906,105.447,241.803z"/>
				</g>
				<g>
					<path fill="#231F20" d="M173.6,237.188c-1.976,2.088-3.968,3.869-5.777,5.203l0,0c-0.455,0.379-0.824,0.865-1.07,1.455
						c-0.795,1.926,0.119,4.131,2.045,4.93c1.92,0.804,4.129-0.118,4.924-2.045c0.279-0.664,0.346-1.369,0.242-2.035
						C173.645,242.52,173.509,239.934,173.6,237.188z"/>
				</g>
				<g>
					<path fill="#FFFFFF" d="M170.659,241.803c-0.787,0.83-1.584,1.551-2.312,2.082l0,0c-0.182,0.154-0.326,0.35-0.426,0.584
						c-0.322,0.768,0.041,1.648,0.816,1.971c0.77,0.318,1.65-0.045,1.971-0.819c0.111-0.265,0.137-0.545,0.096-0.815
						C170.684,243.936,170.626,242.906,170.659,241.803z"/>
				</g>
			</g>
		</g>
	</g>
</g>
</svg>
