<?xml version="1.0" encoding="utf-8"?>
<!-- Generator: Adobe Illustrator 15.0.2, SVG Export Plug-In . SVG Version: 6.00 Build 0)  -->
<!DOCTYPE svg PUBLIC "-//W3C//DTD SVG 1.1//EN" "http://www.w3.org/Graphics/SVG/1.1/DTD/svg11.dtd">
<svg version="1.1" id="Layer_1" xmlns="http://www.w3.org/2000/svg" xmlns:xlink="http://www.w3.org/1999/xlink" x="0px" y="0px"
	 width="280px" height="260px" viewBox="0 0 280 260" enable-background="new 0 0 280 260" xml:space="preserve">
<g>
	<g>
		<g>
			<path fill="#FFFFFF" d="M149.322,117.614c-1.025-3.693-3.461-6.99-6.689-9.051c-2.821-1.83-6.35-2.719-9.727-2.447
				c-0.123-1.83-0.746-3.656-1.771-5.189c-0.596-0.9-1.338-1.719-2.215-2.436c1.217-2.973,1.551-6.352,0.928-9.543
				c-0.736-3.941-2.979-7.658-6.145-10.195c-3.002-2.436-6.939-3.834-10.795-3.834c-0.166,0-0.33,0.002-0.482,0.008
				c-3.211,0.064-6.4,1.09-9.045,2.889c-0.947-1.227-2.045-2.279-3.273-3.129c-0.629-0.447-1.32-0.854-2.113-1.24
				c-0.062-0.029-0.119-0.051-0.182-0.074l-0.102-0.045c-0.266-0.119-0.527-0.232-0.793-0.338c-0.113-0.039-0.215-0.076-0.318-0.113
				c-1.822-0.656-3.727-0.971-5.578-0.881c-0.086-0.352-0.17-0.738-0.26-1.189c-0.113-0.582-0.232-1.184-0.402-1.783
				c-0.363-1.352-0.855-2.68-1.473-3.953c-1.281-2.654-3.121-5.109-5.33-7.102c-2.34-2.109-5.154-3.758-8.15-4.754
				c-3.115-1.049-6.48-1.422-9.799-1.082c-5.172,0.51-10.256,2.9-13.934,6.559c-3.309,3.24-5.594,7.482-6.463,11.982
				c-0.57-0.115-1.131-0.172-1.697-0.172c-2.23,0-4.432,0.744-6.188,2.092c-1.289,0.967-2.352,2.246-3.07,3.707
				c-0.475,0.957-0.787,2.023-0.926,3.109c-3.43-0.883-7.094-0.846-10.49,0.086c-3.854,1.051-7.434,3.305-10.078,6.35
				c-2.1,2.412-3.625,5.312-4.408,8.377c-0.752,2.934-0.846,6.061-0.266,9.033c0.533,2.787,1.688,5.494,3.348,7.828
				c1.234,1.738,2.787,3.314,4.508,4.582c-1.916,0.869-3.562,2.311-4.658,4.096c-1.447,2.303-1.939,5.162-1.361,7.842
				c0.062,0.295,0.129,0.559,0.207,0.807l0.025,0.086c0.027,0.096,0.057,0.191,0.135,0.418l0.139,0.396
				c0.02,0.047,0.082,0.182,0.256,0.277l0.096,0.055h17.211h15.383h72.732h1.348h30.458l0.569-1.166l0.224-0.52
				c0.123-0.311,0.271-0.686,0.396-1.07C150.098,123.929,150.172,120.634,149.322,117.614z"/>
			<g>
				<path fill="#ADD3F0" d="M9.445,101.788c0.037,0.357,0.064,0.715,0.119,1.07c-0.043-0.305-0.057-0.611-0.088-0.916
					C9.467,101.89,9.453,101.839,9.445,101.788z"/>
				<path fill="#ADD3F0" d="M105.369,91.257c1.523,0.914,2.955,2.02,4.213,3.281c1.648,1.652,3.037,3.592,4.051,5.656
					c1.178-1.461,2.791-2.604,4.6-3.236c1.115-0.396,2.35-0.609,3.568-0.609c1.178,0,2.332,0.189,3.426,0.557
					c1.043,0.346,2.033,0.873,2.922,1.525c0.572-1.916,0.789-3.938,0.676-5.934c-0.035-0.055-0.068-0.105-0.113-0.148
					c0.027-0.279,0.045-0.557,0.057-0.838c-0.086-0.758-0.223-1.512-0.402-2.252c-0.879-3.553-2.945-6.779-5.818-9.084
					c-2.842-2.305-6.439-3.631-10.115-3.73c-0.188-0.006-0.369-0.008-0.561-0.008c-2.889,0-5.84,0.785-8.4,2.203
					c0.93,1.334,1.648,2.809,2.078,4.35C106.32,85.708,106.246,88.626,105.369,91.257z M112.527,78.323
					c6.463,0,11.703,5.238,11.703,11.701c0,1.436-0.273,2.809-0.748,4.078c-8.207-0.266-14.828-6.777-15.271-14.947
					C109.548,78.622,111.003,78.323,112.527,78.323z"/>
				<path fill="#ADD3F0" d="M82.57,75.892c0.271-0.172,0.566-0.305,0.85-0.457c-0.027,0.01-0.062,0.016-0.09,0.027
					C83.074,75.604,82.814,75.737,82.57,75.892z"/>
				<path fill="#ADD3F0" d="M104.496,83.323c-1.008-2.865-2.939-5.402-5.438-7.143c-0.254-0.18-0.521-0.346-0.787-0.51
					c-0.357-0.203-0.725-0.404-1.088-0.582c-0.43-0.217-0.877-0.406-1.324-0.59c-1.648-0.619-3.41-0.957-5.172-0.957l-0.205,0.002
					c-2.424,0.021-4.881,0.705-7.062,1.891c1.41-0.51,2.918-0.809,4.492-0.809c7.295,0,13.203,5.906,13.203,13.195
					c0,0.498-0.045,0.984-0.107,1.467c0.662,0.215,1.318,0.447,1.953,0.725c0.73,0.318,1.445,0.686,2.146,1.094
					C105.572,88.509,105.369,85.765,104.496,83.323z"/>
				<path fill="#ADD3F0" d="M149.633,120.196c0-0.617-0.188-1.154-0.311-1.756c-0.047-0.232-0.092-0.469-0.154-0.707
					c-0.107-0.439-0.227-0.879-0.402-1.271c-0.164-0.365-0.396-0.705-0.549-1.074c-0.418-0.988-0.85-1.82-1.512-2.668
					c-0.709-0.902-1.398-1.756-2.367-2.385c-0.408-0.266-0.879-0.391-1.297-0.633c-0.477-0.273-0.936-0.527-1.422-0.783
					c-0.584-0.299-1.168-0.572-1.762-0.832c-1.666-0.723-3.557-1.203-5.365-1.354c-0.566-0.045-1.148-0.02-1.699-0.189
					c-0.23-0.074-0.588-0.207-0.73-0.428c-0.129-0.209-0.158-0.578-0.242-0.818c-0.438-1.266-1.082-2.449-1.92-3.486
					c-1.326-1.643-3.139-2.912-5.121-3.568c-1.121-0.379-2.299-0.57-3.506-0.57c-0.924,0-1.842,0.113-2.73,0.338
					c-1.738,0.434-3.369,1.297-4.758,2.498c0.107,0.223,0.209,0.445,0.307,0.668c0.951,2.186,1.523,4.582,1.652,6.928
					c0.006,0.062-0.039,0.115-0.113,0.125c-0.057,0-0.107-0.035-0.113-0.092c-1.076-4.74-3.533-9.219-6.932-12.602
					c-0.385-0.391-0.793-0.766-1.207-1.133c-0.238-0.205-0.48-0.396-0.719-0.596c-0.17-0.141-0.34-0.283-0.516-0.418
					c-0.34-0.262-0.686-0.51-1.037-0.754c-0.072-0.049-0.141-0.102-0.215-0.15c-0.414-0.281-0.832-0.547-1.258-0.805
					c4.758,3.68,7.84,9.438,7.84,15.926c0,1.908-0.277,3.748-0.775,5.496c4.418,0.189,8.473,1.711,11.797,4.18
					c2.516-3.914,6.895-6.514,11.895-6.514c7.823,0,14.161,6.338,14.161,14.158c0,1.65-0.295,3.229-0.814,4.701
					c0.078-0.051,0.146-0.125,0.216-0.27c0.151-0.303,0.34-0.625,0.437-0.949c0.096-0.328,0.125-0.645,0.282-0.957
					c0.097-0.178,0.312-0.33,0.379-0.496c0.099-0.227-0.061-0.152-0.106-0.387c-0.057-0.271,0.154-0.844,0.221-1.111
					c0.131-0.537,0.33-1.008,0.408-1.551c0.08-0.504,0.018-1.043,0.035-1.553C149.639,121.636,149.633,120.917,149.633,120.196z
					 M127.078,106.382c-4.258,0-7.787-3.133-8.41-7.221c0.805-0.283,1.66-0.447,2.561-0.447c4.162,0,7.543,3.336,7.623,7.48
					C128.285,106.319,127.691,106.382,127.078,106.382z"/>
				<path fill="#ADD3F0" d="M73.166,108.06c-7.719-0.641-15.795,0.551-22.336-4.793c-3.094-2.525-5.064-6.363-5.064-10.666
					c0-4.508,2.176-8.496,5.521-11.004c0.264-0.074,0.471-0.148,0.539-0.227c-3.658,0.773-7.035,2.627-9.51,5.232
					c-2.535,2.629-4.254,6.117-4.85,9.836c-0.01,0.057-0.059,0.1-0.117,0.1c-0.066-0.006-0.113-0.051-0.117-0.111
					c-0.105-1.814,0.168-3.709,0.785-5.473c0.695-1.979,1.828-3.818,3.273-5.324c0.203-0.211,0.422-0.396,0.635-0.592
					c-2.326-1.975-5.104-3.408-8.037-4.15c-0.074,0.016-0.148,0.012-0.221-0.006c-0.256-0.006-0.547-0.107-0.811-0.176
					c-0.434-0.084-0.863-0.158-1.301-0.217c-0.258-0.029-0.5-0.025-0.756-0.031c-0.113,0-0.221-0.037-0.322-0.08
					c-0.508-0.039-1.014-0.064-1.529-0.064c-1.926,0-3.824,0.275-5.652,0.818c-3.49,1.039-6.746,3.139-9.16,5.914
					c-1.914,2.203-3.33,4.836-4.088,7.621c-0.652,2.342-0.822,4.834-0.572,7.275c0.031,0.141,0.057,0.287,0.088,0.43
					c-0.006,0.162,0,0.322,0,0.486c0.008,0.043,0.008,0.086,0.02,0.129c0.402,2.6,1.371,5.174,2.803,7.445
					c1.234,1.965,2.861,3.732,4.695,5.168c1.854-0.762,3.959-1.012,5.932-0.705c0.021-0.504,0.078-1.002,0.18-1.496
					c0.355-1.768,1.201-3.471,2.379-4.809c1.062-1.217,2.396-2.152,3.852-2.713c0.062-0.023,0.119,0.004,0.148,0.055
					c0.027,0.053,0.012,0.115-0.035,0.148c-2.559,1.84-4.365,4.605-4.961,7.596c-0.619,3.012-0.033,6.266,1.604,8.934
					c0.027,0.051,0.02,0.115-0.1,0.176c-0.031,0-0.059-0.01-0.082-0.031c-1.127-1.086-1.988-2.473-2.492-4.002
					c-0.373-1.145-0.533-2.348-0.492-3.592c0,0-0.459-0.006-1.176,0.057c-0.598,0.035-1.193,0.119-1.775,0.25
					c-3.41,0.654-8.559,2.74-8.541,9.367c-0.035,0.799,0.021,1.604,0.186,2.385c0.023,0.102,0.051,0.232,0.094,0.381
					c0.043,0.158,0.096,0.305,0.156,0.438l30.385,1.092c-0.15-0.729-0.246-1.473-0.246-2.244c0-6.375,5.168-11.541,11.537-11.541
					c4.008,0,7.527,2.043,9.602,5.139c2.4-6.076,8.309-10.377,15.236-10.377c0.973,0,1.919,0.1,2.841,0.264
					c0.217-0.076,0.438-0.133,0.652-0.201c-0.58,0.184-3.087-1.164-3.812-1.342C76.521,108.425,74.85,108.198,73.166,108.06z
					 M78.98,90.696l0.441-0.193c-0.227,0.111-0.447,0.234-0.668,0.354L78.98,90.696z M31.504,106.128
					c-0.031-0.012-0.066-0.016-0.102-0.023c0.066-0.045,0.141-0.09,0.209-0.139C31.576,106.021,31.537,106.071,31.504,106.128z
					 M29.717,99.784c-2.605,1.133-4.869,2.889-6.619,5.08c-4.131-1.553-7.076-5.527-7.076-10.201
					c0-6.021,4.879-10.902,10.896-10.902c3.412,0,6.455,1.562,8.453,4.016C32.422,91.069,30.422,95.212,29.717,99.784z"/>
				<path fill="#ADD3F0" d="M90.421,72.448c-0.17-0.504-0.324-1.02-0.459-1.529c-0.143-0.543-0.295-1.102-0.482-1.643
					c-0.43-1.268-0.975-2.508-1.619-3.693c-1.344-2.439-3.172-4.678-5.312-6.473c-2.244-1.893-4.9-3.354-7.681-4.236
					c-2.18-0.691-4.457-1.041-6.773-1.041c-0.768,0-1.541,0.037-2.303,0.117c-4.822,0.479-9.436,2.576-12.988,5.916
					c-3.301,3.066-5.664,7.168-6.652,11.557c-0.014,0.08-0.057,0.143-0.107,0.188c-0.342,1.541-0.529,3.135-0.553,4.734
					c0,0.062-0.053,0.113-0.115,0.117c-0.062,0-0.117-0.049-0.119-0.111c-0.09-1.625-0.006-3.256,0.252-4.854
					c-2.572,0.131-5.072,1.027-7.082,2.555c-1.979,1.49-3.518,3.619-4.385,6.016c0.014,0.012,0.033,0.016,0.051,0.027
					c3.002,0.924,5.766,2.574,7.99,4.77c0.475-0.408,0.982-0.793,1.502-1.156c-0.5,0.137-1.004,0.307-1.488,0.527
					c-0.828-1.404-2.057-2.373-3.484-3.035c0.666-0.602,1.461-1.117,2.082-1.75c0.365-0.383,0.791-0.703,1.244-0.957
					c0.619,1.643,1.775,3.141,3.141,4.295c0.449-0.242,0.926-0.469,1.4-0.66c1.729-0.689,3.625-1.047,5.432-1.016
					c0.012,0,0.021,0.008,0.029,0.008c0.023-0.012,0.045-0.021,0.062-0.039c-0.125-0.385-0.326-1.436-0.328-1.484
					c-0.08-0.379-0.148-0.764-0.199-1.152c-0.104-0.787-0.158-1.584-0.158-2.377c0-9.906,8.029-17.932,17.938-17.932
					c8.916,0,16.291,6.508,17.677,15.033C88.058,72.786,89.232,72.534,90.421,72.448z"/>
			</g>
			<path fill="#231F20" d="M150.602,117.257c-1.115-4.004-3.756-7.58-7.244-9.811c-2.695-1.746-5.98-2.707-9.283-2.707
				c-0.295-1.613-0.93-3.193-1.83-4.549c-0.498-0.752-1.088-1.449-1.756-2.086c1.037-2.984,1.27-6.291,0.668-9.402
				c-0.799-4.246-3.211-8.25-6.615-10.98c-3.234-2.625-7.477-4.135-11.633-4.135l-0.51,0.012c-3.043,0.062-6.102,0.934-8.74,2.473
				c-0.838-0.941-1.773-1.77-2.787-2.473c-0.697-0.492-1.443-0.932-2.322-1.359c-0.096-0.045-0.193-0.086-0.295-0.125
				c-0.283-0.127-0.566-0.248-0.877-0.373l-0.328-0.113c-1.654-0.596-3.32-0.924-4.963-0.969c-0.006-0.035-0.018-0.068-0.021-0.105
				c-0.119-0.619-0.244-1.26-0.426-1.877c-0.385-1.445-0.912-2.854-1.557-4.186c-1.35-2.811-3.303-5.404-5.637-7.508
				c-2.475-2.234-5.455-3.975-8.615-5.033c-3.303-1.109-6.859-1.5-10.354-1.141c-5.475,0.541-10.848,3.07-14.734,6.932
				c-3.193,3.125-5.492,7.152-6.562,11.453c-2.719-0.172-5.5,0.686-7.652,2.336c-1.453,1.088-2.65,2.539-3.461,4.182
				c-0.326,0.656-0.588,1.367-0.781,2.104c-3.229-0.604-6.641-0.471-9.793,0.398c-4.109,1.117-7.918,3.518-10.734,6.758
				C9.527,87.54,7.9,90.624,7.066,93.89c-0.803,3.129-0.9,6.457-0.281,9.615c0.564,2.971,1.795,5.857,3.566,8.35
				c0.922,1.303,2.023,2.527,3.242,3.615c-0.113-0.104-1.787,1.482-1.939,1.641c-1.848,1.92-3.254,4.633-2.908,7.365
				c0.146,1.164,0.498,2.371,0.922,3.461c0.113,0.283,0.385,0.924,0.699,1.197l0.062,0.176c0.02,0.047,0.082,0.182,0.256,0.277
				l0.096,0.055h32.594l-0.152-0.42h-0.445c-0.014-0.041-0.053-0.078-0.1-0.082l-30.721-1.102c-0.061-0.133-0.113-0.279-0.156-0.438
				c-0.043-0.148-0.07-0.279-0.094-0.381c-0.164-0.781-0.221-1.586-0.186-2.385c-0.018-6.627,5.131-8.713,8.541-9.367
				c0.582-0.131,1.178-0.215,1.775-0.25c0.717-0.062,1.176-0.057,1.176-0.057l-0.041,0.039c0.012,0,0.023,0,0.041,0
				c-0.041,1.205,0.119,2.408,0.492,3.553c0.504,1.529,1.365,2.916,2.492,4.002c0.023,0.021,0.051,0.031,0.082,0.031
				c0.025,0,0.051-0.006,0.07-0.023c0.049-0.037,0.057-0.102,0.029-0.152c-1.637-2.668-2.223-5.922-1.604-8.934
				c0.596-2.99,2.402-5.756,4.961-7.596c0.047-0.033,0.062-0.096,0.035-0.148c-0.029-0.051-0.086-0.078-0.148-0.055
				c-1.455,0.561-2.789,1.496-3.852,2.713c-1.178,1.338-2.023,3.041-2.379,4.809c-0.102,0.494-0.158,0.992-0.18,1.496
				c-1.973-0.307-4.078-0.057-5.932,0.705c-1.834-1.436-3.461-3.203-4.695-5.168c-1.432-2.271-2.4-4.846-2.803-7.445
				c-0.441-2.766-0.277-5.643,0.465-8.32c0.758-2.785,2.174-5.418,4.088-7.621c2.414-2.775,5.67-4.875,9.16-5.914
				c1.828-0.543,3.727-0.818,5.652-0.818c1.604,0,3.184,0.189,4.713,0.562l0,0l0.006,0.006c0.072,0.018,0.146,0.021,0.221,0.006
				c2.934,0.742,5.711,2.176,8.037,4.15c-0.213,0.195-0.432,0.381-0.635,0.592c-1.445,1.506-2.578,3.346-3.273,5.324
				c-0.617,1.764-0.891,3.658-0.785,5.473c0.004,0.061,0.051,0.105,0.111,0.111c0.002,0,0.002,0,0.006,0
				c0.059,0,0.107-0.043,0.117-0.1c0.596-3.719,2.314-7.207,4.85-9.836c2.498-2.631,5.912-4.496,9.617-5.262
				c0.057-0.012,0.1-0.064,0.09-0.125c-0.004-0.059-0.051-0.104-0.113-0.104c-1.807-0.031-3.703,0.326-5.432,1.016
				c-1.607,0.635-3.098,1.586-4.393,2.754c-0.002-0.006-0.002-0.012-0.004-0.018c-2.225-2.195-4.988-3.846-7.99-4.77
				c-0.018-0.012-0.037-0.016-0.051-0.027c0.867-2.396,2.406-4.525,4.385-6.016c2.01-1.527,4.51-2.424,7.082-2.555
				c-0.258,1.598-0.342,3.229-0.252,4.854c0.002,0.062,0.057,0.111,0.119,0.111l0,0c0.062-0.004,0.115-0.055,0.115-0.117
				c0.023-1.6,0.211-3.193,0.553-4.734c0.051-0.045,0.094-0.107,0.107-0.188c0.988-4.389,3.352-8.49,6.652-11.557
				c3.553-3.34,8.166-5.438,12.988-5.916c0.762-0.08,1.535-0.117,2.303-0.117c2.316,0,4.594,0.35,6.773,1.041
				c2.781,0.883,5.437,2.344,7.681,4.236c2.141,1.795,3.969,4.033,5.312,6.473c0.645,1.186,1.189,2.426,1.619,3.693
				c0.188,0.541,0.34,1.1,0.482,1.643c0.135,0.51,0.289,1.025,0.459,1.529c-2.941,0.215-5.777,1.371-7.992,3.254
				c-0.047,0.041-0.051,0.111-0.018,0.16c0.039,0.047,0.107,0.064,0.158,0.029c2.361-1.494,5.178-2.326,7.912-2.348l0.205-0.002
				c1.762,0,3.523,0.338,5.172,0.957c0.447,0.184,0.895,0.373,1.324,0.59c0.363,0.178,0.73,0.379,1.088,0.582
				c0.266,0.164,0.533,0.33,0.787,0.51c2.498,1.74,4.43,4.277,5.438,7.143c0.873,2.441,1.076,5.186,0.611,7.783
				c-0.701-0.408-1.416-0.775-2.146-1.094c-2.186-0.951-4.582-1.529-6.932-1.67c-0.057,0-0.109,0.039-0.119,0.102
				c-0.006,0.059,0.027,0.113,0.09,0.131c4.734,1.084,9.209,3.557,12.586,6.961c3.398,3.383,5.855,7.861,6.932,12.602
				c0.006,0.057,0.057,0.092,0.113,0.092c0.006,0,0.012,0,0.018,0c0.057-0.01,0.102-0.062,0.096-0.125
				c-0.129-2.346-0.701-4.742-1.652-6.928c-0.098-0.223-0.199-0.445-0.307-0.668c1.389-1.201,3.02-2.064,4.758-2.498
				c0.889-0.225,1.807-0.338,2.73-0.338c1.207,0,2.385,0.191,3.506,0.57c1.982,0.656,3.795,1.926,5.121,3.568
				c1.115,1.371,1.896,3.023,2.287,4.797c-3.076,0.363-5.998,1.666-8.258,3.686c-0.045,0.041-0.051,0.115-0.012,0.16
				c0,0.004,0.006,0,0.012,0.004c2.639-1.941,5.896-3.1,9.441-3.1c8.768,0,15.889,7.033,15.889,15.713
				c0,2.309-0.521,4.494-1.422,6.471l0.074,0.1l0.096-0.209h1.461l0.471-0.982c0.135-0.34,0.289-0.748,0.412-1.139
				C151.439,124.108,151.525,120.536,150.602,117.257z M128.148,98.431c-0.889-0.652-1.879-1.18-2.922-1.525
				c-1.094-0.367-2.248-0.557-3.426-0.557c-1.219,0-2.453,0.213-3.568,0.609c-1.809,0.633-3.422,1.775-4.6,3.236
				c-1.014-2.064-2.402-4.004-4.051-5.656c-1.258-1.262-2.689-2.367-4.213-3.281c0.877-2.631,0.951-5.549,0.18-8.268
				c-0.43-1.541-1.148-3.016-2.078-4.35c2.561-1.418,5.512-2.203,8.4-2.203c0.191,0,0.373,0.002,0.561,0.008
				c3.676,0.1,7.273,1.426,10.115,3.73c2.873,2.305,4.939,5.531,5.818,9.084C129.111,92.247,129.027,95.474,128.148,98.431z"/>
		</g>
		<g>
			<g>
				<path fill="#ADD3F0" d="M51.54,213.413c0.191-3.692,2.008-11.347,3.465-17.666c-3.531,5.612-7.715,12.342-10.23,15.11v0.006
					c-0.227,0.277-0.422,0.591-0.561,0.939c-0.807,1.943,0.113,4.176,2.059,4.98c1.947,0.803,4.172-0.113,4.982-2.062
					C51.436,214.296,51.52,213.854,51.54,213.413L51.54,213.413z"/>
				<path fill="#FFFFFF" d="M48.038,213.288c0.072-1.474,0.801-4.537,1.381-7.062c-1.41,2.235-3.084,4.934-4.088,6.043l0,0
					c-0.088,0.112-0.168,0.237-0.227,0.381c-0.32,0.774,0.047,1.67,0.826,1.981c0.775,0.328,1.666-0.041,1.99-0.815
					C47.997,213.634,48.028,213.464,48.038,213.288L48.038,213.288z"/>
			</g>
			<g>
				<path fill="#ADD3F0" d="M75.633,245.868c0.186-3.693,2.008-11.347,3.459-17.66c-3.527,5.612-7.707,12.342-10.225,15.11
					l-0.006,0.007c-0.225,0.276-0.418,0.59-0.557,0.938c-0.807,1.943,0.113,4.17,2.061,4.979c1.941,0.812,4.174-0.113,4.98-2.056
					C75.522,246.757,75.616,246.314,75.633,245.868L75.633,245.868z"/>
				<path fill="#FFFFFF" d="M72.125,245.749c0.08-1.479,0.805-4.537,1.395-7.062c-1.42,2.242-3.096,4.934-4.098,6.043l0,0
					c-0.088,0.112-0.168,0.244-0.225,0.375c-0.322,0.774,0.045,1.676,0.822,1.992c0.777,0.323,1.67-0.046,1.992-0.82
					C72.086,246.102,72.122,245.919,72.125,245.749L72.125,245.749z"/>
			</g>
			<g>
				<path fill="#ADD3F0" d="M127.284,213.413c0.191-3.692,2.008-11.347,3.465-17.666c-3.533,5.612-7.713,12.342-10.23,15.11v0.006
					c-0.225,0.277-0.422,0.591-0.561,0.939c-0.809,1.943,0.113,4.176,2.059,4.98c1.947,0.803,4.172-0.113,4.984-2.062
					C127.178,214.296,127.266,213.854,127.284,213.413L127.284,213.413z"/>
				<path fill="#FFFFFF" d="M123.782,213.288c0.074-1.474,0.799-4.537,1.383-7.062c-1.412,2.235-3.086,4.934-4.092,6.043l0,0
					c-0.082,0.112-0.168,0.237-0.225,0.381c-0.322,0.774,0.045,1.67,0.828,1.981c0.773,0.328,1.664-0.041,1.992-0.815
					C123.743,213.634,123.772,213.464,123.782,213.288L123.782,213.288z"/>
			</g>
			<g>
				<path fill="#ADD3F0" d="M151.584,245.868c0.193-3.693,2.018-11.347,3.467-17.66c-3.529,5.612-7.709,12.342-10.221,15.11
					l-0.012,0.007c-0.221,0.276-0.42,0.59-0.555,0.938c-0.808,1.943,0.118,4.17,2.061,4.979c1.941,0.812,4.172-0.113,4.982-2.056
					C151.482,246.757,151.572,246.314,151.584,245.868L151.584,245.868z"/>
				<path fill="#FFFFFF" d="M148.084,245.749c0.074-1.479,0.805-4.537,1.387-7.062c-1.416,2.242-3.084,4.934-4.092,6.043l0,0
					c-0.09,0.112-0.17,0.244-0.227,0.375c-0.316,0.774,0.051,1.676,0.828,1.992c0.781,0.323,1.668-0.046,1.99-0.82
					C148.039,246.102,148.078,245.919,148.084,245.749L148.084,245.749z"/>
			</g>
			<g>
				<path fill="#ADD3F0" d="M203.037,213.413c0.186-3.692,1.998-11.347,3.461-17.666c-3.529,5.612-7.715,12.342-10.236,15.11v0.006
					c-0.221,0.277-0.418,0.591-0.561,0.939c-0.805,1.943,0.113,4.176,2.062,4.98c1.946,0.803,4.174-0.113,4.983-2.062
					C202.924,214.296,203.014,213.854,203.037,213.413L203.037,213.413z"/>
				<path fill="#FFFFFF" d="M199.531,213.288c0.072-1.474,0.799-4.537,1.381-7.062c-1.41,2.235-3.086,4.934-4.09,6.043l0,0
					c-0.084,0.112-0.17,0.237-0.227,0.381c-0.322,0.774,0.047,1.67,0.827,1.981c0.775,0.328,1.664-0.041,1.994-0.815
					C199.49,213.634,199.52,213.464,199.531,213.288L199.531,213.288z"/>
			</g>
			<g>
				<path fill="#ADD3F0" d="M227.539,245.868c0.193-3.693,2.012-11.347,3.467-17.66c-3.529,5.612-7.715,12.342-10.229,15.11
					l-0.006,0.007c-0.222,0.276-0.414,0.59-0.558,0.938c-0.803,1.943,0.119,4.17,2.062,4.979c1.943,0.812,4.175-0.113,4.979-2.056
					C227.438,246.757,227.527,246.314,227.539,245.868L227.539,245.868z"/>
				<path fill="#FFFFFF" d="M224.039,245.749c0.074-1.479,0.805-4.537,1.387-7.062c-1.416,2.242-3.086,4.934-4.094,6.043l0,0
					c-0.092,0.112-0.164,0.244-0.221,0.375c-0.324,0.774,0.045,1.676,0.82,1.992c0.78,0.323,1.672-0.046,1.987-0.82
					C223.994,246.102,224.033,245.919,224.039,245.749L224.039,245.749z"/>
			</g>
			<g>
				<g>
					<path fill="#FFFFFF" d="M187.518,118.161c0.209,0.113,0.431,0.209,0.64,0.322c0.006-0.039,0.012-0.08,0.012-0.119
						C187.959,118.296,187.738,118.229,187.518,118.161z"/>
				</g>
				<g>
					<path fill="#FFFFFF" d="M170.484,114.501c4.928,0,9.658,0.816,14.076,2.307c-4.021-1.627-8.416-2.527-13.027-2.527
						c-1.943,0-3.84,0.164-5.688,0.471C167.365,114.593,168.916,114.501,170.484,114.501z"/>
				</g>
				<path fill="#FFFFFF" d="M272.059,166.532c-1.776-6.4-6.016-12.121-11.604-15.695c-4.884-3.166-10.994-4.713-16.854-4.241
					c-0.218-3.173-1.298-6.339-3.064-8.994c-1.037-1.564-2.322-2.98-3.84-4.222c2.104-5.166,2.678-11.021,1.606-16.557
					c-1.278-6.83-5.172-13.275-10.67-17.672c-5.207-4.23-12.024-6.648-18.721-6.648c-0.277,0-0.562,0-0.826,0.012
					c-5.558,0.117-11.097,1.891-15.685,5.006c-1.639-2.129-3.553-3.947-5.676-5.426c-1.094-0.77-2.295-1.479-3.67-2.146
					c-0.098-0.051-0.199-0.096-0.307-0.137l-0.182-0.072c-0.453-0.211-0.912-0.402-1.381-0.584
					c-0.183-0.068-0.369-0.131-0.545-0.193c-3.166-1.145-6.451-1.693-9.668-1.529c-0.152-0.611-0.302-1.279-0.453-2.066
					c-0.199-1.008-0.402-2.051-0.697-3.088c-0.629-2.344-1.49-4.656-2.555-6.859c-2.222-4.598-5.414-8.857-9.248-12.312
					c-4.058-3.666-8.935-6.514-14.121-8.248c-5.411-1.818-11.247-2.463-16.993-1.875c-8.973,0.885-17.783,5.031-24.172,11.375
					c-5.732,5.623-9.691,12.977-11.195,20.775c-0.994-0.199-1.965-0.295-2.947-0.295c-3.869,0-7.682,1.291-10.73,3.625
					c-2.232,1.676-4.07,3.896-5.324,6.43c-0.824,1.664-1.369,3.512-1.605,5.391c-5.943-1.535-12.303-1.467-18.193,0.154
					c-6.684,1.818-12.893,5.727-17.469,11.01c-3.646,4.18-6.293,9.205-7.646,14.523c-1.309,5.086-1.469,10.506-0.465,15.667
					c0.928,4.832,2.936,9.521,5.807,13.571c2.141,3.013,4.832,5.742,7.824,7.951c-3.332,1.502-6.182,4-8.086,7.099
					c-2.508,3.991-3.367,8.948-2.361,13.594c0.111,0.51,0.23,0.969,0.359,1.397l0.043,0.154c0.051,0.17,0.102,0.334,0.244,0.729
					l0.238,0.68c0.031,0.078,0.135,0.316,0.438,0.48l0.168,0.096H61.67h26.678h126.113h2.346h52.799l0.986-2.026l0.391-0.89
					c0.222-0.549,0.478-1.194,0.697-1.863C273.4,177.484,273.531,171.771,272.059,166.532z"/>
				<g>
					<path fill="#ADD3F0" d="M236.523,122.981c-0.062-0.092-0.131-0.182-0.205-0.256c0.057-0.486,0.08-0.969,0.102-1.449
						c-0.033-0.277-0.078-0.545-0.119-0.816c-0.051-0.385-0.096-0.77-0.17-1.154c-0.113-0.652-0.254-1.299-0.412-1.938
						c-1.518-6.162-5.098-11.76-10.076-15.752c-4.945-4.004-11.176-6.299-17.553-6.469c-0.318-0.012-0.641-0.018-0.963-0.018
						c-5.008,0-10.129,1.359-14.568,3.824c1.619,2.311,2.859,4.871,3.603,7.545c1.338,4.707,1.213,9.77-0.312,14.33
						c2.646,1.586,5.125,3.506,7.308,5.697c2.854,2.861,5.256,6.219,7.028,9.799c2.039-2.531,4.824-4.508,7.963-5.613
						c1.933-0.691,4.078-1.053,6.197-1.053c2.039,0,4.037,0.328,5.937,0.969c1.801,0.6,3.522,1.512,5.073,2.639
						c0.232-0.774,0.42-1.562,0.584-2.361c0.027-0.137,0.058-0.271,0.078-0.413C236.494,128.028,236.658,125.489,236.523,122.981z
						 M228.367,125.411c-14.246-0.465-25.715-11.76-26.48-25.92c2.316-0.928,4.832-1.443,7.478-1.443
						c11.209,0,20.288,9.084,20.288,20.289C229.652,120.829,229.188,123.202,228.367,125.411z"/>
					<path fill="#ADD3F0" d="M29.606,139.734c-0.018-0.125-0.025-0.25-0.033-0.375c-0.006-0.01-0.006-0.016-0.006-0.021
						C29.579,139.471,29.588,139.604,29.606,139.734z"/>
					<path fill="#ADD3F0" d="M188.469,114.876c0,0.865-0.074,1.705-0.182,2.543l0.006,0.006c1.15,0.361,2.283,0.77,3.375,1.246
						c1.27,0.549,2.516,1.195,3.729,1.896c0.804-4.502,0.447-9.26-1.061-13.492c-1.744-4.967-5.098-9.367-9.424-12.387
						c-0.447-0.311-0.906-0.6-1.371-0.883c-0.623-0.357-1.246-0.703-1.881-1.014c-0.754-0.369-1.529-0.703-2.305-1.02
						c-2.855-1.07-5.908-1.66-8.974-1.66l-0.353,0.006c-4.745,0.033-9.616,1.479-13.717,4.066c0.424-0.266,0.871-0.498,1.31-0.736
						c2.491-0.93,5.164-1.455,7.963-1.455C178.229,91.993,188.469,102.233,188.469,114.876z"/>
					<path fill="#ADD3F0" d="M166.73,88.679c0.112-0.021,0.215-0.033,0.321-0.062c0.951-0.186,1.908-0.334,2.878-0.402
						c-0.3-0.871-0.562-1.766-0.8-2.65c-0.241-0.939-0.504-1.908-0.838-2.844c-0.742-2.203-1.688-4.355-2.81-6.404
						c-2.315-4.232-5.5-8.111-9.211-11.232c-3.885-3.273-8.496-5.816-13.319-7.346c-3.779-1.195-7.73-1.803-11.74-1.803
						c-1.328,0-2.674,0.068-3.992,0.205c-8.367,0.826-16.363,4.469-22.521,10.252c-5.727,5.318-9.824,12.438-11.531,20.045
						c-0.031,0.141-0.1,0.248-0.193,0.328c-0.588,2.674-0.912,5.438-0.957,8.213c0,0.107-0.09,0.199-0.201,0.199
						c-0.109,0-0.195-0.086-0.201-0.193c-0.16-2.814-0.01-5.646,0.432-8.416c-4.455,0.227-8.793,1.777-12.275,4.428
						c-3.434,2.584-6.105,6.271-7.609,10.434c0.029,0.018,0.066,0.023,0.088,0.045c0.709,0.646,2.635,0.918,3.557,1.32
						c1.246,0.539,2.459,1.156,3.631,1.842c2.408,1.404,4.666,3.109,6.633,5.08c1.559-0.709,2.848-2.248,4.463-3.059
						c4.012-2.018,8.021-3.428,12.672-3.398c0.033-0.029,0.072-0.045,0.107-0.074c-0.219-0.674-0.566-2.492-0.58-2.57
						c-0.135-0.664-0.248-1.332-0.338-2c-0.182-1.365-0.271-2.742-0.271-4.117c0-17.18,13.928-31.102,31.102-31.102
						c15.458,0,28.25,11.287,30.656,26.064C164.811,89.144,165.768,88.89,166.73,88.679z"/>
					<path fill="#ADD3F0" d="M139.936,150.234c-1.104,0-2.189,0.058-3.262,0.16c-0.018-0.408-0.035-0.811-0.035-1.219
						c0-4.254,0.777-8.32,2.17-12.092c2.927-8.559,8.658-15.174,15.902-19.275c-0.221,0.09-0.43,0.193-0.652,0.283l0.488-0.221
						c0,0-6.707,1.195-14.429,7.381c-1.229,0.984-2.48,2.096-3.74,3.346c-0.055,0.057-0.111,0.113-0.17,0.176
						c-0.617,0.617-1.232,1.264-1.85,1.955c-0.006,0.006-0.012,0.013-0.018,0.021c-0.58,0.652-1.16,1.344-1.736,2.068
						c-0.088,0.106-0.178,0.215-0.264,0.328c-0.572,0.719-1.133,1.473-1.688,2.26c-0.09,0.137-0.182,0.271-0.277,0.408
						c-0.504,0.729-1.002,1.49-1.496,2.271c-0.072,0.125-0.146,0.231-0.221,0.356c-0.525,0.855-1.039,1.757-1.545,2.679
						c-0.113,0.211-0.221,0.426-0.338,0.641c-0.512,0.964-1.016,1.955-1.5,2.996c-0.219,0.106-0.432,0.228-0.648,0.322
						c-2.807,1.246-5.863,1.887-8.936,1.887c-0.678,0-1.346-0.039-2.02-0.096c0,0,0-0.006-0.006-0.006
						c-4.662-0.421-8.91-2.289-12.291-5.148c-0.027-0.018-0.062-0.045-0.096-0.062c-5.365-4.379-8.785-11.033-8.785-18.494
						c0-7.816,3.771-14.73,9.58-19.088c0.457-0.117,0.812-0.248,0.932-0.391c-0.037,0.006-0.072,0.018-0.113,0.029
						c-2.338,0.504-4.609,1.258-6.762,2.242c-0.004,0-0.016,0.006-0.018,0.012c-0.719,0.328-1.43,0.686-2.119,1.064
						c-0.062,0.035-0.123,0.074-0.186,0.113c-0.629,0.352-1.252,0.715-1.855,1.105c-0.156,0.102-0.303,0.215-0.457,0.322
						c-0.504,0.34-1.002,0.68-1.48,1.043c-0.275,0.215-0.527,0.441-0.789,0.656c-0.346,0.283-0.701,0.555-1.025,0.85
						c-0.59,0.527-1.156,1.076-1.693,1.643c-4.385,4.555-7.369,10.609-8.406,17.055c-0.018,0.096-0.102,0.17-0.199,0.17
						c-0.113-0.006-0.197-0.09-0.203-0.193c-0.182-3.148,0.289-6.434,1.365-9.492c1.207-3.428,3.17-6.615,5.682-9.227
						c0.342-0.369,0.721-0.691,1.086-1.031c-3.018-2.566-6.484-4.605-10.172-6.01c-1.229-0.471-2.48-0.867-3.756-1.189
						c-0.123,0.029-0.262,0.029-0.387-0.006c-0.441-0.006-0.947-0.182-1.402-0.299c-0.006,0-0.014-0.006-0.023-0.006
						c-0.736-0.148-1.48-0.273-2.225-0.375c-0.006,0-0.012,0-0.012,0c-0.447-0.051-0.867-0.051-1.309-0.051
						c-0.199,0-0.379-0.068-0.555-0.141c-0.885-0.068-1.766-0.113-2.656-0.113c-3.336,0-6.633,0.475-9.793,1.422
						c-6.066,1.801-11.709,5.438-15.889,10.252c-3.318,3.816-5.773,8.387-7.098,13.213c-0.318,1.156-0.572,2.322-0.77,3.512
						c-0.096,0.606-0.137,1.22-0.201,1.83c-0.062,0.578-0.156,1.155-0.188,1.737c-0.047,0.812-0.025,1.632-0.014,2.447
						c0,0.385-0.023,0.767-0.006,1.15c0.029,0.645,0.125,1.291,0.193,1.941c0.045,0.25,0.096,0.5,0.152,0.748
						c-0.012,0.256-0.006,0.51,0,0.766c0.012,0.102,0.012,0.197,0.029,0.299c0.693,4.504,2.379,8.973,4.859,12.91
						c2.146,3.408,4.961,6.467,8.145,8.959c3.215-1.318,6.865-1.756,10.279-1.229c0.047-0.867,0.148-1.728,0.318-2.588
						c0.617-3.064,2.082-6.027,4.129-8.332c1.84-2.113,4.152-3.738,6.682-4.707c0.098-0.039,0.199,0,0.248,0.09
						c0.049,0.092,0.025,0.199-0.059,0.262c-4.436,3.188-7.574,7.986-8.602,13.174c-1.07,5.217-0.059,10.863,2.777,15.486
						c0.053,0.084,0.035,0.197-0.045,0.26c-0.037,0.035-0.078,0.045-0.127,0.045c-0.051,0-0.1-0.016-0.139-0.057
						c-1.959-1.879-3.455-4.281-4.328-6.933c-0.65-1.987-0.916-4.077-0.859-6.161c-0.021,0-0.035,0.004-0.057,0.004l0.057-0.066
						c0,0-0.783-0.018-2.029,0.09c-1.041,0.062-2.066,0.209-3.074,0.43c-5.914,1.139-14.846,4.758-14.812,16.252
						c-0.068,1.381,0.029,2.775,0.326,4.129c0.037,0.176,0.088,0.402,0.156,0.662c0.072,0.271,0.164,0.527,0.266,0.76l52.693,1.892
						c-0.256-1.265-0.426-2.556-0.426-3.892c0-11.051,8.961-20.012,20.012-20.012c6.938,0,13.053,3.541,16.645,8.91
						c4.164-10.529,14.412-17.994,26.421-17.994c1.682,0,3.318,0.174,4.922,0.457c0.375-0.135,0.754-0.229,1.121-0.35
						C150.594,151.454,145.414,150.234,139.936,150.234z M150.094,119.86l0.76-0.34c-0.396,0.191-0.77,0.408-1.16,0.617
						L150.094,119.86z M53.27,145.864c-7.629-2.861-13.074-10.201-13.074-18.84c0-11.117,9.018-20.135,20.133-20.135
						c6.299,0,11.916,2.889,15.607,7.414c-5.441,6.088-9.139,13.734-10.441,22.179C60.684,138.573,56.502,141.818,53.27,145.864z
						 M67.768,146.609c-0.057-0.016-0.119-0.016-0.178-0.026c0.115-0.086,0.242-0.164,0.361-0.25
						C67.889,146.425,67.827,146.521,67.768,146.609z M69.208,167.852c-3.793-6.711-3.232-14.828,3.33-21.205
						c2.137-2.074,4.742-2.89,7.328-2.662c2.189,3.795,5.277,6.932,8.918,9.526C80.096,154.665,72.805,160.21,69.208,167.852z"/>
					<path fill="#ADD3F0" d="M203.857,162.062c7.676,2.601,14.205,7.674,18.629,14.283c-0.232-1.24-0.351-2.52-0.351-3.822
						c0-11.504,9.316-20.825,20.826-20.825c11.486,0,20.82,9.321,20.82,20.825c0,4.685-1.574,8.988-4.191,12.474
						c0.896-0.035,1.798-0.062,2.697-0.099c0.562-0.016,1.121-0.039,1.682-0.057l0.662-0.021c0.312-0.012,0.703-0.062,1.07-0.034
						l1.926-0.065l0.578-1.378c0.164-0.426,0.353-0.936,0.517-1.454c0-0.007,0-0.013,0-0.023c0.057-0.391,0.215-0.787,0.34-1.184
						c0.045-0.177,0.102-0.347,0.146-0.521c0.073-0.328,0.144-0.656,0.211-0.984c0.058-0.268,0.106-0.533,0.158-0.805
						c0.057-0.334,0.096-0.68,0.137-1.02c0.039-0.271,0.078-0.545,0.106-0.816c0.027-0.346,0.045-0.697,0.062-1.047
						c0.01-0.262,0.033-0.521,0.039-0.787c0.006-0.363-0.006-0.732-0.018-1.1c-0.006-0.25,0-0.498-0.012-0.754
						c-0.017-0.367-0.062-0.736-0.097-1.104c-0.026-0.244-0.033-0.494-0.067-0.736c-0.052-0.396-0.119-0.786-0.187-1.174
						c-0.041-0.222-0.067-0.437-0.108-0.649c-0.117-0.601-0.267-1.201-0.431-1.789c-1.574-5.66-5.278-10.791-10.185-14.076
						c-0.668-0.447-1.354-0.867-2.062-1.246c-0.176-0.096-0.354-0.182-0.537-0.271c-0.532-0.277-1.088-0.539-1.647-0.781
						c-0.176-0.074-0.357-0.147-0.533-0.221c-0.713-0.279-1.428-0.539-2.158-0.76c-1.148-0.34-2.322-0.605-3.512-0.781
						c-2.412-0.363-4.893-0.555-7.328-0.262c-1.133,0.143-2.26,0.357-3.371,0.641c-1.127,0.289-2.23,0.652-3.312,1.088
						c-2.158,0.867-4.215,2.021-6.065,3.426c-0.086,0.068-0.209,0.052-0.276-0.026c-0.074-0.086-0.062-0.209,0.016-0.283
						c3.92-3.5,8.99-5.756,14.32-6.383c-0.681-3.082-2.033-5.946-3.972-8.326c-2.295-2.844-5.438-5.041-8.871-6.186
						c-1.94-0.658-3.985-0.986-6.082-0.986c-1.604,0-3.188,0.192-4.729,0.584c-3.014,0.754-5.85,2.248-8.252,4.332
						c0.182,0.388,0.363,0.771,0.527,1.162c1.647,3.783,2.639,7.94,2.864,12.015c0.013,0.102-0.067,0.196-0.17,0.215
						c-0.006,0-0.006-0.013-0.013-0.013c-0.006,0.007-0.012,0.013-0.016,0.013c-0.092,0-0.176-0.062-0.193-0.158
						c-1.868-8.226-6.135-15.984-12.024-21.857c-0.674-0.68-1.375-1.338-2.106-1.973c-0.392-0.35-0.804-0.68-1.211-1.008
						c-0.312-0.254-0.617-0.51-0.937-0.752c-0.572-0.443-1.153-0.861-1.75-1.275c-0.135-0.096-0.276-0.197-0.412-0.289
						c-0.709-0.48-1.435-0.945-2.164-1.381l-0.006-0.006c8.265,6.383,13.595,16.37,13.595,27.612c0,4.565-0.886,8.922-2.476,12.913
						C203.926,162.079,203.893,162.073,203.857,162.062z M222.578,133.663c7.221,0,13.09,5.789,13.23,12.978
						c-0.996,0.209-2.021,0.327-3.076,0.327c-7.396,0-13.502-5.438-14.596-12.522C219.531,133.945,221.02,133.663,222.578,133.663z"
						/>
				</g>
				<path fill="#231F20" d="M272.059,166.532c-1.776-6.4-6.016-12.121-11.604-15.695c-4.884-3.166-10.994-4.713-16.854-4.241
					c-0.218-3.173-1.298-6.339-3.064-8.994c-1.037-1.564-2.322-2.98-3.84-4.222c2.104-5.166,2.678-11.021,1.606-16.557
					c-1.278-6.83-5.172-13.275-10.67-17.672c-5.207-4.23-12.024-6.648-18.721-6.648c-0.277,0-0.562,0-0.826,0.012
					c-5.558,0.117-11.097,1.891-15.685,5.006c-1.639-2.129-3.553-3.947-5.676-5.426c-1.094-0.77-2.295-1.479-3.67-2.146
					c-0.098-0.051-0.199-0.096-0.307-0.137l-0.182-0.072c-0.453-0.211-0.912-0.402-1.381-0.584
					c-0.183-0.068-0.369-0.131-0.545-0.193c-3.166-1.145-6.451-1.693-9.668-1.529c-0.152-0.611-0.302-1.279-0.453-2.066
					c-0.199-1.008-0.402-2.051-0.697-3.088c-0.629-2.344-1.49-4.656-2.555-6.859c-2.222-4.598-5.414-8.857-9.248-12.312
					c-4.058-3.666-8.935-6.514-14.121-8.248c-5.411-1.818-11.247-2.463-16.993-1.875c-8.973,0.885-17.783,5.031-24.172,11.375
					c-5.732,5.623-9.691,12.977-11.195,20.775c-0.994-0.199-1.965-0.295-2.947-0.295c-3.869,0-7.682,1.291-10.73,3.625
					c-2.232,1.676-4.07,3.896-5.324,6.43c-0.824,1.664-1.369,3.512-1.605,5.391c-5.943-1.535-12.303-1.467-18.193,0.154
					c-6.684,1.818-12.893,5.727-17.469,11.01c-3.646,4.18-6.293,9.205-7.646,14.523c-1.309,5.086-1.469,10.506-0.465,15.667
					c0.928,4.832,2.936,9.521,5.807,13.571c2.141,3.013,4.832,5.742,7.824,7.951c-3.332,1.502-6.182,4-8.086,7.099
					c-2.508,3.991-3.367,8.948-2.361,13.594c0.111,0.51,0.23,0.969,0.359,1.397l0.043,0.154c0.051,0.17,0.102,0.334,0.244,0.729
					l0.238,0.68c0.031,0.078,0.135,0.316,0.438,0.48l0.168,0.096H88.35l-0.26-0.729h-0.777c-0.027-0.072-0.084-0.136-0.166-0.136
					l-53.279-1.914c-0.102-0.231-0.193-0.487-0.266-0.76c-0.068-0.26-0.119-0.485-0.156-0.662c-0.297-1.354-0.395-2.748-0.326-4.129
					c-0.033-11.494,8.898-15.112,14.812-16.252c1.008-0.221,2.033-0.367,3.074-0.43c1.246-0.107,2.029-0.09,2.029-0.09
					s-0.057,0.066,0,0.062c-0.057,2.084,0.209,4.174,0.859,6.162c0.873,2.649,2.369,5.053,4.328,6.932
					c0.039,0.041,0.088,0.057,0.139,0.057c0.049,0,0.09-0.01,0.127-0.045c0.08-0.062,0.098-0.176,0.045-0.26
					c-2.836-4.623-3.848-10.27-2.777-15.486c1.027-5.188,4.166-9.986,8.602-13.174c0.084-0.062,0.107-0.17,0.059-0.262
					c-0.049-0.09-0.15-0.129-0.248-0.09c-2.529,0.969-4.842,2.594-6.682,4.707c-2.047,2.305-3.512,5.268-4.129,8.332
					c-0.17,0.86-0.271,1.721-0.318,2.588c-3.414-0.527-7.064-0.09-10.279,1.229c-3.184-2.492-5.998-5.551-8.145-8.959
					c-2.48-3.938-4.166-8.406-4.859-12.91c-0.76-4.797-0.479-9.781,0.803-14.432c1.324-4.826,3.779-9.396,7.098-13.213
					c4.18-4.814,9.822-8.451,15.889-10.252c3.16-0.947,6.457-1.422,9.793-1.422c2.775,0,5.521,0.328,8.182,0.984
					c0.125,0.035,0.264,0.035,0.387,0.006c5.084,1.291,9.902,3.777,13.932,7.199c-0.369,0.34-0.748,0.662-1.09,1.031
					c-2.512,2.611-4.475,5.799-5.682,9.227c-1.076,3.059-1.547,6.344-1.365,9.492c0.006,0.104,0.09,0.188,0.203,0.193
					c0.098,0,0.182-0.074,0.199-0.17c1.037-6.445,4.021-12.5,8.406-17.055c4.338-4.564,10.262-7.805,16.684-9.125
					c0.102-0.021,0.166-0.113,0.16-0.221c-0.008-0.102-0.094-0.182-0.197-0.182c-3.133-0.051-6.424,0.566-9.426,1.768
					c-2.781,1.1-5.367,2.748-7.623,4.74c-3.852-3.805-8.641-6.666-13.855-8.27c-0.021-0.021-0.059-0.027-0.088-0.045
					c1.504-4.162,4.176-7.85,7.609-10.434c3.482-2.65,7.82-4.201,12.275-4.428c-0.441,2.77-0.592,5.602-0.432,8.416
					c0.006,0.107,0.092,0.193,0.201,0.193c0.111,0,0.201-0.092,0.201-0.199c0.045-2.775,0.369-5.539,0.957-8.213
					c0.094-0.08,0.162-0.188,0.193-0.328c1.707-7.607,5.805-14.727,11.531-20.045c6.158-5.783,14.154-9.426,22.521-10.252
					c1.318-0.137,2.664-0.205,3.992-0.205c4.01,0,7.961,0.607,11.74,1.803c4.824,1.529,9.436,4.072,13.32,7.346
					c3.711,3.121,6.895,7,9.211,11.232c1.121,2.049,2.065,4.201,2.809,6.404c0.334,0.936,0.596,1.904,0.838,2.844
					c0.238,0.885,0.5,1.779,0.799,2.65c-5.098,0.375-10.014,2.379-13.859,5.648c-0.079,0.068-0.09,0.186-0.028,0.271
					c0.062,0.084,0.183,0.107,0.272,0.051c4.101-2.588,8.972-4.033,13.718-4.066l0.352-0.006c3.064,0,6.117,0.59,8.974,1.66
					c0.774,0.316,1.551,0.65,2.305,1.02c0.635,0.311,1.258,0.656,1.881,1.014c0.465,0.283,0.924,0.572,1.371,0.883
					c4.326,3.02,7.68,7.42,9.424,12.387c1.508,4.232,1.863,8.99,1.061,13.492c-1.213-0.701-2.459-1.348-3.729-1.896
					c-3.789-1.648-7.939-2.65-12.012-2.895c-0.104,0-0.199,0.068-0.217,0.176c-0.01,0.102,0.057,0.203,0.164,0.227
					c8.213,1.881,15.963,6.168,21.817,12.07c5.892,5.873,10.156,13.633,12.025,21.856c0.018,0.097,0.102,0.158,0.221,0.158
					c0.103-0.018,0.183-0.113,0.17-0.215c-0.228-4.072-1.217-8.23-2.864-12.014c-0.164-0.391-0.347-0.775-0.527-1.162
					c2.402-2.084,5.238-3.578,8.252-4.332c1.541-0.391,3.127-0.584,4.73-0.584c2.096,0,4.141,0.328,6.081,0.986
					c3.435,1.145,6.576,3.342,8.871,6.186c1.938,2.379,3.291,5.244,3.972,8.326c-5.33,0.627-10.4,2.883-14.32,6.383
					c-0.078,0.074-0.09,0.197-0.016,0.283c0.067,0.078,0.19,0.096,0.276,0.027c3.688-2.803,8.149-4.594,12.75-5.154
					c2.437-0.293,4.916-0.102,7.328,0.262c2.334,0.352,4.623,1.02,6.771,1.998c1.284,0.578,2.52,1.27,3.682,2.062
					c4.904,3.285,8.609,8.416,10.184,14.076c1.303,4.639,1.229,9.707-0.215,14.276c-0.182,0.597-0.391,1.187-0.584,1.672
					l-0.578,1.377l-51.961,1.802c-0.086,0.006-0.148,0.067-0.176,0.141h-0.771l-0.26,0.73h55.145l0.986-2.027l0.391-0.889
					c0.222-0.55,0.478-1.195,0.697-1.863C273.4,177.484,273.531,171.771,272.059,166.532z M230.281,130.628
					c-1.898-0.641-3.896-0.969-5.936-0.969c-2.119,0-4.267,0.361-6.197,1.053c-3.14,1.104-5.924,3.082-7.963,5.613
					c-1.773-3.58-4.177-6.938-7.029-9.799c-2.182-2.191-4.662-4.111-7.307-5.697c1.522-4.561,1.647-9.623,0.311-14.33
					c-0.742-2.674-1.982-5.234-3.602-7.545c4.438-2.465,9.561-3.824,14.567-3.824c0.321,0,0.646,0.006,0.963,0.018
					c6.377,0.17,12.606,2.465,17.554,6.469c4.979,3.992,8.559,9.59,10.075,15.752c1.304,5.176,1.154,10.773-0.362,15.898
					C233.805,132.141,232.082,131.229,230.281,130.628z"/>
			</g>
			<g>
				<path fill="#ADD3F0" d="M185.668,255.536c-1.062,0-2.146-0.197-3.191-0.634c-4.242-1.762-6.256-6.639-4.492-10.887l6.39-15.373
					c1.76-4.248,6.633-6.264,10.881-4.496c4.242,1.767,6.261,6.638,4.492,10.879l-6.388,15.379
					C192.031,253.604,188.934,255.536,185.668,255.536z"/>
				<g>
					<path fill="#231F20" d="M190.131,245.88c0.188-3.653,1.982-11.231,3.416-17.496c-3.486,5.562-7.621,12.234-10.113,14.976
						h-0.006c-0.219,0.272-0.41,0.584-0.549,0.93c-0.799,1.932,0.119,4.135,2.041,4.934c1.924,0.799,4.133-0.113,4.932-2.045
						C190.025,246.751,190.117,246.314,190.131,245.88L190.131,245.88z"/>
					<path fill="#FFFFFF" d="M186.662,245.762c0.078-1.462,0.793-4.498,1.371-6.996c-1.396,2.227-3.053,4.889-4.051,5.981l0,0
						c-0.088,0.119-0.164,0.244-0.217,0.373c-0.32,0.776,0.041,1.659,0.813,1.978c0.769,0.323,1.649-0.046,1.971-0.814
						C186.623,246.111,186.656,245.932,186.662,245.762L186.662,245.762z"/>
				</g>
			</g>
			<g>
				<path fill="#ADD3F0" d="M109.631,255.536c-1.062,0-2.146-0.197-3.191-0.634c-4.242-1.762-6.256-6.639-4.492-10.887l6.389-15.373
					c1.76-4.248,6.633-6.264,10.881-4.496c4.242,1.767,6.26,6.638,4.492,10.879l-6.387,15.379
					C115.995,253.604,112.897,255.536,109.631,255.536z"/>
				<g>
					<path fill="#231F20" d="M114.094,245.88c0.188-3.653,1.982-11.231,3.416-17.496c-3.486,5.562-7.621,12.234-10.113,14.976
						h-0.006c-0.219,0.272-0.41,0.584-0.549,0.93c-0.799,1.932,0.117,4.135,2.041,4.934c1.924,0.799,4.133-0.113,4.93-2.045
						C113.989,246.751,114.081,246.314,114.094,245.88L114.094,245.88z"/>
					<path fill="#FFFFFF" d="M110.625,245.762c0.078-1.462,0.793-4.498,1.371-6.996c-1.396,2.227-3.055,4.889-4.051,5.981l0,0
						c-0.088,0.119-0.164,0.244-0.219,0.373c-0.318,0.776,0.043,1.659,0.816,1.978c0.768,0.323,1.65-0.046,1.971-0.814
						C110.584,246.111,110.62,245.932,110.625,245.762L110.625,245.762z"/>
				</g>
			</g>
			<g>
				<path fill="#ADD3F0" d="M33.594,255.536c-1.062,0-2.146-0.197-3.189-0.634c-4.244-1.762-6.258-6.639-4.498-10.887l6.391-15.373
					c1.762-4.248,6.635-6.264,10.881-4.496c4.244,1.767,6.258,6.638,4.494,10.879l-6.387,15.379
					C39.958,253.604,36.856,255.536,33.594,255.536z"/>
				<g>
					<path fill="#231F20" d="M38.057,245.88c0.188-3.653,1.982-11.231,3.416-17.496c-3.486,5.562-7.621,12.234-10.113,14.976h-0.006
						c-0.219,0.272-0.41,0.584-0.553,0.93c-0.793,1.932,0.121,4.135,2.045,4.934c1.926,0.799,4.129-0.113,4.93-2.045
						C37.952,246.751,38.04,246.314,38.057,245.88L38.057,245.88z"/>
					<path fill="#FFFFFF" d="M34.588,245.762c0.076-1.462,0.795-4.498,1.367-6.996c-1.393,2.227-3.051,4.889-4.047,5.981l0,0
						c-0.088,0.119-0.168,0.244-0.219,0.373c-0.322,0.776,0.043,1.659,0.816,1.978c0.77,0.323,1.65-0.046,1.971-0.814
						C34.545,246.111,34.584,245.932,34.588,245.762L34.588,245.762z"/>
				</g>
			</g>
			<g>
				<path fill="#ADD3F0" d="M87.135,216.659c-1.064,0-2.146-0.205-3.193-0.642c-4.242-1.762-6.26-6.633-4.492-10.881l1.598-3.84
					c1.762-4.248,6.633-6.26,10.881-4.498c4.248,1.762,6.258,6.633,4.496,10.881l-1.596,3.846
					C93.497,214.729,90.399,216.659,87.135,216.659z"/>
				<g>
					<g>
						<path fill="#231F20" d="M90.381,200.21c-1.971,2.09-3.965,3.875-5.783,5.205v0.006c-0.453,0.379-0.82,0.867-1.064,1.451
							c-0.799,1.92,0.119,4.135,2.039,4.933c1.926,0.793,4.135-0.123,4.934-2.043c0.277-0.664,0.34-1.371,0.238-2.035
							C90.426,205.552,90.292,202.964,90.381,200.21z"/>
					</g>
					<g>
						<path fill="#FFFFFF" d="M87.442,204.833c-0.787,0.832-1.586,1.545-2.311,2.078l0,0c-0.182,0.146-0.328,0.346-0.432,0.577
							c-0.316,0.775,0.053,1.658,0.822,1.982c0.77,0.316,1.654-0.057,1.971-0.822c0.113-0.271,0.137-0.543,0.096-0.813
							C87.465,206.962,87.409,205.932,87.442,204.833z"/>
					</g>
				</g>
			</g>
			<g>
				<path fill="#ADD3F0" d="M163.344,216.659c-1.066,0-2.148-0.205-3.189-0.642c-4.247-1.762-6.26-6.633-4.497-10.881l1.598-3.84
					c1.763-4.248,6.64-6.26,10.882-4.498c4.247,1.762,6.258,6.633,4.497,10.881l-1.598,3.846
					C169.703,214.729,166.605,216.659,163.344,216.659z"/>
				<g>
					<g>
						<path fill="#231F20" d="M166.588,200.21c-1.971,2.09-3.965,3.875-5.777,5.205v0.006c-0.459,0.379-0.826,0.867-1.069,1.451
							c-0.793,1.92,0.118,4.135,2.045,4.933c1.926,0.793,4.129-0.123,4.928-2.043c0.277-0.664,0.341-1.371,0.238-2.035
							C166.639,205.552,166.498,202.964,166.588,200.21z"/>
					</g>
					<g>
						<path fill="#FFFFFF" d="M163.654,204.833c-0.793,0.832-1.586,1.545-2.316,2.078l0,0c-0.182,0.146-0.328,0.346-0.426,0.577
							c-0.316,0.775,0.047,1.658,0.816,1.982c0.77,0.316,1.653-0.057,1.971-0.822c0.113-0.271,0.143-0.543,0.098-0.813
							C163.672,206.962,163.615,205.932,163.654,204.833z"/>
					</g>
				</g>
			</g>
			<g>
				<path fill="#ADD3F0" d="M239.553,216.659c-1.064,0-2.146-0.205-3.189-0.642c-4.247-1.762-6.258-6.633-4.495-10.881l1.598-3.84
					c1.761-4.248,6.638-6.26,10.88-4.498c4.247,1.762,6.26,6.633,4.497,10.881l-1.598,3.846
					C245.914,214.729,242.814,216.659,239.553,216.659z"/>
				<g>
					<g>
						<path fill="#231F20" d="M242.799,200.21c-1.971,2.09-3.965,3.875-5.777,5.205v0.006c-0.459,0.379-0.828,0.867-1.069,1.451
							c-0.793,1.92,0.118,4.135,2.045,4.933c1.926,0.793,4.129-0.123,4.928-2.043c0.277-0.664,0.341-1.371,0.236-2.035
							C242.85,205.552,242.707,202.964,242.799,200.21z"/>
					</g>
					<g>
						<path fill="#FFFFFF" d="M239.865,204.833c-0.793,0.832-1.586,1.545-2.318,2.078l0,0c-0.18,0.146-0.328,0.346-0.424,0.577
							c-0.316,0.775,0.045,1.658,0.816,1.982c0.77,0.316,1.651-0.057,1.971-0.822c0.113-0.271,0.141-0.543,0.096-0.813
							C239.881,206.962,239.824,205.932,239.865,204.833z"/>
					</g>
				</g>
			</g>
		</g>
	</g>
</g>
</svg>
