<?xml version="1.0" encoding="utf-8"?>
<!-- Generator: Adobe Illustrator 15.0.2, SVG Export Plug-In . SVG Version: 6.00 Build 0)  -->
<!DOCTYPE svg PUBLIC "-//W3C//DTD SVG 1.1//EN" "http://www.w3.org/Graphics/SVG/1.1/DTD/svg11.dtd">
<svg version="1.1" id="Layer_1" xmlns="http://www.w3.org/2000/svg" xmlns:xlink="http://www.w3.org/1999/xlink" x="0px" y="0px"
	 width="280px" height="260px" viewBox="0 0 280 260" enable-background="new 0 0 280 260" xml:space="preserve">
<g>
	<path fill="#3479BE" d="M34.693,146.866c34.459,1.498,74.74,2.364,117.778,2.364c43.047,0,83.322-0.866,117.777-2.364
		c-34.455-1.498-74.73-2.355-117.777-2.355C109.433,144.511,69.152,145.368,34.693,146.866z"/>
	<path fill="#3479BE" d="M32.214,139.905c35.408,1.495,76.793,2.358,121.021,2.358c44.229,0,85.615-0.863,121.021-2.358
		c-35.406-1.505-76.791-2.361-121.021-2.361C109.007,137.544,67.622,138.4,32.214,139.905z"/>
	<path fill="#3479BE" d="M36.054,132.938c35.326,1.498,76.623,2.359,120.747,2.359c44.139,0,85.434-0.861,120.762-2.359
		c-35.328-1.504-76.623-2.367-120.762-2.367C112.677,130.57,71.38,131.436,36.054,132.938z"/>
	<path fill="#3479BE" d="M20.597,125.976c37.797,1.494,81.967,2.359,129.176,2.359c47.209,0,91.384-0.865,129.179-2.359
		c-37.795-1.502-81.97-2.363-129.179-2.363C102.564,123.612,58.394,124.474,20.597,125.976z"/>
	<path fill="#3479BE" d="M10.924,119.003c38.025,1.506,82.461,2.367,129.957,2.367c47.495,0,91.934-0.861,129.952-2.367
		c-38.021-1.498-82.457-2.357-129.952-2.357C93.385,116.646,48.95,117.505,10.924,119.003z"/>
	<path fill="#3479BE" d="M10.713,112.043c37.402,1.492,81.135,2.359,127.86,2.359c46.729,0,90.452-0.867,127.858-2.359
		c-37.406-1.498-81.134-2.365-127.858-2.365C91.848,109.678,48.116,110.545,10.713,112.043z"/>
	<path fill="#3479BE" d="M4.908,105.077c39.813,1.502,86.359,2.361,136.094,2.361c49.738,0,96.283-0.859,136.094-2.361
		c-39.811-1.498-86.354-2.359-136.094-2.359C91.268,102.717,44.722,103.579,4.908,105.077z"/>
	<path fill="#3479BE" d="M2.143,98.11c38.748,1.498,84.036,2.359,132.432,2.359c48.405,0,93.685-0.861,132.437-2.359
		c-38.752-1.498-84.031-2.365-132.437-2.365C86.179,95.745,40.891,96.612,2.143,98.11z"/>
	<path fill="#3479BE" d="M20.037,91.143c33.574,1.504,72.814,2.367,114.75,2.367c41.941,0,81.178-0.863,114.736-2.367
		c-33.562-1.498-72.795-2.354-114.736-2.354C92.852,88.79,53.612,89.645,20.037,91.143z"/>
	<path fill="#3479BE" d="M20.637,84.184c32.354,1.496,70.178,2.357,110.596,2.357c40.419,0,78.242-0.861,110.58-2.357
		c-32.338-1.506-70.158-2.363-110.58-2.363C90.815,81.821,52.991,82.678,20.637,84.184z"/>
	<path fill="#3479BE" d="M7.288,77.215c35.393,1.498,76.771,2.359,120.984,2.359c44.222,0,85.595-0.861,121-2.359
		c-35.401-1.498-76.774-2.359-121-2.359C84.06,74.856,42.681,75.717,7.288,77.215z"/>
	<path fill="#3479BE" d="M26.243,70.254c30.236,1.496,65.559,2.355,103.316,2.355c37.755,0,73.093-0.859,103.324-2.355
		c-30.229-1.502-65.566-2.365-103.324-2.365C91.801,67.889,56.48,68.752,26.243,70.254z"/>
	<path fill="#3479BE" d="M51.805,63.282c23.217,1.504,50.35,2.367,79.348,2.367c29.004,0,56.137-0.863,79.354-2.367
		c-23.218-1.5-50.351-2.359-79.354-2.359C102.155,60.922,75.022,61.782,51.805,63.282z"/>
	<path fill="#3479BE" d="M56.078,56.321c20.506,1.492,44.475,2.361,70.092,2.361c25.62,0,49.589-0.869,70.102-2.361
		c-20.513-1.498-44.479-2.359-70.102-2.359C100.553,53.961,76.584,54.823,56.078,56.321z"/>
	<path fill="#3479BE" d="M54.969,49.356c19.006,1.498,41.23,2.365,64.973,2.365c23.748,0,45.958-0.867,64.969-2.365
		c-19.011-1.5-41.224-2.357-64.969-2.357C96.2,46.999,73.975,47.856,54.969,49.356z"/>
	<path fill="#3479BE" d="M61.629,42.393c18.033,1.498,39.117,2.355,61.642,2.355c22.534,0,43.614-0.857,61.648-2.355
		c-18.034-1.504-39.114-2.361-61.648-2.361C100.746,40.032,79.662,40.889,61.629,42.393z"/>
	<path fill="#3479BE" d="M77.933,35.426c14.436,1.498,31.307,2.365,49.345,2.365c18.033,0,34.906-0.867,49.34-2.365
		c-14.437-1.498-31.31-2.359-49.34-2.359C109.24,33.067,92.368,33.928,77.933,35.426z"/>
	<path fill="#3479BE" d="M93.066,28.461c9.641,1.502,20.899,2.363,32.937,2.363c12.04,0,23.304-0.861,32.942-2.363
		c-9.639-1.504-20.902-2.361-32.942-2.361C113.965,26.1,102.706,26.958,93.066,28.461z"/>
</g>
<path fill="#FFFFFF" d="M275.491,166.507c-1.776-6.389-6-12.098-11.58-15.664c-4.877-3.159-10.974-4.707-16.828-4.235
	c-0.215-3.166-1.284-6.323-3.056-8.974c-1.032-1.557-2.319-2.979-3.832-4.219c2.104-5.143,2.677-10.988,1.604-16.518
	c-1.271-6.813-5.152-13.243-10.644-17.635c-5.194-4.217-12-6.635-18.677-6.635c-0.283,0-0.562,0.006-0.834,0.018
	c-5.552,0.113-11.071,1.883-15.646,4.992c-1.646-2.121-3.551-3.939-5.666-5.414c-1.097-0.773-2.291-1.477-3.662-2.139
	c-0.104-0.051-0.205-0.096-0.312-0.137l-0.176-0.078c-0.457-0.201-0.914-0.396-1.382-0.582c-0.183-0.064-0.362-0.127-0.54-0.189
	c-3.164-1.139-6.445-1.688-9.652-1.529c-0.149-0.605-0.303-1.273-0.453-2.061c-0.192-1.006-0.396-2.045-0.69-3.082
	c-0.629-2.34-1.489-4.639-2.556-6.84c-2.209-4.596-5.396-8.842-9.223-12.287c-4.045-3.656-8.916-6.502-14.098-8.23
	c-5.398-1.812-11.216-2.459-16.959-1.869c-8.949,0.883-17.74,5.018-24.111,11.352c-5.727,5.607-9.674,12.947-11.17,20.73
	c-0.994-0.199-1.965-0.295-2.945-0.295c-3.863,0-7.666,1.285-10.711,3.615c-2.223,1.67-4.061,3.889-5.309,6.418
	c-0.82,1.656-1.369,3.5-1.602,5.379c-5.936-1.529-12.279-1.461-18.158,0.152c-6.666,1.812-12.861,5.715-17.432,10.977
	c-3.639,4.18-6.275,9.194-7.627,14.5c-1.309,5.076-1.469,10.484-0.459,15.633c0.918,4.819,2.918,9.5,5.789,13.547
	c2.133,3.006,4.818,5.726,7.809,7.931c-3.322,1.5-6.168,3.991-8.068,7.079c-2.504,3.986-3.359,8.938-2.357,13.57
	c0.111,0.51,0.227,0.969,0.357,1.397l0.045,0.151c0.049,0.164,0.102,0.328,0.236,0.722l0.242,0.687
	c0.031,0.078,0.139,0.315,0.438,0.479l0.166,0.099H65.54h26.627h125.845h2.336h52.694l0.979-2.023l0.392-0.896
	c0.217-0.543,0.476-1.188,0.688-1.856C276.831,177.434,276.963,171.734,275.491,166.507z"/>
<path fill="#FFFFFF" d="M191.12,118.235c0.213,0.107,0.437,0.209,0.644,0.322c0.008-0.039,0.012-0.078,0.021-0.119
	C191.561,118.37,191.344,118.304,191.12,118.235z"/>
<path fill="#FFFFFF" d="M174.131,114.581c4.913,0,9.639,0.811,14.047,2.301c-4.021-1.621-8.398-2.522-12.996-2.522
	c-1.938,0-3.84,0.164-5.685,0.471C171.014,114.673,172.564,114.581,174.131,114.581z"/>
<path fill="#231F20" d="M275.491,166.507c-1.776-6.389-6-12.098-11.58-15.664c-4.877-3.159-10.974-4.707-16.828-4.235
	c-0.215-3.166-1.284-6.323-3.056-8.974c-1.032-1.557-2.319-2.979-3.832-4.219c2.104-5.143,2.677-10.988,1.604-16.518
	c-1.271-6.813-5.152-13.243-10.644-17.635c-5.194-4.217-12-6.635-18.677-6.635c-0.283,0-0.562,0.006-0.834,0.018
	c-5.552,0.113-11.071,1.883-15.646,4.992c-1.646-2.121-3.551-3.939-5.666-5.414c-1.097-0.773-2.291-1.477-3.662-2.139
	c-0.104-0.051-0.205-0.096-0.312-0.137l-0.176-0.078c-0.457-0.201-0.914-0.396-1.382-0.582c-0.183-0.064-0.362-0.127-0.54-0.189
	c-3.164-1.139-6.445-1.688-9.652-1.529c-0.149-0.605-0.303-1.273-0.453-2.061c-0.192-1.006-0.396-2.045-0.69-3.082
	c-0.629-2.34-1.489-4.639-2.556-6.84c-2.209-4.596-5.396-8.842-9.223-12.287c-4.045-3.656-8.916-6.502-14.098-8.23
	c-5.398-1.812-11.216-2.459-16.959-1.869c-8.949,0.883-17.74,5.018-24.111,11.352c-5.727,5.607-9.674,12.947-11.17,20.73
	c-0.994-0.199-1.965-0.295-2.945-0.295c-3.863,0-7.666,1.285-10.711,3.615c-2.223,1.67-4.061,3.889-5.309,6.418
	c-0.82,1.656-1.369,3.5-1.602,5.379c-5.936-1.529-12.279-1.461-18.158,0.152c-6.666,1.812-12.861,5.715-17.432,10.977
	c-3.639,4.18-6.275,9.194-7.627,14.5c-1.309,5.076-1.469,10.484-0.459,15.633c0.918,4.819,2.918,9.5,5.789,13.547
	c2.133,3.006,4.818,5.726,7.809,7.931c-3.322,1.5-6.168,3.991-8.068,7.079c-2.504,3.986-3.359,8.938-2.357,13.57
	c0.111,0.51,0.227,0.969,0.357,1.397l0.045,0.151c0.049,0.164,0.102,0.328,0.236,0.722l0.242,0.687
	c0.031,0.078,0.139,0.315,0.438,0.479l0.166,0.099h56.402l-0.268-0.732H91.13c-0.029-0.071-0.092-0.135-0.174-0.135l-53.166-1.914
	c-0.096-0.231-0.189-0.481-0.262-0.754c-0.066-0.261-0.119-0.486-0.156-0.662c-0.295-1.351-0.391-2.742-0.328-4.125
	c-0.029-11.463,8.881-15.076,14.783-16.209c1.008-0.222,2.029-0.375,3.068-0.438c1.24-0.102,2.023-0.084,2.023-0.084l-0.057,0.062
	c0.02,0,0.039,0,0.057,0c-0.057,2.078,0.209,4.162,0.863,6.145c0.867,2.65,2.361,5.041,4.312,6.922
	c0.041,0.039,0.088,0.061,0.143,0.061c0.045,0,0.088-0.016,0.125-0.039c0.084-0.062,0.098-0.176,0.045-0.271
	c-2.832-4.605-3.84-10.236-2.77-15.457c1.025-5.17,4.15-9.965,8.58-13.143c0.08-0.057,0.107-0.17,0.062-0.256
	c-0.045-0.09-0.156-0.129-0.252-0.096c-2.52,0.969-4.832,2.588-6.67,4.695c-2.039,2.311-3.506,5.266-4.117,8.32
	c-0.17,0.854-0.27,1.719-0.316,2.576c-3.41-0.521-7.049-0.09-10.258,1.229c-3.176-2.479-5.984-5.541-8.129-8.942
	c-2.475-3.931-4.152-8.388-4.848-12.89c-0.762-4.778-0.477-9.76,0.799-14.396c1.318-4.809,3.771-9.369,7.088-13.182
	c4.172-4.803,9.801-8.436,15.846-10.23c3.158-0.941,6.445-1.426,9.781-1.426c2.768,0,5.506,0.334,8.15,0.988h0.006h0.006
	c0.125,0.037,0.26,0.037,0.385,0.01c5.076,1.287,9.879,3.771,13.9,7.182c-0.363,0.334-0.742,0.662-1.09,1.021
	c-2.502,2.617-4.461,5.799-5.664,9.221c-1.074,3.053-1.551,6.326-1.363,9.471c0,0.103,0.088,0.188,0.193,0.188c0,0,0.006,0,0.01,0
	c0.1,0,0.182-0.068,0.199-0.17c1.031-6.43,4.014-12.473,8.389-17.022c4.326-4.555,10.24-7.779,16.646-9.1
	c0.1-0.02,0.168-0.113,0.162-0.217c-0.01-0.104-0.098-0.182-0.201-0.182c-3.121-0.051-6.41,0.562-9.4,1.762
	c-2.777,1.098-5.357,2.746-7.598,4.758c-0.004-0.006-0.004-0.018-0.006-0.023c-3.85-3.801-8.633-6.658-13.832-8.258
	c-0.023-0.02-0.057-0.023-0.09-0.045c1.504-4.15,4.168-7.828,7.59-10.412c3.48-2.641,7.811-4.191,12.254-4.418
	c-0.439,2.766-0.592,5.586-0.432,8.4c0.006,0.105,0.094,0.188,0.195,0.188c0.006,0,0.006,0,0.006,0c0.111,0,0.199-0.088,0.199-0.199
	c0.045-2.764,0.367-5.527,0.957-8.189c0.096-0.08,0.158-0.188,0.193-0.328c1.703-7.59,5.793-14.693,11.508-20
	c6.141-5.771,14.121-9.408,22.477-10.234c1.312-0.135,2.652-0.201,3.98-0.201c4.001,0,7.946,0.602,11.711,1.797
	c4.818,1.523,9.42,4.059,13.301,7.33c3.695,3.109,6.867,6.984,9.185,11.209c1.121,2.041,2.063,4.191,2.81,6.389
	c0.328,0.936,0.586,1.904,0.832,2.844c0.235,0.879,0.498,1.768,0.799,2.639c-5.086,0.377-9.995,2.377-13.825,5.637
	c-0.082,0.068-0.097,0.188-0.032,0.271c0.062,0.088,0.184,0.107,0.268,0.051c4.099-2.58,8.961-4.023,13.699-4.061h0.348
	c3.054,0,6.101,0.584,8.949,1.654c0.779,0.312,1.549,0.645,2.301,1.014c0.634,0.311,1.257,0.662,1.88,1.014
	c0.459,0.279,0.922,0.572,1.364,0.883c4.32,3.012,7.664,7.398,9.414,12.357c1.502,4.229,1.854,8.969,1.049,13.461
	c-1.213-0.697-2.452-1.338-3.717-1.887c-3.776-1.648-7.926-2.645-11.987-2.889c-0.104,0-0.197,0.068-0.212,0.17
	c-0.012,0.107,0.052,0.203,0.152,0.232c8.205,1.875,15.938,6.15,21.787,12.041c5.871,5.857,10.129,13.605,11.985,21.809
	c0.021,0.098,0.104,0.164,0.196,0.164c0.013,0,0.02,0,0.026-0.006c0.104-0.018,0.183-0.105,0.17-0.209
	c-0.229-4.064-1.221-8.214-2.854-11.99c-0.168-0.385-0.354-0.771-0.532-1.154c2.396-2.078,5.229-3.574,8.234-4.322
	c1.537-0.391,3.121-0.582,4.72-0.582c2.091,0,4.13,0.334,6.069,0.979c3.427,1.146,6.565,3.344,8.854,6.176
	c1.938,2.379,3.282,5.232,3.953,8.312c-5.312,0.629-10.375,2.877-14.279,6.366c-0.077,0.078-0.09,0.197-0.021,0.283
	c0.006,0.006,0.012,0,0.019,0c4.563-3.354,10.211-5.354,16.334-5.354c15.181,0,27.487,12.168,27.487,27.18
	c0,4-0.895,7.781-2.459,11.203l0.131,0.178l0.979-2.021l0.393-0.896c0.217-0.543,0.477-1.188,0.688-1.855
	C276.831,177.434,276.963,171.734,275.491,166.507z M238.864,133.312c-1.552-1.127-3.263-2.039-5.062-2.644
	c-1.899-0.639-3.893-0.963-5.928-0.963c-2.115,0-4.252,0.363-6.185,1.049c-3.131,1.101-5.907,3.074-7.946,5.604
	c-1.763-3.567-4.164-6.927-7.013-9.78c-2.184-2.188-4.655-4.096-7.295-5.682c1.519-4.555,1.644-9.602,0.312-14.303
	c-0.742-2.664-1.978-5.219-3.597-7.523c4.435-2.461,9.543-3.814,14.541-3.814c0.32,0,0.64,0.004,0.968,0.014
	c6.358,0.166,12.58,2.461,17.508,6.453c4.967,3.988,8.547,9.566,10.062,15.719C240.527,122.614,240.381,128.192,238.864,133.312z"/>
<g>
	<path fill="#ADD3F0" d="M33.458,139.124c0.057,0.617,0.119,1.233,0.209,1.846c-0.078-0.524-0.102-1.059-0.152-1.586
		C33.495,139.3,33.476,139.21,33.458,139.124z"/>
	<path fill="#ADD3F0" d="M199.438,120.897c2.643,1.586,5.113,3.494,7.297,5.682c2.85,2.854,5.25,6.213,7.014,9.78
		c2.039-2.526,4.812-4.504,7.945-5.604c1.934-0.686,4.066-1.049,6.186-1.049c2.035,0,4.025,0.324,5.932,0.963
		c1.799,0.604,3.51,1.517,5.061,2.644c0.98-3.313,1.352-6.813,1.162-10.271c-0.059-0.09-0.125-0.176-0.199-0.256
		c0.053-0.48,0.078-0.967,0.098-1.449c-0.145-1.314-0.375-2.617-0.689-3.896c-1.52-6.153-5.1-11.731-10.062-15.719
		c-4.929-3.992-11.146-6.287-17.509-6.453c-0.328-0.01-0.646-0.014-0.967-0.014c-4.998,0-10.104,1.354-14.541,3.814
		c1.617,2.305,2.854,4.859,3.596,7.523C201.081,111.295,200.956,116.343,199.438,120.897z M208.958,100.563
		c11.188,0,20.25,9.057,20.25,20.243c0,2.488-0.472,4.861-1.291,7.053c-14.211-0.459-25.657-11.725-26.426-25.86
		C203.805,101.079,206.318,100.563,208.958,100.563z"/>
	<path fill="#ADD3F0" d="M197.936,107.17c-1.75-4.959-5.092-9.346-9.412-12.357c-0.441-0.311-0.904-0.604-1.363-0.883
		c-0.623-0.352-1.246-0.703-1.881-1.014c-0.752-0.369-1.521-0.699-2.303-1.014c-2.85-1.07-5.896-1.654-8.947-1.654h-0.35
		c-4.193,0.033-8.447,1.221-12.221,3.273c2.434-0.889,5.047-1.398,7.777-1.398c12.613,0,22.838,10.217,22.838,22.833
		c0,0.865-0.078,1.705-0.182,2.543c1.146,0.361,2.276,0.764,3.375,1.246c1.264,0.549,2.504,1.189,3.717,1.887
		C199.792,116.14,199.438,111.399,197.936,107.17z"/>
	<path fill="#ADD3F0" d="M272.924,187.143c1.561-3.416,2.452-7.199,2.452-11.199c0-15.01-12.31-27.178-27.487-27.178
		c-6.123,0-11.771,2.004-16.334,5.354c-0.006,0-0.013,0.006-0.019,0c-0.067-0.086-0.058-0.205,0.021-0.283
		c3.904-3.492,8.973-5.739,14.279-6.369c-0.084-0.413-0.221-0.805-0.334-1.207c-0.115-0.346-0.191-0.747-0.297-1.062
		c-0.225-0.652-0.49-1.285-0.773-1.904c-0.1-0.215-0.203-0.418-0.311-0.623c-0.211-0.424-0.438-0.832-0.674-1.232
		c-0.125-0.209-0.25-0.424-0.387-0.629c-0.361-0.564-0.75-1.121-1.181-1.646c-2.282-2.832-5.429-5.029-8.854-6.175
		c-1.938-0.646-3.979-0.979-6.068-0.979c-1.6,0-3.184,0.191-4.719,0.582c-3.012,0.748-5.842,2.244-8.235,4.322
		c0.183,0.385,0.364,0.771,0.532,1.154c1.636,3.775,2.625,7.926,2.854,11.99c0.01,0.104-0.066,0.191-0.17,0.209
		c-0.014,0.006-0.02,0.006-0.029,0.006c-0.094,0-0.176-0.066-0.195-0.164c-1.857-8.199-6.114-15.947-11.985-21.809
		c-0.677-0.68-1.381-1.33-2.106-1.965c-0.369-0.328-0.758-0.641-1.144-0.951c-0.347-0.277-0.681-0.566-1.034-0.834
		c-0.552-0.418-1.105-0.82-1.681-1.217c-0.116-0.092-0.241-0.176-0.373-0.262c-0.021-0.016-0.039-0.027-0.062-0.045
		c-0.691-0.469-1.396-0.928-2.127-1.365c-0.008-0.006-0.023-0.016-0.035-0.021c8.234,6.365,13.559,16.324,13.559,27.542
		c0,3.303-0.479,6.491-1.34,9.521c7.639,0.334,14.658,2.963,20.412,7.231c4.352-6.772,11.93-11.271,20.578-11.271
		c13.529,0,24.502,10.967,24.502,24.504c0,2.85-0.514,5.572-1.406,8.121C272.812,187.255,272.864,187.204,272.924,187.143z
		 M218.357,135.958c1.39-0.492,2.869-0.774,4.425-0.774c7.207,0,13.063,5.776,13.202,12.952c-0.991,0.209-2.014,0.322-3.067,0.322
		C225.538,148.458,219.441,143.032,218.357,135.958z"/>
	<path fill="#ADD3F0" d="M159.98,94.309c0.478-0.295,0.985-0.523,1.479-0.787c-0.053,0.018-0.105,0.029-0.163,0.051
		C160.854,93.811,160.409,94.043,159.98,94.309z"/>
	<path fill="#ADD3F0" d="M173.575,88.35c-0.302-0.871-0.562-1.76-0.8-2.639c-0.246-0.939-0.504-1.908-0.832-2.844
		c-0.741-2.197-1.688-4.348-2.81-6.389c-2.313-4.225-5.485-8.1-9.184-11.209c-3.884-3.271-8.479-5.807-13.304-7.33
		c-3.766-1.195-7.708-1.797-11.709-1.797c-1.328,0-2.668,0.066-3.98,0.201c-8.355,0.826-16.336,4.463-22.477,10.234
		c-5.715,5.307-9.805,12.41-11.508,20c-0.035,0.141-0.098,0.248-0.193,0.328c-0.59,2.662-0.912,5.426-0.957,8.188
		c0,0.111-0.088,0.199-0.199,0.199c-0.107,0-0.195-0.082-0.201-0.188c-0.16-2.814-0.008-5.635,0.432-8.4
		c-4.443,0.227-8.773,1.777-12.254,4.418c-3.422,2.584-6.086,6.262-7.59,10.412c0.033,0.021,0.066,0.025,0.09,0.045
		c5.199,1.6,9.982,4.457,13.832,8.258c0.82-0.707,1.695-1.377,2.6-2c-0.867,0.232-1.738,0.527-2.578,0.906
		c-1.438-2.43-3.559-4.1-6.025-5.252c1.152-1.041,2.523-1.926,3.59-3.027c0.645-0.658,1.371-1.213,2.158-1.654
		c1.076,2.844,3.068,5.434,5.43,7.434c0.791-0.422,1.6-0.816,2.43-1.141c2.99-1.201,6.279-1.812,9.4-1.762
		c0.02,0,0.033,0.016,0.051,0.021c0.033-0.027,0.072-0.047,0.107-0.072c-0.213-0.672-0.561-2.486-0.578-2.572
		c-0.133-0.656-0.244-1.326-0.334-1.994c-0.182-1.359-0.271-2.734-0.271-4.111c0-17.141,13.893-31.033,31.033-31.033
		c15.426,0,28.188,11.266,30.592,26.014C169.484,88.934,171.514,88.504,173.575,88.35z"/>
	<path fill="#ADD3F0" d="M113.134,205.434l-3.826,3.935l-1.982-0.259l2.559-3.256l-4.184-0.533l1.279-1.676l5.5,0.06l0.023-2.379
		l-5.172-0.062l-1.443-4.996l-2.285,0.65l1.488,5.278l-1.197,1.573l-1.48-3.691l-2.57,3.381l-0.857-2.062l2.789-4.729l-2.049-1.211
		l-2.637,4.451l-5.045-1.252l-0.588,2.305l5.334,1.352l0.787,1.908l-3.902-0.557l1.592,3.801l-2.236-0.295l-2.697-4.773
		l-2.072,1.166l2.549,4.537l-0.357,0.361l-3.262,3.354l1.701,1.658l3.844-3.939l2.191,0.288l-2.523,3.198l4.033,0.518l-1.334,1.729
		l-5.588-0.054l-0.02,2.381l5.223,0.085l1.387,4.969l2.291-0.651l-1.469-5.192l1.41-1.843l1.541,3.847l2.396-3.16l0.783,1.896
		l-2.789,4.729l2.045,1.213l2.676-4.479l5.01,1.272l0.58-2.305l-5.32-1.345l-0.838-2.006l4.201,0.597l-1.574-3.73l1.949,0.248
		l2.701,4.787l2.074-1.168l-2.514-4.496l3.584-3.75L113.134,205.434z M104.8,212.266l-2.656-0.386l-1.621,2.136l-0.996-2.492
		l-2.656-0.34l1.66-2.103l-1.041-2.47l2.652,0.373l1.623-2.129l0.996,2.492l2.656,0.334l-1.654,2.104L104.8,212.266z"/>
	<path fill="#ADD3F0" d="M126.312,237.249l-3.828,3.931l-1.982-0.255l2.561-3.264l-4.188-0.525l1.287-1.684l5.49,0.057l0.029-2.373
		l-5.172-0.062l-1.447-4.994l-2.283,0.645l1.49,5.291l-1.201,1.562l-1.479-3.693l-2.57,3.383l-0.861-2.062l2.793-4.729l-2.049-1.207
		l-2.639,4.445l-5.039-1.252l-0.588,2.307l5.33,1.354l0.789,1.901l-3.91-0.555l1.598,3.801l-2.234-0.289l-2.699-4.78l-2.074,1.174
		l2.549,4.531l-0.354,0.36l-3.266,3.356l1.705,1.66l3.84-3.943l2.193,0.283l-2.521,3.201l4.033,0.521l-1.336,1.729l-5.586-0.059
		l-0.021,2.379l5.225,0.086l1.385,4.969l2.293-0.646l-1.469-5.199l1.41-1.834l1.543,3.84l2.391-3.154l0.787,1.887l-2.795,4.736
		l2.051,1.205l2.676-4.479l5.008,1.279l0.582-2.309l-5.324-1.348l-0.832-2.006l4.193,0.602l-1.568-3.73l1.945,0.25l2.703,4.785
		l2.078-1.166l-2.518-4.498l3.58-3.756L126.312,237.249z M117.974,244.066l-2.656-0.379l-1.619,2.136l-0.998-2.486l-2.652-0.34
		l1.656-2.106l-1.037-2.464l2.648,0.373l1.625-2.129l0.998,2.486l2.652,0.34l-1.652,2.106L117.974,244.066z"/>
	<path fill="#ADD3F0" d="M65.88,205.434l-3.83,3.935l-1.977-0.259l2.555-3.256l-4.184-0.533l1.281-1.676l5.496,0.06l0.023-2.379
		l-5.166-0.062l-1.447-4.996l-2.285,0.65l1.49,5.278l-1.201,1.573l-1.479-3.691l-2.572,3.381l-0.855-2.062l2.791-4.729l-2.049-1.211
		l-2.645,4.451l-5.035-1.252l-0.586,2.305l5.326,1.352l0.787,1.908l-3.902-0.557l1.592,3.801l-2.236-0.295l-2.693-4.773
		l-2.074,1.166l2.549,4.537l-0.354,0.36l-3.266,3.354l1.707,1.658l3.836-3.94l2.191,0.288l-2.523,3.199l4.035,0.517l-1.336,1.729
		l-5.584-0.055l-0.023,2.381l5.223,0.084l1.387,4.971l2.295-0.652l-1.467-5.193l1.41-1.842l1.537,3.846l2.393-3.16l0.787,1.896
		l-2.791,4.729l2.045,1.213l2.678-4.479l5.008,1.271l0.584-2.305l-5.324-1.344l-0.834-2.006l4.197,0.596l-1.568-3.73l1.945,0.248
		l2.699,4.787l2.076-1.168l-2.512-4.496l3.578-3.75L65.88,205.434z M57.544,212.266l-2.658-0.386l-1.621,2.136l-0.994-2.492
		l-2.652-0.34l1.652-2.103l-1.029-2.47l2.639,0.373l1.631-2.129l0.992,2.492l2.658,0.334l-1.656,2.104L57.544,212.266z"/>
	<path fill="#ADD3F0" d="M79.054,237.249l-3.824,3.931l-1.984-0.255l2.561-3.264l-4.184-0.525l1.281-1.684l5.498,0.057l0.023-2.373
		l-5.172-0.062l-1.447-4.994l-2.285,0.645l1.496,5.291l-1.203,1.562l-1.482-3.693l-2.568,3.383l-0.857-2.062l2.791-4.729
		l-2.049-1.207l-2.641,4.445l-5.037-1.252l-0.592,2.307l5.332,1.354l0.791,1.901l-3.912-0.555l1.598,3.801l-2.234-0.289l-2.697-4.78
		l-2.074,1.174l2.549,4.531l-0.355,0.36l-3.264,3.356l1.701,1.66l3.844-3.943l2.188,0.283l-2.518,3.201l4.031,0.521l-1.334,1.729
		l-5.588-0.059l-0.023,2.379l5.229,0.086l1.385,4.969l2.297-0.646l-1.473-5.199l1.41-1.834l1.541,3.84l2.393-3.154l0.791,1.887
		l-2.799,4.736l2.051,1.205l2.68-4.479l5.004,1.279l0.586-2.309l-5.324-1.348l-0.838-2.006l4.197,0.602l-1.57-3.73l1.949,0.25
		l2.695,4.785l2.08-1.166l-2.516-4.498l3.586-3.756L79.054,237.249z M70.716,244.066l-2.65-0.379l-1.619,2.136l-0.998-2.486
		l-2.656-0.34l1.656-2.106l-1.039-2.464l2.65,0.373l1.627-2.129l0.996,2.486l2.656,0.34l-1.654,2.106L70.716,244.066z"/>
	<path fill="#ADD3F0" d="M249.977,238.907l3.584,3.756l-2.514,4.498l2.076,1.166l2.699-4.785l1.949-0.25l-1.57,3.731l4.197-0.603
		l-0.838,2.004l-5.32,1.351l0.582,2.308l5.004-1.281l2.68,4.48l2.051-1.205l-2.799-4.736l0.787-1.887l2.396,3.155l1.537-3.84
		l1.414,1.834l-1.477,5.196l2.293,0.646l1.393-4.969l5.229-0.086l-0.025-2.379l-5.588,0.059l-1.332-1.729l4.033-0.521l-2.52-3.2
		l2.186-0.283l3.844,3.942l1.701-1.659l-3.266-3.358l-0.354-0.361l2.55-4.528l-2.07-1.174l-2.697,4.778l-2.236,0.289l1.598-3.802
		l-3.91,0.556l0.793-1.899l5.332-1.354l-0.594-2.308l-5.033,1.252l-2.646-4.444l-2.044,1.207l2.791,4.729l-0.86,2.062l-2.562-3.384
		l-1.479,3.693l-1.199-1.562l1.485-5.29l-2.282-0.646l-1.447,4.993l-5.17,0.062l0.024,2.373l5.496-0.058l1.281,1.685l-4.188,0.524
		l2.562,3.265l-1.98,0.254l-3.826-3.93L249.977,238.907z M261.057,241.604l-1.652-2.104l2.654-0.34l0.996-2.486l1.627,2.129
		l2.646-0.371l-1.039,2.465l1.66,2.104l-2.66,0.34l-0.994,2.486l-1.619-2.139l-2.648,0.379L261.057,241.604z"/>
	<path fill="#ADD3F0" d="M242.594,182.648c-1.338-2.974-3.095-5.655-5.474-7.991c-2.351-2.304-5.205-4.021-8.239-5.062
		c-6.066-2.1-12.83-1.327-18.02,1.787c-2.573,1.494-4.944,3.654-6.491,6.234c-1.558,2.573-2.408,5.493-2.485,8.383
		c-0.166,5.756,2.655,11.34,7.381,14.047c2.334,1.326,4.996,1.854,7.506,1.604c2.508-0.248,4.854-1.273,6.647-2.814
		c-2.021,1.234-4.379,1.834-6.685,1.721c-2.299-0.104-4.536-0.916-6.317-2.281c-1.799-1.348-3.062-3.27-3.858-5.381
		c-0.781-2.107-1.021-4.396-0.697-6.58c0.31-2.189,1.199-4.275,2.515-6.006c1.326-1.738,3.062-3.031,5.123-3.996
		c4.051-1.928,8.883-1.984,12.94-0.229c2.021,0.877,3.854,2.174,5.318,3.805c1.43,1.604,2.649,3.688,3.452,5.824
		c1.627,4.293,1.658,9.191,0.072,13.533c-1.595,4.387-4.688,8.023-8.914,10.373c-2.101,1.213-4.403,2.08-6.826,2.635
		c-2.558,0.594-5.116,0.719-7.733,0.779c-5.019,0.115-9.949-0.193-14.896-0.746c-4.608-0.379-9.231-0.969-13.82-1.744
		c-11.077-2.361-22.021-5.795-32.219-10.762c-7.871-3.832-15.9-8.578-22.156-14.777c-1.15-1.139-2.242-2.322-3.23-3.605
		c-0.168-0.176-0.35-0.354-0.51-0.525c0.053,0.021,0.109,0.051,0.164,0.07c-4.152-5.627-3.264-9.016-3.264-9.016
		s9.191,15.883,40.375,19.898c5.302,0.564,10.431,0.564,15.011-0.291c1.485,0.436,2.797,1.133,3.797,2.123
		c1.021,1,1.592,2.307,1.619,3.682c0.022,1.371-0.513,2.703-1.474,3.707c-0.89,0.973-2.233,1.508-3.646,1.447
		c-1.382-0.027-2.854-0.693-3.678-1.756c-0.847-1.076-1.048-2.656-0.4-4.023c-1.143,1.041-1.707,2.896-1.016,4.67
		c0.712,1.783,2.483,3.172,4.688,3.633c1.09,0.238,2.271,0.213,3.424-0.076c1.137-0.273,2.234-0.848,3.107-1.629
		c1.715-1.475,2.773-3.723,2.719-6.021c-0.018-2.287-1.184-4.521-2.937-5.938c-0.487-0.404-1.022-0.736-1.569-1.041
		c2.944-1.053,5.533-2.588,7.672-4.668c0.984-0.832,1.916-1.734,2.65-2.771c1.127-1.565,1.928-3.319,2.354-5.127
		c0.063-0.271,0.062-0.547,0.11-0.82c0.03-0.106,0.078-0.2,0.106-0.312c-0.024,0.023-0.051,0.05-0.076,0.072
		c0.529-3.31-0.09-6.709-1.803-9.539c-0.957-1.563-2.146-2.942-3.69-4.108c-1.522-1.146-3.308-1.949-5.168-2.373
		c-3.707-0.851-7.675-0.086-10.578,1.881c-1.438,0.951-2.728,2.254-3.502,3.746c-0.783,1.483-1.123,3.136-1.011,4.722
		c0.224,3.166,2.205,6.099,5.154,7.34c1.457,0.608,3.069,0.771,4.536,0.509c1.479-0.263,2.812-0.941,3.787-1.875
		c-1.125,0.774-2.498,1.227-3.864,1.276c-1.371,0.06-2.742-0.281-3.875-0.935c-1.142-0.654-1.988-1.646-2.589-2.769
		c-0.573-1.113-0.848-2.36-0.774-3.569c0.062-1.229,0.479-2.408,1.16-3.425c0.685-1.021,1.644-1.812,2.81-2.45
		c2.295-1.261,5.153-1.529,7.657-0.765c1.25,0.375,2.402,1,3.361,1.817c0.942,0.806,1.776,1.89,2.377,3.017
		c1.207,2.28,1.489,4.978,0.787,7.438c-0.688,2.479-2.328,4.629-4.701,6.131c-1.179,0.768-2.498,1.355-3.901,1.783
		c-0.703,0.219-1.423,0.383-2.17,0.521c-0.744,0.131-1.462,0.191-2.373,0.291c-3.343,0.354-6.652,0.418-9.996,0.318
		c-0.873-0.023-1.733-0.104-2.604-0.152c-16.246-1.533-26.457-9.99-25.379-20.434c1.541-7.119,7.865-12.461,15.447-12.461
		c1.321,0,2.648,0.188,3.938,0.533c-4.348-1.846-9.1-2.908-14.109-2.908c-0.19,0-0.387,0.002-0.578,0.006
		c-0.899,0.018-1.793,0.064-2.684,0.146c-0.012-0.4-0.031-0.807-0.031-1.213c0-4.242,0.78-8.311,2.167-12.062
		c2.92-8.541,8.644-15.145,15.867-19.234c-0.224,0.09-0.431,0.193-0.648,0.283l0.488-0.221c0,0-6.69,1.195-14.399,7.363
		c-1.229,0.986-2.478,2.096-3.734,3.348c-0.057,0.051-0.113,0.107-0.174,0.164c-0.617,0.623-1.229,1.27-1.863,1.979
		c-0.574,0.65-1.154,1.349-1.727,2.062c-0.092,0.105-0.182,0.221-0.268,0.326c-0.566,0.721-1.121,1.475-1.681,2.262
		c-0.09,0.131-0.182,0.268-0.277,0.4c-0.504,0.727-0.996,1.482-1.49,2.271c-0.072,0.119-0.146,0.229-0.221,0.354
		c-0.525,0.854-1.035,1.75-1.545,2.679c-0.109,0.211-0.219,0.42-0.336,0.635c-0.51,0.957-1.01,1.949-1.494,2.99
		c-0.221,0.104-0.432,0.228-0.652,0.323c-2.797,1.246-5.85,1.88-8.914,1.88c-0.668,0-1.344-0.039-2.023-0.104
		c-4.652-0.418-8.887-2.273-12.262-5.131c-0.033-0.021-0.068-0.051-0.096-0.064c-5.35-4.367-8.766-11.016-8.766-18.457
		c0-7.801,3.766-14.706,9.559-19.047c0.453-0.117,0.814-0.252,0.934-0.393c-6.332,1.34-12.174,4.555-16.465,9.057
		c-4.375,4.549-7.357,10.592-8.389,17.022c-0.018,0.102-0.1,0.17-0.199,0.17c-0.115,0-0.203-0.086-0.203-0.188
		c-0.188-3.145,0.289-6.418,1.363-9.471c1.203-3.422,3.162-6.604,5.664-9.221c0.348-0.357,0.727-0.686,1.09-1.02
		c-4.021-3.41-8.824-5.895-13.9-7.182c-0.125,0.027-0.26,0.027-0.385-0.01c-0.445,0-0.951-0.178-1.41-0.303
		c-0.742-0.146-1.49-0.271-2.244-0.379c-0.447-0.045-0.865-0.039-1.305-0.051c-0.197,0-0.383-0.062-0.559-0.137
		c-0.877-0.07-1.756-0.119-2.645-0.119c-3.336,0-6.623,0.484-9.781,1.426c-6.045,1.795-11.674,5.428-15.846,10.23
		c-3.316,3.812-5.77,8.374-7.088,13.182c-1.123,4.059-1.422,8.371-0.98,12.59c0.045,0.25,0.094,0.5,0.152,0.748
		c-0.012,0.283,0,0.562,0,0.84c0.01,0.078,0.018,0.152,0.029,0.225c0.695,4.502,2.373,8.959,4.848,12.887
		c2.145,3.404,4.953,6.463,8.129,8.945c3.209-1.32,6.848-1.752,10.258-1.23c0.047-0.861,0.146-1.727,0.316-2.576
		c0.611-3.059,2.078-6.014,4.117-8.324c1.838-2.104,4.15-3.727,6.67-4.691c0.096-0.033,0.207,0.006,0.252,0.096
		c0.045,0.088,0.018,0.199-0.062,0.258c-4.43,3.18-7.555,7.975-8.58,13.145c-1.07,5.217-0.062,10.848,2.77,15.457
		c0.053,0.092,0.039,0.205-0.045,0.268c-0.037,0.027-0.08,0.039-0.125,0.039c-0.055,0-0.102-0.018-0.143-0.057
		c-1.951-1.881-3.445-4.271-4.312-6.922c-0.654-1.982-0.92-4.066-0.92-6.146l0.057-0.062c0,0-0.783-0.019-2.023,0.084
		c-1.039,0.062-2.061,0.218-3.068,0.438c-5.902,1.133-14.812,4.746-14.783,16.209c-0.062,1.383,0.033,2.774,0.328,4.125
		c0.037,0.176,0.09,0.401,0.156,0.662c0.072,0.271,0.166,0.521,0.262,0.754l47.098,1.692v0.373h6.742
		c-0.066-0.078-0.135-0.16-0.201-0.24c-0.205-0.185-0.432-0.446-0.686-0.823c-15.198-18.998-14.969-35.439-14.969-35.439
		s6.188,23.327,29.838,41.188c6.539,4.682,13.439,8.854,20.479,12.732c5.424,2.982,11.029,5.752,16.322,8.966
		c3.896,2.308,7.654,4.763,10.976,7.82c0.722,0.646,1.429,1.305,2.119,1.968c0.672,0.669,1.42,1.403,2.002,2.021
		c1.192,1.297,2.215,2.717,2.979,4.244c0.769,1.521,1.31,3.157,1.553,4.787c0.234,1.618,0.166,3.27-0.211,4.848
		c-0.733,3.15-2.709,6-5.383,7.799c-1.328,0.912-2.83,1.553-4.397,1.92c-1.539,0.371-3.103,0.396-4.613,0.059
		c-3.043-0.646-5.729-2.746-7.134-5.535c-0.691-1.401-1.135-2.948-1.109-4.446c0.008-1.521,0.436-3.052,1.236-4.362
		c1.548-2.631,4.68-4.425,7.766-4.229c3.112,0.188,5.991,2.613,6.728,5.771c-0.176-1.596-0.883-3.187-2.045-4.438
		c-1.146-1.26-2.756-2.176-4.523-2.506c-3.59-0.631-7.473,1.037-9.772,4.157c-1.146,1.55-1.893,3.453-2.084,5.449
		c-0.193,2.024,0.207,4.024,0.953,5.896c1.533,3.748,4.896,6.849,9.021,7.996c2.053,0.603,4.289,0.701,6.412,0.299
		c2.088-0.358,4.141-1.119,5.983-2.26c3.707-2.263,6.565-6.017,7.729-10.356c0.584-2.164,0.738-4.476,0.463-6.729
		c-0.279-2.242-0.949-4.388-1.932-6.412c-0.98-2.01-2.268-3.854-3.758-5.481c-0.777-0.836-1.445-1.492-2.193-2.238
		c-0.742-0.729-1.498-1.438-2.271-2.137c-6.926-6.271-15.362-10.445-23.447-14.978c-8.352-4.678-16.195-10.111-23.105-16.767
		c-1.648-1.589-3.242-3.231-4.775-4.933c-3.014-3.836-5.242-7.602-6.893-11.119c0.672,1.431,2.391,2.871,3.426,4.066
		c1.244,1.438,2.518,2.854,3.832,4.233c3.078,3.229,6.363,6.263,9.818,9.086c7.6,6.211,15.988,11.324,24.707,15.804
		c7.587,3.896,15.318,7.604,23.236,10.778c2.221,0.89,4.455,1.729,6.714,2.513c9.177,3.18,18.72,5.287,28.386,6.243
		c1.383,0.142,2.77,0.253,4.152,0.341c1.188,0.075,2.992-0.188,4.098,0.196c1.645,0.552,3.291,1.147,4.938,1.817
		c2.537,1.023,4.715,2.556,6.278,4.595c1.537,1.961,2.277,4.405,2.093,6.896c-0.19,2.479-1.312,4.811-3.101,6.479
		c-1.646,1.621-3.994,2.377-6.345,2.067c-2.295-0.272-4.646-1.696-5.853-3.729c-1.229-2.084-1.309-4.972,0.007-7.345
		c-2.084,1.712-3.349,4.981-2.479,8.287c0.89,3.322,3.625,6.095,7.229,7.274c1.782,0.584,3.772,0.733,5.729,0.392
		c1.955-0.344,3.894-1.215,5.479-2.483c3.123-2.416,5.278-6.313,5.569-10.461c0.355-4.146-1.213-8.353-3.901-11.185
		c-1.14-1.246-2.442-2.248-3.824-3.062c0.947-0.149,1.888-0.317,2.815-0.553c3.263-0.778,6.445-2.026,9.341-3.771
		c2.862-1.69,5.606-3.94,7.739-6.606c2.146-2.674,3.785-5.719,4.814-8.924C245.661,195.634,245.245,188.602,242.594,182.648z
		 M153.786,119.929l0.758-0.34c-0.396,0.197-0.78,0.414-1.165,0.617L153.786,119.929z M70.947,134.857
		c-4.809,2.091-8.992,5.336-12.225,9.382c-7.631-2.861-13.074-10.201-13.074-18.84c0-11.118,9.018-20.135,20.129-20.135
		c6.305,0,11.918,2.895,15.611,7.414C75.947,118.763,72.249,126.419,70.947,134.857z"/>
</g>
</svg>
