<?xml version="1.0" encoding="utf-8"?>
<!-- Generator: Adobe Illustrator 15.0.2, SVG Export Plug-In . SVG Version: 6.00 Build 0)  -->
<!DOCTYPE svg PUBLIC "-//W3C//DTD SVG 1.1//EN" "http://www.w3.org/Graphics/SVG/1.1/DTD/svg11.dtd">
<svg version="1.1" id="Layer_1" xmlns="http://www.w3.org/2000/svg" xmlns:xlink="http://www.w3.org/1999/xlink" x="0px" y="0px"
	 width="280px" height="260px" viewBox="0 0 280 260" enable-background="new 0 0 280 260" xml:space="preserve">
<g>
	<g>
		<path fill="#3479BE" d="M34.647,146.159c34.459,1.498,74.74,2.364,117.777,2.364c43.047,0,83.324-0.866,117.779-2.364
			c-34.455-1.498-74.732-2.354-117.779-2.354C109.387,143.805,69.106,144.661,34.647,146.159z"/>
		<path fill="#3479BE" d="M32.169,139.198c35.408,1.495,76.793,2.358,121.021,2.358c44.229,0,85.615-0.863,121.021-2.358
			c-35.406-1.505-76.791-2.361-121.021-2.361C108.962,136.837,67.577,137.693,32.169,139.198z"/>
		<path fill="#3479BE" d="M36.009,132.23c35.326,1.498,76.623,2.357,120.747,2.357c44.139,0,85.434-0.859,120.762-2.357
			c-35.328-1.504-76.623-2.366-120.762-2.366C112.632,129.864,71.335,130.729,36.009,132.23z"/>
		<path fill="#3479BE" d="M20.552,125.269c37.797,1.494,81.967,2.359,129.179,2.359c47.209,0,91.384-0.865,129.179-2.359
			c-37.795-1.502-81.97-2.363-129.179-2.363C102.518,122.905,58.348,123.767,20.552,125.269z"/>
		<path fill="#3479BE" d="M10.879,118.296c38.025,1.506,82.461,2.367,129.955,2.367c47.496,0,91.934-0.861,129.953-2.367
			c-38.02-1.498-82.457-2.357-129.953-2.357C93.34,115.938,48.904,116.798,10.879,118.296z"/>
		<path fill="#3479BE" d="M10.668,111.337c37.402,1.492,81.135,2.359,127.86,2.359c46.728,0,90.453-0.867,127.858-2.359
			c-37.405-1.498-81.131-2.365-127.858-2.365C91.803,108.972,48.07,109.839,10.668,111.337z"/>
		<path fill="#3479BE" d="M4.863,104.37c39.813,1.502,86.359,2.361,136.095,2.361c49.737,0,96.282-0.859,136.093-2.361
			c-39.811-1.498-86.354-2.359-136.093-2.359C91.222,102.011,44.677,102.872,4.863,104.37z"/>
		<path fill="#3479BE" d="M2.097,97.403c38.748,1.498,84.036,2.359,132.432,2.359c48.405,0,93.686-0.861,132.436-2.359
			c-38.75-1.498-84.029-2.365-132.436-2.365C86.134,95.038,40.845,95.905,2.097,97.403z"/>
		<path fill="#3479BE" d="M19.992,90.437c33.574,1.504,72.814,2.367,114.75,2.367c41.941,0,81.178-0.863,114.736-2.367
			c-33.561-1.498-72.795-2.354-114.736-2.354C92.806,88.083,53.566,88.938,19.992,90.437z"/>
		<path fill="#3479BE" d="M20.592,83.478c32.354,1.496,70.178,2.357,110.596,2.357c40.419,0,78.24-0.861,110.578-2.357
			c-32.338-1.506-70.156-2.363-110.578-2.363C90.769,81.114,52.945,81.972,20.592,83.478z"/>
		<path fill="#3479BE" d="M7.243,76.509c35.393,1.498,76.771,2.359,120.984,2.359c44.223,0,85.596-0.861,121-2.359
			c-35.401-1.498-76.774-2.359-121-2.359C84.014,74.149,42.636,75.011,7.243,76.509z"/>
		<path fill="#3479BE" d="M26.198,69.548c30.236,1.496,65.559,2.355,103.316,2.355c37.755,0,73.093-0.859,103.324-2.355
			c-30.229-1.502-65.568-2.365-103.324-2.365C91.757,67.183,56.434,68.046,26.198,69.548z"/>
		<path fill="#3479BE" d="M51.76,62.575c23.217,1.504,50.35,2.367,79.348,2.367c29.003,0,56.138-0.863,79.354-2.367
			c-23.217-1.5-50.351-2.359-79.354-2.359C102.109,60.216,74.976,61.075,51.76,62.575z"/>
		<path fill="#3479BE" d="M56.033,55.614c20.506,1.492,44.475,2.361,70.092,2.361c25.619,0,49.592-0.869,70.102-2.361
			c-20.51-1.498-44.479-2.359-70.102-2.359C100.508,53.255,76.539,54.116,56.033,55.614z"/>
		<path fill="#3479BE" d="M54.924,48.649c19.006,1.498,41.23,2.365,64.973,2.365c23.746,0,45.958-0.867,64.969-2.365
			c-19.011-1.5-41.224-2.357-64.969-2.357C96.154,46.292,73.929,47.149,54.924,48.649z"/>
		<path fill="#3479BE" d="M61.584,41.687c18.033,1.498,39.117,2.355,61.642,2.355c22.534,0,43.612-0.857,61.648-2.355
			c-18.036-1.504-39.114-2.361-61.648-2.361C100.701,39.325,79.617,40.183,61.584,41.687z"/>
		<path fill="#3479BE" d="M77.887,34.72c14.436,1.498,31.307,2.365,49.345,2.365c18.032,0,34.904-0.867,49.34-2.365
			c-14.438-1.498-31.309-2.359-49.34-2.359C109.194,32.36,92.323,33.222,77.887,34.72z"/>
		<path fill="#3479BE" d="M93.02,27.755c9.641,1.502,20.899,2.363,32.937,2.363c12.039,0,23.303-0.861,32.941-2.363
			c-9.641-1.504-20.902-2.361-32.941-2.361C113.92,25.394,102.661,26.251,93.02,27.755z"/>
	</g>
	<path fill="#FFFFFF" d="M190.782,117.997c0.217,0.107,0.438,0.205,0.647,0.318c0.004-0.041,0.01-0.08,0.016-0.119
		C191.225,118.128,191.01,118.06,190.782,117.997z"/>
	<path fill="#FFFFFF" d="M173.76,114.333c4.924,0,9.651,0.814,14.071,2.299c-4.021-1.619-8.416-2.52-13.021-2.52
		c-1.941,0-3.848,0.164-5.697,0.469C170.637,114.423,172.188,114.333,173.76,114.333z"/>
	<path fill="#D4DAE6" d="M275.331,166.368c-1.778-6.4-6.011-12.127-11.604-15.701c-4.883-3.16-10.994-4.711-16.856-4.242
		c-0.218-3.172-1.291-6.338-3.062-8.987c-1.033-1.562-2.322-2.982-3.842-4.229c2.106-5.154,2.682-11.012,1.608-16.551
		c-1.281-6.832-5.173-13.271-10.673-17.672c-5.198-4.227-12.024-6.65-18.717-6.65c-0.281,0-0.561,0-0.832,0.012
		c-5.557,0.119-11.096,1.893-15.678,5.008c-1.646-2.125-3.551-3.955-5.676-5.428c-1.098-0.775-2.299-1.473-3.67-2.146
		c-0.105-0.051-0.203-0.09-0.312-0.129l-0.18-0.08c-0.453-0.203-0.912-0.402-1.377-0.584c-0.188-0.066-0.369-0.135-0.547-0.197
		c-3.168-1.133-6.453-1.688-9.672-1.523c-0.158-0.611-0.303-1.287-0.455-2.068c-0.195-1.008-0.396-2.051-0.693-3.086
		c-0.635-2.346-1.488-4.65-2.561-6.854c-2.215-4.604-5.41-8.865-9.244-12.32c-4.049-3.658-8.936-6.508-14.121-8.246
		c-5.414-1.818-11.242-2.465-16.998-1.869c-8.969,0.883-17.775,5.029-24.164,11.373c-5.736,5.619-9.695,12.971-11.195,20.775
		c-0.998-0.203-1.967-0.299-2.949-0.299c-3.871,0-7.684,1.291-10.73,3.629c-2.23,1.672-4.072,3.898-5.324,6.43
		c-0.82,1.66-1.371,3.506-1.602,5.393c-5.947-1.535-12.309-1.473-18.199,0.146c-6.684,1.818-12.887,5.732-17.469,11.012
		c-3.641,4.186-6.287,9.209-7.646,14.521c-1.309,5.092-1.469,10.508-0.461,15.668c0.924,4.828,2.932,9.521,5.803,13.574
		c2.141,3.016,4.832,5.738,7.828,7.947c-3.336,1.5-6.184,3.998-8.088,7.096c-2.51,3.994-3.367,8.955-2.363,13.602
		c0.111,0.511,0.232,0.97,0.359,1.398l0.047,0.146c0.047,0.171,0.098,0.341,0.24,0.729l0.238,0.688
		c0.033,0.074,0.139,0.312,0.441,0.48l0.166,0.092h29.84h26.68h126.114h2.341h52.804l0.987-2.021l0.39-0.898
		c0.225-0.539,0.479-1.188,0.692-1.854C276.674,177.316,276.805,171.607,275.331,166.368z"/>
	<g>
		<path fill="#ACBAD1" d="M239.794,122.812c-0.06-0.09-0.125-0.182-0.202-0.254c0.053-0.482,0.082-0.963,0.102-1.451
			c-0.027-0.271-0.078-0.543-0.117-0.814c-0.053-0.387-0.098-0.771-0.164-1.15c-0.113-0.652-0.256-1.297-0.416-1.943
			c-1.521-6.162-5.104-11.758-10.08-15.752c-4.939-4.004-11.172-6.297-17.547-6.467c-0.322-0.012-0.646-0.018-0.967-0.018
			c-5.012,0-10.131,1.359-14.57,3.822c1.613,2.312,2.855,4.871,3.604,7.545c1.33,4.707,1.209,9.771-0.312,14.336
			c2.646,1.58,5.129,3.5,7.311,5.688c2.854,2.865,5.262,6.23,7.027,9.809c2.039-2.531,4.832-4.515,7.964-5.617
			c1.937-0.686,4.077-1.049,6.196-1.049c2.039,0,4.039,0.322,5.939,0.963c1.801,0.603,3.52,1.513,5.069,2.646
			c0.231-0.773,0.422-1.566,0.586-2.359c0.027-0.143,0.054-0.277,0.082-0.418C239.766,127.853,239.932,125.327,239.794,122.812z
			 M231.637,125.241c-14.244-0.465-25.715-11.752-26.479-25.924c2.317-0.918,4.84-1.439,7.479-1.439
			c11.207,0,20.291,9.086,20.291,20.289C232.93,120.659,232.46,123.038,231.637,125.241z"/>
		<path fill="#ACBAD1" d="M32.874,139.564c-0.014-0.123-0.025-0.248-0.033-0.373c-0.006-0.006-0.006-0.012-0.006-0.022
			C32.846,139.307,32.86,139.438,32.874,139.564z"/>
		<path fill="#ACBAD1" d="M191.743,114.706c0,0.867-0.082,1.711-0.185,2.549h0.006c1.144,0.369,2.273,0.771,3.373,1.246
			c1.271,0.555,2.513,1.195,3.729,1.898c0.812-4.504,0.451-9.262-1.053-13.492c-1.75-4.967-5.104-9.369-9.437-12.387
			c-0.442-0.312-0.903-0.602-1.368-0.879c-0.623-0.357-1.244-0.707-1.879-1.02c-0.761-0.367-1.521-0.697-2.308-1.014
			c-2.858-1.082-5.91-1.66-8.972-1.66H173.3c-4.743,0.035-9.616,1.484-13.72,4.068c0.427-0.268,0.873-0.5,1.312-0.736
			c2.48-0.924,5.154-1.457,7.959-1.457C181.493,91.823,191.743,102.063,191.743,114.706z"/>
		<path fill="#ACBAD1" d="M170.001,88.517c0.106-0.023,0.216-0.047,0.324-0.062c0.946-0.188,1.903-0.334,2.873-0.408
			c-0.304-0.879-0.562-1.768-0.796-2.645c-0.25-0.947-0.508-1.916-0.838-2.85c-0.739-2.203-1.688-4.354-2.812-6.406
			c-2.316-4.23-5.5-8.111-9.207-11.227c-3.889-3.279-8.49-5.816-13.318-7.352c-3.781-1.195-7.731-1.801-11.743-1.801
			c-1.328,0-2.676,0.068-3.99,0.203c-8.371,0.828-16.369,4.469-22.527,10.258c-5.725,5.318-9.82,12.434-11.531,20.045
			c-0.031,0.137-0.096,0.244-0.193,0.328c-0.588,2.668-0.91,5.434-0.953,8.209c0,0.107-0.092,0.197-0.201,0.197
			c-0.111,0-0.199-0.084-0.205-0.188c-0.16-2.82-0.01-5.652,0.432-8.422c-4.455,0.232-8.791,1.785-12.273,4.436
			c-3.434,2.576-6.102,6.27-7.607,10.428c0.027,0.016,0.062,0.027,0.084,0.045c0.709,0.645,2.637,0.918,3.559,1.314
			c1.246,0.549,2.457,1.16,3.629,1.846c2.408,1.41,4.666,3.109,6.633,5.08c1.559-0.701,2.85-2.254,4.465-3.064
			c4.016-2.004,8.021-3.414,12.67-3.393c0.033-0.021,0.074-0.045,0.107-0.066c-0.215-0.676-0.566-2.492-0.58-2.578
			c-0.131-0.662-0.244-1.326-0.334-2c-0.186-1.365-0.275-2.74-0.275-4.117c0-17.18,13.928-31.102,31.102-31.102
			c15.459,0,28.246,11.289,30.654,26.066C168.085,88.976,169.032,88.72,170.001,88.517z"/>
		<path fill="#ACBAD1" d="M143.204,150.073c-1.103,0-2.187,0.057-3.268,0.146c-0.008-0.402-0.027-0.805-0.027-1.205
			c0-4.26,0.774-8.326,2.172-12.094c2.931-8.564,8.662-15.18,15.899-19.275c-0.229,0.086-0.432,0.193-0.649,0.283l0.485-0.221
			c0,0-6.698,1.195-14.426,7.375c-1.229,0.986-2.479,2.096-3.746,3.348c-0.057,0.062-0.113,0.119-0.17,0.176
			c-0.617,0.617-1.234,1.268-1.85,1.953c-0.006,0.012-0.01,0.021-0.014,0.023c-0.584,0.65-1.166,1.348-1.742,2.066
			c-0.088,0.11-0.176,0.217-0.264,0.33c-0.566,0.725-1.127,1.473-1.684,2.266c-0.094,0.129-0.186,0.266-0.281,0.402
			c-0.504,0.729-1,1.479-1.494,2.272c-0.072,0.119-0.148,0.229-0.223,0.354c-0.525,0.854-1.039,1.756-1.545,2.686
			c-0.111,0.209-0.221,0.418-0.334,0.635c-0.516,0.963-1.018,1.953-1.502,2.996c-0.215,0.107-0.43,0.227-0.65,0.328
			c-2.805,1.24-5.863,1.887-8.936,1.887c-0.674,0-1.346-0.041-2.02-0.104c0,0,0,0-0.006,0c-4.662-0.424-8.906-2.287-12.291-5.148
			c-0.027-0.021-0.062-0.051-0.096-0.068c-5.361-4.377-8.785-11.03-8.785-18.489c0-7.816,3.771-14.732,9.584-19.082
			c0.453-0.125,0.814-0.256,0.932-0.396c-0.037,0.012-0.076,0.021-0.117,0.033c-2.336,0.498-4.609,1.252-6.76,2.238
			c-0.006,0.006-0.014,0.006-0.02,0.012c-0.719,0.328-1.428,0.68-2.119,1.059c-0.061,0.039-0.123,0.078-0.186,0.119
			c-0.629,0.352-1.252,0.719-1.855,1.109c-0.156,0.102-0.303,0.215-0.455,0.322c-0.5,0.336-1,0.68-1.479,1.043
			c-0.275,0.209-0.529,0.436-0.793,0.656c-0.346,0.279-0.697,0.551-1.025,0.85c-0.59,0.521-1.15,1.066-1.688,1.633
			c-4.391,4.559-7.375,10.613-8.412,17.064c-0.018,0.098-0.1,0.164-0.197,0.164c-0.113-0.004-0.199-0.084-0.205-0.186
			c-0.182-3.156,0.289-6.436,1.365-9.494c1.207-3.426,3.17-6.621,5.682-9.238c0.346-0.355,0.723-0.684,1.092-1.023
			c-3.023-2.561-6.49-4.605-10.178-6.01c-1.229-0.465-2.48-0.867-3.756-1.189c-0.123,0.033-0.262,0.027-0.387-0.006
			c-0.441,0-0.943-0.182-1.402-0.301c-0.006-0.006-0.012-0.006-0.018-0.006c-0.742-0.146-1.482-0.271-2.23-0.373
			c-0.006,0-0.006,0-0.012,0c-0.445-0.051-0.867-0.045-1.309-0.051c-0.195-0.006-0.379-0.068-0.555-0.143
			c-0.885-0.068-1.764-0.113-2.65-0.113c-3.342,0-6.639,0.482-9.799,1.428c-6.066,1.795-11.705,5.438-15.883,10.246
			c-3.324,3.824-5.777,8.389-7.104,13.215c-0.316,1.146-0.57,2.328-0.77,3.512c-0.096,0.604-0.133,1.226-0.197,1.834
			c-0.066,0.578-0.154,1.147-0.191,1.731c-0.047,0.812-0.025,1.634-0.014,2.447c0.006,0.385-0.021,0.771-0.006,1.148
			c0.029,0.652,0.125,1.297,0.193,1.943c0.045,0.25,0.096,0.498,0.152,0.748c-0.008,0.254-0.006,0.51,0,0.77
			c0.014,0.096,0.014,0.193,0.029,0.295c0.695,4.508,2.379,8.973,4.859,12.914c2.146,3.404,4.961,6.469,8.145,8.955
			c3.215-1.32,6.865-1.756,10.281-1.225c0.051-0.865,0.146-1.732,0.318-2.588c0.615-3.064,2.08-6.025,4.127-8.347
			c1.842-2.104,4.154-3.729,6.684-4.698c0.096-0.039,0.199,0.006,0.246,0.092c0.049,0.09,0.025,0.203-0.057,0.26
			c-4.434,3.188-7.572,7.992-8.604,13.176c-1.068,5.221-0.057,10.863,2.783,15.484c0.049,0.092,0.029,0.205-0.047,0.268
			c-0.037,0.027-0.082,0.045-0.127,0.045c-0.055,0-0.104-0.018-0.143-0.057c-1.959-1.896-3.455-4.289-4.328-6.939
			c-0.65-1.988-0.916-4.072-0.859-6.162c-0.02,0-0.035,0-0.057,0l0.057-0.068c0,0-0.783-0.006-2.029,0.101
			c-1.039,0.062-2.064,0.215-3.074,0.433c-5.914,1.139-14.846,4.764-14.812,16.25c-0.064,1.389,0.029,2.778,0.326,4.135
			c0.037,0.176,0.088,0.396,0.156,0.656c0.072,0.271,0.166,0.524,0.266,0.76l52.693,1.893c-0.256-1.258-0.42-2.555-0.42-3.893
			c0-11.051,8.955-20.01,20.006-20.01c6.943,0,13.055,3.537,16.646,8.905c4.158-10.526,14.41-17.993,26.417-17.993
			c1.688,0,3.33,0.178,4.937,0.459c0.365-0.132,0.746-0.228,1.121-0.353C153.87,151.29,148.682,150.073,143.204,150.073z
			 M153.366,119.69l0.76-0.34c-0.396,0.199-0.772,0.414-1.168,0.617L153.366,119.69z M56.538,145.7
			c-7.629-2.865-13.072-10.207-13.072-18.844c0-11.119,9.016-20.131,20.131-20.131c6.301,0,11.916,2.889,15.607,7.414
			c-5.438,6.084-9.139,13.736-10.441,22.181C63.954,138.411,59.77,141.65,56.538,145.7z M71.038,146.448
			c-0.059-0.019-0.121-0.023-0.178-0.035c0.117-0.084,0.244-0.164,0.359-0.248C71.163,146.261,71.095,146.354,71.038,146.448z
			 M72.475,167.684c-3.789-6.707-3.229-14.822,3.332-21.207c2.137-2.07,4.742-2.884,7.326-2.656c2.189,3.797,5.277,6.93,8.918,9.521
			C83.364,154.497,76.079,160.042,72.475,167.684z"/>
		<path fill="#ACBAD1" d="M207.137,161.898c7.668,2.595,14.205,7.67,18.625,14.277c-0.232-1.232-0.354-2.516-0.354-3.822
			c0-11.502,9.32-20.826,20.818-20.826s20.821,9.324,20.821,20.826c0,4.687-1.565,8.996-4.187,12.474
			c0.9-0.033,1.796-0.062,2.695-0.097c0.562-0.02,1.121-0.032,1.682-0.059l0.66-0.021c0.317-0.01,0.705-0.059,1.067-0.032
			l1.933-0.068l0.578-1.377c0.166-0.43,0.349-0.934,0.517-1.455V181.7c0.062-0.396,0.215-0.793,0.34-1.189
			c0.047-0.17,0.106-0.344,0.146-0.52c0.08-0.33,0.146-0.658,0.213-0.986c0.054-0.266,0.108-0.532,0.154-0.799
			c0.057-0.34,0.1-0.687,0.143-1.024c0.033-0.271,0.074-0.543,0.103-0.812c0.035-0.354,0.045-0.697,0.062-1.043
			c0.013-0.268,0.033-0.527,0.039-0.787c0.011-0.369-0.006-0.736-0.01-1.102c-0.007-0.254,0-0.504-0.02-0.752
			c-0.02-0.369-0.062-0.734-0.094-1.104c-0.024-0.248-0.037-0.492-0.067-0.742c-0.052-0.391-0.121-0.779-0.188-1.172
			c-0.039-0.215-0.062-0.438-0.106-0.65c-0.125-0.602-0.265-1.199-0.431-1.789c-1.575-5.664-5.284-10.789-10.18-14.074
			c-0.671-0.448-1.361-0.86-2.065-1.245c-0.177-0.099-0.357-0.183-0.535-0.269c-0.539-0.283-1.086-0.551-1.646-0.787
			c-0.183-0.074-0.357-0.146-0.533-0.217c-0.713-0.281-1.433-0.543-2.16-0.766c-1.151-0.34-2.322-0.602-3.512-0.781
			c-2.416-0.359-4.896-0.555-7.33-0.254c-1.142,0.135-2.262,0.354-3.369,0.635c-1.127,0.295-2.234,0.656-3.313,1.088
			c-2.164,0.873-4.214,2.021-6.065,3.435c-0.084,0.062-0.209,0.051-0.276-0.035c-0.072-0.084-0.062-0.203,0.021-0.276
			c3.914-3.5,8.989-5.761,14.315-6.39c-0.676-3.082-2.026-5.94-3.965-8.326c-2.297-2.838-5.442-5.034-8.875-6.19
			c-1.942-0.646-3.994-0.979-6.084-0.979c-1.601,0-3.188,0.197-4.729,0.582c-3.016,0.754-5.854,2.256-8.255,4.334
			c0.183,0.385,0.362,0.771,0.532,1.16c1.645,3.789,2.637,7.939,2.865,12.014c0.006,0.107-0.065,0.199-0.174,0.211
			c-0.006,0-0.006,0-0.012,0c-0.009,0-0.009,0-0.017,0.006c-0.095,0-0.181-0.065-0.199-0.158
			c-1.858-8.227-6.129-15.983-12.016-21.856c-0.675-0.68-1.384-1.336-2.107-1.977c-0.396-0.34-0.805-0.668-1.219-0.996
			c-0.312-0.256-0.617-0.516-0.935-0.76c-0.571-0.436-1.155-0.861-1.75-1.273c-0.14-0.098-0.271-0.193-0.414-0.289
			c-0.707-0.482-1.428-0.941-2.164-1.383l0,0c8.259,6.377,13.593,16.356,13.593,27.612c0,4.563-0.881,8.914-2.479,12.914
			C207.198,161.917,207.163,161.905,207.137,161.898z M225.852,133.495c7.224,0,13.086,5.787,13.226,12.979
			c-0.992,0.211-2.021,0.322-3.072,0.322c-7.396,0-13.502-5.438-14.588-12.527C222.803,133.777,224.292,133.495,225.852,133.495z"/>
	</g>
	<path fill="#231F20" d="M275.331,166.368c-1.778-6.4-6.011-12.127-11.604-15.701c-4.883-3.16-10.994-4.711-16.856-4.242
		c-0.218-3.172-1.291-6.338-3.062-8.987c-1.033-1.562-2.322-2.982-3.842-4.229c2.106-5.154,2.682-11.012,1.608-16.551
		c-1.281-6.832-5.173-13.271-10.673-17.672c-5.198-4.227-12.024-6.65-18.717-6.65c-0.281,0-0.561,0-0.832,0.012
		c-5.557,0.119-11.096,1.893-15.678,5.008c-1.646-2.125-3.551-3.955-5.676-5.428c-1.098-0.775-2.299-1.473-3.67-2.146
		c-0.105-0.051-0.203-0.09-0.312-0.129l-0.18-0.08c-0.453-0.203-0.912-0.402-1.377-0.584c-0.188-0.066-0.369-0.135-0.547-0.197
		c-3.168-1.133-6.453-1.688-9.672-1.523c-0.158-0.611-0.303-1.287-0.455-2.068c-0.195-1.008-0.396-2.051-0.693-3.086
		c-0.635-2.346-1.488-4.65-2.561-6.854c-2.215-4.604-5.41-8.865-9.244-12.32c-4.049-3.658-8.936-6.508-14.121-8.246
		c-5.414-1.818-11.242-2.465-16.998-1.869c-8.969,0.883-17.775,5.029-24.164,11.373c-5.736,5.619-9.695,12.971-11.195,20.775
		c-0.998-0.203-1.967-0.299-2.949-0.299c-3.871,0-7.684,1.291-10.73,3.629c-2.23,1.672-4.072,3.898-5.324,6.43
		c-0.82,1.66-1.371,3.506-1.602,5.393c-5.947-1.535-12.309-1.473-18.199,0.146c-6.684,1.818-12.887,5.732-17.469,11.012
		c-3.641,4.186-6.287,9.209-7.646,14.521c-1.309,5.092-1.469,10.508-0.461,15.668c0.924,4.828,2.932,9.521,5.803,13.574
		c2.141,3.016,4.832,5.738,7.828,7.947c-3.336,1.5-6.184,3.998-8.088,7.096c-2.51,3.994-3.367,8.955-2.363,13.602
		c0.111,0.511,0.232,0.97,0.359,1.398l0.047,0.146c0.047,0.171,0.098,0.341,0.24,0.729l0.238,0.688
		c0.033,0.074,0.139,0.312,0.441,0.48l0.166,0.092h56.52l-0.266-0.727h-0.771c-0.031-0.08-0.09-0.145-0.17-0.145l-53.281-1.914
		c-0.1-0.23-0.193-0.484-0.266-0.76c-0.068-0.261-0.119-0.479-0.156-0.656c-0.297-1.354-0.391-2.744-0.326-4.135
		c-0.033-11.484,8.898-15.109,14.812-16.25c1.01-0.216,2.035-0.369,3.074-0.431c1.246-0.104,2.029-0.099,2.029-0.099
		s-0.057,0.068,0,0.068c-0.057,2.09,0.209,4.174,0.859,6.16c0.873,2.65,2.369,5.049,4.328,6.939
		c0.039,0.037,0.088,0.057,0.143,0.057c0.045,0,0.09-0.02,0.127-0.045c0.076-0.062,0.096-0.176,0.047-0.27
		c-2.84-4.621-3.852-10.265-2.783-15.482c1.031-5.186,4.17-9.984,8.604-13.176c0.082-0.059,0.105-0.172,0.057-0.262
		c-0.047-0.086-0.15-0.131-0.246-0.092c-2.529,0.969-4.842,2.596-6.684,4.7c-2.047,2.317-3.512,5.279-4.127,8.345
		c-0.172,0.854-0.268,1.725-0.318,2.588c-3.416-0.529-7.066-0.097-10.281,1.227c-3.184-2.486-5.998-5.553-8.145-8.955
		c-2.48-3.939-4.164-8.406-4.859-12.914c-0.76-4.797-0.479-9.787,0.803-14.432c1.326-4.826,3.779-9.391,7.104-13.215
		c4.178-4.809,9.816-8.451,15.883-10.246c3.16-0.945,6.457-1.428,9.799-1.428c2.77,0,5.516,0.328,8.176,0.986
		c0.125,0.033,0.264,0.039,0.387,0.006c5.088,1.297,9.902,3.783,13.934,7.199c-0.369,0.34-0.746,0.668-1.092,1.023
		c-2.512,2.617-4.475,5.812-5.682,9.238c-1.076,3.059-1.547,6.338-1.365,9.494c0.006,0.102,0.092,0.182,0.205,0.186
		c0.098,0,0.18-0.066,0.197-0.164c1.037-6.451,4.021-12.506,8.412-17.064c4.332-4.555,10.256-7.795,16.68-9.119
		c0.1-0.018,0.168-0.113,0.158-0.217c-0.006-0.102-0.094-0.18-0.197-0.18c-3.133-0.057-6.424,0.561-9.42,1.762
		c-2.783,1.098-5.369,2.752-7.629,4.74c-3.852-3.807-8.641-6.662-13.855-8.271c-0.021-0.018-0.057-0.029-0.084-0.045
		c1.506-4.158,4.174-7.852,7.607-10.428c3.482-2.65,7.818-4.203,12.273-4.436c-0.441,2.77-0.592,5.602-0.432,8.422
		c0.006,0.104,0.094,0.188,0.205,0.188c0.109,0,0.201-0.09,0.201-0.197c0.043-2.775,0.365-5.541,0.953-8.209
		c0.098-0.084,0.162-0.191,0.193-0.328c1.711-7.611,5.807-14.727,11.531-20.045c6.158-5.789,14.156-9.43,22.527-10.258
		c1.314-0.135,2.662-0.203,3.99-0.203c4.01,0,7.961,0.605,11.742,1.801c4.828,1.535,9.434,4.072,13.319,7.352
		c3.707,3.115,6.89,6.996,9.207,11.227c1.121,2.051,2.07,4.203,2.812,6.406c0.33,0.934,0.59,1.902,0.84,2.85
		c0.232,0.877,0.49,1.766,0.795,2.645c-5.096,0.373-10.018,2.379-13.854,5.646c-0.084,0.068-0.097,0.188-0.035,0.271
		c0.063,0.086,0.186,0.113,0.272,0.053c4.103-2.584,8.976-4.033,13.72-4.068h0.354c3.062,0,6.109,0.578,8.972,1.66
		c0.782,0.316,1.547,0.646,2.308,1.014c0.633,0.312,1.256,0.662,1.879,1.02c0.463,0.277,0.925,0.566,1.369,0.879
		c4.332,3.018,7.685,7.42,9.435,12.387c1.504,4.229,1.862,8.988,1.053,13.492c-1.217-0.703-2.457-1.344-3.729-1.898
		c-3.785-1.648-7.938-2.65-12.012-2.895c-0.103,0.006-0.195,0.074-0.209,0.176c-0.019,0.102,0.051,0.205,0.151,0.227
		c8.22,1.881,15.974,6.168,21.83,12.07c5.888,5.873,10.153,13.633,12.017,21.855c0.021,0.092,0.104,0.157,0.226,0.153
		c0.106-0.013,0.181-0.104,0.175-0.211c-0.229-4.072-1.225-8.226-2.865-12.015c-0.17-0.392-0.354-0.774-0.531-1.159
		c2.4-2.078,5.238-3.58,8.254-4.334c1.541-0.386,3.129-0.582,4.729-0.582c2.09,0,4.143,0.334,6.084,0.979
		c3.434,1.155,6.578,3.354,8.875,6.19c1.938,2.385,3.289,5.244,3.965,8.326c-5.324,0.629-10.4,2.889-14.314,6.389
		c-0.082,0.074-0.092,0.193-0.021,0.277c0.068,0.086,0.193,0.098,0.277,0.033c3.688-2.812,8.151-4.594,12.75-5.152
		c2.437-0.303,4.916-0.106,7.332,0.254c2.338,0.354,4.616,1.023,6.771,2c1.281,0.578,2.518,1.271,3.684,2.062
		c4.896,3.284,8.604,8.409,10.181,14.072c1.304,4.641,1.229,9.717-0.211,14.279c-0.185,0.601-0.397,1.185-0.589,1.67l-0.577,1.377
		l-51.964,1.802c-0.084,0.007-0.146,0.067-0.176,0.147h-0.77l-0.258,0.725h55.143l0.988-2.021l0.391-0.899
		c0.225-0.539,0.479-1.188,0.691-1.854C276.674,177.316,276.805,171.607,275.331,166.368z M233.557,130.458
		c-1.899-0.641-3.899-0.963-5.938-0.963c-2.119,0-4.265,0.363-6.197,1.049c-3.131,1.104-5.924,3.086-7.963,5.617
		c-1.771-3.578-4.174-6.943-7.026-9.809c-2.183-2.188-4.662-4.107-7.312-5.688c1.521-4.564,1.646-9.629,0.312-14.336
		c-0.746-2.674-1.986-5.232-3.604-7.545c4.441-2.463,9.561-3.822,14.572-3.822c0.316,0,0.643,0.006,0.965,0.018
		c6.375,0.17,12.605,2.463,17.547,6.467c4.979,3.994,8.559,9.59,10.08,15.752c1.299,5.178,1.154,10.773-0.365,15.903
		C237.075,131.97,235.357,131.061,233.557,130.458z"/>
	<g>
		<path fill="#D4DAE6" d="M64.907,221.557c-1.057,0-2.127-0.203-3.162-0.63c-4.254-1.743-6.283-6.608-4.537-10.862l1.586-3.853
			c1.746-4.25,6.611-6.287,10.863-4.53c4.254,1.75,6.283,6.61,4.533,10.86l-1.58,3.854C71.288,219.614,68.18,221.557,64.907,221.557
			z"/>
		<path fill="#231F20" d="M68.391,204.864c-1.969,2.084-3.969,3.868-5.781,5.196v0.002c-0.449,0.381-0.82,0.869-1.064,1.457
			c-0.799,1.926,0.117,4.135,2.045,4.933c1.92,0.799,4.129-0.117,4.928-2.043c0.277-0.67,0.34-1.371,0.238-2.039
			C68.438,210.193,68.304,207.611,68.391,204.864z"/>
		<path fill="#FFFFFF" d="M65.454,209.48c-0.787,0.828-1.586,1.545-2.311,2.074l0,0c-0.182,0.148-0.328,0.354-0.426,0.58
			c-0.316,0.775,0.047,1.656,0.816,1.979c0.77,0.315,1.654-0.046,1.971-0.818c0.113-0.264,0.137-0.547,0.094-0.815
			C65.473,211.611,65.421,210.579,65.454,209.48z"/>
		<path fill="#D4DAE6" d="M118.753,221.557c-1.053,0-2.121-0.203-3.164-0.63c-4.25-1.743-6.281-6.608-4.531-10.862l1.582-3.853
			c1.75-4.25,6.615-6.287,10.863-4.53c4.254,1.75,6.287,6.61,4.539,10.86l-1.582,3.854
			C125.134,219.614,122.03,221.557,118.753,221.557z"/>
		<path fill="#231F20" d="M122.407,204.864c-1.969,2.084-3.965,3.868-5.775,5.196v0.002c-0.459,0.381-0.826,0.869-1.07,1.457
			c-0.799,1.926,0.119,4.135,2.045,4.933c1.92,0.799,4.135-0.117,4.922-2.043c0.279-0.67,0.348-1.371,0.244-2.039
			C122.454,210.193,122.319,207.611,122.407,204.864z"/>
		<path fill="#FFFFFF" d="M119.47,209.48c-0.787,0.828-1.586,1.545-2.316,2.074l0,0c-0.176,0.148-0.32,0.354-0.422,0.58
			c-0.32,0.775,0.047,1.656,0.818,1.979c0.768,0.315,1.654-0.046,1.971-0.818c0.111-0.264,0.137-0.547,0.096-0.815
			C119.493,211.611,119.436,210.579,119.47,209.48z"/>
		<path fill="#D4DAE6" d="M172.604,221.557c-1.055,0-2.125-0.203-3.158-0.63c-4.254-1.743-6.286-6.608-4.536-10.862l1.586-3.853
			c1.744-4.25,6.606-6.287,10.862-4.53c4.254,1.75,6.285,6.61,4.535,10.86l-1.586,3.854
			C178.986,219.614,175.879,221.557,172.604,221.557z"/>
		<path fill="#231F20" d="M176.422,204.864c-1.966,2.084-3.959,3.868-5.777,5.196v0.002c-0.453,0.381-0.818,0.869-1.062,1.457
			c-0.799,1.926,0.119,4.135,2.045,4.933c1.92,0.799,4.129-0.117,4.922-2.043c0.283-0.67,0.348-1.371,0.244-2.039
			C176.473,210.193,176.338,207.611,176.422,204.864z"/>
		<path fill="#FFFFFF" d="M173.486,209.48c-0.786,0.828-1.586,1.545-2.312,2.074l0,0c-0.182,0.148-0.326,0.354-0.424,0.58
			c-0.316,0.775,0.045,1.656,0.812,1.979c0.771,0.315,1.648-0.046,1.973-0.818c0.111-0.264,0.137-0.547,0.092-0.815
			C173.506,211.611,173.454,210.579,173.486,209.48z"/>
		<path fill="#D4DAE6" d="M226.456,221.557c-1.058,0-2.125-0.203-3.162-0.63c-4.254-1.743-6.286-6.608-4.536-10.862l1.586-3.853
			c1.746-4.25,6.61-6.287,10.86-4.53c4.259,1.75,6.287,6.61,4.537,10.86l-1.582,3.854
			C232.84,219.614,229.729,221.557,226.456,221.557z"/>
		<path fill="#231F20" d="M230.271,204.864c-1.965,2.084-3.961,3.868-5.776,5.196v0.002c-0.453,0.381-0.819,0.869-1.063,1.457
			c-0.799,1.926,0.119,4.135,2.041,4.933c1.924,0.799,4.133-0.117,4.926-2.043c0.283-0.67,0.348-1.371,0.24-2.039
			C230.32,210.193,230.188,207.611,230.271,204.864z"/>
		<path fill="#FFFFFF" d="M227.338,209.48c-0.785,0.828-1.584,1.545-2.312,2.074l0,0c-0.18,0.148-0.322,0.354-0.424,0.58
			c-0.316,0.775,0.047,1.656,0.817,1.979c0.769,0.315,1.647-0.046,1.972-0.818c0.11-0.264,0.133-0.547,0.09-0.815
			C227.355,211.611,227.305,210.579,227.338,209.48z"/>
		<path fill="#D4DAE6" d="M91.692,254.286c-1.059,0-2.129-0.203-3.166-0.629c-4.254-1.744-6.281-6.609-4.537-10.863l1.586-3.853
			c1.75-4.252,6.617-6.287,10.865-4.53c4.252,1.75,6.287,6.608,4.535,10.86l-1.58,3.854
			C98.071,252.343,94.968,254.286,91.692,254.286z"/>
		<path fill="#231F20" d="M95.177,237.596c-1.971,2.084-3.971,3.866-5.783,5.194v0.004c-0.447,0.379-0.822,0.869-1.064,1.455
			c-0.799,1.926,0.119,4.135,2.045,4.935c1.92,0.799,4.129-0.119,4.928-2.045c0.277-0.668,0.34-1.371,0.236-2.039
			C95.221,242.925,95.085,240.341,95.177,237.596z"/>
		<path fill="#FFFFFF" d="M92.237,242.21c-0.787,0.83-1.586,1.547-2.311,2.076l0,0c-0.182,0.149-0.33,0.354-0.426,0.58
			c-0.316,0.776,0.045,1.657,0.816,1.977c0.77,0.318,1.652-0.045,1.971-0.817c0.113-0.264,0.135-0.547,0.096-0.812
			C92.259,244.343,92.202,243.311,92.237,242.21z"/>
		<path fill="#D4DAE6" d="M145.536,254.286c-1.056,0-2.119-0.203-3.16-0.629c-4.254-1.744-6.283-6.609-4.531-10.863l1.58-3.853
			c1.75-4.252,6.615-6.287,10.863-4.53c4.254,1.75,6.287,6.608,4.537,10.86l-1.58,3.854
			C151.919,252.343,148.814,254.286,145.536,254.286z"/>
		<path fill="#231F20" d="M149.188,237.596c-1.965,2.084-3.965,3.866-5.771,5.194v0.004c-0.459,0.379-0.825,0.869-1.069,1.455
			c-0.799,1.926,0.119,4.135,2.045,4.935c1.92,0.799,4.135-0.119,4.922-2.045c0.277-0.668,0.348-1.371,0.244-2.039
			C149.239,242.925,149.104,240.341,149.188,237.596z"/>
		<path fill="#FFFFFF" d="M146.256,242.21c-0.787,0.83-1.587,1.547-2.316,2.076l0,0c-0.176,0.149-0.32,0.354-0.426,0.58
			c-0.314,0.776,0.053,1.657,0.821,1.977c0.765,0.318,1.654-0.045,1.972-0.817c0.106-0.264,0.137-0.547,0.096-0.812
			C146.277,244.343,146.221,243.311,146.256,242.21z"/>
		<path fill="#D4DAE6" d="M199.389,254.286c-1.053,0-2.125-0.203-3.16-0.629c-4.254-1.744-6.285-6.609-4.535-10.863l1.586-3.853
			c1.744-4.252,6.607-6.287,10.861-4.53c4.254,1.75,6.287,6.608,4.537,10.86l-1.586,3.854
			C205.771,252.343,202.663,254.286,199.389,254.286z"/>
		<path fill="#231F20" d="M203.208,237.596c-1.967,2.084-3.961,3.866-5.776,5.194v0.004c-0.453,0.379-0.822,0.869-1.064,1.455
			c-0.801,1.926,0.117,4.135,2.045,4.935c1.92,0.799,4.129-0.119,4.922-2.045c0.283-0.668,0.348-1.371,0.244-2.039
			C203.26,242.925,203.122,240.341,203.208,237.596z"/>
		<path fill="#FFFFFF" d="M200.271,242.21c-0.787,0.83-1.586,1.547-2.312,2.076l0,0c-0.184,0.149-0.328,0.354-0.424,0.58
			c-0.318,0.776,0.045,1.657,0.812,1.977c0.771,0.318,1.647-0.045,1.971-0.817c0.113-0.264,0.139-0.547,0.094-0.812
			C200.29,244.343,200.239,243.311,200.271,242.21z"/>
	</g>
</g>
</svg>
