<?xml version="1.0" encoding="utf-8"?>
<!-- Generator: Adobe Illustrator 15.0.2, SVG Export Plug-In . SVG Version: 6.00 Build 0)  -->
<!DOCTYPE svg PUBLIC "-//W3C//DTD SVG 1.1//EN" "http://www.w3.org/Graphics/SVG/1.1/DTD/svg11.dtd">
<svg version="1.1" id="Layer_1" xmlns="http://www.w3.org/2000/svg" xmlns:xlink="http://www.w3.org/1999/xlink" x="0px" y="0px"
	 width="280px" height="260px" viewBox="0 0 280 260" enable-background="new 0 0 280 260" xml:space="preserve">
<g>
	<g>
		<g>
			<path fill="#FFFFFF" d="M96.05,130.691c0.123,0.062,0.254,0.119,0.373,0.186c0-0.021,0.006-0.051,0.006-0.072
				C96.304,130.764,96.179,130.73,96.05,130.691z"/>
		</g>
		<g>
			<path fill="#FFFFFF" d="M86.234,128.578c2.838,0,5.564,0.471,8.117,1.33c-2.326-0.934-4.861-1.455-7.512-1.455
				c-1.121,0-2.221,0.096-3.287,0.271C84.427,128.629,85.326,128.578,86.234,128.578z"/>
		</g>
		<g>
			<g>
				<g>
					<path fill="#3479BE" d="M73.918,164.201c13.455,1.74,29.177,2.742,45.98,2.742c16.809,0,32.536-1.002,45.987-2.742
						c-13.451-1.738-29.178-2.734-45.987-2.734C103.095,161.467,87.373,162.463,73.918,164.201z"/>
				</g>
			</g>
			<g>
				<g>
					<path fill="#3479BE" d="M39.959,156.131c20.725,1.732,44.943,2.736,70.833,2.736c25.885,0,50.108-1.004,70.825-2.736
						c-20.717-1.738-44.94-2.742-70.825-2.742C84.902,153.389,60.684,154.393,39.959,156.131z"/>
				</g>
			</g>
			<g>
				<g>
					<path fill="#3479BE" d="M10.199,148.049c27.602,1.744,59.869,2.74,94.353,2.74c34.477,0,66.745-0.996,94.347-2.74
						c-27.603-1.74-59.871-2.736-94.347-2.736C70.068,145.312,37.801,146.309,10.199,148.049z"/>
				</g>
			</g>
			<g>
				<g>
					<path fill="#3479BE" d="M8.285,139.977c26.859,1.734,58.256,2.736,91.808,2.736c33.555,0,64.956-1.002,91.815-2.736
						c-26.859-1.737-58.26-2.74-91.815-2.74C66.541,137.236,35.145,138.238,8.285,139.977z"/>
				</g>
			</g>
			<g>
				<g>
					<path fill="#3479BE" d="M22.201,131.9c30.139,1.738,65.367,2.74,103.013,2.74c37.649,0,72.877-1.002,103.019-2.74
						c-30.142-1.74-65.369-2.736-103.019-2.736C87.568,129.164,52.34,130.16,22.201,131.9z"/>
				</g>
			</g>
			<g>
				<g>
					<path fill="#3479BE" d="M22.74,123.822c29.039,1.734,62.996,2.736,99.279,2.736c36.288,0,70.241-1.002,99.286-2.736
						c-29.045-1.738-62.998-2.74-99.286-2.74C85.736,121.082,51.779,122.084,22.74,123.822z"/>
				</g>
			</g>
			<g>
				<g>
					<path fill="#3479BE" d="M5.006,115.746c31.971,1.738,69.348,2.742,109.289,2.742c39.946,0,77.314-1.004,109.292-2.742
						c-31.978-1.738-69.346-2.736-109.292-2.736C74.354,113.01,36.977,114.008,5.006,115.746z"/>
				</g>
			</g>
			<g>
				<g>
					<path fill="#3479BE" d="M0.775,107.674c30.416,1.734,65.967,2.736,103.962,2.736c38,0,73.557-1.002,103.977-2.736
						c-30.42-1.744-65.978-2.74-103.977-2.74C66.742,104.934,31.191,105.93,0.775,107.674z"/>
				</g>
			</g>
			<g>
				<g>
					<path fill="#3479BE" d="M4.107,99.592c31.445,1.738,68.199,2.742,107.472,2.742c39.284,0,76.034-1.004,107.479-2.742
						c-31.445-1.738-68.195-2.736-107.479-2.736C72.307,96.856,35.553,97.854,4.107,99.592z"/>
				</g>
			</g>
			<g>
				<g>
					<path fill="#3479BE" d="M2.143,91.522c32.084,1.732,69.59,2.734,109.667,2.734c40.079,0,77.584-1.002,109.67-2.734
						c-32.086-1.74-69.592-2.742-109.67-2.742C71.732,88.78,34.227,89.782,2.143,91.522z"/>
				</g>
			</g>
			<g>
				<g>
					<path fill="#3479BE" d="M17.814,83.438c31.307,1.746,67.898,2.742,107.003,2.742c39.11,0,75.701-0.996,107.006-2.742
						c-31.308-1.738-67.896-2.734-107.006-2.734C85.712,80.704,49.121,81.7,17.814,83.438z"/>
				</g>
			</g>
			<g>
				<g>
					<path fill="#3479BE" d="M29.215,75.368c28.553,1.738,61.929,2.736,97.601,2.736c35.674,0,69.051-0.998,97.61-2.736
						c-28.559-1.738-61.936-2.742-97.61-2.742C91.144,72.625,57.768,73.629,29.215,75.368z"/>
				</g>
			</g>
			<g>
				<g>
					<path fill="#3479BE" d="M47.215,67.29c24.023,1.74,52.115,2.736,82.128,2.736c30.015,0,58.097-0.996,82.124-2.736
						c-24.027-1.738-52.109-2.734-82.124-2.734C99.33,64.555,71.238,65.551,47.215,67.29z"/>
				</g>
			</g>
			<g>
				<g>
					<path fill="#3479BE" d="M55.662,59.213c19.42,1.738,42.109,2.736,66.363,2.736c24.254,0,46.95-0.998,66.36-2.736
						c-19.41-1.738-42.105-2.736-66.36-2.736C97.771,56.477,75.082,57.475,55.662,59.213z"/>
				</g>
			</g>
			<g>
				<g>
					<path fill="#3479BE" d="M51.469,51.137c20.393,1.738,44.226,2.734,69.695,2.734c25.473,0,49.307-0.996,69.697-2.734
						c-20.391-1.74-44.225-2.736-69.697-2.736C95.695,48.401,71.861,49.397,51.469,51.137z"/>
				</g>
			</g>
			<g>
				<g>
					<path fill="#3479BE" d="M78.473,43.065c15.431,1.734,33.47,2.736,52.751,2.736c19.28,0,37.321-1.002,52.752-2.736
						c-15.433-1.744-33.474-2.74-52.752-2.74C111.943,40.325,93.904,41.321,78.473,43.065z"/>
				</g>
			</g>
			<g>
				<g>
					<path fill="#3479BE" d="M95.437,34.422c11.652,1.738,25.273,2.734,39.83,2.734c14.551,0,28.174-0.996,39.831-2.734
						c-11.656-1.74-25.279-2.736-39.831-2.736C120.71,31.686,107.089,32.682,95.437,34.422z"/>
				</g>
			</g>
			<g>
				<g>
					<path fill="#3479BE" d="M74.193,25.825c15.841,1.732,34.363,2.734,54.152,2.734c19.792,0,38.307-1.002,54.155-2.734
						c-15.848-1.746-34.363-2.742-54.155-2.742C108.556,23.083,90.035,24.079,74.193,25.825z"/>
				</g>
			</g>
			<g>
				<g>
					<path fill="#3479BE" d="M79.178,17.282c11.65,1.734,25.271,2.736,39.828,2.736c14.555,0,28.174-1.002,39.831-2.736
						c-11.655-1.744-25.276-2.74-39.831-2.74C104.449,14.542,90.828,15.538,79.178,17.282z"/>
				</g>
			</g>
		</g>
		<g>
			<path fill="#FFEECE" d="M152.932,54.418c-0.396-3.461-1.139-6.885-2.17-10.217c-10.28-33.418-45.85-38.564-45.844-38.557
				c0.113,0.098,11.639,10.207,16.844,24.752c3.943,10.643,3.008,23.172-2.904,32.926c-1.457,2.402-3.275,4.76-5.258,6.754
				c-3.953,3.953-7.936,7.008-13.207,8.998c-5.285,1.988-10.91,2.941-16.551,3.004c-4.673,0.041-9.238-0.939-13.548-2.732
				c-6.764-2.789-13.152-7.082-18.488-12.082c-1.369-1.273-2.615-2.641-3.805-4.088l0.051,0.123l-0.273-0.34
				c0,0,4.131,26.436,27.064,40.324c8.15,4.937,17.615,7.882,27.193,7.882c17.184,0,33.117-8.521,42.639-22.8
				c5.402-8.107,8.423-17.668,8.587-27.404C153.299,58.774,153.182,56.588,152.932,54.418z"/>
			<path fill="#FFD88C" d="M61.824,79.633c19.871,13.232,46.707,7.861,59.949-12.006c10.541-15.836,9.244-36.062-1.762-50.342
				c2.668,1.123,5.256,2.479,7.742,4.137c21.304,14.189,27.065,42.949,12.875,64.242c-14.193,21.291-42.951,27.05-64.248,12.865
				c-7.93-5.283-13.695-12.588-17.088-20.777C60.121,78.391,60.947,79.042,61.824,79.633z"/>
		</g>
		<g>
			<g>
				<path fill="#FFFFFF" d="M207.787,130.926c0.174,0.084,0.355,0.164,0.531,0.264c0.002-0.037,0.002-0.073,0.008-0.106
					C208.148,131.031,207.973,130.975,207.787,130.926z"/>
			</g>
			<g>
				<path fill="#FFFFFF" d="M193.973,127.951c3.996,0,7.836,0.66,11.42,1.865c-3.26-1.312-6.834-2.049-10.565-2.049
					c-1.58,0-3.121,0.137-4.625,0.385C191.443,128.023,192.701,127.951,193.973,127.951z"/>
			</g>
			<path fill="#FFFFFF" d="M276.402,170.178c-1.447-5.193-4.873-9.838-9.416-12.732c-3.965-2.573-8.928-3.829-13.687-3.452
				c-0.17-2.568-1.051-5.142-2.485-7.298c-0.838-1.27-1.883-2.416-3.115-3.424c1.705-4.19,2.184-8.94,1.303-13.44
				c-1.035-5.539-4.191-10.768-8.66-14.34c-4.219-3.424-9.76-5.395-15.18-5.395c-0.227,0-0.453,0-0.68,0.012
				c-4.512,0.1-9.002,1.531-12.721,4.066c-1.347-1.727-2.882-3.205-4.611-4.404c-0.883-0.631-1.857-1.199-2.978-1.744
				c-0.077-0.045-0.166-0.078-0.254-0.104l-0.14-0.061c-0.368-0.176-0.741-0.33-1.127-0.484c-0.153-0.051-0.301-0.109-0.442-0.156
				c-2.563-0.921-5.237-1.363-7.851-1.23c-0.118-0.498-0.243-1.051-0.364-1.68c-0.158-0.824-0.322-1.662-0.563-2.512
				c-0.513-1.898-1.209-3.773-2.074-5.562c-1.799-3.732-4.392-7.193-7.504-9.988c-3.289-2.975-7.25-5.293-11.461-6.693
				c-4.388-1.48-9.127-2.002-13.791-1.529c-7.275,0.723-14.424,4.082-19.612,9.238c-4.656,4.557-7.869,10.525-9.086,16.859
				c-0.812-0.164-1.6-0.244-2.391-0.244c-3.146,0-6.23,1.049-8.711,2.943c-1.811,1.359-3.299,3.154-4.322,5.219
				c-0.67,1.352-1.113,2.848-1.297,4.377c-4.832-1.246-9.99-1.193-14.77,0.119c-5.422,1.477-10.463,4.652-14.18,8.932
				c-2.953,3.4-5.103,7.473-6.201,11.789c-1.062,4.128-1.195,8.527-0.381,12.714c0.754,3.918,2.384,7.731,4.712,11.018
				c1.74,2.443,3.924,4.664,6.35,6.447c-2.705,1.225-5.012,3.252-6.557,5.764c-2.041,3.24-2.738,7.262-1.922,11.033
				c0.09,0.414,0.191,0.785,0.295,1.143l0.039,0.115c0.039,0.137,0.08,0.27,0.193,0.592l0.191,0.553
				c0.023,0.062,0.119,0.258,0.359,0.396l0.139,0.074h24.211h21.652H229.66h1.902h42.844l0.799-1.646l0.322-0.723
				c0.184-0.443,0.395-0.967,0.565-1.504C277.486,179.068,277.6,174.432,276.402,170.178z"/>
			<g>
				<path fill="#ADD3F0" d="M247.566,134.828c-0.053-0.074-0.105-0.145-0.166-0.197c0.039-0.4,0.061-0.793,0.078-1.18
					c-0.027-0.221-0.064-0.443-0.09-0.658c-0.056-0.314-0.08-0.635-0.146-0.947c-0.089-0.522-0.201-1.047-0.332-1.568
					c-1.234-4.998-4.142-9.539-8.185-12.787c-4.006-3.248-9.067-5.109-14.24-5.248c-0.26-0.008-0.518-0.008-0.78-0.008
					c-4.065,0-8.218,1.096-11.826,3.098c1.315,1.875,2.317,3.953,2.929,6.121c1.075,3.832,0.981,7.932-0.261,11.633
					c2.146,1.293,4.162,2.845,5.938,4.617c2.313,2.334,4.26,5.06,5.705,7.961c1.649-2.051,3.91-3.656,6.459-4.556
					c1.565-0.562,3.309-0.856,5.022-0.856c1.66,0,3.279,0.271,4.826,0.787c1.467,0.483,2.854,1.224,4.11,2.142
					c0.197-0.63,0.345-1.269,0.478-1.912c0.029-0.115,0.045-0.229,0.067-0.336C247.529,138.926,247.672,136.871,247.566,134.828z
					 M240.943,136.803c-11.555-0.377-20.867-9.539-21.49-21.033c1.881-0.748,3.926-1.174,6.068-1.174
					c9.098,0,16.463,7.375,16.463,16.462C241.984,133.086,241.605,135.012,240.943,136.803z"/>
				<path fill="#ADD3F0" d="M79.64,148.428c-0.006-0.1-0.021-0.203-0.031-0.297c0-0.016,0-0.02,0-0.025
					C79.615,148.215,79.634,148.32,79.64,148.428z"/>
				<path fill="#ADD3F0" d="M208.57,128.252c0,0.709-0.072,1.391-0.146,2.062v0.008c0.923,0.303,1.845,0.629,2.734,1.014
					c1.03,0.453,2.036,0.969,3.021,1.535c0.655-3.656,0.368-7.508-0.851-10.945c-1.422-4.035-4.138-7.604-7.652-10.055
					c-0.364-0.248-0.735-0.492-1.108-0.713c-0.51-0.291-1.019-0.572-1.529-0.826c-0.611-0.295-1.234-0.57-1.869-0.824
					c-2.322-0.875-4.793-1.346-7.279-1.346H193.6c-3.846,0.025-7.809,1.201-11.133,3.305c0.346-0.213,0.707-0.404,1.07-0.6
					c2.016-0.752,4.18-1.184,6.457-1.184C200.252,109.684,208.57,118,208.57,128.252z"/>
				<path fill="#ADD3F0" d="M190.924,106.998c0.084-0.02,0.18-0.031,0.266-0.051c0.765-0.152,1.541-0.27,2.328-0.328
					c-0.244-0.705-0.453-1.438-0.646-2.15c-0.203-0.762-0.404-1.555-0.674-2.305c-0.609-1.791-1.378-3.537-2.287-5.199
					c-1.875-3.436-4.459-6.592-7.474-9.117c-3.149-2.662-6.893-4.719-10.809-5.955c-3.064-0.979-6.273-1.467-9.529-1.467
					c-1.072,0-2.168,0.053-3.24,0.17c-6.791,0.668-13.272,3.621-18.283,8.32c-4.648,4.312-7.965,10.092-9.352,16.262
					c-0.023,0.104-0.08,0.203-0.16,0.262c-0.475,2.169-0.74,4.414-0.775,6.664c0,0.094-0.074,0.168-0.164,0.168
					c-0.084,0-0.158-0.074-0.158-0.152c-0.131-2.289-0.012-4.588,0.348-6.837c-3.619,0.189-7.139,1.447-9.959,3.593
					c-2.793,2.1-4.951,5.084-6.18,8.471c0.025,0.014,0.057,0.014,0.072,0.035c0.572,0.523,2.139,0.746,2.883,1.066
					c1.016,0.438,2,0.943,2.949,1.502c1.951,1.139,3.791,2.512,5.377,4.117c1.27-0.568,2.32-1.818,3.629-2.488
					c3.256-1.629,6.51-2.766,10.277-2.754c0.037-0.012,0.064-0.037,0.09-0.057c-0.172-0.543-0.459-2.02-0.469-2.09
					c-0.104-0.527-0.195-1.074-0.268-1.625c-0.148-1.105-0.223-2.221-0.223-3.34c0-13.935,11.303-25.232,25.243-25.232
					c12.543,0,22.916,9.152,24.875,21.152C189.365,107.377,190.137,107.154,190.924,106.998z"/>
				<path fill="#ADD3F0" d="M169.182,156.951c-0.897,0-1.774,0.049-2.649,0.129c-0.015-0.328-0.021-0.658-0.021-0.992
					c0-3.443,0.623-6.752,1.756-9.811c2.375-6.943,7.023-12.312,12.896-15.633c-0.182,0.062-0.34,0.147-0.523,0.223l0.398-0.18
					c0,0-5.443,0.967-11.707,5.985c-1.002,0.8-2.02,1.703-3.041,2.72c-0.047,0.047-0.098,0.094-0.137,0.143
					c-0.504,0.502-1.008,1.025-1.506,1.588c0,0-0.006,0.006-0.01,0.012c-0.479,0.533-0.945,1.094-1.41,1.686
					c-0.07,0.084-0.142,0.171-0.213,0.261c-0.468,0.592-0.916,1.198-1.369,1.836c-0.08,0.11-0.144,0.226-0.228,0.332
					c-0.412,0.592-0.813,1.209-1.211,1.84c-0.06,0.106-0.123,0.193-0.185,0.291c-0.43,0.701-0.844,1.42-1.252,2.181
					c-0.09,0.17-0.186,0.342-0.271,0.512c-0.422,0.787-0.824,1.592-1.224,2.428c-0.182,0.092-0.35,0.191-0.528,0.271
					c-2.274,1.01-4.754,1.541-7.246,1.541c-0.545,0-1.096-0.043-1.646-0.104l0,0c-3.782-0.33-7.227-1.845-9.977-4.17
					c-0.025-0.013-0.049-0.031-0.08-0.054c-4.342-3.551-7.135-8.952-7.135-15.006c0-6.348,3.064-11.955,7.783-15.492
					c0.373-0.088,0.662-0.201,0.754-0.318c-0.025,0.01-0.057,0.02-0.092,0.027c-1.891,0.404-3.744,1.02-5.488,1.82
					c0,0.006-0.008,0.006-0.012,0.006c-0.586,0.268-1.16,0.557-1.721,0.865c-0.051,0.031-0.102,0.064-0.152,0.09
					c-0.508,0.289-1.016,0.584-1.502,0.9c-0.131,0.088-0.246,0.182-0.371,0.26c-0.404,0.275-0.812,0.557-1.203,0.85
					c-0.221,0.17-0.422,0.355-0.637,0.531c-0.281,0.232-0.564,0.453-0.83,0.695c-0.482,0.42-0.941,0.867-1.377,1.322
					c-3.562,3.693-5.984,8.613-6.822,13.848c-0.012,0.072-0.08,0.139-0.168,0.139c-0.09-0.006-0.154-0.08-0.158-0.16
					c-0.146-2.551,0.236-5.219,1.107-7.698c0.975-2.785,2.568-5.373,4.607-7.486c0.277-0.297,0.59-0.566,0.885-0.84
					c-2.453-2.082-5.266-3.742-8.258-4.871c-0.998-0.389-2.014-0.709-3.045-0.973c-0.105,0.027-0.213,0.021-0.314-0.008
					c-0.359,0-0.771-0.145-1.141-0.24c0,0-0.006-0.006-0.012-0.006c-0.604-0.119-1.201-0.225-1.811-0.301h-0.008
					c-0.365-0.041-0.703-0.041-1.062-0.047c-0.158,0-0.307-0.061-0.453-0.111c-0.719-0.053-1.428-0.09-2.152-0.09
					c-2.707,0-5.387,0.385-7.953,1.152c-4.916,1.459-9.498,4.414-12.885,8.316c-2.695,3.1-4.689,6.812-5.766,10.732
					c-0.252,0.928-0.465,1.877-0.629,2.848c-0.068,0.484-0.105,0.988-0.158,1.484c-0.047,0.465-0.125,0.938-0.148,1.407
					c-0.045,0.662-0.027,1.315-0.014,1.99c0.008,0.31-0.02,0.614-0.002,0.924c0.021,0.535,0.101,1.047,0.148,1.586
					c0.043,0.197,0.082,0.402,0.135,0.595c-0.012,0.211-0.006,0.432,0,0.633c0.008,0.078,0.008,0.164,0.02,0.242
					c0.562,3.659,1.928,7.272,3.945,10.479c1.74,2.764,4.021,5.248,6.605,7.27c2.609-1.08,5.568-1.43,8.342-0.996
					c0.041-0.705,0.119-1.41,0.26-2.102c0.498-2.484,1.688-4.893,3.35-6.771c1.494-1.701,3.367-3.026,5.418-3.819
					c0.08-0.031,0.17,0.006,0.201,0.079c0.043,0.078,0.025,0.164-0.043,0.216c-3.602,2.58-6.145,6.478-6.982,10.69
					c-0.867,4.232-0.041,8.808,2.26,12.562c0.045,0.074,0.021,0.164-0.039,0.215c-0.029,0.025-0.062,0.039-0.104,0.039
					c-0.045,0-0.078-0.02-0.115-0.053c-1.586-1.523-2.801-3.473-3.516-5.625c-0.52-1.611-0.736-3.307-0.689-4.998
					c-0.02-0.006-0.029,0-0.047,0l0.047-0.051c0,0-0.643-0.015-1.652,0.069c-0.846,0.046-1.676,0.169-2.488,0.354
					c-4.807,0.918-12.053,3.861-12.031,13.186c-0.045,1.123,0.035,2.252,0.266,3.352c0.035,0.146,0.074,0.322,0.137,0.537
					c0.051,0.226,0.131,0.427,0.209,0.617l42.764,1.533c-0.209-1.027-0.34-2.076-0.34-3.158c0-8.967,7.271-16.244,16.235-16.244
					c5.635,0,10.598,2.877,13.508,7.232c3.383-8.541,11.697-14.6,21.439-14.6c1.365,0,2.701,0.137,3.998,0.367
					c0.301-0.101,0.605-0.183,0.918-0.281C177.822,157.943,173.619,156.951,169.182,156.951z M177.426,132.299l0.617-0.273
					c-0.332,0.158-0.631,0.334-0.949,0.504L177.426,132.299z M98.853,153.4c-6.201-2.316-10.611-8.275-10.611-15.289
					c0-9.021,7.312-16.338,16.332-16.338c5.109,0,9.668,2.348,12.66,6.014c-4.408,4.945-7.414,11.156-8.469,17.998
					C104.867,147.488,101.47,150.125,98.853,153.4z M110.607,154.012c-0.041-0.02-0.098-0.02-0.137-0.025
					c0.096-0.071,0.195-0.129,0.289-0.2C110.708,153.865,110.66,153.934,110.607,154.012z M111.773,171.252
					c-3.07-5.455-2.617-12.035,2.707-17.211c1.734-1.691,3.852-2.354,5.947-2.164c1.779,3.084,4.283,5.625,7.238,7.729
					C120.613,160.543,114.701,165.043,111.773,171.252z"/>
				<path fill="#ADD3F0" d="M221.057,166.551c6.228,2.109,11.525,6.227,15.117,11.584c-0.188-0.998-0.283-2.039-0.283-3.104
					c0-9.328,7.562-16.893,16.896-16.893c9.323,0,16.896,7.563,16.896,16.893c0,3.811-1.279,7.301-3.397,10.127
					c0.725-0.027,1.461-0.047,2.19-0.072c0.451-0.018,0.906-0.031,1.359-0.049l0.539-0.02c0.254-0.013,0.572-0.05,0.873-0.029
					l1.562-0.062l0.465-1.11c0.129-0.353,0.289-0.762,0.424-1.181c0-0.01,0-0.016,0-0.016c0.045-0.315,0.17-0.64,0.271-0.966
					c0.048-0.139,0.08-0.276,0.113-0.422c0.071-0.262,0.125-0.528,0.183-0.805c0.043-0.213,0.092-0.436,0.125-0.648
					c0.051-0.27,0.079-0.553,0.112-0.831c0.024-0.218,0.062-0.435,0.08-0.654c0.024-0.289,0.039-0.563,0.053-0.854
					c0.011-0.209,0.031-0.424,0.031-0.637c0.006-0.297,0-0.592-0.013-0.893c-0.006-0.201,0-0.402-0.01-0.613
					c-0.01-0.295-0.047-0.602-0.074-0.898c-0.022-0.192-0.036-0.396-0.057-0.598c-0.037-0.316-0.102-0.637-0.147-0.955
					c-0.041-0.17-0.06-0.346-0.091-0.516c-0.102-0.488-0.221-0.982-0.352-1.461c-1.273-4.59-4.287-8.75-8.266-11.416
					c-0.541-0.373-1.096-0.707-1.666-1.014c-0.15-0.078-0.291-0.146-0.439-0.217c-0.441-0.228-0.885-0.445-1.338-0.64
					c-0.141-0.062-0.293-0.121-0.439-0.176c-0.577-0.232-1.155-0.443-1.743-0.619c-0.937-0.283-1.888-0.49-2.851-0.638
					c-1.965-0.293-3.977-0.444-5.953-0.207c-0.924,0.109-1.836,0.285-2.731,0.519c-0.916,0.231-1.815,0.529-2.688,0.89
					c-1.756,0.7-3.424,1.633-4.922,2.774c-0.08,0.056-0.174,0.049-0.227-0.024c-0.062-0.064-0.055-0.166,0.016-0.224
					c3.178-2.851,7.291-4.676,11.611-5.187c-0.543-2.504-1.643-4.823-3.217-6.764c-1.863-2.305-4.418-4.086-7.195-5.012
					c-1.584-0.535-3.24-0.809-4.938-0.809c-1.304,0-2.595,0.166-3.834,0.477c-2.459,0.617-4.752,1.83-6.701,3.525
					c0.147,0.307,0.289,0.623,0.432,0.936c1.33,3.076,2.135,6.445,2.328,9.744c0,0.086-0.062,0.164-0.148,0.18
					c-0.006,0-0.006-0.006-0.012-0.006c0,0-0.002,0.006-0.008,0.006c-0.07,0-0.145-0.051-0.158-0.129
					c-1.516-6.678-4.982-12.971-9.756-17.738c-0.545-0.551-1.125-1.088-1.711-1.596c-0.318-0.285-0.658-0.547-0.98-0.818
					c-0.254-0.213-0.506-0.414-0.764-0.61c-0.459-0.359-0.941-0.709-1.422-1.043c-0.105-0.07-0.221-0.148-0.334-0.229
					c-0.578-0.385-1.158-0.77-1.76-1.119l0,0c6.703,5.174,11.037,13.269,11.037,22.398c0,3.711-0.717,7.248-2.021,10.49
					C221.109,166.564,221.084,166.559,221.057,166.551z M236.244,143.502c5.865,0,10.623,4.693,10.736,10.539
					c-0.812,0.162-1.638,0.26-2.492,0.26c-6.004,0-10.961-4.414-11.838-10.17C233.771,143.729,234.98,143.502,236.244,143.502z"/>
			</g>
			<path fill="#231F20" d="M277.805,169.787c-1.541-5.543-5.197-10.49-10.025-13.566c-3.836-2.492-8.608-3.846-13.186-3.746
				c-0.369-2.34-1.258-4.631-2.555-6.584c-0.727-1.102-1.604-2.121-2.605-3.051c1.5-4.213,1.857-8.887,1.008-13.275
				c-1.1-5.877-4.446-11.416-9.176-15.203c-4.479-3.643-10.352-5.729-16.104-5.729c-0.254,0-0.506,0-0.713,0.016
				c-4.322,0.094-8.678,1.363-12.389,3.594c-1.218-1.404-2.588-2.637-4.066-3.664c-0.963-0.682-2.01-1.291-3.115-1.83
				c-0.146-0.078-0.295-0.14-0.49-0.214c-0.397-0.184-0.789-0.354-1.334-0.562l-0.348-0.129c-2.4-0.852-4.816-1.309-7.182-1.34
				c-0.037-0.164-0.064-0.336-0.105-0.518c-0.164-0.844-0.334-1.717-0.578-2.566c-0.537-2.004-1.273-3.965-2.172-5.811
				c-1.883-3.916-4.596-7.533-7.836-10.445c-3.443-3.105-7.584-5.527-11.973-6.992c-4.588-1.543-9.539-2.086-14.402-1.596
				c-7.609,0.752-15.074,4.27-20.495,9.643c-4.516,4.426-7.75,10.15-9.201,16.262c-3.799-0.334-7.785,0.838-10.84,3.178
				c-1.992,1.498-3.639,3.476-4.746,5.736c-0.506,1.014-0.896,2.121-1.166,3.254c-4.58-0.932-9.471-0.758-13.984,0.479
				c-5.693,1.553-10.988,4.889-14.891,9.387c-3.109,3.57-5.359,7.854-6.519,12.389c-1.113,4.332-1.25,8.949-0.396,13.346
				c0.787,4.121,2.504,8.127,4.955,11.588c1.383,1.951,3.059,3.779,4.912,5.375c-2.094,1.326-3.883,3.127-5.166,5.209
				c-2.234,3.557-3.005,7.975-2.109,12.129c0.107,0.453,0.205,0.85,0.348,1.318c0.045,0.172,0.09,0.334,0.227,0.684l0.195,0.572
				h28.627v-0.016h19.107l-0.211-0.592h-0.631c-0.025-0.062-0.07-0.111-0.139-0.111l-43.24-1.553
				c-0.078-0.191-0.158-0.394-0.209-0.617c-0.062-0.215-0.102-0.391-0.137-0.537c-0.23-1.1-0.311-2.229-0.266-3.352
				c-0.021-9.324,7.225-12.269,12.031-13.187c0.812-0.187,1.643-0.31,2.488-0.354c1.01-0.084,1.652-0.07,1.652-0.07
				s-0.047,0.052,0,0.052c-0.047,1.69,0.17,3.387,0.689,4.998c0.715,2.151,1.93,4.103,3.516,5.625
				c0.037,0.032,0.07,0.053,0.115,0.053c0.041,0,0.074-0.014,0.104-0.039c0.061-0.051,0.084-0.141,0.039-0.215
				c-2.301-3.756-3.127-8.33-2.26-12.562c0.838-4.215,3.381-8.111,6.982-10.691c0.068-0.051,0.086-0.137,0.043-0.215
				c-0.031-0.074-0.121-0.111-0.201-0.08c-2.051,0.793-3.924,2.119-5.418,3.82c-1.662,1.879-2.852,4.287-3.35,6.771
				c-0.141,0.69-0.219,1.396-0.26,2.103c-2.773-0.435-5.732-0.084-8.342,0.996c-2.584-2.021-4.865-4.506-6.605-7.271
				c-2.018-3.205-3.383-6.817-3.945-10.479c-0.617-3.897-0.39-7.944,0.648-11.709c1.076-3.92,3.07-7.633,5.766-10.731
				c3.387-3.902,7.969-6.857,12.885-8.316c2.566-0.768,5.246-1.152,7.953-1.152c2.252,0,4.479,0.266,6.639,0.795
				c0.102,0.029,0.209,0.035,0.314,0.008c4.125,1.051,8.037,3.074,11.303,5.844c-0.295,0.273-0.607,0.543-0.885,0.84
				c-2.039,2.113-3.633,4.701-4.607,7.486c-0.871,2.48-1.254,5.148-1.107,7.699c0.004,0.08,0.068,0.154,0.158,0.16
				c0.088,0,0.156-0.066,0.168-0.14c0.838-5.233,3.26-10.154,6.822-13.848c3.518-3.695,8.326-6.326,13.537-7.393
				c0.08-0.027,0.139-0.1,0.133-0.18c-0.006-0.09-0.082-0.15-0.17-0.15c-2.535-0.045-5.201,0.451-7.637,1.428
				c-2.262,0.893-4.357,2.229-6.186,3.846c-3.129-3.084-7.023-5.402-11.25-6.705c-0.016-0.021-0.047-0.021-0.072-0.035
				c1.229-3.387,3.387-6.371,6.18-8.471c2.82-2.146,6.34-3.404,9.959-3.593c-0.359,2.25-0.479,4.548-0.348,6.837
				c0,0.078,0.074,0.152,0.158,0.152c0.09,0,0.164-0.074,0.164-0.168c0.035-2.25,0.301-4.494,0.775-6.664
				c0.08-0.059,0.137-0.158,0.16-0.262c1.387-6.17,4.703-11.949,9.352-16.262c5.01-4.699,11.492-7.652,18.283-8.32
				c1.072-0.117,2.168-0.17,3.24-0.17c3.256,0,6.465,0.488,9.529,1.467c3.916,1.236,7.658,3.293,10.809,5.955
				c3.015,2.525,5.599,5.682,7.474,9.117c0.909,1.662,1.678,3.408,2.286,5.199c0.271,0.75,0.472,1.543,0.675,2.305
				c0.192,0.713,0.401,1.445,0.646,2.15c-4.129,0.304-8.129,1.927-11.244,4.576c-0.063,0.059-0.076,0.158-0.026,0.223
				c0.051,0.072,0.146,0.094,0.221,0.049c3.324-2.104,7.287-3.279,11.134-3.305h0.291c2.485,0,4.957,0.471,7.278,1.346
				c0.636,0.254,1.258,0.529,1.869,0.824c0.512,0.254,1.021,0.535,1.528,0.826c0.373,0.221,0.744,0.465,1.109,0.713
				c3.516,2.451,6.23,6.02,7.652,10.055c1.219,3.438,1.506,7.289,0.85,10.945c-0.982-0.566-1.988-1.082-3.02-1.535
				c-3.074-1.342-6.447-2.146-9.752-2.35c-0.08,0-0.154,0.059-0.168,0.145c-0.012,0.078,0.043,0.164,0.127,0.176
				c6.672,1.531,12.957,5.011,17.713,9.798c4.773,4.769,8.24,11.062,9.756,17.738c0.014,0.078,0.088,0.129,0.178,0.129
				c0.086-0.016,0.148-0.094,0.148-0.18c-0.193-3.299-0.998-6.668-2.328-9.744c-0.143-0.312-0.283-0.629-0.432-0.936
				c1.949-1.695,4.242-2.908,6.701-3.525c1.239-0.311,2.53-0.477,3.834-0.477c1.696,0,3.354,0.272,4.938,0.809
				c2.777,0.926,5.332,2.707,7.195,5.012c1.574,1.939,2.674,4.26,3.217,6.764c-4.32,0.511-8.434,2.337-11.611,5.187
				c-0.07,0.058-0.078,0.158-0.016,0.224c0.053,0.074,0.146,0.08,0.227,0.024c2.986-2.278,6.615-3.723,10.342-4.182
				c1.978-0.238,3.988-0.087,5.953,0.207c1.891,0.278,3.75,0.834,5.49,1.625c1.035,0.467,2.043,1.026,2.986,1.676
				c3.979,2.666,6.992,6.826,8.266,11.416c1.062,3.762,1,7.883-0.176,11.59c-0.148,0.488-0.316,0.959-0.475,1.354l-0.465,1.111
				l-42.171,1.467c-0.071,0.008-0.12,0.06-0.146,0.119h-0.623l-0.209,0.592h43.273v0.017h3.071l0.869-1.832
				c0.198-0.474,0.422-1.041,0.603-1.595C278.965,179.264,279.078,174.314,277.805,169.787z M246.611,143.18
				c-1.256-0.918-2.646-1.656-4.111-2.141c-1.547-0.518-3.166-0.787-4.826-0.787c-1.715,0-3.457,0.295-5.023,0.857
				c-2.549,0.897-4.809,2.504-6.459,4.555c-1.444-2.902-3.391-5.627-5.705-7.961c-1.774-1.773-3.791-3.324-5.938-4.617
				c1.242-3.701,1.336-7.801,0.26-11.633c-0.608-2.168-1.61-4.246-2.928-6.121c3.609-2.002,7.76-3.098,11.826-3.098
				c0.264,0,0.521,0,0.781,0.008c5.172,0.139,10.234,2,14.24,5.248c4.043,3.248,6.949,7.789,8.184,12.787
				C247.967,134.475,247.85,139.02,246.611,143.18z"/>
		</g>
	</g>
</g>
</svg>
