<?xml version="1.0" encoding="utf-8"?>
<!-- Generator: Adobe Illustrator 15.0.2, SVG Export Plug-In . SVG Version: 6.00 Build 0)  -->
<!DOCTYPE svg PUBLIC "-//W3C//DTD SVG 1.1//EN" "http://www.w3.org/Graphics/SVG/1.1/DTD/svg11.dtd">
<svg version="1.1" id="Layer_1" xmlns="http://www.w3.org/2000/svg" xmlns:xlink="http://www.w3.org/1999/xlink" x="0px" y="0px"
	 width="280px" height="260px" viewBox="0 0 280 260" enable-background="new 0 0 280 260" xml:space="preserve">
<g>
	<g>
		<path fill="#3479BE" d="M34.047,147.27c34.459,1.498,74.74,2.365,117.777,2.365c43.047,0,83.324-0.867,117.779-2.365
			c-34.455-1.498-74.732-2.354-117.779-2.354C108.787,144.914,68.506,145.771,34.047,147.27z"/>
		<path fill="#3479BE" d="M31.568,140.309c35.408,1.496,76.793,2.359,121.021,2.359c44.229,0,85.614-0.863,121.021-2.359
			c-35.404-1.504-76.791-2.358-121.021-2.358C108.361,137.947,66.976,138.805,31.568,140.309z"/>
		<path fill="#3479BE" d="M35.408,133.342c35.326,1.498,76.623,2.359,120.746,2.359c44.139,0,85.434-0.861,120.762-2.359
			c-35.328-1.504-76.623-2.367-120.762-2.367C112.031,130.975,70.734,131.838,35.408,133.342z"/>
		<path fill="#3479BE" d="M19.951,126.379c37.797,1.494,81.967,2.359,129.178,2.359c47.209,0,91.383-0.865,129.178-2.359
			c-37.795-1.502-81.969-2.363-129.178-2.363C101.918,124.016,57.748,124.877,19.951,126.379z"/>
		<path fill="#3479BE" d="M10.278,119.406c38.025,1.506,82.461,2.367,129.955,2.367c47.496,0,91.934-0.861,129.953-2.367
			c-38.021-1.498-82.457-2.357-129.953-2.357C92.739,117.049,48.304,117.908,10.278,119.406z"/>
		<path fill="#3479BE" d="M10.067,112.447c37.402,1.492,81.135,2.359,127.86,2.359c46.728,0,90.454-0.867,127.858-2.359
			c-37.404-1.498-81.131-2.365-127.858-2.365C91.202,110.082,47.47,110.949,10.067,112.447z"/>
		<path fill="#3479BE" d="M4.262,105.48c39.813,1.502,86.359,2.361,136.095,2.361c49.739,0,96.282-0.859,136.093-2.361
			c-39.812-1.498-86.354-2.359-136.093-2.359C90.622,103.121,44.076,103.982,4.262,105.48z"/>
		<path fill="#3479BE" d="M1.497,98.514c38.748,1.498,84.036,2.359,132.432,2.359c48.405,0,93.685-0.861,132.436-2.359
			c-38.752-1.498-84.029-2.365-132.436-2.365C85.533,96.148,40.245,97.016,1.497,98.514z"/>
		<path fill="#3479BE" d="M19.391,91.547c33.574,1.504,72.814,2.367,114.75,2.367c41.942,0,81.177-0.863,114.736-2.367
			c-33.559-1.498-72.794-2.354-114.736-2.354C92.206,89.193,52.966,90.049,19.391,91.547z"/>
		<path fill="#3479BE" d="M19.991,84.588c32.354,1.496,70.178,2.357,110.596,2.357c40.42,0,78.24-0.861,110.578-2.357
			c-32.338-1.506-70.157-2.363-110.578-2.363C90.169,82.225,52.345,83.082,19.991,84.588z"/>
		<path fill="#3479BE" d="M6.642,77.619c35.393,1.498,76.771,2.359,120.984,2.359c44.224,0,85.597-0.861,121-2.359
			c-35.403-1.498-76.776-2.359-121-2.359C83.414,75.26,42.035,76.121,6.642,77.619z"/>
		<path fill="#3479BE" d="M25.597,70.658c30.236,1.496,65.559,2.355,103.316,2.355c37.756,0,73.095-0.859,103.323-2.355
			c-30.229-1.502-65.566-2.365-103.323-2.365S55.834,69.156,25.597,70.658z"/>
		<path fill="#3479BE" d="M51.159,63.686c23.217,1.504,50.35,2.367,79.348,2.367c29.004,0,56.138-0.863,79.354-2.367
			c-23.217-1.5-50.352-2.359-79.354-2.359C101.509,61.326,74.376,62.186,51.159,63.686z"/>
		<path fill="#3479BE" d="M55.432,56.725c20.506,1.492,44.475,2.361,70.092,2.361c25.619,0,49.591-0.869,70.102-2.361
			c-20.511-1.498-44.481-2.359-70.102-2.359C99.907,54.365,75.938,55.227,55.432,56.725z"/>
		<path fill="#3479BE" d="M54.323,49.76c19.006,1.498,41.23,2.365,64.973,2.365c23.746,0,45.959-0.867,64.97-2.365
			c-19.011-1.5-41.225-2.357-64.97-2.357C95.554,47.402,73.329,48.26,54.323,49.76z"/>
		<path fill="#3479BE" d="M60.983,42.797c18.033,1.498,39.117,2.355,61.642,2.355c22.533,0,43.611-0.857,61.648-2.355
			c-18.037-1.504-39.115-2.361-61.648-2.361C100.1,40.436,79.016,41.293,60.983,42.797z"/>
		<path fill="#3479BE" d="M77.287,35.83c14.436,1.498,31.307,2.365,49.345,2.365c18.032,0,34.904-0.867,49.341-2.365
			c-14.438-1.498-31.31-2.359-49.341-2.359C108.594,33.471,91.722,34.332,77.287,35.83z"/>
		<path fill="#3479BE" d="M92.42,28.865c9.641,1.502,20.899,2.363,32.937,2.363c12.039,0,23.303-0.861,32.941-2.363
			c-9.64-1.504-20.903-2.361-32.941-2.361S102.06,27.361,92.42,28.865z"/>
	</g>
	<g>
		<path fill="#D4DAE6" d="M53.7,248.918c-1.064,0-2.146-0.205-3.191-0.641c-4.244-1.762-6.258-6.633-4.494-10.881l1.598-3.84
			c1.762-4.248,6.635-6.263,10.881-4.498c4.248,1.762,6.258,6.633,4.496,10.881l-1.598,3.846
			C60.061,246.986,56.964,248.918,53.7,248.918z M64.876,222.008c-1.064,0-2.145-0.209-3.189-0.641
			c-4.248-1.762-6.258-6.633-4.496-10.881l6.385-15.377c1.762-4.248,6.633-6.26,10.885-4.498c4.242,1.768,6.258,6.639,4.494,10.881
			l-6.387,15.383C71.239,220.076,68.141,222.008,64.876,222.008z"/>
		<path fill="#D4DAE6" d="M86.221,248.918c-1.066,0-2.145-0.205-3.193-0.641c-4.242-1.762-6.258-6.633-4.49-10.881l1.592-3.84
			c1.766-4.248,6.637-6.263,10.883-4.498c4.246,1.762,6.262,6.633,4.494,10.881l-1.592,3.846
			C92.585,246.986,89.485,248.918,86.221,248.918z M97.399,222.008c-1.064,0-2.146-0.209-3.195-0.641
			c-4.242-1.762-6.252-6.633-4.494-10.881l6.387-15.377c1.764-4.248,6.629-6.26,10.881-4.498c4.248,1.768,6.264,6.639,4.496,10.881
			l-6.387,15.383C103.759,220.076,100.661,222.008,97.399,222.008z"/>
		<path fill="#D4DAE6" d="M118.743,248.918c-1.064,0-2.146-0.205-3.191-0.641c-4.248-1.762-6.258-6.633-4.496-10.881l1.596-3.84
			c1.766-4.248,6.639-6.263,10.885-4.498c4.244,1.762,6.258,6.633,4.496,10.881l-1.596,3.846
			C125.104,246.986,122.007,248.918,118.743,248.918z M129.919,222.008c-1.062,0-2.145-0.209-3.191-0.641
			c-4.246-1.762-6.26-6.633-4.494-10.881l6.387-15.377c1.76-4.248,6.631-6.26,10.879-4.498c4.248,1.768,6.26,6.639,4.498,10.881
			l-6.383,15.383C136.28,220.076,133.184,222.008,129.919,222.008z"/>
		<path fill="#D4DAE6" d="M151.264,248.918c-1.062,0-2.146-0.205-3.188-0.641c-4.248-1.762-6.258-6.633-4.498-10.881l1.599-3.84
			c1.767-4.248,6.634-6.263,10.882-4.498c4.248,1.762,6.262,6.633,4.498,10.881l-1.6,3.846
			C157.624,246.986,154.529,248.918,151.264,248.918z M162.438,222.008c-1.059,0-2.143-0.209-3.188-0.641
			c-4.248-1.762-6.26-6.633-4.498-10.881l6.387-15.377c1.766-4.248,6.629-6.26,10.883-4.498c4.248,1.768,6.263,6.639,4.498,10.881
			l-6.389,15.383C168.805,220.076,165.702,222.008,162.438,222.008z"/>
		<path fill="#D4DAE6" d="M183.784,248.918c-1.062,0-2.146-0.205-3.19-0.641c-4.246-1.762-6.261-6.633-4.494-10.881l1.602-3.84
			c1.762-4.248,6.633-6.263,10.881-4.498c4.244,1.762,6.258,6.633,4.498,10.881l-1.604,3.846
			C190.146,246.986,187.051,248.918,183.784,248.918z M194.963,222.008c-1.064,0-2.146-0.209-3.188-0.641
			c-4.248-1.762-6.269-6.633-4.498-10.881l6.387-15.377c1.766-4.248,6.629-6.26,10.884-4.498c4.241,1.768,6.257,6.639,4.497,10.881
			l-6.391,15.383C201.323,220.076,198.225,222.008,194.963,222.008z"/>
		<path fill="#D4DAE6" d="M216.27,248.918c-1.062,0-2.146-0.205-3.188-0.641c-4.248-1.762-6.264-6.633-4.496-10.881l1.596-3.84
			c1.764-4.248,6.635-6.263,10.883-4.498c4.246,1.762,6.261,6.633,4.496,10.881l-1.597,3.846
			C222.633,246.986,219.532,248.918,216.27,248.918z M227.445,222.008c-1.062,0-2.146-0.209-3.189-0.641
			c-4.246-1.762-6.257-6.633-4.496-10.881l6.385-15.377c1.77-4.248,6.633-6.26,10.883-4.498c4.246,1.768,6.264,6.639,4.494,10.881
			l-6.383,15.383C233.805,220.076,230.713,222.008,227.445,222.008z"/>
	</g>
	<g>
		<path fill="#231F20" d="M68.841,212.979c0.188-3.658,1.984-11.242,3.424-17.496c-3.494,5.562-7.629,12.229-10.119,14.979H62.14
			c-0.217,0.271-0.41,0.582-0.555,0.937c-0.793,1.92,0.125,4.123,2.047,4.922c1.924,0.805,4.133-0.113,4.932-2.039
			C68.739,213.852,68.827,213.416,68.841,212.979L68.841,212.979z"/>
		<path fill="#FFFFFF" d="M65.38,212.854c0.074-1.461,0.787-4.487,1.361-6.994c-1.395,2.229-3.049,4.896-4.047,5.986l0,0
			c-0.088,0.113-0.164,0.232-0.223,0.375c-0.314,0.771,0.049,1.658,0.82,1.971c0.768,0.316,1.652-0.045,1.969-0.811
			C65.335,213.205,65.368,213.029,65.38,212.854L65.38,212.854z"/>
	</g>
	<g>
		<path fill="#231F20" d="M56.946,232.469c-1.971,2.09-3.965,3.875-5.781,5.205v0.006c-0.455,0.379-0.822,0.867-1.066,1.451
			c-0.797,1.92,0.119,4.135,2.041,4.932c1.926,0.793,4.133-0.123,4.932-2.043c0.277-0.664,0.34-1.371,0.238-2.035
			C56.995,237.811,56.856,235.223,56.946,232.469z"/>
		<path fill="#FFFFFF" d="M54.009,237.092c-0.789,0.832-1.586,1.545-2.312,2.078l0,0c-0.182,0.146-0.33,0.346-0.428,0.578
			c-0.318,0.775,0.047,1.658,0.818,1.982c0.77,0.313,1.654-0.06,1.971-0.822c0.113-0.271,0.139-0.543,0.096-0.814
			C54.028,239.221,53.971,238.189,54.009,237.092z"/>
	</g>
	<g>
		<path fill="#231F20" d="M101.448,212.979c0.188-3.658,1.982-11.242,3.416-17.496c-3.488,5.562-7.627,12.229-10.113,14.979h-0.008
			c-0.217,0.271-0.408,0.582-0.551,0.937c-0.799,1.92,0.119,4.123,2.045,4.922c1.926,0.805,4.129-0.113,4.932-2.039
			C101.346,213.852,101.432,213.416,101.448,212.979L101.448,212.979z"/>
		<path fill="#FFFFFF" d="M97.981,212.854c0.072-1.461,0.793-4.487,1.365-6.994c-1.398,2.229-3.047,4.896-4.043,5.986l0,0
			c-0.092,0.113-0.17,0.232-0.227,0.375c-0.32,0.771,0.047,1.658,0.82,1.971c0.766,0.316,1.652-0.045,1.969-0.811
			C97.936,213.205,97.977,213.029,97.981,212.854L97.981,212.854z"/>
	</g>
	<g>
		<path fill="#231F20" d="M89.548,232.469c-1.967,2.09-3.965,3.875-5.777,5.205v0.006c-0.453,0.379-0.82,0.867-1.066,1.451
			c-0.797,1.92,0.119,4.135,2.041,4.932c1.926,0.793,4.135-0.123,4.932-2.043c0.277-0.664,0.34-1.371,0.24-2.035
			C89.595,237.811,89.46,235.223,89.548,232.469z"/>
		<path fill="#FFFFFF" d="M86.608,237.092c-0.781,0.832-1.582,1.545-2.311,2.078l0,0c-0.182,0.146-0.326,0.346-0.424,0.578
			c-0.318,0.775,0.045,1.658,0.82,1.982c0.768,0.313,1.65-0.06,1.965-0.822c0.113-0.271,0.137-0.543,0.098-0.814
			C86.632,239.221,86.581,238.189,86.608,237.092z"/>
	</g>
	<g>
		<path fill="#231F20" d="M134.057,212.979c0.18-3.658,1.979-11.242,3.412-17.496c-3.49,5.562-7.621,12.229-10.113,14.979h-0.006
			c-0.221,0.271-0.41,0.582-0.549,0.937c-0.799,1.92,0.113,4.123,2.039,4.922c1.928,0.805,4.131-0.113,4.934-2.039
			C133.948,213.852,134.036,213.416,134.057,212.979L134.057,212.979z"/>
		<path fill="#FFFFFF" d="M130.587,212.854c0.076-1.461,0.791-4.487,1.363-6.994c-1.395,2.229-3.047,4.896-4.045,5.986l0,0
			c-0.09,0.113-0.166,0.232-0.221,0.375c-0.32,0.771,0.045,1.658,0.816,1.971c0.77,0.316,1.652-0.045,1.971-0.811
			C130.542,213.205,130.575,213.029,130.587,212.854L130.587,212.854z"/>
	</g>
	<g>
		<path fill="#231F20" d="M122.157,232.469c-1.973,2.09-3.965,3.875-5.781,5.205v0.006c-0.455,0.379-0.818,0.867-1.066,1.451
			c-0.797,1.92,0.117,4.135,2.043,4.932c1.924,0.793,4.133-0.123,4.928-2.043c0.273-0.664,0.34-1.371,0.238-2.035
			C122.202,237.811,122.065,235.223,122.157,232.469z"/>
		<path fill="#FFFFFF" d="M119.218,237.092c-0.789,0.832-1.586,1.545-2.314,2.078l0,0c-0.178,0.146-0.326,0.346-0.422,0.578
			c-0.322,0.775,0.045,1.658,0.814,1.982c0.771,0.313,1.654-0.06,1.973-0.822c0.113-0.271,0.135-0.543,0.092-0.814
			C119.239,239.221,119.182,238.189,119.218,237.092z"/>
	</g>
	<g>
		<path fill="#231F20" d="M166.659,212.979c0.185-3.658,1.981-11.242,3.416-17.496c-3.49,5.562-7.627,12.229-10.117,14.979h-0.002
			c-0.222,0.271-0.409,0.582-0.554,0.937c-0.799,1.92,0.119,4.123,2.041,4.922c1.931,0.805,4.134-0.113,4.936-2.039
			C166.555,213.852,166.641,213.416,166.659,212.979L166.659,212.979z"/>
		<path fill="#FFFFFF" d="M163.189,212.854c0.076-1.461,0.795-4.487,1.367-6.994c-1.397,2.229-3.053,4.896-4.049,5.986l0,0
			c-0.088,0.113-0.168,0.232-0.225,0.375c-0.316,0.771,0.049,1.658,0.82,1.971c0.766,0.316,1.65-0.045,1.971-0.811
			C163.146,213.205,163.18,213.029,163.189,212.854L163.189,212.854z"/>
	</g>
	<g>
		<path fill="#231F20" d="M154.76,232.469c-1.97,2.09-3.963,3.875-5.777,5.205v0.006c-0.453,0.379-0.818,0.867-1.062,1.451
			c-0.803,1.92,0.113,4.135,2.041,4.932c1.924,0.793,4.133-0.123,4.926-2.043c0.279-0.664,0.344-1.371,0.238-2.035
			C154.809,237.811,154.669,235.223,154.76,232.469z"/>
	</g>
	<path fill="#FFFFFF" d="M151.82,237.092c-0.782,0.832-1.586,1.545-2.312,2.078l0,0c-0.183,0.146-0.324,0.346-0.427,0.578
		c-0.313,0.775,0.046,1.658,0.817,1.982c0.771,0.313,1.65-0.06,1.97-0.822c0.114-0.271,0.14-0.543,0.097-0.814
		C151.844,239.221,151.788,238.189,151.82,237.092z"/>
	<g>
		<path fill="#231F20" d="M199.264,212.979c0.187-3.658,1.984-11.242,3.412-17.496c-3.48,5.562-7.623,12.229-10.107,14.979h-0.014
			c-0.215,0.271-0.406,0.582-0.551,0.937c-0.793,1.92,0.119,4.123,2.045,4.922c1.926,0.805,4.135-0.113,4.936-2.039
			C199.159,213.852,199.251,213.416,199.264,212.979L199.264,212.979z"/>
		<path fill="#FFFFFF" d="M195.797,212.854c0.071-1.461,0.793-4.487,1.362-6.994c-1.394,2.229-3.048,4.896-4.043,5.986l0,0
			c-0.087,0.113-0.164,0.232-0.222,0.375c-0.319,0.771,0.045,1.658,0.818,1.971c0.764,0.316,1.646-0.045,1.969-0.811
			C195.749,213.205,195.786,213.029,195.797,212.854L195.797,212.854z"/>
	</g>
	<g>
		<path fill="#231F20" d="M187.364,232.469c-1.97,2.09-3.97,3.875-5.781,5.205v0.006c-0.448,0.379-0.819,0.867-1.063,1.451
			c-0.799,1.92,0.117,4.135,2.045,4.932c1.92,0.793,4.129-0.123,4.922-2.043c0.283-0.664,0.348-1.371,0.244-2.035
			C187.413,237.811,187.275,235.223,187.364,232.469z"/>
		<path fill="#FFFFFF" d="M184.428,237.092c-0.787,0.832-1.586,1.545-2.312,2.078l0,0c-0.181,0.146-0.326,0.346-0.429,0.578
			c-0.317,0.775,0.047,1.658,0.819,1.982c0.767,0.313,1.647-0.06,1.972-0.822c0.105-0.271,0.138-0.543,0.095-0.814
			C184.445,239.221,184.393,238.189,184.428,237.092z"/>
	</g>
	<g>
		<path fill="#231F20" d="M231.456,212.979c0.183-3.658,1.981-11.242,3.416-17.496c-3.489,5.562-7.627,12.229-10.118,14.979h-0.007
			c-0.22,0.271-0.403,0.582-0.549,0.937c-0.798,1.92,0.116,4.123,2.043,4.922c1.924,0.805,4.133-0.113,4.933-2.039
			C231.348,213.852,231.432,213.416,231.456,212.979L231.456,212.979z"/>
		<path fill="#FFFFFF" d="M227.986,212.854c0.072-1.461,0.789-4.487,1.367-6.994c-1.397,2.229-3.055,4.896-4.049,5.986l0,0
			c-0.094,0.113-0.166,0.232-0.225,0.375c-0.314,0.771,0.047,1.658,0.814,1.971c0.775,0.316,1.65-0.045,1.977-0.811
			C227.943,213.205,227.977,213.029,227.986,212.854L227.986,212.854z"/>
	</g>
	<g>
		<path fill="#231F20" d="M219.555,232.469c-1.969,2.09-3.963,3.875-5.775,5.205v0.006c-0.452,0.379-0.823,0.867-1.069,1.451
			c-0.797,1.92,0.119,4.135,2.046,4.932c1.928,0.793,4.129-0.123,4.93-2.043c0.271-0.664,0.342-1.371,0.235-2.035
			C219.6,237.811,219.467,235.223,219.555,232.469z"/>
		<path fill="#FFFFFF" d="M216.616,237.092c-0.787,0.832-1.584,1.545-2.312,2.078l0,0c-0.182,0.146-0.326,0.346-0.428,0.578
			c-0.32,0.775,0.045,1.658,0.814,1.982c0.77,0.313,1.654-0.06,1.973-0.822c0.109-0.271,0.137-0.543,0.096-0.814
			C216.639,239.221,216.583,238.189,216.616,237.092z"/>
	</g>
	<path fill="#FFFFFF" d="M190.749,117.992c0.216,0.107,0.437,0.205,0.647,0.318c0.002-0.041,0.008-0.08,0.015-0.119
		C191.189,118.123,190.975,118.055,190.749,117.992z"/>
	<path fill="#FFFFFF" d="M173.725,114.328c4.924,0,9.65,0.816,14.072,2.299c-4.021-1.619-8.418-2.52-13.021-2.52
		c-1.941,0-3.846,0.164-5.697,0.471C170.6,114.418,172.152,114.328,173.725,114.328z"/>
	<path fill="#D4DAE6" d="M275.297,166.363c-1.779-6.4-6.011-12.127-11.604-15.701c-4.885-3.16-10.996-4.711-16.859-4.242
		c-0.217-3.172-1.291-6.338-3.062-8.988c-1.035-1.562-2.32-2.981-3.842-4.229c2.106-5.154,2.68-11.012,1.608-16.551
		c-1.278-6.83-5.172-13.271-10.672-17.672c-5.199-4.225-12.022-6.65-18.714-6.65c-0.282,0-0.562,0-0.834,0.012
		c-5.555,0.119-11.096,1.893-15.678,5.008c-1.647-2.125-3.553-3.953-5.678-5.426c-1.098-0.777-2.299-1.473-3.67-2.148
		c-0.104-0.051-0.203-0.09-0.312-0.129l-0.182-0.08c-0.453-0.203-0.912-0.402-1.377-0.584c-0.188-0.066-0.367-0.135-0.547-0.197
		c-3.169-1.133-6.453-1.688-9.671-1.523c-0.159-0.611-0.306-1.285-0.457-2.068c-0.194-1.008-0.396-2.049-0.692-3.086
		c-0.635-2.346-1.49-4.65-2.562-6.854c-2.216-4.605-5.407-8.865-9.243-12.32c-4.05-3.658-8.936-6.508-14.119-8.246
		c-5.416-1.818-11.245-2.465-16.999-1.869c-8.969,0.883-17.777,5.029-24.166,11.373c-5.734,5.619-9.693,12.971-11.195,20.775
		c-0.996-0.203-1.965-0.299-2.947-0.299c-3.873,0-7.684,1.291-10.73,3.631c-2.232,1.67-4.074,3.896-5.324,6.428
		c-0.822,1.66-1.371,3.506-1.604,5.393c-5.947-1.535-12.309-1.473-18.199,0.146c-6.684,1.818-12.885,5.732-17.467,11.012
		c-3.643,4.186-6.287,9.209-7.646,14.521c-1.309,5.095-1.471,10.509-0.463,15.668c0.924,4.832,2.932,9.521,5.803,13.576
		c2.141,3.015,4.832,5.738,7.828,7.947c-3.336,1.5-6.182,3.998-8.088,7.098c-2.51,3.992-3.367,8.953-2.361,13.599
		c0.109,0.511,0.23,0.97,0.359,1.399l0.045,0.146c0.049,0.17,0.1,0.341,0.24,0.729l0.238,0.687c0.033,0.074,0.139,0.312,0.441,0.481
		l0.168,0.09h29.838h26.68h126.117h2.338h52.805l0.988-2.021l0.387-0.9c0.227-0.539,0.479-1.189,0.695-1.854
		C276.637,177.312,276.77,171.604,275.297,166.363z"/>
	<g>
		<path fill="#ACBAD1" d="M239.76,122.807c-0.06-0.09-0.123-0.182-0.203-0.254c0.053-0.482,0.082-0.963,0.104-1.451
			c-0.027-0.271-0.078-0.543-0.119-0.814c-0.051-0.385-0.098-0.771-0.164-1.15c-0.111-0.65-0.254-1.297-0.416-1.943
			c-1.521-6.162-5.102-11.758-10.08-15.752c-4.939-4.004-11.172-6.297-17.547-6.467c-0.322-0.012-0.646-0.018-0.965-0.018
			c-5.012,0-10.133,1.359-14.57,3.822c1.613,2.312,2.855,4.871,3.604,7.545c1.33,4.707,1.209,9.771-0.313,14.336
			c2.647,1.58,5.13,3.5,7.31,5.688c2.854,2.865,5.266,6.23,7.029,9.811c2.039-2.533,4.832-4.516,7.965-5.619
			c1.936-0.686,4.078-1.049,6.194-1.049c2.039,0,4.039,0.324,5.94,0.963c1.804,0.602,3.519,1.514,5.07,2.646
			c0.23-0.777,0.422-1.57,0.586-2.363c0.027-0.141,0.055-0.277,0.082-0.418C239.73,127.848,239.896,125.322,239.76,122.807z
			 M231.602,125.236c-14.242-0.463-25.715-11.752-26.479-25.924c2.319-0.918,4.84-1.439,7.479-1.439
			c11.207,0,20.293,9.086,20.293,20.289C232.895,120.654,232.426,123.033,231.602,125.236z"/>
		<path fill="#ACBAD1" d="M32.841,139.561c-0.016-0.123-0.027-0.248-0.035-0.373c-0.006-0.006-0.006-0.012-0.006-0.021
			C32.811,139.301,32.825,139.432,32.841,139.561z"/>
		<path fill="#ACBAD1" d="M191.708,114.701c0,0.867-0.082,1.711-0.185,2.549h0.006c1.146,0.369,2.277,0.771,3.373,1.246
			c1.271,0.557,2.513,1.195,3.729,1.898c0.812-4.504,0.45-9.262-1.054-13.492c-1.75-4.967-5.103-9.369-9.437-12.387
			c-0.442-0.312-0.904-0.602-1.365-0.879c-0.623-0.354-1.246-0.707-1.881-1.02c-0.762-0.367-1.522-0.695-2.307-1.014
			c-2.859-1.082-5.912-1.66-8.973-1.66h-0.352c-4.744,0.035-9.617,1.484-13.721,4.068c0.427-0.268,0.873-0.5,1.312-0.736
			c2.48-0.924,5.155-1.457,7.961-1.457C181.46,91.818,191.708,102.061,191.708,114.701z"/>
		<path fill="#ACBAD1" d="M169.969,88.512c0.106-0.023,0.215-0.045,0.321-0.062c0.949-0.188,1.905-0.334,2.875-0.408
			c-0.306-0.877-0.562-1.768-0.797-2.645c-0.248-0.947-0.507-1.914-0.839-2.85c-0.739-2.203-1.688-4.355-2.81-6.406
			c-2.319-4.23-5.5-8.111-9.206-11.227c-3.891-3.279-8.494-5.816-13.322-7.352c-3.78-1.195-7.731-1.801-11.741-1.801
			c-1.328,0-2.676,0.068-3.99,0.203c-8.371,0.828-16.369,4.469-22.525,10.258c-5.727,5.318-9.822,12.434-11.533,20.045
			c-0.031,0.137-0.096,0.244-0.191,0.33c-0.59,2.666-0.912,5.432-0.955,8.207c0,0.107-0.09,0.197-0.201,0.197
			c-0.109,0-0.197-0.084-0.203-0.188c-0.162-2.82-0.012-5.652,0.43-8.422c-4.455,0.232-8.791,1.785-12.273,4.436
			c-3.434,2.576-6.1,6.27-7.607,10.428c0.029,0.016,0.062,0.027,0.086,0.045c0.707,0.646,2.637,0.918,3.557,1.314
			c1.246,0.549,2.457,1.16,3.631,1.846c2.406,1.41,4.664,3.109,6.633,5.08c1.557-0.701,2.848-2.254,4.463-3.062
			c4.016-2.006,8.023-3.416,12.67-3.395c0.035-0.021,0.074-0.045,0.107-0.066c-0.215-0.674-0.566-2.492-0.58-2.578
			c-0.131-0.662-0.244-1.324-0.334-2c-0.184-1.363-0.275-2.74-0.275-4.117c0-17.18,13.928-31.102,31.102-31.102
			c15.461,0,28.246,11.289,30.656,26.066C168.051,88.971,168.999,88.715,169.969,88.512z"/>
		<path fill="#ACBAD1" d="M143.172,150.068c-1.104,0-2.188,0.057-3.271,0.146c-0.008-0.401-0.027-0.803-0.027-1.205
			c0-4.26,0.774-8.325,2.173-12.094c2.932-8.564,8.663-15.18,15.901-19.275c-0.228,0.086-0.433,0.193-0.651,0.283l0.487-0.221
			c0,0-6.701,1.195-14.429,7.375c-1.229,0.986-2.479,2.096-3.745,3.348c-0.057,0.062-0.113,0.119-0.17,0.176
			c-0.617,0.617-1.234,1.27-1.848,1.953c-0.006,0.013-0.012,0.021-0.016,0.023c-0.582,0.651-1.166,1.348-1.74,2.067
			c-0.088,0.111-0.176,0.215-0.264,0.328c-0.566,0.726-1.127,1.473-1.686,2.267c-0.094,0.129-0.184,0.266-0.281,0.401
			c-0.504,0.729-0.998,1.48-1.494,2.273c-0.07,0.119-0.148,0.23-0.221,0.354c-0.527,0.854-1.039,1.756-1.547,2.687
			c-0.111,0.209-0.221,0.418-0.334,0.635c-0.516,0.963-1.018,1.953-1.502,2.996c-0.215,0.106-0.43,0.228-0.65,0.328
			c-2.805,1.239-5.863,1.887-8.936,1.887c-0.674,0-1.346-0.041-2.02-0.104c0,0,0,0-0.006,0c-4.66-0.424-8.906-2.284-12.291-5.146
			c-0.027-0.021-0.061-0.051-0.096-0.063c-5.361-4.379-8.785-11.036-8.785-18.496c0-7.816,3.773-14.732,9.584-19.082
			c0.453-0.125,0.816-0.256,0.932-0.396c-0.037,0.012-0.076,0.023-0.115,0.033c-2.338,0.5-4.611,1.252-6.762,2.238
			c-0.004,0.006-0.014,0.006-0.02,0.012c-0.719,0.328-1.426,0.68-2.117,1.059c-0.062,0.039-0.125,0.08-0.188,0.119
			c-0.629,0.354-1.252,0.719-1.855,1.109c-0.154,0.102-0.303,0.215-0.455,0.324c-0.498,0.334-1,0.68-1.479,1.041
			c-0.275,0.209-0.529,0.436-0.793,0.658c-0.346,0.277-0.697,0.549-1.025,0.85c-0.59,0.52-1.15,1.064-1.688,1.631
			c-4.391,4.559-7.375,10.613-8.412,17.064c-0.016,0.098-0.098,0.166-0.197,0.166c-0.113-0.006-0.199-0.086-0.205-0.188
			c-0.18-3.154,0.289-6.436,1.365-9.494c1.207-3.426,3.17-6.621,5.682-9.236c0.346-0.357,0.723-0.686,1.094-1.025
			c-3.025-2.561-6.492-4.605-10.18-6.01c-1.229-0.465-2.48-0.867-3.754-1.189c-0.125,0.033-0.264,0.027-0.389-0.006
			c-0.441,0-0.943-0.182-1.402-0.301c-0.006-0.006-0.01-0.006-0.016-0.006c-0.742-0.146-1.484-0.271-2.232-0.373
			c-0.006,0-0.006,0-0.012,0c-0.443-0.051-0.865-0.045-1.309-0.051c-0.195-0.006-0.379-0.068-0.555-0.143
			c-0.883-0.068-1.764-0.113-2.65-0.113c-3.342,0-6.639,0.482-9.799,1.428c-6.066,1.795-11.705,5.438-15.883,10.246
			c-3.324,3.824-5.777,8.389-7.102,13.215c-0.318,1.15-0.572,2.328-0.771,3.512c-0.096,0.604-0.133,1.223-0.197,1.834
			c-0.066,0.578-0.152,1.148-0.189,1.732c-0.049,0.812-0.025,1.631-0.016,2.446c0.006,0.386-0.021,0.771-0.004,1.148
			c0.027,0.651,0.123,1.297,0.191,1.942c0.045,0.25,0.096,0.498,0.152,0.748c-0.008,0.254-0.004,0.51,0,0.771
			c0.016,0.098,0.016,0.192,0.029,0.295c0.697,4.508,2.379,8.973,4.859,12.914c2.146,3.403,4.963,6.469,8.145,8.955
			c3.215-1.32,6.865-1.757,10.281-1.224c0.051-0.867,0.146-1.733,0.32-2.592c0.613-3.062,2.078-6.023,4.125-8.342
			c1.842-2.105,4.154-3.732,6.684-4.701c0.098-0.041,0.199,0.004,0.246,0.092c0.049,0.09,0.027,0.201-0.057,0.26
			c-4.434,3.188-7.572,7.992-8.604,13.177c-1.066,5.223-0.057,10.862,2.785,15.483c0.047,0.092,0.027,0.205-0.049,0.269
			c-0.037,0.026-0.082,0.045-0.127,0.045c-0.055,0-0.102-0.019-0.143-0.058c-1.959-1.895-3.455-4.287-4.326-6.938
			c-0.652-1.987-0.918-4.071-0.861-6.162c-0.02,0-0.033,0-0.057,0l0.057-0.067c0,0-0.781-0.006-2.027,0.1
			c-1.039,0.062-2.064,0.215-3.076,0.43c-5.914,1.141-14.846,4.766-14.811,16.25c-0.066,1.391,0.027,2.781,0.324,4.137
			c0.037,0.176,0.088,0.396,0.156,0.656c0.074,0.271,0.168,0.525,0.266,0.76l52.693,1.894c-0.254-1.259-0.42-2.556-0.42-3.894
			c0-11.051,8.955-20.012,20.006-20.012c6.945,0,13.057,3.539,16.646,8.908c4.158-10.527,14.41-17.994,26.417-17.994
			c1.688,0,3.33,0.178,4.936,0.459c0.365-0.131,0.748-0.228,1.121-0.353C153.835,151.285,148.646,150.068,143.172,150.068z
			 M153.331,119.686l0.761-0.34c-0.396,0.199-0.773,0.414-1.168,0.617L153.331,119.686z M56.505,145.695
			c-7.631-2.865-13.072-10.207-13.072-18.844c0-11.119,9.014-20.131,20.129-20.131c6.301,0,11.918,2.889,15.607,7.414
			c-5.438,6.084-9.139,13.736-10.441,22.183C63.919,138.406,59.735,141.646,56.505,145.695z M71.005,146.443
			c-0.061-0.021-0.123-0.023-0.18-0.033c0.117-0.086,0.244-0.166,0.361-0.25C71.13,146.256,71.061,146.348,71.005,146.443z
			 M72.44,167.678c-3.789-6.707-3.229-14.822,3.334-21.207c2.135-2.072,4.74-2.883,7.326-2.656c2.189,3.795,5.275,6.931,8.918,9.521
			C83.329,154.492,76.046,160.037,72.44,167.678z"/>
		<path fill="#ACBAD1" d="M207.1,161.895c7.67,2.597,14.205,7.67,18.627,14.279c-0.229-1.234-0.354-2.516-0.354-3.822
			c0-11.504,9.324-20.828,20.822-20.828s20.818,9.324,20.818,20.828c0,4.687-1.566,8.994-4.187,12.474
			c0.899-0.033,1.795-0.062,2.694-0.099c0.562-0.018,1.123-0.033,1.685-0.057l0.66-0.023c0.315-0.01,0.704-0.057,1.065-0.03
			l1.933-0.068l0.577-1.375c0.166-0.432,0.349-0.938,0.517-1.457V181.7c0.062-0.396,0.215-0.796,0.34-1.189
			c0.048-0.17,0.106-0.346,0.146-0.521c0.08-0.328,0.147-0.658,0.214-0.986c0.055-0.268,0.11-0.529,0.155-0.799
			c0.058-0.34,0.099-0.688,0.142-1.023c0.035-0.271,0.073-0.543,0.103-0.813c0.034-0.353,0.047-0.697,0.062-1.043
			c0.012-0.267,0.034-0.527,0.041-0.787c0.008-0.367-0.007-0.736-0.013-1.101c-0.006-0.254,0-0.504-0.019-0.752
			c-0.019-0.369-0.06-0.735-0.095-1.104c-0.023-0.248-0.037-0.492-0.067-0.742c-0.052-0.392-0.12-0.78-0.188-1.172
			c-0.038-0.215-0.062-0.437-0.106-0.649c-0.125-0.603-0.264-1.201-0.43-1.791c-1.574-5.664-5.285-10.789-10.179-14.074
			c-0.672-0.445-1.362-0.859-2.067-1.244c-0.177-0.1-0.356-0.184-0.535-0.27c-0.539-0.283-1.084-0.55-1.646-0.787
			c-0.183-0.071-0.36-0.146-0.537-0.216c-0.709-0.282-1.43-0.543-2.159-0.764c-1.152-0.341-2.322-0.603-3.509-0.783
			c-2.416-0.36-4.896-0.555-7.332-0.254c-1.139,0.135-2.262,0.353-3.37,0.635c-1.127,0.294-2.234,0.656-3.312,1.087
			c-2.164,0.872-4.216,2.022-6.064,3.436c-0.086,0.062-0.211,0.051-0.276-0.035c-0.073-0.084-0.062-0.203,0.021-0.277
			c3.914-3.5,8.988-5.76,14.313-6.389c-0.677-3.08-2.026-5.939-3.966-8.326c-2.297-2.838-5.439-5.035-8.875-6.189
			c-1.941-0.646-3.991-0.979-6.082-0.979c-1.602,0-3.188,0.197-4.729,0.582c-3.016,0.754-5.854,2.256-8.252,4.334
			c0.182,0.386,0.359,0.771,0.529,1.16c1.645,3.791,2.637,7.94,2.866,12.014c0.007,0.107-0.065,0.199-0.176,0.212
			c-0.005,0-0.005,0-0.011,0c-0.01,0-0.01,0-0.018,0.006c-0.094,0-0.18-0.067-0.199-0.16c-1.856-8.224-6.129-15.98-12.016-21.855
			c-0.674-0.68-1.383-1.336-2.107-1.977c-0.396-0.34-0.805-0.668-1.217-0.996c-0.312-0.256-0.617-0.516-0.936-0.76
			c-0.572-0.436-1.154-0.861-1.75-1.273c-0.139-0.098-0.271-0.193-0.414-0.289c-0.707-0.482-1.426-0.941-2.162-1.383l0,0
			c8.258,6.379,13.59,16.357,13.59,27.613c0,4.563-0.881,8.914-2.479,12.914C207.163,161.912,207.129,161.9,207.1,161.895z
			 M225.816,133.49c7.222,0,13.086,5.787,13.224,12.979c-0.989,0.213-2.017,0.324-3.071,0.324c-7.396,0-13.5-5.438-14.588-12.527
			C222.766,133.773,224.258,133.49,225.816,133.49z"/>
	</g>
	<path fill="#231F20" d="M275.297,166.363c-1.779-6.4-6.011-12.127-11.604-15.701c-4.885-3.16-10.996-4.711-16.859-4.242
		c-0.217-3.172-1.291-6.338-3.062-8.988c-1.035-1.562-2.32-2.981-3.842-4.229c2.106-5.154,2.68-11.012,1.608-16.551
		c-1.278-6.83-5.172-13.271-10.672-17.672c-5.199-4.225-12.022-6.65-18.714-6.65c-0.282,0-0.562,0-0.834,0.012
		c-5.555,0.119-11.096,1.893-15.678,5.008c-1.647-2.125-3.553-3.953-5.678-5.426c-1.098-0.777-2.299-1.473-3.67-2.148
		c-0.104-0.051-0.203-0.09-0.312-0.129l-0.182-0.08c-0.453-0.203-0.912-0.402-1.377-0.584c-0.188-0.066-0.367-0.135-0.547-0.197
		c-3.169-1.133-6.453-1.688-9.671-1.523c-0.159-0.611-0.306-1.285-0.457-2.068c-0.194-1.008-0.396-2.049-0.692-3.086
		c-0.635-2.346-1.49-4.65-2.562-6.854c-2.216-4.605-5.407-8.865-9.243-12.32c-4.05-3.658-8.936-6.508-14.119-8.246
		c-5.416-1.818-11.245-2.465-16.999-1.869c-8.969,0.883-17.777,5.029-24.166,11.373c-5.734,5.619-9.693,12.971-11.195,20.775
		c-0.996-0.203-1.965-0.299-2.947-0.299c-3.873,0-7.684,1.291-10.73,3.631c-2.232,1.67-4.074,3.896-5.324,6.428
		c-0.822,1.66-1.371,3.506-1.604,5.393c-5.947-1.535-12.309-1.473-18.199,0.146c-6.684,1.818-12.885,5.732-17.467,11.012
		c-3.643,4.186-6.287,9.209-7.646,14.521c-1.309,5.095-1.471,10.509-0.463,15.668c0.924,4.832,2.932,9.521,5.803,13.576
		c2.141,3.015,4.832,5.738,7.828,7.947c-3.336,1.5-6.182,3.998-8.088,7.098c-2.51,3.992-3.367,8.953-2.361,13.599
		c0.109,0.511,0.23,0.97,0.359,1.399l0.045,0.146c0.049,0.17,0.1,0.341,0.24,0.729l0.238,0.687c0.033,0.074,0.139,0.312,0.441,0.481
		l0.168,0.09h56.518l-0.266-0.725h-0.77c-0.031-0.08-0.092-0.144-0.17-0.144l-53.283-1.914c-0.098-0.231-0.191-0.485-0.266-0.76
		c-0.068-0.262-0.119-0.48-0.156-0.656c-0.297-1.354-0.391-2.746-0.324-4.137c-0.035-11.484,8.896-15.109,14.811-16.25
		c1.012-0.215,2.037-0.365,3.076-0.43c1.246-0.104,2.027-0.1,2.027-0.1s-0.057,0.067,0,0.067c-0.057,2.091,0.209,4.175,0.861,6.162
		c0.871,2.651,2.367,5.047,4.326,6.938c0.041,0.039,0.088,0.058,0.143,0.058c0.045,0,0.09-0.019,0.127-0.045
		c0.076-0.062,0.096-0.177,0.049-0.269c-2.842-4.621-3.852-10.264-2.785-15.483c1.031-5.185,4.17-9.986,8.604-13.177
		c0.084-0.059,0.105-0.17,0.057-0.26c-0.047-0.087-0.148-0.133-0.246-0.092c-2.529,0.969-4.842,2.596-6.684,4.701
		c-2.047,2.314-3.512,5.275-4.125,8.342c-0.174,0.855-0.27,1.725-0.32,2.592c-3.416-0.533-7.066-0.1-10.281,1.224
		c-3.182-2.486-5.998-5.552-8.145-8.955c-2.48-3.94-4.162-8.406-4.859-12.914c-0.76-4.797-0.479-9.787,0.805-14.432
		c1.324-4.826,3.777-9.391,7.102-13.215c4.178-4.809,9.816-8.451,15.883-10.246c3.16-0.945,6.457-1.428,9.799-1.428
		c2.77,0,5.518,0.328,8.176,0.986c0.125,0.033,0.264,0.039,0.389,0.006c5.086,1.297,9.9,3.783,13.934,7.199
		c-0.371,0.34-0.748,0.668-1.094,1.025c-2.512,2.615-4.475,5.811-5.682,9.236c-1.076,3.059-1.545,6.34-1.365,9.494
		c0.006,0.102,0.092,0.182,0.205,0.188c0.1,0,0.182-0.068,0.197-0.166c1.037-6.451,4.021-12.506,8.412-17.064
		c4.332-4.555,10.258-7.795,16.68-9.119c0.1-0.018,0.168-0.113,0.16-0.215c-0.006-0.104-0.094-0.182-0.199-0.182
		c-3.133-0.057-6.424,0.561-9.42,1.762c-2.783,1.098-5.369,2.752-7.629,4.74c-3.852-3.807-8.641-6.66-13.854-8.27
		c-0.023-0.018-0.057-0.029-0.086-0.045c1.508-4.158,4.174-7.852,7.607-10.428c3.482-2.65,7.818-4.203,12.273-4.437
		c-0.441,2.771-0.592,5.602-0.43,8.422c0.006,0.104,0.094,0.188,0.203,0.188c0.111,0,0.201-0.09,0.201-0.197
		c0.043-2.775,0.365-5.541,0.955-8.207c0.096-0.086,0.16-0.193,0.191-0.33c1.711-7.611,5.807-14.727,11.533-20.045
		c6.156-5.789,14.154-9.43,22.525-10.258c1.314-0.135,2.662-0.203,3.99-0.203c4.01,0,7.961,0.605,11.742,1.801
		c4.828,1.535,9.435,4.072,13.32,7.352c3.707,3.115,6.889,6.996,9.207,11.227c1.121,2.051,2.068,4.203,2.811,6.406
		c0.332,0.936,0.591,1.902,0.839,2.85c0.233,0.877,0.491,1.768,0.797,2.645c-5.097,0.373-10.019,2.379-13.853,5.646
		c-0.086,0.068-0.1,0.188-0.037,0.273c0.062,0.084,0.185,0.113,0.271,0.051c4.104-2.584,8.977-4.033,13.721-4.068h0.353
		c3.062,0,6.11,0.578,8.974,1.66c0.78,0.318,1.545,0.646,2.305,1.014c0.637,0.312,1.258,0.664,1.881,1.02
		c0.461,0.277,0.924,0.566,1.367,0.879c4.334,3.018,7.686,7.42,9.436,12.387c1.504,4.23,1.861,8.988,1.053,13.492
		c-1.217-0.703-2.457-1.342-3.729-1.898c-3.786-1.648-7.938-2.65-12.012-2.895c-0.104,0.006-0.195,0.074-0.209,0.176
		c-0.02,0.104,0.051,0.205,0.15,0.227c8.22,1.881,15.975,6.168,21.83,12.07c5.888,5.875,10.154,13.635,12.018,21.857
		c0.021,0.094,0.104,0.159,0.225,0.153c0.106-0.013,0.183-0.104,0.177-0.211c-0.231-4.072-1.226-8.226-2.867-12.017
		c-0.17-0.391-0.351-0.772-0.53-1.158c2.399-2.077,5.237-3.58,8.252-4.334c1.541-0.387,3.129-0.582,4.729-0.582
		c2.09,0,4.14,0.334,6.082,0.979c3.435,1.155,6.578,3.354,8.875,6.19c1.938,2.385,3.289,5.244,3.965,8.324
		c-5.326,0.629-10.399,2.891-14.313,6.391c-0.082,0.074-0.094,0.191-0.021,0.275c0.065,0.086,0.19,0.1,0.276,0.035
		c3.688-2.812,8.152-4.595,12.75-5.152c2.437-0.303,4.916-0.107,7.332,0.254c2.336,0.353,4.619,1.023,6.771,2
		c1.278,0.576,2.515,1.271,3.683,2.062c4.894,3.285,8.604,8.41,10.179,14.074c1.303,4.64,1.231,9.715-0.209,14.278
		c-0.187,0.601-0.4,1.185-0.591,1.673l-0.577,1.375l-51.962,1.801c-0.086,0.006-0.147,0.067-0.176,0.147h-0.769l-0.259,0.726h55.145
		l0.986-2.021l0.389-0.898c0.225-0.539,0.479-1.188,0.693-1.854C276.637,177.312,276.77,171.604,275.297,166.363z M233.521,130.453
		c-1.901-0.639-3.901-0.963-5.94-0.963c-2.116,0-4.263,0.363-6.194,1.049c-3.133,1.104-5.927,3.086-7.965,5.619
		c-1.768-3.58-4.175-6.945-7.029-9.811c-2.18-2.188-4.66-4.107-7.31-5.688c1.522-4.564,1.646-9.629,0.313-14.336
		c-0.744-2.674-1.987-5.232-3.604-7.545c4.438-2.463,9.562-3.822,14.57-3.822c0.318,0,0.643,0.006,0.965,0.018
		c6.375,0.17,12.604,2.463,17.547,6.467c4.979,3.994,8.561,9.59,10.08,15.752c1.301,5.178,1.154,10.773-0.365,15.907
		C237.04,131.967,235.325,131.055,233.521,130.453z"/>
</g>
</svg>
