<?xml version="1.0" encoding="utf-8"?>
<!-- Generator: Adobe Illustrator 15.0.2, SVG Export Plug-In . SVG Version: 6.00 Build 0)  -->
<!DOCTYPE svg PUBLIC "-//W3C//DTD SVG 1.1//EN" "http://www.w3.org/Graphics/SVG/1.1/DTD/svg11.dtd">
<svg version="1.1" id="Layer_1" xmlns="http://www.w3.org/2000/svg" xmlns:xlink="http://www.w3.org/1999/xlink" x="0px" y="0px"
	 width="280px" height="260px" viewBox="0 0 280 260" enable-background="new 0 0 280 260" xml:space="preserve">
<g>
	<g>
		<g>
			<path fill="#ACBAD1" d="M67.488,144.805c1.418-0.527,2.824-1.082,4.223-1.662c4.53-1.818,8.917-3.902,13.265-6.047l0,0
				c2.129-1.041,4.238-2.099,6.355-3.141l0,0c4.662-2.319,9.332-4.587,14.129-6.563c5.723-2.308,11.688-4.014,17.973-4.536
				c6.27-0.552,12.833,0.062,19.41,1.434c6.58,1.365,12.82,3.408,18.291,6.399c3.119,1.684,5.962,3.685,8.619,5.901
				c1.422-0.487,2.836-1.015,4.229-1.575c1.039-0.427,2.067-0.885,3.102-1.34c-3.434-3.188-7.314-6.178-11.742-8.646
				c-6.432-3.621-13.701-6.014-20.98-7.517c-7.272-1.507-14.909-2.225-22.323-1.483c-7.42,0.696-14.311,2.849-20.391,5.497
				c-6.108,2.656-11.617,5.722-17.011,8.664c-5.392,2.954-10.657,5.823-16.044,8.358c-10.719,5.104-22.056,8.739-33.773,10.212
				c-11.691,1.524-23.542,0.959-34.756-0.811c10.965,2.84,23.006,4.46,35.361,3.756C46.286,151.141,57.182,148.645,67.488,144.805
				L67.488,144.805z"/>
			<path fill="#ACBAD1" d="M39.153,133.782c6.08-0.868,12.076-2.472,17.84-4.559c5.777-2.096,11.319-4.65,16.791-7.312
				c10.922-5.308,21.741-11.049,33.947-14.034c6.068-1.499,12.439-2.308,18.965-2.29c6.532-0.006,13.196,0.791,19.843,2.165
				c6.646,1.383,13.061,3.304,19.002,5.897c5.957,2.585,11.406,5.846,16.285,9.634c2.156,1.665,4.176,3.43,6.123,5.261
				c2.117-1.046,4.232-2.104,6.352-3.148c-2.256-2.301-4.668-4.554-7.307-6.699c-5.271-4.308-11.352-8.104-17.982-11.074
				c-6.631-2.979-13.736-5.144-20.955-6.645c-7.219-1.497-14.618-2.345-21.932-2.264c-7.306,0.07-14.48,1.116-21.125,2.931
				c-13.384,3.645-24.292,10.107-34.688,15.841c-10.378,5.786-20.736,10.946-32.112,13.407c-11.316,2.551-23.242,2.303-34.441,0.52
				C14.701,134.271,26.946,135.6,39.153,133.782z"/>
			<path fill="#ACBAD1" d="M24.755,117.352c5.991,0.092,12.089-0.817,17.862-2.526c11.595-3.46,21.872-9.349,32.789-14.293
				c10.875-5.023,22.55-9.266,35.264-11.012c12.679-1.826,26.19-1.097,39.568,1.694c13.389,2.762,26.012,7.455,36.773,14.155
				c6.971,4.277,13.096,9.34,18.643,14.779c0.699-0.294,1.385-0.605,2.086-0.881c1.33-0.553,2.672-1.077,4.023-1.582
				c-5.771-6.288-12.416-12.311-20.306-17.415c-11.521-7.567-25.358-12.885-39.705-15.827c-14.331-3.002-29.208-3.652-42.942-1.343
				c-13.784,2.229-26.01,7.266-36.755,12.938c-10.821,5.617-20.373,11.985-30.926,16.019c-5.263,2.021-10.836,3.321-16.558,3.71
				c-5.722,0.424-11.511-0.002-17.115-0.894C12.944,116.286,18.76,117.276,24.755,117.352z"/>
		</g>
		<g>
			<path fill="#ACBAD1" d="M109.526,125.877c-1.371,0.468-2.724,0.977-4.066,1.515c-1.097,0.454-2.176,0.936-3.266,1.414
				c3.479,3.193,7.419,6.186,11.895,8.641c6.458,3.57,13.718,5.933,20.984,7.436c7.274,1.521,14.915,2.23,22.329,1.495
				c7.423-0.696,14.312-2.843,20.396-5.497c6.115-2.65,11.619-5.708,17.014-8.658c5.39-2.962,10.658-5.828,16.041-8.351
				c10.728-5.102,22.066-8.742,33.783-10.216c11.701-1.528,23.547-0.965,34.76,0.795c-10.959-2.83-23.004-4.453-35.36-3.739
				c-12.361,0.643-24.769,3.778-36.295,8.558c-11.609,4.668-22.32,11.048-33.761,15.746c-5.715,2.319-11.688,4.021-17.971,4.539
				c-6.273,0.543-12.838-0.076-19.42-1.447c-6.582-1.363-12.848-3.383-18.346-6.354
				C115.097,130.076,112.216,128.082,109.526,125.877z"/>
			<path fill="#ACBAD1" d="M240.307,128.612c-6.09,0.878-12.088,2.474-17.848,4.574c-5.766,2.086-11.316,4.646-16.783,7.299
				c-10.934,5.307-21.748,11.048-33.957,14.035c-6.078,1.498-12.443,2.306-18.979,2.293c-6.525,0-13.191-0.795-19.845-2.166
				c-6.646-1.388-13.07-3.301-19.03-5.877c-5.96-2.56-11.442-5.804-16.35-9.566c-2.175-1.658-4.213-3.43-6.183-5.248
				c-2.117,1.042-4.227,2.1-6.355,3.141c2.29,2.317,4.742,4.575,7.414,6.721c5.293,4.287,11.403,8.054,18.04,10.996
				c6.633,2.959,13.738,5.107,20.955,6.604c7.219,1.497,14.616,2.351,21.928,2.265c7.312-0.064,14.486-1.117,21.133-2.926
				c13.388-3.65,24.296-10.107,34.689-15.835c10.385-5.792,20.748-10.948,32.123-13.407c11.312-2.55,23.244-2.31,34.445-0.523
				C264.766,128.138,252.516,126.808,240.307,128.612z"/>
			<path fill="#ACBAD1" d="M254.68,145.062c-5.988-0.1-12.082,0.812-17.854,2.523c-11.592,3.467-21.875,9.355-32.797,14.299
				c-10.871,5.024-22.547,9.266-35.266,11.014c-12.679,1.815-26.191,1.084-39.574-1.719c-13.396-2.756-26.035-7.424-36.833-14.088
				c-7.018-4.266-13.183-9.312-18.766-14.748c-0.625,0.271-1.249,0.545-1.882,0.799c-1.398,0.58-2.805,1.135-4.223,1.662
				c5.812,6.297,12.518,12.318,20.45,17.411c11.559,7.522,25.4,12.794,39.738,15.736c14.328,3.006,29.213,3.668,42.945,1.353
				c13.783-2.223,26.021-7.254,36.762-12.926c10.82-5.623,20.375-11.99,30.926-16.031c5.264-2.015,10.834-3.313,16.56-3.715
				c5.717-0.422,11.518,0.012,17.118,0.891C266.5,146.107,260.676,145.13,254.68,145.062z"/>
		</g>
	</g>
</g>
</svg>
