<?xml version="1.0" encoding="utf-8"?>
<!-- Generator: Adobe Illustrator 15.0.2, SVG Export Plug-In . SVG Version: 6.00 Build 0)  -->
<!DOCTYPE svg PUBLIC "-//W3C//DTD SVG 1.1//EN" "http://www.w3.org/Graphics/SVG/1.1/DTD/svg11.dtd">
<svg version="1.1" id="Layer_1" xmlns="http://www.w3.org/2000/svg" xmlns:xlink="http://www.w3.org/1999/xlink" x="0px" y="0px"
	 width="280px" height="260px" viewBox="0 0 280 260" enable-background="new 0 0 280 260" xml:space="preserve">
<g>
	<g>
		<g>
			<g>
				<path fill="#FFFFFF" d="M112.75,84.731c-2.861,20.509-21.809,34.824-42.316,31.96c-20.51-2.855-34.821-21.806-31.956-42.318
					c2.856-20.514,21.804-34.815,42.315-31.96C101.298,45.275,115.611,64.219,112.75,84.731z"/>
				<path fill="#FFD88C" d="M125.691,90.33c6.719-1.511,15.264-1.657,25.565-0.221c-9.842-1.374-17.749-3.697-23.713-6.772h0.01
					c-9.889-4.907-7.91-15.226,6.641-19.005c-14.109,3.657-20.881-3.806-15.561-12.555c3.684-5.822,9.625-11.975,17.928-18.245
					c-8.096,6.116-15.467,10.094-21.957,12.099c-10.205,3.159-15.855-5.458-8.338-18.238c-7.357,12.509-17.369,12.061-19.85,2.236
					c-1.533-6.744-1.693-15.342-0.244-25.714c-1.432,10.234-3.893,18.371-7.148,24.407c-5.043,9.029-14.914,6.814-18.588-7.353
					c3.662,14.125-3.833,20.896-12.597,15.54l0.017,0.04c-5.826-3.686-11.984-9.63-18.262-17.947
					c5.986,7.928,9.93,15.166,11.971,21.557c3.531,10.462-5.17,16.356-18.117,8.737c12.541,7.379,12.061,17.427,2.151,19.877
					c-6.727,1.519-15.296,1.673-25.632,0.229c9.86,1.377,17.77,3.707,23.738,6.782l-0.036-0.002
					c9.892,4.9,7.909,15.222-6.633,18.999c14.09-3.655,20.858,3.796,15.57,12.538c-3.684,5.82-9.63,11.979-17.943,18.256
					c7.947-6.002,15.19-9.945,21.591-11.988l-0.019,0.012c10.465-3.523,16.362,5.172,8.744,18.129
					c7.303-12.418,17.208-12.062,19.783-2.45c1.584,6.771,1.76,15.439,0.294,25.918c1.372-9.84,3.695-17.74,6.767-23.703v0.002
					c4.906-9.891,15.222-7.91,19.003,6.637c-3.66-14.115,3.816-20.887,12.58-15.553c5.814,3.689,11.959,9.627,18.229,17.93
					c-5.988-7.934-9.934-15.17-11.982-21.561l0.012,0.012c-3.525-10.463,5.172-16.363,18.135-8.742
					C115.222,102.822,115.724,92.747,125.691,90.33z M112.75,84.731c-2.861,20.509-21.809,34.824-42.316,31.96
					c-20.51-2.855-34.821-21.806-31.956-42.318c2.856-20.514,21.804-34.815,42.315-31.96
					C101.298,45.275,115.611,64.219,112.75,84.731z"/>
				<path fill="#FEC343" d="M105.548,83.731c-2.303,16.53-17.578,28.068-34.111,25.761c-16.535-2.307-28.068-17.579-25.768-34.111
					c2.309-16.536,17.585-28.072,34.115-25.766C96.32,51.923,107.857,67.193,105.548,83.731z"/>
			</g>
		</g>
		<g>
			<g>
				<path fill="#FFFFFF" d="M193.928,118.174c0.213,0.109,0.438,0.209,0.646,0.322c0.006-0.039,0.006-0.078,0.012-0.119
					C194.371,118.309,194.148,118.242,193.928,118.174z"/>
			</g>
			<g>
				<path fill="#FFFFFF" d="M176.902,114.512c4.922,0,9.652,0.818,14.074,2.303c-4.025-1.621-8.422-2.521-13.027-2.521
					c-1.939,0-3.84,0.168-5.691,0.471C173.781,114.605,175.334,114.512,176.902,114.512z"/>
			</g>
			<path fill="#FFFFFF" d="M278.477,166.551c-1.778-6.404-6.01-12.127-11.604-15.701c-4.883-3.166-11-4.713-16.859-4.242
				c-0.215-3.172-1.293-6.338-3.063-8.994c-1.033-1.563-2.322-2.979-3.841-4.223c2.107-5.158,2.681-11.014,1.609-16.555
				c-1.281-6.83-5.172-13.273-10.672-17.671c-5.203-4.227-12.025-6.652-18.715-6.652c-0.283,0-0.561,0.004-0.832,0.016
				c-5.557,0.115-11.102,1.891-15.684,5.006c-1.644-2.127-3.551-3.951-5.672-5.426c-1.101-0.775-2.297-1.479-3.674-2.146
				c-0.101-0.051-0.201-0.09-0.308-0.133l-0.181-0.076c-0.457-0.205-0.912-0.402-1.383-0.584c-0.188-0.068-0.367-0.137-0.543-0.199
				c-3.166-1.135-6.457-1.688-9.676-1.523c-0.152-0.611-0.299-1.285-0.453-2.066c-0.191-1.008-0.396-2.051-0.695-3.09
				c-0.629-2.342-1.483-4.65-2.555-6.857c-2.215-4.602-5.41-8.857-9.244-12.311c-4.053-3.662-8.938-6.514-14.123-8.25
				c-5.41-1.816-11.247-2.463-16.997-1.871c-8.969,0.883-17.779,5.033-24.168,11.377c-5.734,5.617-9.693,12.971-11.195,20.771
				c-0.994-0.201-1.965-0.297-2.947-0.297c-3.869,0-7.684,1.291-10.73,3.631c-2.232,1.672-4.072,3.895-5.324,6.43
				c-0.822,1.658-1.371,3.506-1.604,5.389c-5.947-1.535-12.305-1.471-18.199,0.15c-6.684,1.818-12.885,5.726-17.467,11.007
				c-3.643,4.188-6.287,9.207-7.646,14.521c-1.309,5.09-1.467,10.51-0.463,15.67c0.924,4.83,2.932,9.521,5.803,13.578
				c2.143,3.01,4.832,5.735,7.828,7.944c-3.332,1.502-6.182,4-8.088,7.099c-2.51,3.994-3.367,8.949-2.355,13.596
				c0.107,0.51,0.227,0.973,0.355,1.4l0.047,0.149c0.045,0.17,0.098,0.334,0.236,0.729l0.238,0.681
				c0.035,0.077,0.143,0.315,0.441,0.485l0.164,0.092h29.842h26.681h126.114h2.344h52.801l0.986-2.022l0.391-0.896
				c0.224-0.545,0.48-1.193,0.695-1.861C279.818,177.498,279.949,171.783,278.477,166.551z"/>
			<g>
				<path fill="#ADD3F0" d="M242.939,122.994c-0.062-0.092-0.125-0.182-0.203-0.256c0.053-0.48,0.078-0.969,0.102-1.449
					c-0.035-0.271-0.08-0.545-0.119-0.816c-0.055-0.385-0.096-0.77-0.168-1.148c-0.115-0.654-0.254-1.303-0.412-1.943
					c-1.521-6.162-5.102-11.76-10.08-15.751c-4.945-4.004-11.176-6.301-17.549-6.469c-0.32-0.012-0.645-0.018-0.967-0.018
					c-5.01,0-10.131,1.359-14.568,3.824c1.617,2.311,2.855,4.871,3.601,7.544c1.334,4.709,1.209,9.77-0.313,14.332
					c2.647,1.584,5.127,3.504,7.312,5.689c2.854,2.867,5.256,6.229,7.028,9.809c2.039-2.533,4.828-4.512,7.963-5.617
					c1.933-0.686,4.078-1.051,6.197-1.051c2.039,0,4.039,0.326,5.937,0.967c1.807,0.601,3.522,1.512,5.075,2.644
					c0.232-0.779,0.418-1.566,0.586-2.365c0.025-0.137,0.054-0.274,0.076-0.414C242.912,128.037,243.076,125.506,242.939,122.994z
					 M234.783,125.42c-14.244-0.461-25.717-11.756-26.484-25.919c2.318-0.918,4.84-1.439,7.482-1.439
					c11.209,0,20.291,9.082,20.291,20.289C236.072,120.842,235.605,123.217,234.783,125.42z"/>
				<path fill="#ADD3F0" d="M36.018,139.748c-0.012-0.125-0.023-0.252-0.035-0.377c-0.002-0.006-0.006-0.014-0.006-0.02
					C35.988,139.482,36.004,139.615,36.018,139.748z"/>
				<path fill="#ADD3F0" d="M194.885,114.889c0,0.867-0.078,1.711-0.18,2.545v0.004c1.148,0.361,2.281,0.77,3.375,1.246
					c1.27,0.553,2.516,1.191,3.727,1.896c0.812-4.502,0.453-9.26-1.053-13.49c-1.75-4.968-5.098-9.369-9.432-12.388
					c-0.441-0.311-0.9-0.6-1.367-0.883c-0.623-0.352-1.246-0.703-1.883-1.014c-0.75-0.369-1.523-0.699-2.301-1.02
					c-2.859-1.076-5.912-1.654-8.972-1.654h-0.354c-4.743,0.033-9.614,1.48-13.719,4.066c0.422-0.266,0.871-0.498,1.314-0.738
					c2.482-0.924,5.156-1.453,7.959-1.453C184.643,92.006,194.885,102.249,194.885,114.889z"/>
				<path fill="#ADD3F0" d="M173.146,88.698c0.106-0.025,0.215-0.045,0.324-0.062c0.944-0.186,1.901-0.34,2.87-0.406
					c-0.297-0.879-0.562-1.768-0.793-2.648c-0.25-0.943-0.508-1.912-0.838-2.846c-0.742-2.205-1.69-4.359-2.812-6.406
					c-2.32-4.232-5.498-8.115-9.207-11.23c-3.89-3.275-8.494-5.816-13.322-7.346c-3.781-1.197-7.73-1.805-11.739-1.805
					c-1.332,0-2.68,0.068-3.994,0.205c-8.371,0.826-16.369,4.469-22.525,10.258c-5.727,5.312-9.822,12.432-11.531,20.041
					c-0.029,0.137-0.098,0.248-0.193,0.326c-0.59,2.674-0.912,5.436-0.957,8.213c0,0.107-0.088,0.195-0.199,0.199
					c-0.107,0-0.197-0.086-0.203-0.193c-0.158-2.814-0.012-5.646,0.43-8.416c-4.453,0.229-8.789,1.783-12.273,4.428
					c-3.432,2.584-6.1,6.273-7.607,10.434c0.029,0.018,0.066,0.025,0.086,0.045c0.711,0.646,2.638,0.918,3.556,1.318
					c1.246,0.541,2.461,1.158,3.637,1.844c2.4,1.406,4.658,3.109,6.627,5.08c1.557-0.709,2.85-2.252,4.463-3.064
					c4.016-2.009,8.023-3.416,12.67-3.392c0.035-0.025,0.074-0.045,0.111-0.068c-0.219-0.674-0.566-2.494-0.58-2.576
					c-0.133-0.664-0.25-1.332-0.334-2c-0.186-1.365-0.275-2.742-0.275-4.117c0-17.18,13.926-31.102,31.098-31.102
					c15.46,0,28.25,11.287,30.659,26.068C171.227,89.157,172.178,88.899,173.146,88.698z"/>
				<path fill="#ADD3F0" d="M146.348,150.252c-1.1,0-2.186,0.057-3.262,0.15c-0.016-0.402-0.035-0.805-0.035-1.213
					c0-4.254,0.779-8.32,2.176-12.092c2.928-8.558,8.66-15.175,15.898-19.271c-0.225,0.084-0.424,0.188-0.65,0.277l0.488-0.215
					c0,0-6.703,1.195-14.428,7.375c-1.23,0.984-2.484,2.096-3.744,3.348c-0.057,0.057-0.113,0.117-0.17,0.174
					c-0.617,0.619-1.234,1.27-1.85,1.955c-0.006,0.006-0.008,0.014-0.019,0.022c-0.58,0.65-1.164,1.348-1.736,2.064
					c-0.09,0.109-0.178,0.217-0.266,0.33c-0.566,0.721-1.127,1.473-1.686,2.26c-0.094,0.137-0.184,0.273-0.277,0.408
					c-0.506,0.729-1.002,1.484-1.492,2.273c-0.08,0.123-0.15,0.231-0.227,0.354c-0.521,0.854-1.037,1.756-1.543,2.685
					c-0.117,0.206-0.225,0.42-0.338,0.633c-0.512,0.965-1.014,1.957-1.5,2.998c-0.219,0.106-0.432,0.227-0.652,0.323
					c-2.803,1.246-5.861,1.892-8.932,1.892c-0.674,0-1.348-0.045-2.021-0.105c0,0,0,0-0.006,0c-4.662-0.422-8.908-2.287-12.291-5.15
					c-0.029-0.018-0.062-0.043-0.098-0.062c-5.359-4.379-8.785-11.033-8.785-18.492c0-7.816,3.775-14.732,9.584-19.087
					c0.453-0.119,0.816-0.25,0.936-0.393c-0.041,0.01-0.08,0.021-0.119,0.029c-2.336,0.504-4.611,1.257-6.76,2.242
					c-0.006,0.004-0.016,0.006-0.02,0.01c-0.721,0.33-1.428,0.686-2.119,1.064c-0.062,0.037-0.125,0.076-0.188,0.115
					c-0.629,0.352-1.252,0.717-1.852,1.107c-0.158,0.102-0.301,0.219-0.455,0.32c-0.502,0.34-1.004,0.68-1.482,1.049
					c-0.273,0.205-0.527,0.436-0.793,0.654c-0.342,0.279-0.697,0.551-1.025,0.85c-0.586,0.523-1.148,1.066-1.688,1.637
					c-4.387,4.557-7.371,10.611-8.408,17.057c-0.014,0.1-0.102,0.17-0.201,0.17c-0.113-0.006-0.195-0.084-0.203-0.189
					c-0.182-3.152,0.291-6.432,1.367-9.49c1.203-3.428,3.166-6.621,5.678-9.236c0.346-0.359,0.725-0.688,1.092-1.027
					c-3.023-2.566-6.486-4.605-10.176-6.009c-1.23-0.467-2.482-0.863-3.753-1.189c-0.127,0.035-0.262,0.029-0.387-0.006
					c-0.441-0.002-0.947-0.18-1.404-0.299c-0.006-0.004-0.012-0.006-0.018-0.006c-0.74-0.148-1.484-0.275-2.232-0.375
					c-0.002,0-0.006,0-0.012,0c-0.441-0.047-0.865-0.045-1.305-0.051c-0.197-0.006-0.379-0.068-0.559-0.141
					c-0.877-0.068-1.762-0.117-2.65-0.117c-3.342,0-6.639,0.482-9.799,1.426c-6.062,1.796-11.705,5.443-15.881,10.251
					c-3.326,3.82-5.777,8.389-7.104,13.213c-0.316,1.15-0.572,2.326-0.768,3.512c-0.096,0.607-0.137,1.22-0.201,1.83
					c-0.062,0.58-0.152,1.156-0.189,1.736c-0.049,0.814-0.025,1.635-0.014,2.449c0.002,0.385-0.023,0.766-0.006,1.15
					c0.031,0.647,0.125,1.291,0.191,1.938c0.047,0.252,0.1,0.502,0.154,0.75c-0.006,0.256,0,0.51,0,0.771
					c0.016,0.096,0.016,0.191,0.031,0.291c0.693,4.508,2.379,8.976,4.855,12.914c2.15,3.406,4.965,6.471,8.148,8.957
					c3.215-1.322,6.861-1.756,10.277-1.223c0.051-0.869,0.146-1.732,0.32-2.592c0.615-3.064,2.082-6.023,4.127-8.338
					c1.84-2.109,4.156-3.734,6.684-4.703c0.096-0.039,0.201,0.006,0.248,0.09c0.049,0.092,0.023,0.201-0.059,0.262
					c-4.436,3.189-7.574,7.986-8.602,13.174c-1.072,5.221-0.062,10.863,2.781,15.486c0.051,0.088,0.033,0.201-0.049,0.266
					c-0.037,0.029-0.082,0.043-0.127,0.043c-0.051,0-0.102-0.02-0.141-0.057c-1.955-1.887-3.451-4.285-4.326-6.936
					c-0.648-1.988-0.92-4.076-0.859-6.162c-0.021,0-0.037,0.002-0.061,0.002l0.061-0.068c0,0-0.785-0.014-2.031,0.094
					c-1.043,0.062-2.064,0.209-3.076,0.433c-5.912,1.137-14.846,4.76-14.811,16.25c-0.066,1.385,0.033,2.774,0.328,4.131
					c0.033,0.176,0.084,0.399,0.156,0.659c0.072,0.271,0.166,0.527,0.264,0.761l52.695,1.892c-0.258-1.263-0.422-2.556-0.422-3.892
					c0-11.051,8.955-20.013,20.004-20.013c6.945,0,13.057,3.541,16.648,8.91c4.162-10.533,14.409-17.994,26.417-17.994
					c1.688,0,3.33,0.177,4.935,0.459c0.369-0.131,0.748-0.231,1.121-0.352C157.014,151.473,151.824,150.252,146.348,150.252z
					 M156.51,119.873l0.758-0.34c-0.396,0.195-0.772,0.414-1.164,0.617L156.51,119.873z M59.688,145.879
					c-7.635-2.863-13.078-10.203-13.078-18.842c0-11.117,9.014-20.135,20.133-20.135c6.299,0,11.914,2.889,15.607,7.414
					c-5.441,6.088-9.142,13.738-10.441,22.18C67.102,138.59,62.916,141.832,59.688,145.879z M74.182,146.629
					c-0.059-0.016-0.119-0.021-0.178-0.035c0.115-0.082,0.242-0.162,0.359-0.248C74.303,146.443,74.238,146.533,74.182,146.629z
					 M75.621,167.865c-3.793-6.711-3.229-14.824,3.33-21.207c2.134-2.072,4.744-2.887,7.326-2.662
					c2.189,3.801,5.275,6.934,8.918,9.527C86.505,154.678,79.223,160.223,75.621,167.865z"/>
				<path fill="#ADD3F0" d="M210.277,162.078c7.672,2.598,14.205,7.672,18.629,14.283c-0.234-1.242-0.354-2.516-0.354-3.824
					c0-11.504,9.32-20.826,20.824-20.826c11.494,0,20.817,9.322,20.817,20.826c0,4.684-1.567,8.994-4.186,12.473
					c0.896-0.031,1.795-0.062,2.695-0.094c0.561-0.02,1.121-0.039,1.682-0.059l0.66-0.023c0.314-0.012,0.705-0.061,1.07-0.037
					l1.93-0.068l0.578-1.373c0.164-0.43,0.348-0.934,0.516-1.455c0-0.006,0-0.012,0-0.018c0.06-0.396,0.215-0.793,0.342-1.189
					c0.05-0.172,0.101-0.346,0.144-0.521c0.082-0.327,0.144-0.655,0.211-0.983c0.058-0.269,0.113-0.533,0.158-0.799
					c0.057-0.341,0.098-0.687,0.144-1.025c0.032-0.271,0.073-0.545,0.102-0.816c0.029-0.352,0.045-0.695,0.062-1.047
					c0.013-0.262,0.033-0.521,0.039-0.787c0.007-0.363-0.006-0.73-0.016-1.098c-0.005-0.252,0-0.5-0.017-0.752
					c-0.014-0.371-0.057-0.736-0.092-1.107c-0.023-0.244-0.035-0.492-0.068-0.736c-0.049-0.396-0.119-0.78-0.188-1.172
					c-0.039-0.219-0.068-0.438-0.107-0.651c-0.121-0.604-0.266-1.201-0.43-1.793c-1.576-5.658-5.285-10.787-10.186-14.072
					c-0.668-0.449-1.355-0.86-2.062-1.246c-0.176-0.096-0.356-0.178-0.534-0.271c-0.539-0.277-1.088-0.543-1.648-0.779
					c-0.18-0.076-0.354-0.15-0.535-0.221c-0.711-0.283-1.428-0.543-2.158-0.762c-1.15-0.341-2.322-0.604-3.51-0.781
					c-2.416-0.363-4.898-0.555-7.332-0.262c-1.135,0.143-2.26,0.356-3.369,0.641c-1.127,0.291-2.234,0.654-3.314,1.088
					c-2.164,0.869-4.213,2.02-6.065,3.432c-0.084,0.062-0.209,0.049-0.276-0.033c-0.072-0.086-0.062-0.207,0.02-0.276
					c3.914-3.507,8.986-5.761,14.316-6.39c-0.677-3.082-2.033-5.944-3.972-8.326c-2.293-2.842-5.438-5.041-8.868-6.188
					c-1.943-0.649-3.994-0.981-6.084-0.981c-1.603,0-3.191,0.199-4.729,0.584c-3.015,0.754-5.853,2.252-8.255,4.332
					c0.183,0.387,0.363,0.771,0.533,1.158c1.644,3.786,2.635,7.944,2.865,12.018c0.006,0.107-0.072,0.197-0.174,0.209
					c-0.006,0-0.006-0.006-0.012-0.006c-0.006,0.004-0.012,0.01-0.014,0.012c-0.095,0-0.181-0.068-0.199-0.158
					c-1.863-8.225-6.131-15.986-12.021-21.857c-0.676-0.684-1.379-1.338-2.108-1.975c-0.392-0.342-0.805-0.672-1.213-1.006
					c-0.312-0.252-0.617-0.51-0.935-0.756c-0.571-0.436-1.157-0.861-1.754-1.271c-0.133-0.096-0.272-0.191-0.412-0.289
					c-0.709-0.48-1.428-0.945-2.168-1.381c0-0.004,0-0.004,0-0.004c8.265,6.379,13.601,16.361,13.601,27.609
					c0,4.566-0.89,8.922-2.48,12.918C210.344,162.096,210.309,162.088,210.277,162.078z M228.994,133.676
					c7.223,0,13.09,5.789,13.227,12.979c-0.992,0.212-2.018,0.326-3.072,0.326c-7.395,0-13.502-5.438-14.588-12.528
					C225.947,133.959,227.438,133.676,228.994,133.676z"/>
			</g>
			<path fill="#231F20" d="M278.477,166.551c-1.778-6.404-6.01-12.127-11.604-15.701c-4.883-3.166-11-4.713-16.859-4.242
				c-0.215-3.172-1.293-6.338-3.063-8.994c-1.033-1.563-2.322-2.979-3.841-4.223c2.107-5.158,2.681-11.014,1.609-16.555
				c-1.281-6.83-5.172-13.273-10.672-17.671c-5.203-4.227-12.025-6.652-18.715-6.652c-0.283,0-0.561,0.004-0.832,0.016
				c-5.557,0.115-11.102,1.891-15.684,5.006c-1.644-2.127-3.551-3.951-5.672-5.426c-1.101-0.775-2.297-1.479-3.674-2.146
				c-0.101-0.051-0.201-0.09-0.308-0.133l-0.181-0.076c-0.457-0.205-0.912-0.402-1.383-0.584c-0.188-0.068-0.367-0.137-0.543-0.199
				c-3.166-1.135-6.457-1.688-9.676-1.523c-0.152-0.611-0.299-1.285-0.453-2.066c-0.191-1.008-0.396-2.051-0.695-3.09
				c-0.629-2.342-1.483-4.65-2.555-6.857c-2.215-4.602-5.41-8.857-9.244-12.311c-4.053-3.662-8.938-6.514-14.123-8.25
				c-5.41-1.816-11.247-2.463-16.997-1.871c-8.969,0.883-17.779,5.033-24.168,11.377c-5.734,5.617-9.693,12.971-11.195,20.771
				c-0.994-0.201-1.965-0.297-2.947-0.297c-3.869,0-7.684,1.291-10.73,3.631c-2.232,1.672-4.072,3.895-5.324,6.43
				c-0.822,1.658-1.371,3.506-1.604,5.389c-5.947-1.535-12.305-1.471-18.199,0.15c-6.684,1.818-12.885,5.726-17.467,11.007
				c-3.643,4.188-6.287,9.207-7.646,14.521c-1.309,5.09-1.467,10.51-0.463,15.67c0.924,4.83,2.932,9.521,5.803,13.578
				c2.143,3.01,4.832,5.735,7.828,7.944c-3.332,1.502-6.182,4-8.088,7.099c-2.51,3.994-3.367,8.949-2.355,13.596
				c0.107,0.51,0.227,0.973,0.355,1.4l0.047,0.149c0.045,0.17,0.098,0.334,0.236,0.729l0.238,0.681
				c0.035,0.077,0.143,0.315,0.441,0.485l0.164,0.092h56.523l-0.268-0.729h-0.77c-0.029-0.076-0.086-0.139-0.17-0.139l-53.281-1.914
				c-0.098-0.232-0.191-0.488-0.264-0.76c-0.072-0.26-0.123-0.484-0.156-0.66c-0.295-1.355-0.395-2.746-0.328-4.131
				c-0.035-11.49,8.898-15.113,14.811-16.25c1.012-0.223,2.033-0.369,3.076-0.432c1.246-0.107,2.031-0.095,2.031-0.095
				s-0.061,0.067,0,0.065c-0.061,2.086,0.211,4.175,0.859,6.162c0.875,2.65,2.371,5.049,4.326,6.937
				c0.039,0.037,0.09,0.058,0.141,0.058c0.045,0,0.09-0.015,0.127-0.043c0.082-0.064,0.1-0.179,0.049-0.267
				c-2.844-4.623-3.854-10.267-2.781-15.485c1.027-5.188,4.166-9.984,8.602-13.175c0.082-0.062,0.107-0.17,0.059-0.262
				c-0.047-0.084-0.152-0.129-0.248-0.091c-2.527,0.97-4.844,2.595-6.684,4.703c-2.045,2.314-3.512,5.273-4.127,8.338
				c-0.174,0.859-0.27,1.724-0.32,2.593c-3.416-0.533-7.062-0.101-10.277,1.223c-3.184-2.485-5.998-5.551-8.148-8.956
				c-2.477-3.939-4.162-8.406-4.855-12.914c-0.762-4.796-0.479-9.785,0.801-14.431c1.326-4.824,3.777-9.393,7.104-13.213
				c4.176-4.809,9.818-8.455,15.881-10.251c3.16-0.943,6.457-1.426,9.799-1.426c2.77,0,5.518,0.332,8.18,0.988
				c0.125,0.035,0.26,0.041,0.387,0.006c5.083,1.295,9.898,3.783,13.931,7.199c-0.369,0.34-0.748,0.668-1.094,1.027
				c-2.512,2.615-4.475,5.809-5.678,9.236c-1.076,3.059-1.549,6.338-1.367,9.49c0.008,0.105,0.09,0.184,0.203,0.189
				c0.1,0,0.188-0.07,0.201-0.17c1.037-6.445,4.021-12.5,8.408-17.057c4.336-4.562,10.258-7.801,16.682-9.123
				c0.102-0.021,0.17-0.113,0.16-0.215c-0.008-0.107-0.094-0.184-0.201-0.188c-3.131-0.051-6.42,0.566-9.418,1.767
				c-2.785,1.1-5.371,2.75-7.625,4.74c-3.854-3.805-8.643-6.666-13.859-8.269c-0.02-0.02-0.057-0.027-0.086-0.045
				c1.507-4.16,4.175-7.85,7.607-10.434c3.484-2.645,7.82-4.199,12.273-4.428c-0.441,2.77-0.588,5.602-0.43,8.416
				c0.006,0.107,0.096,0.193,0.203,0.193c0.111-0.004,0.199-0.092,0.199-0.199c0.045-2.777,0.367-5.539,0.957-8.213
				c0.096-0.078,0.164-0.189,0.193-0.326c1.709-7.609,5.805-14.729,11.531-20.041c6.156-5.789,14.154-9.432,22.525-10.258
				c1.314-0.137,2.662-0.205,3.994-0.205c4.009,0,7.958,0.607,11.739,1.805c4.828,1.529,9.434,4.07,13.322,7.346
				c3.709,3.115,6.887,6.998,9.207,11.23c1.121,2.047,2.069,4.201,2.812,6.406c0.33,0.934,0.588,1.902,0.838,2.846
				c0.231,0.881,0.496,1.77,0.793,2.648c-5.092,0.373-10.014,2.379-13.853,5.646c-0.081,0.068-0.096,0.188-0.036,0.271
				c0.063,0.086,0.185,0.107,0.274,0.051c4.104-2.586,8.976-4.033,13.719-4.066h0.354c3.06,0,6.111,0.578,8.972,1.654
				c0.776,0.32,1.551,0.65,2.301,1.02c0.637,0.311,1.26,0.662,1.883,1.014c0.467,0.283,0.926,0.572,1.367,0.883
				c4.334,3.02,7.682,7.42,9.432,12.388c1.506,4.23,1.863,8.988,1.053,13.49c-1.211-0.705-2.457-1.344-3.727-1.896
				c-3.783-1.648-7.938-2.65-12.008-2.895c-0.105,0-0.197,0.07-0.215,0.176c-0.015,0.102,0.053,0.201,0.158,0.227
				c8.219,1.881,15.971,6.168,21.825,12.07c5.89,5.871,10.156,13.634,12.021,21.856c0.02,0.091,0.104,0.158,0.225,0.152
				c0.102-0.012,0.18-0.102,0.174-0.209c-0.23-4.072-1.223-8.229-2.865-12.018c-0.17-0.387-0.352-0.771-0.533-1.158
				c2.402-2.08,5.24-3.578,8.255-4.332c1.536-0.385,3.127-0.584,4.729-0.584c2.09,0,4.141,0.332,6.084,0.982
				c3.432,1.147,6.575,3.348,8.868,6.188c1.938,2.382,3.295,5.244,3.972,8.326c-5.33,0.629-10.402,2.883-14.316,6.39
				c-0.082,0.069-0.092,0.19-0.02,0.276c0.067,0.082,0.192,0.097,0.276,0.033c3.688-2.81,8.153-4.599,12.75-5.16
				c2.435-0.293,4.916-0.103,7.332,0.262c2.334,0.353,4.619,1.021,6.767,2c1.286,0.576,2.521,1.269,3.682,2.062
				c4.9,3.285,8.609,8.414,10.186,14.072c1.305,4.643,1.229,9.711-0.217,14.282c-0.18,0.601-0.396,1.185-0.582,1.671l-0.578,1.372
				l-51.963,1.808c-0.084,0.004-0.146,0.065-0.176,0.143h-0.77l-0.261,0.729h55.146l0.985-2.022l0.392-0.896
				c0.223-0.545,0.479-1.193,0.695-1.861C279.818,177.498,279.949,171.783,278.477,166.551z M236.697,130.641
				c-1.896-0.641-3.896-0.967-5.936-0.967c-2.119,0-4.267,0.365-6.197,1.051c-3.135,1.105-5.924,3.084-7.963,5.617
				c-1.773-3.58-4.175-6.941-7.029-9.809c-2.187-2.186-4.664-4.105-7.312-5.689c1.523-4.562,1.648-9.623,0.314-14.332
				c-0.744-2.673-1.982-5.234-3.6-7.544c4.438-2.465,9.559-3.824,14.567-3.824c0.321,0,0.646,0.006,0.967,0.018
				c6.373,0.168,12.604,2.465,17.55,6.469c4.979,3.992,8.559,9.589,10.08,15.751c1.299,5.176,1.153,10.773-0.365,15.902
				C240.221,132.152,238.504,131.24,236.697,130.641z"/>
		</g>
	</g>
</g>
</svg>
