<?xml version="1.0" encoding="utf-8"?>
<!-- Generator: Adobe Illustrator 15.0.2, SVG Export Plug-In . SVG Version: 6.00 Build 0)  -->
<!DOCTYPE svg PUBLIC "-//W3C//DTD SVG 1.1//EN" "http://www.w3.org/Graphics/SVG/1.1/DTD/svg11.dtd">
<svg version="1.1" id="Layer_1" xmlns="http://www.w3.org/2000/svg" xmlns:xlink="http://www.w3.org/1999/xlink" x="0px" y="0px"
	 width="280px" height="260px" viewBox="0 0 280 260" enable-background="new 0 0 280 260" xml:space="preserve">
<g>
	<g>
		<g>
			<g>
				<g>
					<path fill="#3479BE" d="M85.159,226.775c16.496,2.135,35.785,3.365,56.394,3.365c20.611,0,39.9-1.23,56.396-3.365
						c-16.496-2.14-35.785-3.361-56.396-3.361C120.944,223.414,101.655,224.637,85.159,226.775z"/>
				</g>
			</g>
			<g>
				<g>
					<path fill="#3479BE" d="M43.506,216.871c25.42,2.125,55.125,3.354,86.875,3.354s61.457-1.229,86.867-3.354
						c-25.41-2.131-55.117-3.363-86.867-3.363S68.926,214.74,43.506,216.871z"/>
				</g>
			</g>
			<g>
				<g>
					<path fill="#3479BE" d="M12.415,206.965c33.104,2.133,71.807,3.361,113.158,3.361c41.354,0,80.052-1.229,113.157-3.361
						c-33.104-2.133-71.803-3.355-113.157-3.355C84.221,203.609,45.518,204.832,12.415,206.965z"/>
				</g>
			</g>
			<g>
				<g>
					<path fill="#3479BE" d="M10.116,197.059c32.221,2.133,69.869,3.355,110.111,3.355c40.246,0,77.904-1.223,110.119-3.355
						c-32.215-2.133-69.873-3.36-110.119-3.36C79.985,193.697,42.336,194.926,10.116,197.059z"/>
				</g>
			</g>
			<g>
				<g>
					<path fill="#3479BE" d="M21.727,187.152c36.967,2.133,80.172,3.361,126.345,3.361c46.174,0,89.381-1.229,126.346-3.361
						c-36.965-2.133-80.172-3.355-126.346-3.355C101.899,183.797,58.694,185.02,21.727,187.152z"/>
				</g>
			</g>
			<g>
				<g>
					<path fill="#3479BE" d="M22.387,177.252c35.621,2.127,77.266,3.355,121.765,3.355c44.506,0,86.145-1.229,121.771-3.355
						c-35.627-2.133-77.266-3.361-121.771-3.361C99.653,173.891,58.008,175.119,22.387,177.252z"/>
				</g>
			</g>
			<g>
				<g>
					<path fill="#3479BE" d="M0.637,167.34c39.213,2.133,85.057,3.361,134.039,3.361c48.992,0,94.822-1.229,134.042-3.361
						c-39.221-2.133-85.051-3.355-134.042-3.355C85.694,163.984,39.85,165.207,0.637,167.34z"/>
				</g>
			</g>
			<g>
				<g>
					<path fill="#3479BE" d="M1.288,157.441c36.381,2.125,78.904,3.354,124.35,3.354c45.449,0,87.975-1.229,124.365-3.354
						c-36.39-2.133-78.916-3.363-124.365-3.363C80.192,154.078,37.668,155.309,1.288,157.441z"/>
				</g>
			</g>
			<g>
				<g>
					<path fill="#3479BE" d="M5.276,147.535c37.607,2.133,81.568,3.361,128.549,3.361c46.979,0,90.935-1.229,128.548-3.361
						c-37.613-2.141-81.568-3.361-128.548-3.361C86.844,144.174,42.883,145.395,5.276,147.535z"/>
				</g>
			</g>
			<g>
				<g>
					<path fill="#3479BE" d="M2.924,137.629c38.375,2.123,83.234,3.355,131.176,3.355c47.933,0,92.792-1.232,131.175-3.355
						c-38.383-2.133-83.242-3.361-131.175-3.361C86.159,134.268,41.299,135.496,2.924,137.629z"/>
				</g>
			</g>
			<g>
				<g>
					<path fill="#3479BE" d="M16.348,127.723c38.398,2.133,83.273,3.361,131.236,3.361c47.967,0,92.84-1.228,131.236-3.361
						c-38.396-2.133-83.271-3.355-131.236-3.355C99.622,124.368,54.747,125.59,16.348,127.723z"/>
				</g>
			</g>
			<g>
				<g>
					<path fill="#3479BE" d="M30.331,117.817c35.016,2.133,75.955,3.355,119.707,3.355c43.75,0,84.688-1.223,119.713-3.355
						c-35.024-2.133-75.963-3.355-119.713-3.355C106.286,114.461,65.346,115.684,30.331,117.817z"/>
				</g>
			</g>
			<g>
				<g>
					<path fill="#3479BE" d="M52.407,107.911c29.465,2.133,63.916,3.361,100.726,3.361c36.811,0,71.256-1.229,100.725-3.361
						c-29.469-2.133-63.914-3.357-100.725-3.357C116.323,104.553,81.872,105.778,52.407,107.911z"/>
				</g>
			</g>
			<g>
				<g>
					<path fill="#3479BE" d="M62.768,98.012c23.814,2.123,51.643,3.354,81.39,3.354c29.748,0,57.584-1.23,81.393-3.354
						c-23.809-2.133-51.645-3.365-81.393-3.365C114.411,94.647,86.583,95.879,62.768,98.012z"/>
				</g>
			</g>
			<g>
				<g>
					<path fill="#3479BE" d="M57.625,88.096c25.01,2.133,54.242,3.365,85.48,3.365c31.235,0,60.469-1.232,85.475-3.365
						c-25.006-2.123-54.238-3.352-85.475-3.352C111.868,84.745,82.635,85.973,57.625,88.096z"/>
				</g>
			</g>
			<g>
				<g>
					<path fill="#3479BE" d="M90.741,78.2c18.926,2.133,41.053,3.355,64.7,3.355c23.646,0,45.771-1.223,64.699-3.355
						c-18.928-2.133-41.053-3.361-64.699-3.361C131.793,74.838,109.667,76.067,90.741,78.2z"/>
				</g>
			</g>
			<g>
				<g>
					<path fill="#3479BE" d="M70.206,67.604c24.689,2.127,53.564,3.357,84.412,3.357c30.84,0,59.711-1.23,84.407-3.357
						c-24.696-2.137-53.567-3.361-84.407-3.361C123.77,64.243,94.895,65.467,70.206,67.604z"/>
				</g>
			</g>
			<g>
				<g>
					<path fill="#3479BE" d="M79.106,57.129c16.633,2.127,36.084,3.355,56.871,3.355c20.781,0,40.228-1.229,56.869-3.355
						c-16.641-2.139-36.088-3.361-56.869-3.361C115.19,53.768,95.739,54.991,79.106,57.129z"/>
				</g>
			</g>
			<g>
				<g>
					<path fill="#3479BE" d="M74.358,46.653c19.43,2.127,42.146,3.355,66.419,3.355c24.27,0,46.982-1.229,66.42-3.355
						c-19.438-2.139-42.15-3.361-66.42-3.361C116.504,43.292,93.788,44.514,74.358,46.653z"/>
				</g>
			</g>
			<g>
				<g>
					<path fill="#3479BE" d="M80.475,36.178c14.287,2.127,30.996,3.355,48.846,3.355c17.851,0,34.556-1.229,48.849-3.355
						c-14.293-2.139-30.998-3.363-48.849-3.363C111.471,32.815,94.762,34.04,80.475,36.178z"/>
				</g>
			</g>
		</g>
		<g>
			<path fill="#FFEECE" d="M191.371,118.969c-0.627-5.451-1.805-10.844-3.422-16.094c-16.195-52.645-72.222-60.744-72.21-60.73
				c0.174,0.152,18.33,16.074,26.532,38.984c6.205,16.77,4.742,36.506-4.576,51.867c-2.293,3.785-5.154,7.492-8.283,10.635
				c-6.223,6.23-12.5,11.039-20.799,14.164c-8.328,3.139-17.182,4.641-26.068,4.738c-7.363,0.076-14.549-1.486-21.34-4.293
				c-10.654-4.404-20.717-11.158-29.127-19.033c-2.156-2.018-4.119-4.164-5.984-6.441l0.076,0.188l-0.436-0.527
				c0,0,6.51,41.632,42.637,63.515c12.84,7.774,27.744,12.414,42.822,12.414c27.066,0,52.171-13.428,67.162-35.922
				c8.508-12.769,13.267-27.822,13.531-43.161C191.949,125.825,191.764,122.387,191.371,118.969z"/>
			<path fill="#FFD88C" d="M47.868,158.676c31.295,20.855,73.564,12.389,94.419-18.908c16.605-24.931,14.564-56.802-2.771-79.283
				c4.197,1.764,8.279,3.902,12.195,6.508c33.545,22.355,42.619,67.657,20.271,101.192c-22.349,33.535-67.645,42.605-101.186,20.258
				c-12.492-8.319-21.574-19.825-26.912-32.727C45.182,156.73,46.481,157.748,47.868,158.676z"/>
		</g>
	</g>
</g>
</svg>
