<?xml version="1.0" encoding="utf-8"?>
<!-- Generator: Adobe Illustrator 15.0.2, SVG Export Plug-In . SVG Version: 6.00 Build 0)  -->
<!DOCTYPE svg PUBLIC "-//W3C//DTD SVG 1.1//EN" "http://www.w3.org/Graphics/SVG/1.1/DTD/svg11.dtd">
<svg version="1.1" id="Layer_1" xmlns="http://www.w3.org/2000/svg" xmlns:xlink="http://www.w3.org/1999/xlink" x="0px" y="0px"
	 width="280px" height="260px" viewBox="0 0 280 260" enable-background="new 0 0 280 260" xml:space="preserve">
<g>
	<g>
		<g>
			<g>
				<path fill="#FFFFFF" d="M113.215,84.729c-2.861,20.509-21.814,34.824-42.321,31.96c-20.508-2.855-34.818-21.806-31.958-42.318
					c2.861-20.514,21.81-34.815,42.318-31.96C101.76,45.273,116.069,64.217,113.215,84.729z"/>
				<path fill="#FFD88C" d="M126.149,90.328c6.723-1.511,15.263-1.657,25.568-0.221c-9.838-1.374-17.748-3.697-23.708-6.772h0.006
					c-9.887-4.907-7.912-15.226,6.639-19.005c-14.107,3.657-20.879-3.806-15.559-12.555c3.682-5.822,9.621-11.975,17.926-18.245
					c-8.092,6.116-15.469,10.094-21.953,12.099c-10.205,3.159-15.854-5.458-8.34-18.238C99.374,39.9,89.361,39.452,86.876,29.627
					c-1.533-6.744-1.693-15.342-0.246-25.714c-1.426,10.234-3.889,18.371-7.146,24.407c-5.043,9.029-14.909,6.814-18.588-7.353
					c3.662,14.125-3.827,20.896-12.598,15.54l0.023,0.04c-5.83-3.686-11.986-9.63-18.268-17.947
					c5.992,7.928,9.935,15.166,11.977,21.557c3.525,10.462-5.172,16.356-18.124,8.737c12.542,7.379,12.061,17.427,2.152,19.877
					C19.33,70.29,10.766,70.444,0.432,69c9.853,1.377,17.764,3.707,23.733,6.782l-0.032-0.002c9.885,4.9,7.907,15.222-6.639,18.999
					c14.096-3.655,20.862,3.796,15.572,12.538c-3.684,5.82-9.629,11.979-17.94,18.256c7.944-6.002,15.191-9.945,21.586-11.988
					l-0.015,0.012c10.461-3.523,16.357,5.172,8.746,18.129c7.299-12.418,17.202-12.062,19.783-2.45
					c1.58,6.771,1.754,15.439,0.288,25.918c1.378-9.84,3.701-17.74,6.771-23.703l-0.004,0.002c4.907-9.891,15.223-7.91,19.004,6.637
					c-3.66-14.115,3.822-20.887,12.58-15.553c5.814,3.689,11.963,9.627,18.229,17.93c-5.986-7.934-9.93-15.17-11.977-21.561
					l0.01,0.012c-3.525-10.463,5.174-16.363,18.131-8.742C115.684,102.82,116.186,92.745,126.149,90.328z M113.215,84.729
					c-2.861,20.509-21.814,34.824-42.321,31.96c-20.508-2.855-34.818-21.806-31.958-42.318c2.861-20.514,21.81-34.815,42.318-31.96
					C101.76,45.273,116.069,64.217,113.215,84.729z"/>
				<path fill="#FEC343" d="M106.012,83.729c-2.307,16.53-17.582,28.068-34.114,25.761c-16.537-2.307-28.068-17.579-25.764-34.111
					c2.306-16.536,17.579-28.072,34.114-25.766C96.778,51.921,108.319,67.191,106.012,83.729z"/>
			</g>
		</g>
		<g>
			<path fill="#FFFFFF" d="M72.933,109.932c0.119,0.062,0.25,0.119,0.369,0.188c0.004-0.023,0.004-0.049,0.01-0.068
				C73.189,110.008,73.058,109.973,72.933,109.932z"/>
		</g>
		<g>
			<path fill="#FFFFFF" d="M63.111,107.82c2.838,0,5.568,0.473,8.117,1.33c-2.322-0.934-4.857-1.455-7.51-1.455
				c-1.121,0-2.215,0.096-3.285,0.271C61.31,107.873,62.205,107.82,63.111,107.82z"/>
		</g>
		<g>
			<path fill="#FFFFFF" d="M148.469,132.959c-1.027-3.693-3.463-6.992-6.688-9.053c-2.822-1.824-6.35-2.719-9.727-2.447
				c-0.125-1.826-0.748-3.654-1.771-5.189c-0.596-0.896-1.338-1.715-2.215-2.432c1.217-2.975,1.549-6.352,0.928-9.546
				c-0.736-3.939-2.979-7.652-6.148-10.189c-2.998-2.441-6.938-3.838-10.793-3.838c-0.164,0-0.328,0.004-0.484,0.008
				c-3.207,0.068-6.396,1.094-9.041,2.889c-0.947-1.229-2.049-2.279-3.275-3.131c-0.631-0.441-1.322-0.85-2.111-1.234
				c-0.062-0.031-0.119-0.057-0.182-0.08l-0.102-0.043c-0.268-0.119-0.527-0.232-0.797-0.336c-0.109-0.041-0.213-0.078-0.316-0.113
				c-1.824-0.658-3.725-0.975-5.576-0.879c-0.088-0.357-0.174-0.742-0.262-1.195c-0.113-0.578-0.232-1.18-0.402-1.777
				c-0.365-1.354-0.857-2.686-1.475-3.957c-1.277-2.654-3.121-5.109-5.33-7.1c-2.34-2.113-5.151-3.756-8.149-4.758
				c-3.115-1.049-6.479-1.422-9.799-1.08c-5.17,0.51-10.254,2.904-13.934,6.562c-3.307,3.24-5.592,7.479-6.461,11.98
				c-0.57-0.117-1.131-0.17-1.697-0.17c-2.232,0-4.432,0.74-6.188,2.09c-1.289,0.963-2.352,2.248-3.07,3.707
				c-0.477,0.959-0.787,2.023-0.926,3.109c-3.43-0.885-7.094-0.848-10.49,0.088c-3.854,1.047-7.434,3.301-10.08,6.35
				c-2.098,2.412-3.625,5.306-4.406,8.371c-0.752,2.936-0.846,6.061-0.266,9.039c0.533,2.781,1.688,5.488,3.348,7.826
				c1.234,1.738,2.787,3.311,4.508,4.584c-1.916,0.866-3.562,2.305-4.658,4.09c-1.447,2.305-1.939,5.166-1.361,7.844
				c0.061,0.295,0.129,0.559,0.205,0.805l0.025,0.088c0.029,0.1,0.057,0.195,0.137,0.422l0.139,0.396
				c0.02,0.043,0.082,0.182,0.256,0.276l0.096,0.053H27.14h15.383h72.729h1.352h30.453l0.572-1.166l0.223-0.516
				c0.125-0.315,0.271-0.69,0.396-1.072C149.242,139.271,149.318,135.98,148.469,132.959z"/>
			<g>
				<path fill="#ADD3F0" d="M8.593,117.137c0.035,0.357,0.064,0.715,0.117,1.064c-0.041-0.303-0.057-0.607-0.088-0.916
					C8.615,117.236,8.601,117.188,8.593,117.137z"/>
				<path fill="#ADD3F0" d="M104.516,106.602c1.525,0.912,2.955,2.021,4.215,3.283c1.648,1.65,3.035,3.59,4.051,5.654
					c1.178-1.461,2.789-2.602,4.596-3.238c1.115-0.396,2.354-0.607,3.57-0.607c1.18,0,2.334,0.188,3.428,0.559
					c1.041,0.346,2.031,0.871,2.922,1.525c0.572-1.914,0.785-3.936,0.674-5.936c-0.033-0.051-0.07-0.102-0.113-0.146
					c0.029-0.277,0.043-0.559,0.057-0.838c-0.084-0.76-0.221-1.514-0.402-2.251c-0.877-3.555-2.945-6.779-5.816-9.082
					c-2.844-2.311-6.443-3.637-10.119-3.732c-0.186-0.006-0.367-0.01-0.557-0.01c-2.889,0-5.84,0.785-8.4,2.207
					c0.93,1.33,1.648,2.809,2.078,4.35C105.465,101.051,105.395,103.971,104.516,106.602z M111.674,93.67
					c6.465,0,11.703,5.236,11.703,11.703c0,1.434-0.273,2.803-0.746,4.074c-8.211-0.266-14.83-6.775-15.271-14.943
					C108.697,93.971,110.15,93.67,111.674,93.67z"/>
				<path fill="#ADD3F0" d="M81.718,91.235c0.27-0.17,0.566-0.303,0.85-0.455c-0.031,0.012-0.062,0.02-0.094,0.031
					C82.222,90.948,81.962,91.083,81.718,91.235z"/>
				<path fill="#ADD3F0" d="M103.645,98.67c-1.008-2.867-2.939-5.4-5.438-7.143c-0.256-0.18-0.523-0.35-0.787-0.508
					c-0.359-0.203-0.725-0.408-1.088-0.588c-0.43-0.211-0.879-0.402-1.328-0.584c-1.646-0.623-3.406-0.957-5.172-0.957h-0.201
					c-2.424,0.018-4.883,0.701-7.062,1.889c1.408-0.512,2.916-0.807,4.492-0.807c7.291,0,13.203,5.906,13.203,13.193
					c0,0.502-0.047,0.986-0.109,1.471c0.664,0.209,1.32,0.447,1.953,0.718c0.732,0.32,1.445,0.691,2.148,1.094
					C104.721,103.856,104.516,101.112,103.645,98.67z"/>
				<path fill="#ADD3F0" d="M148.781,135.545c0-0.617-0.188-1.158-0.312-1.762c-0.045-0.227-0.092-0.467-0.152-0.707
					c-0.106-0.438-0.227-0.879-0.401-1.27c-0.166-0.365-0.396-0.707-0.549-1.076c-0.421-0.984-0.851-1.818-1.513-2.663
					c-0.709-0.906-1.401-1.762-2.369-2.391c-0.409-0.26-0.877-0.387-1.297-0.629c-0.479-0.277-0.934-0.531-1.424-0.783
					c-0.58-0.301-1.164-0.576-1.758-0.83c-1.666-0.725-3.559-1.207-5.365-1.354c-0.566-0.049-1.148-0.023-1.699-0.193
					c-0.234-0.072-0.588-0.203-0.732-0.424c-0.131-0.213-0.158-0.578-0.242-0.822c-0.436-1.262-1.08-2.447-1.92-3.488
					c-1.324-1.637-3.137-2.906-5.119-3.568c-1.121-0.375-2.301-0.566-3.51-0.566c-0.922,0-1.838,0.113-2.727,0.336
					c-1.738,0.434-3.373,1.297-4.758,2.498c0.107,0.225,0.209,0.445,0.305,0.668c0.949,2.184,1.521,4.58,1.654,6.932
					c0.006,0.062-0.039,0.113-0.113,0.123c-0.057,0-0.107-0.039-0.113-0.09c-1.076-4.746-3.533-9.221-6.932-12.605
					c-0.387-0.393-0.793-0.768-1.209-1.135c-0.236-0.205-0.48-0.396-0.717-0.592c-0.17-0.139-0.344-0.281-0.516-0.42
					c-0.34-0.258-0.689-0.51-1.037-0.75c-0.074-0.051-0.141-0.102-0.219-0.154c-0.41-0.277-0.828-0.549-1.254-0.803
					c4.758,3.678,7.84,9.436,7.84,15.924c0,1.906-0.277,3.746-0.777,5.496c4.416,0.193,8.475,1.711,11.799,4.182
					c2.516-3.914,6.893-6.514,11.895-6.514c7.821,0,14.16,6.338,14.16,14.159c0,1.648-0.295,3.224-0.815,4.695
					c0.079-0.051,0.147-0.125,0.217-0.268c0.149-0.305,0.336-0.625,0.436-0.951c0.096-0.328,0.125-0.643,0.283-0.957
					c0.096-0.176,0.311-0.328,0.379-0.492c0.098-0.227-0.062-0.152-0.107-0.389c-0.057-0.271,0.15-0.844,0.219-1.113
					c0.133-0.535,0.33-1.004,0.41-1.551c0.08-0.504,0.019-1.037,0.033-1.549C148.787,136.984,148.781,136.264,148.781,135.545z
					 M126.227,121.73c-4.26,0-7.787-3.139-8.41-7.225c0.801-0.285,1.658-0.449,2.559-0.449c4.162,0,7.545,3.338,7.625,7.486
					C127.43,121.662,126.838,121.73,126.227,121.73z"/>
				<path fill="#ADD3F0" d="M72.271,123.561c-0.637,0-1.26,0.033-1.883,0.09c-0.01-0.232-0.021-0.465-0.021-0.699
					c0-2.455,0.453-4.801,1.258-6.975c1.688-4.934,4.99-8.752,9.168-11.113c-0.127,0.051-0.25,0.107-0.375,0.16l0.281-0.123
					c0,0-3.869,0.687-8.32,4.25c-0.715,0.57-1.434,1.213-2.158,1.932c-0.033,0.033-0.068,0.068-0.102,0.102
					c-0.354,0.357-0.709,0.73-1.064,1.127c0,0.004-0.006,0.006-0.012,0.012c-0.334,0.377-0.668,0.775-1.004,1.193
					c-0.047,0.064-0.098,0.123-0.146,0.189c-0.328,0.416-0.65,0.852-0.975,1.303c-0.057,0.078-0.104,0.158-0.158,0.234
					c-0.297,0.422-0.578,0.857-0.867,1.311c-0.039,0.072-0.082,0.137-0.123,0.207c-0.305,0.494-0.602,1.012-0.896,1.547
					c-0.062,0.121-0.123,0.24-0.191,0.365c-0.295,0.559-0.584,1.127-0.867,1.729c-0.125,0.061-0.246,0.133-0.371,0.186
					c-1.619,0.721-3.385,1.09-5.15,1.09c-0.393,0-0.783-0.021-1.164-0.059c-0.006,0-0.006,0-0.006,0
					c-2.688-0.244-5.139-1.32-7.09-2.969c-0.02-0.01-0.033-0.027-0.057-0.039c-3.092-2.523-5.062-6.361-5.062-10.662
					c0-4.505,2.174-8.5,5.521-11.007c0.264-0.068,0.471-0.145,0.539-0.227c-3.66,0.775-7.035,2.627-9.51,5.232
					c-2.535,2.629-4.254,6.123-4.85,9.839c-0.012,0.057-0.059,0.096-0.119,0.096c-0.064,0-0.113-0.049-0.115-0.107
					c-0.105-1.818,0.166-3.711,0.785-5.475c0.695-1.974,1.828-3.818,3.273-5.324c0.203-0.209,0.422-0.396,0.635-0.592
					c-2.326-1.971-5.104-3.406-8.039-4.152c-0.072,0.018-0.146,0.018-0.221-0.006c-0.254,0-0.545-0.102-0.809-0.172
					c-0.434-0.088-0.865-0.162-1.301-0.219c-0.258-0.027-0.502-0.027-0.756-0.031c-0.113,0-0.221-0.037-0.322-0.076
					c-0.508-0.043-1.014-0.068-1.529-0.068c-1.926,0-3.824,0.275-5.654,0.822c-3.488,1.037-6.744,3.135-9.158,5.91
					c-1.914,2.203-3.33,4.839-4.09,7.621c-0.65,2.346-0.82,4.838-0.572,7.273c0.031,0.146,0.057,0.291,0.088,0.436
					c-0.004,0.158,0,0.322,0,0.48c0.01,0.047,0.01,0.088,0.021,0.131c0.4,2.6,1.369,5.178,2.803,7.449
					c1.234,1.965,2.861,3.729,4.695,5.163c1.852-0.763,3.959-1.013,5.93-0.706c0.023-0.498,0.08-0.998,0.182-1.492
					c0.355-1.768,1.201-3.475,2.379-4.809c1.062-1.215,2.396-2.156,3.852-2.715c0.062-0.02,0.119,0.004,0.148,0.055
					c0.027,0.051,0.01,0.115-0.035,0.15c-2.561,1.838-4.367,4.607-4.961,7.598c-0.621,3.008-0.035,6.266,1.604,8.93
					c0.027,0.049,0.02,0.117-0.029,0.151c-0.02,0.017-0.045,0.025-0.07,0.025c-0.031,0-0.061-0.01-0.082-0.033
					c-1.127-1.088-1.988-2.469-2.492-3.998c-0.375-1.147-0.533-2.352-0.494-3.553c-0.016-0.002-0.027,0-0.039,0l0.039-0.039
					c0,0-0.457-0.008-1.174,0.051c-0.598,0.039-1.193,0.125-1.775,0.25c-3.41,0.656-8.559,2.746-8.543,9.373
					c-0.033,0.797,0.023,1.601,0.188,2.379c0.023,0.103,0.051,0.232,0.094,0.383c0.043,0.158,0.096,0.304,0.156,0.439l30.385,1.09
					c-0.15-0.729-0.246-1.473-0.246-2.242c0-6.375,5.168-11.541,11.537-11.541c4.008,0,7.527,2.039,9.6,5.138
					c2.402-6.072,8.311-10.377,15.234-10.377c0.977,0,1.922,0.104,2.846,0.264c0.213-0.076,0.434-0.133,0.648-0.201
					C78.421,124.266,75.431,123.561,72.271,123.561z M78.126,106.041l0.443-0.193c-0.227,0.111-0.449,0.236-0.672,0.355
					L78.126,106.041z M30.652,121.473c-0.031-0.012-0.066-0.014-0.104-0.02c0.068-0.049,0.143-0.094,0.211-0.143
					C30.724,121.363,30.685,121.42,30.652,121.473z M28.865,115.129c-2.605,1.131-4.869,2.887-6.619,5.078
					c-4.133-1.549-7.078-5.525-7.078-10.201c0-6.021,4.881-10.9,10.898-10.9c3.412,0,6.455,1.562,8.453,4.014
					C31.568,106.414,29.57,110.555,28.865,115.129z"/>
				<path fill="#ADD3F0" d="M89.568,87.792c-0.172-0.504-0.322-1.02-0.459-1.523c-0.143-0.543-0.293-1.104-0.482-1.643
					c-0.428-1.271-0.975-2.514-1.621-3.693c-1.34-2.441-3.168-4.678-5.311-6.479c-2.242-1.889-4.898-3.354-7.682-4.234
					c-2.182-0.693-4.455-1.039-6.771-1.039c-0.768,0-1.541,0.039-2.303,0.115c-4.824,0.479-9.438,2.58-12.988,5.916
					c-3.303,3.064-5.664,7.172-6.652,11.559c-0.014,0.076-0.057,0.141-0.107,0.186c-0.344,1.545-0.529,3.137-0.553,4.738
					c0,0.062-0.053,0.113-0.115,0.113s-0.117-0.047-0.119-0.109c-0.092-1.627-0.006-3.258,0.252-4.855
					c-2.572,0.135-5.072,1.029-7.084,2.559c-1.977,1.486-3.518,3.613-4.383,6.016c0.014,0.008,0.033,0.014,0.051,0.021
					c3.002,0.926,5.766,2.578,7.988,4.771c0.477-0.406,0.982-0.793,1.504-1.154c-0.5,0.139-1.004,0.309-1.488,0.527
					c-0.828-1.406-2.057-2.371-3.484-3.037c0.666-0.604,1.461-1.115,2.082-1.75c0.365-0.383,0.789-0.699,1.242-0.957
					c0.621,1.645,1.777,3.141,3.141,4.297c0.451-0.244,0.928-0.471,1.402-0.66c1.729-0.693,3.625-1.049,5.432-1.018
					c0.012,0,0.02,0.006,0.029,0.012c0.021-0.014,0.045-0.027,0.062-0.039c-0.125-0.391-0.326-1.439-0.33-1.484
					c-0.078-0.385-0.146-0.77-0.197-1.156c-0.105-0.787-0.158-1.58-0.158-2.375c0-9.904,8.029-17.936,17.936-17.936
					c8.918,0,16.292,6.514,17.68,15.035C87.207,88.131,88.379,87.883,89.568,87.792z"/>
			</g>
			<path fill="#231F20" d="M149.746,132.604c-1.111-4.005-3.752-7.582-7.24-9.811c-2.699-1.748-5.982-2.711-9.283-2.711
				c-0.295-1.613-0.93-3.191-1.83-4.543c-0.502-0.752-1.088-1.455-1.756-2.09c1.033-2.984,1.27-6.289,0.666-9.402
				c-0.797-4.244-3.209-8.25-6.613-10.979c-3.236-2.627-7.477-4.133-11.635-4.133l-0.512,0.006c-3.039,0.068-6.1,0.938-8.736,2.475
				c-0.84-0.939-1.773-1.771-2.787-2.475c-0.697-0.49-1.445-0.93-2.322-1.359c-0.1-0.045-0.193-0.082-0.295-0.119
				c-0.283-0.131-0.566-0.252-0.877-0.373l-0.33-0.119c-1.652-0.596-3.318-0.918-4.961-0.969c-0.006-0.035-0.018-0.068-0.023-0.102
				c-0.119-0.617-0.242-1.258-0.424-1.875c-0.385-1.447-0.912-2.857-1.559-4.186c-1.35-2.811-3.301-5.41-5.635-7.512
				c-2.475-2.234-5.456-3.977-8.616-5.029c-3.303-1.109-6.861-1.5-10.354-1.145c-5.475,0.539-10.848,3.07-14.736,6.934
				c-3.191,3.123-5.49,7.154-6.561,11.453c-2.719-0.174-5.5,0.686-7.652,2.332c-1.453,1.094-2.65,2.539-3.461,4.182
				c-0.326,0.658-0.59,1.369-0.781,2.105c-3.229-0.605-6.641-0.469-9.793,0.4c-4.109,1.119-7.92,3.518-10.734,6.76
				c-2.23,2.566-3.857,5.646-4.691,8.916c-0.803,3.129-0.902,6.457-0.281,9.613c0.564,2.971,1.795,5.859,3.566,8.35
				c0.922,1.301,2.023,2.529,3.242,3.616c-0.113-0.106-1.787,1.479-1.939,1.638c-1.848,1.926-3.256,4.639-2.91,7.368
				c0.148,1.164,0.5,2.369,0.924,3.462c0.113,0.282,0.385,0.922,0.699,1.196l0.062,0.176c0.02,0.044,0.082,0.183,0.256,0.277
				l0.096,0.053h32.594l-0.152-0.418h-0.445c-0.014-0.045-0.055-0.08-0.1-0.08l-30.721-1.104c-0.061-0.137-0.113-0.281-0.156-0.439
				c-0.043-0.149-0.07-0.28-0.094-0.383c-0.164-0.778-0.221-1.582-0.188-2.379c-0.016-6.627,5.133-8.717,8.543-9.373
				c0.582-0.125,1.178-0.211,1.775-0.25c0.717-0.059,1.174-0.051,1.174-0.051l-0.039,0.039c0.012,0,0.023-0.002,0.039,0
				c-0.039,1.201,0.119,2.404,0.494,3.553c0.504,1.529,1.365,2.91,2.492,3.998c0.021,0.023,0.051,0.033,0.082,0.033
				c0.025,0,0.051-0.01,0.07-0.025c0.049-0.035,0.057-0.104,0.029-0.151c-1.639-2.664-2.225-5.922-1.604-8.93
				c0.594-2.99,2.4-5.76,4.961-7.598c0.045-0.035,0.062-0.1,0.035-0.15c-0.029-0.051-0.086-0.074-0.148-0.055
				c-1.455,0.559-2.789,1.5-3.852,2.715c-1.178,1.334-2.023,3.041-2.379,4.809c-0.102,0.494-0.158,0.994-0.182,1.492
				c-1.971-0.307-4.078-0.057-5.93,0.707c-1.834-1.436-3.461-3.198-4.695-5.163c-1.434-2.271-2.402-4.85-2.803-7.449
				c-0.443-2.764-0.279-5.641,0.463-8.32c0.76-2.781,2.176-5.417,4.09-7.621c2.414-2.775,5.67-4.873,9.158-5.91
				c1.83-0.547,3.729-0.822,5.654-0.822c1.602,0,3.182,0.189,4.711,0.566l0,0h0.006c0.074,0.023,0.148,0.023,0.221,0.006
				c2.936,0.746,5.713,2.182,8.039,4.152c-0.213,0.195-0.432,0.383-0.635,0.592c-1.445,1.506-2.578,3.35-3.273,5.324
				c-0.619,1.764-0.891,3.656-0.785,5.475c0.002,0.059,0.051,0.107,0.109,0.107c0.004,0,0.004,0,0.006,0
				c0.061,0,0.107-0.039,0.119-0.096c0.596-3.717,2.314-7.21,4.85-9.839c2.498-2.627,5.912-4.496,9.617-5.256
				c0.057-0.014,0.1-0.068,0.09-0.127c-0.006-0.061-0.051-0.105-0.113-0.105c-1.807-0.031-3.703,0.324-5.432,1.018
				c-1.607,0.635-3.098,1.582-4.393,2.752c-0.002-0.002-0.002-0.012-0.006-0.018c-2.223-2.193-4.986-3.846-7.988-4.771
				c-0.018-0.008-0.037-0.014-0.051-0.021c0.865-2.402,2.406-4.529,4.383-6.016c2.012-1.529,4.512-2.424,7.084-2.559
				c-0.258,1.598-0.344,3.229-0.252,4.855c0.002,0.062,0.057,0.109,0.119,0.109l0,0c0.062,0,0.115-0.051,0.115-0.113
				c0.023-1.602,0.209-3.193,0.553-4.738c0.051-0.045,0.094-0.109,0.107-0.186c0.988-4.387,3.35-8.494,6.652-11.559
				c3.551-3.336,8.164-5.438,12.988-5.916c0.762-0.076,1.535-0.115,2.303-0.115c2.316,0,4.59,0.346,6.771,1.039
				c2.783,0.881,5.439,2.346,7.682,4.234c2.143,1.801,3.971,4.037,5.311,6.479c0.646,1.18,1.193,2.422,1.621,3.693
				c0.189,0.539,0.34,1.1,0.482,1.643c0.137,0.504,0.287,1.02,0.459,1.523c-2.939,0.215-5.777,1.377-7.993,3.258
				c-0.045,0.039-0.053,0.107-0.016,0.158c0.039,0.051,0.104,0.062,0.158,0.027c2.362-1.488,5.178-2.324,7.913-2.344h0.201
				c1.766,0,3.525,0.334,5.172,0.957c0.449,0.182,0.898,0.373,1.328,0.584c0.363,0.18,0.729,0.385,1.088,0.588
				c0.264,0.158,0.531,0.328,0.787,0.508c2.498,1.742,4.43,4.275,5.438,7.143c0.871,2.441,1.076,5.186,0.611,7.779
				c-0.703-0.402-1.416-0.773-2.148-1.094c-2.188-0.951-4.58-1.529-6.932-1.667c-0.057,0-0.109,0.043-0.119,0.1
				c-0.004,0.062,0.029,0.119,0.092,0.131c4.734,1.085,9.207,3.556,12.586,6.962c3.398,3.385,5.855,7.859,6.932,12.605
				c0.006,0.051,0.057,0.09,0.113,0.09c0.006,0,0.012,0,0.016,0c0.059-0.01,0.104-0.061,0.098-0.123
				c-0.133-2.352-0.705-4.748-1.654-6.932c-0.096-0.223-0.197-0.443-0.305-0.668c1.385-1.201,3.02-2.064,4.758-2.498
				c0.889-0.223,1.805-0.336,2.727-0.336c1.209,0,2.389,0.191,3.51,0.566c1.982,0.662,3.795,1.932,5.119,3.568
				c1.117,1.377,1.898,3.023,2.287,4.803c-3.074,0.363-5.996,1.666-8.256,3.682c-0.045,0.043-0.051,0.113-0.012,0.164
				c0,0,0.006-0.006,0.008,0c2.641-1.938,5.9-3.098,9.443-3.098c8.77,0,15.891,7.035,15.891,15.711c0,2.309-0.521,4.496-1.422,6.469
				l0.07,0.102l0.1-0.209h1.457l0.475-0.983c0.135-0.34,0.287-0.742,0.412-1.137C150.588,139.453,150.67,135.879,149.746,132.604z
				 M127.297,113.777c-0.891-0.654-1.881-1.18-2.922-1.525c-1.094-0.371-2.248-0.559-3.428-0.559c-1.217,0-2.455,0.211-3.57,0.607
				c-1.807,0.637-3.418,1.777-4.596,3.238c-1.016-2.064-2.402-4.004-4.051-5.654c-1.26-1.262-2.689-2.371-4.215-3.283
				c0.879-2.63,0.949-5.55,0.182-8.263c-0.43-1.541-1.148-3.02-2.078-4.35c2.561-1.422,5.512-2.207,8.4-2.207
				c0.189,0,0.371,0.004,0.557,0.01c3.676,0.096,7.275,1.422,10.119,3.732c2.871,2.303,4.939,5.527,5.816,9.082
				C128.26,107.594,128.176,110.816,127.297,113.777z"/>
		</g>
		<g>
			<g>
				<path fill="#FFFFFF" d="M193.907,118.174c0.215,0.109,0.438,0.209,0.651,0.322c0.002-0.039,0.002-0.078,0.008-0.119
					C194.35,118.309,194.132,118.242,193.907,118.174z"/>
			</g>
			<g>
				<path fill="#FFFFFF" d="M176.882,114.512c4.923,0,9.654,0.818,14.078,2.303c-4.024-1.621-8.422-2.521-13.026-2.521
					c-1.939,0-3.845,0.168-5.695,0.471C173.764,114.605,175.314,114.512,176.882,114.512z"/>
			</g>
			<path fill="#FFFFFF" d="M278.456,166.551c-1.776-6.404-6.008-12.127-11.603-15.701c-4.881-3.166-10.998-4.713-16.86-4.242
				c-0.216-3.172-1.291-6.338-3.063-8.994c-1.031-1.563-2.322-2.979-3.834-4.223c2.102-5.158,2.68-11.014,1.604-16.555
				c-1.277-6.83-5.172-13.273-10.672-17.671c-5.199-4.227-12.025-6.652-18.711-6.652c-0.281,0-0.562,0.004-0.836,0.016
				c-5.558,0.115-11.097,1.891-15.683,5.006c-1.646-2.127-3.551-3.951-5.672-5.426c-1.101-0.775-2.297-1.479-3.674-2.146
				c-0.099-0.051-0.201-0.09-0.306-0.133l-0.182-0.076c-0.455-0.205-0.914-0.402-1.383-0.584c-0.186-0.068-0.367-0.137-0.545-0.199
				c-3.168-1.135-6.453-1.688-9.672-1.523c-0.15-0.611-0.301-1.285-0.451-2.066c-0.197-1.008-0.402-2.051-0.695-3.09
				c-0.635-2.342-1.49-4.65-2.561-6.857c-2.213-4.602-5.41-8.857-9.242-12.311c-4.055-3.662-8.936-6.514-14.124-8.25
				c-5.408-1.816-11.246-2.463-16.992-1.871c-8.971,0.883-17.785,5.033-24.174,11.377c-5.732,5.617-9.691,12.971-11.191,20.771
				c-0.998-0.201-1.967-0.297-2.951-0.297c-3.865,0-7.682,1.291-10.73,3.631c-2.229,1.672-4.071,3.895-5.323,6.43
				c-0.82,1.658-1.371,3.506-1.604,5.389c-5.947-1.535-12.307-1.471-18.197,0.15c-6.684,1.818-12.887,5.726-17.469,11.007
				c-3.643,4.188-6.289,9.207-7.646,14.521c-1.309,5.09-1.469,10.51-0.465,15.67c0.928,4.83,2.936,9.521,5.807,13.578
				c2.141,3.01,4.832,5.735,7.828,7.944c-3.336,1.502-6.186,4-8.09,7.099c-2.508,3.994-3.367,8.949-2.361,13.596
				c0.111,0.51,0.23,0.973,0.359,1.4l0.049,0.149c0.045,0.17,0.096,0.334,0.238,0.729l0.238,0.681
				c0.031,0.077,0.141,0.315,0.438,0.485l0.168,0.092h29.842h26.68h126.113h2.343h52.803l0.986-2.022l0.389-0.896
				c0.228-0.545,0.484-1.193,0.695-1.861C279.8,177.498,279.932,171.783,278.456,166.551z"/>
			<g>
				<path fill="#ADD3F0" d="M242.921,122.994c-0.062-0.092-0.123-0.182-0.2-0.256c0.053-0.48,0.077-0.969,0.098-1.449
					c-0.031-0.271-0.08-0.545-0.113-0.816c-0.057-0.385-0.1-0.77-0.17-1.148c-0.117-0.654-0.256-1.303-0.414-1.943
					c-1.518-6.162-5.104-11.76-10.082-15.751c-4.941-4.004-11.172-6.301-17.547-6.469c-0.322-0.012-0.646-0.018-0.969-0.018
					c-5.008,0-10.127,1.359-14.568,3.824c1.621,2.311,2.855,4.871,3.604,7.544c1.33,4.709,1.211,9.77-0.317,14.332
					c2.649,1.584,5.133,3.504,7.312,5.689c2.855,2.867,5.26,6.229,7.029,9.809c2.041-2.533,4.832-4.512,7.963-5.617
					c1.932-0.686,4.078-1.051,6.197-1.051c2.039,0,4.039,0.326,5.939,0.967c1.807,0.601,3.52,1.512,5.071,2.644
					c0.233-0.779,0.422-1.566,0.588-2.365c0.023-0.137,0.052-0.274,0.076-0.414C242.891,128.037,243.057,125.506,242.921,122.994z
					 M234.764,125.42c-14.24-0.461-25.716-11.756-26.482-25.919c2.32-0.918,4.84-1.439,7.479-1.439
					c11.213,0,20.295,9.082,20.295,20.289C236.055,120.842,235.583,123.217,234.764,125.42z"/>
				<path fill="#ADD3F0" d="M35.998,139.748c-0.018-0.125-0.025-0.252-0.033-0.377c-0.006-0.006-0.006-0.014-0.006-0.02
					C35.97,139.482,35.98,139.615,35.998,139.748z"/>
				<path fill="#ADD3F0" d="M194.87,114.889c0,0.867-0.084,1.711-0.185,2.545v0.004c1.146,0.361,2.279,0.77,3.375,1.246
					c1.271,0.553,2.515,1.191,3.729,1.896c0.81-4.502,0.448-9.26-1.056-13.49c-1.75-4.968-5.1-9.369-9.428-12.388
					c-0.447-0.311-0.906-0.6-1.371-0.883c-0.623-0.352-1.246-0.703-1.879-1.014c-0.754-0.369-1.527-0.699-2.307-1.02
					c-2.859-1.076-5.906-1.654-8.971-1.654h-0.353c-4.739,0.033-9.616,1.48-13.719,4.066c0.426-0.266,0.873-0.498,1.313-0.738
					c2.48-0.924,5.154-1.453,7.957-1.453C184.624,92.006,194.87,102.249,194.87,114.889z"/>
				<path fill="#ADD3F0" d="M173.13,88.698c0.104-0.025,0.211-0.045,0.322-0.062c0.942-0.186,1.905-0.34,2.868-0.406
					c-0.295-0.879-0.561-1.768-0.793-2.648c-0.25-0.943-0.504-1.912-0.836-2.846c-0.741-2.205-1.69-4.359-2.812-6.406
					c-2.315-4.232-5.5-8.115-9.207-11.23c-3.889-3.275-8.493-5.816-13.325-7.346c-3.777-1.197-7.731-1.805-11.736-1.805
					c-1.33,0-2.676,0.068-3.992,0.205c-8.373,0.826-16.367,4.469-22.527,10.258c-5.727,5.312-9.82,12.432-11.531,20.041
					c-0.029,0.137-0.096,0.248-0.193,0.326c-0.588,2.674-0.912,5.436-0.957,8.213c0,0.107-0.09,0.195-0.201,0.199
					c-0.109,0-0.195-0.086-0.201-0.193c-0.16-2.814-0.01-5.646,0.432-8.416c-4.455,0.229-8.793,1.783-12.275,4.428
					c-3.432,2.584-6.1,6.273-7.61,10.434c0.029,0.018,0.066,0.025,0.088,0.045c0.709,0.646,2.635,0.918,3.557,1.318
					c1.247,0.541,2.459,1.158,3.631,1.844c2.408,1.406,4.666,3.109,6.633,5.08c1.559-0.709,2.85-2.252,4.463-3.064
					c4.018-2.009,8.023-3.416,12.672-3.392c0.033-0.025,0.072-0.045,0.107-0.068c-0.219-0.674-0.566-2.494-0.58-2.576
					c-0.131-0.664-0.248-1.332-0.332-2c-0.188-1.365-0.277-2.742-0.277-4.117c0-17.18,13.928-31.102,31.104-31.102
					c15.455,0,28.245,11.287,30.654,26.068C171.21,89.157,172.157,88.899,173.13,88.698z"/>
				<path fill="#ADD3F0" d="M146.334,150.252c-1.107,0-2.191,0.057-3.268,0.15c-0.019-0.402-0.031-0.805-0.031-1.213
					c0-4.254,0.773-8.32,2.172-12.092c2.928-8.558,8.66-15.175,15.896-19.271c-0.225,0.084-0.426,0.188-0.647,0.277l0.485-0.215
					c0,0-6.699,1.195-14.426,7.375c-1.232,0.984-2.484,2.096-3.744,3.348c-0.058,0.057-0.113,0.117-0.166,0.174
					c-0.619,0.619-1.238,1.27-1.855,1.955c-0.006,0.006-0.01,0.014-0.014,0.022c-0.583,0.65-1.165,1.348-1.74,2.064
					c-0.082,0.109-0.178,0.217-0.26,0.33c-0.57,0.721-1.131,1.473-1.686,2.26c-0.096,0.137-0.184,0.273-0.283,0.408
					c-0.504,0.729-1.002,1.484-1.49,2.273c-0.078,0.123-0.148,0.231-0.221,0.354c-0.525,0.854-1.045,1.756-1.549,2.685
					c-0.115,0.206-0.223,0.42-0.336,0.633c-0.516,0.965-1.016,1.957-1.502,2.998c-0.219,0.106-0.43,0.227-0.648,0.323
					c-2.803,1.246-5.861,1.892-8.936,1.892c-0.674,0-1.344-0.045-2.021-0.105c0,0,0,0-0.006,0c-4.662-0.422-8.91-2.287-12.291-5.15
					c-0.027-0.018-0.062-0.043-0.096-0.062c-5.365-4.379-8.785-11.033-8.785-18.492c0-7.816,3.771-14.732,9.584-19.087
					c0.453-0.119,0.814-0.25,0.932-0.393c-0.041,0.01-0.076,0.021-0.117,0.029c-2.338,0.504-4.609,1.257-6.762,2.242
					c-0.004,0.004-0.016,0.006-0.018,0.01c-0.719,0.33-1.43,0.686-2.119,1.064c-0.062,0.037-0.123,0.076-0.186,0.115
					c-0.629,0.352-1.252,0.717-1.855,1.107c-0.156,0.102-0.303,0.219-0.457,0.32c-0.498,0.34-1.002,0.68-1.477,1.049
					c-0.279,0.205-0.527,0.436-0.793,0.654c-0.346,0.279-0.697,0.551-1.025,0.85c-0.59,0.523-1.152,1.066-1.689,1.637
					c-4.389,4.557-7.373,10.611-8.41,17.057c-0.014,0.1-0.102,0.17-0.199,0.17c-0.113-0.006-0.197-0.084-0.203-0.189
					c-0.182-3.152,0.291-6.432,1.365-9.49c1.207-3.428,3.17-6.621,5.682-9.236c0.346-0.359,0.721-0.688,1.09-1.027
					c-3.021-2.566-6.488-4.605-10.176-6.009c-1.229-0.467-2.48-0.863-3.756-1.189c-0.123,0.035-0.26,0.029-0.387-0.006
					c-0.441-0.002-0.947-0.18-1.402-0.299c-0.006-0.004-0.012-0.006-0.018-0.006c-0.742-0.148-1.484-0.275-2.23-0.375
					c-0.006,0-0.01,0-0.012,0c-0.447-0.047-0.867-0.045-1.309-0.051c-0.199-0.006-0.379-0.068-0.555-0.141
					c-0.885-0.068-1.766-0.117-2.65-0.117c-3.342,0-6.639,0.482-9.799,1.426c-6.066,1.796-11.709,5.443-15.883,10.251
					c-3.324,3.82-5.779,8.389-7.104,13.213c-0.316,1.15-0.572,2.326-0.77,3.512c-0.096,0.607-0.137,1.22-0.199,1.83
					c-0.064,0.58-0.152,1.156-0.189,1.736c-0.047,0.814-0.025,1.635-0.014,2.449c0.004,0.385-0.023,0.766-0.006,1.15
					c0.029,0.647,0.125,1.291,0.193,1.938c0.045,0.252,0.096,0.502,0.152,0.75c-0.012,0.256-0.006,0.51,0,0.771
					c0.014,0.096,0.014,0.191,0.029,0.291c0.695,4.508,2.381,8.976,4.859,12.914c2.146,3.406,4.961,6.471,8.145,8.957
					c3.215-1.322,6.865-1.756,10.279-1.223c0.053-0.869,0.148-1.732,0.318-2.592c0.617-3.064,2.082-6.023,4.129-8.338
					c1.84-2.109,4.154-3.734,6.684-4.703c0.096-0.039,0.197,0.006,0.246,0.09c0.051,0.092,0.025,0.201-0.059,0.262
					c-4.434,3.189-7.574,7.986-8.602,13.174c-1.07,5.221-0.059,10.863,2.783,15.486c0.049,0.088,0.029,0.201-0.047,0.266
					c-0.037,0.029-0.082,0.043-0.129,0.043c-0.053,0-0.102-0.02-0.141-0.057c-1.955-1.887-3.455-4.285-4.328-6.936
					c-0.645-1.988-0.916-4.076-0.859-6.162c-0.018,0-0.035,0.002-0.057,0.002l0.057-0.068c0,0-0.783-0.014-2.029,0.094
					c-1.041,0.062-2.066,0.209-3.074,0.433c-5.914,1.137-14.846,4.76-14.812,16.25c-0.068,1.385,0.035,2.774,0.326,4.131
					c0.037,0.176,0.088,0.399,0.156,0.659c0.072,0.271,0.17,0.527,0.266,0.761l52.694,1.892c-0.256-1.263-0.42-2.556-0.42-3.892
					c0-11.051,8.955-20.013,20.006-20.013c6.943,0,13.059,3.541,16.646,8.91c4.162-10.533,14.412-17.994,26.418-17.994
					c1.688,0,3.326,0.177,4.933,0.459c0.368-0.131,0.747-0.231,1.122-0.352C156.993,151.473,151.807,150.252,146.334,150.252z
					 M156.492,119.873l0.761-0.34c-0.399,0.195-0.774,0.414-1.171,0.617L156.492,119.873z M59.662,145.879
					c-7.629-2.863-13.072-10.203-13.072-18.842c0-11.117,9.016-20.135,20.131-20.135c6.299,0,11.916,2.889,15.608,7.414
					c-5.442,6.088-9.139,13.738-10.442,22.18C67.076,138.59,62.894,141.832,59.662,145.879z M74.16,146.629
					c-0.057-0.016-0.119-0.021-0.176-0.035c0.115-0.082,0.244-0.162,0.359-0.248C74.285,146.443,74.218,146.533,74.16,146.629z
					 M75.601,167.865c-3.795-6.711-3.234-14.824,3.33-21.207c2.135-2.072,4.741-2.887,7.327-2.662
					c2.189,3.801,5.277,6.934,8.918,9.527C86.488,154.678,79.203,160.223,75.601,167.865z"/>
				<path fill="#ADD3F0" d="M210.262,162.078c7.672,2.598,14.204,7.672,18.629,14.283c-0.236-1.242-0.357-2.516-0.357-3.824
					c0-11.504,9.322-20.826,20.826-20.826c11.496,0,20.822,9.322,20.822,20.826c0,4.684-1.576,8.994-4.191,12.473
					c0.9-0.031,1.795-0.062,2.695-0.094c0.561-0.02,1.121-0.039,1.682-0.059l0.664-0.023c0.311-0.012,0.701-0.061,1.07-0.037
					l1.926-0.068l0.578-1.373c0.164-0.43,0.35-0.934,0.518-1.455c0-0.006,0-0.012,0-0.018c0.059-0.396,0.213-0.793,0.342-1.189
					c0.047-0.172,0.1-0.346,0.143-0.521c0.082-0.327,0.146-0.655,0.214-0.983c0.057-0.269,0.112-0.533,0.153-0.799
					c0.062-0.341,0.099-0.687,0.146-1.025c0.03-0.271,0.073-0.545,0.101-0.816c0.03-0.352,0.045-0.695,0.062-1.047
					c0.018-0.262,0.036-0.521,0.039-0.787c0.006-0.363-0.003-0.73-0.015-1.098c-0.002-0.252,0-0.5-0.014-0.752
					c-0.018-0.371-0.057-0.736-0.098-1.107c-0.016-0.244-0.033-0.492-0.064-0.736c-0.049-0.396-0.121-0.78-0.188-1.172
					c-0.041-0.219-0.066-0.438-0.109-0.651c-0.119-0.604-0.264-1.201-0.432-1.793c-1.574-5.658-5.277-10.787-10.18-14.072
					c-0.673-0.449-1.357-0.86-2.062-1.246c-0.176-0.096-0.359-0.178-0.535-0.271c-0.537-0.277-1.088-0.543-1.648-0.779
					c-0.178-0.076-0.356-0.15-0.537-0.221c-0.709-0.283-1.428-0.543-2.157-0.762c-1.15-0.341-2.322-0.604-3.507-0.781
					c-2.42-0.363-4.899-0.555-7.336-0.262c-1.133,0.143-2.26,0.356-3.368,0.641c-1.128,0.291-2.232,0.654-3.314,1.088
					c-2.157,0.869-4.209,2.02-6.062,3.432c-0.088,0.062-0.213,0.049-0.281-0.033c-0.074-0.086-0.062-0.207,0.023-0.276
					c3.914-3.507,8.985-5.761,14.312-6.39c-0.674-3.082-2.03-5.944-3.967-8.326c-2.296-2.842-5.441-5.041-8.873-6.188
					c-1.943-0.649-3.988-0.981-6.08-0.981c-1.606,0-3.192,0.199-4.729,0.584c-3.017,0.754-5.853,2.252-8.256,4.332
					c0.182,0.387,0.362,0.771,0.534,1.158c1.642,3.786,2.632,7.944,2.867,12.018c0.002,0.107-0.074,0.197-0.181,0.209
					c-0.004,0-0.004-0.006-0.008-0.006c-0.006,0.004-0.012,0.01-0.014,0.012c-0.096,0-0.178-0.068-0.199-0.158
					c-1.863-8.225-6.133-15.986-12.018-21.857c-0.678-0.684-1.383-1.338-2.111-1.975c-0.393-0.342-0.803-0.672-1.215-1.006
					c-0.311-0.252-0.617-0.51-0.934-0.756c-0.572-0.436-1.156-0.861-1.75-1.271c-0.137-0.096-0.275-0.191-0.414-0.289
					c-0.709-0.48-1.428-0.945-2.166-1.381c0-0.004,0-0.004,0-0.004c8.26,6.379,13.596,16.361,13.596,27.609
					c0,4.566-0.887,8.922-2.48,12.918C210.325,162.096,210.288,162.088,210.262,162.078z M228.975,133.676
					c7.223,0,13.09,5.789,13.231,12.979c-0.998,0.212-2.022,0.326-3.076,0.326c-7.397,0-13.504-5.438-14.588-12.528
					C225.927,133.959,227.417,133.676,228.975,133.676z"/>
			</g>
			<path fill="#231F20" d="M278.456,166.551c-1.776-6.404-6.008-12.127-11.603-15.701c-4.881-3.166-10.998-4.713-16.86-4.242
				c-0.216-3.172-1.291-6.338-3.063-8.994c-1.031-1.563-2.322-2.979-3.834-4.223c2.102-5.158,2.68-11.014,1.604-16.555
				c-1.277-6.83-5.172-13.273-10.672-17.671c-5.199-4.227-12.025-6.652-18.711-6.652c-0.281,0-0.562,0.004-0.836,0.016
				c-5.558,0.115-11.097,1.891-15.683,5.006c-1.646-2.127-3.551-3.951-5.672-5.426c-1.101-0.775-2.297-1.479-3.674-2.146
				c-0.099-0.051-0.201-0.09-0.306-0.133l-0.182-0.076c-0.455-0.205-0.914-0.402-1.383-0.584c-0.186-0.068-0.367-0.137-0.545-0.199
				c-3.168-1.135-6.453-1.688-9.672-1.523c-0.15-0.611-0.301-1.285-0.451-2.066c-0.197-1.008-0.402-2.051-0.695-3.09
				c-0.635-2.342-1.49-4.65-2.561-6.857c-2.213-4.602-5.41-8.857-9.242-12.311c-4.055-3.662-8.936-6.514-14.124-8.25
				c-5.408-1.816-11.246-2.463-16.992-1.871c-8.971,0.883-17.785,5.033-24.174,11.377c-5.732,5.617-9.691,12.971-11.191,20.771
				c-0.998-0.201-1.967-0.297-2.951-0.297c-3.865,0-7.682,1.291-10.73,3.631c-2.229,1.672-4.071,3.895-5.323,6.43
				c-0.82,1.658-1.371,3.506-1.604,5.389c-5.947-1.535-12.307-1.471-18.197,0.15c-6.684,1.818-12.887,5.726-17.469,11.007
				c-3.643,4.188-6.289,9.207-7.646,14.521c-1.309,5.09-1.469,10.51-0.465,15.67c0.928,4.83,2.936,9.521,5.807,13.578
				c2.141,3.01,4.832,5.735,7.828,7.944c-3.336,1.502-6.186,4-8.09,7.099c-2.508,3.994-3.367,8.949-2.361,13.596
				c0.111,0.51,0.23,0.973,0.359,1.4l0.049,0.149c0.045,0.17,0.096,0.334,0.238,0.729l0.238,0.681
				c0.031,0.077,0.141,0.315,0.438,0.485l0.168,0.092h56.522l-0.266-0.729h-0.771c-0.033-0.076-0.09-0.139-0.172-0.139l-53.28-1.914
				c-0.096-0.232-0.193-0.488-0.266-0.76c-0.068-0.26-0.119-0.484-0.156-0.66c-0.291-1.355-0.395-2.746-0.326-4.131
				c-0.033-11.49,8.898-15.113,14.812-16.25c1.008-0.223,2.033-0.369,3.074-0.432c1.246-0.107,2.029-0.095,2.029-0.095
				s-0.057,0.067,0,0.065c-0.057,2.086,0.215,4.175,0.859,6.162c0.873,2.65,2.373,5.049,4.328,6.937
				c0.039,0.037,0.088,0.058,0.141,0.058c0.047,0,0.092-0.015,0.129-0.043c0.076-0.064,0.096-0.179,0.047-0.267
				c-2.842-4.623-3.854-10.267-2.783-15.485c1.027-5.188,4.168-9.984,8.602-13.175c0.084-0.062,0.109-0.17,0.059-0.262
				c-0.049-0.084-0.15-0.129-0.246-0.091c-2.529,0.97-4.844,2.595-6.684,4.703c-2.047,2.314-3.512,5.273-4.129,8.338
				c-0.17,0.859-0.266,1.724-0.318,2.593c-3.414-0.533-7.064-0.101-10.279,1.223c-3.184-2.485-5.998-5.551-8.145-8.956
				c-2.479-3.939-4.164-8.406-4.859-12.914c-0.76-4.796-0.479-9.785,0.803-14.431c1.324-4.824,3.779-9.393,7.104-13.213
				c4.174-4.809,9.816-8.455,15.883-10.251c3.16-0.943,6.457-1.426,9.799-1.426c2.77,0,5.516,0.332,8.176,0.988
				c0.127,0.035,0.264,0.041,0.387,0.006c5.084,1.295,9.903,3.783,13.932,7.199c-0.369,0.34-0.744,0.668-1.09,1.027
				c-2.512,2.615-4.475,5.809-5.682,9.236c-1.074,3.059-1.547,6.338-1.365,9.49c0.006,0.105,0.09,0.184,0.203,0.189
				c0.098,0,0.186-0.07,0.199-0.17c1.037-6.445,4.021-12.5,8.41-17.057c4.334-4.562,10.258-7.801,16.682-9.123
				c0.1-0.021,0.164-0.113,0.162-0.215c-0.012-0.107-0.098-0.184-0.201-0.188c-3.133-0.051-6.424,0.566-9.42,1.767
				c-2.783,1.1-5.369,2.75-7.629,4.74c-3.852-3.805-8.641-6.666-13.856-8.269c-0.021-0.02-0.059-0.027-0.088-0.045
				c1.51-4.16,4.178-7.85,7.61-10.434c3.482-2.645,7.82-4.199,12.275-4.428c-0.441,2.77-0.592,5.602-0.432,8.416
				c0.006,0.107,0.092,0.193,0.201,0.193c0.111-0.004,0.201-0.092,0.201-0.199c0.045-2.777,0.369-5.539,0.957-8.213
				c0.098-0.078,0.164-0.189,0.193-0.326c1.711-7.609,5.805-14.729,11.531-20.041c6.16-5.789,14.154-9.432,22.527-10.258
				c1.316-0.137,2.662-0.205,3.992-0.205c4.004,0,7.958,0.607,11.736,1.805c4.832,1.529,9.438,4.07,13.325,7.346
				c3.707,3.115,6.892,6.998,9.207,11.23c1.121,2.047,2.07,4.201,2.812,6.406c0.332,0.934,0.586,1.902,0.836,2.846
				c0.232,0.881,0.498,1.77,0.793,2.648c-5.092,0.373-10.014,2.379-13.85,5.646c-0.084,0.068-0.096,0.188-0.039,0.271
				c0.068,0.086,0.188,0.107,0.277,0.051c4.102-2.586,8.979-4.033,13.719-4.066h0.352c3.064,0,6.111,0.578,8.972,1.654
				c0.778,0.32,1.553,0.65,2.308,1.02c0.633,0.311,1.256,0.662,1.879,1.014c0.465,0.283,0.924,0.572,1.371,0.883
				c4.327,3.02,7.678,7.42,9.428,12.388c1.504,4.23,1.863,8.988,1.055,13.49c-1.215-0.705-2.457-1.344-3.729-1.896
				c-3.785-1.648-7.938-2.65-12.011-2.895c-0.102,0-0.198,0.07-0.213,0.176c-0.014,0.102,0.056,0.201,0.156,0.227
				c8.219,1.881,15.973,6.168,21.83,12.07c5.885,5.871,10.153,13.634,12.018,21.856c0.021,0.091,0.104,0.158,0.222,0.152
				c0.104-0.012,0.182-0.102,0.18-0.209c-0.236-4.072-1.227-8.229-2.867-12.018c-0.172-0.387-0.354-0.771-0.535-1.158
				c2.404-2.08,5.24-3.578,8.256-4.332c1.537-0.385,3.123-0.584,4.73-0.584c2.092,0,4.137,0.332,6.08,0.982
				c3.432,1.147,6.578,3.348,8.873,6.188c1.936,2.382,3.293,5.244,3.967,8.326c-5.326,0.629-10.398,2.883-14.312,6.39
				c-0.086,0.069-0.098,0.19-0.022,0.276c0.067,0.082,0.192,0.097,0.28,0.033c3.685-2.81,8.152-4.599,12.746-5.16
				c2.437-0.293,4.916-0.103,7.336,0.262c2.332,0.353,4.615,1.021,6.767,2c1.283,0.576,2.519,1.269,3.683,2.062
				c4.901,3.285,8.604,8.414,10.18,14.072c1.309,4.643,1.229,9.711-0.211,14.282c-0.183,0.601-0.396,1.185-0.586,1.671l-0.578,1.372
				l-51.963,1.808c-0.082,0.004-0.146,0.065-0.176,0.143h-0.771l-0.259,0.729h55.146l0.986-2.022l0.389-0.896
				c0.228-0.545,0.484-1.193,0.695-1.861C279.8,177.498,279.932,171.783,278.456,166.551z M236.682,130.641
				c-1.9-0.641-3.9-0.967-5.939-0.967c-2.119,0-4.266,0.365-6.197,1.051c-3.131,1.105-5.922,3.084-7.963,5.617
				c-1.77-3.58-4.174-6.941-7.029-9.809c-2.18-2.186-4.662-4.105-7.312-5.689c1.528-4.562,1.647-9.623,0.317-14.332
				c-0.748-2.673-1.981-5.234-3.604-7.544c4.441-2.465,9.561-3.824,14.568-3.824c0.322,0,0.646,0.006,0.969,0.018
				c6.375,0.168,12.605,2.465,17.547,6.469c4.979,3.992,8.564,9.589,10.082,15.751c1.301,5.176,1.156,10.773-0.367,15.902
				C240.2,132.152,238.486,131.24,236.682,130.641z"/>
		</g>
	</g>
</g>
</svg>
