<?xml version="1.0" encoding="utf-8"?>
<!-- Generator: Adobe Illustrator 15.0.2, SVG Export Plug-In . SVG Version: 6.00 Build 0)  -->
<!DOCTYPE svg PUBLIC "-//W3C//DTD SVG 1.1//EN" "http://www.w3.org/Graphics/SVG/1.1/DTD/svg11.dtd">
<svg version="1.1" id="Layer_1" xmlns="http://www.w3.org/2000/svg" xmlns:xlink="http://www.w3.org/1999/xlink" x="0px" y="0px"
	 width="280px" height="260px" viewBox="0 0 280 260" enable-background="new 0 0 280 260" xml:space="preserve">
<g>
	<g>
		<path fill="#3479BE" d="M33.631,147.234c34.459,1.498,74.74,2.365,117.777,2.365c43.047,0,83.324-0.867,117.779-2.365
			c-34.455-1.498-74.732-2.354-117.779-2.354C108.371,144.88,68.09,145.736,33.631,147.234z"/>
		<path fill="#3479BE" d="M31.152,140.273c35.408,1.496,76.793,2.354,121.021,2.354c44.228,0,85.613-0.857,121.021-2.354
			c-35.401-1.504-76.791-2.36-121.021-2.36C107.945,137.913,66.56,138.771,31.152,140.273z"/>
		<path fill="#3479BE" d="M34.992,133.309c35.326,1.498,76.623,2.358,120.746,2.358c44.139,0,85.434-0.86,120.762-2.358
			c-35.328-1.504-76.623-2.367-120.762-2.367C111.615,130.939,70.318,131.805,34.992,133.309z"/>
		<path fill="#3479BE" d="M19.535,126.345c37.797,1.494,81.967,2.359,129.178,2.359c47.209,0,91.383-0.865,129.178-2.359
			c-37.795-1.502-81.969-2.363-129.178-2.363C101.502,123.981,57.332,124.843,19.535,126.345z"/>
		<path fill="#3479BE" d="M9.862,119.372c38.024,1.506,82.461,2.367,129.955,2.367c47.498,0,91.935-0.861,129.955-2.367
			c-38.021-1.498-82.457-2.357-129.955-2.357C92.323,117.015,47.887,117.874,9.862,119.372z"/>
		<path fill="#3479BE" d="M9.651,112.413c37.403,1.492,81.135,2.359,127.86,2.359c46.729,0,90.454-0.867,127.859-2.359
			c-37.405-1.498-81.131-2.365-127.859-2.365C90.786,110.048,47.054,110.915,9.651,112.413z"/>
		<path fill="#3479BE" d="M3.845,105.446c39.814,1.502,86.36,2.361,136.096,2.361c49.739,0,96.284-0.859,136.094-2.361
			c-39.811-1.498-86.355-2.359-136.094-2.359C90.206,103.087,43.66,103.948,3.845,105.446z"/>
		<path fill="#3479BE" d="M1.08,98.479c38.75,1.498,84.037,2.359,132.433,2.359c48.405,0,93.685-0.861,132.437-2.359
			c-38.752-1.498-84.031-2.365-132.437-2.365C85.117,96.114,39.83,96.981,1.08,98.479z"/>
		<path fill="#3479BE" d="M18.974,91.513c33.575,1.504,72.815,2.367,114.751,2.367c41.942,0,81.179-0.863,114.738-2.367
			c-33.561-1.498-72.796-2.354-114.738-2.354C91.79,89.159,52.55,90.015,18.974,91.513z"/>
		<path fill="#3479BE" d="M19.576,84.554c32.353,1.496,70.177,2.357,110.595,2.357c40.42,0,78.241-0.861,110.579-2.357
			c-32.338-1.506-70.158-2.363-110.579-2.363C89.753,82.19,51.929,83.048,19.576,84.554z"/>
		<path fill="#3479BE" d="M6.226,77.585c35.393,1.498,76.771,2.359,120.984,2.359c44.224,0,85.597-0.861,121-2.359
			c-35.403-1.498-76.776-2.359-121-2.359C82.998,75.226,41.619,76.087,6.226,77.585z"/>
		<path fill="#3479BE" d="M25.181,70.624c30.236,1.496,65.559,2.355,103.316,2.355s73.095-0.859,103.323-2.355
			c-30.229-1.502-65.566-2.365-103.323-2.365S55.418,69.122,25.181,70.624z"/>
		<path fill="#3479BE" d="M50.743,63.651c23.216,1.504,50.35,2.367,79.348,2.367c29.005,0,56.138-0.863,79.354-2.367
			c-23.217-1.5-50.35-2.359-79.354-2.359C101.093,61.292,73.959,62.151,50.743,63.651z"/>
		<path fill="#3479BE" d="M55.016,56.69c20.506,1.492,44.475,2.361,70.092,2.361c25.621,0,49.591-0.869,70.103-2.361
			c-20.512-1.498-44.482-2.359-70.103-2.359C99.491,54.331,75.522,55.192,55.016,56.69z"/>
		<path fill="#3479BE" d="M53.907,49.726c19.007,1.498,41.23,2.365,64.973,2.365c23.747,0,45.959-0.867,64.97-2.365
			c-19.011-1.5-41.225-2.357-64.97-2.357C95.137,47.368,72.914,48.226,53.907,49.726z"/>
		<path fill="#3479BE" d="M60.568,42.763c18.033,1.498,39.116,2.355,61.641,2.355c22.533,0,43.613-0.857,61.648-2.355
			c-18.035-1.504-39.115-2.361-61.648-2.361C99.684,40.401,78.601,41.259,60.568,42.763z"/>
		<path fill="#3479BE" d="M76.871,35.796c14.436,1.498,31.307,2.365,49.345,2.365c18.032,0,34.905-0.867,49.341-2.365
			c-14.438-1.498-31.311-2.359-49.341-2.359C108.178,33.437,91.306,34.298,76.871,35.796z"/>
		<path fill="#3479BE" d="M92.004,28.831c9.641,1.502,20.899,2.363,32.937,2.363c12.039,0,23.304-0.861,32.941-2.363
			c-9.64-1.504-20.904-2.361-32.941-2.361C112.903,26.47,101.644,27.327,92.004,28.831z"/>
	</g>
	<path fill="#FFFFFF" d="M51.58,213.2c0.07-1.474,0.799-4.537,1.379-7.06c-1.41,2.232-3.082,4.935-4.09,6.045l0,0
		c-0.084,0.104-0.166,0.229-0.223,0.379c-0.32,0.771,0.047,1.666,0.824,1.979c0.775,0.328,1.668-0.039,1.992-0.818
		C51.537,213.552,51.568,213.382,51.58,213.2L51.58,213.2z"/>
	<path fill="#FFFFFF" d="M76.527,245.661c0.078-1.479,0.805-4.537,1.393-7.06c-1.418,2.244-3.092,4.935-4.098,6.045l0,0
		c-0.088,0.104-0.166,0.23-0.223,0.373c-0.324,0.771,0.045,1.67,0.82,1.994c0.781,0.316,1.672-0.051,1.994-0.828
		C76.488,246.018,76.521,245.837,76.527,245.661L76.527,245.661z"/>
	<path fill="#FFFFFF" d="M128.209,213.2c0.076-1.474,0.801-4.537,1.379-7.06c-1.408,2.232-3.082,4.935-4.086,6.045l0,0
		c-0.088,0.104-0.168,0.229-0.227,0.379c-0.32,0.771,0.047,1.666,0.83,1.979c0.77,0.328,1.664-0.039,1.986-0.818
		C128.166,213.552,128.201,213.382,128.209,213.2L128.209,213.2z"/>
	<path fill="#FFFFFF" d="M153.156,245.661c0.08-1.479,0.805-4.537,1.393-7.06c-1.418,2.244-3.092,4.935-4.098,6.045l0,0
		c-0.088,0.104-0.166,0.23-0.223,0.373c-0.324,0.771,0.045,1.67,0.826,1.994c0.771,0.316,1.666-0.051,1.981-0.828
		C153.117,246.018,153.15,245.837,153.156,245.661L153.156,245.661z"/>
	<path fill="#FFFFFF" d="M204.836,213.2c0.072-1.474,0.797-4.537,1.381-7.06c-1.408,2.232-3.084,4.935-4.086,6.045l0,0
		c-0.088,0.104-0.174,0.229-0.229,0.379c-0.322,0.771,0.049,1.666,0.826,1.979c0.772,0.328,1.664-0.039,1.994-0.818
		C204.795,213.552,204.824,213.382,204.836,213.2L204.836,213.2z"/>
	<path fill="#FFFFFF" d="M229.785,245.661c0.076-1.479,0.805-4.537,1.389-7.06c-1.416,2.244-3.088,4.935-4.096,6.045l0,0
		c-0.088,0.104-0.164,0.23-0.221,0.373c-0.324,0.771,0.045,1.67,0.824,1.994c0.771,0.316,1.668-0.051,1.983-0.828
		C229.74,246.018,229.779,245.837,229.785,245.661L229.785,245.661z"/>
	<path fill="#FFFFFF" d="M191.055,118.071c0.215,0.113,0.43,0.211,0.646,0.328c0.006-0.039,0.012-0.084,0.012-0.117
		C191.496,118.208,191.281,118.14,191.055,118.071z"/>
	<path fill="#FFFFFF" d="M174.027,114.413c4.926,0,9.654,0.814,14.076,2.305c-4.021-1.625-8.416-2.52-13.027-2.52
		c-1.939,0-3.84,0.164-5.693,0.469C170.908,114.503,172.459,114.413,174.027,114.413z"/>
	<path fill="#FFFFFF" d="M275.596,166.448c-1.771-6.4-6.012-12.128-11.604-15.695c-4.881-3.166-10.998-4.717-16.857-4.248
		c-0.213-3.166-1.291-6.332-3.064-8.994c-1.026-1.562-2.315-2.979-3.834-4.219c2.104-5.16,2.683-11.018,1.604-16.557
		c-1.271-6.832-5.17-13.271-10.668-17.672c-5.202-4.227-12.021-6.65-18.717-6.65c-0.283,0-0.562,0-0.832,0.012
		c-5.56,0.119-11.099,1.898-15.681,5.014c-1.645-2.131-3.553-3.955-5.676-5.434c-1.096-0.77-2.295-1.477-3.67-2.146
		c-0.102-0.051-0.201-0.09-0.311-0.129l-0.184-0.08c-0.447-0.203-0.912-0.402-1.383-0.584c-0.185-0.066-0.367-0.129-0.545-0.191
		c-3.166-1.139-6.449-1.688-9.668-1.529c-0.15-0.611-0.306-1.281-0.457-2.062c-0.193-1.014-0.396-2.051-0.691-3.092
		c-0.635-2.346-1.488-4.65-2.562-6.859c-2.215-4.6-5.405-8.859-9.241-12.309c-4.058-3.664-8.937-6.52-14.119-8.252
		c-5.406-1.818-11.25-2.459-16.997-1.869c-8.971,0.883-17.781,5.029-24.168,11.373c-5.734,5.619-9.693,12.971-11.195,20.775
		c-0.996-0.197-1.965-0.299-2.947-0.299c-3.871,0-7.684,1.291-10.73,3.629c-2.234,1.672-4.072,3.898-5.324,6.43
		c-0.824,1.66-1.371,3.506-1.605,5.393c-5.945-1.535-12.303-1.467-18.197,0.152c-6.684,1.818-12.891,5.727-17.467,11.006
		c-3.648,4.186-6.293,9.209-7.646,14.521c-1.309,5.088-1.467,10.508-0.463,15.668c0.928,4.83,2.932,9.527,5.803,13.576
		c2.143,3.014,4.832,5.738,7.828,7.947c-3.336,1.506-6.186,4.004-8.088,7.096c-2.51,4-3.367,8.949-2.359,13.6
		c0.111,0.51,0.23,0.969,0.359,1.396l0.043,0.15c0.049,0.17,0.1,0.342,0.24,0.729l0.238,0.682c0.035,0.08,0.139,0.316,0.441,0.486
		l0.164,0.09h29.84h26.68h126.114h2.342h52.805l0.986-2.021l0.389-0.896c0.227-0.545,0.479-1.192,0.695-1.856
		C276.943,177.396,277.074,171.688,275.596,166.448z"/>
	<g>
		<path fill="#ADD3F0" d="M52.234,244.171l-5.488,0.068l-1.215-1.587l4.117-0.487l-2.58-3.336l2.09-0.277l3.844,3.933l1.701-1.654
			l-3.607-3.705l2.52-4.547l-2.072-1.174l-2.691,4.787l-1.959,0.254l1.572-3.646l-4.209,0.572l0.854-2.068l5.318-1.354l-0.59-2.312
			l-5.012,1.271l-2.668-4.452l-2.055,1.213l2.811,4.729l-0.797,1.9l-2.361-3.16l-1.568,3.812l-1.371-1.788l1.484-5.285l-2.295-0.646
			l-1.412,5.009l-0.508,0.009l-4.684,0.057l0.027,2.383l5.504-0.062l1.344,1.756l-4.047,0.473l2.482,3.225l-2.168,0.275
			l-3.904-3.998l-1.703,1.664l3.631,3.763l-2.543,4.483l2.076,1.166l2.648-4.707l2.299-0.295l-1.637,3.803l3.926-0.529l-0.785,1.895
			l-5.32,1.355l0.588,2.309l5.064-1.271l2.625,4.451l2.041-1.219l-2.797-4.726l0.832-2.006l2.531,3.397l1.541-3.754l1.195,1.562
			l-1.484,5.29l2.295,0.646l1.41-4.947l5.188-0.111L52.234,244.171z M41.517,243.083l-1.604-2.146l-2.656,0.356l1.055-2.471
			l-1.633-2.117l2.662-0.312l1.02-2.479l1.598,2.145l2.656-0.354l-1.059,2.466l1.637,2.116l-2.66,0.312L41.517,243.083z"/>
		<path fill="#ADD3F0" d="M55.082,213.325c0.188-3.688,2.006-11.341,3.461-17.668c-3.527,5.612-7.711,12.348-10.229,15.112v0.006
			c-0.225,0.283-0.422,0.595-0.561,0.938c-0.805,1.943,0.113,4.176,2.061,4.979c1.948,0.811,4.17-0.107,4.98-2.062
			C54.974,214.208,55.062,213.768,55.082,213.325L55.082,213.325z"/>
		<path fill="#ADD3F0" d="M101.324,215.566l-5.488,0.062l-1.215-1.586l4.115-0.487l-2.58-3.343l2.092-0.271l3.842,3.938l1.703-1.666
			l-3.607-3.709l2.521-4.543l-2.08-1.168l-2.689,4.793l-1.961,0.254l1.576-3.656l-4.209,0.564l0.855-2.062l5.318-1.354l-0.586-2.312
			l-5.016,1.275l-2.668-4.459l-2.051,1.213l2.805,4.729l-0.793,1.904l-2.363-3.16l-1.568,3.812l-1.373-1.789l1.486-5.285
			l-2.293-0.641l-1.416,5.002l-0.506,0.006l-4.68,0.059l0.025,2.379l5.504-0.062l1.34,1.75l-4.047,0.478l2.48,3.229l-2.166,0.271
			l-3.898-3.998l-1.705,1.664l3.631,3.767l-2.547,4.481l2.076,1.172l2.645-4.713l2.301-0.303l-1.635,3.809l3.926-0.533l-0.785,1.896
			l-5.322,1.354l0.592,2.308l5.062-1.265l2.625,4.447l2.047-1.211l-2.801-4.729l0.83-1.998l2.535,3.395l1.539-3.75l1.199,1.562
			l-1.486,5.291l2.291,0.646l1.412-4.951l5.186-0.11L101.324,215.566z M90.605,214.475L89,212.329l-2.654,0.356l1.059-2.465
			l-1.633-2.117l2.662-0.312l1.016-2.479l1.6,2.146l2.658-0.356l-1.061,2.465l1.637,2.123L91.622,212L90.605,214.475z"/>
		<path fill="#ADD3F0" d="M80.033,245.784c0.188-3.691,2.008-11.345,3.461-17.666c-3.529,5.612-7.709,12.348-10.23,15.112
			l-0.002,0.004c-0.221,0.279-0.416,0.591-0.559,0.938c-0.803,1.943,0.119,4.168,2.062,4.979c1.943,0.812,4.174-0.108,4.979-2.058
			C79.926,246.669,80.015,246.229,80.033,245.784L80.033,245.784z"/>
		<path fill="#ADD3F0" d="M128.863,244.171l-5.488,0.068l-1.215-1.587l4.117-0.487l-2.58-3.336l2.09-0.277l3.846,3.933l1.699-1.654
			l-3.602-3.705l2.514-4.547l-2.072-1.174l-2.689,4.787l-1.961,0.254l1.572-3.646l-4.205,0.572l0.85-2.068l5.32-1.354l-0.586-2.312
			l-5.018,1.271l-2.668-4.452l-2.051,1.213l2.807,4.729l-0.797,1.9l-2.361-3.16l-1.566,3.812l-1.371-1.788l1.482-5.285l-2.291-0.646
			l-1.416,5.009l-0.508,0.009l-4.678,0.057l0.025,2.383l5.502-0.062l1.344,1.756l-4.049,0.473l2.484,3.225l-2.17,0.275l-3.902-3.998
			l-1.705,1.664l3.631,3.763l-2.539,4.483l2.076,1.166l2.645-4.707l2.299-0.295l-1.637,3.803l3.926-0.529l-0.781,1.895l-5.324,1.355
			l0.588,2.309l5.064-1.271l2.627,4.451l2.045-1.219l-2.803-4.726l0.832-2.006l2.531,3.397l1.541-3.754l1.199,1.562l-1.488,5.29
			l2.295,0.646l1.41-4.947l5.191-0.111L128.863,244.171z M118.146,243.083l-1.604-2.146l-2.656,0.356l1.057-2.471l-1.635-2.117
			l2.662-0.312l1.02-2.479l1.604,2.145l2.65-0.354l-1.053,2.466l1.635,2.116l-2.66,0.312L118.146,243.083z"/>
		<path fill="#ADD3F0" d="M131.713,213.325c0.186-3.688,2.004-11.341,3.465-17.668c-3.533,5.612-7.717,12.348-10.234,15.112v0.006
			c-0.225,0.283-0.42,0.595-0.561,0.938c-0.805,1.943,0.113,4.176,2.062,4.979c1.945,0.811,4.168-0.107,4.984-2.062
			C131.603,214.208,131.691,213.768,131.713,213.325L131.713,213.325z"/>
		<path fill="#ADD3F0" d="M177.953,215.566l-5.488,0.062l-1.213-1.586l4.113-0.487l-2.578-3.343l2.094-0.271l3.838,3.938
			l1.705-1.666l-3.607-3.709l2.521-4.543l-2.074-1.168l-2.688,4.793l-1.961,0.254l1.57-3.656l-4.211,0.564l0.854-2.062l5.312-1.354
			l-0.586-2.312l-5.019,1.275l-2.668-4.459l-2.052,1.213l2.807,4.729l-0.791,1.904l-2.364-3.16l-1.562,3.812l-1.375-1.789
			l1.48-5.285l-2.291-0.641l-1.418,5.002l-0.505,0.006l-4.684,0.059l0.024,2.379l5.506-0.062l1.342,1.75l-4.051,0.478l2.479,3.229
			l-2.168,0.271l-3.896-3.998l-1.705,1.664l3.633,3.768l-2.545,4.48l2.078,1.172l2.646-4.713l2.298-0.302l-1.636,3.808l3.927-0.537
			l-0.785,1.896l-5.315,1.354l0.59,2.312l5.062-1.265l2.623,4.446l2.049-1.211l-2.806-4.729l0.832-1.998l2.534,3.396l1.538-3.75
			l1.194,1.557l-1.482,5.291l2.291,0.646l1.411-4.951l5.188-0.113L177.953,215.566z M167.234,214.475l-1.604-2.146l-2.651,0.356
			l1.055-2.465l-1.633-2.117l2.662-0.312l1.02-2.479l1.598,2.146l2.656-0.356l-1.061,2.465l1.637,2.123L168.256,212L167.234,214.475
			z"/>
		<path fill="#ADD3F0" d="M156.662,245.784c0.193-3.691,2.012-11.345,3.461-17.666c-3.523,5.612-7.707,12.348-10.225,15.112
			l-0.008,0.004c-0.228,0.279-0.416,0.591-0.562,0.938c-0.812,1.943,0.119,4.168,2.062,4.979c1.94,0.812,4.174-0.108,4.98-2.058
			C156.555,246.669,156.645,246.229,156.662,245.784L156.662,245.784z"/>
		<path fill="#ADD3F0" d="M205.488,244.171l-5.484,0.068l-1.219-1.587l4.119-0.487l-2.58-3.336l2.092-0.277l3.84,3.933l1.705-1.654
			l-3.607-3.705l2.521-4.547l-2.066-1.174l-2.688,4.787l-1.969,0.254l1.576-3.646l-4.207,0.572l0.854-2.068l5.32-1.354l-0.594-2.312
			l-5.013,1.271l-2.672-4.452l-2.058,1.213l2.812,4.729l-0.793,1.9l-2.36-3.16l-1.566,3.812l-1.371-1.788l1.482-5.285l-2.291-0.646
			l-1.414,5.009l-0.51,0.009l-4.683,0.057l0.026,2.383l5.5-0.062l1.345,1.756l-4.045,0.473l2.479,3.225l-2.169,0.275l-3.899-3.998
			l-1.703,1.664l3.629,3.763l-2.539,4.483l2.076,1.166l2.646-4.707l2.299-0.295l-1.639,3.803l3.928-0.529l-0.787,1.895l-5.315,1.355
			l0.594,2.309l5.062-1.271l2.633,4.451l2.043-1.219l-2.807-4.726l0.83-2.006l2.533,3.397l1.538-3.754l1.195,1.562l-1.483,5.29
			l2.297,0.646l1.407-4.947l5.188-0.111L205.488,244.171z M194.773,243.083l-1.605-2.146l-2.652,0.356l1.062-2.471l-1.637-2.117
			l2.664-0.312l1.018-2.479l1.602,2.145l2.658-0.354l-1.061,2.466l1.635,2.116l-2.666,0.312L194.773,243.083z"/>
		<path fill="#ADD3F0" d="M208.342,213.325c0.188-3.688,2.004-11.341,3.461-17.668c-3.527,5.612-7.715,12.348-10.229,15.112v0.006
			c-0.229,0.283-0.424,0.595-0.562,0.938c-0.805,1.943,0.115,4.176,2.062,4.979c1.943,0.811,4.174-0.107,4.98-2.062
			C208.23,214.208,208.318,213.768,208.342,213.325L208.342,213.325z"/>
		<path fill="#ADD3F0" d="M254.582,215.566l-5.488,0.062l-1.217-1.586l4.117-0.487l-2.58-3.343l2.094-0.271l3.836,3.938l1.709-1.666
			l-3.607-3.709l2.521-4.543l-2.072-1.168l-2.688,4.793l-1.957,0.254l1.569-3.656l-4.209,0.564l0.854-2.062l5.318-1.354
			l-0.591-2.312l-5.02,1.275l-2.668-4.459l-2.055,1.213l2.812,4.729l-0.797,1.904l-2.355-3.16l-1.569,3.812l-1.375-1.789
			l1.479-5.285l-2.285-0.641l-1.416,5.002l-0.506,0.006l-4.688,0.059l0.028,2.379l5.5-0.062l1.349,1.75l-4.051,0.478l2.479,3.229
			l-2.164,0.271l-3.908-3.998l-1.695,1.664l3.627,3.768l-2.545,4.48l2.078,1.172l2.646-4.713l2.294-0.302l-1.628,3.808l3.925-0.537
			l-0.787,1.896l-5.314,1.354l0.584,2.312l5.062-1.265l2.629,4.446l2.045-1.211l-2.799-4.729l0.834-1.998l2.529,3.396l1.533-3.75
			l1.201,1.557l-1.48,5.291l2.285,0.646l1.412-4.951l5.188-0.113L254.582,215.566z M243.865,214.475l-1.605-2.146l-2.658,0.356
			l1.062-2.465l-1.639-2.117l2.664-0.312l1.02-2.479l1.604,2.146l2.66-0.356l-1.062,2.465l1.641,2.123L244.883,212L243.865,214.475z
			"/>
		<path fill="#ADD3F0" d="M233.289,245.784c0.189-3.691,2.008-11.345,3.463-17.666c-3.525,5.612-7.711,12.348-10.229,15.112
			l-0.006,0.004c-0.224,0.279-0.414,0.591-0.56,0.938c-0.812,1.943,0.115,4.168,2.062,4.979c1.94,0.812,4.174-0.108,4.979-2.058
			C233.184,246.669,233.273,246.229,233.289,245.784L233.289,245.784z"/>
		<path fill="#ADD3F0" d="M240.066,122.892c-0.062-0.09-0.131-0.176-0.205-0.254c0.051-0.482,0.08-0.963,0.096-1.451
			c-0.027-0.271-0.076-0.543-0.117-0.814c-0.053-0.381-0.092-0.771-0.166-1.15c-0.113-0.652-0.254-1.297-0.416-1.943
			c-1.514-6.162-5.098-11.752-10.078-15.752c-4.938-3.998-11.17-6.297-17.547-6.467c-0.324-0.012-0.646-0.018-0.967-0.018
			c-5.004,0-10.131,1.365-14.57,3.828c1.619,2.307,2.863,4.865,3.605,7.539c1.334,4.713,1.209,9.771-0.312,14.336
			c2.646,1.58,5.123,3.5,7.307,5.693c2.855,2.859,5.267,6.225,7.029,9.803c2.043-2.531,4.828-4.514,7.963-5.611
			c1.938-0.691,4.076-1.055,6.195-1.055c2.041,0,4.037,0.322,5.941,0.963c1.801,0.605,3.518,1.512,5.072,2.645
			c0.229-0.781,0.422-1.562,0.586-2.354c0.021-0.146,0.051-0.277,0.078-0.418C240.031,127.938,240.199,125.407,240.066,122.892z
			 M231.906,125.321c-14.248-0.465-25.717-11.752-26.479-25.918c2.314-0.924,4.834-1.445,7.478-1.445
			c11.215,0,20.291,9.086,20.291,20.289C233.195,120.739,232.729,123.112,231.906,125.321z"/>
		<path fill="#ADD3F0" d="M33.146,139.646c-0.016-0.123-0.023-0.248-0.035-0.373c-0.006-0.006-0.006-0.021-0.006-0.021
			C33.117,139.38,33.131,139.518,33.146,139.646z"/>
		<path fill="#ADD3F0" d="M192.012,114.786c0,0.867-0.08,1.711-0.182,2.549h0.006c1.146,0.363,2.277,0.771,3.373,1.252
			c1.266,0.549,2.512,1.189,3.73,1.893c0.803-4.504,0.438-9.262-1.062-13.492c-1.742-4.967-5.1-9.363-9.428-12.387
			c-0.441-0.312-0.9-0.602-1.367-0.885c-0.627-0.352-1.25-0.701-1.881-1.014c-0.754-0.367-1.527-0.697-2.305-1.014
			c-2.861-1.076-5.91-1.66-8.979-1.66h-0.354c-4.738,0.041-9.613,1.484-13.722,4.072c0.429-0.271,0.873-0.504,1.312-0.74
			c2.484-0.924,5.156-1.457,7.963-1.457C181.771,91.903,192.012,102.149,192.012,114.786z"/>
		<path fill="#ADD3F0" d="M170.273,88.597c0.104-0.023,0.215-0.041,0.322-0.062c0.944-0.188,1.899-0.334,2.877-0.408
			c-0.304-0.873-0.562-1.768-0.804-2.65c-0.248-0.936-0.504-1.91-0.84-2.844c-0.74-2.203-1.688-4.355-2.812-6.4
			c-2.316-4.236-5.5-8.117-9.211-11.232c-3.888-3.279-8.492-5.816-13.316-7.346c-3.777-1.201-7.73-1.801-11.74-1.801
			c-1.328,0-2.676,0.062-3.992,0.203c-8.369,0.822-16.367,4.469-22.523,10.252c-5.727,5.318-9.822,12.439-11.531,20.045
			c-0.031,0.137-0.098,0.244-0.193,0.324c-0.59,2.672-0.912,5.438-0.957,8.213c0,0.113-0.092,0.197-0.199,0.197
			c-0.109,0-0.197-0.08-0.203-0.193c-0.162-2.814-0.012-5.646,0.43-8.416c-4.455,0.232-8.789,1.785-12.273,4.436
			c-3.432,2.582-6.104,6.27-7.607,10.428c0.029,0.021,0.062,0.027,0.086,0.045c0.711,0.645,2.637,0.918,3.557,1.32
			c1.246,0.537,2.459,1.154,3.633,1.84c2.404,1.41,4.662,3.109,6.631,5.08c1.557-0.707,2.85-2.248,4.463-3.059
			c4.014-2.016,8.02-3.42,12.67-3.398c0.035-0.021,0.074-0.045,0.107-0.066c-0.215-0.676-0.566-2.492-0.58-2.578
			c-0.133-0.656-0.244-1.33-0.334-2c-0.184-1.365-0.275-2.74-0.275-4.117c0-17.18,13.93-31.102,31.102-31.102
			c15.458,0,28.25,11.289,30.66,26.072C168.354,89.06,169.305,88.8,170.273,88.597z"/>
		<path fill="#ADD3F0" d="M143.477,150.146c-1.104,0-2.188,0.062-3.264,0.158c-0.014-0.408-0.033-0.812-0.033-1.223
			c0-4.248,0.775-8.314,2.171-12.088c2.928-8.559,8.66-15.18,15.896-19.275c-0.229,0.086-0.434,0.193-0.646,0.277l0.484-0.215
			c0,0-6.701,1.195-14.434,7.375c-1.229,0.986-2.48,2.102-3.742,3.354c-0.053,0.057-0.109,0.113-0.166,0.17
			c-0.617,0.623-1.236,1.268-1.854,1.958c-0.002,0-0.01,0.016-0.016,0.021c-0.582,0.646-1.162,1.349-1.736,2.062
			c-0.088,0.107-0.18,0.228-0.264,0.33c-0.57,0.719-1.131,1.479-1.686,2.26c-0.094,0.14-0.184,0.275-0.279,0.408
			c-0.504,0.729-1.004,1.486-1.496,2.273c-0.074,0.119-0.146,0.23-0.221,0.354c-0.527,0.854-1.039,1.756-1.547,2.688
			c-0.113,0.209-0.221,0.418-0.334,0.635c-0.516,0.972-1.016,1.953-1.5,2.996c-0.221,0.104-0.432,0.229-0.652,0.321
			c-2.803,1.244-5.861,1.895-8.936,1.895c-0.674,0-1.344-0.041-2.018-0.104c0,0,0,0-0.006,0c-4.662-0.428-8.91-2.287-12.291-5.148
			c-0.029-0.021-0.062-0.045-0.098-0.064c-5.357-4.379-8.781-11.032-8.781-18.485c0-7.822,3.773-14.738,9.582-19.094
			c0.455-0.119,0.814-0.25,0.932-0.385c-0.035,0.006-0.074,0.016-0.113,0.021c-2.336,0.504-4.611,1.264-6.76,2.244
			c-0.006,0.006-0.016,0.006-0.02,0.012c-0.721,0.328-1.428,0.684-2.119,1.064c-0.062,0.033-0.125,0.078-0.188,0.113
			c-0.629,0.352-1.252,0.719-1.855,1.104c-0.154,0.107-0.299,0.221-0.455,0.328c-0.502,0.336-1.002,0.676-1.479,1.043
			c-0.275,0.209-0.529,0.436-0.793,0.656c-0.346,0.279-0.699,0.557-1.025,0.85c-0.588,0.521-1.154,1.072-1.689,1.639
			c-4.387,4.553-7.373,10.613-8.408,17.053c-0.018,0.104-0.1,0.17-0.199,0.17c-0.113,0-0.197-0.084-0.203-0.186
			c-0.182-3.156,0.289-6.436,1.367-9.494c1.203-3.426,3.166-6.621,5.678-9.232c0.346-0.361,0.725-0.686,1.088-1.025
			c-3.02-2.564-6.484-4.609-10.172-6.008c-1.23-0.471-2.482-0.867-3.756-1.189c-0.125,0.027-0.264,0.027-0.389-0.012
			c-0.438,0-0.943-0.176-1.4-0.301c-0.006,0-0.012,0-0.021-0.006c-0.738-0.146-1.48-0.271-2.229-0.373c-0.006,0-0.012,0-0.012,0
			c-0.443-0.045-0.865-0.045-1.307-0.051c-0.197,0-0.377-0.068-0.557-0.143c-0.881-0.068-1.764-0.113-2.656-0.113
			c-3.336,0-6.633,0.477-9.793,1.422c-6.062,1.801-11.705,5.443-15.885,10.252c-3.322,3.824-5.773,8.395-7.1,13.221
			c-0.32,1.148-0.572,2.322-0.77,3.506c-0.098,0.604-0.135,1.226-0.201,1.834c-0.062,0.578-0.154,1.147-0.188,1.731
			c-0.049,0.812-0.025,1.631-0.014,2.451c0,0.381-0.023,0.76-0.006,1.146c0.031,0.648,0.125,1.291,0.191,1.939
			c0.047,0.25,0.098,0.498,0.154,0.748c-0.01,0.254-0.004,0.52,0,0.771c0.01,0.096,0.01,0.197,0.027,0.295
			c0.697,4.508,2.379,8.977,4.859,12.914c2.15,3.4,4.963,6.469,8.146,8.961c3.213-1.326,6.863-1.756,10.279-1.229
			c0.049-0.862,0.146-1.729,0.32-2.588c0.615-3.062,2.082-6.022,4.127-8.342c1.84-2.104,4.15-3.734,6.68-4.704
			c0.1-0.038,0.201,0.007,0.25,0.099c0.047,0.093,0.025,0.197-0.057,0.263c-4.438,3.187-7.574,7.983-8.604,13.17
			c-1.068,5.224-0.061,10.863,2.779,15.481c0.049,0.086,0.035,0.205-0.047,0.271c-0.035,0.024-0.08,0.045-0.125,0.045
			c-0.055,0-0.102-0.021-0.141-0.057c-1.957-1.89-3.453-4.289-4.326-6.939c-0.654-1.985-0.92-4.069-0.863-6.153
			c-0.02,0-0.033,0-0.057,0l0.057-0.064c0,0-0.781-0.021-2.027,0.096c-1.043,0.061-2.068,0.213-3.076,0.43
			c-5.912,1.142-14.842,4.767-14.811,16.256c-0.066,1.386,0.031,2.771,0.328,4.131c0.033,0.177,0.084,0.396,0.152,0.654
			c0.074,0.275,0.168,0.523,0.268,0.762l52.691,1.895c-0.254-1.259-0.422-2.556-0.422-3.895c0-11.053,8.959-20.012,20.008-20.012
			c6.941,0,13.057,3.539,16.648,8.904c4.162-10.525,14.404-17.984,26.414-17.984c1.688,0,3.322,0.178,4.934,0.453
			c0.367-0.135,0.752-0.229,1.121-0.354C154.137,151.37,148.953,150.146,143.477,150.146z M153.637,119.771l0.762-0.34
			c-0.396,0.199-0.771,0.414-1.166,0.623L153.637,119.771z M56.812,145.78c-7.631-2.859-13.074-10.207-13.074-18.844
			c0-11.119,9.014-20.137,20.129-20.137c6.303,0,11.918,2.895,15.611,7.42c-5.441,6.084-9.143,13.736-10.445,22.176
			C64.226,138.491,60.041,141.734,56.812,145.78z M71.31,146.527c-0.057-0.021-0.119-0.022-0.182-0.034
			c0.119-0.084,0.244-0.164,0.363-0.242C71.429,146.341,71.367,146.434,71.31,146.527z M72.75,167.77
			c-3.793-6.713-3.232-14.828,3.33-21.213c2.135-2.072,4.74-2.884,7.326-2.656c2.189,3.795,5.275,6.934,8.92,9.521
			C83.635,154.577,76.345,160.122,72.75,167.77z"/>
		<path fill="#ADD3F0" d="M207.4,161.979c7.676,2.601,14.205,7.67,18.629,14.279c-0.232-1.234-0.354-2.516-0.354-3.824
			c0-11.502,9.318-20.813,20.822-20.813c11.491,0,20.819,9.312,20.819,20.813c0,4.691-1.569,8.996-4.188,12.479
			c0.896-0.026,1.795-0.062,2.69-0.097c0.562-0.021,1.121-0.039,1.685-0.057l0.666-0.029c0.312-0.006,0.698-0.057,1.063-0.026
			l1.932-0.067l0.572-1.378c0.17-0.424,0.354-0.938,0.521-1.454v-0.021c0.06-0.396,0.213-0.793,0.338-1.186
			c0.05-0.177,0.104-0.351,0.146-0.523c0.077-0.326,0.146-0.654,0.215-0.982c0.06-0.271,0.106-0.521,0.151-0.799
			c0.059-0.34,0.102-0.686,0.145-1.021c0.032-0.271,0.077-0.535,0.104-0.812c0.033-0.348,0.047-0.697,0.062-1.049
			c0.018-0.262,0.039-0.521,0.041-0.781c0.006-0.369-0.002-0.729-0.016-1.104c-0.006-0.248,0-0.498-0.02-0.746
			c-0.02-0.375-0.061-0.741-0.093-1.107c-0.022-0.242-0.037-0.492-0.063-0.736c-0.056-0.396-0.121-0.774-0.188-1.172
			c-0.047-0.215-0.063-0.438-0.106-0.646c-0.121-0.604-0.269-1.193-0.438-1.789c-1.57-5.658-5.277-10.789-10.181-14.074
			c-0.672-0.448-1.354-0.858-2.062-1.246c-0.177-0.092-0.354-0.176-0.541-0.271c-0.532-0.276-1.084-0.537-1.646-0.773
			c-0.179-0.08-0.354-0.15-0.533-0.223c-0.713-0.283-1.43-0.543-2.162-0.76c-1.146-0.349-2.314-0.611-3.51-0.787
			c-2.416-0.36-4.896-0.557-7.332-0.26c-1.133,0.141-2.258,0.354-3.369,0.645c-1.127,0.283-2.229,0.652-3.312,1.089
			c-2.158,0.866-4.213,2.021-6.062,3.431c-0.095,0.064-0.218,0.051-0.281-0.035c-0.067-0.084-0.062-0.209,0.021-0.272
			c3.914-3.5,8.99-5.764,14.312-6.394c-0.675-3.072-2.023-5.938-3.966-8.315c-2.295-2.854-5.438-5.041-8.877-6.188
			c-1.938-0.648-3.985-0.982-6.075-0.982c-1.604,0-3.191,0.197-4.729,0.582c-3.021,0.754-5.854,2.256-8.258,4.334
			c0.184,0.393,0.361,0.773,0.529,1.16c1.646,3.789,2.641,7.939,2.864,12.014c0.009,0.107-0.065,0.199-0.175,0.217
			c-0.006,0-0.006-0.006-0.01-0.006c-0.009,0-0.015,0.006-0.019,0.006c-0.095,0-0.177-0.062-0.199-0.149
			c-1.86-8.229-6.131-15.986-12.021-21.861c-0.676-0.68-1.383-1.336-2.106-1.971c-0.396-0.346-0.803-0.674-1.217-1.008
			c-0.312-0.25-0.617-0.51-0.938-0.754c-0.563-0.441-1.146-0.861-1.746-1.273c-0.137-0.098-0.271-0.193-0.408-0.289
			c-0.711-0.477-1.436-0.941-2.161-1.383h-0.009c8.261,6.377,13.597,16.36,13.597,27.604c0,4.562-0.888,8.921-2.479,12.921
			C207.469,161.991,207.432,161.984,207.4,161.979z M226.117,133.575c7.223,0,13.09,5.793,13.229,12.979
			c-0.996,0.211-2.02,0.318-3.07,0.318c-7.396,0-13.508-5.438-14.596-12.521C223.07,133.857,224.561,133.575,226.117,133.575z"/>
	</g>
	<path fill="#231F20" d="M275.596,166.448c-1.771-6.4-6.012-12.128-11.604-15.695c-4.881-3.166-10.998-4.717-16.857-4.248
		c-0.213-3.166-1.291-6.332-3.064-8.994c-1.026-1.562-2.315-2.979-3.834-4.219c2.104-5.16,2.683-11.018,1.604-16.557
		c-1.271-6.832-5.17-13.271-10.668-17.672c-5.202-4.227-12.021-6.65-18.717-6.65c-0.283,0-0.562,0-0.832,0.012
		c-5.56,0.119-11.099,1.898-15.681,5.014c-1.645-2.131-3.553-3.955-5.676-5.434c-1.096-0.77-2.295-1.477-3.67-2.146
		c-0.102-0.051-0.201-0.09-0.311-0.129l-0.184-0.08c-0.447-0.203-0.912-0.402-1.383-0.584c-0.185-0.066-0.367-0.129-0.545-0.191
		c-3.166-1.139-6.449-1.688-9.668-1.529c-0.15-0.611-0.306-1.281-0.457-2.062c-0.193-1.014-0.396-2.051-0.691-3.092
		c-0.635-2.346-1.488-4.65-2.562-6.859c-2.215-4.6-5.405-8.859-9.241-12.309c-4.058-3.664-8.937-6.52-14.119-8.252
		c-5.406-1.818-11.25-2.459-16.997-1.869c-8.971,0.883-17.781,5.029-24.168,11.373c-5.734,5.619-9.693,12.971-11.195,20.775
		c-0.996-0.197-1.965-0.299-2.947-0.299c-3.871,0-7.684,1.291-10.73,3.629c-2.234,1.672-4.072,3.898-5.324,6.43
		c-0.824,1.66-1.371,3.506-1.605,5.393c-5.945-1.535-12.303-1.467-18.197,0.152c-6.684,1.818-12.891,5.727-17.467,11.006
		c-3.648,4.186-6.293,9.209-7.646,14.521c-1.309,5.088-1.467,10.508-0.463,15.668c0.928,4.83,2.932,9.527,5.803,13.576
		c2.143,3.014,4.832,5.738,7.828,7.947c-3.336,1.506-6.186,4.004-8.088,7.096c-2.51,4-3.367,8.949-2.359,13.6
		c0.111,0.51,0.23,0.969,0.359,1.396l0.043,0.15c0.049,0.17,0.1,0.342,0.24,0.729l0.238,0.682c0.035,0.08,0.139,0.316,0.441,0.486
		l0.164,0.09h56.52l-0.264-0.725h-0.773c-0.027-0.08-0.084-0.139-0.166-0.145l-53.281-1.914c-0.1-0.23-0.193-0.479-0.268-0.763
		c-0.068-0.262-0.119-0.479-0.152-0.653c-0.297-1.354-0.395-2.746-0.328-4.129c-0.031-11.492,8.898-15.117,14.811-16.259
		c1.008-0.217,2.033-0.366,3.076-0.428c1.246-0.111,2.027-0.099,2.027-0.099s-0.057,0.064,0,0.064
		c-0.057,2.085,0.209,4.17,0.863,6.156c0.873,2.648,2.369,5.054,4.326,6.938c0.039,0.039,0.086,0.062,0.141,0.062
		c0.045,0,0.09-0.021,0.125-0.045c0.082-0.062,0.096-0.187,0.047-0.271c-2.84-4.62-3.848-10.266-2.779-15.479
		c1.029-5.188,4.166-9.986,8.604-13.172c0.082-0.062,0.104-0.172,0.057-0.262c-0.049-0.093-0.15-0.138-0.25-0.101
		c-2.529,0.971-4.84,2.604-6.68,4.707c-2.045,2.312-3.512,5.272-4.127,8.34c-0.174,0.854-0.271,1.724-0.32,2.588
		c-3.416-0.522-7.066-0.098-10.279,1.229c-3.184-2.49-5.996-5.561-8.146-8.961c-2.48-3.938-4.162-8.404-4.859-12.914
		c-0.758-4.797-0.479-9.779,0.805-14.424c1.326-4.826,3.777-9.396,7.1-13.221c4.18-4.809,9.822-8.451,15.885-10.252
		c3.16-0.945,6.457-1.422,9.793-1.422c2.775,0,5.523,0.334,8.182,0.986c0.125,0.039,0.264,0.039,0.389,0.012
		c5.086,1.285,9.904,3.777,13.934,7.197c-0.369,0.34-0.748,0.664-1.094,1.025c-2.512,2.611-4.475,5.807-5.678,9.232
		c-1.078,3.059-1.549,6.338-1.367,9.494c0.006,0.102,0.09,0.186,0.203,0.186c0.1,0,0.182-0.066,0.199-0.17
		c1.035-6.439,4.021-12.5,8.408-17.053c4.336-4.566,10.26-7.801,16.684-9.125c0.098-0.018,0.166-0.113,0.158-0.217
		c-0.006-0.102-0.094-0.18-0.199-0.18c-3.131-0.057-6.422,0.562-9.422,1.762c-2.783,1.098-5.367,2.746-7.623,4.74
		c-3.855-3.807-8.645-6.666-13.857-8.27c-0.023-0.018-0.057-0.023-0.086-0.045c1.504-4.158,4.176-7.846,7.607-10.428
		c3.484-2.65,7.818-4.203,12.273-4.437c-0.441,2.771-0.592,5.602-0.43,8.416c0.006,0.113,0.094,0.193,0.203,0.193
		c0.107,0,0.199-0.084,0.199-0.197c0.045-2.775,0.367-5.541,0.957-8.213c0.096-0.08,0.162-0.188,0.193-0.324
		c1.709-7.604,5.805-14.727,11.531-20.045c6.156-5.783,14.154-9.43,22.523-10.252c1.316-0.141,2.664-0.203,3.992-0.203
		c4.01,0,7.961,0.6,11.74,1.801c4.828,1.529,9.438,4.066,13.319,7.346c3.711,3.115,6.892,6.996,9.211,11.232
		c1.121,2.045,2.062,4.197,2.811,6.4c0.334,0.934,0.592,1.908,0.84,2.844c0.233,0.883,0.5,1.777,0.799,2.65
		c-5.101,0.373-10.021,2.385-13.854,5.646c-0.082,0.068-0.096,0.188-0.03,0.271c0.062,0.092,0.185,0.113,0.271,0.057
		c4.104-2.588,8.979-4.031,13.722-4.072h0.354c3.062,0,6.106,0.584,8.975,1.66c0.773,0.316,1.551,0.646,2.307,1.014
		c0.631,0.312,1.254,0.662,1.881,1.014c0.465,0.283,0.924,0.572,1.365,0.885c4.328,3.023,7.686,7.42,9.43,12.387
		c1.504,4.23,1.861,8.988,1.062,13.492c-1.222-0.703-2.467-1.344-3.729-1.893c-3.789-1.648-7.938-2.65-12.015-2.895
		c-0.104,0-0.194,0.062-0.217,0.17c-0.015,0.107,0.062,0.205,0.16,0.227c8.215,1.881,15.967,6.168,21.817,12.07
		c5.894,5.875,10.154,13.638,12.021,21.864c0.021,0.093,0.104,0.151,0.228,0.151c0.104-0.018,0.184-0.106,0.172-0.217
		c-0.229-4.07-1.226-8.228-2.861-12.017c-0.168-0.386-0.354-0.771-0.533-1.157c2.408-2.078,5.24-3.58,8.258-4.334
		c1.535-0.389,3.125-0.582,4.729-0.582c2.094,0,4.141,0.334,6.076,0.98c3.438,1.146,6.582,3.343,8.877,6.188
		c1.938,2.379,3.291,5.241,3.968,8.317c-5.323,0.629-10.399,2.892-14.313,6.392c-0.084,0.065-0.092,0.19-0.021,0.274
		c0.065,0.086,0.188,0.104,0.28,0.035c3.688-2.808,8.148-4.603,12.744-5.16c2.438-0.295,4.916-0.104,7.332,0.263
		c2.336,0.354,4.617,1.022,6.771,2c1.277,0.584,2.518,1.271,3.682,2.062c4.898,3.283,8.604,8.416,10.18,14.072
		c1.312,4.641,1.23,9.709-0.209,14.283c-0.184,0.596-0.396,1.18-0.59,1.664l-0.574,1.377l-51.963,1.811
		c-0.082,0-0.146,0.062-0.18,0.145h-0.77l-0.258,0.729h55.146l0.983-2.021l0.392-0.896c0.226-0.544,0.479-1.192,0.692-1.856
		C276.943,177.396,277.074,171.688,275.596,166.448z M233.824,130.538c-1.904-0.641-3.9-0.963-5.941-0.963
		c-2.119,0-4.264,0.363-6.195,1.055c-3.135,1.099-5.92,3.08-7.963,5.611c-1.77-3.578-4.174-6.943-7.029-9.803
		c-2.184-2.193-4.657-4.113-7.307-5.693c1.521-4.564,1.646-9.623,0.312-14.336c-0.742-2.674-1.986-5.232-3.605-7.539
		c4.439-2.463,9.566-3.828,14.57-3.828c0.32,0,0.643,0.006,0.967,0.018c6.377,0.17,12.607,2.469,17.547,6.467
		c4.98,4,8.564,9.59,10.078,15.752c1.309,5.184,1.158,10.773-0.359,15.905C237.342,132.05,235.625,131.145,233.824,130.538z"/>
</g>
</svg>
