<?xml version="1.0" encoding="utf-8"?>
<!-- Generator: Adobe Illustrator 15.0.2, SVG Export Plug-In . SVG Version: 6.00 Build 0)  -->
<!DOCTYPE svg PUBLIC "-//W3C//DTD SVG 1.1//EN" "http://www.w3.org/Graphics/SVG/1.1/DTD/svg11.dtd">
<svg version="1.1" id="Layer_1" xmlns="http://www.w3.org/2000/svg" xmlns:xlink="http://www.w3.org/1999/xlink" x="0px" y="0px"
	 width="280px" height="260px" viewBox="0 0 280 260" enable-background="new 0 0 280 260" xml:space="preserve">
<g>
	<g>
		<g>
			<g>
				<g>
					<path fill="#FFFFFF" d="M178.656,118.186c0.215,0.107,0.436,0.205,0.648,0.318c0.002-0.041,0.008-0.08,0.014-0.119
						C179.098,118.316,178.883,118.248,178.656,118.186z"/>
				</g>
				<g>
					<path fill="#FFFFFF" d="M161.633,114.521c4.922,0,9.652,0.816,14.072,2.299c-4.021-1.619-8.416-2.52-13.021-2.52
						c-1.942,0-3.846,0.164-5.697,0.471C158.51,114.611,160.061,114.521,161.633,114.521z"/>
				</g>
				<path fill="#FFFFFF" d="M263.203,166.557c-1.777-6.399-6.01-12.127-11.602-15.701c-4.884-3.16-10.998-4.711-16.859-4.241
					c-0.219-3.173-1.291-6.339-3.064-8.988c-1.033-1.562-2.322-2.983-3.84-4.229c2.105-5.154,2.678-11.013,1.607-16.551
					c-1.279-6.83-5.17-13.271-10.67-17.672c-5.201-4.225-12.025-6.65-18.715-6.65c-0.283,0-0.562,0-0.832,0.012
					c-5.558,0.119-11.097,1.893-15.679,5.008c-1.647-2.125-3.553-3.953-5.676-5.426c-1.101-0.777-2.301-1.473-3.67-2.148
					c-0.104-0.051-0.205-0.09-0.312-0.129l-0.183-0.08c-0.453-0.203-0.912-0.402-1.375-0.584c-0.188-0.066-0.369-0.135-0.547-0.197
					c-3.17-1.133-6.455-1.688-9.672-1.523c-0.158-0.611-0.304-1.285-0.455-2.068c-0.197-1.008-0.396-2.049-0.695-3.086
					c-0.635-2.346-1.487-4.65-2.562-6.854c-2.213-4.605-5.407-8.865-9.241-12.32c-4.052-3.658-8.935-6.508-14.121-8.246
					c-5.414-1.818-11.244-2.465-16.998-1.869c-8.969,0.883-17.777,5.029-24.166,11.373c-5.734,5.619-9.693,12.971-11.195,20.775
					c-0.996-0.203-1.965-0.299-2.947-0.299c-3.871,0-7.684,1.291-10.73,3.631c-2.232,1.67-4.072,3.896-5.324,6.428
					c-0.822,1.66-1.371,3.506-1.604,5.393c-5.947-1.535-12.309-1.473-18.199,0.146c-6.684,1.818-12.885,5.732-17.467,11.012
					c-3.643,4.186-6.287,9.209-7.646,14.521c-1.309,5.094-1.471,10.508-0.461,15.668c0.922,4.832,2.93,9.521,5.803,13.575
					c2.141,3.015,4.83,5.738,7.826,7.947c-3.336,1.5-6.182,3.998-8.088,7.099c-2.51,3.991-3.367,8.952-2.361,13.598
					c0.109,0.511,0.232,0.97,0.359,1.399l0.045,0.146c0.049,0.17,0.1,0.34,0.24,0.73l0.238,0.686
					c0.035,0.074,0.139,0.312,0.441,0.482l0.168,0.09h29.838h26.682h126.115h2.34h52.803l0.988-2.021l0.389-0.899
					c0.223-0.539,0.479-1.188,0.693-1.854C264.547,177.506,264.68,171.797,263.203,166.557z"/>
				<g>
					<path fill="#ADD3F0" d="M227.668,123c-0.061-0.09-0.125-0.182-0.205-0.254c0.055-0.482,0.082-0.963,0.102-1.451
						c-0.026-0.271-0.078-0.543-0.116-0.814c-0.054-0.385-0.099-0.771-0.166-1.15c-0.113-0.65-0.255-1.297-0.416-1.943
						c-1.521-6.162-5.101-11.758-10.078-15.752c-4.94-4.004-11.172-6.297-17.547-6.467c-0.324-0.012-0.646-0.018-0.968-0.018
						c-5.01,0-10.131,1.359-14.569,3.822c1.612,2.312,2.856,4.871,3.603,7.545c1.332,4.707,1.209,9.771-0.314,14.336
						c2.648,1.58,5.129,3.5,7.311,5.688c2.854,2.865,5.262,6.229,7.029,9.812c2.039-2.533,4.83-4.517,7.963-5.619
						c1.934-0.687,4.078-1.049,6.197-1.049c2.039,0,4.037,0.324,5.941,0.963c1.801,0.602,3.518,1.514,5.067,2.646
						c0.231-0.776,0.422-1.569,0.586-2.362c0.029-0.142,0.056-0.277,0.082-0.418C227.639,128.041,227.807,125.516,227.668,123z
						 M219.512,125.43c-14.246-0.463-25.715-11.752-26.482-25.924c2.318-0.918,4.841-1.439,7.482-1.439
						c11.205,0,20.291,9.086,20.291,20.289C220.803,120.848,220.332,123.227,219.512,125.43z"/>
					<path fill="#ADD3F0" d="M20.749,139.754c-0.014-0.123-0.025-0.248-0.035-0.373c-0.004-0.006-0.004-0.012-0.004-0.023
						C20.719,139.494,20.735,139.625,20.749,139.754z"/>
					<path fill="#ADD3F0" d="M179.617,114.895c0,0.867-0.084,1.711-0.186,2.549h0.006c1.145,0.369,2.276,0.771,3.373,1.246
						c1.271,0.557,2.512,1.195,3.729,1.898c0.81-4.504,0.448-9.262-1.056-13.492c-1.75-4.967-5.1-9.369-9.434-12.387
						c-0.443-0.312-0.906-0.602-1.367-0.879c-0.623-0.355-1.246-0.707-1.881-1.02c-0.758-0.367-1.523-0.695-2.305-1.014
						c-2.861-1.082-5.91-1.66-8.973-1.66h-0.351c-4.743,0.035-9.618,1.484-13.719,4.068c0.424-0.268,0.871-0.5,1.312-0.736
						c2.483-0.924,5.157-1.457,7.961-1.457C169.367,92.012,179.617,102.254,179.617,114.895z"/>
					<path fill="#ADD3F0" d="M157.875,88.705c0.107-0.023,0.215-0.045,0.322-0.062c0.949-0.188,1.906-0.334,2.875-0.408
						c-0.303-0.877-0.561-1.768-0.797-2.645c-0.248-0.947-0.506-1.914-0.838-2.85c-0.738-2.203-1.688-4.355-2.81-6.406
						c-2.319-4.23-5.5-8.111-9.207-11.227c-3.889-3.279-8.494-5.816-13.322-7.352c-3.781-1.195-7.73-1.801-11.742-1.801
						c-1.328,0-2.676,0.068-3.99,0.203c-8.371,0.828-16.369,4.469-22.525,10.258c-5.727,5.318-9.822,12.434-11.531,20.045
						c-0.031,0.137-0.098,0.244-0.193,0.33c-0.59,2.666-0.912,5.432-0.955,8.207c0,0.107-0.09,0.197-0.201,0.197
						c-0.109,0-0.197-0.084-0.203-0.188c-0.162-2.82-0.012-5.652,0.43-8.422c-4.453,0.232-8.789,1.785-12.273,4.436
						c-3.432,2.576-6.1,6.27-7.607,10.428c0.029,0.016,0.062,0.027,0.086,0.045c0.707,0.646,2.637,0.918,3.557,1.314
						c1.246,0.549,2.459,1.16,3.631,1.846c2.408,1.41,4.664,3.109,6.633,5.08c1.557-0.701,2.85-2.254,4.463-3.062
						c4.016-2.006,8.023-3.416,12.67-3.395c0.035-0.021,0.074-0.045,0.109-0.066c-0.217-0.674-0.566-2.492-0.582-2.578
						c-0.129-0.662-0.242-1.324-0.334-2c-0.184-1.363-0.273-2.74-0.273-4.117c0-17.18,13.928-31.102,31.1-31.102
						c15.461,0,28.248,11.289,30.658,26.066C155.957,89.164,156.906,88.908,157.875,88.705z"/>
					<path fill="#ADD3F0" d="M131.079,150.262c-1.102,0-2.186,0.057-3.268,0.146c-0.01-0.402-0.029-0.803-0.029-1.205
						c0-4.26,0.775-8.326,2.172-12.094c2.932-8.564,8.664-15.18,15.901-19.275c-0.227,0.086-0.43,0.193-0.649,0.283l0.485-0.221
						c0,0-6.7,1.195-14.424,7.375c-1.23,0.986-2.482,2.096-3.744,3.348c-0.057,0.062-0.113,0.119-0.17,0.176
						c-0.617,0.617-1.234,1.27-1.85,1.953c-0.006,0.012-0.012,0.018-0.014,0.023c-0.584,0.651-1.168,1.348-1.742,2.067
						c-0.088,0.113-0.176,0.215-0.264,0.328c-0.566,0.726-1.127,1.474-1.686,2.267c-0.094,0.129-0.184,0.266-0.279,0.401
						c-0.504,0.729-1,1.481-1.496,2.274c-0.07,0.119-0.146,0.232-0.221,0.353c-0.527,0.854-1.039,1.756-1.547,2.687
						c-0.109,0.209-0.221,0.418-0.334,0.635c-0.516,0.963-1.016,1.953-1.5,2.996c-0.215,0.106-0.432,0.227-0.652,0.328
						c-2.803,1.24-5.861,1.887-8.934,1.887c-0.676,0-1.346-0.041-2.02-0.104c0,0,0,0-0.006,0c-4.662-0.425-8.906-2.287-12.291-5.148
						c-0.029-0.021-0.062-0.051-0.098-0.066c-5.359-4.379-8.783-11.035-8.783-18.494c0-7.816,3.771-14.732,9.582-19.082
						c0.453-0.125,0.816-0.256,0.932-0.396c-0.035,0.012-0.076,0.023-0.115,0.033c-2.336,0.5-4.611,1.252-6.76,2.238
						c-0.006,0.006-0.014,0.006-0.02,0.012c-0.721,0.328-1.428,0.68-2.119,1.059c-0.062,0.039-0.125,0.08-0.188,0.119
						c-0.629,0.352-1.252,0.719-1.854,1.109c-0.156,0.102-0.305,0.215-0.457,0.324c-0.498,0.334-1,0.68-1.479,1.041
						c-0.273,0.209-0.529,0.436-0.793,0.658c-0.346,0.277-0.695,0.549-1.025,0.85c-0.588,0.52-1.148,1.064-1.688,1.631
						c-4.389,4.559-7.375,10.613-8.41,17.064c-0.018,0.098-0.1,0.166-0.199,0.166c-0.113-0.006-0.197-0.086-0.203-0.188
						c-0.182-3.154,0.289-6.436,1.365-9.494c1.205-3.426,3.168-6.621,5.68-9.236c0.346-0.357,0.723-0.686,1.094-1.025
						c-3.025-2.561-6.49-4.605-10.178-6.01c-1.23-0.465-2.48-0.867-3.756-1.189c-0.125,0.033-0.264,0.027-0.389-0.006
						c-0.441,0-0.941-0.182-1.4-0.301c-0.006-0.006-0.012-0.006-0.018-0.006c-0.742-0.146-1.484-0.271-2.232-0.373
						c-0.006,0-0.006,0-0.01,0c-0.445-0.051-0.867-0.045-1.309-0.051c-0.195-0.006-0.381-0.068-0.557-0.143
						c-0.883-0.068-1.764-0.113-2.65-0.113c-3.342,0-6.639,0.482-9.799,1.428c-6.066,1.795-11.705,5.438-15.881,10.246
						c-3.326,3.824-5.777,8.389-7.104,13.215c-0.316,1.15-0.572,2.328-0.77,3.512c-0.098,0.605-0.133,1.223-0.199,1.833
						c-0.064,0.578-0.152,1.15-0.189,1.734c-0.049,0.811-0.025,1.631-0.014,2.447c0.006,0.385-0.023,0.77-0.006,1.148
						c0.027,0.651,0.125,1.297,0.191,1.942c0.047,0.25,0.098,0.498,0.154,0.748c-0.01,0.254-0.006,0.51,0,0.771
						c0.014,0.098,0.014,0.192,0.027,0.295c0.697,4.508,2.379,8.973,4.859,12.914c2.148,3.403,4.963,6.469,8.146,8.955
						c3.213-1.32,6.863-1.756,10.279-1.224c0.051-0.867,0.148-1.733,0.32-2.59c0.615-3.063,2.078-6.024,4.127-8.343
						c1.84-2.106,4.154-3.733,6.684-4.7c0.096-0.041,0.197,0.004,0.246,0.09c0.047,0.09,0.025,0.203-0.057,0.261
						c-4.436,3.188-7.572,7.991-8.604,13.176c-1.068,5.223-0.057,10.862,2.783,15.483c0.049,0.093,0.029,0.205-0.049,0.269
						c-0.035,0.026-0.082,0.045-0.127,0.045c-0.053,0-0.102-0.019-0.141-0.058c-1.961-1.893-3.455-4.286-4.328-6.938
						c-0.65-1.988-0.918-4.072-0.861-6.162c-0.02,0-0.033,0-0.057,0l0.057-0.068c0,0-0.781-0.006-2.027,0.098
						c-1.039,0.062-2.064,0.215-3.076,0.431c-5.912,1.139-14.846,4.764-14.811,16.25c-0.064,1.389,0.027,2.78,0.326,4.135
						c0.035,0.177,0.088,0.396,0.154,0.658c0.074,0.271,0.168,0.524,0.268,0.758l52.691,1.894c-0.254-1.258-0.418-2.556-0.418-3.894
						c0-11.049,8.955-20.01,20.006-20.01c6.943,0,13.055,3.539,16.646,8.907c4.156-10.528,14.408-17.993,26.416-17.993
						c1.688,0,3.33,0.176,4.934,0.459c0.369-0.132,0.748-0.228,1.121-0.353C141.744,151.479,136.555,150.262,131.079,150.262z
						 M141.24,119.879l0.758-0.34c-0.396,0.199-0.773,0.414-1.166,0.617L141.24,119.879z M44.413,145.889
						c-7.629-2.865-13.072-10.207-13.072-18.844c0-11.119,9.014-20.131,20.129-20.131c6.303,0,11.918,2.889,15.607,7.414
						c-5.438,6.084-9.139,13.736-10.441,22.182C51.827,138.6,47.645,141.84,44.413,145.889z M58.913,146.637
						c-0.059-0.018-0.121-0.022-0.178-0.033c0.115-0.086,0.242-0.166,0.359-0.25C59.038,146.449,58.969,146.541,58.913,146.637z
						 M60.348,167.871c-3.789-6.707-3.229-14.822,3.334-21.207c2.135-2.072,4.74-2.883,7.326-2.656
						c2.189,3.795,5.275,6.928,8.918,9.521C71.237,154.686,63.954,160.23,60.348,167.871z"/>
					<path fill="#ADD3F0" d="M195.008,162.088c7.67,2.594,14.205,7.67,18.627,14.279c-0.232-1.234-0.354-2.516-0.354-3.822
						c0-11.504,9.322-20.828,20.82-20.828s20.819,9.324,20.819,20.828c0,4.684-1.567,8.994-4.187,12.471
						c0.9-0.033,1.798-0.062,2.697-0.096c0.562-0.018,1.121-0.033,1.682-0.057l0.66-0.023c0.316-0.01,0.705-0.057,1.068-0.033
						l1.93-0.068l0.578-1.375c0.168-0.432,0.351-0.936,0.517-1.456c0-0.007,0-0.013,0-0.017c0.062-0.396,0.215-0.793,0.34-1.188
						c0.049-0.17,0.106-0.347,0.147-0.521c0.078-0.328,0.146-0.658,0.211-0.986c0.056-0.266,0.111-0.531,0.156-0.799
						c0.057-0.34,0.1-0.687,0.144-1.025c0.032-0.271,0.071-0.543,0.102-0.814c0.033-0.352,0.046-0.697,0.062-1.043
						c0.011-0.266,0.033-0.527,0.039-0.787c0.009-0.367-0.006-0.735-0.012-1.1c-0.006-0.254,0-0.504-0.018-0.752
						c-0.016-0.369-0.059-0.736-0.092-1.105c-0.025-0.248-0.037-0.492-0.068-0.742c-0.051-0.391-0.123-0.78-0.189-1.172
						c-0.041-0.215-0.062-0.436-0.106-0.649c-0.125-0.603-0.265-1.201-0.433-1.791c-1.573-5.664-5.284-10.789-10.178-14.074
						c-0.672-0.446-1.363-0.86-2.068-1.245c-0.176-0.099-0.354-0.183-0.534-0.269c-0.537-0.283-1.084-0.55-1.646-0.787
						c-0.182-0.072-0.358-0.146-0.535-0.215c-0.711-0.283-1.43-0.543-2.162-0.765c-1.151-0.34-2.321-0.602-3.508-0.783
						c-2.416-0.36-4.896-0.555-7.332-0.254c-1.139,0.136-2.26,0.353-3.371,0.636c-1.127,0.293-2.233,0.655-3.312,1.086
						c-2.164,0.873-4.215,2.022-6.065,3.435c-0.086,0.062-0.209,0.051-0.277-0.035c-0.074-0.084-0.062-0.203,0.02-0.277
						c3.914-3.5,8.988-5.76,14.316-6.389c-0.678-3.08-2.027-5.941-3.965-8.326c-2.297-2.838-5.443-5.035-8.877-6.191
						c-1.941-0.645-3.992-0.979-6.082-0.979c-1.6,0-3.189,0.197-4.73,0.582c-3.012,0.754-5.85,2.256-8.252,4.334
						c0.182,0.385,0.363,0.77,0.533,1.16c1.643,3.791,2.633,7.94,2.865,12.014c0.006,0.107-0.068,0.199-0.176,0.211
						c-0.002,0-0.002,0-0.008,0c-0.011,0-0.011,0-0.019,0.006c-0.095,0-0.179-0.068-0.197-0.16
						c-1.86-8.223-6.129-15.982-12.018-21.857c-0.675-0.68-1.382-1.336-2.107-1.977c-0.396-0.34-0.803-0.668-1.217-0.996
						c-0.312-0.256-0.617-0.516-0.937-0.76c-0.569-0.436-1.153-0.861-1.75-1.273c-0.139-0.098-0.271-0.193-0.412-0.289
						c-0.709-0.482-1.428-0.941-2.164-1.383l0,0c8.259,6.379,13.591,16.357,13.591,27.613c0,4.564-0.882,8.914-2.478,12.914
						C195.07,162.105,195.037,162.094,195.008,162.088z M213.725,133.684c7.224,0,13.088,5.787,13.224,12.98
						c-0.99,0.211-2.017,0.324-3.072,0.324c-7.396,0-13.5-5.438-14.588-12.529C210.676,133.967,212.164,133.684,213.725,133.684z"/>
				</g>
				<path fill="#231F20" d="M263.203,166.557c-1.777-6.399-6.01-12.127-11.602-15.701c-4.884-3.16-10.998-4.711-16.859-4.241
					c-0.219-3.173-1.291-6.339-3.064-8.988c-1.033-1.562-2.322-2.983-3.84-4.229c2.105-5.154,2.678-11.013,1.607-16.551
					c-1.279-6.83-5.17-13.271-10.67-17.672c-5.201-4.225-12.025-6.65-18.715-6.65c-0.283,0-0.562,0-0.832,0.012
					c-5.558,0.119-11.097,1.893-15.679,5.008c-1.647-2.125-3.553-3.953-5.676-5.426c-1.101-0.777-2.301-1.473-3.67-2.148
					c-0.104-0.051-0.205-0.09-0.312-0.129l-0.183-0.08c-0.453-0.203-0.912-0.402-1.375-0.584c-0.188-0.066-0.369-0.135-0.547-0.197
					c-3.17-1.133-6.455-1.688-9.672-1.523c-0.158-0.611-0.304-1.285-0.455-2.068c-0.197-1.008-0.396-2.049-0.695-3.086
					c-0.635-2.346-1.487-4.65-2.562-6.854c-2.213-4.605-5.407-8.865-9.241-12.32c-4.052-3.658-8.935-6.508-14.121-8.246
					c-5.414-1.818-11.244-2.465-16.998-1.869c-8.969,0.883-17.777,5.029-24.166,11.373c-5.734,5.619-9.693,12.971-11.195,20.775
					c-0.996-0.203-1.965-0.299-2.947-0.299c-3.871,0-7.684,1.291-10.73,3.631c-2.232,1.67-4.072,3.896-5.324,6.428
					c-0.822,1.66-1.371,3.506-1.604,5.393c-5.947-1.535-12.309-1.473-18.199,0.146c-6.684,1.818-12.885,5.732-17.467,11.012
					c-3.643,4.186-6.287,9.209-7.646,14.521c-1.309,5.094-1.471,10.508-0.461,15.668c0.922,4.832,2.93,9.521,5.803,13.575
					c2.141,3.015,4.83,5.738,7.826,7.947c-3.336,1.5-6.182,3.998-8.088,7.099c-2.51,3.991-3.367,8.952-2.361,13.598
					c0.109,0.511,0.232,0.97,0.359,1.399l0.045,0.146c0.049,0.17,0.1,0.34,0.24,0.73l0.238,0.686
					c0.035,0.074,0.139,0.312,0.441,0.482l0.168,0.09h56.52l-0.268-0.725h-0.77c-0.031-0.08-0.09-0.144-0.17-0.144l-53.281-1.914
					c-0.1-0.231-0.193-0.485-0.268-0.758c-0.066-0.263-0.119-0.481-0.154-0.658c-0.299-1.354-0.391-2.746-0.326-4.135
					c-0.035-11.486,8.898-15.111,14.811-16.25c1.012-0.215,2.037-0.367,3.076-0.431c1.246-0.104,2.027-0.098,2.027-0.098
					s-0.057,0.068,0,0.068c-0.057,2.09,0.211,4.174,0.861,6.162c0.873,2.652,2.367,5.047,4.328,6.939
					c0.039,0.038,0.088,0.057,0.141,0.057c0.045,0,0.092-0.019,0.127-0.045c0.078-0.062,0.098-0.176,0.049-0.269
					c-2.84-4.621-3.852-10.262-2.783-15.483c1.031-5.185,4.168-9.986,8.604-13.176c0.082-0.058,0.104-0.171,0.057-0.261
					c-0.049-0.086-0.15-0.131-0.246-0.09c-2.529,0.967-4.844,2.594-6.684,4.701c-2.049,2.315-3.512,5.276-4.127,8.342
					c-0.172,0.854-0.27,1.724-0.32,2.59c-3.416-0.532-7.066-0.098-10.279,1.224c-3.184-2.486-5.998-5.552-8.146-8.955
					c-2.48-3.941-4.162-8.406-4.859-12.914c-0.758-4.797-0.479-9.787,0.805-14.433c1.326-4.826,3.777-9.391,7.104-13.215
					c4.176-4.809,9.814-8.451,15.881-10.246c3.16-0.945,6.457-1.428,9.799-1.428c2.77,0,5.518,0.328,8.176,0.986
					c0.125,0.033,0.264,0.039,0.389,0.006c5.086,1.297,9.9,3.783,13.934,7.199c-0.371,0.34-0.748,0.668-1.094,1.025
					c-2.512,2.615-4.475,5.811-5.68,9.236c-1.076,3.059-1.547,6.34-1.365,9.494c0.006,0.102,0.09,0.182,0.203,0.188
					c0.1,0,0.182-0.068,0.199-0.166c1.035-6.451,4.021-12.506,8.41-17.064c4.334-4.555,10.258-7.795,16.682-9.119
					c0.098-0.018,0.166-0.113,0.158-0.215c-0.006-0.104-0.094-0.182-0.199-0.182c-3.131-0.057-6.422,0.561-9.418,1.762
					c-2.785,1.098-5.371,2.752-7.631,4.74c-3.852-3.807-8.641-6.66-13.854-8.27c-0.023-0.018-0.057-0.029-0.086-0.045
					c1.508-4.158,4.176-7.852,7.607-10.428c3.484-2.65,7.82-4.203,12.273-4.436c-0.441,2.77-0.592,5.602-0.43,8.422
					c0.006,0.104,0.094,0.188,0.203,0.188c0.111,0,0.201-0.09,0.201-0.197c0.043-2.775,0.365-5.541,0.955-8.207
					c0.096-0.086,0.162-0.193,0.193-0.33c1.709-7.611,5.805-14.727,11.531-20.045c6.156-5.789,14.154-9.43,22.525-10.258
					c1.314-0.135,2.662-0.203,3.99-0.203c4.012,0,7.961,0.605,11.742,1.801c4.828,1.535,9.433,4.072,13.322,7.352
					c3.707,3.115,6.888,6.996,9.207,11.227c1.121,2.051,2.07,4.203,2.81,6.406c0.332,0.936,0.59,1.902,0.838,2.85
					c0.236,0.877,0.494,1.768,0.797,2.645c-5.096,0.373-10.018,2.379-13.852,5.646c-0.087,0.068-0.097,0.188-0.037,0.273
					c0.063,0.084,0.184,0.113,0.274,0.051c4.101-2.584,8.976-4.033,13.719-4.068h0.351c3.062,0,6.111,0.578,8.973,1.66
					c0.781,0.318,1.547,0.646,2.305,1.014c0.635,0.312,1.258,0.664,1.881,1.02c0.461,0.277,0.924,0.566,1.367,0.879
					c4.334,3.018,7.684,7.42,9.434,12.387c1.505,4.23,1.863,8.988,1.056,13.492c-1.219-0.703-2.459-1.342-3.729-1.898
					c-3.787-1.648-7.938-2.65-12.011-2.895c-0.104,0.006-0.194,0.074-0.211,0.176c-0.016,0.104,0.052,0.205,0.154,0.227
					c8.219,1.881,15.973,6.168,21.828,12.07c5.889,5.875,10.155,13.634,12.018,21.857c0.021,0.092,0.104,0.16,0.224,0.154
					c0.106-0.012,0.182-0.104,0.176-0.211c-0.232-4.072-1.223-8.223-2.865-12.014c-0.17-0.392-0.352-0.775-0.533-1.16
					c2.402-2.078,5.24-3.58,8.252-4.334c1.541-0.386,3.131-0.582,4.73-0.582c2.09,0,4.141,0.334,6.082,0.979
					c3.434,1.156,6.58,3.354,8.877,6.191c1.938,2.385,3.287,5.246,3.965,8.326c-5.328,0.629-10.402,2.889-14.316,6.389
					c-0.082,0.074-0.094,0.193-0.02,0.277c0.068,0.086,0.191,0.098,0.277,0.034c3.688-2.812,8.153-4.594,12.75-5.153
					c2.436-0.302,4.916-0.107,7.332,0.254c2.336,0.352,4.619,1.024,6.771,2c1.278,0.578,2.515,1.27,3.683,2.062
					c4.893,3.285,8.604,8.41,10.178,14.074c1.303,4.639,1.231,9.715-0.209,14.278c-0.185,0.601-0.4,1.185-0.59,1.672l-0.578,1.375
					l-51.961,1.802c-0.086,0.006-0.148,0.067-0.176,0.147h-0.769l-0.259,0.726h55.144l0.988-2.021l0.389-0.9
					c0.224-0.539,0.479-1.189,0.693-1.854C264.547,177.506,264.68,171.797,263.203,166.557z M221.432,130.646
					c-1.904-0.64-3.902-0.963-5.94-0.963c-2.119,0-4.265,0.363-6.197,1.049c-3.133,1.104-5.924,3.086-7.963,5.619
					c-1.769-3.58-4.177-6.945-7.029-9.812c-2.182-2.188-4.661-4.107-7.311-5.688c1.522-4.564,1.646-9.629,0.313-14.336
					c-0.744-2.674-1.988-5.232-3.602-7.545c4.439-2.463,9.561-3.822,14.57-3.822c0.319,0,0.643,0.006,0.967,0.018
					c6.375,0.17,12.604,2.463,17.547,6.467c4.979,3.994,8.559,9.59,10.078,15.752c1.301,5.178,1.156,10.773-0.365,15.906
					C224.949,132.16,223.232,131.248,221.432,130.646z"/>
			</g>
		</g>
		<g>
			<g>
				<g>
					<g>
						<path fill="#ADD3F0" d="M70.001,218.083c-1.057,0-2.127-0.203-3.164-0.629c-4.254-1.744-6.281-6.608-4.537-10.863l1.586-3.853
							c1.748-4.25,6.613-6.286,10.865-4.53c4.252,1.75,6.283,6.61,4.533,10.86l-1.58,3.854
							C76.382,216.143,73.275,218.083,70.001,218.083z"/>
					</g>
					<g>
						<path fill="#ADD3F0" d="M89.579,249.098c-1.061,0-2.127-0.201-3.162-0.625c-4.256-1.752-6.287-6.617-4.535-10.873l1.582-3.846
							c1.744-4.254,6.613-6.281,10.867-4.533c4.25,1.744,6.281,6.609,4.531,10.862l-1.58,3.854
							C95.959,247.15,92.852,249.098,89.579,249.098z"/>
					</g>
					<g>
						<path fill="#ADD3F0" d="M135.042,218.083c-1.055,0-2.121-0.203-3.164-0.629c-4.25-1.744-6.281-6.608-4.531-10.863l1.58-3.853
							c1.75-4.25,6.615-6.286,10.863-4.53c4.254,1.75,6.288,6.61,4.542,10.86l-1.584,3.854
							C141.422,216.143,138.318,218.083,135.042,218.083z"/>
					</g>
					<g>
						<path fill="#ADD3F0" d="M154.621,249.098c-1.057,0-2.127-0.201-3.164-0.625c-4.25-1.752-6.281-6.617-4.537-10.873l1.584-3.846
							c1.75-4.254,6.615-6.281,10.865-4.533c4.254,1.744,6.283,6.609,4.537,10.862l-1.58,3.854
							C161.002,247.15,157.896,249.098,154.621,249.098z"/>
					</g>
					<g>
						<path fill="#ADD3F0" d="M200.086,218.083c-1.057,0-2.125-0.203-3.16-0.629c-4.254-1.744-6.287-6.608-4.537-10.863l1.586-3.853
							c1.744-4.25,6.609-6.286,10.859-4.53c4.258,1.75,6.287,6.61,4.537,10.86l-1.582,3.854
							C206.469,216.143,203.359,218.083,200.086,218.083z"/>
					</g>
				</g>
				<g>
					<g>
						<path fill="#231F20" d="M73.484,201.393c-1.967,2.084-3.967,3.869-5.779,5.196v0.002c-0.451,0.382-0.822,0.869-1.064,1.457
							c-0.799,1.927,0.115,4.136,2.045,4.933c1.92,0.799,4.129-0.117,4.928-2.043c0.277-0.67,0.34-1.371,0.236-2.039
							C73.533,206.723,73.396,204.141,73.484,201.393z"/>
					</g>
					<g>
						<path fill="#FFFFFF" d="M70.548,206.009c-0.787,0.828-1.586,1.546-2.311,2.074l0,0c-0.182,0.149-0.33,0.354-0.426,0.582
							c-0.316,0.774,0.045,1.655,0.816,1.978c0.77,0.315,1.652-0.045,1.971-0.818c0.113-0.264,0.135-0.547,0.094-0.816
							C70.568,208.141,70.513,207.105,70.548,206.009z"/>
					</g>
					<g>
						<path fill="#231F20" d="M138.695,201.393c-1.969,2.084-3.965,3.869-5.773,5.196v0.002c-0.459,0.382-0.828,0.869-1.072,1.457
							c-0.797,1.927,0.119,4.136,2.045,4.933c1.92,0.799,4.135-0.117,4.922-2.043c0.281-0.67,0.35-1.371,0.244-2.039
							C138.744,206.723,138.607,204.141,138.695,201.393z"/>
					</g>
					<g>
						<path fill="#FFFFFF" d="M135.757,206.009c-0.787,0.828-1.586,1.546-2.316,2.074l0,0c-0.176,0.149-0.318,0.354-0.422,0.582
							c-0.32,0.774,0.049,1.655,0.818,1.978c0.768,0.315,1.654-0.045,1.973-0.818c0.109-0.264,0.135-0.547,0.096-0.816
							C135.781,208.141,135.724,207.105,135.757,206.009z"/>
					</g>
					<g>
						<path fill="#231F20" d="M203.902,201.393c-1.965,2.084-3.961,3.869-5.777,5.196v0.002c-0.453,0.382-0.82,0.869-1.064,1.457
							c-0.799,1.927,0.119,4.136,2.043,4.933c1.922,0.799,4.131-0.117,4.924-2.043c0.283-0.67,0.347-1.371,0.24-2.039
							C203.951,206.723,203.818,204.141,203.902,201.393z"/>
					</g>
					<g>
						<path fill="#FFFFFF" d="M200.967,206.009c-0.785,0.828-1.584,1.546-2.311,2.074l0,0c-0.182,0.149-0.326,0.354-0.426,0.582
							c-0.316,0.774,0.049,1.655,0.817,1.978c0.769,0.315,1.647-0.045,1.972-0.818c0.11-0.264,0.133-0.547,0.092-0.816
							C200.986,208.141,200.936,207.105,200.967,206.009z"/>
					</g>
				</g>
				<g>
					<g>
						<path fill="#231F20" d="M93.084,232.055c-1.967,2.088-3.965,3.869-5.777,5.203l0,0c-0.453,0.379-0.822,0.869-1.068,1.453
							c-0.795,1.928,0.119,4.137,2.043,4.936c1.926,0.799,4.135-0.119,4.932-2.045c0.275-0.666,0.34-1.371,0.238-2.037
							C93.135,237.389,92.997,234.803,93.084,232.055z"/>
					</g>
					<g>
						<path fill="#FFFFFF" d="M90.145,236.672c-0.783,0.832-1.58,1.547-2.312,2.082l0,0c-0.18,0.148-0.324,0.348-0.424,0.581
							c-0.316,0.771,0.049,1.653,0.82,1.976c0.771,0.315,1.652-0.049,1.969-0.82c0.111-0.266,0.133-0.545,0.098-0.814
							C90.17,238.807,90.116,237.77,90.145,236.672z"/>
					</g>
					<g>
						<path fill="#231F20" d="M158.297,232.055c-1.975,2.088-3.969,3.869-5.781,5.203l0,0c-0.453,0.379-0.82,0.869-1.07,1.453
							c-0.793,1.928,0.123,4.137,2.05,4.936c1.922,0.799,4.131-0.119,4.924-2.045c0.276-0.666,0.347-1.371,0.242-2.037
							C158.346,237.389,158.209,234.803,158.297,232.055z"/>
					</g>
					<g>
						<path fill="#FFFFFF" d="M155.357,236.672c-0.785,0.832-1.584,1.547-2.314,2.082l0,0c-0.178,0.148-0.322,0.348-0.422,0.581
							c-0.32,0.771,0.043,1.653,0.816,1.976c0.77,0.315,1.649-0.049,1.973-0.82c0.107-0.266,0.135-0.545,0.092-0.814
							C155.377,238.807,155.32,237.77,155.357,236.672z"/>
					</g>
					<g>
						<path fill="#231F20" d="M93.084,232.055c-1.967,2.088-3.965,3.869-5.777,5.203l0,0c-0.453,0.379-0.822,0.869-1.068,1.453
							c-0.795,1.928,0.119,4.137,2.043,4.936c1.926,0.799,4.135-0.119,4.932-2.045c0.275-0.666,0.34-1.371,0.238-2.037
							C93.135,237.389,92.997,234.803,93.084,232.055z"/>
					</g>
					<g>
						<path fill="#FFFFFF" d="M90.145,236.672c-0.783,0.832-1.58,1.547-2.312,2.082l0,0c-0.18,0.148-0.324,0.348-0.424,0.581
							c-0.316,0.771,0.049,1.653,0.82,1.976c0.771,0.315,1.652-0.049,1.969-0.82c0.111-0.266,0.133-0.545,0.098-0.814
							C90.17,238.807,90.116,237.77,90.145,236.672z"/>
					</g>
					<g>
						<path fill="#231F20" d="M158.297,232.055c-1.975,2.088-3.969,3.869-5.781,5.203l0,0c-0.453,0.379-0.82,0.869-1.07,1.453
							c-0.793,1.928,0.123,4.137,2.05,4.936c1.922,0.799,4.131-0.119,4.924-2.045c0.276-0.666,0.347-1.371,0.242-2.037
							C158.346,237.389,158.209,234.803,158.297,232.055z"/>
					</g>
					<g>
						<path fill="#FFFFFF" d="M155.357,236.672c-0.785,0.832-1.584,1.547-2.314,2.082l0,0c-0.178,0.148-0.322,0.348-0.422,0.581
							c-0.32,0.771,0.043,1.653,0.816,1.976c0.77,0.315,1.649-0.049,1.973-0.82c0.107-0.266,0.135-0.545,0.092-0.814
							C155.377,238.807,155.32,237.77,155.357,236.672z"/>
					</g>
				</g>
			</g>
		</g>
	</g>
</g>
</svg>
