<?xml version="1.0" encoding="utf-8"?>
<!-- Generator: Adobe Illustrator 15.0.2, SVG Export Plug-In . SVG Version: 6.00 Build 0)  -->
<!DOCTYPE svg PUBLIC "-//W3C//DTD SVG 1.1//EN" "http://www.w3.org/Graphics/SVG/1.1/DTD/svg11.dtd">
<svg version="1.1" id="Layer_1" xmlns="http://www.w3.org/2000/svg" xmlns:xlink="http://www.w3.org/1999/xlink" x="0px" y="0px"
	 width="280px" height="260px" viewBox="0 0 280 260" enable-background="new 0 0 280 260" xml:space="preserve">
<g>
	<g>
		<g>
			<g>
				<g>
					<g>
						<path fill="#3479BE" d="M34.924,147.314c34.461,1.498,74.738,2.365,117.778,2.365c43.049,0,83.325-0.867,117.78-2.365
							c-34.455-1.498-74.731-2.354-117.78-2.354C109.663,144.96,69.385,145.816,34.924,147.314z"/>
					</g>
				</g>
				<g>
					<g>
						<path fill="#3479BE" d="M32.444,140.354c35.412,1.496,76.793,2.359,121.022,2.359c44.234,0,85.615-0.863,121.021-2.359
							c-35.405-1.504-76.786-2.36-121.021-2.36C109.237,137.993,67.856,138.852,32.444,140.354z"/>
					</g>
				</g>
				<g>
					<g>
						<path fill="#3479BE" d="M36.284,133.389c35.328,1.497,76.625,2.358,120.749,2.358c44.139,0,85.436-0.861,120.762-2.358
							c-35.326-1.505-76.623-2.367-120.762-2.367C112.909,131.021,71.612,131.884,36.284,133.389z"/>
					</g>
				</g>
				<g>
					<g>
						<path fill="#3479BE" d="M20.827,126.425c37.797,1.494,81.971,2.359,129.18,2.359c47.211,0,91.386-0.865,129.177-2.359
							c-37.791-1.502-81.966-2.363-129.177-2.363C102.797,124.062,58.624,124.923,20.827,126.425z"/>
					</g>
				</g>
				<g>
					<g>
						<path fill="#3479BE" d="M10.836,119.452c39.109,1.506,84.818,2.367,133.665,2.367c48.858,0,94.562-0.861,133.668-2.367
							c-39.104-1.498-84.81-2.357-133.668-2.357C95.655,117.095,49.946,117.954,10.836,119.452z"/>
					</g>
				</g>
				<g>
					<g>
						<path fill="#3479BE" d="M10.604,112.493c37.961,1.492,82.344,2.359,129.764,2.359s91.797-0.867,129.758-2.359
							c-37.961-1.498-82.338-2.365-129.758-2.365S48.565,110.995,10.604,112.493z"/>
					</g>
				</g>
				<g>
					<g>
						<path fill="#3479BE" d="M5.206,105.527c39.281,1.501,85.205,2.361,134.277,2.361c49.076,0,95-0.859,134.281-2.361
							c-39.281-1.498-85.205-2.359-134.281-2.359C90.411,103.167,44.487,104.029,5.206,105.527z"/>
					</g>
				</g>
				<g>
					<g>
						<path fill="#3479BE" d="M2.475,98.56c38.232,1.498,82.916,2.359,130.664,2.359c47.759,0,92.438-0.861,130.669-2.359
							c-38.231-1.498-82.91-2.365-130.669-2.365C85.391,96.195,40.708,97.062,2.475,98.56z"/>
					</g>
				</g>
				<g>
					<g>
						<path fill="#3479BE" d="M26.706,91.593c35.48,1.504,76.941,2.367,121.256,2.367c44.322,0,85.783-0.863,121.259-2.367
							c-35.476-1.498-76.937-2.354-121.259-2.354C103.647,89.24,62.186,90.095,26.706,91.593z"/>
					</g>
				</g>
				<g>
					<g>
						<path fill="#3479BE" d="M27.34,84.634c34.189,1.496,74.154,2.357,116.866,2.357c42.709,0,82.674-0.861,116.862-2.357
							c-34.188-1.506-74.153-2.363-116.862-2.363C101.495,82.271,61.53,83.128,27.34,84.634z"/>
					</g>
				</g>
				<g>
					<g>
						<path fill="#3479BE" d="M7.522,77.666c35.389,1.498,76.771,2.359,120.984,2.359c44.219,0,85.596-0.861,120.997-2.359
							c-35.399-1.498-76.776-2.359-120.997-2.359C84.293,75.306,42.911,76.167,7.522,77.666z"/>
					</g>
				</g>
				<g>
					<g>
						<path fill="#3479BE" d="M26.475,70.705c30.234,1.496,65.561,2.355,103.316,2.355c37.758,0,73.096-0.859,103.325-2.355
							c-30.229-1.502-65.566-2.365-103.325-2.365C92.036,68.339,56.709,69.203,26.475,70.705z"/>
					</g>
				</g>
				<g>
					<g>
						<path fill="#3479BE" d="M29.788,63.732c28.717,1.504,62.281,2.367,98.152,2.367c35.876,0,69.436-0.863,98.153-2.367
							c-28.717-1.5-62.274-2.359-98.153-2.359C92.069,61.373,58.504,62.232,29.788,63.732z"/>
					</g>
				</g>
				<g>
					<g>
						<path fill="#3479BE" d="M27.024,56.771c26.508,1.492,57.484,2.361,90.596,2.361s64.103-0.869,90.61-2.361
							c-26.508-1.498-57.498-2.359-90.61-2.359S53.532,55.273,27.024,56.771z"/>
					</g>
				</g>
				<g>
					<g>
						<path fill="#3479BE" d="M24.956,49.806c24.877,1.498,53.957,2.365,85.029,2.365c31.076,0,60.141-0.867,85.018-2.365
							c-24.877-1.5-53.942-2.357-85.018-2.357C78.913,47.449,49.833,48.306,24.956,49.806z"/>
					</g>
				</g>
				<g>
					<g>
						<path fill="#3479BE" d="M33.672,42.843c23.604,1.498,51.193,2.355,80.668,2.355c29.487,0,57.073-0.857,80.674-2.355
							c-23.602-1.504-51.188-2.361-80.674-2.361C84.866,40.482,57.276,41.339,33.672,42.843z"/>
					</g>
				</g>
				<g>
					<g>
						<path fill="#3479BE" d="M48.428,35.876c21.252,1.498,46.094,2.365,72.646,2.365c26.547,0,51.391-0.867,72.643-2.365
							c-21.252-1.498-46.096-2.359-72.643-2.359C94.522,33.517,69.68,34.378,48.428,35.876z"/>
					</g>
				</g>
				<g>
					<g>
						<path fill="#3479BE" d="M62.77,28.912c15.428,1.502,33.445,2.363,52.703,2.363c19.27,0,37.292-0.861,52.716-2.363
							c-15.426-1.504-33.447-2.361-52.716-2.361C96.215,26.55,78.198,27.408,62.77,28.912z"/>
					</g>
				</g>
				<g>
					<g>
						<path fill="#3479BE" d="M56.59,21.943c13.678,1.498,29.668,2.367,46.746,2.367c17.088,0,33.072-0.869,46.749-2.367
							c-13.676-1.492-29.661-2.359-46.749-2.359C86.258,19.583,70.268,20.451,56.59,21.943z"/>
					</g>
				</g>
				<g>
					<g>
						<path fill="#3479BE" d="M64.407,14.982c10.354,1.5,22.451,2.361,35.389,2.361c12.926,0,25.029-0.861,35.377-2.361
							c-10.348-1.496-22.451-2.359-35.377-2.359C86.858,12.623,74.76,13.486,64.407,14.982z"/>
					</g>
				</g>
			</g>
			<g>
				<path fill="#FFEECE" d="M107.188,54.601c-0.396-3.461-1.139-6.885-2.17-10.217C94.737,10.966,59.167,5.82,59.172,5.828
					c0.113,0.098,11.641,10.207,16.846,24.752c3.941,10.643,3.008,23.172-2.906,32.926c-1.455,2.402-3.273,4.76-5.256,6.754
					c-3.953,3.953-7.936,7.008-13.209,8.998c-5.285,1.988-10.908,2.941-16.551,3.004c-4.672,0.041-9.238-0.939-13.547-2.732
					c-6.764-2.789-13.152-7.082-18.488-12.082c-1.371-1.273-2.617-2.641-3.807-4.088l0.051,0.123l-0.271-0.34
					c0,0,4.129,26.436,27.062,40.324c8.15,4.937,17.615,7.882,27.193,7.882c17.186,0,33.117-8.521,42.639-22.8
					c5.404-8.107,8.424-17.668,8.588-27.404C107.555,58.957,107.436,56.771,107.188,54.601z"/>
				<path fill="#FFD88C" d="M16.081,79.816C35.95,93.048,62.786,87.677,76.03,67.81c10.541-15.836,9.242-36.062-1.762-50.342
					c2.668,1.123,5.256,2.479,7.742,4.137c21.303,14.189,27.062,42.949,12.875,64.242c-14.195,21.291-42.951,27.05-64.248,12.865
					c-7.93-5.283-13.695-12.588-17.088-20.777C14.375,78.574,15.204,79.224,16.081,79.816z"/>
			</g>
		</g>
		<g>
			<g>
				<g>
					<path fill="#FFFFFF" d="M191.391,118.038c0.215,0.107,0.436,0.205,0.647,0.318c0.002-0.041,0.008-0.08,0.014-0.119
						C191.831,118.169,191.616,118.101,191.391,118.038z"/>
				</g>
				<g>
					<path fill="#FFFFFF" d="M174.366,114.374c4.922,0,9.651,0.816,14.071,2.299c-4.021-1.619-8.416-2.52-13.021-2.52
						c-1.942,0-3.847,0.164-5.696,0.471C171.243,114.464,172.794,114.374,174.366,114.374z"/>
				</g>
				<path fill="#FFFFFF" d="M275.938,166.409c-1.777-6.4-6.011-12.127-11.603-15.701c-4.883-3.16-10.998-4.711-16.858-4.242
					c-0.22-3.172-1.291-6.338-3.064-8.987c-1.033-1.562-2.322-2.984-3.84-4.23c2.105-5.154,2.678-11.012,1.607-16.551
					c-1.279-6.83-5.171-13.271-10.671-17.671c-5.2-4.225-12.024-6.65-18.715-6.65c-0.282,0-0.562,0-0.832,0.012
					c-5.557,0.119-11.096,1.893-15.678,5.008c-1.647-2.125-3.554-3.953-5.677-5.426c-1.1-0.777-2.301-1.473-3.67-2.148
					c-0.104-0.051-0.205-0.09-0.312-0.129l-0.183-0.08c-0.452-0.203-0.911-0.402-1.375-0.584c-0.188-0.066-0.368-0.135-0.547-0.197
					c-3.17-1.133-6.455-1.688-9.672-1.523c-0.158-0.611-0.303-1.285-0.455-2.068c-0.196-1.008-0.396-2.049-0.694-3.086
					c-0.636-2.346-1.488-4.65-2.562-6.854c-2.213-4.605-5.408-8.865-9.242-12.32c-4.051-3.658-8.938-6.508-14.123-8.246
					c-5.414-1.818-11.242-2.465-16.997-1.869c-8.969,0.883-17.777,5.029-24.166,11.373c-5.734,5.619-9.693,12.971-11.195,20.775
					c-0.996-0.203-1.965-0.299-2.947-0.299c-3.871,0-7.684,1.291-10.73,3.631c-2.232,1.67-4.072,3.896-5.324,6.428
					c-0.822,1.66-1.371,3.506-1.604,5.393c-5.947-1.535-12.309-1.473-18.199,0.146c-6.684,1.818-12.885,5.732-17.467,11.011
					c-3.643,4.186-6.287,9.209-7.646,14.521c-1.309,5.095-1.471,10.509-0.461,15.669c0.922,4.831,2.93,9.521,5.803,13.575
					c2.141,3.015,4.83,5.738,7.826,7.947c-3.336,1.5-6.182,3.998-8.088,7.098c-2.51,3.992-3.367,8.953-2.361,13.599
					c0.109,0.51,0.232,0.969,0.359,1.399l0.045,0.146c0.049,0.17,0.1,0.341,0.24,0.73l0.238,0.686
					c0.035,0.074,0.139,0.312,0.441,0.482l0.168,0.09h29.838h26.682h126.117h2.34h52.803l0.988-2.021l0.389-0.899
					c0.223-0.539,0.479-1.189,0.693-1.854C277.279,177.357,277.413,171.648,275.938,166.409z"/>
				<g>
					<path fill="#ADD3F0" d="M240.4,122.853c-0.061-0.09-0.125-0.182-0.205-0.254c0.056-0.482,0.082-0.963,0.103-1.451
						c-0.026-0.271-0.077-0.543-0.116-0.814c-0.054-0.385-0.099-0.771-0.166-1.15c-0.113-0.65-0.254-1.297-0.416-1.943
						c-1.521-6.162-5.101-11.757-10.078-15.751c-4.941-4.004-11.172-6.297-17.547-6.467c-0.324-0.012-0.646-0.018-0.968-0.018
						c-5.01,0-10.131,1.359-14.569,3.822c1.612,2.312,2.856,4.871,3.602,7.545c1.332,4.707,1.209,9.771-0.314,14.335
						c2.648,1.58,5.129,3.5,7.312,5.688c2.854,2.865,5.262,6.23,7.028,9.811c2.039-2.533,4.83-4.517,7.963-5.619
						c1.935-0.686,4.078-1.049,6.197-1.049c2.039,0,4.037,0.324,5.941,0.963c1.801,0.603,3.518,1.515,5.068,2.646
						c0.231-0.776,0.422-1.569,0.586-2.362c0.029-0.142,0.055-0.277,0.082-0.418C240.372,127.894,240.54,125.368,240.4,122.853z
						 M232.245,125.282c-14.246-0.463-25.716-11.752-26.481-25.923c2.317-0.918,4.84-1.439,7.481-1.439
						c11.205,0,20.291,9.085,20.291,20.289C233.536,120.7,233.064,123.079,232.245,125.282z"/>
					<path fill="#ADD3F0" d="M33.481,139.605c-0.014-0.123-0.025-0.248-0.035-0.373c-0.004-0.006-0.004-0.012-0.004-0.022
						C33.452,139.348,33.467,139.479,33.481,139.605z"/>
					<path fill="#ADD3F0" d="M192.352,114.747c0,0.867-0.084,1.711-0.187,2.549h0.006c1.146,0.369,2.276,0.771,3.373,1.246
						c1.271,0.557,2.513,1.195,3.729,1.898c0.81-4.504,0.449-9.262-1.055-13.492c-1.75-4.966-5.1-9.369-9.434-12.386
						c-0.443-0.312-0.906-0.602-1.367-0.879c-0.623-0.355-1.246-0.707-1.881-1.02c-0.758-0.367-1.523-0.695-2.305-1.014
						c-2.861-1.082-5.91-1.66-8.974-1.66h-0.35c-4.744,0.035-9.619,1.484-13.72,4.068c0.424-0.268,0.871-0.5,1.312-0.736
						c2.483-0.924,5.158-1.457,7.961-1.457C182.102,91.865,192.352,102.107,192.352,114.747z"/>
					<path fill="#ADD3F0" d="M170.607,88.558c0.107-0.023,0.216-0.045,0.322-0.062c0.949-0.188,1.906-0.334,2.875-0.408
						c-0.303-0.877-0.561-1.768-0.797-2.645c-0.248-0.947-0.506-1.914-0.838-2.85c-0.738-2.203-1.688-4.355-2.809-6.406
						c-2.32-4.23-5.5-8.111-9.207-11.227c-3.889-3.279-8.496-5.816-13.324-7.352c-3.781-1.195-7.729-1.801-11.741-1.801
						c-1.328,0-2.676,0.068-3.99,0.203c-8.371,0.828-16.369,4.469-22.525,10.258c-5.727,5.318-9.822,12.434-11.531,20.045
						c-0.031,0.137-0.098,0.244-0.193,0.33c-0.59,2.666-0.912,5.432-0.955,8.207c0,0.107-0.09,0.197-0.201,0.197
						c-0.109,0-0.197-0.084-0.203-0.188c-0.162-2.82-0.012-5.652,0.43-8.422c-4.453,0.232-8.789,1.785-12.273,4.436
						c-3.432,2.576-6.1,6.27-7.607,10.428c0.029,0.016,0.062,0.027,0.086,0.045c0.707,0.646,2.637,0.918,3.557,1.314
						c1.246,0.549,2.459,1.16,3.631,1.846c2.408,1.41,4.664,3.109,6.633,5.08c1.557-0.701,2.85-2.254,4.463-3.062
						c4.016-2.006,8.023-3.416,12.67-3.395c0.035-0.021,0.074-0.045,0.109-0.066c-0.217-0.674-0.566-2.492-0.582-2.578
						c-0.129-0.662-0.242-1.324-0.334-2c-0.184-1.363-0.273-2.74-0.273-4.117c0-17.18,13.928-31.102,31.1-31.102
						c15.459,0,28.249,11.289,30.659,26.066C168.689,89.017,169.641,88.761,170.607,88.558z"/>
					<path fill="#ADD3F0" d="M143.811,150.114c-1.103,0-2.185,0.057-3.267,0.146c-0.01-0.402-0.028-0.803-0.028-1.205
						c0-4.26,0.774-8.326,2.17-12.094c2.932-8.564,8.664-15.18,15.903-19.275c-0.228,0.086-0.43,0.193-0.649,0.283l0.485-0.221
						c0,0-6.702,1.195-14.428,7.375c-1.229,0.986-2.479,2.096-3.742,3.348c-0.057,0.062-0.114,0.119-0.17,0.176
						c-0.617,0.617-1.234,1.27-1.85,1.953c-0.006,0.012-0.012,0.019-0.014,0.023c-0.584,0.652-1.168,1.348-1.742,2.068
						c-0.088,0.113-0.176,0.215-0.264,0.328c-0.566,0.725-1.127,1.473-1.686,2.266c-0.094,0.129-0.184,0.266-0.279,0.402
						c-0.504,0.729-1,1.481-1.496,2.274c-0.07,0.119-0.146,0.231-0.221,0.353c-0.527,0.854-1.039,1.756-1.547,2.686
						c-0.109,0.209-0.221,0.418-0.334,0.635c-0.516,0.963-1.016,1.953-1.5,2.996c-0.215,0.107-0.432,0.227-0.652,0.328
						c-2.803,1.24-5.861,1.887-8.934,1.887c-0.676,0-1.346-0.041-2.02-0.104c0,0,0,0-0.006,0c-4.662-0.424-8.906-2.287-12.291-5.148
						c-0.029-0.021-0.062-0.051-0.098-0.066c-5.359-4.379-8.783-11.034-8.783-18.493c0-7.816,3.771-14.732,9.582-19.082
						c0.453-0.125,0.816-0.256,0.932-0.396c-0.035,0.012-0.076,0.023-0.115,0.033c-2.336,0.5-4.611,1.252-6.76,2.238
						c-0.006,0.006-0.014,0.006-0.02,0.012c-0.721,0.328-1.428,0.68-2.119,1.058c-0.062,0.039-0.125,0.08-0.188,0.119
						c-0.629,0.352-1.252,0.719-1.854,1.109c-0.156,0.102-0.305,0.215-0.457,0.324c-0.498,0.334-1,0.68-1.479,1.041
						c-0.273,0.209-0.529,0.436-0.793,0.658c-0.346,0.277-0.695,0.549-1.025,0.85c-0.588,0.52-1.148,1.064-1.688,1.631
						c-4.389,4.559-7.375,10.613-8.41,17.064c-0.018,0.098-0.1,0.166-0.199,0.166c-0.113-0.006-0.197-0.086-0.203-0.188
						c-0.182-3.154,0.289-6.436,1.365-9.494c1.205-3.426,3.168-6.621,5.68-9.236c0.346-0.357,0.723-0.686,1.094-1.025
						c-3.025-2.561-6.49-4.605-10.178-6.009c-1.23-0.465-2.48-0.867-3.756-1.189c-0.125,0.033-0.264,0.027-0.389-0.006
						c-0.441,0-0.941-0.182-1.4-0.301c-0.006-0.006-0.012-0.006-0.018-0.006c-0.742-0.146-1.484-0.271-2.232-0.373
						c-0.006,0-0.006,0-0.01,0c-0.445-0.051-0.867-0.045-1.309-0.051c-0.195-0.006-0.381-0.068-0.557-0.143
						c-0.883-0.068-1.764-0.113-2.65-0.113c-3.342,0-6.639,0.482-9.799,1.428c-6.066,1.795-11.705,5.437-15.881,10.246
						c-3.326,3.824-5.777,8.389-7.104,13.215c-0.316,1.15-0.572,2.328-0.77,3.512c-0.098,0.604-0.133,1.224-0.199,1.834
						c-0.064,0.578-0.152,1.149-0.189,1.733c-0.049,0.812-0.025,1.632-0.014,2.447c0.006,0.385-0.023,0.771-0.006,1.148
						c0.027,0.652,0.125,1.297,0.191,1.943c0.047,0.25,0.098,0.498,0.154,0.748c-0.01,0.254-0.006,0.51,0,0.77
						c0.014,0.098,0.014,0.193,0.027,0.295c0.697,4.508,2.379,8.973,4.859,12.914c2.148,3.404,4.963,6.469,8.146,8.955
						c3.213-1.32,6.863-1.756,10.279-1.223c0.051-0.867,0.148-1.734,0.32-2.59c0.615-3.064,2.078-6.025,4.127-8.343
						c1.84-2.106,4.154-3.733,6.684-4.7c0.096-0.041,0.197,0.004,0.246,0.09c0.047,0.09,0.025,0.203-0.057,0.26
						c-4.436,3.188-7.572,7.992-8.604,13.176c-1.068,5.223-0.057,10.863,2.783,15.484c0.049,0.092,0.029,0.205-0.049,0.268
						c-0.035,0.027-0.082,0.045-0.127,0.045c-0.053,0-0.102-0.018-0.141-0.057c-1.961-1.894-3.455-4.287-4.328-6.939
						c-0.65-1.988-0.918-4.072-0.861-6.162c-0.02,0-0.033,0-0.057,0l0.057-0.068c0,0-0.781-0.006-2.027,0.099
						c-1.039,0.062-2.064,0.215-3.076,0.431c-5.912,1.139-14.846,4.764-14.811,16.25c-0.064,1.389,0.027,2.78,0.326,4.135
						c0.035,0.176,0.088,0.396,0.154,0.658c0.074,0.271,0.168,0.524,0.268,0.758l52.691,1.893c-0.254-1.258-0.418-2.555-0.418-3.893
						c0-11.049,8.955-20.01,20.006-20.01c6.943,0,13.055,3.538,16.646,8.907c4.156-10.528,14.408-17.994,26.415-17.994
						c1.688,0,3.331,0.177,4.936,0.459c0.369-0.131,0.748-0.227,1.121-0.352C154.477,151.331,149.286,150.114,143.811,150.114z
						 M153.973,119.731l0.76-0.34c-0.398,0.199-0.775,0.414-1.168,0.617L153.973,119.731z M57.145,145.741
						c-7.629-2.865-13.072-10.207-13.072-18.844c0-11.119,9.014-20.13,20.129-20.13c6.303,0,11.918,2.888,15.607,7.414
						c-5.438,6.084-9.139,13.736-10.441,22.182C64.559,138.452,60.377,141.691,57.145,145.741z M71.645,146.489
						c-0.059-0.019-0.121-0.023-0.178-0.033c0.115-0.086,0.242-0.166,0.359-0.25C71.77,146.302,71.702,146.395,71.645,146.489z
						 M73.081,167.725c-3.789-6.707-3.229-14.822,3.334-21.207c2.135-2.072,4.74-2.884,7.326-2.656
						c2.189,3.795,5.275,6.928,8.918,9.521C83.969,154.538,76.686,160.083,73.081,167.725z"/>
					<path fill="#ADD3F0" d="M207.741,161.939c7.67,2.595,14.204,7.67,18.627,14.279c-0.231-1.234-0.354-2.516-0.354-3.822
						c0-11.504,9.322-20.828,20.82-20.828s20.82,9.324,20.82,20.828c0,4.685-1.568,8.994-4.187,12.472
						c0.9-0.033,1.798-0.062,2.697-0.097c0.562-0.018,1.121-0.033,1.683-0.057l0.659-0.023c0.316-0.01,0.705-0.057,1.068-0.032
						l1.93-0.068l0.578-1.375c0.168-0.432,0.351-0.937,0.517-1.457v-0.016c0.062-0.396,0.215-0.793,0.34-1.188
						c0.049-0.171,0.106-0.347,0.147-0.521c0.078-0.328,0.146-0.658,0.211-0.986c0.056-0.266,0.111-0.531,0.156-0.799
						c0.057-0.34,0.101-0.686,0.144-1.025c0.032-0.271,0.071-0.543,0.102-0.813c0.033-0.353,0.045-0.697,0.062-1.043
						c0.011-0.267,0.033-0.527,0.039-0.787c0.009-0.367-0.006-0.736-0.012-1.101c-0.006-0.254,0-0.504-0.019-0.752
						c-0.016-0.369-0.059-0.735-0.092-1.104c-0.025-0.248-0.037-0.492-0.068-0.742c-0.051-0.391-0.123-0.78-0.188-1.172
						c-0.041-0.215-0.062-0.437-0.106-0.649c-0.125-0.603-0.265-1.201-0.433-1.791c-1.573-5.664-5.284-10.789-10.178-14.074
						c-0.672-0.447-1.363-0.861-2.068-1.246c-0.176-0.098-0.354-0.182-0.534-0.268c-0.537-0.283-1.084-0.55-1.646-0.787
						c-0.183-0.072-0.358-0.146-0.535-0.216c-0.711-0.282-1.43-0.543-2.162-0.764c-1.151-0.34-2.321-0.603-3.508-0.783
						c-2.416-0.36-4.896-0.555-7.332-0.254c-1.14,0.135-2.26,0.353-3.371,0.635c-1.127,0.294-2.233,0.656-3.312,1.087
						c-2.164,0.873-4.215,2.022-6.066,3.434c-0.086,0.062-0.209,0.051-0.277-0.035c-0.074-0.084-0.062-0.203,0.021-0.277
						c3.914-3.5,8.987-5.76,14.315-6.389c-0.678-3.08-2.026-5.941-3.965-8.326c-2.297-2.838-5.443-5.035-8.877-6.191
						c-1.941-0.645-3.992-0.979-6.082-0.979c-1.6,0-3.188,0.197-4.729,0.582c-3.013,0.754-5.851,2.256-8.252,4.334
						c0.182,0.385,0.362,0.77,0.532,1.16c1.644,3.791,2.634,7.941,2.865,12.014c0.006,0.107-0.068,0.199-0.176,0.211
						c-0.002,0-0.002,0-0.008,0c-0.01,0-0.01,0-0.018,0.006c-0.095,0-0.179-0.067-0.197-0.16
						c-1.861-8.223-6.129-15.981-12.018-21.856c-0.675-0.68-1.382-1.336-2.107-1.977c-0.396-0.34-0.803-0.668-1.217-0.996
						c-0.312-0.256-0.617-0.516-0.937-0.76c-0.569-0.436-1.153-0.861-1.75-1.273c-0.14-0.098-0.271-0.193-0.412-0.289
						c-0.709-0.482-1.428-0.941-2.164-1.383l0,0c8.259,6.379,13.591,16.357,13.591,27.613c0,4.564-0.881,8.914-2.478,12.914
						C207.805,161.958,207.771,161.945,207.741,161.939z M226.458,133.536c7.224,0,13.088,5.787,13.224,12.979
						c-0.99,0.211-2.017,0.324-3.072,0.324c-7.396,0-13.5-5.438-14.588-12.529C223.409,133.818,224.896,133.536,226.458,133.536z"/>
				</g>
				<path fill="#231F20" d="M275.938,166.409c-1.777-6.4-6.011-12.127-11.603-15.701c-4.883-3.16-10.998-4.711-16.858-4.242
					c-0.22-3.172-1.291-6.338-3.064-8.987c-1.033-1.562-2.322-2.984-3.84-4.23c2.105-5.154,2.678-11.012,1.607-16.551
					c-1.279-6.83-5.171-13.271-10.671-17.671c-5.2-4.225-12.024-6.65-18.715-6.65c-0.282,0-0.562,0-0.832,0.012
					c-5.557,0.119-11.096,1.893-15.678,5.008c-1.647-2.125-3.554-3.953-5.677-5.426c-1.1-0.777-2.301-1.473-3.67-2.148
					c-0.104-0.051-0.205-0.09-0.312-0.129l-0.183-0.08c-0.452-0.203-0.911-0.402-1.375-0.584c-0.188-0.066-0.368-0.135-0.547-0.197
					c-3.17-1.133-6.455-1.688-9.672-1.523c-0.158-0.611-0.303-1.285-0.455-2.068c-0.196-1.008-0.396-2.049-0.694-3.086
					c-0.636-2.346-1.488-4.65-2.562-6.854c-2.213-4.605-5.408-8.865-9.242-12.32c-4.051-3.658-8.938-6.508-14.123-8.246
					c-5.414-1.818-11.242-2.465-16.997-1.869c-8.969,0.883-17.777,5.029-24.166,11.373c-5.734,5.619-9.693,12.971-11.195,20.775
					c-0.996-0.203-1.965-0.299-2.947-0.299c-3.871,0-7.684,1.291-10.73,3.631c-2.232,1.67-4.072,3.896-5.324,6.428
					c-0.822,1.66-1.371,3.506-1.604,5.393c-5.947-1.535-12.309-1.473-18.199,0.146c-6.684,1.818-12.885,5.732-17.467,11.011
					c-3.643,4.186-6.287,9.209-7.646,14.521c-1.309,5.095-1.471,10.509-0.461,15.669c0.922,4.831,2.93,9.521,5.803,13.575
					c2.141,3.015,4.83,5.738,7.826,7.947c-3.336,1.5-6.182,3.998-8.088,7.098c-2.51,3.992-3.367,8.953-2.361,13.599
					c0.109,0.51,0.232,0.969,0.359,1.399l0.045,0.146c0.049,0.17,0.1,0.341,0.24,0.73l0.238,0.686
					c0.035,0.074,0.139,0.312,0.441,0.482l0.168,0.09h56.52l-0.268-0.725h-0.77c-0.031-0.08-0.09-0.143-0.17-0.143l-53.281-1.914
					c-0.1-0.232-0.193-0.486-0.268-0.758c-0.066-0.263-0.119-0.482-0.154-0.658c-0.299-1.354-0.391-2.746-0.326-4.135
					c-0.035-11.486,8.898-15.111,14.811-16.25c1.012-0.216,2.037-0.367,3.076-0.431c1.246-0.104,2.027-0.099,2.027-0.099
					s-0.057,0.068,0,0.068c-0.057,2.09,0.211,4.174,0.861,6.162c0.873,2.652,2.367,5.047,4.328,6.939
					c0.039,0.039,0.088,0.057,0.141,0.057c0.045,0,0.092-0.018,0.127-0.045c0.078-0.062,0.098-0.176,0.049-0.268
					c-2.84-4.621-3.852-10.262-2.783-15.484c1.031-5.184,4.168-9.986,8.604-13.176c0.082-0.057,0.104-0.17,0.057-0.26
					c-0.049-0.086-0.15-0.131-0.246-0.09c-2.529,0.967-4.844,2.594-6.684,4.7c-2.049,2.316-3.512,5.277-4.127,8.343
					c-0.172,0.854-0.27,1.723-0.32,2.59c-3.416-0.533-7.066-0.099-10.279,1.223c-3.184-2.486-5.998-5.551-8.146-8.955
					c-2.48-3.941-4.162-8.406-4.859-12.914c-0.758-4.797-0.479-9.787,0.805-14.432c1.326-4.826,3.777-9.391,7.104-13.215
					c4.176-4.809,9.814-8.451,15.881-10.246c3.16-0.945,6.457-1.428,9.799-1.428c2.77,0,5.518,0.328,8.176,0.986
					c0.125,0.033,0.264,0.039,0.389,0.006c5.086,1.297,9.9,3.783,13.934,7.199c-0.371,0.34-0.748,0.668-1.094,1.025
					c-2.512,2.615-4.475,5.811-5.68,9.236c-1.076,3.059-1.547,6.34-1.365,9.494c0.006,0.102,0.09,0.182,0.203,0.188
					c0.1,0,0.182-0.068,0.199-0.166c1.035-6.451,4.021-12.506,8.41-17.064c4.334-4.555,10.258-7.794,16.682-9.119
					c0.098-0.018,0.166-0.113,0.158-0.215c-0.006-0.104-0.094-0.182-0.199-0.182c-3.131-0.057-6.422,0.561-9.418,1.762
					c-2.785,1.098-5.371,2.751-7.631,4.74c-3.852-3.806-8.641-6.66-13.854-8.269c-0.023-0.018-0.057-0.029-0.086-0.045
					c1.508-4.158,4.176-7.852,7.607-10.428c3.484-2.65,7.82-4.203,12.273-4.436c-0.441,2.77-0.592,5.602-0.43,8.422
					c0.006,0.104,0.094,0.188,0.203,0.188c0.111,0,0.201-0.09,0.201-0.197c0.043-2.775,0.365-5.541,0.955-8.207
					c0.096-0.086,0.162-0.193,0.193-0.33c1.709-7.611,5.805-14.727,11.531-20.045c6.156-5.789,14.154-9.43,22.525-10.258
					c1.314-0.135,2.662-0.203,3.99-0.203c4.012,0,7.959,0.605,11.741,1.801c4.828,1.535,9.437,4.072,13.324,7.352
					c3.707,3.115,6.887,6.996,9.207,11.227c1.12,2.051,2.069,4.203,2.809,6.406c0.332,0.936,0.591,1.902,0.839,2.85
					c0.235,0.877,0.493,1.768,0.797,2.645c-5.097,0.373-10.019,2.379-13.853,5.646c-0.086,0.068-0.097,0.188-0.037,0.273
					c0.063,0.084,0.185,0.113,0.274,0.051c4.101-2.584,8.976-4.033,13.72-4.068h0.351c3.062,0,6.11,0.578,8.973,1.66
					c0.781,0.318,1.547,0.646,2.305,1.014c0.635,0.312,1.258,0.664,1.881,1.02c0.461,0.277,0.924,0.566,1.367,0.879
					c4.334,3.018,7.684,7.42,9.434,12.386c1.504,4.23,1.863,8.988,1.055,13.492c-1.219-0.703-2.459-1.342-3.729-1.898
					c-3.786-1.648-7.938-2.65-12.01-2.895c-0.104,0.006-0.195,0.074-0.211,0.176c-0.017,0.104,0.051,0.205,0.153,0.227
					c8.22,1.881,15.974,6.168,21.828,12.07c5.89,5.875,10.156,13.635,12.019,21.856c0.021,0.092,0.104,0.16,0.223,0.154
					c0.107-0.012,0.183-0.104,0.177-0.211c-0.232-4.072-1.224-8.223-2.865-12.014c-0.17-0.391-0.353-0.775-0.533-1.16
					c2.402-2.078,5.24-3.58,8.252-4.334c1.541-0.385,3.131-0.582,4.73-0.582c2.09,0,4.141,0.334,6.082,0.979
					c3.434,1.156,6.58,3.354,8.877,6.191c1.938,2.385,3.287,5.246,3.965,8.326c-5.328,0.629-10.402,2.889-14.316,6.389
					c-0.082,0.074-0.094,0.193-0.02,0.277c0.067,0.086,0.19,0.098,0.276,0.035c3.689-2.812,8.154-4.594,12.75-5.154
					c2.437-0.301,4.916-0.107,7.332,0.254c2.336,0.352,4.619,1.025,6.771,2c1.279,0.578,2.515,1.27,3.683,2.062
					c4.894,3.285,8.604,8.41,10.179,14.073c1.303,4.64,1.231,9.716-0.209,14.279c-0.185,0.601-0.4,1.185-0.591,1.672l-0.577,1.375
					l-51.962,1.802c-0.086,0.006-0.147,0.067-0.176,0.147h-0.769l-0.258,0.726h55.144l0.987-2.021l0.39-0.9
					c0.223-0.539,0.479-1.189,0.692-1.854C277.279,177.357,277.413,171.648,275.938,166.409z M234.165,130.499
					c-1.904-0.639-3.901-0.963-5.94-0.963c-2.119,0-4.265,0.363-6.197,1.049c-3.133,1.104-5.924,3.086-7.963,5.619
					c-1.769-3.58-4.176-6.945-7.029-9.811c-2.182-2.188-4.662-4.107-7.311-5.688c1.522-4.564,1.646-9.629,0.313-14.335
					c-0.744-2.674-1.988-5.232-3.603-7.545c4.439-2.463,9.562-3.822,14.57-3.822c0.32,0,0.643,0.006,0.967,0.018
					c6.375,0.17,12.605,2.463,17.547,6.467c4.979,3.994,8.56,9.589,10.078,15.751c1.301,5.178,1.156,10.773-0.365,15.905
					C237.684,132.014,235.966,131.102,234.165,130.499z"/>
			</g>
		</g>
		<g>
			<g>
				<g>
					<g>
						<path fill="#ADD3F0" d="M82.734,217.938c-1.057,0-2.127-0.203-3.164-0.629c-4.254-1.744-6.281-6.609-4.537-10.863l1.586-3.853
							c1.748-4.25,6.613-6.286,10.865-4.53c4.252,1.75,6.283,6.61,4.533,10.86l-1.58,3.854
							C89.115,215.995,86.007,217.938,82.734,217.938z"/>
					</g>
					<g>
						<path fill="#ADD3F0" d="M102.311,248.948c-1.061,0-2.127-0.201-3.162-0.625c-4.256-1.753-6.287-6.617-4.535-10.871
							l1.582-3.847c1.744-4.254,6.613-6.28,10.867-4.532c4.25,1.743,6.281,6.608,4.531,10.86l-1.58,3.854
							C108.692,247.003,105.584,248.948,102.311,248.948z"/>
					</g>
					<g>
						<path fill="#ADD3F0" d="M147.773,217.938c-1.055,0-2.121-0.203-3.164-0.629c-4.25-1.744-6.28-6.609-4.53-10.863l1.58-3.853
							c1.75-4.25,6.614-6.286,10.862-4.53c4.256,1.75,6.289,6.61,4.543,10.86l-1.584,3.854
							C154.152,215.995,151.05,217.938,147.773,217.938z"/>
					</g>
					<g>
						<path fill="#ADD3F0" d="M167.354,248.948c-1.057,0-2.127-0.201-3.164-0.625c-4.25-1.753-6.28-6.617-4.537-10.871l1.584-3.847
							c1.75-4.254,6.615-6.28,10.865-4.532c4.254,1.743,6.283,6.608,4.537,10.86l-1.58,3.854
							C173.734,247.003,170.63,248.948,167.354,248.948z"/>
					</g>
					<g>
						<path fill="#ADD3F0" d="M212.818,217.938c-1.057,0-2.125-0.203-3.159-0.629c-4.255-1.744-6.287-6.609-4.537-10.863
							l1.586-3.853c1.744-4.25,6.608-6.286,10.858-4.53c4.259,1.75,6.287,6.61,4.537,10.86l-1.582,3.854
							C219.202,215.995,216.093,217.938,212.818,217.938z"/>
					</g>
				</g>
				<g>
					<g>
						<path fill="#231F20" d="M86.216,201.245c-1.967,2.084-3.967,3.868-5.779,5.196v0.002c-0.451,0.382-0.822,0.869-1.064,1.457
							c-0.799,1.927,0.115,4.136,2.045,4.933c1.92,0.799,4.129-0.117,4.928-2.043c0.277-0.67,0.34-1.371,0.236-2.039
							C86.265,206.575,86.128,203.993,86.216,201.245z"/>
					</g>
					<g>
						<path fill="#FFFFFF" d="M83.281,205.861c-0.787,0.828-1.586,1.546-2.311,2.074l0,0c-0.182,0.15-0.33,0.355-0.426,0.582
							c-0.316,0.775,0.045,1.656,0.816,1.978c0.77,0.315,1.652-0.045,1.971-0.817c0.113-0.265,0.135-0.548,0.094-0.816
							C83.3,207.993,83.246,206.96,83.281,205.861z"/>
					</g>
					<g>
						<path fill="#231F20" d="M151.427,201.245c-1.969,2.084-3.965,3.868-5.772,5.196v0.002c-0.459,0.382-0.828,0.869-1.072,1.457
							c-0.797,1.927,0.119,4.136,2.045,4.933c1.92,0.799,4.135-0.117,4.922-2.043c0.281-0.67,0.35-1.371,0.244-2.039
							C151.477,206.575,151.339,203.993,151.427,201.245z"/>
					</g>
					<g>
						<path fill="#FFFFFF" d="M148.488,205.861c-0.786,0.828-1.586,1.546-2.315,2.074l0,0c-0.176,0.15-0.317,0.355-0.422,0.582
							c-0.319,0.775,0.049,1.656,0.817,1.978c0.769,0.315,1.654-0.045,1.974-0.817c0.108-0.265,0.135-0.548,0.097-0.816
							C148.514,207.993,148.456,206.96,148.488,205.861z"/>
					</g>
					<g>
						<path fill="#231F20" d="M216.637,201.245c-1.966,2.084-3.962,3.868-5.777,5.196v0.002c-0.453,0.382-0.82,0.869-1.064,1.457
							c-0.799,1.927,0.119,4.136,2.043,4.933c1.922,0.799,4.131-0.117,4.924-2.043c0.283-0.67,0.346-1.371,0.24-2.039
							C216.686,206.575,216.552,203.993,216.637,201.245z"/>
					</g>
					<g>
						<path fill="#FFFFFF" d="M213.7,205.861c-0.785,0.828-1.584,1.546-2.312,2.074l0,0c-0.182,0.15-0.326,0.355-0.426,0.582
							c-0.316,0.775,0.049,1.656,0.818,1.978c0.768,0.315,1.648-0.045,1.971-0.817c0.111-0.265,0.133-0.548,0.092-0.816
							C213.721,207.993,213.669,206.96,213.7,205.861z"/>
					</g>
				</g>
				<g>
					<g>
						<path fill="#231F20" d="M105.817,231.907c-1.967,2.088-3.965,3.868-5.777,5.202l0,0c-0.453,0.379-0.822,0.869-1.068,1.453
							c-0.795,1.926,0.119,4.136,2.043,4.935c1.926,0.799,4.135-0.119,4.932-2.045c0.275-0.666,0.34-1.371,0.238-2.037
							C105.868,237.241,105.729,234.654,105.817,231.907z"/>
					</g>
					<g>
						<path fill="#FFFFFF" d="M102.877,236.523c-0.783,0.832-1.58,1.547-2.312,2.082l0,0c-0.18,0.148-0.324,0.349-0.424,0.58
							c-0.316,0.771,0.049,1.654,0.82,1.976c0.771,0.315,1.652-0.05,1.969-0.82c0.111-0.266,0.133-0.545,0.098-0.813
							C102.903,238.659,102.848,237.622,102.877,236.523z"/>
					</g>
					<g>
						<path fill="#231F20" d="M171.029,231.907c-1.975,2.088-3.969,3.868-5.78,5.202l0,0c-0.453,0.379-0.819,0.869-1.069,1.453
							c-0.794,1.926,0.122,4.136,2.049,4.935c1.922,0.799,4.131-0.119,4.924-2.045c0.277-0.666,0.346-1.371,0.242-2.037
							C171.079,237.241,170.941,234.654,171.029,231.907z"/>
					</g>
					<g>
						<path fill="#FFFFFF" d="M168.091,236.523c-0.784,0.832-1.584,1.547-2.313,2.082l0,0c-0.178,0.148-0.322,0.349-0.422,0.58
							c-0.32,0.771,0.043,1.654,0.815,1.976c0.771,0.315,1.649-0.05,1.974-0.82c0.106-0.266,0.135-0.545,0.092-0.813
							C168.109,238.659,168.055,237.622,168.091,236.523z"/>
					</g>
					<g>
						<path fill="#231F20" d="M105.817,231.907c-1.967,2.088-3.965,3.868-5.777,5.202l0,0c-0.453,0.379-0.822,0.869-1.068,1.453
							c-0.795,1.926,0.119,4.136,2.043,4.935c1.926,0.799,4.135-0.119,4.932-2.045c0.275-0.666,0.34-1.371,0.238-2.037
							C105.868,237.241,105.729,234.654,105.817,231.907z"/>
					</g>
					<g>
						<path fill="#FFFFFF" d="M102.877,236.523c-0.783,0.832-1.58,1.547-2.312,2.082l0,0c-0.18,0.148-0.324,0.349-0.424,0.58
							c-0.316,0.771,0.049,1.654,0.82,1.976c0.771,0.315,1.652-0.05,1.969-0.82c0.111-0.266,0.133-0.545,0.098-0.813
							C102.903,238.659,102.848,237.622,102.877,236.523z"/>
					</g>
					<g>
						<path fill="#231F20" d="M171.029,231.907c-1.975,2.088-3.969,3.868-5.78,5.202l0,0c-0.453,0.379-0.819,0.869-1.069,1.453
							c-0.794,1.926,0.122,4.136,2.049,4.935c1.922,0.799,4.131-0.119,4.924-2.045c0.277-0.666,0.346-1.371,0.242-2.037
							C171.079,237.241,170.941,234.654,171.029,231.907z"/>
					</g>
					<g>
						<path fill="#FFFFFF" d="M168.091,236.523c-0.784,0.832-1.584,1.547-2.313,2.082l0,0c-0.178,0.148-0.322,0.349-0.422,0.58
							c-0.32,0.771,0.043,1.654,0.815,1.976c0.771,0.315,1.649-0.05,1.974-0.82c0.106-0.266,0.135-0.545,0.092-0.813
							C168.109,238.659,168.055,237.622,168.091,236.523z"/>
					</g>
				</g>
			</g>
		</g>
	</g>
</g>
</svg>
