<?xml version="1.0" encoding="utf-8"?>
<!-- Generator: Adobe Illustrator 15.0.2, SVG Export Plug-In . SVG Version: 6.00 Build 0)  -->
<!DOCTYPE svg PUBLIC "-//W3C//DTD SVG 1.1//EN" "http://www.w3.org/Graphics/SVG/1.1/DTD/svg11.dtd">
<svg version="1.1" id="Layer_1" xmlns="http://www.w3.org/2000/svg" xmlns:xlink="http://www.w3.org/1999/xlink" x="0px" y="0px"
	 width="280px" height="260px" viewBox="0 0 280 260" enable-background="new 0 0 280 260" xml:space="preserve">
<g>
	<g>
		<g>
			<g>
				<path fill="#FFFFFF" d="M118.682,80.816c-2.861,20.509-21.809,34.822-42.318,31.962c-20.508-2.857-34.818-21.809-31.955-42.321
					c2.858-20.513,21.803-34.816,42.312-31.959C107.23,41.361,121.541,60.303,118.682,80.816z"/>
				<path fill="#FFD88C" d="M131.622,86.414c6.72-1.51,15.263-1.658,25.565-0.22c-9.84-1.372-17.75-3.699-23.712-6.771h0.012
					c-9.891-4.91-7.915-15.229,6.641-19.005c-14.116,3.657-20.883-3.81-15.568-12.559c3.688-5.82,9.628-11.973,17.931-18.245
					c-8.091,6.118-15.466,10.096-21.956,12.099c-10.202,3.159-15.854-5.454-8.337-18.233c-7.357,12.509-17.365,12.061-19.848,2.233
					C90.812,18.97,90.652,10.374,92.102,0c-1.431,10.234-3.89,18.371-7.146,24.409c-5.045,9.029-14.914,6.811-18.588-7.353
					c3.661,14.125-3.834,20.896-12.601,15.536l0.021,0.042c-5.826-3.684-11.984-9.632-18.263-17.949
					c5.985,7.931,9.93,15.168,11.975,21.557c3.525,10.462-5.174,16.357-18.125,8.741c12.545,7.376,12.064,17.428,2.152,19.873
					c-6.727,1.521-15.294,1.673-25.628,0.232c9.859,1.374,17.772,3.707,23.734,6.782L29.6,71.864
					c9.89,4.903,7.912,15.226-6.633,18.999c14.09-3.655,20.859,3.799,15.572,12.54c-3.689,5.822-9.632,11.98-17.944,18.258
					c7.942-6,15.191-9.945,21.59-11.99l-0.015,0.01c10.458-3.523,16.358,5.174,8.741,18.131c7.303-12.42,17.209-12.062,19.785-2.451
					c1.58,6.772,1.755,15.442,0.292,25.922c1.372-9.842,3.696-17.742,6.769-23.708l-0.004,0.006
					c4.908-9.891,15.226-7.912,19.004,6.633c-3.662-14.114,3.818-20.883,12.58-15.551c5.812,3.691,11.961,9.627,18.229,17.93
					c-5.99-7.932-9.93-15.17-11.979-21.559l0.008,0.012c-3.523-10.465,5.174-16.366,18.137-8.74
					C121.154,98.907,121.658,88.831,131.622,86.414z M118.682,80.816c-2.861,20.509-21.809,34.822-42.318,31.962
					c-20.508-2.857-34.818-21.809-31.955-42.321c2.858-20.513,21.803-34.816,42.312-31.959
					C107.23,41.361,121.541,60.303,118.682,80.816z"/>
				<path fill="#FEC343" d="M111.48,79.814c-2.305,16.532-17.58,28.07-34.115,25.765c-16.533-2.307-28.065-17.581-25.76-34.113
					c2.302-16.536,17.578-28.07,34.114-25.764C102.251,48.01,113.785,63.278,111.48,79.814z"/>
			</g>
		</g>
		<g>
			<path fill="#FFFFFF" d="M81.209,109.659c0.119,0.062,0.25,0.119,0.367,0.188c0.006-0.023,0.006-0.051,0.012-0.074
				C81.463,109.733,81.334,109.7,81.209,109.659z"/>
		</g>
		<g>
			<g>
				<path fill="#FFFFFF" d="M188.902,132.938c0.164,0.082,0.344,0.158,0.508,0.252c0.008-0.031,0.008-0.068,0.014-0.103
					C189.25,133.038,189.08,132.986,188.902,132.938z"/>
			</g>
			<g>
				<path fill="#FFFFFF" d="M175.512,130.054c3.867,0,7.594,0.639,11.068,1.809c-3.164-1.277-6.623-1.988-10.24-1.988
					c-1.537,0-3.031,0.135-4.482,0.375C173.057,130.124,174.275,130.054,175.512,130.054z"/>
			</g>
			<path fill="#FFFFFF" d="M255.404,170.98c-1.396-5.03-4.725-9.535-9.121-12.342c-3.85-2.494-8.656-3.713-13.264-3.344
				c-0.172-2.49-1.021-4.984-2.412-7.072c-0.812-1.231-1.822-2.342-3.017-3.322c1.65-4.061,2.104-8.666,1.257-13.026
				c-1.002-5.369-4.062-10.436-8.394-13.896c-4.088-3.318-9.459-5.23-14.718-5.23c-0.215,0-0.438,0-0.653,0.012
				c-4.371,0.096-8.729,1.486-12.332,3.943c-1.303-1.676-2.797-3.111-4.474-4.273c-0.854-0.607-1.801-1.16-2.881-1.688
				c-0.076-0.045-0.158-0.076-0.248-0.102l-0.133-0.057c-0.363-0.172-0.717-0.326-1.092-0.471c-0.146-0.051-0.293-0.107-0.432-0.152
				c-2.482-0.895-5.072-1.32-7.607-1.195c-0.113-0.48-0.24-1.014-0.354-1.623c-0.154-0.801-0.312-1.613-0.547-2.438
				c-0.496-1.842-1.168-3.66-2.012-5.393c-1.74-3.618-4.255-6.969-7.271-9.68c-3.19-2.883-7.031-5.131-11.109-6.488
				c-4.252-1.436-8.846-1.943-13.366-1.48c-7.055,0.699-13.984,3.955-19.013,8.951c-4.514,4.422-7.627,10.204-8.805,16.342
				c-0.787-0.16-1.549-0.232-2.32-0.232c-3.047,0-6.041,1.014-8.441,2.848c-1.756,1.32-3.201,3.062-4.191,5.062
				c-0.646,1.307-1.08,2.76-1.258,4.238c-4.678-1.207-9.68-1.154-14.316,0.117c-5.256,1.432-10.139,4.51-13.74,8.656
				c-2.863,3.296-4.945,7.244-6.016,11.427c-1.025,4.003-1.154,8.269-0.361,12.324c0.727,3.795,2.311,7.492,4.564,10.679
				c1.686,2.366,3.803,4.52,6.156,6.254c-2.621,1.18-4.861,3.147-6.357,5.58c-1.977,3.145-2.654,7.041-1.863,10.696
				c0.09,0.4,0.184,0.763,0.283,1.105l0.039,0.115c0.039,0.133,0.08,0.26,0.188,0.57l0.189,0.539
				c0.02,0.057,0.111,0.248,0.348,0.381l0.135,0.069h23.465h20.988H210.1h1.842h41.535l0.771-1.594l0.312-0.696
				c0.178-0.435,0.383-0.939,0.547-1.462C256.457,179.598,256.564,175.104,255.404,170.98z"/>
			<g>
				<path fill="#ADD3F0" d="M227.457,136.721c-0.051-0.07-0.102-0.142-0.164-0.189c0.037-0.389,0.062-0.771,0.082-1.146
					c-0.031-0.215-0.062-0.43-0.088-0.641c-0.051-0.306-0.084-0.617-0.141-0.914c-0.088-0.511-0.195-1.017-0.318-1.522
					c-1.205-4.847-4.018-9.245-7.934-12.394c-3.888-3.15-8.795-4.953-13.806-5.086c-0.258-0.012-0.506-0.012-0.762-0.012
					c-3.94,0-7.961,1.064-11.457,3.008c1.274,1.814,2.248,3.828,2.836,5.93c1.043,3.715,0.953,7.688-0.252,11.272
					c2.082,1.252,4.03,2.757,5.752,4.479c2.246,2.261,4.133,4.902,5.528,7.716c1.601-1.988,3.798-3.543,6.269-4.412
					c1.515-0.547,3.205-0.834,4.867-0.834c1.604,0,3.176,0.262,4.674,0.762c1.422,0.471,2.774,1.188,3.992,2.076
					c0.185-0.609,0.332-1.232,0.457-1.855c0.024-0.107,0.045-0.221,0.063-0.322C227.426,140.691,227.561,138.7,227.457,136.721z
					 M221.031,138.632c-11.191-0.362-20.217-9.244-20.82-20.389c1.82-0.721,3.801-1.135,5.877-1.135
					c8.818,0,15.961,7.148,15.961,15.96C222.049,135.027,221.68,136.896,221.031,138.632z"/>
				<path fill="#ADD3F0" d="M64.689,149.898c-0.006-0.096-0.018-0.196-0.031-0.284c0-0.015,0-0.021,0-0.025
					C64.664,149.695,64.684,149.798,64.689,149.898z"/>
				<path fill="#ADD3F0" d="M189.658,130.345c0,0.686-0.064,1.346-0.141,2v0.006c0.896,0.295,1.793,0.61,2.655,0.983
					c0.994,0.438,1.974,0.94,2.927,1.483c0.633-3.539,0.354-7.274-0.824-10.604c-1.385-3.912-4.015-7.371-7.418-9.748
					c-0.354-0.24-0.717-0.477-1.078-0.691c-0.496-0.279-0.982-0.553-1.479-0.799c-0.598-0.285-1.2-0.551-1.815-0.801
					c-2.248-0.844-4.642-1.301-7.055-1.301h-0.279c-3.73,0.025-7.568,1.162-10.793,3.197c0.336-0.201,0.688-0.393,1.037-0.576
					c1.953-0.729,4.055-1.148,6.258-1.148C181.602,112.347,189.658,120.411,189.658,130.345z"/>
				<path fill="#ADD3F0" d="M172.557,109.745c0.082-0.02,0.17-0.035,0.252-0.051c0.744-0.148,1.498-0.262,2.26-0.318
					c-0.235-0.688-0.436-1.391-0.62-2.084c-0.203-0.736-0.402-1.504-0.662-2.234c-0.584-1.732-1.332-3.426-2.216-5.041
					c-1.813-3.325-4.323-6.387-7.241-8.836c-3.056-2.576-6.681-4.57-10.474-5.771c-2.977-0.945-6.08-1.422-9.233-1.422
					c-1.043,0-2.104,0.051-3.146,0.164c-6.58,0.648-12.867,3.512-17.723,8.062c-4.502,4.184-7.723,9.786-9.068,15.764
					c-0.02,0.102-0.072,0.199-0.148,0.256c-0.465,2.1-0.721,4.277-0.752,6.461c0,0.092-0.072,0.16-0.158,0.16
					c-0.082,0-0.156-0.068-0.156-0.145c-0.123-2.225-0.014-4.453,0.338-6.631c-3.51,0.184-6.918,1.404-9.654,3.486
					c-2.705,2.031-4.801,4.928-5.986,8.211c0.025,0.012,0.051,0.012,0.066,0.031c0.559,0.506,2.074,0.721,2.795,1.033
					c0.986,0.424,1.938,0.914,2.859,1.455c1.891,1.105,3.672,2.436,5.213,3.994c1.229-0.553,2.246-1.768,3.514-2.414
					c3.162-1.58,6.312-2.678,9.967-2.668c0.033-0.01,0.059-0.035,0.084-0.057c-0.166-0.525-0.447-1.953-0.455-2.023
					c-0.102-0.516-0.189-1.043-0.258-1.576c-0.146-1.072-0.215-2.152-0.215-3.236c0-13.512,10.953-24.463,24.463-24.463
					c12.158,0,22.215,8.875,24.111,20.506C171.047,110.112,171.795,109.896,172.557,109.745z"/>
				<path fill="#ADD3F0" d="M151.48,158.163c-0.873,0-1.726,0.047-2.568,0.123c-0.012-0.318-0.018-0.636-0.018-0.961
					c0-3.339,0.604-6.546,1.698-9.511c2.306-6.729,6.81-11.934,12.5-15.153c-0.176,0.065-0.327,0.147-0.506,0.219l0.388-0.174
					c0,0-5.273,0.937-11.349,5.803c-0.972,0.773-1.959,1.652-2.951,2.636c-0.041,0.045-0.09,0.09-0.129,0.141
					c-0.487,0.482-0.976,0.99-1.459,1.535c0,0-0.006,0.006-0.012,0.016c-0.461,0.512-0.912,1.059-1.365,1.631
					c-0.067,0.082-0.14,0.164-0.207,0.252c-0.453,0.572-0.887,1.164-1.328,1.777c-0.075,0.109-0.139,0.217-0.221,0.324
					c-0.394,0.572-0.787,1.17-1.17,1.783c-0.06,0.102-0.121,0.186-0.179,0.28c-0.416,0.681-0.817,1.377-1.215,2.113
					c-0.086,0.166-0.178,0.33-0.264,0.494c-0.408,0.762-0.8,1.545-1.181,2.356c-0.178,0.088-0.34,0.185-0.516,0.26
					c-2.199,0.978-4.607,1.492-7.02,1.492c-0.533,0-1.062-0.039-1.598-0.096l0,0c-3.668-0.322-7.006-1.789-9.672-4.045
					c-0.025-0.01-0.051-0.031-0.076-0.051c-4.211-3.441-6.912-8.678-6.912-14.545c0-6.15,2.971-11.586,7.541-15.012
					c0.363-0.092,0.641-0.199,0.734-0.312c-0.029,0.012-0.057,0.018-0.094,0.025c-1.832,0.395-3.625,0.988-5.318,1.764
					c0,0.006-0.006,0.006-0.016,0.006c-0.562,0.262-1.121,0.541-1.662,0.84c-0.051,0.031-0.102,0.064-0.152,0.088
					c-0.486,0.279-0.982,0.566-1.453,0.871c-0.121,0.088-0.238,0.176-0.361,0.252c-0.389,0.266-0.789,0.541-1.162,0.828
					c-0.215,0.164-0.414,0.342-0.623,0.512c-0.266,0.225-0.547,0.439-0.807,0.674c-0.463,0.404-0.906,0.838-1.328,1.283
					c-3.453,3.58-5.801,8.35-6.613,13.421c-0.012,0.066-0.076,0.133-0.162,0.133c-0.084-0.006-0.148-0.075-0.152-0.153
					c-0.141-2.476,0.227-5.062,1.07-7.465c0.945-2.699,2.492-5.205,4.469-7.258c0.27-0.283,0.564-0.545,0.859-0.812
					c-2.383-2.018-5.107-3.625-8.008-4.721c-0.967-0.377-1.953-0.686-2.953-0.941c-0.102,0.025-0.201,0.02-0.303-0.006
					c-0.352,0-0.748-0.141-1.105-0.234c0,0-0.008-0.008-0.014-0.008c-0.582-0.113-1.164-0.217-1.752-0.293c-0.004,0-0.01,0-0.01,0
					c-0.354-0.037-0.682-0.037-1.029-0.043c-0.154,0-0.295-0.059-0.438-0.107c-0.695-0.051-1.387-0.09-2.086-0.09
					c-2.627,0-5.223,0.373-7.707,1.119c-4.766,1.416-9.207,4.279-12.492,8.062c-2.613,3.002-4.545,6.603-5.588,10.397
					c-0.246,0.9-0.449,1.822-0.607,2.762c-0.072,0.472-0.104,0.957-0.154,1.441c-0.051,0.451-0.121,0.906-0.146,1.365
					c-0.043,0.641-0.025,1.273-0.012,1.928c0.006,0.301-0.02,0.598-0.006,0.896c0.02,0.514,0.096,1.016,0.145,1.537
					c0.039,0.188,0.082,0.385,0.131,0.578c-0.01,0.201-0.006,0.41,0,0.606c0.012,0.078,0.012,0.16,0.021,0.236
					c0.547,3.549,1.867,7.051,3.824,10.157c1.688,2.681,3.896,5.084,6.402,7.047c2.529-1.049,5.398-1.385,8.084-0.967
					c0.045-0.686,0.115-1.371,0.254-2.035c0.482-2.407,1.635-4.743,3.242-6.565c1.447-1.649,3.27-2.935,5.26-3.701
					c0.074-0.03,0.158,0.007,0.189,0.076c0.043,0.078,0.025,0.16-0.039,0.211c-3.492,2.5-5.961,6.277-6.766,10.359
					c-0.842,4.1-0.045,8.538,2.186,12.178c0.041,0.067,0.023,0.158-0.039,0.209c-0.023,0.024-0.059,0.037-0.096,0.037
					c-0.047,0-0.08-0.019-0.113-0.052c-1.539-1.479-2.713-3.364-3.404-5.45c-0.51-1.563-0.721-3.207-0.674-4.847
					c-0.02-0.006-0.025,0-0.047,0l0.047-0.051c0,0-0.623-0.012-1.602,0.07c-0.818,0.045-1.625,0.164-2.412,0.342
					c-4.656,0.891-11.68,3.738-11.654,12.781c-0.047,1.09,0.029,2.184,0.252,3.248c0.031,0.143,0.072,0.312,0.129,0.521
					c0.053,0.215,0.129,0.414,0.205,0.598l41.451,1.484c-0.199-0.994-0.332-2.013-0.332-3.06c0-8.69,7.051-15.746,15.738-15.746
					c5.463,0,10.272,2.789,13.09,7.011c3.282-8.279,11.341-14.152,20.777-14.152c1.328,0,2.623,0.137,3.888,0.356
					c0.285-0.098,0.586-0.18,0.883-0.272C159.859,159.124,155.781,158.163,151.48,158.163z M159.469,134.268l0.598-0.267
					c-0.315,0.151-0.608,0.326-0.914,0.49L159.469,134.268z M83.311,154.725c-6.004-2.246-10.283-8.023-10.283-14.824
					c0-8.742,7.088-15.834,15.834-15.834c4.949,0,9.371,2.275,12.268,5.83c-4.27,4.792-7.188,10.812-8.207,17.445
					C89.139,148.991,85.848,151.542,83.311,154.725z M94.707,155.314c-0.043-0.02-0.094-0.02-0.137-0.024
					c0.094-0.072,0.195-0.129,0.285-0.199C94.809,155.167,94.758,155.239,94.707,155.314z M95.836,172.023
					c-2.977-5.287-2.531-11.662,2.623-16.684c1.682-1.641,3.732-2.279,5.766-2.096c1.723,2.99,4.152,5.455,7.021,7.49
					C104.4,161.646,98.674,166.007,95.836,172.023z"/>
				<path fill="#ADD3F0" d="M201.76,167.468c6.035,2.041,11.172,6.035,14.658,11.229c-0.184-0.971-0.279-1.975-0.279-3.008
					c0-9.043,7.332-16.375,16.381-16.375c9.039,0,16.377,7.332,16.377,16.375c0,3.692-1.244,7.078-3.293,9.812
					c0.705-0.024,1.416-0.041,2.121-0.065c0.437-0.021,0.875-0.035,1.318-0.047l0.521-0.021c0.246-0.013,0.553-0.052,0.844-0.031
					l1.518-0.058l0.451-1.077c0.127-0.339,0.279-0.736,0.404-1.146c0-0.006,0-0.012,0-0.012c0.045-0.311,0.174-0.623,0.27-0.939
					c0.043-0.133,0.074-0.268,0.113-0.407c0.062-0.253,0.113-0.513,0.17-0.779c0.039-0.203,0.09-0.418,0.121-0.629
					c0.051-0.261,0.078-0.531,0.107-0.808c0.026-0.209,0.065-0.42,0.084-0.635c0.024-0.279,0.039-0.547,0.045-0.824
					c0.012-0.203,0.031-0.412,0.031-0.616c0.006-0.291,0-0.578-0.007-0.863c-0.006-0.194,0-0.396-0.014-0.599
					c-0.013-0.282-0.043-0.584-0.068-0.868c-0.024-0.188-0.041-0.386-0.057-0.584c-0.041-0.304-0.099-0.613-0.144-0.921
					c-0.043-0.163-0.062-0.338-0.094-0.502c-0.09-0.475-0.209-0.95-0.336-1.416c-1.238-4.448-4.158-8.479-8.012-11.063
					c-0.527-0.36-1.062-0.687-1.615-0.983c-0.145-0.078-0.283-0.142-0.424-0.211c-0.432-0.222-0.863-0.431-1.301-0.613
					c-0.133-0.066-0.279-0.123-0.428-0.174c-0.558-0.228-1.115-0.43-1.688-0.604c-0.906-0.271-1.826-0.476-2.763-0.612
					c-1.905-0.287-3.854-0.435-5.771-0.205c-0.896,0.106-1.774,0.28-2.647,0.502c-0.885,0.229-1.758,0.516-2.607,0.862
					c-1.701,0.681-3.312,1.58-4.766,2.693c-0.076,0.051-0.168,0.043-0.226-0.025c-0.062-0.063-0.051-0.168,0.021-0.219
					c3.078-2.76,7.065-4.531,11.256-5.024c-0.527-2.427-1.592-4.675-3.115-6.556c-1.811-2.233-4.285-3.959-6.979-4.86
					c-1.535-0.515-3.146-0.779-4.787-0.779c-1.262,0-2.514,0.158-3.721,0.461c-2.373,0.598-4.603,1.773-6.494,3.416
					c0.145,0.301,0.287,0.604,0.42,0.908c1.293,2.977,2.076,6.248,2.26,9.449c0,0.082-0.057,0.157-0.139,0.17
					c-0.011,0-0.011-0.006-0.015-0.006c0,0-0.006,0.006-0.012,0.006c-0.072,0-0.144-0.052-0.154-0.129
					c-1.467-6.468-4.823-12.568-9.452-17.189c-0.535-0.535-1.093-1.057-1.656-1.549c-0.312-0.275-0.635-0.527-0.959-0.787
					c-0.242-0.211-0.488-0.408-0.736-0.598c-0.445-0.351-0.906-0.687-1.371-1.013c-0.107-0.067-0.215-0.146-0.332-0.221
					c-0.559-0.373-1.121-0.748-1.699-1.084l0,0c6.494,5.016,10.697,12.858,10.697,21.709c0,3.594-0.699,7.022-1.963,10.164
					C201.816,167.479,201.791,167.475,201.76,167.468z M216.48,145.126c5.682,0,10.297,4.551,10.414,10.215
					c-0.787,0.158-1.59,0.252-2.422,0.252c-5.814,0-10.625-4.276-11.47-9.858C214.088,145.348,215.264,145.126,216.48,145.126z"/>
			</g>
			<path fill="#231F20" d="M256.77,170.604c-1.492-5.373-5.041-10.164-9.721-13.148c-3.721-2.414-8.348-3.729-12.779-3.631
				c-0.354-2.266-1.219-4.49-2.481-6.381c-0.699-1.068-1.55-2.058-2.521-2.959c1.453-4.082,1.805-8.615,0.978-12.869
				c-1.063-5.693-4.312-11.064-8.894-14.736c-4.344-3.527-10.031-5.547-15.613-5.547c-0.239,0-0.485,0-0.688,0.014
				c-4.19,0.088-8.405,1.32-12.006,3.484c-1.183-1.365-2.51-2.559-3.94-3.555c-0.937-0.66-1.943-1.252-3.019-1.773
				c-0.142-0.074-0.285-0.139-0.476-0.209c-0.389-0.176-0.771-0.344-1.297-0.545l-0.338-0.121c-2.328-0.832-4.664-1.27-6.959-1.299
				c-0.035-0.162-0.065-0.326-0.106-0.506c-0.15-0.818-0.316-1.662-0.558-2.486c-0.521-1.941-1.231-3.842-2.102-5.633
				c-1.822-3.795-4.459-7.301-7.6-10.124c-3.332-3.012-7.349-5.359-11.603-6.775c-4.446-1.498-9.246-2.025-13.963-1.549
				c-7.371,0.73-14.609,4.137-19.861,9.346c-4.377,4.291-7.512,9.838-8.92,15.764c-3.682-0.326-7.547,0.812-10.508,3.078
				c-1.928,1.453-3.525,3.369-4.602,5.562c-0.486,0.982-0.869,2.055-1.127,3.154c-4.441-0.9-9.178-0.736-13.557,0.465
				c-5.518,1.504-10.646,4.734-14.43,9.096c-3.016,3.461-5.199,7.613-6.324,12.006c-1.072,4.2-1.205,8.68-0.381,12.938
				c0.764,3.992,2.426,7.879,4.799,11.229c1.346,1.893,2.965,3.664,4.762,5.213c-2.025,1.283-3.758,3.026-5.004,5.047
				c-2.168,3.447-2.912,7.734-2.045,11.76c0.102,0.436,0.197,0.824,0.336,1.273c0.043,0.168,0.092,0.326,0.219,0.668l0.189,0.553
				h27.748v-0.02H110.9l-0.207-0.572h-0.611c-0.02-0.058-0.07-0.107-0.133-0.107l-41.912-1.504
				c-0.076-0.184-0.152-0.383-0.205-0.598c-0.057-0.209-0.098-0.379-0.129-0.521c-0.223-1.064-0.299-2.158-0.252-3.248
				c-0.025-9.043,6.998-11.891,11.654-12.781c0.787-0.178,1.594-0.297,2.412-0.342c0.979-0.082,1.602-0.07,1.602-0.07
				s-0.047,0.051,0,0.051c-0.047,1.64,0.164,3.281,0.674,4.847c0.691,2.086,1.865,3.974,3.404,5.451
				c0.033,0.032,0.066,0.051,0.113,0.051c0.037,0,0.072-0.013,0.096-0.037c0.062-0.051,0.08-0.142,0.039-0.209
				c-2.23-3.639-3.027-8.078-2.186-12.178c0.805-4.082,3.273-7.859,6.766-10.359c0.064-0.051,0.082-0.133,0.039-0.211
				c-0.031-0.069-0.115-0.106-0.189-0.075c-1.99,0.768-3.812,2.051-5.26,3.7c-1.607,1.822-2.76,4.158-3.242,6.566
				c-0.139,0.663-0.209,1.35-0.254,2.034c-2.686-0.418-5.555-0.082-8.084,0.968c-2.506-1.964-4.715-4.367-6.402-7.048
				c-1.957-3.106-3.277-6.608-3.824-10.157c-0.602-3.777-0.379-7.701,0.629-11.353c1.043-3.797,2.975-7.396,5.588-10.397
				c3.285-3.783,7.727-6.646,12.492-8.062c2.484-0.746,5.08-1.119,7.707-1.119c2.18,0,4.338,0.26,6.434,0.775
				c0.102,0.025,0.201,0.031,0.303,0.006c4.002,1.018,7.791,2.977,10.961,5.662c-0.295,0.268-0.59,0.529-0.859,0.812
				c-1.977,2.053-3.523,4.559-4.469,7.258c-0.844,2.403-1.211,4.989-1.07,7.465c0.004,0.078,0.068,0.147,0.152,0.153
				c0.086,0,0.15-0.065,0.162-0.133c0.812-5.071,3.16-9.842,6.613-13.421c3.41-3.582,8.07-6.135,13.121-7.168
				c0.076-0.025,0.135-0.096,0.129-0.172c-0.006-0.088-0.082-0.145-0.164-0.145c-2.455-0.047-5.047,0.436-7.406,1.381
				c-2.188,0.863-4.221,2.162-5.994,3.727c-3.037-2.99-6.807-5.236-10.904-6.498c-0.016-0.02-0.041-0.02-0.066-0.031
				c1.186-3.283,3.281-6.18,5.986-8.211c2.736-2.082,6.145-3.303,9.654-3.486c-0.352,2.178-0.461,4.406-0.338,6.631
				c0,0.076,0.074,0.145,0.156,0.145c0.086,0,0.158-0.068,0.158-0.16c0.031-2.184,0.287-4.361,0.752-6.461
				c0.076-0.057,0.129-0.154,0.148-0.256c1.346-5.979,4.566-11.581,9.068-15.764c4.855-4.551,11.143-7.414,17.723-8.062
				c1.041-0.113,2.103-0.164,3.146-0.164c3.153,0,6.258,0.477,9.233,1.422c3.793,1.201,7.418,3.195,10.474,5.771
				c2.918,2.449,5.428,5.512,7.241,8.836c0.884,1.615,1.632,3.309,2.216,5.041c0.26,0.73,0.459,1.498,0.661,2.234
				c0.187,0.693,0.386,1.396,0.621,2.084c-4.004,0.299-7.877,1.873-10.895,4.438c-0.062,0.057-0.074,0.15-0.031,0.217
				c0.053,0.066,0.146,0.088,0.215,0.041c3.226-2.035,7.062-3.172,10.793-3.197h0.279c2.414,0,4.807,0.457,7.055,1.301
				c0.615,0.25,1.22,0.516,1.816,0.801c0.496,0.246,0.982,0.52,1.479,0.799c0.361,0.215,0.726,0.451,1.078,0.691
				c3.404,2.377,6.033,5.836,7.418,9.748c1.181,3.33,1.457,7.066,0.824,10.605c-0.953-0.543-1.932-1.045-2.926-1.484
				c-2.984-1.303-6.256-2.08-9.453-2.279c-0.086,0-0.154,0.058-0.168,0.14c-0.006,0.075,0.039,0.157,0.127,0.174
				c6.463,1.485,12.559,4.854,17.168,9.498c4.629,4.621,7.986,10.723,9.453,17.188c0.012,0.078,0.082,0.129,0.18,0.129
				c0.082-0.012,0.14-0.088,0.14-0.17c-0.185-3.201-0.968-6.473-2.261-9.449c-0.133-0.305-0.274-0.606-0.42-0.907
				c1.894-1.644,4.121-2.818,6.494-3.416c1.207-0.304,2.459-0.461,3.721-0.461c1.644,0,3.252,0.266,4.787,0.778
				c2.693,0.902,5.168,2.627,6.979,4.861c1.522,1.881,2.588,4.129,3.115,6.555c-4.188,0.494-8.179,2.267-11.257,5.025
				c-0.069,0.051-0.082,0.154-0.02,0.219c0.057,0.068,0.148,0.076,0.225,0.025c2.896-2.211,6.41-3.613,10.021-4.059
				c1.918-0.229,3.865-0.082,5.771,0.205c1.836,0.271,3.631,0.807,5.322,1.573c1.008,0.449,1.979,0.996,2.895,1.625
				c3.854,2.584,6.773,6.615,8.012,11.063c1.027,3.646,0.971,7.64-0.174,11.232c-0.139,0.477-0.303,0.932-0.455,1.314l-0.451,1.078
				l-40.879,1.422c-0.068,0.006-0.113,0.057-0.139,0.113h-0.604l-0.204,0.572h41.944v0.02h2.979l0.844-1.777
				c0.189-0.457,0.404-1.01,0.578-1.545C257.895,179.79,258.002,174.995,256.77,170.604z M226.537,144.812
				c-1.217-0.889-2.57-1.604-3.992-2.076c-1.498-0.5-3.068-0.762-4.674-0.762c-1.662,0-3.354,0.287-4.867,0.834
				c-2.471,0.869-4.668,2.424-6.268,4.412c-1.396-2.812-3.283-5.455-5.529-7.715c-1.721-1.723-3.67-3.227-5.752-4.479
				c1.205-3.584,1.295-7.56,0.252-11.273c-0.588-2.102-1.561-4.115-2.836-5.93c3.496-1.943,7.516-3.008,11.457-3.008
				c0.256,0,0.504,0,0.762,0.012c5.01,0.133,9.918,1.936,13.805,5.086c3.916,3.148,6.729,7.547,7.935,12.393
				C227.846,136.378,227.732,140.779,226.537,144.812z"/>
		</g>
	</g>
</g>
</svg>
