<?xml version="1.0" encoding="utf-8"?>
<!-- Generator: Adobe Illustrator 15.0.2, SVG Export Plug-In . SVG Version: 6.00 Build 0)  -->
<!DOCTYPE svg PUBLIC "-//W3C//DTD SVG 1.1//EN" "http://www.w3.org/Graphics/SVG/1.1/DTD/svg11.dtd">
<svg version="1.1" id="Layer_1" xmlns="http://www.w3.org/2000/svg" xmlns:xlink="http://www.w3.org/1999/xlink" x="0px" y="0px"
	 width="280px" height="260px" viewBox="0 0 280 260" enable-background="new 0 0 280 260" xml:space="preserve">
<g>
	<g>
		<g>
			<g>
				<g>
					<g>
						<path fill="#3479BE" d="M34.7,146.584c34.459,1.498,74.74,2.365,117.776,2.365c43.049,0,83.325-0.867,117.78-2.365
							c-34.454-1.498-74.731-2.355-117.78-2.355C109.44,144.229,69.159,145.086,34.7,146.584z"/>
					</g>
				</g>
				<g>
					<g>
						<path fill="#3479BE" d="M32.221,139.623c35.408,1.496,76.793,2.359,121.021,2.359c44.23,0,85.615-0.863,121.021-2.359
							c-35.406-1.504-76.791-2.361-121.021-2.361C109.014,137.262,67.629,138.119,32.221,139.623z"/>
					</g>
				</g>
				<g>
					<g>
						<path fill="#3479BE" d="M36.061,132.656c35.328,1.498,76.623,2.359,120.748,2.359c44.139,0,85.436-0.861,120.762-2.359
							c-35.326-1.504-76.623-2.367-120.762-2.367C112.684,130.289,71.389,131.152,36.061,132.656z"/>
					</g>
				</g>
				<g>
					<g>
						<path fill="#3479BE" d="M20.604,125.693c37.797,1.494,81.967,2.359,129.177,2.359c47.21,0,91.386-0.865,129.179-2.359
							c-37.793-1.502-81.969-2.363-129.179-2.363C102.571,123.33,58.401,124.191,20.604,125.693z"/>
					</g>
				</g>
				<g>
					<g>
						<path fill="#3479BE" d="M10.614,118.721c39.109,1.506,84.816,2.367,133.666,2.367c48.857,0,94.562-0.861,133.668-2.367
							c-39.105-1.498-84.811-2.357-133.668-2.357C95.43,116.363,49.723,117.223,10.614,118.721z"/>
					</g>
				</g>
				<g>
					<g>
						<path fill="#3479BE" d="M10.381,111.762c37.959,1.492,82.34,2.359,129.76,2.359c47.421,0,91.796-0.867,129.757-2.359
							c-37.961-1.498-82.336-2.365-129.757-2.365C92.721,109.396,48.34,110.264,10.381,111.762z"/>
					</g>
				</g>
				<g>
					<g>
						<path fill="#3479BE" d="M4.979,104.795c39.283,1.501,85.209,2.361,134.281,2.361c49.075,0,94.999-0.859,134.28-2.361
							c-39.281-1.498-85.205-2.359-134.28-2.359C90.188,102.436,44.262,103.297,4.979,104.795z"/>
					</g>
				</g>
				<g>
					<g>
						<path fill="#3479BE" d="M2.25,97.829c38.232,1.498,82.916,2.359,130.666,2.359c47.76,0,92.436-0.861,130.67-2.359
							c-38.234-1.498-82.91-2.365-130.67-2.365C85.167,95.463,40.483,96.331,2.25,97.829z"/>
					</g>
				</g>
				<g>
					<g>
						<path fill="#3479BE" d="M26.481,90.862c35.479,1.504,76.943,2.367,121.255,2.367c44.322,0,85.783-0.863,121.261-2.367
							c-35.478-1.498-76.938-2.354-121.261-2.354C103.424,88.508,61.959,89.364,26.481,90.862z"/>
					</g>
				</g>
				<g>
					<g>
						<path fill="#3479BE" d="M27.116,83.903c34.188,1.496,74.156,2.357,116.864,2.357c42.713,0,82.678-0.861,116.867-2.357
							c-34.189-1.506-74.154-2.363-116.867-2.363C101.272,81.54,61.303,82.397,27.116,83.903z"/>
					</g>
				</g>
				<g>
					<g>
						<path fill="#3479BE" d="M7.297,76.934c35.391,1.498,76.77,2.359,120.984,2.359c44.221,0,85.594-0.861,120.998-2.359
							c-35.403-1.498-76.776-2.359-120.998-2.359C84.067,74.575,42.688,75.436,7.297,76.934z"/>
					</g>
				</g>
				<g>
					<g>
						<path fill="#3479BE" d="M26.25,69.973c30.236,1.496,65.559,2.355,103.316,2.355c37.756,0,73.094-0.859,103.325-2.355
							c-30.229-1.502-65.567-2.365-103.325-2.365C91.809,67.608,56.487,68.471,26.25,69.973z"/>
					</g>
				</g>
				<g>
					<g>
						<path fill="#3479BE" d="M29.565,63c28.717,1.504,62.279,2.367,98.15,2.367c35.875,0,69.438-0.863,98.155-2.367
							c-28.718-1.5-62.279-2.359-98.155-2.359C91.844,60.641,58.282,61.5,29.565,63z"/>
					</g>
				</g>
				<g>
					<g>
						<path fill="#3479BE" d="M26.801,56.04c26.504,1.492,57.484,2.361,90.596,2.361c33.113,0,64.098-0.869,90.61-2.361
							c-26.512-1.498-57.497-2.359-90.61-2.359C84.286,53.68,53.305,54.542,26.801,56.04z"/>
					</g>
				</g>
				<g>
					<g>
						<path fill="#3479BE" d="M24.733,49.075c24.875,1.498,53.957,2.365,85.027,2.365c31.074,0,60.143-0.867,85.02-2.365
							c-24.877-1.5-53.945-2.357-85.02-2.357C78.69,46.717,49.608,47.575,24.733,49.075z"/>
					</g>
				</g>
				<g>
					<g>
						<path fill="#3479BE" d="M33.45,42.112c23.6,1.498,51.189,2.355,80.666,2.355c29.489,0,57.075-0.857,80.676-2.355
							c-23.603-1.504-51.187-2.361-80.676-2.361C84.639,39.75,57.049,40.608,33.45,42.112z"/>
					</g>
				</g>
				<g>
					<g>
						<path fill="#3479BE" d="M48.206,35.145c21.252,1.498,46.092,2.365,72.646,2.365c26.548,0,51.387-0.867,72.639-2.365
							c-21.253-1.498-46.091-2.359-72.639-2.359C94.297,32.786,69.458,33.647,48.206,35.145z"/>
					</g>
				</g>
				<g>
					<g>
						<path fill="#3479BE" d="M62.547,28.18c15.426,1.502,33.443,2.363,52.703,2.363c19.266,0,37.289-0.861,52.715-2.363
							c-15.427-1.504-33.45-2.361-52.715-2.361C95.991,25.819,77.973,26.676,62.547,28.18z"/>
					</g>
				</g>
				<g>
					<g>
						<path fill="#3479BE" d="M56.368,21.211c13.678,1.498,29.664,2.367,46.744,2.367c17.086,0,33.074-0.869,46.75-2.367
							c-13.674-1.492-29.663-2.359-46.75-2.359C86.032,18.852,70.045,19.719,56.368,21.211z"/>
					</g>
				</g>
				<g>
					<g>
						<path fill="#3479BE" d="M64.184,14.25c10.354,1.5,22.449,2.361,35.385,2.361c12.93,0,25.031-0.861,35.381-2.361
							c-10.35-1.496-22.451-2.359-35.381-2.359C86.633,11.891,74.538,12.754,64.184,14.25z"/>
					</g>
				</g>
			</g>
			<g>
				<path fill="#FFEECE" d="M106.963,53.87c-0.396-3.461-1.141-6.885-2.168-10.217C94.512,10.235,58.942,5.088,58.948,5.096
					c0.113,0.098,11.639,10.207,16.844,24.752c3.943,10.643,3.008,23.172-2.904,32.926c-1.457,2.402-3.275,4.76-5.258,6.754
					c-3.949,3.953-7.936,7.008-13.205,8.998c-5.285,1.988-10.908,2.941-16.551,3.004c-4.672,0.041-9.238-0.939-13.549-2.732
					c-6.766-2.789-13.154-7.082-18.49-12.082c-1.367-1.273-2.615-2.641-3.805-4.088l0.053,0.123l-0.275-0.34
					c0,0,4.133,26.436,27.066,40.324c8.15,4.937,17.615,7.882,27.191,7.882c17.184,0,33.117-8.521,42.639-22.8
					c5.402-8.107,8.422-17.668,8.59-27.404C107.333,58.225,107.213,56.04,106.963,53.87z"/>
				<path fill="#FFD88C" d="M15.854,79.084c19.873,13.232,46.709,7.861,59.953-12.006c10.537-15.836,9.24-36.062-1.762-50.342
					c2.668,1.123,5.256,2.479,7.738,4.137c21.303,14.189,27.066,42.949,12.875,64.242c-14.191,21.291-42.947,27.05-64.244,12.865
					c-7.93-5.283-13.699-12.588-17.092-20.777C14.151,77.842,14.977,78.493,15.854,79.084z"/>
			</g>
		</g>
		<g>
			<g>
				<polygon fill="#FFEECE" points="265.436,107.904 264.354,107.072 264.579,107.609 				"/>
			</g>
		</g>
		<g>
			<path fill="#FFFFFF" d="M144.191,117.404c-1.027-3.693-3.463-6.99-6.688-9.053c-2.82-1.828-6.348-2.718-9.725-2.445
				c-0.125-1.83-0.748-3.656-1.773-5.189c-0.594-0.9-1.336-1.719-2.213-2.436c1.217-2.973,1.549-6.352,0.928-9.543
				c-0.736-3.943-2.979-7.658-6.148-10.195c-2.998-2.436-6.938-3.836-10.793-3.836c-0.164,0-0.328,0.004-0.484,0.01
				c-3.209,0.064-6.396,1.09-9.043,2.889c-0.945-1.227-2.047-2.281-3.273-3.131c-0.631-0.447-1.322-0.852-2.111-1.24
				c-0.062-0.027-0.119-0.051-0.182-0.072l-0.102-0.047c-0.268-0.117-0.527-0.23-0.797-0.336c-0.109-0.039-0.213-0.076-0.316-0.113
				c-1.824-0.658-3.725-0.971-5.576-0.881c-0.088-0.352-0.174-0.74-0.262-1.189c-0.113-0.584-0.232-1.184-0.402-1.785
				c-0.365-1.35-0.857-2.678-1.475-3.953c-1.277-2.652-3.121-5.109-5.33-7.1c-2.34-2.109-5.152-3.758-8.148-4.754
				c-3.115-1.049-6.479-1.422-9.799-1.082c-5.17,0.51-10.254,2.898-13.934,6.559c-3.307,3.24-5.592,7.482-6.463,11.982
				c-0.568-0.117-1.129-0.174-1.695-0.174c-2.232,0-4.432,0.746-6.188,2.094c-1.289,0.965-2.352,2.246-3.07,3.707
				c-0.477,0.957-0.787,2.021-0.926,3.109c-3.43-0.883-7.096-0.848-10.49,0.086c-3.855,1.049-7.434,3.305-10.08,6.348
				c-2.098,2.414-3.625,5.314-4.406,8.379c-0.754,2.934-0.846,6.061-0.266,9.033c0.531,2.787,1.688,5.494,3.348,7.828
				c1.234,1.738,2.787,3.312,4.508,4.582c-1.916,0.869-3.562,2.311-4.658,4.096c-1.447,2.301-1.939,5.162-1.363,7.842
				c0.062,0.293,0.131,0.557,0.207,0.807l0.025,0.084c0.029,0.098,0.057,0.193,0.137,0.42l0.139,0.396
				c0.02,0.045,0.082,0.182,0.256,0.277l0.096,0.055h17.209H38.25h72.729h1.352h30.452l0.572-1.168l0.223-0.518
				c0.125-0.312,0.27-0.686,0.395-1.07C144.965,123.719,145.041,120.422,144.191,117.404z"/>
			<g>
				<path fill="#ADD3F0" d="M4.316,101.579c0.037,0.357,0.066,0.713,0.119,1.07c-0.041-0.307-0.057-0.611-0.088-0.918
					C4.339,101.68,4.326,101.629,4.316,101.579z"/>
				<path fill="#ADD3F0" d="M100.24,91.045c1.523,0.916,2.955,2.02,4.215,3.283c1.648,1.65,3.035,3.592,4.049,5.656
					c1.18-1.463,2.791-2.604,4.598-3.238c1.115-0.396,2.354-0.609,3.57-0.609c1.178,0,2.334,0.191,3.428,0.559
					c1.041,0.346,2.029,0.873,2.922,1.523c0.572-1.914,0.785-3.936,0.674-5.934c-0.033-0.053-0.07-0.104-0.113-0.146
					c0.029-0.279,0.043-0.559,0.057-0.838c-0.084-0.76-0.221-1.512-0.402-2.252c-0.877-3.555-2.945-6.779-5.816-9.084
					c-2.844-2.307-6.443-3.631-10.119-3.73c-0.186-0.006-0.367-0.008-0.557-0.008c-2.889,0-5.84,0.783-8.4,2.203
					c0.928,1.334,1.648,2.809,2.078,4.35C101.189,85.499,101.119,88.415,100.24,91.045z M107.398,78.112
					c6.465,0,11.703,5.24,11.703,11.703c0,1.436-0.273,2.809-0.746,4.078c-8.211-0.268-14.83-6.777-15.271-14.947
					C104.421,78.413,105.873,78.112,107.398,78.112z"/>
				<path fill="#ADD3F0" d="M77.443,75.682c0.27-0.172,0.566-0.305,0.85-0.459c-0.031,0.012-0.062,0.018-0.094,0.029
					C77.947,75.393,77.687,75.526,77.443,75.682z"/>
				<path fill="#ADD3F0" d="M99.369,83.114c-1.008-2.865-2.939-5.404-5.438-7.143c-0.256-0.182-0.523-0.346-0.787-0.51
					c-0.359-0.203-0.727-0.404-1.088-0.584c-0.432-0.215-0.879-0.404-1.328-0.588c-1.646-0.621-3.408-0.957-5.172-0.957
					l-0.201,0.002c-2.424,0.02-4.883,0.705-7.062,1.889c1.408-0.51,2.916-0.807,4.492-0.807c7.291,0,13.201,5.904,13.201,13.195
					c0,0.498-0.045,0.984-0.107,1.467c0.664,0.215,1.32,0.447,1.951,0.725c0.734,0.316,1.447,0.686,2.15,1.094
					C100.445,88.299,100.24,85.555,99.369,83.114z"/>
				<path fill="#ADD3F0" d="M144.504,119.986c0-0.617-0.188-1.156-0.312-1.756c-0.045-0.232-0.092-0.471-0.151-0.709
					c-0.106-0.438-0.228-0.877-0.401-1.271c-0.166-0.365-0.396-0.705-0.55-1.072c-0.42-0.988-0.85-1.822-1.512-2.668
					c-0.708-0.904-1.401-1.756-2.368-2.385c-0.41-0.266-0.877-0.391-1.297-0.635c-0.479-0.271-0.934-0.525-1.424-0.781
					c-0.58-0.301-1.164-0.572-1.76-0.832c-1.664-0.723-3.557-1.205-5.363-1.354c-0.566-0.047-1.15-0.021-1.699-0.191
					c-0.234-0.072-0.588-0.205-0.732-0.425c-0.131-0.211-0.16-0.578-0.242-0.82c-0.436-1.266-1.082-2.449-1.92-3.484
					c-1.324-1.643-3.137-2.912-5.119-3.568c-1.123-0.381-2.301-0.57-3.51-0.57c-0.924,0-1.838,0.113-2.727,0.338
					c-1.74,0.432-3.373,1.297-4.758,2.498c0.107,0.223,0.209,0.443,0.305,0.668c0.949,2.186,1.521,4.582,1.654,6.925
					c0.006,0.062-0.039,0.117-0.113,0.125c-0.057,0-0.107-0.033-0.113-0.09c-1.076-4.74-3.533-9.218-6.932-12.603
					c-0.387-0.391-0.793-0.764-1.211-1.133c-0.234-0.203-0.479-0.396-0.715-0.594c-0.17-0.143-0.344-0.283-0.516-0.42
					c-0.34-0.26-0.689-0.51-1.037-0.752c-0.074-0.049-0.143-0.104-0.219-0.15c-0.41-0.281-0.83-0.547-1.254-0.805
					c4.758,3.678,7.84,9.436,7.84,15.923c0,1.91-0.279,3.75-0.777,5.498c4.416,0.189,8.475,1.709,11.799,4.18
					c2.516-3.914,6.893-6.514,11.895-6.514c7.822,0,14.159,6.338,14.159,14.156c0,1.652-0.295,3.229-0.815,4.701
					c0.08-0.051,0.147-0.123,0.217-0.268c0.148-0.303,0.336-0.627,0.436-0.949c0.096-0.328,0.125-0.646,0.283-0.957
					c0.096-0.18,0.311-0.332,0.379-0.496c0.096-0.227-0.062-0.152-0.107-0.389c-0.057-0.271,0.15-0.844,0.22-1.109
					c0.133-0.537,0.33-1.008,0.409-1.553c0.08-0.504,0.019-1.041,0.033-1.551C144.51,121.426,144.504,120.705,144.504,119.986z
					 M121.951,106.172c-4.26,0-7.787-3.132-8.41-7.222c0.801-0.283,1.658-0.447,2.559-0.447c4.16,0,7.545,3.336,7.625,7.482
					C123.154,106.11,122.562,106.172,121.951,106.172z"/>
				<path fill="#ADD3F0" d="M68.064,107.467c-5.817-0.703-11.94-0.234-17.534-1.832c-1.847-0.527-3.102-1.871-4.772-2.545
					c-0.02-0.008-0.033-0.021-0.057-0.033c-3.092-2.527-5.062-6.363-5.062-10.666c0-4.508,2.174-8.496,5.521-11.006
					c0.264-0.072,0.471-0.146,0.539-0.227c-3.66,0.773-7.035,2.629-9.51,5.234c-2.535,2.629-4.254,6.117-4.85,9.836
					c-0.012,0.057-0.059,0.1-0.119,0.1c-0.064-0.006-0.113-0.051-0.115-0.111c-0.105-1.814,0.166-3.709,0.783-5.475
					c0.697-1.977,1.83-3.816,3.275-5.324c0.203-0.209,0.422-0.396,0.633-0.592c-2.324-1.973-5.102-3.406-8.037-4.148
					c-0.072,0.014-0.146,0.012-0.221-0.006c-0.254-0.006-0.547-0.107-0.809-0.176c-0.434-0.084-0.865-0.158-1.301-0.219
					c-0.258-0.027-0.502-0.025-0.756-0.029c-0.113,0-0.221-0.037-0.322-0.08c-0.508-0.039-1.016-0.064-1.529-0.064
					c-1.926,0-3.824,0.273-5.654,0.818c-3.488,1.039-6.746,3.137-9.158,5.912c-1.914,2.203-3.33,4.838-4.09,7.621
					c-0.65,2.342-0.82,4.834-0.572,7.275c0.031,0.143,0.057,0.289,0.088,0.432c-0.006,0.16,0,0.322,0,0.486
					c0.01,0.043,0.01,0.086,0.02,0.127c0.402,2.6,1.371,5.173,2.805,7.445c1.234,1.967,2.859,3.732,4.695,5.17
					c1.852-0.762,3.959-1.012,5.93-0.705c0.023-0.506,0.08-1.004,0.182-1.496c0.354-1.768,1.201-3.473,2.379-4.809
					c1.062-1.219,2.396-2.152,3.852-2.712c0.062-0.023,0.119,0.002,0.148,0.053c0.027,0.055,0.01,0.117-0.035,0.15
					c-2.561,1.837-4.367,4.605-4.961,7.595c-0.621,3.01-0.035,6.264,1.602,8.932c0.029,0.051,0.021,0.117-0.027,0.154
					c-0.02,0.016-0.045,0.021-0.07,0.021c-0.031,0-0.061-0.008-0.082-0.031c-1.127-1.084-1.988-2.473-2.492-4.002
					c-0.375-1.143-0.533-2.348-0.494-3.551c-0.016,0-0.027,0-0.039,0l0.039-0.039c0,0-0.459-0.006-1.174,0.057
					c-0.598,0.033-1.193,0.119-1.777,0.248c-3.408,0.654-8.557,2.742-8.541,9.369c-0.033,0.799,0.023,1.604,0.188,2.385
					c0.023,0.102,0.051,0.232,0.094,0.379c0.043,0.158,0.096,0.307,0.156,0.439l30.385,1.09c-0.15-0.727-0.248-1.473-0.248-2.242
					c0-6.375,5.17-11.541,11.539-11.541c4.008,0,7.527,2.043,9.6,5.137c-1.267-1.891,5.916-7.5,7.164-8.209
					c3.957-2.25,7.349-1.045,11.448-2.119C73.991,108.508,71.068,107.83,68.064,107.467z M73.851,90.485l0.441-0.191
					c-0.227,0.109-0.447,0.234-0.67,0.354L73.851,90.485z M26.375,105.917c-0.029-0.01-0.064-0.014-0.102-0.021
					c0.068-0.045,0.143-0.092,0.211-0.139C26.449,105.809,26.41,105.86,26.375,105.917z M24.589,99.573
					c-2.605,1.133-4.869,2.889-6.619,5.082c-4.133-1.553-7.078-5.529-7.078-10.201c0-6.021,4.881-10.904,10.898-10.904
					c3.412,0,6.453,1.564,8.453,4.016C27.292,90.86,25.294,95.002,24.589,99.573z"/>
				<path fill="#ADD3F0" d="M85.292,72.239c-0.172-0.504-0.322-1.021-0.459-1.529c-0.145-0.543-0.293-1.102-0.484-1.643
					c-0.428-1.27-0.973-2.51-1.619-3.693c-1.34-2.441-3.17-4.678-5.311-6.475c-2.242-1.891-4.898-3.352-7.684-4.236
					c-2.18-0.691-4.453-1.039-6.771-1.039c-0.766,0-1.539,0.037-2.301,0.117c-4.824,0.479-9.438,2.576-12.988,5.916
					c-3.303,3.066-5.664,7.168-6.652,11.557c-0.014,0.08-0.057,0.143-0.107,0.188c-0.344,1.541-0.529,3.135-0.553,4.734
					c0,0.062-0.055,0.113-0.115,0.117c-0.062,0-0.117-0.049-0.119-0.111c-0.092-1.625-0.006-3.256,0.252-4.854
					c-2.572,0.129-5.072,1.027-7.084,2.555c-1.977,1.488-3.518,3.619-4.383,6.014c0.014,0.012,0.033,0.018,0.051,0.029
					c3.002,0.924,5.766,2.574,7.988,4.77c0.477-0.408,0.982-0.793,1.504-1.156c-0.5,0.137-1.006,0.307-1.49,0.527
					c-0.826-1.404-2.055-2.373-3.482-3.037c0.666-0.6,1.461-1.115,2.082-1.75c0.365-0.381,0.789-0.701,1.242-0.957
					c0.621,1.643,1.775,3.141,3.141,4.297c0.451-0.244,0.926-0.471,1.402-0.66c1.729-0.691,3.625-1.047,5.432-1.018
					c0.012,0,0.02,0.01,0.029,0.01c0.021-0.012,0.045-0.023,0.062-0.039c-0.125-0.387-0.326-1.438-0.33-1.484
					c-0.078-0.381-0.146-0.766-0.197-1.152c-0.105-0.789-0.158-1.584-0.158-2.377c0-9.906,8.027-17.932,17.936-17.932
					c8.918,0,16.291,6.508,17.68,15.031C82.931,72.575,84.103,72.323,85.292,72.239z"/>
			</g>
			<path fill="#231F20" d="M145.469,117.047c-1.113-4.004-3.752-7.582-7.239-9.811c-2.699-1.748-5.982-2.707-9.283-2.707
				c-0.295-1.615-0.93-3.195-1.83-4.549c-0.502-0.754-1.088-1.449-1.756-2.088c1.033-2.984,1.268-6.289,0.666-9.402
				c-0.797-4.244-3.209-8.248-6.613-10.979c-3.236-2.625-7.477-4.135-11.635-4.135l-0.512,0.012c-3.039,0.062-6.1,0.934-8.736,2.471
				c-0.84-0.939-1.773-1.77-2.787-2.471c-0.697-0.494-1.445-0.932-2.322-1.359c-0.1-0.047-0.193-0.086-0.295-0.125
				c-0.283-0.127-0.566-0.25-0.879-0.375l-0.328-0.113c-1.654-0.594-3.318-0.922-4.961-0.967c-0.006-0.035-0.018-0.068-0.023-0.105
				c-0.119-0.621-0.242-1.26-0.424-1.877c-0.385-1.445-0.912-2.855-1.559-4.188c-1.35-2.809-3.301-5.402-5.635-7.508
				c-2.477-2.234-5.455-3.973-8.615-5.031c-3.303-1.111-6.861-1.502-10.354-1.143c-5.475,0.541-10.848,3.07-14.736,6.934
				c-3.191,3.123-5.49,7.15-6.561,11.453c-2.719-0.174-5.5,0.686-7.652,2.336c-1.453,1.088-2.65,2.537-3.461,4.18
				c-0.326,0.658-0.59,1.369-0.781,2.105c-3.229-0.604-6.643-0.471-9.793,0.398c-4.109,1.115-7.92,3.518-10.734,6.758
				c-2.232,2.568-3.857,5.652-4.693,8.918c-0.801,3.129-0.9,6.457-0.279,9.615c0.562,2.97,1.795,5.855,3.564,8.347
				c0.924,1.303,2.025,2.529,3.244,3.617c-0.113-0.105-1.787,1.48-1.941,1.639c-1.846,1.922-3.254,4.635-2.908,7.367
				c0.148,1.164,0.498,2.371,0.924,3.461c0.113,0.283,0.385,0.922,0.699,1.197l0.062,0.176c0.02,0.045,0.082,0.182,0.256,0.277
				l0.096,0.055h32.594l-0.152-0.42H37.65c-0.014-0.043-0.055-0.08-0.1-0.082l-30.72-1.1c-0.061-0.133-0.113-0.281-0.156-0.439
				c-0.043-0.146-0.07-0.277-0.094-0.379c-0.164-0.781-0.221-1.586-0.188-2.385c-0.016-6.627,5.133-8.715,8.541-9.369
				c0.584-0.129,1.18-0.215,1.777-0.248c0.715-0.062,1.174-0.057,1.174-0.057l-0.039,0.039c0.012,0,0.023,0,0.039,0
				c-0.039,1.203,0.119,2.408,0.494,3.551c0.504,1.529,1.365,2.918,2.492,4.002c0.021,0.023,0.051,0.031,0.082,0.031
				c0.025,0,0.051-0.006,0.07-0.021c0.049-0.037,0.057-0.104,0.027-0.154c-1.637-2.668-2.223-5.922-1.602-8.932
				c0.594-2.99,2.4-5.758,4.961-7.595c0.045-0.033,0.062-0.096,0.035-0.15c-0.029-0.051-0.086-0.076-0.148-0.053
				c-1.455,0.56-2.789,1.494-3.852,2.712c-1.178,1.336-2.025,3.041-2.379,4.809c-0.102,0.492-0.158,0.99-0.182,1.496
				c-1.971-0.307-4.078-0.057-5.93,0.705c-1.836-1.438-3.461-3.203-4.695-5.17c-1.434-2.271-2.402-4.845-2.805-7.445
				c-0.441-2.764-0.277-5.641,0.465-8.32c0.76-2.783,2.176-5.418,4.09-7.621c2.412-2.775,5.67-4.873,9.158-5.912
				c1.83-0.545,3.729-0.818,5.654-0.818c1.602,0,3.182,0.189,4.711,0.562l0,0l0.006,0.006c0.074,0.018,0.148,0.02,0.221,0.006
				c2.936,0.742,5.713,2.176,8.037,4.148c-0.211,0.195-0.43,0.383-0.633,0.592c-1.445,1.508-2.578,3.348-3.275,5.324
				c-0.617,1.766-0.889,3.66-0.783,5.475c0.002,0.061,0.051,0.105,0.109,0.111c0.004,0,0.004,0,0.006,0
				c0.061,0,0.107-0.043,0.119-0.1c0.596-3.719,2.314-7.207,4.85-9.836c2.496-2.631,5.912-4.498,9.617-5.262
				c0.057-0.012,0.1-0.064,0.09-0.125c-0.006-0.059-0.051-0.105-0.113-0.105c-1.807-0.029-3.703,0.326-5.432,1.018
				c-1.609,0.635-3.098,1.586-4.393,2.752c-0.002-0.004-0.002-0.01-0.006-0.016c-2.223-2.195-4.986-3.846-7.988-4.77
				c-0.018-0.012-0.037-0.018-0.051-0.029c0.865-2.395,2.406-4.525,4.383-6.014c2.012-1.527,4.512-2.426,7.084-2.555
				c-0.258,1.598-0.344,3.229-0.252,4.854c0.002,0.062,0.057,0.111,0.119,0.111l0,0c0.061-0.004,0.115-0.055,0.115-0.117
				c0.023-1.6,0.209-3.193,0.553-4.734c0.051-0.045,0.094-0.107,0.107-0.188c0.988-4.389,3.35-8.49,6.652-11.557
				c3.551-3.34,8.164-5.438,12.988-5.916c0.762-0.08,1.535-0.117,2.301-0.117c2.318,0,4.592,0.348,6.771,1.039
				c2.785,0.885,5.441,2.346,7.684,4.236c2.141,1.797,3.971,4.033,5.311,6.475c0.646,1.184,1.191,2.424,1.619,3.693
				c0.191,0.541,0.34,1.1,0.484,1.643c0.137,0.51,0.287,1.025,0.459,1.529c-2.939,0.215-5.777,1.371-7.992,3.254
				c-0.045,0.039-0.053,0.111-0.016,0.158c0.039,0.049,0.104,0.066,0.158,0.031c2.361-1.494,5.176-2.328,7.912-2.348l0.201-0.002
				c1.764,0,3.525,0.336,5.172,0.957c0.449,0.184,0.896,0.373,1.328,0.588c0.361,0.18,0.729,0.381,1.088,0.584
				c0.264,0.164,0.531,0.328,0.787,0.51c2.498,1.738,4.43,4.277,5.438,7.143c0.871,2.441,1.076,5.186,0.611,7.783
				c-0.703-0.408-1.416-0.777-2.15-1.094c-2.186-0.951-4.578-1.529-6.93-1.672c-0.057,0-0.109,0.041-0.119,0.104
				c-0.006,0.059,0.029,0.113,0.092,0.129c4.734,1.086,9.207,3.557,12.586,6.961c3.398,3.385,5.855,7.863,6.932,12.603
				c0.006,0.057,0.057,0.09,0.113,0.09c0.006,0,0.012,0,0.014,0c0.061-0.008,0.105-0.062,0.1-0.125
				c-0.133-2.343-0.705-4.74-1.654-6.925c-0.096-0.225-0.197-0.445-0.305-0.668c1.385-1.201,3.018-2.066,4.758-2.498
				c0.889-0.225,1.803-0.338,2.727-0.338c1.209,0,2.387,0.189,3.51,0.57c1.982,0.656,3.795,1.926,5.119,3.568
				c1.117,1.369,1.898,3.023,2.285,4.796c-3.072,0.361-5.994,1.664-8.254,3.684c-0.047,0.043-0.051,0.117-0.012,0.162
				c0,0,0.006,0,0.008,0.002c2.641-1.939,5.9-3.098,9.443-3.098c8.77,0,15.887,7.031,15.887,15.713c0,2.307-0.521,4.494-1.42,6.471
				l0.069,0.1l0.101-0.211h1.457l0.474-0.982c0.137-0.34,0.289-0.748,0.414-1.139C146.311,123.896,146.393,120.326,145.469,117.047z
				 M123.021,98.219c-0.893-0.65-1.881-1.178-2.922-1.523c-1.094-0.367-2.25-0.559-3.428-0.559c-1.217,0-2.455,0.213-3.57,0.609
				c-1.807,0.635-3.418,1.775-4.598,3.238c-1.014-2.064-2.4-4.006-4.049-5.656c-1.26-1.264-2.691-2.367-4.215-3.283
				c0.879-2.631,0.949-5.547,0.182-8.266c-0.43-1.541-1.15-3.016-2.078-4.35c2.561-1.42,5.512-2.203,8.4-2.203
				c0.189,0,0.371,0.002,0.557,0.008c3.676,0.1,7.275,1.424,10.119,3.73c2.871,2.305,4.939,5.529,5.816,9.084
				C123.984,92.038,123.9,95.262,123.021,98.219z"/>
		</g>
		<g>
			<g>
				<path fill="#FFFFFF" d="M190.695,117.998c0.216,0.107,0.437,0.209,0.652,0.322c0.006-0.039,0.006-0.082,0.01-0.121
					C191.139,118.129,190.923,118.061,190.695,117.998z"/>
			</g>
			<g>
				<path fill="#FFFFFF" d="M173.671,114.334c4.922,0,9.656,0.818,14.08,2.305c-4.026-1.619-8.422-2.523-13.026-2.523
					c-1.943,0-3.847,0.168-5.697,0.473C170.557,114.424,172.105,114.334,173.671,114.334z"/>
			</g>
			<path fill="#FFFFFF" d="M275.243,166.371c-1.771-6.402-6.004-12.123-11.601-15.697c-4.883-3.166-11-4.715-16.86-4.242
				c-0.216-3.174-1.291-6.342-3.064-8.994c-1.03-1.563-2.321-2.983-3.834-4.227c2.103-5.156,2.679-11.014,1.603-16.555
				c-1.273-6.826-5.17-13.271-10.67-17.671c-5.199-4.227-12.025-6.65-18.709-6.65c-0.283,0-0.562,0.006-0.838,0.012
				c-5.558,0.119-11.097,1.893-15.679,5.012c-1.647-2.129-3.553-3.953-5.676-5.428c-1.101-0.773-2.295-1.477-3.67-2.146
				c-0.103-0.049-0.205-0.094-0.308-0.133l-0.182-0.078c-0.459-0.205-0.916-0.404-1.381-0.582c-0.188-0.072-0.369-0.133-0.551-0.195
				c-3.166-1.139-6.451-1.689-9.668-1.529c-0.152-0.613-0.301-1.281-0.453-2.062c-0.197-1.012-0.402-2.053-0.697-3.092
				c-0.633-2.344-1.488-4.65-2.559-6.857c-2.209-4.602-5.41-8.861-9.238-12.311c-4.057-3.662-8.938-6.514-14.128-8.25
				c-5.408-1.818-11.242-2.463-16.992-1.871c-8.971,0.883-17.785,5.029-24.174,11.373c-5.732,5.619-9.691,12.971-11.191,20.775
				c-0.998-0.201-1.967-0.297-2.951-0.297c-3.863,0-7.682,1.291-10.729,3.627c-2.232,1.672-4.072,3.898-5.324,6.43
				c-0.82,1.66-1.371,3.508-1.604,5.393c-5.947-1.535-12.307-1.467-18.197,0.148c-6.684,1.818-12.887,5.73-17.469,11.009
				c-3.643,4.186-6.287,9.209-7.646,14.521c-1.309,5.092-1.467,10.508-0.465,15.67c0.93,4.827,2.934,9.522,5.807,13.573
				c2.141,3.015,4.83,5.74,7.828,7.947c-3.338,1.506-6.186,4.004-8.09,7.096c-2.508,3.996-3.363,8.955-2.361,13.601
				c0.113,0.51,0.232,0.969,0.363,1.399l0.045,0.147c0.045,0.169,0.096,0.339,0.238,0.729l0.236,0.687
				c0.035,0.076,0.143,0.311,0.443,0.479l0.164,0.093h29.844h26.678H217.65h2.34h52.807l0.984-2.021l0.385-0.896
				c0.227-0.543,0.488-1.19,0.697-1.856C276.593,177.318,276.723,171.609,275.243,166.371z"/>
			<g>
				<path fill="#ADD3F0" d="M239.714,122.814c-0.062-0.086-0.125-0.178-0.205-0.256c0.052-0.482,0.08-0.963,0.099-1.447
					c-0.029-0.275-0.08-0.545-0.113-0.816c-0.057-0.385-0.098-0.773-0.17-1.152c-0.113-0.652-0.256-1.297-0.414-1.939
					c-1.518-6.166-5.104-11.755-10.082-15.751c-4.939-4.002-11.17-6.303-17.547-6.469c-0.324-0.012-0.646-0.018-0.969-0.018
					c-5.008,0-10.127,1.363-14.568,3.826c1.619,2.309,2.855,4.871,3.602,7.541c1.332,4.711,1.213,9.77-0.315,14.334
					c2.649,1.582,5.131,3.504,7.312,5.691c2.855,2.863,5.262,6.227,7.029,9.805c2.045-2.531,4.832-4.513,7.963-5.615
					c1.932-0.688,4.078-1.051,6.197-1.051c2.039,0,4.039,0.322,5.941,0.963c1.807,0.604,3.518,1.517,5.067,2.646
					c0.237-0.775,0.426-1.568,0.59-2.361c0.022-0.139,0.052-0.277,0.08-0.414C239.68,127.859,239.843,125.328,239.714,122.814z
					 M231.552,125.242c-14.239-0.465-25.715-11.752-26.479-25.917c2.316-0.924,4.838-1.445,7.477-1.445
					c11.215,0,20.295,9.085,20.295,20.294C232.843,120.66,232.372,123.039,231.552,125.242z"/>
				<path fill="#ADD3F0" d="M32.788,139.566c-0.018-0.125-0.023-0.248-0.033-0.373c-0.006-0.006-0.006-0.014-0.006-0.021
					C32.76,139.303,32.77,139.438,32.788,139.566z"/>
				<path fill="#ADD3F0" d="M191.659,114.707c0,0.867-0.084,1.711-0.183,2.549l0,0c1.146,0.365,2.277,0.773,3.377,1.252
					c1.269,0.549,2.508,1.189,3.728,1.893c0.812-4.504,0.446-9.262-1.054-13.492c-1.752-4.966-5.104-9.365-9.432-12.384
					c-0.447-0.312-0.906-0.604-1.371-0.883c-0.623-0.352-1.246-0.705-1.881-1.012c-0.752-0.371-1.523-0.703-2.305-1.02
					c-2.859-1.076-5.908-1.66-8.971-1.66l-0.353,0.004c-4.741,0.033-9.616,1.48-13.719,4.068c0.424-0.268,0.873-0.5,1.313-0.742
					c2.48-0.922,5.154-1.451,7.957-1.451C181.413,91.829,191.659,102.071,191.659,114.707z"/>
				<path fill="#ADD3F0" d="M169.921,88.518c0.103-0.023,0.209-0.041,0.322-0.062c0.94-0.188,1.903-0.334,2.866-0.406
					c-0.295-0.875-0.561-1.77-0.793-2.646c-0.25-0.941-0.504-1.916-0.834-2.85c-0.741-2.203-1.692-4.355-2.813-6.4
					c-2.315-4.234-5.5-8.117-9.203-11.232c-3.893-3.279-8.497-5.816-13.329-7.346c-3.777-1.199-7.731-1.805-11.736-1.805
					c-1.33,0-2.674,0.07-3.992,0.207c-8.373,0.826-16.365,4.469-22.527,10.252c-5.727,5.318-9.82,12.436-11.531,20.045
					c-0.029,0.137-0.096,0.25-0.193,0.328c-0.588,2.668-0.912,5.432-0.957,8.207c0,0.111-0.09,0.199-0.197,0.201
					c-0.113,0-0.199-0.082-0.205-0.189c-0.158-2.82-0.012-5.65,0.432-8.42c-4.453,0.23-8.791,1.781-12.275,4.434
					c-3.432,2.582-6.1,6.27-7.605,10.43c0.027,0.018,0.062,0.025,0.084,0.049c0.709,0.639,2.635,0.914,3.557,1.312
					c1.246,0.541,2.459,1.158,3.631,1.848c2.408,1.404,4.668,3.103,6.633,5.078c1.559-0.705,2.85-2.252,4.463-3.062
					c4.016-2.009,8.027-3.417,12.672-3.398c0.033-0.021,0.072-0.043,0.107-0.068c-0.215-0.674-0.566-2.492-0.578-2.57
					c-0.131-0.666-0.25-1.332-0.334-2.002c-0.188-1.369-0.277-2.744-0.277-4.121c0-17.176,13.928-31.102,31.107-31.102
					c15.451,0,28.241,11.295,30.652,26.072C168.001,88.981,168.945,88.721,169.921,88.518z"/>
				<path fill="#ADD3F0" d="M143.123,150.074c-1.104,0-2.191,0.057-3.267,0.152c-0.018-0.404-0.029-0.808-0.029-1.213
					c0-4.253,0.771-8.326,2.169-12.093c2.928-8.559,8.66-15.18,15.898-19.271c-0.227,0.082-0.424,0.189-0.649,0.279l0.485-0.217
					c0,0-6.701,1.191-14.426,7.373c-1.229,0.984-2.48,2.1-3.745,3.352c-0.057,0.057-0.113,0.113-0.164,0.17
					c-0.617,0.619-1.24,1.268-1.857,1.958c-0.006,0.008-0.006,0.014-0.012,0.02c-0.584,0.654-1.168,1.348-1.738,2.066
					c-0.086,0.11-0.182,0.219-0.262,0.332c-0.572,0.723-1.133,1.475-1.688,2.264c-0.096,0.129-0.182,0.271-0.283,0.404
					c-0.504,0.729-1.002,1.485-1.49,2.272c-0.078,0.119-0.146,0.231-0.221,0.354c-0.527,0.854-1.041,1.754-1.547,2.684
					c-0.117,0.209-0.227,0.424-0.34,0.633c-0.514,0.967-1.014,1.957-1.5,3.002c-0.215,0.104-0.43,0.225-0.646,0.324
					c-2.803,1.242-5.861,1.885-8.938,1.885c-0.674,0-1.342-0.039-2.021-0.102c0,0,0,0-0.006,0c-4.662-0.424-8.91-2.287-12.291-5.148
					c-0.029-0.021-0.062-0.045-0.096-0.068c-5.365-4.37-8.785-11.028-8.785-18.485c0-7.816,3.771-14.738,9.584-19.087
					c0.453-0.125,0.814-0.256,0.934-0.395c-0.039,0.01-0.08,0.02-0.119,0.029c-2.34,0.506-4.609,1.26-6.762,2.24
					c0,0-0.012,0.01-0.018,0.01c-0.719,0.332-1.428,0.685-2.119,1.066c-0.062,0.033-0.125,0.078-0.186,0.113
					c-0.629,0.35-1.252,0.719-1.854,1.109c-0.158,0.102-0.305,0.219-0.459,0.322c-0.498,0.338-1.002,0.68-1.479,1.043
					c-0.277,0.209-0.525,0.441-0.793,0.656c-0.344,0.283-0.695,0.557-1.023,0.85c-0.59,0.525-1.15,1.07-1.689,1.637
					c-4.389,4.557-7.373,10.615-8.41,17.061c-0.012,0.098-0.102,0.168-0.199,0.168c-0.113-0.006-0.197-0.088-0.203-0.189
					c-0.182-3.15,0.295-6.436,1.365-9.49c1.207-3.43,3.172-6.621,5.682-9.236c0.344-0.361,0.725-0.686,1.092-1.031
					c-3.023-2.559-6.49-4.597-10.178-6.003c-1.229-0.469-2.48-0.865-3.756-1.189c-0.125,0.029-0.26,0.025-0.385-0.008
					c-0.441-0.002-0.945-0.178-1.404-0.303c-0.006,0-0.012,0-0.018,0c-0.742-0.15-1.484-0.277-2.23-0.373
					c-0.006-0.004-0.006-0.004-0.012-0.006c-0.447-0.047-0.867-0.047-1.309-0.051c-0.199,0-0.379-0.068-0.555-0.141
					c-0.885-0.07-1.762-0.115-2.652-0.115c-3.342,0-6.637,0.482-9.799,1.424c-6.064,1.799-11.707,5.441-15.881,10.25
					c-3.324,3.822-5.777,8.395-7.104,13.221c-0.316,1.148-0.572,2.322-0.77,3.506c-0.096,0.604-0.137,1.224-0.199,1.834
					c-0.062,0.578-0.152,1.15-0.186,1.734c-0.051,0.813-0.029,1.631-0.018,2.45c0.006,0.382-0.023,0.767-0.006,1.146
					c0.029,0.652,0.125,1.297,0.193,1.942c0.045,0.248,0.096,0.498,0.152,0.75c-0.012,0.257-0.006,0.515,0,0.769
					c0.018,0.097,0.018,0.199,0.027,0.295c0.697,4.509,2.385,8.976,4.861,12.914c2.146,3.404,4.961,6.472,8.145,8.961
					c3.217-1.325,6.865-1.756,10.279-1.229c0.051-0.865,0.148-1.732,0.318-2.588c0.617-3.064,2.084-6.027,4.129-8.338
					c1.84-2.107,4.156-3.734,6.684-4.707c0.096-0.033,0.197,0.006,0.248,0.098c0.053,0.088,0.023,0.197-0.061,0.26
					c-4.43,3.184-7.574,7.986-8.6,13.17c-1.07,5.221-0.062,10.863,2.781,15.49c0.051,0.086,0.029,0.199-0.045,0.26
					c-0.039,0.031-0.084,0.047-0.131,0.047c-0.051,0-0.102-0.018-0.141-0.057c-1.955-1.887-3.455-4.285-4.328-6.939
					c-0.645-1.983-0.918-4.072-0.861-6.156c-0.016-0.004-0.033,0-0.057,0l0.057-0.067c0,0-0.781-0.015-2.027,0.095
					c-1.041,0.059-2.066,0.213-3.074,0.43c-5.914,1.137-14.846,4.762-14.812,16.254c-0.068,1.381,0.033,2.775,0.328,4.129
					c0.035,0.176,0.086,0.402,0.154,0.656c0.072,0.276,0.17,0.528,0.266,0.762l52.693,1.893c-0.256-1.26-0.42-2.555-0.42-3.891
					c0-11.055,8.955-20.012,20.006-20.012c6.943,0,13.061,3.537,16.646,8.91c4.162-10.533,14.414-17.992,26.416-17.992
					c1.689,0,3.333,0.172,4.936,0.453c0.369-0.131,0.748-0.228,1.123-0.351C153.783,151.291,148.594,150.074,143.123,150.074z
					 M153.285,119.691l0.758-0.336c-0.402,0.195-0.775,0.412-1.172,0.617L153.285,119.691z M56.452,145.701
					c-7.629-2.863-13.072-10.203-13.072-18.842c0-11.119,9.018-20.133,20.131-20.133c6.297,0,11.916,2.889,15.609,7.414
					c-5.443,6.084-9.143,13.736-10.445,22.182C63.866,138.412,59.686,141.654,56.452,145.701z M70.952,146.449
					c-0.057-0.018-0.119-0.023-0.176-0.035c0.113-0.084,0.244-0.16,0.357-0.242C71.077,146.262,71.008,146.357,70.952,146.449z
					 M72.391,167.689c-3.795-6.713-3.234-14.828,3.33-21.207c2.135-2.078,4.74-2.89,7.33-2.662c2.186,3.795,5.273,6.928,8.914,9.521
					C83.278,154.5,75.993,160.045,72.391,167.689z"/>
				<path fill="#ADD3F0" d="M207.048,161.9c7.677,2.6,14.207,7.67,18.632,14.281c-0.232-1.236-0.357-2.519-0.357-3.826
					c0-11.5,9.322-20.82,20.826-20.82c11.498,0,20.822,9.32,20.822,20.82c0,4.69-1.576,8.996-4.191,12.477
					c0.9-0.031,1.795-0.062,2.695-0.094c0.561-0.021,1.121-0.041,1.682-0.061l0.664-0.021c0.311-0.015,0.701-0.062,1.07-0.039
					l1.926-0.068l0.576-1.37c0.166-0.431,0.352-0.939,0.521-1.462c0-0.006,0-0.012,0-0.018c0.058-0.392,0.211-0.789,0.34-1.185
					c0.045-0.176,0.103-0.348,0.144-0.522c0.084-0.326,0.146-0.656,0.215-0.988c0.057-0.266,0.113-0.526,0.152-0.797
					c0.062-0.342,0.098-0.683,0.147-1.022c0.026-0.273,0.071-0.545,0.096-0.816c0.033-0.348,0.046-0.697,0.062-1.049
					c0.019-0.262,0.039-0.523,0.039-0.783c0.007-0.369,0-0.734-0.012-1.1c-0.006-0.252,0-0.504-0.016-0.752
					c-0.018-0.369-0.057-0.736-0.098-1.105c-0.017-0.25-0.033-0.492-0.062-0.742c-0.051-0.391-0.123-0.781-0.186-1.172
					c-0.045-0.215-0.068-0.434-0.113-0.648c-0.119-0.604-0.262-1.201-0.432-1.793c-1.574-5.658-5.277-10.791-10.178-14.076
					c-0.675-0.446-1.359-0.856-2.062-1.241c-0.174-0.097-0.361-0.179-0.537-0.271c-0.539-0.279-1.088-0.543-1.648-0.781
					c-0.176-0.073-0.356-0.149-0.537-0.221c-0.709-0.283-1.428-0.545-2.158-0.76c-1.149-0.342-2.321-0.605-3.506-0.783
					c-2.42-0.365-4.899-0.559-7.336-0.258c-1.133,0.135-2.26,0.35-3.369,0.639c-1.129,0.289-2.231,0.652-3.313,1.086
					c-2.157,0.869-4.209,2.021-6.062,3.431c-0.09,0.063-0.215,0.051-0.282-0.029c-0.074-0.084-0.062-0.209,0.022-0.283
					c3.914-3.5,8.988-5.76,14.312-6.389c-0.674-3.076-2.027-5.94-3.965-8.324c-2.295-2.84-5.443-5.037-8.875-6.188
					c-1.943-0.649-3.988-0.981-6.078-0.981c-1.609,0-3.195,0.195-4.73,0.58c-3.018,0.756-5.85,2.254-8.258,4.34
					c0.182,0.381,0.363,0.765,0.539,1.154c1.637,3.789,2.627,7.942,2.865,12.018c0,0.104-0.074,0.195-0.182,0.212
					c-0.006,0-0.006-0.007-0.006-0.007c-0.005,0-0.011,0.007-0.017,0.007c-0.099,0-0.177-0.062-0.199-0.158
					c-1.862-8.226-6.133-15.984-12.021-21.853c-0.674-0.686-1.381-1.34-2.104-1.977c-0.396-0.346-0.805-0.672-1.219-1.002
					c-0.312-0.256-0.617-0.51-0.935-0.76c-0.572-0.436-1.156-0.861-1.75-1.271c-0.137-0.1-0.272-0.195-0.414-0.287
					c-0.709-0.48-1.428-0.945-2.164-1.387l0,0c8.259,6.377,13.595,16.363,13.595,27.611c0,4.566-0.884,8.916-2.479,12.914
					C207.116,161.918,207.077,161.908,207.048,161.9z M225.764,133.498c7.223,0,13.09,5.785,13.229,12.979
					c-0.996,0.211-2.021,0.324-3.074,0.324c-7.397,0-13.504-5.436-14.586-12.523C222.716,133.781,224.206,133.498,225.764,133.498z"
					/>
			</g>
			<path fill="#231F20" d="M275.243,166.371c-1.771-6.402-6.004-12.123-11.601-15.697c-4.883-3.166-11-4.715-16.86-4.242
				c-0.216-3.174-1.291-6.342-3.064-8.994c-1.03-1.563-2.321-2.983-3.834-4.227c2.103-5.156,2.679-11.014,1.603-16.555
				c-1.273-6.826-5.17-13.271-10.67-17.671c-5.199-4.227-12.025-6.65-18.709-6.65c-0.283,0-0.562,0.006-0.838,0.012
				c-5.558,0.119-11.097,1.893-15.679,5.012c-1.647-2.129-3.553-3.953-5.676-5.428c-1.101-0.773-2.295-1.477-3.67-2.146
				c-0.103-0.049-0.205-0.094-0.308-0.133l-0.182-0.078c-0.459-0.205-0.916-0.404-1.381-0.582c-0.188-0.072-0.369-0.133-0.551-0.195
				c-3.166-1.139-6.451-1.689-9.668-1.529c-0.152-0.613-0.301-1.281-0.453-2.062c-0.197-1.012-0.402-2.053-0.697-3.092
				c-0.633-2.344-1.488-4.65-2.559-6.857c-2.209-4.602-5.41-8.861-9.238-12.311c-4.057-3.662-8.938-6.514-14.128-8.25
				c-5.408-1.818-11.242-2.463-16.992-1.871c-8.971,0.883-17.785,5.029-24.174,11.373c-5.732,5.619-9.691,12.971-11.191,20.775
				c-0.998-0.201-1.967-0.297-2.951-0.297c-3.863,0-7.682,1.291-10.729,3.627c-2.232,1.672-4.072,3.898-5.324,6.43
				c-0.82,1.66-1.371,3.508-1.604,5.393c-5.947-1.535-12.307-1.467-18.197,0.148c-6.684,1.818-12.887,5.73-17.469,11.009
				c-3.643,4.186-6.287,9.209-7.646,14.521c-1.309,5.092-1.467,10.508-0.465,15.67c0.93,4.827,2.934,9.522,5.807,13.573
				c2.141,3.015,4.83,5.74,7.828,7.947c-3.338,1.506-6.186,4.004-8.09,7.096c-2.508,3.996-3.363,8.955-2.361,13.601
				c0.113,0.51,0.232,0.969,0.363,1.399l0.045,0.147c0.045,0.169,0.096,0.339,0.238,0.729l0.236,0.687
				c0.035,0.076,0.143,0.311,0.443,0.479l0.164,0.093h56.521L91.27,186.5h-0.771c-0.033-0.078-0.09-0.137-0.17-0.143l-53.281-1.912
				c-0.096-0.232-0.193-0.484-0.266-0.762c-0.068-0.254-0.119-0.48-0.154-0.656c-0.295-1.354-0.396-2.748-0.328-4.129
				c-0.033-11.492,8.898-15.117,14.812-16.254c1.008-0.218,2.033-0.371,3.074-0.431c1.246-0.106,2.027-0.094,2.027-0.094
				s-0.057,0.067,0,0.067c-0.057,2.084,0.217,4.172,0.861,6.156c0.873,2.654,2.373,5.053,4.328,6.939
				c0.039,0.039,0.09,0.057,0.141,0.057c0.047,0,0.092-0.016,0.131-0.047c0.074-0.061,0.096-0.174,0.045-0.26
				c-2.844-4.627-3.852-10.27-2.781-15.49c1.025-5.184,4.17-9.986,8.6-13.17c0.084-0.062,0.113-0.172,0.061-0.26
				c-0.051-0.092-0.152-0.131-0.248-0.098c-2.527,0.973-4.844,2.6-6.684,4.707c-2.045,2.311-3.512,5.272-4.129,8.338
				c-0.17,0.854-0.268,1.723-0.318,2.588c-3.414-0.525-7.062-0.097-10.279,1.229c-3.184-2.489-5.998-5.558-8.145-8.961
				c-2.477-3.938-4.164-8.406-4.861-12.914c-0.758-4.793-0.475-9.78,0.805-14.426c1.326-4.826,3.779-9.398,7.104-13.221
				c4.174-4.809,9.816-8.451,15.881-10.25c3.162-0.941,6.457-1.424,9.799-1.424c2.771,0,5.518,0.334,8.18,0.988
				c0.125,0.033,0.26,0.037,0.385,0.008c5.086,1.293,9.9,3.779,13.934,7.193c-0.367,0.346-0.748,0.67-1.092,1.031
				c-2.51,2.615-4.475,5.807-5.682,9.236c-1.07,3.055-1.547,6.34-1.365,9.49c0.006,0.102,0.09,0.184,0.203,0.189
				c0.098,0,0.188-0.07,0.199-0.168c1.037-6.445,4.021-12.504,8.41-17.061c4.334-4.559,10.258-7.798,16.682-9.119
				c0.102-0.021,0.164-0.117,0.164-0.221c-0.012-0.102-0.096-0.18-0.203-0.18c-3.133-0.055-6.424,0.561-9.42,1.764
				c-2.781,1.098-5.369,2.75-7.629,4.744c-3.852-3.806-8.639-6.667-13.855-8.269c-0.021-0.023-0.057-0.031-0.084-0.049
				c1.506-4.16,4.174-7.848,7.605-10.43c3.484-2.652,7.822-4.203,12.275-4.434c-0.443,2.77-0.59,5.6-0.432,8.42
				c0.006,0.107,0.092,0.189,0.205,0.189c0.107-0.002,0.197-0.09,0.197-0.201c0.045-2.775,0.369-5.539,0.957-8.207
				c0.098-0.078,0.164-0.191,0.193-0.328c1.711-7.609,5.805-14.727,11.531-20.045c6.162-5.783,14.154-9.426,22.527-10.252
				c1.318-0.137,2.662-0.207,3.992-0.207c4.004,0,7.958,0.605,11.736,1.805c4.832,1.529,9.438,4.066,13.329,7.346
				c3.703,3.115,6.888,6.998,9.203,11.232c1.121,2.045,2.072,4.197,2.813,6.4c0.33,0.934,0.584,1.908,0.834,2.85
				c0.232,0.877,0.498,1.771,0.793,2.646c-5.092,0.375-10.016,2.379-13.85,5.645c-0.084,0.068-0.096,0.189-0.039,0.275
				c0.068,0.084,0.188,0.109,0.277,0.053c4.102-2.588,8.977-4.035,13.719-4.068l0.352-0.004c3.062,0,6.111,0.584,8.972,1.66
				c0.78,0.316,1.553,0.648,2.305,1.02c0.636,0.307,1.259,0.66,1.882,1.012c0.465,0.279,0.924,0.57,1.371,0.883
				c4.327,3.02,7.68,7.418,9.432,12.384c1.5,4.23,1.863,8.988,1.053,13.492c-1.219-0.703-2.459-1.344-3.727-1.893
				c-3.789-1.65-7.941-2.65-12.015-2.895c-0.103,0-0.198,0.068-0.209,0.174c-0.019,0.104,0.052,0.201,0.152,0.223
				c8.219,1.883,15.973,6.168,21.827,12.076c5.888,5.867,10.156,13.627,12.021,21.853c0.022,0.096,0.103,0.157,0.222,0.157
				c0.106-0.016,0.182-0.106,0.182-0.211c-0.238-4.073-1.229-8.229-2.865-12.019c-0.176-0.391-0.357-0.772-0.539-1.153
				c2.408-2.086,5.24-3.584,8.258-4.34c1.535-0.386,3.121-0.58,4.73-0.58c2.09,0,4.135,0.332,6.078,0.981
				c3.432,1.15,6.58,3.349,8.875,6.188c1.938,2.383,3.291,5.248,3.965,8.324c-5.324,0.629-10.398,2.889-14.312,6.389
				c-0.086,0.074-0.098,0.199-0.022,0.283c0.067,0.08,0.192,0.094,0.282,0.028c3.683-2.807,8.15-4.594,12.744-5.153
				c2.437-0.302,4.916-0.106,7.336,0.258c2.332,0.349,4.615,1.021,6.769,1.996c1.278,0.584,2.517,1.271,3.683,2.062
				c4.899,3.285,8.604,8.418,10.178,14.076c1.309,4.639,1.229,9.713-0.209,14.284c-0.183,0.595-0.396,1.181-0.59,1.67l-0.576,1.371
				l-51.963,1.808c-0.08,0-0.142,0.062-0.176,0.143h-0.771l-0.257,0.725h55.146l0.984-2.021l0.385-0.896
				c0.227-0.543,0.488-1.191,0.697-1.857C276.593,177.318,276.723,171.609,275.243,166.371z M233.473,130.459
				c-1.902-0.641-3.902-0.963-5.941-0.963c-2.119,0-4.266,0.363-6.197,1.051c-3.131,1.104-5.918,3.084-7.963,5.615
				c-1.768-3.578-4.174-6.941-7.029-9.805c-2.182-2.188-4.662-4.109-7.312-5.691c1.529-4.564,1.648-9.623,0.316-14.334
				c-0.746-2.669-1.982-5.232-3.602-7.541c4.441-2.463,9.561-3.826,14.568-3.826c0.321,0,0.645,0.006,0.969,0.018
				c6.377,0.166,12.607,2.467,17.547,6.469c4.979,3.996,8.564,9.585,10.082,15.751c1.303,5.18,1.156,10.77-0.369,15.9
				C236.988,131.975,235.277,131.062,233.473,130.459z"/>
		</g>
	</g>
</g>
</svg>
