<?xml version="1.0" encoding="utf-8"?>
<!-- Generator: Adobe Illustrator 15.0.2, SVG Export Plug-In . SVG Version: 6.00 Build 0)  -->
<!DOCTYPE svg PUBLIC "-//W3C//DTD SVG 1.1//EN" "http://www.w3.org/Graphics/SVG/1.1/DTD/svg11.dtd">
<svg version="1.1" id="Layer_1" xmlns="http://www.w3.org/2000/svg" xmlns:xlink="http://www.w3.org/1999/xlink" x="0px" y="0px"
	 width="280px" height="260px" viewBox="0 0 280 260" enable-background="new 0 0 280 260" xml:space="preserve">
<g>
	<g>
		<g>
			<g>
				<path fill="#FFFFFF" d="M112.953,84.727c-2.861,20.513-21.812,34.826-42.318,31.966c-20.512-2.861-34.822-21.81-31.958-42.324
					c2.858-20.508,21.805-34.821,42.316-31.954C101.5,45.27,115.808,64.217,112.953,84.727z"/>
				<path fill="#FFD88C" d="M125.887,90.326c6.723-1.511,15.265-1.659,25.566-0.221c-9.842-1.374-17.749-3.697-23.711-6.772h0.012
					c-9.889-4.906-7.912-15.226,6.641-19.005c-14.113,3.663-20.883-3.806-15.565-12.553c3.685-5.818,9.626-11.971,17.931-18.251
					c-8.094,6.126-15.468,10.098-21.958,12.104c-10.202,3.159-15.853-5.46-8.335-18.245c-7.359,12.515-17.369,12.071-19.85,2.241
					c-1.535-6.738-1.695-15.336-0.246-25.71c-1.433,10.23-3.89,18.367-7.148,24.403c-5.046,9.035-14.915,6.811-18.589-7.353
					c3.661,14.126-3.83,20.899-12.598,15.536l0.021,0.046c-5.828-3.68-11.988-9.632-18.268-17.953
					c5.99,7.935,9.931,15.176,11.979,21.564c3.527,10.462-5.174,16.355-18.127,8.735c12.545,7.376,12.064,17.428,2.156,19.873
					c-6.73,1.528-15.294,1.677-25.626,0.238c9.853,1.372,17.766,3.701,23.734,6.782l-0.037-0.006
					c9.89,4.902,7.91,15.226-6.637,18.999c14.098-3.657,20.861,3.794,15.573,12.532c-3.686,5.83-9.63,11.988-17.94,18.26
					c7.94-5.994,15.189-9.945,21.588-11.986l-0.017,0.01c10.462-3.523,16.36,5.172,8.741,18.129
					c7.303-12.424,17.211-12.061,19.791-2.445c1.576,6.768,1.753,15.436,0.29,25.92c1.372-9.843,3.699-17.746,6.767-23.707l0,0
					c4.903-9.891,15.222-7.91,19.001,6.639c-3.663-14.117,3.817-20.883,12.579-15.555c5.818,3.689,11.965,9.627,18.227,17.93
					c-5.988-7.935-9.934-15.17-11.975-21.561l0.01,0.012c-3.527-10.461,5.176-16.359,18.131-8.734
					C115.421,102.818,115.921,92.744,125.887,90.326z M112.953,84.727c-2.861,20.513-21.812,34.826-42.318,31.966
					c-20.512-2.861-34.822-21.81-31.958-42.324c2.858-20.508,21.805-34.821,42.316-31.954
					C101.5,45.27,115.808,64.217,112.953,84.727z"/>
				<path fill="#FEC343" d="M105.75,83.725c-2.307,16.53-17.582,28.07-34.112,25.763c-16.536-2.305-28.072-17.575-25.764-34.111
					c2.306-16.536,17.58-28.072,34.112-25.76C96.52,51.92,108.054,67.189,105.75,83.725z"/>
			</g>
		</g>
		<g>
			<g>
				<g>
					<g>
						<path fill="#ADD3F0" d="M56.673,249.105c-1.066,0-2.146-0.203-3.193-0.635c-4.246-1.767-6.26-6.638-4.498-10.886l1.6-3.849
							c1.766-4.248,6.637-6.258,10.885-4.495c4.242,1.768,6.258,6.639,4.496,10.881l-1.6,3.853
							C63.035,247.168,59.937,249.105,56.673,249.105z M67.845,222.195c-1.061,0-2.143-0.203-3.191-0.639
							c-4.242-1.763-6.258-6.634-4.494-10.882l6.387-15.379c1.764-4.248,6.633-6.258,10.881-4.496
							c4.248,1.767,6.262,6.638,4.496,10.88l-6.383,15.385C74.21,220.258,71.111,222.195,67.845,222.195z"/>
					</g>
					<g>
						<path fill="#ADD3F0" d="M89.191,249.105c-1.064,0-2.146-0.203-3.189-0.635c-4.248-1.767-6.258-6.638-4.496-10.886l1.598-3.849
							c1.764-4.248,6.631-6.258,10.879-4.495c4.248,1.768,6.26,6.639,4.498,10.881l-1.598,3.853
							C95.554,247.168,92.457,249.105,89.191,249.105z M100.369,222.195c-1.064,0-2.146-0.203-3.191-0.639
							c-4.244-1.763-6.258-6.634-4.498-10.882l6.391-15.379c1.762-4.248,6.627-6.258,10.881-4.496
							c4.244,1.767,6.258,6.638,4.496,10.88l-6.387,15.385C106.732,220.258,103.632,222.195,100.369,222.195z"/>
					</g>
					<g>
						<path fill="#ADD3F0" d="M121.714,249.105c-1.064,0-2.146-0.203-3.189-0.635c-4.248-1.767-6.262-6.638-4.496-10.886
							l1.596-3.849c1.762-4.248,6.637-6.258,10.881-4.495c4.248,1.768,6.26,6.639,4.498,10.881l-1.598,3.853
							C128.076,247.168,124.98,249.105,121.714,249.105z M132.892,222.195c-1.068,0-2.15-0.203-3.191-0.639
							c-4.248-1.763-6.262-6.634-4.498-10.882l6.389-15.379c1.766-4.248,6.627-6.258,10.881-4.496
							c4.242,1.767,6.26,6.638,4.498,10.88l-6.387,15.385C139.255,220.258,136.154,222.195,132.892,222.195z"/>
					</g>
				</g>
				<g>
					<g>
						<g>
							<path fill="#231F20" d="M71.814,213.162c0.188-3.654,1.982-11.232,3.42-17.49c-3.494,5.561-7.629,12.229-10.117,14.975
								h-0.006c-0.219,0.271-0.412,0.584-0.553,0.931c-0.793,1.926,0.119,4.129,2.045,4.935c1.926,0.793,4.131-0.125,4.934-2.046
								C71.712,214.039,71.796,213.604,71.814,213.162L71.814,213.162z"/>
							<path fill="#FFFFFF" d="M68.347,213.043c0.074-1.461,0.793-4.498,1.365-7.002c-1.396,2.232-3.047,4.9-4.047,5.994l0,0
								c-0.088,0.113-0.164,0.236-0.221,0.373c-0.318,0.77,0.047,1.654,0.818,1.971c0.768,0.324,1.65-0.051,1.969-0.814
								C68.304,213.395,68.339,213.219,68.347,213.043L68.347,213.043z"/>
							<g>
								<path fill="#231F20" d="M59.916,232.658c-1.971,2.09-3.967,3.867-5.779,5.205l0,0c-0.453,0.379-0.822,0.871-1.064,1.449
									c-0.799,1.932,0.119,4.141,2.041,4.934c1.924,0.799,4.133-0.119,4.932-2.045c0.273-0.662,0.34-1.371,0.234-2.033
									C59.964,237.992,59.828,235.41,59.916,232.658z"/>
							</g>
							<g>
								<path fill="#FFFFFF" d="M56.98,237.273c-0.787,0.838-1.586,1.553-2.311,2.084l0,0c-0.186,0.147-0.33,0.346-0.432,0.578
									c-0.316,0.774,0.045,1.66,0.822,1.977c0.764,0.318,1.648-0.045,1.971-0.82c0.109-0.268,0.135-0.545,0.09-0.811
									C57,239.408,56.943,238.379,56.98,237.273z"/>
							</g>
						</g>
					</g>
					<g>
						<g>
							<path fill="#231F20" d="M104.421,213.162c0.184-3.654,1.982-11.232,3.412-17.49c-3.486,5.561-7.623,12.229-10.113,14.975
								h-0.004c-0.219,0.271-0.414,0.584-0.553,0.931c-0.797,1.926,0.121,4.129,2.045,4.935c1.926,0.793,4.131-0.125,4.93-2.046
								C104.318,214.039,104.404,213.604,104.421,213.162L104.421,213.162z"/>
							<path fill="#FFFFFF" d="M100.953,213.043c0.07-1.461,0.795-4.498,1.365-7.002c-1.396,2.232-3.051,4.9-4.047,5.994l0,0
								c-0.086,0.113-0.164,0.236-0.221,0.373c-0.324,0.77,0.045,1.654,0.82,1.971c0.766,0.324,1.648-0.051,1.965-0.814
								C100.91,213.395,100.945,213.219,100.953,213.043L100.953,213.043z"/>
							<g>
								<path fill="#231F20" d="M92.519,232.658c-1.969,2.09-3.963,3.867-5.777,5.205l0,0c-0.453,0.379-0.824,0.871-1.068,1.449
									c-0.795,1.932,0.119,4.141,2.045,4.934c1.92,0.799,4.133-0.119,4.928-2.045c0.277-0.662,0.344-1.371,0.238-2.033
									C92.566,237.992,92.431,235.41,92.519,232.658z"/>
							</g>
							<g>
								<path fill="#FFFFFF" d="M89.582,237.273c-0.787,0.838-1.586,1.553-2.311,2.084l0,0c-0.182,0.147-0.328,0.346-0.426,0.578
									c-0.318,0.774,0.047,1.66,0.816,1.977c0.77,0.318,1.654-0.045,1.971-0.82c0.113-0.268,0.137-0.545,0.098-0.811
									C89.605,239.408,89.548,238.379,89.582,237.273z"/>
							</g>
						</g>
					</g>
					<g>
						<g>
							<path fill="#231F20" d="M137.027,213.162c0.182-3.654,1.98-11.232,3.412-17.49c-3.482,5.561-7.623,12.229-10.115,14.975
								h-0.006c-0.215,0.271-0.408,0.584-0.549,0.931c-0.793,1.926,0.119,4.129,2.045,4.935c1.926,0.793,4.131-0.125,4.928-2.046
								C136.921,214.039,137.007,213.604,137.027,213.162L137.027,213.162z"/>
							<path fill="#FFFFFF" d="M133.558,213.043c0.072-1.461,0.789-4.498,1.365-7.002c-1.395,2.232-3.053,4.9-4.051,5.994l0,0
								c-0.084,0.113-0.16,0.236-0.215,0.373c-0.322,0.77,0.043,1.654,0.816,1.971c0.764,0.324,1.646-0.051,1.967-0.814
								C133.517,213.395,133.546,213.219,133.558,213.043L133.558,213.043z"/>
							<g>
								<path fill="#231F20" d="M125.125,232.658c-1.967,2.09-3.965,3.867-5.777,5.205l0,0c-0.457,0.379-0.822,0.871-1.068,1.449
									c-0.795,1.932,0.119,4.141,2.045,4.934c1.922,0.799,4.131-0.119,4.924-2.045c0.279-0.662,0.346-1.371,0.244-2.033
									C125.175,237.992,125.039,235.41,125.125,232.658z"/>
							</g>
							<g>
								<path fill="#FFFFFF" d="M122.189,237.273c-0.793,0.838-1.586,1.553-2.316,2.084l0,0c-0.18,0.147-0.322,0.346-0.424,0.578
									c-0.318,0.774,0.049,1.66,0.818,1.977c0.768,0.318,1.654-0.045,1.975-0.82c0.107-0.268,0.135-0.545,0.09-0.811
									C122.207,239.408,122.15,238.379,122.189,237.273z"/>
							</g>
						</g>
					</g>
				</g>
			</g>
		</g>
		<g>
			<g>
				<path fill="#FFFFFF" d="M193.723,118.182c0.215,0.107,0.432,0.203,0.646,0.322c0.006-0.045,0.01-0.086,0.014-0.125
					C194.164,118.311,193.945,118.244,193.723,118.182z"/>
			</g>
			<g>
				<path fill="#FFFFFF" d="M176.695,114.516c4.922,0,9.654,0.816,14.076,2.307c-4.025-1.621-8.42-2.527-13.025-2.527
					c-1.945,0-3.844,0.164-5.695,0.471C173.574,114.607,175.127,114.516,176.695,114.516z"/>
			</g>
			<path fill="#FFFFFF" d="M278.27,166.547c-1.778-6.4-6.01-12.115-11.6-15.695c-4.889-3.166-11-4.713-16.863-4.242
				c-0.215-3.172-1.291-6.338-3.065-8.989c-1.033-1.568-2.32-2.984-3.839-4.226c2.107-5.16,2.681-11.016,1.605-16.557
				c-1.277-6.83-5.168-13.275-10.664-17.671c-5.203-4.225-12.025-6.648-18.717-6.648c-0.281,0-0.561,0.006-0.834,0.006
				c-5.559,0.123-11.098,1.896-15.68,5.018c-1.644-2.135-3.555-3.959-5.674-5.432c-1.099-0.77-2.299-1.479-3.672-2.146
				c-0.101-0.051-0.207-0.092-0.31-0.131l-0.183-0.078c-0.453-0.205-0.914-0.402-1.383-0.584c-0.184-0.074-0.367-0.137-0.543-0.199
				c-3.166-1.133-6.455-1.682-9.672-1.523c-0.152-0.611-0.297-1.279-0.455-2.066c-0.195-1.008-0.396-2.051-0.695-3.088
				c-0.627-2.344-1.487-4.656-2.557-6.859c-2.215-4.598-5.408-8.857-9.244-12.312c-4.053-3.66-8.938-6.508-14.123-8.248
				c-5.408-1.818-11.247-2.463-16.995-1.869c-8.973,0.885-17.779,5.031-24.17,11.375c-5.73,5.617-9.691,12.971-11.193,20.775
				c-0.994-0.205-1.963-0.295-2.949-0.295c-3.869,0-7.68,1.285-10.729,3.619c-2.23,1.676-4.074,3.902-5.326,6.434
				c-0.818,1.66-1.367,3.508-1.604,5.393c-5.943-1.541-12.305-1.473-18.195,0.148c-6.684,1.818-12.891,5.726-17.469,11.009
				c-3.646,4.18-6.291,9.211-7.646,14.518c-1.307,5.092-1.473,10.512-0.463,15.672c0.922,4.826,2.934,9.521,5.805,13.578
				c2.141,3.012,4.832,5.735,7.828,7.945c-3.336,1.502-6.186,4-8.088,7.098c-2.51,3.992-3.371,8.955-2.363,13.594
				c0.113,0.51,0.23,0.975,0.361,1.404l0.041,0.147c0.051,0.17,0.104,0.334,0.242,0.729l0.24,0.687
				c0.033,0.078,0.135,0.312,0.439,0.479l0.166,0.091h29.838h26.682h126.12h2.338h52.801l0.992-2.027l0.385-0.896
				c0.228-0.543,0.48-1.188,0.697-1.856C279.611,177.5,279.748,171.785,278.27,166.547z"/>
			<g>
				<path fill="#ADD3F0" d="M242.732,122.996c-0.062-0.092-0.125-0.182-0.203-0.256c0.051-0.48,0.082-0.963,0.102-1.449
					c-0.027-0.271-0.08-0.545-0.115-0.816c-0.055-0.385-0.1-0.77-0.168-1.15c-0.115-0.65-0.254-1.303-0.414-1.941
					c-1.522-6.168-5.104-11.76-10.084-15.751c-4.936-4-11.17-6.305-17.551-6.469c-0.32-0.012-0.643-0.018-0.963-0.018
					c-5.006,0-10.133,1.365-14.57,3.824c1.619,2.311,2.863,4.871,3.605,7.544c1.33,4.707,1.207,9.77-0.312,14.336
					c2.642,1.58,5.123,3.5,7.308,5.691c2.854,2.865,5.26,6.225,7.028,9.799c2.039-2.525,4.832-4.508,7.965-5.613
					c1.937-0.69,4.078-1.053,6.193-1.053c2.041,0,4.041,0.328,5.943,0.969c1.803,0.601,3.516,1.512,5.07,2.64
					c0.231-0.771,0.422-1.568,0.584-2.361c0.033-0.137,0.053-0.271,0.082-0.414C242.701,128.037,242.869,125.504,242.732,122.996z
					 M234.576,125.42c-14.242-0.459-25.717-11.754-26.479-25.919c2.315-0.916,4.836-1.438,7.477-1.438
					c11.209,0,20.293,9.083,20.293,20.289C235.867,120.844,235.398,123.223,234.576,125.42z"/>
				<path fill="#ADD3F0" d="M35.812,139.75c-0.014-0.125-0.021-0.25-0.035-0.375c-0.004-0.004-0.004-0.016-0.006-0.021
					C35.785,139.484,35.796,139.619,35.812,139.75z"/>
				<path fill="#ADD3F0" d="M194.68,114.891c0,0.865-0.076,1.711-0.182,2.549h0.002c1.15,0.367,2.283,0.77,3.379,1.252
					c1.266,0.549,2.51,1.184,3.727,1.885c0.806-4.496,0.447-9.254-1.059-13.486c-1.748-4.972-5.098-9.367-9.43-12.386
					c-0.445-0.311-0.902-0.6-1.365-0.883c-0.623-0.352-1.252-0.703-1.885-1.014c-0.752-0.369-1.523-0.703-2.305-1.02
					c-2.857-1.07-5.91-1.654-8.972-1.654h-0.35c-4.746,0.033-9.619,1.479-13.726,4.072c0.428-0.271,0.873-0.504,1.314-0.748
					c2.486-0.924,5.164-1.449,7.961-1.449C184.436,92.008,194.68,102.249,194.68,114.891z"/>
				<path fill="#ADD3F0" d="M172.939,88.7c0.108-0.021,0.217-0.039,0.324-0.062c0.95-0.186,1.901-0.34,2.877-0.408
					c-0.304-0.877-0.562-1.766-0.802-2.645c-0.248-0.945-0.502-1.914-0.836-2.85c-0.741-2.203-1.688-4.355-2.812-6.404
					c-2.321-4.232-5.502-8.111-9.209-11.227c-3.885-3.279-8.496-5.818-13.321-7.348c-3.779-1.199-7.729-1.807-11.741-1.807
					c-1.328,0-2.674,0.068-3.994,0.205c-8.365,0.832-16.363,4.469-22.52,10.258c-5.727,5.312-9.822,12.432-11.533,20.045
					c-0.031,0.135-0.096,0.242-0.191,0.328c-0.59,2.668-0.912,5.426-0.957,8.207c0,0.107-0.092,0.199-0.199,0.199
					c-0.113,0-0.197-0.086-0.203-0.188c-0.162-2.82-0.012-5.652,0.43-8.422c-4.457,0.227-8.793,1.777-12.273,4.434
					c-3.434,2.578-6.104,6.266-7.609,10.428c0.027,0.018,0.064,0.029,0.088,0.051c0.707,0.641,2.637,0.912,3.557,1.309
					c1.246,0.545,2.457,1.162,3.631,1.848c2.4,1.41,4.66,3.109,6.633,5.08c1.557-0.709,2.846-2.254,4.463-3.064
					c4.01-2.005,8.02-3.416,12.67-3.392c0.033-0.029,0.07-0.045,0.107-0.068c-0.217-0.674-0.566-2.498-0.584-2.576
					c-0.127-0.664-0.242-1.326-0.334-2c-0.18-1.371-0.271-2.742-0.271-4.117c0-17.18,13.926-31.102,31.102-31.102
					c15.458,0,28.25,11.293,30.661,26.064C171.023,89.159,171.973,88.905,172.939,88.7z"/>
				<path fill="#ADD3F0" d="M146.145,150.25c-1.102,0-2.192,0.057-3.266,0.154c-0.016-0.402-0.031-0.805-0.031-1.213
					c0-4.254,0.775-8.32,2.168-12.092c2.93-8.56,8.662-15.175,15.906-19.275c-0.227,0.09-0.432,0.193-0.652,0.283l0.488-0.215
					c0,0-6.707,1.189-14.434,7.375c-1.229,0.984-2.48,2.096-3.738,3.346c-0.057,0.057-0.113,0.113-0.172,0.17
					c-0.617,0.623-1.232,1.275-1.85,1.961c-0.006,0.006-0.013,0.018-0.019,0.021c-0.582,0.651-1.16,1.35-1.734,2.067
					c-0.088,0.106-0.18,0.215-0.264,0.328c-0.572,0.719-1.133,1.479-1.689,2.26c-0.09,0.138-0.18,0.277-0.277,0.402
					c-0.504,0.735-1.002,1.495-1.492,2.282c-0.076,0.119-0.15,0.228-0.223,0.353c-0.527,0.854-1.039,1.756-1.547,2.685
					c-0.113,0.211-0.225,0.42-0.338,0.635c-0.512,0.963-1.01,1.955-1.5,2.996c-0.219,0.106-0.43,0.227-0.648,0.328
					c-2.807,1.239-5.863,1.881-8.938,1.881c-0.674,0-1.344-0.039-2.018-0.097c0,0,0-0.006-0.006-0.006
					c-4.66-0.42-8.908-2.282-12.291-5.144c-0.031-0.022-0.062-0.051-0.096-0.067c-5.363-4.379-8.785-11.026-8.785-18.494
					c0-7.816,3.773-14.73,9.584-19.082c0.451-0.123,0.816-0.254,0.932-0.396c-0.039,0.006-0.076,0.023-0.115,0.029
					c-2.34,0.504-4.611,1.257-6.764,2.242c-0.006,0.006-0.014,0.012-0.02,0.012c-0.717,0.328-1.426,0.686-2.115,1.059
					c-0.066,0.041-0.125,0.08-0.189,0.119c-0.629,0.352-1.25,0.715-1.855,1.111c-0.154,0.096-0.297,0.209-0.453,0.322
					c-0.502,0.334-1.004,0.674-1.479,1.043c-0.277,0.209-0.529,0.436-0.793,0.65c-0.346,0.283-0.697,0.555-1.027,0.855
					c-0.588,0.521-1.15,1.07-1.689,1.631c-4.387,4.561-7.371,10.615-8.408,17.061c-0.016,0.096-0.102,0.17-0.197,0.17
					c-0.113-0.006-0.199-0.09-0.205-0.188c-0.18-3.148,0.289-6.434,1.365-9.498c1.205-3.428,3.166-6.615,5.682-9.227
					c0.346-0.363,0.725-0.686,1.088-1.031c-3.02-2.566-6.486-4.605-10.174-6.009c-1.229-0.465-2.48-0.867-3.754-1.184
					c-0.125,0.029-0.264,0.023-0.391-0.012c-0.439,0-0.943-0.176-1.4-0.299c-0.006,0-0.014,0-0.016,0
					c-0.742-0.154-1.488-0.279-2.232-0.375c-0.006-0.006-0.012-0.006-0.012-0.006c-0.443-0.051-0.867-0.045-1.309-0.057
					c-0.197,0-0.379-0.062-0.555-0.135c-0.883-0.068-1.764-0.113-2.656-0.113c-3.336,0-6.633,0.48-9.797,1.422
					c-6.062,1.8-11.703,5.437-15.881,10.251c-3.322,3.822-5.777,8.387-7.104,13.219c-0.316,1.15-0.568,2.322-0.768,3.506
					c-0.096,0.607-0.135,1.219-0.197,1.83c-0.066,0.585-0.156,1.156-0.193,1.732c-0.045,0.815-0.021,1.637-0.014,2.452
					c0.002,0.386-0.02,0.767-0.004,1.15c0.029,0.646,0.125,1.297,0.191,1.941c0.047,0.25,0.098,0.5,0.154,0.748
					c-0.01,0.256-0.002,0.51,0,0.771c0.016,0.096,0.016,0.196,0.029,0.288c0.697,4.515,2.379,8.972,4.859,12.914
					c2.146,3.408,4.961,6.474,8.145,8.959c3.215-1.317,6.865-1.75,10.281-1.229c0.051-0.86,0.146-1.727,0.316-2.581
					c0.617-3.064,2.082-6.033,4.123-8.345c1.848-2.106,4.16-3.731,6.689-4.701c0.094-0.032,0.199,0.007,0.246,0.091
					c0.049,0.092,0.025,0.198-0.059,0.262c-4.436,3.188-7.572,7.986-8.604,13.175c-1.07,5.217-0.057,10.862,2.781,15.485
					c0.053,0.084,0.037,0.196-0.045,0.267c-0.037,0.028-0.08,0.038-0.125,0.038c-0.055,0-0.102-0.016-0.143-0.057
					c-1.957-1.879-3.451-4.281-4.326-6.933c-0.652-1.987-0.918-4.078-0.861-6.162c-0.02,0-0.039,0-0.057,0l0.057-0.062
					c0,0-0.787-0.019-2.033,0.091c-1.037,0.062-2.062,0.215-3.07,0.43c-5.914,1.139-14.846,4.764-14.812,16.252
					c-0.066,1.381,0.031,2.774,0.326,4.135c0.035,0.17,0.088,0.4,0.156,0.65c0.074,0.276,0.168,0.533,0.266,0.766l52.693,1.891
					c-0.256-1.264-0.422-2.555-0.422-3.891c0-11.051,8.957-20.012,20.008-20.012c6.945,0,13.053,3.541,16.645,8.91
					c4.162-10.529,14.413-17.994,26.42-17.994c1.688,0,3.328,0.174,4.928,0.457c0.367-0.129,0.755-0.23,1.127-0.344
					C156.803,151.469,151.621,150.25,146.145,150.25z M156.305,119.875l0.76-0.34c-0.396,0.197-0.776,0.408-1.164,0.617
					L156.305,119.875z M59.478,145.879c-7.631-2.861-13.076-10.201-13.076-18.84c0-11.117,9.014-20.129,20.133-20.129
					c6.299,0,11.918,2.883,15.609,7.414c-5.441,6.082-9.141,13.729-10.443,22.18C66.894,138.588,62.708,141.834,59.478,145.879z
					 M73.978,146.631c-0.062-0.016-0.123-0.027-0.182-0.033c0.119-0.086,0.244-0.164,0.361-0.244
					C74.097,146.445,74.031,146.541,73.978,146.631z M75.416,167.865c-3.795-6.705-3.23-14.822,3.328-21.199
					c2.139-2.08,4.744-2.889,7.326-2.668c2.191,3.795,5.277,6.932,8.922,9.521C86.3,154.68,79.013,160.225,75.416,167.865z"/>
				<path fill="#ADD3F0" d="M210.074,162.078c7.668,2.6,14.205,7.674,18.623,14.283c-0.227-1.234-0.352-2.514-0.352-3.822
					c0-11.504,9.323-20.826,20.823-20.826c11.496,0,20.822,9.322,20.822,20.826c0,4.684-1.57,8.994-4.189,12.473
					c0.9-0.029,1.796-0.062,2.693-0.092c0.562-0.021,1.121-0.045,1.687-0.062l0.661-0.021c0.316-0.012,0.703-0.062,1.068-0.039
					l1.928-0.062l0.578-1.371c0.17-0.436,0.353-0.941,0.517-1.461c0-0.006,0-0.012,0-0.018c0.062-0.392,0.215-0.794,0.342-1.189
					c0.049-0.176,0.102-0.346,0.145-0.521c0.08-0.328,0.145-0.656,0.209-0.984c0.057-0.268,0.113-0.532,0.16-0.805
					c0.059-0.334,0.102-0.68,0.141-1.02c0.035-0.271,0.074-0.545,0.1-0.816c0.031-0.352,0.05-0.697,0.064-1.047
					c0.012-0.262,0.035-0.527,0.041-0.787c0.004-0.363-0.006-0.732-0.012-1.094c-0.006-0.256-0.006-0.504-0.018-0.76
					c-0.021-0.367-0.062-0.73-0.097-1.104c-0.022-0.243-0.034-0.487-0.062-0.735c-0.051-0.392-0.125-0.781-0.193-1.178
					c-0.037-0.212-0.062-0.433-0.107-0.646c-0.121-0.6-0.264-1.201-0.43-1.789c-1.574-5.664-5.285-10.791-10.182-14.076
					c-0.666-0.447-1.357-0.861-2.064-1.246c-0.176-0.096-0.357-0.182-0.533-0.271c-0.543-0.276-1.092-0.539-1.651-0.78
					c-0.177-0.067-0.353-0.144-0.533-0.222c-0.709-0.282-1.428-0.539-2.157-0.76c-1.15-0.34-2.322-0.604-3.507-0.781
					c-2.418-0.362-4.899-0.555-7.336-0.256c-1.135,0.138-2.26,0.353-3.371,0.642c-1.125,0.282-2.235,0.649-3.312,1.082
					c-2.162,0.866-4.213,2.021-6.064,3.426c-0.088,0.067-0.211,0.058-0.281-0.021c-0.067-0.092-0.059-0.211,0.021-0.283
					c3.914-3.506,8.991-5.762,14.315-6.389c-0.678-3.082-2.026-5.947-3.969-8.326c-2.287-2.838-5.439-5.041-8.869-6.187
					c-1.943-0.651-3.99-0.985-6.084-0.985c-1.596,0-3.188,0.198-4.729,0.584c-3.016,0.754-5.852,2.254-8.25,4.332
					c0.178,0.387,0.363,0.771,0.529,1.162c1.641,3.789,2.635,7.94,2.867,12.014c0.006,0.106-0.072,0.197-0.177,0.215
					c-0.006,0-0.006-0.006-0.006-0.006c-0.013,0-0.013,0.006-0.022,0.006c-0.09,0-0.177-0.062-0.197-0.158
					c-1.857-8.225-6.129-15.984-12.014-21.857c-0.681-0.68-1.386-1.338-2.113-1.973c-0.394-0.344-0.805-0.674-1.211-1.008
					c-0.31-0.248-0.619-0.51-0.937-0.752c-0.571-0.438-1.155-0.861-1.75-1.275c-0.137-0.096-0.276-0.197-0.414-0.289
					c-0.707-0.475-1.432-0.945-2.164-1.381c0-0.006-0.004-0.006-0.004-0.006c8.261,6.383,13.599,16.363,13.599,27.611
					c0,4.566-0.885,8.922-2.478,12.92C210.137,162.1,210.102,162.088,210.074,162.078z M228.787,133.678
					c7.223,0,13.09,5.789,13.229,12.982c-0.994,0.203-2.018,0.316-3.072,0.316c-7.395,0-13.5-5.433-14.59-12.523
					C225.744,133.961,227.23,133.678,228.787,133.678z"/>
			</g>
			<path fill="#231F20" d="M278.27,166.547c-1.778-6.4-6.01-12.115-11.6-15.695c-4.889-3.166-11-4.713-16.863-4.242
				c-0.215-3.172-1.291-6.338-3.065-8.989c-1.033-1.568-2.32-2.984-3.839-4.226c2.107-5.16,2.681-11.016,1.605-16.557
				c-1.277-6.83-5.168-13.275-10.664-17.671c-5.203-4.225-12.025-6.648-18.717-6.648c-0.281,0-0.561,0.006-0.834,0.006
				c-5.559,0.123-11.098,1.896-15.68,5.018c-1.644-2.135-3.555-3.959-5.674-5.432c-1.099-0.77-2.299-1.479-3.672-2.146
				c-0.101-0.051-0.207-0.092-0.31-0.131l-0.183-0.078c-0.453-0.205-0.914-0.402-1.383-0.584c-0.184-0.074-0.367-0.137-0.543-0.199
				c-3.166-1.133-6.455-1.682-9.672-1.523c-0.152-0.611-0.297-1.279-0.455-2.066c-0.195-1.008-0.396-2.051-0.695-3.088
				c-0.627-2.344-1.487-4.656-2.557-6.859c-2.215-4.598-5.408-8.857-9.244-12.312c-4.053-3.66-8.938-6.508-14.123-8.248
				c-5.408-1.818-11.247-2.463-16.995-1.869c-8.973,0.885-17.779,5.031-24.17,11.375c-5.73,5.617-9.691,12.971-11.193,20.775
				c-0.994-0.205-1.963-0.295-2.949-0.295c-3.869,0-7.68,1.285-10.729,3.619c-2.23,1.676-4.074,3.902-5.326,6.434
				c-0.818,1.66-1.367,3.508-1.604,5.393c-5.943-1.541-12.305-1.473-18.195,0.148c-6.684,1.818-12.891,5.726-17.469,11.009
				c-3.646,4.18-6.291,9.211-7.646,14.518c-1.307,5.092-1.473,10.512-0.463,15.672c0.922,4.826,2.934,9.521,5.805,13.578
				c2.141,3.012,4.832,5.735,7.828,7.945c-3.336,1.502-6.186,4-8.088,7.098c-2.51,3.992-3.371,8.955-2.363,13.594
				c0.113,0.51,0.23,0.975,0.361,1.404l0.041,0.147c0.051,0.17,0.104,0.334,0.242,0.729l0.24,0.687
				c0.033,0.078,0.135,0.312,0.439,0.479l0.166,0.091h56.52l-0.264-0.729h-0.773c-0.027-0.072-0.084-0.136-0.172-0.136L40.07,184.63
				c-0.098-0.231-0.191-0.487-0.266-0.767c-0.068-0.25-0.121-0.479-0.156-0.649c-0.295-1.358-0.393-2.754-0.326-4.135
				c-0.033-11.488,8.898-15.113,14.812-16.252c1.008-0.216,2.033-0.367,3.07-0.431c1.246-0.106,2.033-0.09,2.033-0.09
				s-0.057,0.062,0,0.062c-0.057,2.084,0.209,4.174,0.861,6.162c0.875,2.65,2.369,5.053,4.326,6.932
				c0.041,0.041,0.088,0.057,0.143,0.057c0.045,0,0.088-0.01,0.125-0.039c0.082-0.067,0.098-0.182,0.045-0.266
				c-2.838-4.623-3.852-10.27-2.781-15.486c1.031-5.188,4.168-9.985,8.604-13.174c0.084-0.062,0.107-0.17,0.059-0.262
				c-0.047-0.084-0.152-0.123-0.246-0.09c-2.529,0.969-4.842,2.594-6.689,4.701c-2.041,2.311-3.506,5.279-4.123,8.344
				c-0.17,0.855-0.266,1.721-0.316,2.582c-3.416-0.521-7.066-0.09-10.281,1.229c-3.184-2.485-5.998-5.551-8.145-8.959
				c-2.48-3.942-4.162-8.399-4.859-12.914c-0.76-4.793-0.479-9.783,0.801-14.421c1.326-4.832,3.781-9.396,7.104-13.219
				c4.178-4.814,9.818-8.451,15.881-10.251c3.164-0.941,6.461-1.422,9.797-1.422c2.775,0,5.521,0.328,8.18,0.984
				c0.127,0.035,0.266,0.041,0.391,0.012c5.082,1.285,9.9,3.777,13.93,7.193c-0.365,0.346-0.744,0.668-1.09,1.031
				c-2.516,2.611-4.477,5.799-5.682,9.227c-1.076,3.064-1.545,6.35-1.365,9.498c0.006,0.098,0.092,0.182,0.205,0.188
				c0.096,0,0.182-0.074,0.197-0.17c1.037-6.445,4.021-12.5,8.408-17.061c4.336-4.553,10.262-7.793,16.682-9.119
				c0.1-0.021,0.166-0.113,0.16-0.215c-0.008-0.107-0.092-0.188-0.199-0.188c-3.131-0.051-6.422,0.561-9.42,1.767
				c-2.785,1.1-5.367,2.748-7.625,4.74c-3.854-3.805-8.643-6.666-13.855-8.263c-0.023-0.021-0.061-0.033-0.088-0.051
				c1.506-4.162,4.176-7.85,7.609-10.428c3.48-2.656,7.816-4.207,12.273-4.434c-0.441,2.77-0.592,5.602-0.43,8.422
				c0.006,0.102,0.09,0.188,0.203,0.188c0.107,0,0.199-0.092,0.199-0.199c0.045-2.781,0.367-5.539,0.957-8.207
				c0.096-0.086,0.16-0.193,0.191-0.328c1.711-7.613,5.807-14.732,11.533-20.045c6.156-5.789,14.154-9.426,22.52-10.258
				c1.32-0.137,2.666-0.205,3.994-0.205c4.011,0,7.961,0.607,11.741,1.807c4.826,1.529,9.438,4.068,13.322,7.348
				c3.707,3.115,6.887,6.994,9.209,11.227c1.123,2.049,2.067,4.201,2.811,6.404c0.334,0.936,0.588,1.904,0.836,2.85
				c0.24,0.879,0.498,1.768,0.801,2.645c-5.1,0.375-10.02,2.379-13.854,5.648c-0.088,0.068-0.098,0.186-0.035,0.271
				c0.062,0.084,0.182,0.113,0.266,0.057c4.105-2.594,8.979-4.039,13.726-4.072h0.35c3.062,0,6.113,0.584,8.972,1.654
				c0.781,0.316,1.553,0.65,2.305,1.02c0.633,0.311,1.262,0.662,1.885,1.014c0.463,0.283,0.92,0.572,1.365,0.883
				c4.332,3.02,7.682,7.414,9.43,12.386c1.506,4.232,1.863,8.99,1.059,13.486c-1.217-0.701-2.461-1.336-3.727-1.885
				c-3.789-1.654-7.941-2.656-12.014-2.9c-0.102,0-0.197,0.068-0.215,0.176c-0.012,0.107,0.057,0.203,0.158,0.227
				c8.219,1.875,15.973,6.168,21.83,12.07c5.885,5.874,10.155,13.633,12.014,21.857c0.021,0.096,0.106,0.158,0.227,0.158
				c0.104-0.019,0.182-0.107,0.176-0.216c-0.231-4.071-1.227-8.225-2.867-12.014c-0.166-0.391-0.352-0.775-0.528-1.162
				c2.397-2.078,5.233-3.578,8.25-4.332c1.541-0.385,3.133-0.584,4.729-0.584c2.094,0,4.141,0.334,6.084,0.986
				c3.43,1.145,6.582,3.348,8.868,6.186c1.941,2.379,3.291,5.244,3.97,8.326c-5.324,0.627-10.402,2.883-14.316,6.389
				c-0.078,0.072-0.088,0.191-0.02,0.283c0.069,0.078,0.192,0.09,0.28,0.021c3.687-2.803,8.15-4.588,12.748-5.148
				c2.437-0.299,4.918-0.106,7.336,0.256c2.328,0.353,4.619,1.021,6.767,1.998c1.283,0.578,2.518,1.271,3.682,2.062
				c4.896,3.285,8.607,8.412,10.182,14.076c1.305,4.639,1.234,9.707-0.213,14.277c-0.182,0.602-0.398,1.186-0.586,1.678
				l-0.578,1.371l-51.963,1.807c-0.084,0-0.146,0.062-0.172,0.135h-0.773l-0.254,0.73h55.139l0.992-2.027l0.386-0.895
				c0.227-0.543,0.479-1.189,0.696-1.857C279.611,177.5,279.748,171.785,278.27,166.547z M236.496,130.643
				c-1.902-0.641-3.902-0.969-5.943-0.969c-2.115,0-4.258,0.361-6.193,1.053c-3.133,1.105-5.926,3.088-7.965,5.613
				c-1.77-3.574-4.174-6.934-7.028-9.799c-2.185-2.191-4.666-4.111-7.308-5.691c1.521-4.566,1.644-9.629,0.312-14.336
				c-0.742-2.673-1.986-5.234-3.605-7.544c4.438-2.459,9.564-3.824,14.57-3.824c0.32,0,0.643,0.006,0.963,0.018
				c6.381,0.164,12.615,2.469,17.551,6.469c4.98,3.992,8.562,9.583,10.084,15.751c1.297,5.176,1.15,10.773-0.367,15.898
				C240.012,132.154,238.299,131.242,236.496,130.643z"/>
		</g>
		<g>
			<path fill="#ADD3F0" d="M156.016,209.383l2.578,2.703l-1.807,3.24l1.492,0.838l1.945-3.449l1.397-0.182l-1.127,2.689l3.021-0.431
				l-0.603,1.442l-3.83,0.97l0.422,1.666l3.603-0.925l1.93,3.224l1.475-0.864l-2.014-3.41l0.566-1.359l1.725,2.277l1.109-2.771
				l1.016,1.324l-1.055,3.743l1.647,0.466l0.996-3.574l3.763-0.062l-0.019-1.717l-4.019,0.041l-0.963-1.246l2.902-0.375
				l-1.814-2.306l1.576-0.198l2.769,2.832l1.227-1.193l-2.352-2.414l-0.255-0.266l1.832-3.265l-1.489-0.838l-1.938,3.438
				l-1.615,0.215l1.149-2.742l-2.813,0.396l0.572-1.371l3.838-0.969l-0.429-1.664l-3.625,0.906L166.896,201l-1.474,0.873
				l2.013,3.404l-0.621,1.484l-1.851-2.437l-1.063,2.655l-0.867-1.127l1.076-3.801l-1.648-0.471l-1.039,3.598l-3.723,0.045
				l0.02,1.711l3.955-0.041l0.924,1.207l-3.014,0.379l1.842,2.357l-1.428,0.182l-2.752-2.832L156.016,209.383z M163.99,211.32
				l-1.189-1.519l1.916-0.237l0.713-1.795l1.172,1.535l1.904-0.271l-0.742,1.777l1.189,1.518l-1.908,0.244l-0.721,1.791
				l-1.166-1.535l-1.908,0.271L163.99,211.32z"/>
			<path fill="#ADD3F0" d="M142.807,241.227l2.578,2.697l-1.811,3.238l1.496,0.84l1.945-3.445l1.403-0.18l-1.133,2.689l3.021-0.43
				l-0.601,1.442l-3.832,0.969l0.422,1.666l3.603-0.93l1.926,3.229l1.479-0.867l-2.014-3.408l0.566-1.365l1.725,2.281l1.107-2.775
				l1.018,1.326l-1.061,3.744l1.647,0.465l1.004-3.574l3.761-0.062l-0.017-1.711l-4.021,0.035l-0.959-1.246l2.903-0.375
				l-1.817-2.305l1.576-0.199l2.766,2.838l1.223-1.194l-2.346-2.418l-0.256-0.261l1.834-3.264l-1.494-0.844l-1.936,3.438
				l-1.611,0.218l1.146-2.736l-2.813,0.396l0.565-1.371l3.841-0.969l-0.425-1.664l-3.629,0.9l-1.899-3.207l-1.474,0.873l2.009,3.41
				l-0.617,1.479l-1.851-2.436l-1.069,2.662l-0.859-1.133l1.076-3.801l-1.648-0.472l-1.039,3.599l-3.725,0.045l0.016,1.711
				l3.961-0.035l0.922,1.207l-3.014,0.379l1.842,2.352l-1.428,0.18l-2.756-2.832L142.807,241.227z M150.783,243.164l-1.189-1.518
				l1.914-0.244l0.713-1.789l1.174,1.535l1.902-0.273l-0.748,1.779l1.195,1.518l-1.914,0.238l-0.715,1.795l-1.166-1.535
				l-1.908,0.268L150.783,243.164z"/>
		</g>
		<g>
			<path fill="#ADD3F0" d="M188.859,209.383l2.574,2.703l-1.808,3.24l1.49,0.838l1.946-3.449l1.398-0.182l-1.127,2.689l3.02-0.431
				l-0.598,1.442l-3.834,0.97l0.422,1.666l3.602-0.925l1.927,3.224l1.479-0.864l-2.015-3.41l0.57-1.359l1.721,2.277l1.106-2.771
				l1.019,1.324l-1.058,3.743l1.65,0.466l0.998-3.574l3.76-0.062l-0.016-1.717l-4.02,0.041l-0.963-1.246l2.901-0.375l-1.813-2.306
				l1.576-0.198l2.766,2.832l1.229-1.193l-2.352-2.414l-0.254-0.266l1.832-3.265l-1.49-0.838l-1.945,3.438l-1.607,0.215l1.148-2.742
				l-2.813,0.396l0.571-1.371l3.838-0.969l-0.422-1.664l-3.631,0.906L199.736,201l-1.473,0.873l2.008,3.404l-0.619,1.484
				l-1.848-2.437l-1.064,2.655l-0.865-1.127l1.076-3.801l-1.648-0.471l-1.043,3.598l-3.719,0.045l0.014,1.711l3.961-0.041
				l0.92,1.207l-3.014,0.379l1.844,2.357l-1.428,0.182l-2.752-2.832L188.859,209.383z M196.834,211.32l-1.191-1.519l1.91-0.237
				l0.715-1.795l1.176,1.535l1.902-0.271l-0.742,1.777l1.189,1.518l-1.908,0.244l-0.721,1.791l-1.166-1.535l-1.912,0.271
				L196.834,211.32z"/>
			<path fill="#ADD3F0" d="M175.648,241.227l2.576,2.697l-1.812,3.238l1.496,0.84l1.947-3.445l1.399-0.18l-1.127,2.689l3.019-0.43
				l-0.601,1.442l-3.832,0.969l0.423,1.666l3.602-0.93l1.93,3.229l1.475-0.867l-2.014-3.408l0.566-1.365l1.725,2.281l1.111-2.775
				l1.014,1.326l-1.059,3.744l1.647,0.465l1.002-3.574l3.761-0.062l-0.017-1.711l-4.024,0.035l-0.957-1.246l2.901-0.375
				l-1.813-2.305l1.578-0.199l2.764,2.838l1.223-1.194l-2.344-2.418l-0.258-0.261l1.834-3.264l-1.494-0.844l-1.938,3.438
				l-1.611,0.218l1.146-2.736l-2.812,0.396l0.566-1.371l3.838-0.969l-0.422-1.664l-3.625,0.9l-1.902-3.207l-1.473,0.873l2.01,3.41
				l-0.623,1.479l-1.846-2.436l-1.07,2.662l-0.861-1.133l1.076-3.801l-1.648-0.472l-1.039,3.599l-3.725,0.045l0.014,1.711
				l3.963-0.035l0.922,1.207l-3.012,0.379l1.84,2.352l-1.428,0.18l-2.754-2.832L175.648,241.227z M183.623,243.164l-1.189-1.518
				l1.912-0.244l0.715-1.789l1.174,1.535l1.902-0.273l-0.748,1.779l1.195,1.518l-1.914,0.238l-0.713,1.795l-1.168-1.535l-1.91,0.268
				L183.623,243.164z"/>
		</g>
		<g>
			<path fill="#ADD3F0" d="M221.697,209.383l2.582,2.703l-1.812,3.24l1.49,0.838l1.947-3.449l1.402-0.182l-1.129,2.689l3.018-0.431
				l-0.6,1.442l-3.834,0.97l0.422,1.666l3.604-0.925l1.932,3.224l1.473-0.864l-2.014-3.41l0.57-1.359l1.721,2.277l1.111-2.771
				l1.014,1.324l-1.057,3.743l1.65,0.466l0.998-3.574l3.764-0.062l-0.02-1.717l-4.021,0.041l-0.959-1.246l2.897-0.375l-1.812-2.306
				l1.575-0.198l2.771,2.832l1.224-1.193l-2.351-2.414L239,210.098l1.836-3.264l-1.496-0.838l-1.939,3.439l-1.61,0.215l1.149-2.742
				l-2.815,0.396l0.571-1.371l3.834-0.97l-0.418-1.664l-3.631,0.906L232.578,201l-1.477,0.873l2.014,3.404l-0.623,1.484
				l-1.846-2.437l-1.066,2.655l-0.863-1.127l1.074-3.801l-1.648-0.471l-1.043,3.598l-3.719,0.045l0.016,1.711l3.959-0.041
				l0.922,1.207l-3.012,0.379l1.84,2.357l-1.428,0.182l-2.752-2.832L221.697,209.383z M229.674,211.32l-1.191-1.519l1.914-0.237
				l0.713-1.795l1.175,1.535l1.901-0.271l-0.744,1.777l1.195,1.518l-1.914,0.244l-0.717,1.791l-1.168-1.535l-1.91,0.271
				L229.674,211.32z"/>
			<path fill="#ADD3F0" d="M208.484,241.227l2.58,2.697l-1.812,3.238l1.502,0.84l1.943-3.445l1.4-0.18l-1.13,2.689l3.019-0.43
				l-0.601,1.442l-3.834,0.969l0.423,1.666l3.604-0.93l1.926,3.229l1.479-0.867l-2.015-3.408l0.562-1.365l1.729,2.281l1.107-2.775
				l1.014,1.326l-1.062,3.744l1.652,0.465l1.002-3.574l3.762-0.062l-0.018-1.711l-4.021,0.035l-0.957-1.246l2.9-0.375l-1.815-2.305
				l1.577-0.199l2.765,2.838l1.228-1.194l-2.349-2.418l-0.256-0.261l1.834-3.264l-1.494-0.844l-1.938,3.438l-1.611,0.218l1.15-2.736
				l-2.816,0.396l0.57-1.371l3.838-0.969l-0.426-1.664l-3.625,0.9l-1.902-3.207l-1.477,0.873l2.008,3.41l-0.617,1.479l-1.846-2.436
				l-1.068,2.662l-0.863-1.133l1.076-3.801l-1.648-0.472l-1.037,3.599l-3.727,0.045l0.018,1.711l3.959-0.035l0.924,1.207
				l-3.014,0.379l1.84,2.352l-1.424,0.18l-2.756-2.832L208.484,241.227z M216.463,243.164l-1.189-1.518l1.914-0.244l0.717-1.789
				l1.171,1.535l1.901-0.273l-0.746,1.779l1.197,1.518l-1.914,0.238l-0.717,1.795l-1.168-1.535l-1.91,0.268L216.463,243.164z"/>
		</g>
	</g>
</g>
</svg>
