<?xml version="1.0" encoding="utf-8"?>
<!-- Generator: Adobe Illustrator 15.0.2, SVG Export Plug-In . SVG Version: 6.00 Build 0)  -->
<!DOCTYPE svg PUBLIC "-//W3C//DTD SVG 1.1//EN" "http://www.w3.org/Graphics/SVG/1.1/DTD/svg11.dtd">
<svg version="1.1" id="Layer_1" xmlns="http://www.w3.org/2000/svg" xmlns:xlink="http://www.w3.org/1999/xlink" x="0px" y="0px"
	 width="280px" height="260px" viewBox="0 0 280 260" enable-background="new 0 0 280 260" xml:space="preserve">
<g>
	<path fill="#FFFFFF" d="M187.32,136.029c-3.664,26.287-27.945,44.627-54.226,40.957c-26.285-3.658-44.619-27.945-40.955-54.228
		c3.668-26.287,27.947-44.617,54.228-40.951C172.645,85.473,190.986,109.748,187.32,136.029z"/>
	<g>
		<g>
			<path fill="#FFD88C" d="M203.902,143.201c8.606-1.932,19.559-2.119,32.758-0.277c-12.611-1.762-22.74-4.742-30.385-8.678h0.014
				c-12.672-6.293-10.139-19.514,8.508-24.35c-18.08,4.684-26.756-4.883-19.943-16.092c4.726-7.459,12.338-15.35,22.98-23.381
				c-10.377,7.832-19.822,12.936-28.137,15.502c-13.078,4.049-20.32-6.99-10.688-23.369c-9.426,16.029-22.258,15.457-25.432,2.865
				c-1.97-8.643-2.177-19.66-0.32-32.953c-1.83,13.117-4.983,23.539-9.159,31.277c-6.46,11.57-19.107,8.732-23.821-9.42
				c4.697,18.102-4.906,26.773-16.143,19.908l0.027,0.051c-7.467-4.717-15.355-12.336-23.404-22.996
				c7.672,10.162,12.727,19.439,15.344,27.625c4.52,13.406-6.625,20.957-23.223,11.197c16.074,9.453,15.457,22.334,2.758,25.471
				c-8.621,1.943-19.598,2.143-32.84,0.295c12.631,1.762,22.77,4.746,30.412,8.689h-0.045c12.676,6.275,10.137,19.505-8.498,24.344
				c18.059-4.685,26.734,4.864,19.951,16.062c-4.725,7.467-12.34,15.355-22.99,23.398c10.178-7.691,19.467-12.744,27.666-15.361
				l-0.023,0.012c13.408-4.514,20.963,6.627,11.205,23.234c9.355-15.916,22.055-15.457,25.354-3.143
				c2.023,8.676,2.246,19.789,0.371,33.219c1.762-12.613,4.738-22.736,8.678-30.377l-0.002,0.006
				c6.283-12.676,19.505-10.145,24.346,8.502c-4.689-18.09,4.896-26.768,16.122-19.932c7.451,4.729,15.328,12.336,23.359,22.973
				c-7.673-10.16-12.728-19.432-15.351-27.623l0.012,0.012c-4.516-13.406,6.634-20.963,23.236-11.197
				C190.492,159.213,191.131,146.299,203.902,143.201z M187.32,136.029c-3.664,26.287-27.945,44.627-54.226,40.957
				c-26.285-3.658-44.619-27.945-40.955-54.228c3.668-26.287,27.947-44.617,54.228-40.951
				C172.645,85.473,190.986,109.748,187.32,136.029z"/>
			<path fill="#FEC343" d="M178.092,134.75c-2.955,21.184-22.529,35.967-43.71,33.016c-21.188-2.957-35.971-22.531-33.018-43.715
				c2.957-21.189,22.529-35.973,43.714-33.016C166.266,93.992,181.049,113.561,178.092,134.75z"/>
		</g>
	</g>
</g>
</svg>
