<?xml version="1.0" encoding="utf-8"?>
<!-- Generator: Adobe Illustrator 15.0.2, SVG Export Plug-In . SVG Version: 6.00 Build 0)  -->
<!DOCTYPE svg PUBLIC "-//W3C//DTD SVG 1.1//EN" "http://www.w3.org/Graphics/SVG/1.1/DTD/svg11.dtd">
<svg version="1.1" id="Layer_1" xmlns="http://www.w3.org/2000/svg" xmlns:xlink="http://www.w3.org/1999/xlink" x="0px" y="0px"
	 width="280px" height="260px" viewBox="0 0 280 260" enable-background="new 0 0 280 260" xml:space="preserve">
<g>
	<g>
		<path fill="#3479BE" d="M33.889,147.113c34.459,1.498,74.74,2.365,117.777,2.365c43.047,0,83.324-0.867,117.779-2.365
			c-34.455-1.498-74.732-2.355-117.779-2.355C108.629,144.758,68.348,145.615,33.889,147.113z"/>
		<path fill="#3479BE" d="M31.41,140.152c35.408,1.496,76.793,2.355,121.021,2.355c44.228,0,85.612-0.859,121.021-2.355
			c-35.405-1.504-76.791-2.361-121.021-2.361C108.203,137.791,66.819,138.648,31.41,140.152z"/>
		<path fill="#3479BE" d="M35.25,133.186c35.326,1.498,76.623,2.359,120.746,2.359c44.139,0,85.434-0.861,120.762-2.359
			c-35.328-1.504-76.623-2.367-120.762-2.367C111.873,130.818,70.576,131.682,35.25,133.186z"/>
		<path fill="#3479BE" d="M19.793,126.223c37.797,1.494,81.967,2.359,129.178,2.359c47.209,0,91.383-0.865,129.178-2.359
			c-37.795-1.502-81.969-2.363-129.178-2.363C101.76,123.859,57.59,124.721,19.793,126.223z"/>
		<path fill="#3479BE" d="M10.12,119.25c38.025,1.506,82.461,2.367,129.955,2.367c47.497,0,91.935-0.861,129.954-2.367
			c-38.021-1.498-82.457-2.357-129.954-2.357C92.581,116.893,48.146,117.752,10.12,119.25z"/>
		<path fill="#3479BE" d="M9.909,112.291c37.402,1.492,81.135,2.359,127.86,2.359c46.728,0,90.454-0.867,127.86-2.359
			c-37.406-1.498-81.132-2.365-127.86-2.365C91.044,109.926,47.312,110.793,9.909,112.291z"/>
		<path fill="#3479BE" d="M4.105,105.324c39.813,1.502,86.359,2.361,136.095,2.361c49.737,0,96.282-0.859,136.093-2.361
			c-39.811-1.498-86.355-2.359-136.093-2.359C90.464,102.965,43.918,103.826,4.105,105.324z"/>
		<path fill="#3479BE" d="M1.339,98.357c38.748,1.498,84.036,2.359,132.432,2.359c48.405,0,93.684-0.861,132.436-2.359
			c-38.752-1.498-84.031-2.365-132.436-2.365C85.375,95.992,40.087,96.859,1.339,98.357z"/>
		<path fill="#3479BE" d="M19.234,91.391c33.574,1.504,72.814,2.367,114.75,2.367c41.941,0,81.178-0.863,114.737-2.367
			c-33.56-1.498-72.796-2.354-114.737-2.354C92.048,89.037,52.808,89.893,19.234,91.391z"/>
		<path fill="#3479BE" d="M19.833,84.432c32.354,1.496,70.178,2.357,110.596,2.357c40.42,0,78.241-0.861,110.579-2.357
			c-32.338-1.506-70.158-2.363-110.579-2.363C90.011,82.068,52.187,82.926,19.833,84.432z"/>
		<path fill="#3479BE" d="M6.485,77.463c35.393,1.498,76.771,2.359,120.984,2.359c44.223,0,85.596-0.861,121-2.359
			c-35.402-1.498-76.775-2.359-121-2.359C83.256,75.104,41.877,75.965,6.485,77.463z"/>
		<path fill="#3479BE" d="M25.44,70.502c30.236,1.496,65.559,2.355,103.316,2.355c37.755,0,73.094-0.859,103.324-2.355
			c-30.23-1.502-65.568-2.365-103.324-2.365C90.998,68.137,55.676,69,25.44,70.502z"/>
		<path fill="#3479BE" d="M51.001,63.529c23.217,1.504,50.35,2.367,79.348,2.367c29.004,0,56.137-0.863,79.354-2.367
			c-23.217-1.5-50.35-2.359-79.354-2.359C101.351,61.17,74.218,62.029,51.001,63.529z"/>
		<path fill="#3479BE" d="M55.275,56.568c20.506,1.492,44.475,2.361,70.092,2.361c25.619,0,49.59-0.869,70.102-2.361
			c-20.512-1.498-44.479-2.359-70.102-2.359C99.749,54.209,75.781,55.07,55.275,56.568z"/>
		<path fill="#3479BE" d="M54.165,49.604c19.006,1.498,41.23,2.365,64.973,2.365c23.747,0,45.959-0.867,64.969-2.365
			c-19.01-1.5-41.226-2.357-64.969-2.357C95.396,47.246,73.171,48.104,54.165,49.604z"/>
		<path fill="#3479BE" d="M60.825,42.641c18.033,1.498,39.117,2.355,61.642,2.355c22.533,0,43.613-0.857,61.648-2.355
			C166.08,41.137,145,40.28,122.467,40.28C99.943,40.279,78.859,41.137,60.825,42.641z"/>
		<path fill="#3479BE" d="M77.129,35.674c14.436,1.498,31.307,2.365,49.345,2.365c18.032,0,34.905-0.867,49.34-2.365
			c-14.438-1.498-31.312-2.359-49.34-2.359C108.436,33.314,91.565,34.176,77.129,35.674z"/>
		<path fill="#3479BE" d="M92.262,28.709c9.641,1.502,20.899,2.363,32.937,2.363c12.039,0,23.303-0.861,32.941-2.363
			c-9.642-1.504-20.905-2.361-32.941-2.361C113.161,26.348,101.903,27.205,92.262,28.709z"/>
	</g>
	<path fill="#FFFFFF" d="M190.889,117.955c0.217,0.107,0.438,0.205,0.646,0.322c0.006-0.039,0.006-0.078,0.013-0.117
		C191.332,118.092,191.111,118.023,190.889,117.955z"/>
	<path fill="#FFFFFF" d="M173.863,114.297c4.922,0,9.652,0.809,14.076,2.299c-4.027-1.619-8.424-2.52-13.027-2.52
		c-1.941,0-3.842,0.164-5.693,0.469C170.742,114.381,172.295,114.297,173.863,114.297z"/>
	<path fill="#FFFFFF" d="M275.438,166.326c-1.776-6.4-6.01-12.121-11.604-15.695c-4.883-3.166-11-4.717-16.857-4.248
		c-0.216-3.172-1.293-6.338-3.062-8.988c-1.033-1.562-2.322-2.98-3.84-4.225c2.105-5.16,2.68-11.018,1.607-16.557
		c-1.281-6.826-5.173-13.271-10.668-17.672c-5.205-4.227-12.023-6.65-18.719-6.65c-0.281,0-0.562,0.006-0.834,0.012
		c-5.559,0.125-11.102,1.893-15.684,5.014c-1.646-2.131-3.553-3.955-5.674-5.434c-1.102-0.77-2.297-1.473-3.674-2.141
		c-0.102-0.057-0.201-0.096-0.307-0.135l-0.184-0.074c-0.451-0.209-0.912-0.408-1.383-0.59c-0.188-0.066-0.367-0.129-0.543-0.191
		c-3.166-1.139-6.457-1.688-9.675-1.529c-0.153-0.607-0.295-1.281-0.452-2.068c-0.193-1.008-0.396-2.051-0.697-3.086
		c-0.627-2.346-1.488-4.65-2.555-6.854c-2.216-4.605-5.41-8.865-9.244-12.32c-4.056-3.658-8.938-6.508-14.125-8.24
		c-5.41-1.818-11.246-2.471-16.994-1.875c-8.973,0.883-17.781,5.029-24.17,11.373c-5.734,5.619-9.693,12.971-11.197,20.775
		c-0.992-0.197-1.959-0.295-2.945-0.295c-3.869,0-7.68,1.287-10.729,3.625c-2.234,1.678-4.074,3.898-5.33,6.43
		c-0.818,1.666-1.363,3.512-1.6,5.393c-5.947-1.535-12.305-1.467-18.197,0.146c-6.682,1.824-12.889,5.732-17.467,11.018
		c-3.646,4.18-6.293,9.203-7.646,14.516c-1.309,5.093-1.473,10.515-0.463,15.675c0.922,4.823,2.93,9.521,5.805,13.569
		c2.139,3.015,4.832,5.744,7.828,7.953c-3.336,1.494-6.186,3.992-8.092,7.097c-2.506,3.993-3.367,8.948-2.359,13.588
		c0.113,0.519,0.227,0.978,0.357,1.405l0.045,0.152c0.051,0.17,0.102,0.334,0.242,0.725l0.24,0.687
		c0.033,0.08,0.135,0.315,0.436,0.481l0.17,0.097h29.84h26.682h126.12h2.338h52.803l0.99-2.024l0.387-0.896
		c0.225-0.543,0.479-1.188,0.693-1.855C276.779,177.281,276.916,171.566,275.438,166.326z"/>
	<g>
		<path fill="#ADD3F0" d="M61.808,209.125l2.58,2.695l-1.807,3.24l1.488,0.844l1.947-3.443l1.4-0.188l-1.133,2.691l3.025-0.438
			l-0.6,1.443l-3.836,0.967l0.422,1.66l3.605-0.918l1.926,3.221l1.473-0.865l-2.008-3.396l0.564-1.365l1.727,2.271l1.105-2.764
			l1.02,1.316l-1.061,3.742l1.648,0.467l1-3.574l3.764-0.062l-0.018-1.711l-4.021,0.041l-0.963-1.252l2.906-0.369l-1.814-2.305
			l1.576-0.209l2.766,2.844l1.225-1.192l-2.354-2.414l-0.254-0.263l1.838-3.271l-1.492-0.834l-1.943,3.438l-1.607,0.209l1.146-2.738
			l-2.814,0.404l0.57-1.377l3.838-0.973l-0.424-1.66l-3.629,0.902l-1.9-3.201l-1.475,0.867l2.008,3.398l-0.617,1.49l-1.848-2.436
			l-1.066,2.653l-0.865-1.134l1.076-3.801l-1.65-0.469l-1.039,3.602l-3.725,0.039l0.02,1.717l3.959-0.045l0.922,1.211l-3.012,0.38
			l1.842,2.349l-1.428,0.188l-2.752-2.832L61.808,209.125z M69.786,211.055l-1.189-1.512l1.91-0.238l0.717-1.801l1.168,1.541
			l1.908-0.271l-0.748,1.777l1.195,1.514l-1.914,0.242l-0.717,1.797l-1.164-1.541l-1.914,0.277L69.786,211.055z"/>
		<path fill="#ADD3F0" d="M48.613,241.014l2.58,2.695l-1.809,3.234l1.492,0.844l1.945-3.443l1.398-0.182l-1.127,2.689l3.021-0.434
			l-0.602,1.445l-3.832,0.967l0.422,1.66l3.602-0.928l1.926,3.229l1.479-0.871l-2.01-3.403l0.566-1.363l1.721,2.275l1.111-2.771
			l1.014,1.323l-1.061,3.744l1.654,0.465l0.998-3.573l3.764-0.062l-0.021-1.711l-4.021,0.031l-0.957-1.243l2.9-0.375l-1.812-2.308
			l1.574-0.196l2.766,2.841l1.229-1.195l-2.352-2.42l-0.254-0.26l1.834-3.266l-1.494-0.848l-1.943,3.438l-1.605,0.216l1.146-2.742
			l-2.814,0.401l0.572-1.37l3.834-0.968l-0.422-1.666l-3.627,0.899l-1.904-3.205l-1.473,0.871l2.008,3.41l-0.617,1.479l-1.85-2.438
			l-1.064,2.662l-0.867-1.133l1.076-3.803l-1.646-0.471l-1.041,3.598l-3.723,0.046l0.02,1.712l3.955-0.035l0.924,1.207l-3.014,0.379
			l1.842,2.348l-1.424,0.188l-2.756-2.832L48.613,241.014z M56.589,242.949l-1.189-1.518l1.914-0.244l0.713-1.789l1.172,1.535
			l1.904-0.271l-0.748,1.777l1.201,1.514l-1.914,0.242l-0.721,1.797l-1.166-1.541l-1.908,0.271L56.589,242.949z"/>
		<path fill="#ADD3F0" d="M61.808,209.125l2.58,2.695l-1.807,3.24l1.488,0.844l1.947-3.443l1.4-0.188l-1.133,2.691l3.025-0.438
			l-0.6,1.443l-3.836,0.967l0.422,1.66l3.605-0.918l1.926,3.221l1.473-0.865l-2.008-3.396l0.564-1.365l1.727,2.271l1.105-2.764
			l1.02,1.316l-1.061,3.742l1.648,0.467l1-3.574l3.764-0.062l-0.018-1.711l-4.021,0.041l-0.963-1.252l2.906-0.369l-1.814-2.305
			l1.576-0.209l2.766,2.844l1.225-1.192l-2.354-2.414l-0.254-0.263l1.838-3.271l-1.492-0.834l-1.943,3.438l-1.607,0.209l1.146-2.738
			l-2.814,0.404l0.57-1.377l3.838-0.973l-0.424-1.66l-3.629,0.902l-1.9-3.201l-1.475,0.867l2.008,3.398l-0.617,1.49l-1.848-2.436
			l-1.066,2.653l-0.865-1.134l1.076-3.801l-1.65-0.469l-1.039,3.602l-3.725,0.039l0.02,1.717l3.959-0.045l0.922,1.211l-3.012,0.38
			l1.842,2.349l-1.428,0.188l-2.752-2.832L61.808,209.125z M69.786,211.055l-1.189-1.512l1.91-0.238l0.717-1.801l1.168,1.541
			l1.908-0.271l-0.748,1.777l1.195,1.514l-1.914,0.242l-0.717,1.797l-1.164-1.541l-1.914,0.277L69.786,211.055z"/>
		<path fill="#ADD3F0" d="M48.613,241.014l2.58,2.695l-1.809,3.234l1.492,0.844l1.945-3.443l1.398-0.182l-1.127,2.689l3.021-0.434
			l-0.602,1.445l-3.832,0.967l0.422,1.66l3.602-0.928l1.926,3.229l1.479-0.871l-2.01-3.403l0.566-1.363l1.721,2.275l1.111-2.771
			l1.014,1.323l-1.061,3.744l1.654,0.465l0.998-3.573l3.764-0.062l-0.021-1.711l-4.021,0.031l-0.957-1.243l2.9-0.375l-1.812-2.308
			l1.574-0.196l2.766,2.841l1.229-1.195l-2.352-2.42l-0.254-0.26l1.834-3.266l-1.494-0.848l-1.943,3.438l-1.605,0.216l1.146-2.742
			l-2.814,0.401l0.572-1.37l3.834-0.968l-0.422-1.666l-3.627,0.899l-1.904-3.205l-1.473,0.871l2.008,3.41l-0.617,1.479l-1.85-2.438
			l-1.064,2.662l-0.867-1.133l1.076-3.803l-1.646-0.471l-1.041,3.598l-3.723,0.046l0.02,1.712l3.955-0.035l0.924,1.207l-3.014,0.379
			l1.842,2.348l-1.424,0.188l-2.756-2.832L48.613,241.014z M56.589,242.949l-1.189-1.518l1.914-0.244l0.713-1.789l1.172,1.535
			l1.904-0.271l-0.748,1.777l1.201,1.514l-1.914,0.242l-0.721,1.797l-1.166-1.541l-1.908,0.271L56.589,242.949z"/>
		<path fill="#ADD3F0" d="M221.889,209.125l2.584,2.695l-1.812,3.24l1.491,0.844l1.943-3.443l1.401-0.188l-1.133,2.691l3.021-0.438
			l-0.601,1.443l-3.832,0.967l0.42,1.66l3.604-0.918l1.931,3.221l1.473-0.865l-2.012-3.396l0.569-1.365l1.72,2.271l1.108-2.764
			l1.021,1.316l-1.06,3.742l1.646,0.467l0.996-3.574l3.771-0.062l-0.021-1.711l-4.021,0.041l-0.964-1.252l2.902-0.369l-1.813-2.305
			l1.579-0.209l2.767,2.844l1.227-1.192l-2.35-2.414l-0.258-0.263l1.834-3.271l-1.492-0.834l-1.938,3.438l-1.609,0.209l1.146-2.738
			l-2.812,0.404l0.569-1.377l3.839-0.973l-0.425-1.66l-3.631,0.902l-1.896-3.201l-1.479,0.867l2.015,3.398l-0.621,1.49l-1.849-2.436
			l-1.065,2.653l-0.863-1.134l1.072-3.801l-1.646-0.469l-1.041,3.602l-3.726,0.039l0.019,1.717l3.959-0.045l0.92,1.211l-3.011,0.38
			l1.841,2.349l-1.425,0.188l-2.756-2.832L221.889,209.125z M229.869,211.055l-1.195-1.512l1.916-0.238l0.719-1.801l1.166,1.541
			l1.91-0.271l-0.748,1.777l1.191,1.514l-1.912,0.242l-0.719,1.797l-1.164-1.541l-1.912,0.276L229.869,211.055z"/>
		<path fill="#ADD3F0" d="M208.697,241.014l2.578,2.695l-1.812,3.234l1.489,0.844l1.943-3.443l1.4-0.182l-1.127,2.689l3.021-0.434
			l-0.604,1.445l-3.834,0.967l0.422,1.66l3.604-0.928l1.927,3.229l1.476-0.871l-2.011-3.403l0.567-1.363l1.724,2.275l1.104-2.771
			l1.021,1.323l-1.06,3.744l1.647,0.465l1-3.573l3.763-0.062l-0.02-1.711l-4.02,0.031l-0.967-1.243l2.905-0.375l-1.812-2.308
			l1.572-0.196l2.766,2.841l1.229-1.195l-2.35-2.42l-0.254-0.26l1.832-3.266l-1.492-0.848l-1.941,3.438l-1.607,0.216l1.148-2.742
			l-2.812,0.401l0.566-1.37l3.838-0.968l-0.426-1.666l-3.625,0.899l-1.902-3.205l-1.475,0.871l2.012,3.41l-0.623,1.479l-1.846-2.438
			l-1.062,2.662l-0.866-1.133l1.075-3.803l-1.647-0.471l-1.041,3.598l-3.723,0.046l0.019,1.712l3.959-0.035l0.92,1.207l-3.011,0.379
			l1.843,2.348l-1.429,0.188l-2.754-2.832L208.697,241.014z M216.672,242.949l-1.188-1.518l1.91-0.244l0.719-1.789l1.172,1.535
			l1.904-0.271l-0.746,1.777l1.189,1.514l-1.91,0.242l-0.721,1.797l-1.164-1.541l-1.912,0.271L216.672,242.949z"/>
		<path fill="#ADD3F0" d="M115.232,209.125l2.58,2.695l-1.812,3.24l1.494,0.844l1.943-3.443l1.404-0.188l-1.133,2.691l3.025-0.438
			l-0.602,1.443l-3.834,0.967l0.42,1.66l3.607-0.918l1.926,3.221l1.473-0.865l-2.012-3.396l0.566-1.365l1.729,2.271l1.104-2.764
			l1.018,1.316l-1.059,3.742l1.65,0.467l0.996-3.574l3.768-0.062l-0.02-1.711l-4.021,0.041l-0.961-1.252l2.9-0.369l-1.809-2.305
			l1.576-0.209l2.764,2.844l1.225-1.192l-2.352-2.414l-0.252-0.263l1.832-3.271l-1.492-0.834l-1.941,3.438l-1.607,0.209l1.148-2.738
			l-2.812,0.404l0.566-1.377l3.838-0.973l-0.424-1.66l-3.629,0.902l-1.9-3.201l-1.477,0.867l2.012,3.398l-0.617,1.49l-1.85-2.436
			l-1.064,2.653l-0.867-1.134l1.072-3.801l-1.643-0.469l-1.041,3.602l-3.725,0.039l0.02,1.717l3.959-0.045l0.918,1.211l-3.014,0.38
			l1.848,2.349l-1.428,0.188l-2.756-2.832L115.232,209.125z M123.206,211.055l-1.193-1.512l1.916-0.238l0.717-1.801l1.168,1.541
			l1.91-0.271l-0.748,1.777l1.195,1.514l-1.914,0.242l-0.715,1.797l-1.17-1.541l-1.91,0.277L123.206,211.055z"/>
		<path fill="#ADD3F0" d="M102.005,240.996l2.578,2.701l-1.811,3.234l1.496,0.838l1.941-3.443l1.406-0.182l-1.131,2.688l3.02-0.436
			l-0.598,1.439l-3.834,0.975l0.418,1.664l3.605-0.922l1.928,3.225l1.473-0.871l-2.01-3.404l0.566-1.361l1.725,2.273l1.107-2.771
			l1.018,1.325l-1.061,3.744l1.652,0.463l0.996-3.573l3.764-0.062l-0.014-1.711l-4.021,0.039l-0.963-1.246l2.902-0.373l-1.814-2.308
			l1.576-0.202l2.764,2.838l1.227-1.195l-2.348-2.418l-0.258-0.262l1.836-3.263l-1.49-0.844l-1.943,3.438l-1.607,0.209l1.145-2.729
			l-2.812,0.396l0.568-1.377l3.84-0.964l-0.424-1.666l-3.631,0.898l-1.896-3.199l-1.477,0.871l2.008,3.403l-0.619,1.479l-1.85-2.438
			l-1.064,2.662l-0.861-1.127l1.07-3.802l-1.646-0.477l-1.039,3.596l-3.723,0.047l0.016,1.711l3.959-0.032l0.922,1.205l-3.014,0.381
			l1.844,2.353l-1.428,0.183l-2.756-2.832L102.005,240.996z M109.763,242.973l-1.322-1.688l2.127-0.268l0.793-1.986l1.303,1.699
			l2.117-0.301l-0.826,1.977l1.324,1.682l-2.127,0.271l-0.795,1.988l-1.297-1.709l-2.125,0.311L109.763,242.973z"/>
		<path fill="#ADD3F0" d="M168.607,209.17l2.58,2.701l-1.812,3.234l1.496,0.844l1.943-3.449l1.396-0.182l-1.129,2.688l3.021-0.432
			l-0.604,1.441l-3.834,0.971l0.425,1.662l3.604-0.922l1.934,3.227l1.471-0.867l-2.01-3.41l0.564-1.355l1.725,2.277l1.107-2.771
			l1.02,1.322l-1.062,3.744l1.651,0.465l0.996-3.572l3.763-0.062l-0.02-1.716l-4.021,0.033l-0.957-1.24l2.899-0.373l-1.812-2.307
			l1.576-0.197l2.762,2.832l1.229-1.194l-2.35-2.414l-0.256-0.261l1.836-3.268l-1.496-0.839l-1.939,3.438l-1.609,0.217l1.148-2.742
			l-2.812,0.401l0.569-1.375l3.836-0.969l-0.422-1.666l-3.629,0.905l-1.902-3.204l-1.473,0.87l2.01,3.404l-0.614,1.481l-1.854-2.438
			l-1.062,2.655l-0.867-1.133l1.076-3.802l-1.646-0.465l-1.04,3.599l-3.725,0.045l0.015,1.711l3.96-0.039l0.924,1.205l-3.015,0.382
			l1.841,2.35l-1.425,0.188l-2.757-2.839L168.607,209.17z M176.586,211.107l-1.193-1.521l1.914-0.234l0.717-1.797l1.172,1.533
			l1.904-0.271l-0.748,1.779l1.191,1.521l-1.91,0.239l-0.717,1.791l-1.168-1.535l-1.91,0.271L176.586,211.107z"/>
		<path fill="#ADD3F0" d="M155.398,241.014l2.578,2.695l-1.812,3.234l1.496,0.844l1.938-3.443l1.401-0.182l-1.129,2.689l3.021-0.434
			l-0.604,1.445l-3.834,0.967l0.423,1.66l3.604-0.928l1.926,3.229l1.476-0.871l-2.015-3.403l0.572-1.363l1.723,2.275l1.104-2.771
			l1.021,1.323l-1.061,3.744l1.649,0.465l0.998-3.573l3.765-0.062l-0.02-1.711l-4.021,0.031l-0.963-1.243l2.904-0.375l-1.812-2.308
			l1.574-0.196l2.764,2.841l1.229-1.195l-2.348-2.42l-0.256-0.26l1.828-3.266l-1.486-0.848l-1.941,3.438l-1.607,0.216l1.146-2.742
			l-2.812,0.401l0.565-1.37l3.841-0.968l-0.425-1.666l-3.629,0.899l-1.899-3.205l-1.478,0.871l2.015,3.41l-0.623,1.479l-1.849-2.438
			l-1.062,2.662l-0.867-1.133l1.074-3.803l-1.646-0.471l-1.041,3.598l-3.725,0.046l0.02,1.712l3.959-0.035l0.924,1.207l-3.014,0.379
			l1.842,2.348l-1.428,0.188l-2.755-2.832L155.398,241.014z M163.373,242.949l-1.191-1.518l1.916-0.244l0.715-1.789l1.172,1.535
			l1.904-0.271l-0.746,1.777l1.193,1.514l-1.912,0.242l-0.717,1.797l-1.166-1.541l-1.912,0.271L163.373,242.949z"/>
		<path fill="#ADD3F0" d="M239.9,122.77c-0.062-0.084-0.125-0.176-0.203-0.248c0.053-0.488,0.078-0.969,0.102-1.451
			c-0.029-0.277-0.08-0.543-0.119-0.814c-0.051-0.387-0.096-0.777-0.164-1.156c-0.117-0.652-0.256-1.297-0.416-1.938
			c-1.521-6.168-5.102-11.758-10.082-15.758c-4.938-3.998-11.172-6.297-17.547-6.467c-0.326-0.012-0.645-0.018-0.967-0.018
			c-5.006,0-10.129,1.365-14.568,3.828c1.617,2.311,2.857,4.871,3.604,7.545c1.334,4.701,1.209,9.766-0.312,14.33
			c2.646,1.586,5.123,3.506,7.312,5.693c2.854,2.865,5.256,6.225,7.028,9.803c2.037-2.531,4.826-4.508,7.966-5.617
			c1.935-0.686,4.077-1.049,6.192-1.049c2.039,0,4.039,0.322,5.94,0.969c1.801,0.596,3.519,1.506,5.069,2.639
			c0.23-0.771,0.418-1.564,0.586-2.357c0.027-0.145,0.054-0.277,0.076-0.414C239.873,127.816,240.037,125.285,239.9,122.77z
			 M231.744,125.199c-14.244-0.465-25.717-11.752-26.479-25.918c2.312-0.924,4.834-1.439,7.477-1.439
			c11.209,0,20.293,9.08,20.293,20.289C233.035,120.617,232.566,122.996,231.744,125.199z"/>
		<path fill="#ADD3F0" d="M32.98,139.529c-0.014-0.125-0.021-0.248-0.039-0.373c0-0.012-0.002-0.018-0.002-0.029
			C32.952,139.264,32.964,139.395,32.98,139.529z"/>
		<path fill="#ADD3F0" d="M191.848,114.67c0,0.867-0.08,1.705-0.183,2.543l0,0c1.151,0.369,2.28,0.771,3.382,1.252
			c1.264,0.549,2.51,1.189,3.727,1.893c0.808-4.504,0.447-9.256-1.059-13.486c-1.75-4.973-5.099-9.369-9.433-12.387
			c-0.44-0.312-0.899-0.607-1.367-0.885c-0.623-0.357-1.246-0.707-1.883-1.014c-0.75-0.367-1.522-0.703-2.306-1.02
			c-2.854-1.076-5.908-1.66-8.976-1.66l-0.346,0.006c-4.746,0.029-9.617,1.479-13.724,4.066c0.422-0.271,0.871-0.498,1.312-0.74
			c2.484-0.924,5.16-1.451,7.965-1.451C181.604,91.787,191.848,102.021,191.848,114.67z"/>
		<path fill="#ADD3F0" d="M170.107,88.475c0.104-0.023,0.213-0.041,0.324-0.062c0.944-0.188,1.898-0.334,2.873-0.408
			c-0.302-0.873-0.562-1.762-0.798-2.645c-0.25-0.941-0.509-1.916-0.838-2.844c-0.739-2.209-1.688-4.355-2.812-6.412
			c-2.319-4.23-5.498-8.111-9.207-11.227c-3.889-3.279-8.496-5.816-13.321-7.34c-3.777-1.201-7.731-1.807-11.743-1.807
			c-1.33,0-2.672,0.062-3.99,0.197c-8.367,0.834-16.365,4.475-22.525,10.264c-5.723,5.312-9.818,12.434-11.529,20.039
			c-0.031,0.137-0.096,0.25-0.191,0.328c-0.59,2.674-0.912,5.434-0.961,8.209c0,0.107-0.088,0.197-0.195,0.203
			c-0.113,0-0.201-0.086-0.207-0.193c-0.158-2.82-0.008-5.652,0.432-8.416c-4.455,0.227-8.795,1.779-12.275,4.43
			c-3.43,2.576-6.1,6.27-7.609,10.428c0.029,0.021,0.068,0.027,0.09,0.051c0.709,0.639,2.637,0.918,3.559,1.314
			c1.246,0.543,2.457,1.16,3.631,1.846c2.4,1.404,4.66,3.104,6.629,5.074c1.559-0.701,2.846-2.248,4.467-3.059
			c4.01-2.01,8.02-3.42,12.668-3.398c0.035-0.021,0.07-0.039,0.109-0.066c-0.215-0.676-0.566-2.492-0.58-2.578
			c-0.133-0.656-0.246-1.326-0.338-1.994c-0.182-1.371-0.271-2.74-0.271-4.123c0-17.18,13.922-31.102,31.102-31.102
			c15.458,0,28.248,11.295,30.662,26.072C168.188,88.938,169.139,88.678,170.107,88.475z"/>
		<path fill="#ADD3F0" d="M143.309,150.031c-1.103,0-2.187,0.057-3.267,0.152c-0.012-0.402-0.031-0.812-0.031-1.211
			c0-4.264,0.779-8.322,2.173-12.098c2.934-8.559,8.664-15.174,15.905-19.275c-0.226,0.086-0.433,0.193-0.651,0.283l0.485-0.221
			c0,0-6.702,1.195-14.429,7.381c-1.23,0.98-2.485,2.09-3.745,3.342c-0.057,0.062-0.113,0.119-0.174,0.176
			c-0.617,0.623-1.23,1.268-1.846,1.958c-0.006,0.006-0.012,0.014-0.018,0.02c-0.58,0.648-1.16,1.35-1.738,2.07
			c-0.086,0.105-0.176,0.219-0.26,0.324c-0.57,0.727-1.131,1.479-1.689,2.268c-0.092,0.135-0.18,0.271-0.277,0.4
			c-0.506,0.729-1.002,1.486-1.494,2.273c-0.074,0.119-0.148,0.23-0.225,0.354c-0.523,0.859-1.039,1.756-1.543,2.688
			c-0.113,0.209-0.227,0.418-0.34,0.635c-0.51,0.969-1.012,1.959-1.496,3.004c-0.221,0.104-0.43,0.221-0.65,0.32
			c-2.811,1.246-5.863,1.889-8.936,1.889c-0.674,0-1.346-0.041-2.02-0.104c-0.002,0-0.002,0-0.008,0
			c-4.662-0.418-8.906-2.287-12.289-5.148c-0.033-0.021-0.064-0.045-0.096-0.062c-5.363-4.377-8.785-11.033-8.785-18.492
			c0-7.816,3.771-14.738,9.58-19.088c0.451-0.119,0.816-0.256,0.932-0.396c-0.039,0.012-0.072,0.021-0.115,0.033
			c-2.336,0.504-4.607,1.258-6.76,2.244c-0.006,0-0.012,0.006-0.023,0.01c-0.717,0.324-1.422,0.688-2.111,1.062
			c-0.068,0.033-0.125,0.072-0.193,0.119c-0.625,0.346-1.248,0.713-1.852,1.104c-0.156,0.102-0.299,0.215-0.453,0.322
			c-0.502,0.336-1.004,0.68-1.479,1.043c-0.277,0.215-0.533,0.441-0.793,0.656c-0.346,0.283-0.699,0.557-1.031,0.85
			c-0.584,0.521-1.15,1.072-1.686,1.639c-4.387,4.553-7.371,10.613-8.408,17.059c-0.018,0.098-0.102,0.17-0.201,0.17
			c-0.109-0.006-0.195-0.09-0.201-0.191c-0.182-3.15,0.289-6.436,1.365-9.494c1.203-3.426,3.166-6.615,5.682-9.232
			c0.346-0.361,0.725-0.686,1.088-1.029c-3.02-2.561-6.486-4.6-10.174-6.004c-1.229-0.471-2.482-0.867-3.754-1.189
			c-0.129,0.027-0.264,0.021-0.393-0.006c-0.441-0.006-0.945-0.182-1.4-0.301c-0.004,0-0.016-0.006-0.018-0.006
			c-0.738-0.146-1.486-0.277-2.229-0.373c-0.006,0-0.012,0-0.014,0c-0.443-0.051-0.865-0.051-1.307-0.057
			c-0.197,0-0.379-0.062-0.555-0.137c-0.883-0.068-1.764-0.113-2.656-0.113c-3.34,0-6.633,0.477-9.797,1.422
			c-6.062,1.795-11.705,5.438-15.881,10.246c-3.322,3.824-5.781,8.395-7.104,13.221c-0.316,1.148-0.568,2.322-0.768,3.512
			c-0.096,0.6-0.135,1.217-0.201,1.828c-0.062,0.578-0.152,1.156-0.189,1.734c-0.045,0.812-0.025,1.631-0.018,2.45
			c0.006,0.382-0.016,0.767-0.002,1.147c0.031,0.646,0.125,1.291,0.189,1.943c0.051,0.247,0.102,0.497,0.158,0.747
			c-0.012,0.246-0.002,0.511,0,0.765c0.012,0.104,0.012,0.199,0.029,0.295c0.695,4.511,2.379,8.976,4.859,12.914
			c2.146,3.41,4.961,6.472,8.145,8.955c3.215-1.317,6.863-1.75,10.281-1.228c0.047-0.862,0.146-1.729,0.316-2.588
			c0.617-3.062,2.078-6.022,4.123-8.338c1.848-2.104,4.158-3.738,6.688-4.707c0.096-0.033,0.201,0.006,0.248,0.101
			c0.049,0.084,0.025,0.194-0.059,0.26c-4.436,3.187-7.572,7.983-8.604,13.17c-1.07,5.224-0.057,10.869,2.781,15.483
			c0.051,0.093,0.037,0.203-0.047,0.269c-0.039,0.033-0.082,0.045-0.123,0.045c-0.055,0-0.104-0.018-0.145-0.057
			c-1.955-1.89-3.449-4.289-4.324-6.937c-0.652-1.986-0.918-4.078-0.861-6.162c-0.02,0-0.041,0-0.057,0l0.057-0.065
			c0,0-0.787-0.015-2.033,0.092c-1.037,0.062-2.062,0.215-3.07,0.433c-5.916,1.14-14.846,4.765-14.814,16.25
			c-0.064,1.39,0.033,2.778,0.326,4.135c0.037,0.177,0.09,0.402,0.158,0.656c0.074,0.276,0.166,0.524,0.264,0.76l52.695,1.896
			c-0.256-1.271-0.422-2.562-0.422-3.896c0-11.045,8.957-20.004,20.008-20.004c6.941,0,13.051,3.539,16.641,8.908
			c4.164-10.529,14.412-17.994,26.424-17.994c1.687,0,3.323,0.177,4.93,0.453c0.369-0.134,0.75-0.229,1.121-0.349
			C153.971,151.248,148.789,150.031,143.309,150.031z M153.473,119.654l0.76-0.34c-0.396,0.193-0.774,0.408-1.164,0.617
			L153.473,119.654z M56.646,145.658c-7.633-2.859-13.08-10.207-13.08-18.838c0-11.119,9.018-20.137,20.137-20.137
			c6.299,0,11.918,2.889,15.609,7.414c-5.443,6.084-9.141,13.736-10.443,22.182C64.062,138.369,59.876,141.613,56.646,145.658z
			 M71.146,146.406c-0.062-0.018-0.125-0.023-0.182-0.035c0.119-0.084,0.242-0.164,0.361-0.242
			C71.263,146.219,71.197,146.314,71.146,146.406z M72.583,167.641c-3.795-6.707-3.23-14.822,3.324-21.201
			c2.139-2.078,4.748-2.889,7.33-2.662c2.189,3.799,5.275,6.932,8.922,9.521C83.468,154.461,76.181,160,72.583,167.641z"/>
		<path fill="#ADD3F0" d="M207.242,161.857c7.668,2.594,14.203,7.67,18.625,14.285c-0.229-1.24-0.354-2.521-0.354-3.83
			c0-11.498,9.316-20.82,20.821-20.82c11.495,0,20.815,9.322,20.815,20.82c0,4.688-1.563,8.996-4.188,12.479
			c0.898-0.033,1.795-0.068,2.695-0.096c0.561-0.021,1.121-0.039,1.684-0.057l0.658-0.023c0.318-0.016,0.705-0.062,1.072-0.039
			l1.928-0.068l0.578-1.371c0.166-0.43,0.348-0.934,0.516-1.455c0-0.012,0-0.018,0-0.018c0.062-0.396,0.217-0.793,0.344-1.189
			c0.049-0.176,0.102-0.35,0.146-0.52c0.079-0.33,0.145-0.664,0.209-0.986c0.059-0.266,0.111-0.533,0.159-0.805
			c0.06-0.34,0.099-0.686,0.144-1.02c0.031-0.277,0.072-0.543,0.096-0.814c0.035-0.352,0.05-0.703,0.066-1.049
			c0.014-0.266,0.035-0.527,0.039-0.787c0.008-0.369-0.004-0.736-0.011-1.1c-0.011-0.248-0.006-0.504-0.021-0.752
			c-0.02-0.369-0.059-0.736-0.096-1.105c-0.021-0.244-0.033-0.492-0.062-0.736c-0.055-0.396-0.125-0.787-0.19-1.178
			c-0.039-0.215-0.062-0.436-0.106-0.646c-0.121-0.6-0.267-1.205-0.431-1.795c-1.575-5.658-5.284-10.785-10.188-14.066
			c-0.662-0.453-1.354-0.865-2.062-1.246c-0.176-0.1-0.354-0.184-0.532-0.271c-0.541-0.283-1.091-0.543-1.647-0.781
			c-0.179-0.072-0.354-0.146-0.535-0.221c-0.709-0.283-1.429-0.545-2.157-0.768c-1.15-0.334-2.324-0.602-3.511-0.773
			c-2.413-0.36-4.896-0.557-7.332-0.262c-1.135,0.137-2.263,0.354-3.368,0.641c-1.127,0.289-2.238,0.65-3.314,1.082
			c-2.16,0.873-4.213,2.021-6.063,3.436c-0.084,0.066-0.209,0.051-0.274-0.029c-0.069-0.084-0.062-0.209,0.021-0.281
			c3.912-3.5,8.983-5.756,14.31-6.385c-0.67-3.082-2.025-5.945-3.966-8.332c-2.286-2.838-5.438-5.033-8.868-6.187
			c-1.941-0.649-3.994-0.983-6.084-0.983c-1.601,0-3.189,0.197-4.729,0.582c-3.016,0.762-5.854,2.256-8.252,4.334
			c0.18,0.387,0.363,0.771,0.529,1.16c1.645,3.789,2.636,7.939,2.867,12.021c0.004,0.104-0.074,0.197-0.177,0.209
			c-0.007,0-0.007-0.004-0.007-0.004c-0.014,0-0.014,0.01-0.021,0.01c-0.1,0-0.182-0.064-0.199-0.164
			c-1.861-8.227-6.131-15.982-12.018-21.854c-0.68-0.686-1.389-1.342-2.111-1.971c-0.393-0.352-0.807-0.68-1.213-1.008
			c-0.312-0.256-0.617-0.51-0.936-0.76c-0.574-0.436-1.156-0.861-1.754-1.273c-0.135-0.092-0.271-0.193-0.412-0.283
			c-0.709-0.482-1.428-0.947-2.162-1.389h-0.006c8.268,6.377,13.602,16.361,13.602,27.611c0,4.562-0.891,8.92-2.479,12.914
			C207.305,161.875,207.27,161.869,207.242,161.857z M225.955,133.453c7.223,0,13.09,5.787,13.227,12.98
			c-0.99,0.211-2.018,0.32-3.07,0.32c-7.396,0-13.502-5.432-14.588-12.521C222.912,133.736,224.398,133.453,225.955,133.453z"/>
	</g>
	<path fill="#231F20" d="M275.438,166.326c-1.776-6.4-6.01-12.121-11.604-15.695c-4.883-3.166-11-4.717-16.857-4.248
		c-0.216-3.172-1.293-6.338-3.062-8.988c-1.033-1.562-2.322-2.98-3.84-4.225c2.105-5.16,2.68-11.018,1.607-16.557
		c-1.281-6.826-5.173-13.271-10.668-17.672c-5.205-4.227-12.023-6.65-18.719-6.65c-0.281,0-0.562,0.006-0.834,0.012
		c-5.559,0.125-11.102,1.893-15.684,5.014c-1.646-2.131-3.553-3.955-5.674-5.434c-1.102-0.77-2.297-1.473-3.674-2.141
		c-0.102-0.057-0.201-0.096-0.307-0.135l-0.184-0.074c-0.451-0.209-0.912-0.408-1.383-0.59c-0.188-0.066-0.367-0.129-0.543-0.191
		c-3.166-1.139-6.457-1.688-9.675-1.529c-0.153-0.607-0.295-1.281-0.452-2.068c-0.193-1.008-0.396-2.051-0.697-3.086
		c-0.627-2.346-1.488-4.65-2.555-6.854c-2.216-4.605-5.41-8.865-9.244-12.32c-4.056-3.658-8.938-6.508-14.125-8.24
		c-5.41-1.818-11.246-2.471-16.994-1.875c-8.973,0.883-17.781,5.029-24.17,11.373c-5.734,5.619-9.693,12.971-11.197,20.775
		c-0.992-0.197-1.959-0.295-2.945-0.295c-3.869,0-7.68,1.287-10.729,3.625c-2.234,1.678-4.074,3.898-5.33,6.43
		c-0.818,1.666-1.363,3.512-1.6,5.393c-5.947-1.535-12.305-1.467-18.197,0.146c-6.682,1.824-12.889,5.732-17.467,11.018
		c-3.646,4.18-6.293,9.203-7.646,14.516c-1.309,5.093-1.473,10.515-0.463,15.675c0.922,4.823,2.93,9.521,5.805,13.569
		c2.139,3.015,4.832,5.744,7.828,7.953c-3.336,1.494-6.186,3.992-8.092,7.097c-2.506,3.993-3.367,8.948-2.359,13.588
		c0.113,0.519,0.227,0.978,0.357,1.405l0.045,0.152c0.051,0.17,0.102,0.334,0.242,0.725l0.24,0.687
		c0.033,0.08,0.135,0.315,0.436,0.481l0.17,0.097h56.52l-0.264-0.729h-0.773c-0.027-0.074-0.084-0.137-0.172-0.137l-53.279-1.922
		c-0.098-0.23-0.189-0.479-0.264-0.76c-0.068-0.254-0.121-0.479-0.158-0.656c-0.293-1.354-0.391-2.744-0.326-4.135
		c-0.031-11.484,8.898-15.109,14.814-16.25c1.008-0.217,2.033-0.369,3.07-0.432c1.246-0.104,2.033-0.092,2.033-0.092
		s-0.057,0.066,0,0.066c-0.057,2.084,0.209,4.176,0.861,6.162c0.875,2.646,2.369,5.047,4.324,6.936
		c0.041,0.039,0.09,0.057,0.145,0.057c0.041,0,0.084-0.012,0.123-0.045c0.084-0.062,0.098-0.176,0.047-0.27
		c-2.838-4.613-3.852-10.264-2.781-15.482c1.031-5.186,4.168-9.984,8.604-13.17c0.084-0.062,0.107-0.176,0.059-0.26
		c-0.047-0.094-0.152-0.133-0.248-0.1c-2.529,0.969-4.84,2.604-6.688,4.707c-2.045,2.312-3.506,5.271-4.123,8.338
		c-0.17,0.854-0.27,1.725-0.316,2.588c-3.418-0.523-7.066-0.096-10.281,1.227c-3.184-2.484-5.998-5.545-8.145-8.955
		c-2.48-3.939-4.164-8.404-4.859-12.914c-0.762-4.797-0.479-9.779,0.801-14.426c1.322-4.826,3.781-9.396,7.104-13.221
		c4.176-4.809,9.818-8.451,15.881-10.246c3.164-0.945,6.457-1.422,9.797-1.422c2.775,0,5.521,0.322,8.178,0.986
		c0.129,0.027,0.264,0.033,0.393,0.006c5.08,1.291,9.9,3.777,13.928,7.193c-0.363,0.344-0.742,0.668-1.088,1.029
		c-2.516,2.617-4.479,5.807-5.682,9.232c-1.076,3.059-1.547,6.344-1.365,9.494c0.006,0.102,0.092,0.186,0.201,0.191
		c0.1,0,0.184-0.072,0.201-0.17c1.037-6.445,4.021-12.506,8.408-17.059c4.336-4.561,10.262-7.801,16.684-9.119
		c0.1-0.023,0.164-0.113,0.158-0.223c-0.01-0.102-0.096-0.18-0.197-0.18c-3.133-0.057-6.424,0.561-9.422,1.762
		c-2.785,1.098-5.367,2.752-7.625,4.746c-3.854-3.807-8.646-6.668-13.857-8.27c-0.021-0.023-0.061-0.029-0.09-0.051
		c1.51-4.158,4.18-7.852,7.609-10.428c3.48-2.65,7.82-4.203,12.275-4.43c-0.439,2.764-0.59,5.596-0.432,8.416
		c0.006,0.107,0.094,0.193,0.207,0.193c0.107-0.006,0.195-0.096,0.195-0.203c0.049-2.775,0.371-5.535,0.961-8.209
		c0.096-0.078,0.16-0.191,0.191-0.328c1.711-7.605,5.807-14.727,11.529-20.039c6.16-5.789,14.158-9.43,22.525-10.264
		c1.318-0.135,2.66-0.197,3.99-0.197c4.012,0,7.966,0.605,11.743,1.807c4.826,1.523,9.434,4.061,13.322,7.34
		c3.709,3.115,6.887,6.996,9.207,11.227c1.125,2.057,2.067,4.203,2.812,6.412c0.33,0.928,0.589,1.902,0.839,2.844
		c0.232,0.883,0.496,1.771,0.795,2.645c-5.095,0.373-10.017,2.379-13.854,5.652c-0.082,0.068-0.098,0.188-0.033,0.266
		c0.062,0.092,0.182,0.113,0.271,0.057c4.104-2.588,8.976-4.037,13.721-4.066l0.347-0.006c3.063,0,6.117,0.584,8.974,1.66
		c0.781,0.316,1.558,0.652,2.308,1.02c0.637,0.307,1.26,0.656,1.883,1.014c0.467,0.277,0.926,0.572,1.367,0.885
		c4.334,3.018,7.682,7.414,9.432,12.387c1.509,4.23,1.863,8.982,1.062,13.486c-1.217-0.703-2.463-1.344-3.729-1.893
		c-3.789-1.648-7.94-2.65-12.014-2.895c-0.104,0-0.197,0.068-0.218,0.17c-0.014,0.107,0.058,0.205,0.158,0.232
		c8.219,1.875,15.971,6.168,21.83,12.07c5.885,5.867,10.151,13.627,12.018,21.853c0.021,0.101,0.103,0.164,0.226,0.157
		c0.104-0.01,0.183-0.106,0.179-0.209c-0.231-4.077-1.228-8.229-2.867-12.02c-0.166-0.392-0.354-0.775-0.53-1.16
		c2.399-2.078,5.237-3.574,8.252-4.334c1.537-0.386,3.129-0.582,4.729-0.582c2.09,0,4.141,0.334,6.084,0.983
		c3.432,1.147,6.582,3.349,8.866,6.187c1.938,2.385,3.298,5.25,3.968,8.332c-5.324,0.629-10.396,2.883-14.312,6.383
		c-0.084,0.074-0.092,0.199-0.021,0.283c0.066,0.08,0.191,0.099,0.275,0.028c3.688-2.812,8.154-4.594,12.75-5.153
		c2.438-0.295,4.918-0.103,7.332,0.26c2.334,0.347,4.619,1.021,6.768,2c1.287,0.578,2.521,1.265,3.684,2.062
		c4.898,3.285,8.607,8.412,10.188,14.07c1.305,4.639,1.229,9.715-0.219,14.278c-0.18,0.601-0.396,1.185-0.582,1.676l-0.576,1.371
		l-51.965,1.808c-0.084,0.006-0.146,0.067-0.176,0.146H218.1l-0.254,0.729h55.139l0.992-2.025l0.387-0.896
		c0.223-0.543,0.479-1.188,0.693-1.854C276.779,177.281,276.916,171.566,275.438,166.326z M233.664,130.422
		c-1.902-0.646-3.902-0.969-5.941-0.969c-2.115,0-4.262,0.363-6.191,1.049c-3.141,1.109-5.93,3.086-7.969,5.617
		c-1.771-3.578-4.174-6.938-7.025-9.803c-2.188-2.188-4.664-4.107-7.312-5.693c1.521-4.564,1.646-9.629,0.312-14.33
		c-0.742-2.674-1.98-5.234-3.602-7.545c4.438-2.463,9.562-3.828,14.566-3.828c0.322,0,0.643,0.006,0.969,0.018
		c6.375,0.17,12.607,2.469,17.547,6.467c4.979,4,8.562,9.59,10.082,15.758c1.301,5.172,1.152,10.773-0.363,15.897
		C237.182,131.928,235.465,131.018,233.664,130.422z"/>
</g>
</svg>
