<?xml version="1.0" encoding="utf-8"?>
<!-- Generator: Adobe Illustrator 15.0.2, SVG Export Plug-In . SVG Version: 6.00 Build 0)  -->
<!DOCTYPE svg PUBLIC "-//W3C//DTD SVG 1.1//EN" "http://www.w3.org/Graphics/SVG/1.1/DTD/svg11.dtd">
<svg version="1.1" id="Layer_1" xmlns="http://www.w3.org/2000/svg" xmlns:xlink="http://www.w3.org/1999/xlink" x="0px" y="0px"
	 width="280px" height="260px" viewBox="0 0 280 260" enable-background="new 0 0 280 260" xml:space="preserve">
<g>
	<g>
		<g>
			<path fill="#ADD3F0" d="M124.113,206.404l4.227,4.429l-2.967,5.304l2.447,1.381l3.187-5.646l2.299-0.299l-1.854,4.405
				l4.953-0.709l-0.983,2.371l-6.284,1.592l0.688,2.721l5.911-1.518l3.158,5.289l2.416-1.422l-3.294-5.58l0.928-2.24l2.83,3.73
				l1.817-4.531l1.665,2.166l-1.736,6.139l2.705,0.76l1.637-5.862l6.168-0.1L154,215.979l-6.59,0.062l-1.574-2.045l4.756-0.604
				l-2.975-3.783l2.588-0.334l4.527,4.654l2.014-1.963l-3.854-3.957l-0.418-0.43l3.008-5.355l-2.447-1.377l-3.186,5.643l-2.634,0.34
				l1.877-4.48l-4.608,0.656l0.932-2.252l6.291-1.592l-0.691-2.729l-5.953,1.482l-3.115-5.251l-2.415,1.433l3.295,5.572
				l-1.016,2.434l-3.033-3.989l-1.744,4.356l-1.42-1.851l1.76-6.231l-2.7-0.769l-1.703,5.892l-6.101,0.074l0.028,2.811l6.487-0.071
				l1.511,1.983l-4.939,0.617l3.021,3.857l-2.34,0.298l-4.513-4.642L124.113,206.404z M137.186,209.577l-1.953-2.483l3.134-0.396
				l1.175-2.941l1.923,2.521l3.121-0.444l-1.225,2.908l1.957,2.489l-3.137,0.4l-1.173,2.938l-1.916-2.522l-3.131,0.456
				L137.186,209.577z"/>
			<path fill="#ADD3F0" d="M116.086,235.217l2.818,2.95l-1.979,3.542l1.635,0.92l2.125-3.77l1.532-0.195l-1.236,2.936l3.303-0.473
				l-0.658,1.582l-4.188,1.062l0.457,1.813l3.941-1.015l2.105,3.531l1.615-0.957l-2.198-3.719l0.618-1.488l1.881,2.484l1.211-3.021
				l1.112,1.445l-1.159,4.092l1.806,0.513l1.091-3.916l4.11-0.063l-0.016-1.871l-4.395,0.045l-1.05-1.363l3.17-0.404l-1.98-2.521
				l1.722-0.222l3.021,3.103l1.34-1.305l-2.567-2.644L134.997,236l2.004-3.562l-1.63-0.924l-2.121,3.758l-1.757,0.233l1.251-2.993
				l-3.074,0.439l0.624-1.498l4.191-1.067l-0.462-1.812l-3.966,0.986l-2.077-3.502l-1.615,0.951l2.201,3.723l-0.678,1.617
				l-2.019-2.656l-1.166,2.902l-0.947-1.236l1.176-4.154l-1.801-0.516l-1.139,3.935l-4.066,0.052l0.021,1.869l4.323-0.042
				l1.006,1.322l-3.29,0.409l2.013,2.568l-1.56,0.203l-3.007-3.098L116.086,235.217z M124.804,237.337l-1.3-1.662l2.086-0.265
				l0.784-1.954l1.282,1.675l2.083-0.291l-0.816,1.939l1.305,1.652l-2.093,0.27l-0.782,1.953l-1.275-1.676l-2.087,0.299
				L124.804,237.337z"/>
		</g>
		<g>
			<path fill="#ADD3F0" d="M217.379,206.404l4.225,4.429l-2.965,5.304l2.445,1.381l3.189-5.646l2.299-0.299l-1.852,4.405l4.95-0.709
				l-0.985,2.371l-6.283,1.592l0.688,2.721l5.912-1.518l3.16,5.289l2.414-1.422l-3.298-5.58l0.931-2.24l2.826,3.73l1.815-4.531
				l1.666,2.166l-1.733,6.139l2.702,0.76l1.642-5.862l6.164-0.1l-0.026-2.806l-6.595,0.062l-1.571-2.045l4.758-0.604l-2.976-3.783
				l2.586-0.334L248,213.93l2.014-1.963l-3.854-3.957l-0.42-0.43l3.008-5.355l-2.451-1.377l-3.18,5.643l-2.637,0.34l1.879-4.48
				l-4.607,0.656l0.93-2.252l6.289-1.592l-0.688-2.729l-5.949,1.482l-3.115-5.251l-2.424,1.433l3.297,5.572l-1.016,2.434
				l-3.025-3.989l-1.748,4.356l-1.418-1.851l1.765-6.231l-2.701-0.769l-1.707,5.892l-6.104,0.074l0.03,2.811l6.487-0.071
				l1.513,1.983l-4.938,0.617l3.02,3.857l-2.34,0.298l-4.516-4.642L217.379,206.404z M230.453,209.577l-1.955-2.483l3.137-0.396
				l1.174-2.941l1.922,2.521l3.123-0.444l-1.223,2.908l1.957,2.489l-3.141,0.4l-1.17,2.938l-1.914-2.522l-3.133,0.456
				L230.453,209.577z"/>
			<path fill="#ADD3F0" d="M209.355,235.217l2.815,2.95l-1.978,3.542l1.632,0.92l2.125-3.77l1.53-0.195l-1.233,2.936l3.301-0.473
				l-0.651,1.582l-4.191,1.062l0.463,1.813l3.936-1.015l2.107,3.531l1.615-0.957l-2.201-3.719l0.619-1.488l1.883,2.484l1.209-3.021
				l1.109,1.445l-1.154,4.092l1.807,0.513l1.09-3.916l4.111-0.063l-0.018-1.871l-4.396,0.045l-1.049-1.363l3.174-0.404l-1.983-2.521
				l1.723-0.222l3.02,3.103l1.34-1.305l-2.569-2.644L228.264,236l2.006-3.562l-1.635-0.924l-2.121,3.758l-1.758,0.233l1.254-2.993
				l-3.074,0.439l0.623-1.498l4.193-1.067l-0.463-1.812l-3.967,0.986l-2.076-3.502l-1.609,0.951l2.193,3.723l-0.676,1.617
				l-2.018-2.656l-1.169,2.902l-0.942-1.236l1.17-4.154l-1.795-0.516l-1.137,3.935l-4.068,0.052l0.018,1.869l4.324-0.042
				l1.006,1.322l-3.287,0.409l2.012,2.568l-1.561,0.203l-3.01-3.098L209.355,235.217z M218.072,237.337l-1.303-1.662l2.09-0.265
				l0.783-1.954l1.278,1.675l2.086-0.291l-0.819,1.939l1.305,1.652l-2.088,0.27l-0.781,1.953l-1.281-1.676l-2.086,0.299
				L218.072,237.337z"/>
		</g>
		<g>
			<path fill="#ADD3F0" d="M177.912,207.245l2.82,2.954l-1.979,3.537l1.631,0.921l2.125-3.769l1.535-0.197l-1.235,2.94l3.299-0.478
				l-0.654,1.582l-4.189,1.062l0.459,1.812l3.941-1.004l2.105,3.521l1.608-0.949l-2.194-3.72l0.618-1.492l1.884,2.483l1.211-3.022
				l1.11,1.445l-1.155,4.095l1.805,0.51l1.088-3.908l4.115-0.071l-0.021-1.87l-4.396,0.047l-1.049-1.363l3.17-0.401l-1.983-2.521
				l1.728-0.232l3.021,3.111l1.34-1.312l-2.571-2.641l-0.277-0.283l2.008-3.568l-1.631-0.915l-2.127,3.754l-1.758,0.236l1.256-2.999
				l-3.074,0.443l0.625-1.502l4.188-1.066l-0.457-1.812l-3.967,0.987l-2.078-3.499l-1.613,0.95l2.197,3.719l-0.676,1.62
				l-2.021-2.658l-1.164,2.907l-0.942-1.235l1.174-4.154l-1.803-0.514l-1.14,3.93l-4.062,0.049l0.019,1.876l4.328-0.048l1.002,1.316
				l-3.291,0.415l2.016,2.567l-1.559,0.203l-3.013-3.096L177.912,207.245z M186.629,209.363l-1.301-1.661l2.092-0.259l0.785-1.961
				l1.275,1.677l2.082-0.292l-0.812,1.939l1.305,1.652l-2.096,0.27l-0.783,1.959l-1.273-1.677l-2.088,0.298L186.629,209.363z"/>
			<path fill="#ADD3F0" d="M159.248,234.438l4.23,4.429l-2.972,5.309l2.451,1.38l3.185-5.652l2.297-0.291l-1.851,4.408l4.949-0.713
				l-0.981,2.364l-6.283,1.593l0.69,2.725l5.906-1.516l3.162,5.291l2.416-1.425l-3.3-5.588l0.931-2.231l2.825,3.727l1.816-4.527
				l1.666,2.166l-1.734,6.133l2.705,0.767l1.638-5.863l6.166-0.103l-0.027-2.809l-6.592,0.066l-1.571-2.039l4.76-0.609l-2.978-3.783
				l2.588-0.334l4.527,4.65l2.014-1.955l-3.854-3.961l-0.422-0.431l3.008-5.349l-2.444-1.385l-3.183,5.643l-2.639,0.34l1.883-4.484
				l-4.612,0.661l0.932-2.252l6.293-1.591l-0.692-2.727l-5.949,1.483l-3.115-5.256l-2.42,1.427l3.297,5.581l-1.016,2.437
				l-3.031-3.994l-1.746,4.356l-1.416-1.845l1.762-6.237l-2.701-0.774l-1.705,5.896l-6.104,0.076l0.031,2.804l6.487-0.065
				l1.511,1.983l-4.937,0.628l3.021,3.844l-2.341,0.306l-4.516-4.646L159.248,234.438z M172.322,237.616l-1.951-2.489l3.135-0.396
				l1.174-2.938l1.918,2.518l3.125-0.449l-1.223,2.918l1.957,2.48l-3.137,0.404l-1.176,2.938l-1.912-2.521l-3.135,0.446
				L172.322,237.616z"/>
		</g>
		<g>
			<path fill="#ADD3F0" d="M30.845,206.404l4.226,4.429l-2.963,5.304l2.445,1.381l3.189-5.646l2.297-0.299l-1.852,4.405l4.952-0.709
				l-0.986,2.371l-6.279,1.592l0.688,2.721l5.907-1.518l3.159,5.289l2.417-1.422l-3.295-5.58l0.929-2.24l2.824,3.73l1.818-4.531
				l1.667,2.166l-1.735,6.139l2.708,0.76l1.632-5.862l6.167-0.1l-0.026-2.806l-6.593,0.062l-1.573-2.045l4.757-0.604l-2.975-3.783
				l2.585-0.334l4.533,4.654l2.01-1.963l-3.852-3.957l-0.42-0.43l3.007-5.355l-2.445-1.377l-3.185,5.643l-2.638,0.34l1.882-4.48
				l-4.611,0.656l0.933-2.252l6.291-1.592l-0.693-2.729l-5.95,1.482l-3.116-5.251l-2.417,1.433l3.295,5.572l-1.016,2.434
				l-3.03-3.989l-1.747,4.356l-1.42-1.851l1.764-6.231l-2.699-0.769l-1.708,5.892l-6.102,0.074l0.031,2.811l6.489-0.071l1.508,1.983
				l-4.936,0.617l3.019,3.857l-2.338,0.298l-4.513-4.642L30.845,206.404z M43.917,209.577l-1.952-2.483l3.138-0.396l1.174-2.941
				l1.919,2.521l3.122-0.444l-1.222,2.908l1.957,2.489l-3.134,0.4l-1.177,2.938l-1.911-2.522l-3.132,0.456L43.917,209.577z"/>
			<path fill="#ADD3F0" d="M22.822,235.217l2.82,2.95l-1.98,3.542l1.632,0.92l2.125-3.77l1.531-0.195l-1.234,2.936l3.304-0.473
				l-0.656,1.582l-4.189,1.062l0.459,1.813l3.936-1.015l2.108,3.531l1.612-0.957l-2.2-3.719l0.619-1.488l1.884,2.484l1.213-3.021
				l1.11,1.445l-1.158,4.092l1.804,0.513l1.09-3.916l4.112-0.063l-0.019-1.871l-4.393,0.045l-1.05-1.363l3.171-0.404l-1.983-2.521
				l1.724-0.222l3.019,3.103l1.341-1.305l-2.566-2.644L41.729,236l2.004-3.562l-1.628-0.924l-2.125,3.758l-1.757,0.233l1.255-2.993
				l-3.077,0.439l0.622-1.498l4.194-1.067l-0.464-1.812l-3.963,0.986l-2.077-3.502l-1.612,0.951l2.198,3.723l-0.679,1.617
				l-2.02-2.656l-1.164,2.902l-0.946-1.236l1.176-4.154l-1.799-0.516l-1.138,3.935l-4.07,0.052l0.021,1.869l4.326-0.042l1.008,1.322
				l-3.293,0.409l2.014,2.568l-1.559,0.203l-3.012-3.098L22.822,235.217z M31.539,237.337l-1.304-1.662l2.092-0.265l0.782-1.954
				l1.281,1.675l2.082-0.291l-0.817,1.939l1.306,1.652l-2.089,0.27l-0.783,1.953l-1.278-1.676l-2.088,0.299L31.539,237.337z"/>
		</g>
		<g>
			<path fill="#ADD3F0" d="M84.645,207.245l2.818,2.954l-1.978,3.537l1.632,0.921l2.125-3.769l1.531-0.197l-1.232,2.94l3.301-0.478
				l-0.656,1.582l-4.191,1.062l0.461,1.812l3.939-1.004l2.105,3.521l1.613-0.949l-2.201-3.72l0.619-1.492l1.883,2.483l1.215-3.022
				l1.109,1.445l-1.156,4.095l1.803,0.51l1.09-3.908l4.112-0.071l-0.018-1.87l-4.394,0.047l-1.051-1.363l3.174-0.401l-1.983-2.521
				l1.722-0.232l3.021,3.111l1.342-1.312l-2.568-2.641l-0.279-0.283l2.004-3.568l-1.631-0.915l-2.124,3.754l-1.757,0.236
				l1.254-2.999l-3.072,0.443l0.62-1.502l4.192-1.066l-0.457-1.812l-3.97,0.987l-2.079-3.499l-1.609,0.95l2.193,3.719l-0.674,1.62
				l-2.02-2.658l-1.164,2.907l-0.948-1.235l1.176-4.154l-1.8-0.514l-1.136,3.93l-4.07,0.049l0.021,1.876l4.328-0.048l1.005,1.316
				l-3.29,0.415l2.01,2.567l-1.558,0.203l-3.013-3.096L84.645,207.245z M93.361,209.363l-1.303-1.661l2.091-0.259l0.784-1.961
				l1.28,1.677l2.082-0.292l-0.817,1.939l1.308,1.652l-2.094,0.27l-0.783,1.959l-1.273-1.677l-2.088,0.298L93.361,209.363z"/>
			<path fill="#ADD3F0" d="M65.982,234.438l4.225,4.429l-2.965,5.309l2.446,1.38l3.188-5.652l2.298-0.291l-1.853,4.408l4.953-0.713
				l-0.985,2.364l-6.283,1.593l0.689,2.725l5.911-1.516l3.159,5.291l2.418-1.425l-3.3-5.588l0.93-2.231l2.827,3.727l1.817-4.527
				l1.663,2.166l-1.732,6.133l2.706,0.767l1.633-5.863l6.17-0.103l-0.027-2.809l-6.594,0.066l-1.574-2.039l4.76-0.609l-2.975-3.783
				l2.586-0.334l4.527,4.65l2.014-1.955l-3.85-3.961l-0.421-0.431l3.01-5.349l-2.448-1.385l-3.184,5.643l-2.636,0.34l1.879-4.484
				l-4.612,0.661l0.936-2.252l6.288-1.591l-0.692-2.727l-5.946,1.483l-3.118-5.256l-2.421,1.427l3.302,5.581l-1.018,2.437
				l-3.035-3.994l-1.744,4.356l-1.419-1.845l1.761-6.237l-2.697-0.774l-1.705,5.896l-6.103,0.076l0.028,2.804l6.488-0.065
				l1.511,1.983l-4.937,0.628l3.019,3.844l-2.339,0.306l-4.517-4.646L65.982,234.438z M79.055,237.616l-1.952-2.489l3.132-0.396
				l1.175-2.938l1.918,2.518l3.125-0.449l-1.223,2.918l1.956,2.48l-3.134,0.404l-1.178,2.938l-1.912-2.521l-3.13,0.446
				L79.055,237.616z"/>
		</g>
		<g>
			<g>
				<path fill="#FFFFFF" d="M182.432,118.095c0.215,0.107,0.437,0.203,0.646,0.316c0.004-0.033,0.01-0.078,0.016-0.119
					C182.873,118.226,182.658,118.157,182.432,118.095z"/>
			</g>
			<g>
				<path fill="#FFFFFF" d="M165.408,114.425c4.922,0,9.652,0.82,14.072,2.305c-4.027-1.619-8.416-2.521-13.021-2.521
					c-1.945,0-3.846,0.166-5.697,0.471C162.285,114.521,163.836,114.425,165.408,114.425z"/>
			</g>
			<path fill="#FFFFFF" d="M266.979,166.466c-1.776-6.405-6.01-12.127-11.602-15.7c-4.883-3.166-10.998-4.714-16.859-4.242
				c-0.219-3.172-1.291-6.338-3.063-8.988c-1.033-1.564-2.326-2.986-3.84-4.232c2.104-5.154,2.678-11.01,1.606-16.549
				c-1.279-6.826-5.17-13.271-10.67-17.672c-5.201-4.227-12.025-6.65-18.715-6.65c-0.283,0-0.561,0-0.832,0.012
				c-5.562,0.119-11.102,1.891-15.678,5.012c-1.648-2.129-3.559-3.953-5.676-5.432c-1.103-0.775-2.301-1.473-3.67-2.146
				c-0.105-0.051-0.207-0.09-0.312-0.131l-0.182-0.078c-0.453-0.205-0.912-0.402-1.381-0.584c-0.183-0.068-0.369-0.137-0.545-0.197
				c-3.166-1.133-6.457-1.689-9.668-1.525c-0.158-0.611-0.304-1.285-0.459-2.061c-0.193-1.014-0.396-2.057-0.697-3.094
				c-0.629-2.344-1.488-4.648-2.555-6.854c-2.213-4.604-5.408-8.863-9.242-12.318c-4.051-3.658-8.939-6.508-14.126-8.242
				c-5.408-1.822-11.242-2.469-16.992-1.873c-8.973,0.883-17.779,5.029-24.168,11.373c-5.732,5.619-9.691,12.971-11.195,20.775
				c-0.994-0.199-1.963-0.301-2.949-0.301c-3.867,0-7.68,1.291-10.727,3.631c-2.232,1.672-4.076,3.896-5.328,6.43
				c-0.82,1.658-1.367,3.512-1.602,5.391c-5.947-1.533-12.307-1.473-18.197,0.148c-6.684,1.818-12.891,5.727-17.467,11.006
				c-3.648,4.191-6.293,9.215-7.646,14.527c-1.309,5.092-1.473,10.508-0.465,15.666c0.924,4.832,2.934,9.521,5.807,13.578
				c2.141,3.015,4.83,5.736,7.826,7.941c-3.336,1.506-6.184,4.004-8.088,7.102c-2.51,3.994-3.369,8.955-2.361,13.595
				c0.109,0.51,0.229,0.975,0.359,1.397l0.043,0.148c0.051,0.176,0.102,0.34,0.24,0.736l0.24,0.68
				c0.035,0.078,0.137,0.316,0.439,0.486l0.168,0.092h29.838h26.678h126.121h2.34h52.804l0.987-2.029l0.39-0.895
				c0.223-0.543,0.479-1.189,0.692-1.857C268.322,177.415,268.455,171.698,266.979,166.466z"/>
			<g>
				<path fill="#ADD3F0" d="M231.443,122.909c-0.062-0.092-0.125-0.182-0.205-0.256c0.055-0.48,0.082-0.963,0.102-1.443
					c-0.027-0.277-0.078-0.549-0.117-0.822c-0.053-0.379-0.098-0.77-0.166-1.148c-0.113-0.652-0.254-1.303-0.416-1.943
					c-1.52-6.162-5.1-11.758-10.084-15.752c-4.936-4.004-11.166-6.305-17.545-6.469c-0.326-0.012-0.643-0.016-0.963-0.016
					c-5.01,0-10.133,1.359-14.57,3.828c1.613,2.305,2.857,4.871,3.601,7.539c1.334,4.707,1.209,9.771-0.312,14.336
					c2.646,1.58,5.123,3.5,7.311,5.686c2.854,2.867,5.262,6.23,7.029,9.811c2.039-2.531,4.83-4.514,7.961-5.619
					c1.936-0.686,4.08-1.047,6.199-1.047c2.039,0,4.037,0.322,5.94,0.963c1.801,0.601,3.519,1.512,5.067,2.646
					c0.232-0.775,0.423-1.568,0.586-2.367c0.029-0.137,0.056-0.271,0.082-0.408C231.414,127.95,231.578,125.423,231.443,122.909z
					 M223.283,125.333c-14.242-0.459-25.717-11.752-26.479-25.918c2.315-0.918,4.84-1.439,7.481-1.439
					c11.205,0,20.291,9.086,20.291,20.289C224.578,120.757,224.107,123.136,223.283,125.333z"/>
				<path fill="#ADD3F0" d="M24.524,139.663c-0.014-0.125-0.025-0.25-0.037-0.379c-0.002,0-0.002-0.007-0.006-0.019
					C24.495,139.402,24.506,139.532,24.524,139.663z"/>
				<path fill="#ADD3F0" d="M183.389,114.798c0,0.873-0.08,1.717-0.182,2.555h0.006c1.145,0.367,2.277,0.77,3.373,1.246
					c1.266,0.555,2.512,1.189,3.73,1.896c0.805-4.502,0.447-9.254-1.062-13.484c-1.744-4.975-5.098-9.369-9.43-12.395
					c-0.441-0.311-0.904-0.6-1.365-0.877c-0.623-0.357-1.248-0.709-1.888-1.014c-0.752-0.375-1.518-0.703-2.305-1.025
					c-2.854-1.076-5.908-1.654-8.973-1.654h-0.344c-4.748,0.033-9.619,1.484-13.723,4.066c0.422-0.266,0.873-0.498,1.312-0.742
					c2.485-0.916,5.16-1.443,7.963-1.443C173.143,91.927,183.389,102.161,183.389,114.798z"/>
				<path fill="#ADD3F0" d="M161.65,88.612c0.106-0.021,0.213-0.045,0.322-0.062c0.948-0.186,1.903-0.334,2.875-0.406
					c-0.304-0.879-0.562-1.768-0.798-2.646c-0.248-0.939-0.506-1.914-0.838-2.848c-0.741-2.203-1.688-4.361-2.81-6.406
					c-2.321-4.232-5.5-8.111-9.211-11.227c-3.885-3.279-8.496-5.816-13.319-7.352c-3.779-1.195-7.729-1.801-11.742-1.801
					c-1.332,0-2.674,0.066-3.99,0.203c-8.369,0.832-16.367,4.469-22.525,10.258c-5.725,5.312-9.82,12.432-11.529,20.045
					c-0.031,0.137-0.098,0.25-0.193,0.328c-0.59,2.668-0.912,5.432-0.957,8.207c0,0.107-0.09,0.199-0.199,0.205
					c-0.113,0-0.197-0.092-0.203-0.193c-0.162-2.82-0.012-5.652,0.43-8.422c-4.457,0.232-8.793,1.783-12.273,4.434
					c-3.432,2.578-6.104,6.271-7.609,10.428c0.029,0.018,0.064,0.029,0.088,0.047c0.707,0.645,2.637,0.922,3.557,1.312
					c1.246,0.545,2.459,1.168,3.631,1.854c2.402,1.404,4.662,3.104,6.633,5.074c1.557-0.703,2.846-2.254,4.463-3.064
					c4.01-2.004,8.021-3.416,12.67-3.393c0.035-0.023,0.072-0.039,0.109-0.068c-0.217-0.674-0.566-2.498-0.582-2.576
					c-0.133-0.664-0.246-1.326-0.336-2c-0.182-1.365-0.271-2.742-0.271-4.117c0-17.18,13.922-31.096,31.1-31.096
					c15.459,0,28.249,11.283,30.658,26.061C159.732,89.071,160.682,88.817,161.65,88.612z"/>
				<path fill="#ADD3F0" d="M134.854,150.171c-1.102,0-2.189,0.058-3.268,0.146c-0.01-0.401-0.029-0.805-0.029-1.207
					c0-4.26,0.775-8.332,2.17-12.092c2.932-8.563,8.662-15.18,15.904-19.274c-0.227,0.086-0.43,0.188-0.65,0.277l0.486-0.215
					c0,0-6.703,1.195-14.429,7.375c-1.232,0.984-2.482,2.096-3.74,3.348c-0.057,0.057-0.113,0.113-0.17,0.17
					c-0.617,0.623-1.238,1.273-1.854,1.959c-0.002,0.012-0.01,0.018-0.016,0.022c-0.58,0.65-1.162,1.348-1.736,2.062
					c-0.088,0.118-0.176,0.227-0.264,0.334c-0.568,0.727-1.129,1.473-1.688,2.266c-0.094,0.132-0.182,0.269-0.277,0.402
					c-0.508,0.729-1,1.483-1.496,2.276c-0.074,0.119-0.146,0.232-0.221,0.353c-0.527,0.854-1.043,1.756-1.547,2.685
					c-0.113,0.211-0.223,0.42-0.336,0.635c-0.514,0.963-1.014,1.955-1.498,3.002c-0.221,0.102-0.434,0.221-0.652,0.324
					c-2.807,1.246-5.861,1.885-8.934,1.885c-0.678,0-1.346-0.039-2.02-0.103c-0.004,0-0.004,0-0.006,0
					c-4.662-0.424-8.91-2.289-12.291-5.147c-0.035-0.023-0.066-0.045-0.098-0.062c-5.363-4.385-8.783-11.033-8.783-18.498
					c0-7.811,3.771-14.732,9.58-19.082c0.453-0.125,0.816-0.256,0.932-0.396c-0.037,0.01-0.074,0.021-0.113,0.033
					c-2.34,0.498-4.611,1.252-6.764,2.242c-0.006,0-0.01,0-0.02,0c-0.719,0.334-1.424,0.686-2.115,1.066
					c-0.064,0.039-0.125,0.078-0.189,0.117c-0.629,0.352-1.25,0.721-1.855,1.111c-0.152,0.096-0.301,0.215-0.453,0.322
					c-0.5,0.334-1.002,0.68-1.479,1.043c-0.277,0.209-0.531,0.441-0.793,0.65c-0.346,0.289-0.695,0.555-1.027,0.855
					c-0.586,0.521-1.15,1.064-1.688,1.631c-4.387,4.561-7.373,10.621-8.408,17.066c-0.018,0.09-0.104,0.164-0.199,0.164
					c-0.113,0-0.197-0.084-0.203-0.188c-0.182-3.154,0.289-6.434,1.365-9.492c1.203-3.432,3.166-6.621,5.68-9.238
					c0.346-0.357,0.723-0.686,1.088-1.025c-3.02-2.561-6.484-4.6-10.172-6.01c-1.23-0.463-2.48-0.865-3.756-1.189
					c-0.127,0.035-0.264,0.029-0.391,0c-0.439-0.006-0.943-0.186-1.398-0.305c-0.006-0.006-0.016-0.006-0.02-0.006
					c-0.74-0.148-1.484-0.271-2.23-0.375c-0.006,0-0.008,0-0.014,0c-0.441-0.045-0.863-0.045-1.305-0.051
					c-0.199-0.006-0.381-0.066-0.557-0.141c-0.883-0.068-1.764-0.119-2.656-0.119c-3.336,0-6.633,0.486-9.795,1.434
					c-6.064,1.795-11.705,5.438-15.883,10.246c-3.322,3.822-5.777,8.389-7.102,13.219c-0.318,1.145-0.57,2.322-0.768,3.506
					c-0.098,0.607-0.137,1.224-0.199,1.83c-0.064,0.584-0.156,1.156-0.191,1.734c-0.047,0.814-0.023,1.637-0.016,2.451
					c0.004,0.385-0.02,0.771-0.002,1.149c0.027,0.65,0.125,1.298,0.189,1.938c0.049,0.254,0.1,0.504,0.156,0.752
					c-0.012,0.256-0.006,0.51,0,0.771c0.012,0.096,0.012,0.196,0.027,0.288c0.697,4.515,2.379,8.978,4.859,12.921
					c2.148,3.397,4.963,6.463,8.146,8.954c3.213-1.319,6.863-1.756,10.279-1.225c0.049-0.871,0.148-1.731,0.318-2.588
					c0.617-3.064,2.08-6.033,4.123-8.345c1.846-2.106,4.156-3.731,6.689-4.701c0.094-0.038,0.197,0.007,0.246,0.093
					c0.047,0.09,0.025,0.203-0.061,0.26c-4.434,3.188-7.572,7.986-8.604,13.175c-1.07,5.217-0.057,10.858,2.781,15.485
					c0.051,0.09,0.035,0.196-0.045,0.267c-0.037,0.028-0.08,0.041-0.125,0.041c-0.053,0-0.102-0.013-0.141-0.058
					c-1.961-1.888-3.455-4.283-4.328-6.935c-0.65-1.987-0.918-4.071-0.861-6.162c-0.02,0-0.039,0-0.057,0l0.057-0.067
					c0,0-0.787-0.006-2.033,0.097c-1.037,0.062-2.061,0.215-3.07,0.432c-5.912,1.139-14.846,4.764-14.811,16.25
					c-0.068,1.381,0.027,2.781,0.326,4.129c0.033,0.176,0.088,0.402,0.154,0.656c0.074,0.283,0.168,0.533,0.268,0.766l52.691,1.891
					c-0.254-1.262-0.422-2.555-0.422-3.896c0-11.046,8.959-20.007,20.01-20.007c6.941,0,13.053,3.541,16.643,8.91
					c4.16-10.535,14.412-17.994,26.419-17.994c1.688,0,3.33,0.177,4.932,0.459c0.367-0.131,0.75-0.227,1.123-0.352
					C145.514,151.389,140.331,150.171,134.854,150.171z M145.016,119.788l0.758-0.34c-0.396,0.197-0.774,0.414-1.166,0.617
					L145.016,119.788z M48.188,145.798c-7.629-2.86-13.076-10.2-13.076-18.846c0-11.117,9.016-20.129,20.133-20.129
					c6.299,0,11.918,2.883,15.607,7.414c-5.439,6.084-9.139,13.73-10.441,22.18C55.602,138.507,51.42,141.753,48.188,145.798z
					 M62.688,146.546c-0.062-0.019-0.121-0.022-0.182-0.035c0.119-0.084,0.244-0.163,0.363-0.247
					C62.807,146.357,62.743,146.448,62.688,146.546z M64.124,167.779c-3.791-6.706-3.229-14.829,3.33-21.206
					c2.139-2.072,4.744-2.884,7.328-2.662c2.191,3.801,5.275,6.935,8.92,9.526C75.01,154.593,67.723,160.141,64.124,167.779z"/>
				<path fill="#ADD3F0" d="M198.783,161.991c7.67,2.6,14.205,7.674,18.627,14.284c-0.232-1.239-0.354-2.516-0.354-3.823
					c0-11.504,9.321-20.826,20.819-20.826s20.822,9.322,20.822,20.826c0,4.684-1.57,8.993-4.188,12.473
					c0.9-0.032,1.797-0.062,2.697-0.096c0.561-0.019,1.121-0.041,1.682-0.058l0.66-0.022c0.316-0.013,0.705-0.058,1.068-0.039
					l1.932-0.067l0.576-1.371c0.168-0.431,0.35-0.935,0.516-1.455c0-0.006,0-0.012,0-0.019c0.062-0.396,0.215-0.793,0.34-1.188
					c0.049-0.17,0.107-0.346,0.148-0.521c0.078-0.328,0.146-0.656,0.209-0.99c0.057-0.262,0.113-0.527,0.158-0.793
					c0.057-0.34,0.1-0.686,0.143-1.025c0.033-0.271,0.072-0.543,0.096-0.815c0.033-0.35,0.05-0.694,0.068-1.047
					c0.012-0.262,0.033-0.521,0.037-0.787c0.01-0.362-0.004-0.729-0.01-1.094c-0.006-0.254-0.006-0.504-0.016-0.754
					c-0.023-0.367-0.062-0.742-0.094-1.104c-0.025-0.25-0.037-0.498-0.068-0.742c-0.051-0.391-0.121-0.787-0.189-1.178
					c-0.041-0.211-0.062-0.438-0.107-0.646c-0.125-0.604-0.264-1.2-0.432-1.788c-1.576-5.664-5.283-10.791-10.178-14.082
					c-0.672-0.441-1.363-0.854-2.068-1.246c-0.176-0.09-0.354-0.177-0.535-0.261c-0.541-0.282-1.086-0.549-1.647-0.786
					c-0.179-0.074-0.354-0.148-0.535-0.216c-0.707-0.289-1.426-0.545-2.157-0.766c-1.152-0.34-2.324-0.6-3.509-0.775
					c-2.416-0.375-4.896-0.561-7.332-0.266c-1.139,0.141-2.264,0.355-3.371,0.639c-1.127,0.295-2.235,0.652-3.312,1.088
					c-2.164,0.867-4.215,2.021-6.066,3.433c-0.086,0.062-0.209,0.047-0.277-0.033c-0.074-0.084-0.062-0.202,0.021-0.276
					c3.914-3.506,8.987-5.76,14.312-6.389c-0.672-3.082-2.021-5.941-3.965-8.326c-2.291-2.838-5.438-5.041-8.871-6.191
					c-1.941-0.646-3.992-0.98-6.082-0.98c-1.601,0-3.189,0.199-4.73,0.584c-3.012,0.754-5.85,2.254-8.252,4.334
					c0.182,0.385,0.363,0.771,0.533,1.16c1.643,3.789,2.633,7.941,2.865,12.014c0.004,0.107-0.068,0.197-0.177,0.209
					c-0.002,0-0.002,0-0.008,0c-0.01,0-0.01,0-0.019,0c-0.096,0-0.178-0.062-0.196-0.151c-1.861-8.226-6.129-15.983-12.019-21.857
					c-0.68-0.68-1.387-1.338-2.11-1.971c-0.394-0.346-0.806-0.674-1.214-1.004c-0.312-0.254-0.616-0.51-0.936-0.758
					c-0.574-0.438-1.154-0.861-1.752-1.275c-0.137-0.09-0.275-0.191-0.41-0.283c-0.711-0.486-1.432-0.951-2.164-1.387h-0.006
					c8.264,6.377,13.596,16.356,13.596,27.611c0,4.565-0.881,8.916-2.477,12.913C198.846,162.014,198.812,162.003,198.783,161.991z
					 M217.5,133.591c7.223,0,13.088,5.789,13.223,12.982c-0.99,0.209-2.016,0.321-3.072,0.321c-7.395,0-13.5-5.438-14.588-12.526
					C214.451,133.874,215.939,133.591,217.5,133.591z"/>
			</g>
			<path fill="#231F20" d="M266.979,166.466c-1.776-6.405-6.01-12.127-11.602-15.7c-4.883-3.166-10.998-4.714-16.859-4.242
				c-0.219-3.172-1.291-6.338-3.063-8.988c-1.033-1.564-2.326-2.986-3.84-4.232c2.104-5.154,2.678-11.01,1.606-16.549
				c-1.279-6.826-5.17-13.271-10.67-17.672c-5.201-4.227-12.025-6.65-18.715-6.65c-0.283,0-0.561,0-0.832,0.012
				c-5.562,0.119-11.102,1.891-15.678,5.012c-1.648-2.129-3.559-3.953-5.676-5.432c-1.103-0.775-2.301-1.473-3.67-2.146
				c-0.105-0.051-0.207-0.09-0.312-0.131l-0.182-0.078c-0.453-0.205-0.912-0.402-1.381-0.584c-0.183-0.068-0.369-0.137-0.545-0.197
				c-3.166-1.133-6.457-1.689-9.668-1.525c-0.158-0.611-0.304-1.285-0.459-2.061c-0.193-1.014-0.396-2.057-0.697-3.094
				c-0.629-2.344-1.488-4.648-2.555-6.854c-2.213-4.604-5.408-8.863-9.242-12.318c-4.051-3.658-8.939-6.508-14.126-8.242
				c-5.408-1.822-11.242-2.469-16.992-1.873c-8.973,0.883-17.779,5.029-24.168,11.373c-5.732,5.619-9.691,12.971-11.195,20.775
				c-0.994-0.199-1.963-0.301-2.949-0.301c-3.867,0-7.68,1.291-10.727,3.631c-2.232,1.672-4.076,3.896-5.328,6.43
				c-0.82,1.658-1.367,3.512-1.602,5.391c-5.947-1.533-12.307-1.473-18.197,0.148c-6.684,1.818-12.891,5.727-17.467,11.006
				c-3.648,4.191-6.293,9.215-7.646,14.527c-1.309,5.092-1.473,10.508-0.465,15.666c0.924,4.832,2.934,9.521,5.807,13.578
				c2.141,3.015,4.83,5.736,7.826,7.941c-3.336,1.506-6.184,4.004-8.088,7.102c-2.51,3.994-3.369,8.955-2.361,13.595
				c0.109,0.51,0.229,0.975,0.359,1.397l0.043,0.148c0.051,0.176,0.102,0.34,0.24,0.736l0.24,0.68
				c0.035,0.078,0.137,0.316,0.439,0.486l0.168,0.092h56.516l-0.262-0.73h-0.771c-0.029-0.074-0.088-0.137-0.174-0.143
				l-53.275-1.908c-0.1-0.232-0.193-0.482-0.268-0.766c-0.066-0.254-0.121-0.48-0.154-0.656c-0.299-1.348-0.395-2.748-0.326-4.129
				c-0.035-11.486,8.898-15.111,14.811-16.25c1.01-0.217,2.033-0.369,3.07-0.432c1.246-0.103,2.033-0.097,2.033-0.097
				s-0.057,0.067,0,0.067c-0.057,2.091,0.211,4.175,0.861,6.162c0.873,2.65,2.367,5.047,4.328,6.935
				c0.039,0.045,0.088,0.058,0.141,0.058c0.045,0,0.088-0.013,0.125-0.041c0.08-0.068,0.096-0.177,0.045-0.267
				c-2.838-4.627-3.852-10.271-2.781-15.485c1.031-5.188,4.17-9.984,8.604-13.175c0.086-0.057,0.107-0.17,0.061-0.26
				c-0.049-0.086-0.152-0.131-0.246-0.093c-2.533,0.97-4.844,2.595-6.689,4.701c-2.043,2.312-3.506,5.279-4.123,8.345
				c-0.17,0.854-0.27,1.717-0.318,2.588c-3.416-0.531-7.066-0.097-10.279,1.225c-3.184-2.491-5.998-5.557-8.146-8.954
				c-2.48-3.943-4.162-8.406-4.859-12.921c-0.758-4.793-0.479-9.782,0.803-14.422c1.324-4.83,3.779-9.396,7.102-13.219
				c4.178-4.809,9.818-8.451,15.883-10.246c3.162-0.947,6.459-1.434,9.795-1.434c2.775,0,5.523,0.334,8.18,0.996
				c0.127,0.029,0.264,0.035,0.391,0c5.084,1.297,9.9,3.785,13.932,7.199c-0.369,0.34-0.746,0.668-1.092,1.025
				c-2.514,2.617-4.477,5.807-5.68,9.238c-1.076,3.059-1.547,6.338-1.365,9.492c0.006,0.104,0.09,0.188,0.203,0.188
				c0.096,0,0.182-0.074,0.199-0.164c1.035-6.445,4.021-12.506,8.408-17.066c4.336-4.553,10.26-7.793,16.684-9.113
				c0.098-0.027,0.164-0.119,0.158-0.221c-0.008-0.102-0.096-0.188-0.199-0.188c-3.131-0.051-6.422,0.566-9.422,1.768
				c-2.783,1.1-5.367,2.754-7.627,4.746c-3.852-3.811-8.643-6.666-13.854-8.273c-0.023-0.018-0.059-0.029-0.088-0.047
				c1.506-4.156,4.178-7.85,7.609-10.428c3.48-2.65,7.816-4.201,12.273-4.434c-0.441,2.77-0.592,5.602-0.43,8.422
				c0.006,0.102,0.09,0.193,0.203,0.193c0.109-0.006,0.199-0.098,0.199-0.205c0.045-2.775,0.367-5.539,0.957-8.207
				c0.096-0.078,0.162-0.191,0.193-0.328c1.709-7.613,5.805-14.732,11.529-20.045c6.158-5.789,14.156-9.426,22.525-10.258
				c1.316-0.137,2.658-0.203,3.99-0.203c4.014,0,7.963,0.605,11.742,1.801c4.824,1.535,9.436,4.072,13.32,7.352
				c3.711,3.115,6.889,6.994,9.211,11.227c1.121,2.045,2.066,4.203,2.809,6.406c0.332,0.934,0.59,1.908,0.838,2.848
				c0.236,0.879,0.494,1.768,0.797,2.646c-5.096,0.373-10.018,2.379-13.852,5.646c-0.086,0.068-0.1,0.193-0.037,0.271
				c0.062,0.086,0.182,0.113,0.271,0.051c4.104-2.582,8.975-4.033,13.723-4.066h0.344c3.064,0,6.117,0.578,8.973,1.654
				c0.787,0.322,1.554,0.65,2.306,1.025c0.639,0.305,1.264,0.656,1.887,1.014c0.461,0.277,0.925,0.566,1.365,0.877
				c4.332,3.025,7.687,7.42,9.43,12.395c1.509,4.23,1.865,8.982,1.062,13.484c-1.219-0.707-2.465-1.342-3.73-1.896
				c-3.787-1.643-7.938-2.65-12.01-2.889c-0.104,0-0.195,0.068-0.217,0.17c-0.01,0.102,0.057,0.203,0.16,0.227
				c8.219,1.881,15.973,6.168,21.828,12.07c5.889,5.873,10.155,13.633,12.018,21.857c0.02,0.09,0.102,0.152,0.223,0.152
				c0.107-0.013,0.18-0.103,0.176-0.209c-0.231-4.072-1.223-8.226-2.865-12.015c-0.17-0.392-0.352-0.774-0.532-1.16
				c2.401-2.08,5.239-3.58,8.252-4.334c1.541-0.385,3.131-0.584,4.729-0.584c2.09,0,4.142,0.334,6.082,0.979
				c3.435,1.15,6.58,3.354,8.871,6.191c1.943,2.385,3.293,5.244,3.965,8.326c-5.322,0.629-10.396,2.883-14.311,6.389
				c-0.082,0.074-0.094,0.193-0.02,0.277c0.067,0.08,0.19,0.096,0.276,0.033c3.688-2.809,8.154-4.598,12.75-5.158
				c2.437-0.295,4.916-0.109,7.332,0.266c2.334,0.346,4.619,1.015,6.771,1.994c1.279,0.576,2.515,1.268,3.683,2.055
				c4.896,3.291,8.603,8.418,10.179,14.082c1.303,4.64,1.231,9.713-0.21,14.279c-0.184,0.6-0.401,1.178-0.59,1.67l-0.575,1.371
				l-51.964,1.807c-0.086,0-0.147,0.062-0.176,0.144h-0.769l-0.258,0.729h55.144l0.987-2.028l0.39-0.896
				c0.223-0.543,0.479-1.188,0.692-1.856C268.322,177.415,268.455,171.698,266.979,166.466z M225.207,130.557
				c-1.904-0.642-3.902-0.964-5.941-0.964c-2.119,0-4.264,0.361-6.199,1.048c-3.131,1.104-5.922,3.088-7.961,5.618
				c-1.768-3.579-4.176-6.943-7.028-9.811c-2.188-2.186-4.664-4.105-7.312-5.686c1.521-4.566,1.646-9.629,0.312-14.336
				c-0.742-2.668-1.986-5.234-3.6-7.539c4.438-2.469,9.561-3.828,14.569-3.828c0.32,0,0.638,0.004,0.963,0.016
				c6.38,0.164,12.609,2.465,17.546,6.469c4.983,3.994,8.563,9.59,10.084,15.752c1.301,5.178,1.155,10.773-0.365,15.904
				C228.725,132.066,227.008,131.154,225.207,130.557z"/>
		</g>
	</g>
</g>
</svg>
