<?xml version="1.0" encoding="utf-8"?>
<!-- Generator: Adobe Illustrator 15.0.2, SVG Export Plug-In . SVG Version: 6.00 Build 0)  -->
<!DOCTYPE svg PUBLIC "-//W3C//DTD SVG 1.1//EN" "http://www.w3.org/Graphics/SVG/1.1/DTD/svg11.dtd">
<svg version="1.1" id="Layer_1" xmlns="http://www.w3.org/2000/svg" xmlns:xlink="http://www.w3.org/1999/xlink" x="0px" y="0px"
	 width="280px" height="260px" viewBox="0 0 280 260" enable-background="new 0 0 280 260" xml:space="preserve">
<g>
	<g>
		<g>
			<path fill="#ADD3F0" d="M49.601,209.145l2.58,2.697l-1.807,3.24l1.488,0.844l1.947-3.443l1.4-0.188l-1.133,2.695l3.025-0.436
				l-0.6,1.448l-3.836,0.963l0.422,1.66l3.605-0.918l1.926,3.217l1.473-0.864l-2.008-3.398l0.564-1.365l1.727,2.271l1.105-2.764
				l1.02,1.323l-1.061,3.738l1.648,0.465l1-3.574l3.764-0.062l-0.018-1.711l-4.021,0.041l-0.963-1.252l2.906-0.369L63.94,211.1
				l1.576-0.203l2.766,2.836l1.225-1.193l-2.354-2.414l-0.254-0.26l1.838-3.27l-1.492-0.839l-1.943,3.438l-1.607,0.21l1.146-2.742
				l-2.814,0.407l0.57-1.377l3.838-0.969l-0.424-1.664l-3.629,0.906l-1.9-3.207l-1.475,0.873l2.008,3.404l-0.617,1.484l-1.848-2.437
				l-1.066,2.656l-0.865-1.134l1.076-3.801l-1.65-0.465l-1.039,3.598l-3.725,0.039l0.02,1.718l3.959-0.041l0.922,1.207l-3.012,0.379
				l1.842,2.346l-1.428,0.188l-2.752-2.832L49.601,209.145z M57.579,211.082l-1.189-1.518l1.91-0.238l0.717-1.795l1.168,1.535
				l1.908-0.271l-0.748,1.777l1.195,1.514l-1.914,0.242l-0.717,1.797l-1.164-1.541l-1.914,0.277L57.579,211.082z"/>
			<path fill="#ADD3F0" d="M36.405,241.033l2.58,2.697l-1.809,3.24l1.492,0.838l1.945-3.443l1.398-0.182l-1.127,2.688l3.021-0.431
				l-0.602,1.443l-3.832,0.969l0.422,1.666l3.602-0.93l1.926,3.229l1.479-0.864l-2.01-3.41l0.566-1.364l1.721,2.282l1.111-2.774
				l1.014,1.324l-1.061,3.743l1.654,0.466l0.998-3.574l3.764-0.062l-0.021-1.711l-4.021,0.035l-0.957-1.246l2.9-0.375l-1.812-2.305
				l1.574-0.197l2.766,2.836l1.229-1.193l-2.352-2.42l-0.254-0.26l1.834-3.264l-1.494-0.844l-1.943,3.438l-1.605,0.215l1.146-2.735
				l-2.814,0.396l0.572-1.371l3.834-0.969l-0.422-1.664l-3.627,0.899l-1.904-3.205l-1.473,0.871l2.008,3.41l-0.617,1.479
				l-1.85-2.437l-1.064,2.662l-0.867-1.133l1.076-3.801l-1.646-0.471l-1.041,3.598l-3.723,0.051l0.02,1.705l3.955-0.035l0.924,1.207
				l-3.014,0.379l1.842,2.352l-1.424,0.183l-2.756-2.832L36.405,241.033z M44.382,242.971l-1.189-1.518l1.914-0.244l0.713-1.789
				l1.172,1.535l1.904-0.271l-0.748,1.777l1.201,1.518l-1.914,0.238l-0.721,1.797l-1.166-1.535l-1.908,0.267L44.382,242.971z"/>
		</g>
		<g>
			<path fill="#ADD3F0" d="M49.601,209.145l2.58,2.697l-1.807,3.24l1.488,0.844l1.947-3.443l1.4-0.188l-1.133,2.695l3.025-0.436
				l-0.6,1.448l-3.836,0.963l0.422,1.66l3.605-0.918l1.926,3.217l1.473-0.864l-2.008-3.398l0.564-1.365l1.727,2.271l1.105-2.764
				l1.02,1.323l-1.061,3.738l1.648,0.465l1-3.574l3.764-0.062l-0.018-1.711l-4.021,0.041l-0.963-1.252l2.906-0.369L63.94,211.1
				l1.576-0.203l2.766,2.836l1.225-1.193l-2.354-2.414l-0.254-0.26l1.838-3.27l-1.492-0.839l-1.943,3.438l-1.607,0.21l1.146-2.742
				l-2.814,0.407l0.57-1.377l3.838-0.969l-0.424-1.664l-3.629,0.906l-1.9-3.207l-1.475,0.873l2.008,3.404l-0.617,1.484l-1.848-2.437
				l-1.066,2.656l-0.865-1.134l1.076-3.801l-1.65-0.465l-1.039,3.598l-3.725,0.039l0.02,1.718l3.959-0.041l0.922,1.207l-3.012,0.379
				l1.842,2.346l-1.428,0.188l-2.752-2.832L49.601,209.145z M57.579,211.082l-1.189-1.518l1.91-0.238l0.717-1.795l1.168,1.535
				l1.908-0.271l-0.748,1.777l1.195,1.514l-1.914,0.242l-0.717,1.797l-1.164-1.541l-1.914,0.277L57.579,211.082z"/>
			<path fill="#ADD3F0" d="M36.405,241.033l2.58,2.697l-1.809,3.24l1.492,0.838l1.945-3.443l1.398-0.182l-1.127,2.688l3.021-0.431
				l-0.602,1.443l-3.832,0.969l0.422,1.666l3.602-0.93l1.926,3.229l1.479-0.864l-2.01-3.41l0.566-1.364l1.721,2.282l1.111-2.774
				l1.014,1.324l-1.061,3.743l1.654,0.466l0.998-3.574l3.764-0.062l-0.021-1.711l-4.021,0.035l-0.957-1.246l2.9-0.375l-1.812-2.305
				l1.574-0.197l2.766,2.836l1.229-1.193l-2.352-2.42l-0.254-0.26l1.834-3.264l-1.494-0.844l-1.943,3.438l-1.605,0.215l1.146-2.735
				l-2.814,0.396l0.572-1.371l3.834-0.969l-0.422-1.664l-3.627,0.899l-1.904-3.205l-1.473,0.871l2.008,3.41l-0.617,1.479
				l-1.85-2.437l-1.064,2.662l-0.867-1.133l1.076-3.801l-1.646-0.471l-1.041,3.598l-3.723,0.051l0.02,1.705l3.955-0.035l0.924,1.207
				l-3.014,0.379l1.842,2.352l-1.424,0.183l-2.756-2.832L36.405,241.033z M44.382,242.971l-1.189-1.518l1.914-0.244l0.713-1.789
				l1.172,1.535l1.904-0.271l-0.748,1.777l1.201,1.518l-1.914,0.238l-0.721,1.797l-1.166-1.535l-1.908,0.267L44.382,242.971z"/>
		</g>
		<g>
			<path fill="#ADD3F0" d="M209.682,209.145l2.584,2.697l-1.812,3.24l1.491,0.844l1.943-3.443l1.404-0.188l-1.133,2.695l3.021-0.436
				l-0.601,1.448l-3.832,0.963l0.42,1.66l3.604-0.918l1.93,3.217l1.473-0.864l-2.012-3.398l0.57-1.365l1.719,2.271l1.109-2.764
				l1.02,1.323l-1.059,3.738l1.647,0.465l0.996-3.574l3.769-0.062l-0.021-1.711l-4.021,0.041l-0.963-1.252l2.902-0.369l-1.814-2.305
				l1.58-0.203l2.764,2.836l1.226-1.193l-2.348-2.414l-0.259-0.26l1.834-3.27l-1.491-0.839l-1.939,3.438l-1.61,0.21l1.146-2.742
				l-2.813,0.407l0.572-1.377l3.836-0.969l-0.423-1.664l-3.631,0.906l-1.897-3.207l-1.478,0.873l2.013,3.404l-0.621,1.484
				l-1.847-2.437l-1.067,2.656l-0.863-1.134l1.072-3.801l-1.644-0.465l-1.041,3.598l-3.723,0.039l0.016,1.718l3.959-0.041
				l0.921,1.207l-3.011,0.379l1.84,2.346l-1.424,0.188l-2.756-2.832L209.682,209.145z M217.661,211.082l-1.195-1.518l1.916-0.238
				l0.72-1.795l1.166,1.535l1.909-0.271l-0.747,1.777l1.19,1.514l-1.912,0.242l-0.72,1.797l-1.163-1.541l-1.912,0.277
				L217.661,211.082z"/>
			<path fill="#ADD3F0" d="M196.488,241.033l2.578,2.697l-1.809,3.24l1.49,0.838l1.945-3.443l1.402-0.182l-1.128,2.688l3.021-0.431
				l-0.602,1.443l-3.835,0.969l0.423,1.666l3.604-0.93l1.926,3.229l1.476-0.864l-2.01-3.41l0.567-1.364l1.724,2.282l1.104-2.774
				l1.02,1.324l-1.059,3.743l1.65,0.466l1-3.574l3.762-0.062l-0.018-1.711l-4.019,0.035l-0.968-1.246l2.906-0.375l-1.812-2.305
				l1.573-0.197l2.765,2.836l1.228-1.193l-2.349-2.42l-0.254-0.26l1.832-3.264l-1.492-0.844l-1.942,3.438l-1.609,0.215l1.15-2.735
				l-2.814,0.396l0.568-1.371l3.838-0.969l-0.426-1.664l-3.625,0.899l-1.902-3.205l-1.475,0.871l2.012,3.41l-0.623,1.479
				l-1.846-2.437l-1.064,2.662l-0.867-1.133l1.076-3.801l-1.648-0.471l-1.041,3.598l-3.723,0.051l0.018,1.705l3.959-0.035
				l0.92,1.207l-3.01,0.379l1.842,2.352l-1.428,0.183l-2.754-2.832L196.488,241.033z M204.464,242.971l-1.188-1.518l1.912-0.244
				l0.717-1.789l1.172,1.535l1.904-0.271l-0.746,1.777l1.192,1.518l-1.911,0.238l-0.72,1.797l-1.164-1.535l-1.911,0.267
				L204.464,242.971z"/>
		</g>
		<g>
			<path fill="#ADD3F0" d="M103.024,209.145l2.58,2.697l-1.812,3.24l1.494,0.844l1.943-3.443l1.404-0.188l-1.133,2.695l3.025-0.436
				l-0.602,1.448l-3.834,0.963l0.42,1.66l3.607-0.918l1.926,3.217l1.473-0.864l-2.012-3.398l0.566-1.365l1.729,2.271l1.104-2.764
				l1.018,1.323l-1.059,3.738l1.65,0.465l0.996-3.574l3.768-0.062l-0.02-1.711l-4.021,0.041l-0.961-1.252l2.9-0.369l-1.809-2.305
				l1.576-0.203l2.764,2.836l1.225-1.193l-2.352-2.414l-0.252-0.26l1.832-3.27l-1.492-0.839l-1.941,3.438l-1.607,0.21l1.148-2.742
				l-2.812,0.407l0.566-1.377l3.838-0.969l-0.424-1.664l-3.629,0.906l-1.9-3.207l-1.477,0.873l2.012,3.404l-0.617,1.484l-1.85-2.437
				l-1.064,2.656l-0.867-1.134l1.072-3.801l-1.643-0.465l-1.041,3.598l-3.725,0.039l0.02,1.718l3.959-0.041l0.918,1.207
				l-3.014,0.379l1.848,2.346l-1.428,0.188l-2.756-2.832L103.024,209.145z M110.999,211.082l-1.193-1.518l1.916-0.238l0.717-1.795
				l1.168,1.535l1.91-0.271l-0.748,1.777l1.195,1.514l-1.914,0.242l-0.715,1.797l-1.17-1.541l-1.91,0.277L110.999,211.082z"/>
			<path fill="#ADD3F0" d="M89.797,241.018l2.578,2.701l-1.811,3.234l1.496,0.838l1.941-3.443l1.406-0.182l-1.131,2.691l3.02-0.433
				l-0.598,1.438l-3.834,0.976l0.418,1.664l3.605-0.922l1.928,3.224l1.473-0.873l-2.01-3.404l0.566-1.365l1.725,2.277l1.107-2.771
				l1.018,1.326l-1.061,3.741l1.652,0.466l0.996-3.574l3.764-0.062l-0.014-1.709l-4.021,0.039l-0.963-1.246l2.902-0.373
				l-1.814-2.308l1.576-0.202l2.764,2.838l1.227-1.189l-2.348-2.424l-0.258-0.256l1.836-3.269l-1.49-0.844l-1.943,3.438
				l-1.607,0.209l1.145-2.73l-2.812,0.396l0.568-1.375l3.84-0.963l-0.424-1.666l-3.631,0.899l-1.896-3.199l-1.477,0.871l2.008,3.404
				l-0.619,1.479l-1.85-2.437l-1.064,2.668l-0.861-1.134l1.07-3.801l-1.646-0.475l-1.039,3.602l-3.723,0.039l0.016,1.711
				l3.959-0.033l0.922,1.212l-3.014,0.375l1.844,2.35l-1.428,0.183l-2.756-2.832L89.797,241.018z M97.555,242.994l-1.322-1.688
				l2.127-0.269l0.793-1.988l1.303,1.699l2.117-0.299l-0.826,1.977l1.324,1.683l-2.127,0.271l-0.795,1.988l-1.297-1.705
				l-2.125,0.308L97.555,242.994z"/>
		</g>
		<g>
			<path fill="#ADD3F0" d="M156.398,209.191l2.58,2.701l-1.811,3.239l1.496,0.839l1.943-3.449l1.399-0.183l-1.129,2.69l3.021-0.432
				l-0.604,1.445l-3.834,0.969l0.424,1.664l3.604-0.924l1.933,3.225l1.47-0.867l-2.009-3.409l0.565-1.359l1.724,2.277l1.108-2.771
				l1.019,1.324l-1.062,3.744l1.652,0.465l0.996-3.574l3.762-0.062l-0.018-1.716l-4.021,0.039l-0.957-1.246l2.9-0.375l-1.812-2.305
				l1.576-0.197l2.763,2.832l1.229-1.194l-2.351-2.414l-0.256-0.26l1.836-3.269l-1.496-0.84l-1.938,3.439l-1.611,0.215l1.15-2.742
				l-2.816,0.402l0.572-1.375l3.836-0.969l-0.422-1.666l-3.629,0.905l-1.902-3.204l-1.473,0.87l2.01,3.404l-0.617,1.483
				l-1.852-2.436l-1.064,2.656l-0.867-1.127l1.076-3.801l-1.645-0.472l-1.041,3.599l-3.724,0.045l0.015,1.711l3.959-0.039
				l0.924,1.205l-3.015,0.381l1.841,2.355l-1.425,0.182l-2.756-2.838L156.398,209.191z M164.378,211.127l-1.192-1.518l1.914-0.238
				l0.715-1.795l1.172,1.535l1.906-0.271l-0.748,1.777l1.19,1.52l-1.91,0.242l-0.717,1.791l-1.168-1.535l-1.91,0.271
				L164.378,211.127z"/>
			<path fill="#ADD3F0" d="M143.189,241.033l2.578,2.697l-1.809,3.24l1.496,0.838l1.939-3.443l1.401-0.182l-1.129,2.688l3.021-0.431
				l-0.602,1.443l-3.834,0.969l0.422,1.666l3.605-0.93l1.926,3.229l1.475-0.864l-2.014-3.41l0.572-1.364l1.723,2.282l1.104-2.774
				l1.021,1.324l-1.06,3.743l1.65,0.466l0.998-3.574l3.764-0.062l-0.018-1.711l-4.021,0.035l-0.963-1.246l2.906-0.375l-1.812-2.305
				l1.574-0.197l2.765,2.836l1.228-1.193l-2.349-2.42l-0.254-0.26l1.827-3.264l-1.487-0.844l-1.94,3.438l-1.611,0.215l1.15-2.735
				l-2.814,0.396l0.568-1.371l3.838-0.969l-0.422-1.664l-3.629,0.899l-1.902-3.205l-1.475,0.871l2.012,3.41l-0.623,1.479
				l-1.846-2.437l-1.064,2.662l-0.867-1.133l1.074-3.801l-1.646-0.471l-1.041,3.598l-3.723,0.051l0.018,1.705l3.959-0.035
				l0.924,1.207l-3.014,0.379l1.842,2.352l-1.428,0.183l-2.754-2.832L143.189,241.033z M151.165,242.971l-1.19-1.518l1.916-0.244
				l0.715-1.789l1.17,1.535l1.906-0.271l-0.746,1.777l1.192,1.518l-1.912,0.238l-0.717,1.797l-1.166-1.535l-1.912,0.267
				L151.165,242.971z"/>
		</g>
		<g>
			<g>
				<path fill="#FFFFFF" d="M178.682,117.976c0.217,0.107,0.438,0.205,0.646,0.322c0.006-0.039,0.006-0.08,0.012-0.119
					C179.124,118.11,178.902,118.042,178.682,117.976z"/>
			</g>
			<g>
				<path fill="#FFFFFF" d="M161.654,114.315c4.923,0,9.652,0.812,14.076,2.301c-4.026-1.621-8.424-2.521-13.026-2.521
					c-1.94,0-3.843,0.168-5.692,0.471C158.534,114.401,160.087,114.315,161.654,114.315z"/>
			</g>
			<path fill="#FFFFFF" d="M263.229,166.348c-1.778-6.399-6.01-12.121-11.604-15.693c-4.883-3.168-11-4.721-16.859-4.244
				c-0.215-3.176-1.293-6.342-3.063-8.996c-1.033-1.562-2.322-2.984-3.841-4.225c2.107-5.156,2.681-11.015,1.609-16.554
				c-1.281-6.828-5.172-13.271-10.668-17.676c-5.205-4.225-12.025-6.652-18.717-6.652c-0.283,0-0.562,0.006-0.834,0.018
				c-5.559,0.119-11.102,1.893-15.684,5.012c-1.644-2.129-3.551-3.953-5.672-5.432c-1.101-0.775-2.297-1.475-3.674-2.146
				c-0.101-0.051-0.201-0.09-0.306-0.133l-0.183-0.074c-0.452-0.205-0.911-0.404-1.383-0.586c-0.188-0.068-0.367-0.135-0.543-0.197
				c-3.166-1.137-6.457-1.688-9.674-1.523c-0.154-0.609-0.295-1.287-0.453-2.068c-0.192-1.008-0.396-2.051-0.697-3.09
				c-0.627-2.342-1.489-4.646-2.555-6.854c-2.215-4.607-5.41-8.861-9.244-12.316c-4.055-3.658-8.938-6.51-14.125-8.244
				c-5.41-1.818-11.244-2.467-16.992-1.875c-8.973,0.881-17.781,5.033-24.17,11.377c-5.734,5.619-9.693,12.971-11.197,20.773
				c-0.992-0.195-1.958-0.299-2.945-0.299c-3.869,0-7.68,1.289-10.729,3.631c-2.234,1.672-4.074,3.895-5.33,6.43
				c-0.818,1.66-1.363,3.508-1.6,5.387c-5.947-1.529-12.305-1.461-18.197,0.152c-6.682,1.824-12.889,5.732-17.467,11.014
				c-3.646,4.184-6.293,9.205-7.646,14.523c-1.309,5.086-1.473,10.506-0.463,15.666c0.922,4.832,2.93,9.521,5.805,13.573
				c2.139,3.014,4.832,5.744,7.828,7.953c-3.336,1.5-6.186,3.992-8.092,7.096c-2.506,3.994-3.367,8.949-2.359,13.594
				c0.113,0.51,0.227,0.969,0.357,1.4l0.045,0.152c0.051,0.17,0.102,0.334,0.242,0.725l0.24,0.686
				c0.033,0.08,0.135,0.316,0.436,0.48l0.17,0.098h29.838h26.682h126.12h2.338h52.801l0.992-2.027l0.385-0.896
				c0.223-0.543,0.479-1.188,0.695-1.856C264.57,177.303,264.708,171.588,263.229,166.348z"/>
			<g>
				<path fill="#ADD3F0" d="M227.691,122.794c-0.062-0.09-0.125-0.178-0.203-0.254c0.054-0.484,0.078-0.969,0.103-1.449
					c-0.028-0.275-0.079-0.545-0.118-0.816c-0.052-0.385-0.097-0.773-0.164-1.152c-0.119-0.654-0.257-1.301-0.416-1.939
					c-1.521-6.166-5.103-11.756-10.082-15.756c-4.938-4.004-11.172-6.299-17.547-6.469c-0.326-0.01-0.646-0.016-0.968-0.016
					c-5.006,0-10.129,1.359-14.567,3.828c1.617,2.309,2.856,4.869,3.6,7.541c1.334,4.705,1.209,9.766-0.311,14.33
					c2.645,1.586,5.123,3.508,7.309,5.693c2.855,2.865,5.256,6.226,7.029,9.808c2.039-2.533,4.828-4.513,7.965-5.617
					c1.934-0.687,4.078-1.049,6.195-1.049c2.039,0,4.039,0.32,5.94,0.965c1.801,0.596,3.519,1.514,5.069,2.643
					c0.232-0.777,0.418-1.566,0.586-2.361c0.027-0.139,0.054-0.281,0.076-0.416C227.665,127.835,227.829,125.304,227.691,122.794z
					 M219.536,125.226c-14.244-0.471-25.718-11.76-26.479-25.928c2.312-0.918,4.834-1.439,7.478-1.439
					c11.209,0,20.293,9.082,20.293,20.291C220.827,120.638,220.357,123.017,219.536,125.226z"/>
				<path fill="#ADD3F0" d="M20.772,139.55c-0.014-0.125-0.021-0.25-0.039-0.375c0-0.012-0.002-0.016-0.002-0.026
					C20.745,139.282,20.757,139.413,20.772,139.55z"/>
				<path fill="#ADD3F0" d="M179.641,114.69c0,0.865-0.08,1.703-0.183,2.543l0,0c1.151,0.367,2.28,0.773,3.381,1.252
					c1.265,0.549,2.511,1.191,3.728,1.895c0.805-4.504,0.447-9.258-1.06-13.492c-1.75-4.967-5.098-9.363-9.432-12.387
					c-0.441-0.312-0.9-0.602-1.367-0.885c-0.623-0.352-1.246-0.701-1.883-1.012c-0.75-0.367-1.523-0.699-2.306-1.016
					c-2.854-1.082-5.908-1.662-8.973-1.662l-0.346,0.006c-4.746,0.031-9.617,1.48-13.721,4.062c0.422-0.268,0.871-0.498,1.311-0.736
					c2.486-0.922,5.16-1.451,7.965-1.451C169.396,91.808,179.641,102.044,179.641,114.69z"/>
				<path fill="#ADD3F0" d="M157.898,88.493c0.107-0.02,0.213-0.043,0.324-0.062c0.947-0.188,1.902-0.33,2.873-0.404
					c-0.299-0.879-0.561-1.766-0.795-2.648c-0.25-0.938-0.508-1.918-0.838-2.846c-0.742-2.203-1.688-4.355-2.812-6.406
					c-2.319-4.23-5.498-8.117-9.207-11.232c-3.889-3.273-8.496-5.811-13.322-7.34c-3.777-1.199-7.73-1.807-11.742-1.807
					c-1.33,0-2.672,0.068-3.99,0.203c-8.367,0.83-16.365,4.469-22.525,10.258c-5.723,5.318-9.818,12.438-11.529,20.043
					c-0.031,0.135-0.096,0.248-0.191,0.324c-0.59,2.678-0.912,5.438-0.961,8.211c0,0.111-0.088,0.197-0.195,0.201
					c-0.113,0-0.201-0.08-0.207-0.189c-0.158-2.818-0.008-5.65,0.432-8.418c-4.455,0.23-8.794,1.781-12.275,4.43
					c-3.43,2.58-6.1,6.273-7.609,10.432c0.029,0.021,0.068,0.025,0.09,0.045c0.709,0.645,2.637,0.92,3.559,1.318
					c1.246,0.541,2.457,1.158,3.631,1.844c2.4,1.408,4.66,3.107,6.629,5.078c1.559-0.705,2.846-2.248,4.466-3.064
					c4.01-2.008,8.02-3.414,12.668-3.393c0.035-0.021,0.07-0.045,0.109-0.068c-0.215-0.676-0.566-2.492-0.58-2.576
					c-0.133-0.656-0.246-1.328-0.338-2c-0.182-1.365-0.271-2.74-0.271-4.123c0-17.174,13.922-31.098,31.102-31.098
					c15.457,0,28.247,11.291,30.661,26.074C155.979,88.954,156.932,88.694,157.898,88.493z"/>
				<path fill="#ADD3F0" d="M131.1,150.05c-1.102,0-2.186,0.058-3.266,0.154c-0.012-0.402-0.031-0.806-0.031-1.213
					c0-4.257,0.779-8.32,2.172-12.095c2.932-8.555,8.664-15.173,15.907-19.271c-0.225,0.082-0.432,0.193-0.651,0.281l0.485-0.219
					c0,0-6.704,1.193-14.428,7.377c-1.232,0.984-2.484,2.094-3.744,3.346c-0.057,0.062-0.113,0.119-0.174,0.178
					c-0.617,0.617-1.23,1.264-1.846,1.955c-0.006,0.006-0.012,0.011-0.018,0.017c-0.58,0.653-1.16,1.35-1.738,2.073
					c-0.086,0.107-0.176,0.216-0.26,0.326c-0.57,0.722-1.131,1.476-1.689,2.263c-0.092,0.137-0.18,0.271-0.277,0.407
					c-0.506,0.726-1.002,1.484-1.494,2.271c-0.074,0.119-0.148,0.234-0.225,0.354c-0.523,0.856-1.039,1.754-1.543,2.687
					c-0.113,0.205-0.227,0.422-0.34,0.631c-0.51,0.969-1.012,1.959-1.496,3.002c-0.221,0.105-0.43,0.225-0.65,0.322
					c-2.811,1.246-5.863,1.889-8.936,1.889c-0.674,0-1.346-0.041-2.02-0.104c-0.002,0-0.002,0-0.008,0
					c-4.662-0.42-8.906-2.289-12.289-5.148c-0.033-0.023-0.064-0.043-0.096-0.062c-5.363-4.379-8.785-11.033-8.785-18.494
					c0-7.816,3.771-14.738,9.58-19.088c0.451-0.119,0.816-0.254,0.932-0.393c-0.039,0.012-0.072,0.02-0.115,0.027
					c-2.336,0.504-4.607,1.258-6.76,2.244c-0.006,0-0.012,0.006-0.023,0.01c-0.717,0.33-1.422,0.686-2.111,1.066
					c-0.068,0.031-0.125,0.072-0.193,0.113c-0.625,0.35-1.248,0.719-1.852,1.107c-0.156,0.102-0.299,0.217-0.453,0.322
					c-0.502,0.336-1.004,0.68-1.479,1.041c-0.277,0.217-0.533,0.443-0.792,0.66c-0.346,0.281-0.699,0.553-1.031,0.848
					c-0.584,0.523-1.15,1.07-1.686,1.639c-4.387,4.555-7.371,10.613-8.408,17.059c-0.018,0.096-0.102,0.17-0.201,0.17
					c-0.109-0.006-0.195-0.088-0.201-0.193c-0.182-3.148,0.289-6.432,1.365-9.49c1.203-3.426,3.166-6.617,5.682-9.234
					c0.346-0.359,0.725-0.686,1.088-1.031c-3.02-2.557-6.486-4.6-10.174-6.006c-1.229-0.465-2.482-0.861-3.754-1.189
					c-0.129,0.033-0.264,0.027-0.393-0.006c-0.441-0.004-0.945-0.182-1.4-0.301c-0.004,0-0.016-0.006-0.018-0.006
					c-0.738-0.145-1.486-0.271-2.229-0.373c-0.006,0-0.012,0-0.014,0c-0.443-0.047-0.865-0.047-1.307-0.051
					c-0.197-0.006-0.379-0.068-0.555-0.143c-0.883-0.064-1.764-0.113-2.656-0.113c-3.34,0-6.633,0.479-9.797,1.422
					c-6.062,1.799-11.705,5.443-15.881,10.248c-3.322,3.824-5.781,8.395-7.104,13.221c-0.316,1.15-0.568,2.322-0.768,3.512
					c-0.096,0.6-0.135,1.219-0.201,1.832c-0.062,0.576-0.152,1.152-0.189,1.736c-0.045,0.812-0.025,1.629-0.018,2.447
					c0.006,0.379-0.016,0.764-0.002,1.15c0.031,0.647,0.125,1.291,0.189,1.94c0.051,0.25,0.102,0.498,0.158,0.748
					c-0.012,0.257-0.002,0.515,0,0.769c0.012,0.1,0.012,0.195,0.029,0.297c0.695,4.504,2.379,8.973,4.859,12.91
					c2.146,3.41,4.961,6.47,8.145,8.961c3.215-1.325,6.863-1.756,10.281-1.229c0.047-0.864,0.146-1.731,0.316-2.588
					c0.617-3.063,2.078-6.026,4.123-8.333c1.848-2.111,4.158-3.738,6.688-4.713c0.096-0.035,0.201,0.006,0.248,0.096
					c0.049,0.086,0.025,0.201-0.059,0.264c-4.436,3.185-7.572,7.985-8.604,13.17c-1.07,5.221-0.057,10.869,2.781,15.483
					c0.051,0.093,0.037,0.205-0.047,0.267c-0.039,0.035-0.082,0.047-0.123,0.047c-0.055,0-0.104-0.018-0.145-0.057
					c-1.955-1.888-3.449-4.289-4.324-6.935c-0.652-1.988-0.918-4.078-0.861-6.162c-0.02,0-0.041,0.006-0.057,0.006L44.2,162.1
					c0,0-0.787-0.012-2.033,0.09c-1.037,0.062-2.062,0.218-3.07,0.433c-5.916,1.14-14.846,4.765-14.814,16.25
					c-0.064,1.387,0.033,2.78,0.326,4.135c0.037,0.177,0.09,0.402,0.158,0.662c0.074,0.271,0.166,0.521,0.264,0.754l52.695,1.896
					c-0.256-1.268-0.422-2.559-0.422-3.896c0-11.045,8.957-20.006,20.007-20.006c6.941,0,13.051,3.541,16.641,8.91
					c4.164-10.529,14.412-17.993,26.424-17.993c1.685,0,3.325,0.172,4.931,0.452c0.368-0.131,0.75-0.229,1.12-0.349
					C141.762,151.271,136.581,150.05,131.1,150.05z M141.264,119.675l0.76-0.34c-0.396,0.191-0.776,0.41-1.164,0.617
					L141.264,119.675z M44.438,145.677c-7.633-2.858-13.08-10.204-13.08-18.838c0-11.119,9.018-20.139,20.137-20.139
					c6.299,0,11.918,2.895,15.609,7.418c-5.443,6.082-9.141,13.738-10.443,22.18C51.854,138.389,47.669,141.634,44.438,145.677z
					 M58.938,146.425c-0.062-0.014-0.125-0.016-0.182-0.032c0.119-0.086,0.242-0.162,0.361-0.244
					C59.056,146.239,58.989,146.335,58.938,146.425z M60.376,167.662c-3.795-6.707-3.23-14.821,3.324-21.202
					c2.139-2.08,4.748-2.89,7.33-2.66c2.189,3.796,5.275,6.925,8.922,9.523C71.261,154.482,63.974,160.021,60.376,167.662z"/>
				<path fill="#ADD3F0" d="M195.034,161.879c7.668,2.6,14.202,7.67,18.625,14.285c-0.229-1.24-0.354-2.521-0.354-3.83
					c0-11.498,9.32-20.823,20.824-20.823c11.496,0,20.818,9.325,20.818,20.823c0,4.691-1.566,8.996-4.187,12.479
					c0.898-0.033,1.796-0.067,2.695-0.096c0.562-0.018,1.121-0.041,1.685-0.057l0.657-0.023c0.318-0.018,0.705-0.062,1.072-0.033
					l1.928-0.074l0.578-1.37c0.166-0.425,0.349-0.935,0.517-1.455c0-0.013,0-0.019,0-0.022c0.059-0.392,0.215-0.787,0.342-1.185
					c0.049-0.177,0.1-0.353,0.145-0.521c0.08-0.328,0.143-0.662,0.209-0.984c0.057-0.266,0.113-0.533,0.16-0.805
					c0.057-0.34,0.098-0.687,0.141-1.021c0.033-0.276,0.074-0.543,0.096-0.815c0.035-0.351,0.05-0.701,0.068-1.047
					c0.012-0.267,0.035-0.527,0.039-0.787c0.006-0.369-0.004-0.736-0.01-1.101c-0.01-0.248-0.006-0.504-0.02-0.752
					c-0.019-0.369-0.058-0.735-0.095-1.104c-0.022-0.244-0.034-0.492-0.062-0.736c-0.055-0.396-0.125-0.787-0.193-1.172
					c-0.039-0.221-0.062-0.438-0.107-0.652c-0.121-0.6-0.266-1.205-0.43-1.795c-1.576-5.652-5.285-10.785-10.186-14.071
					c-0.664-0.452-1.355-0.862-2.061-1.245c-0.177-0.097-0.357-0.179-0.535-0.271c-0.541-0.281-1.088-0.545-1.648-0.779
					c-0.178-0.076-0.354-0.15-0.535-0.225c-0.709-0.277-1.428-0.543-2.158-0.762c-1.15-0.336-2.324-0.604-3.51-0.777
					c-2.414-0.363-4.896-0.557-7.332-0.262c-1.135,0.137-2.262,0.354-3.369,0.641c-1.127,0.289-2.238,0.65-3.314,1.084
					c-2.161,0.873-4.213,2.02-6.065,3.434c-0.084,0.065-0.209,0.051-0.276-0.029c-0.07-0.084-0.062-0.209,0.021-0.283
					c3.912-3.499,8.983-5.758,14.31-6.387c-0.67-3.08-2.027-5.946-3.966-8.328c-2.286-2.84-5.438-5.038-8.868-6.188
					c-1.943-0.652-3.994-0.982-6.084-0.982c-1.601,0-3.191,0.197-4.729,0.58c-3.015,0.758-5.853,2.254-8.252,4.338
					c0.18,0.384,0.364,0.767,0.53,1.156c1.644,3.789,2.636,7.943,2.867,12.021c0.004,0.104-0.074,0.196-0.176,0.209
					c-0.006,0-0.006-0.006-0.006-0.006c-0.012,0-0.012,0.012-0.02,0.012c-0.099,0-0.181-0.067-0.199-0.164
					c-1.863-8.226-6.131-15.983-12.016-21.854c-0.681-0.684-1.39-1.338-2.113-1.971c-0.392-0.352-0.805-0.676-1.213-1.008
					c-0.312-0.254-0.617-0.51-0.935-0.76c-0.573-0.436-1.155-0.859-1.754-1.271c-0.133-0.092-0.272-0.191-0.412-0.285
					c-0.709-0.482-1.428-0.945-2.162-1.389h-0.006c8.267,6.379,13.601,16.365,13.601,27.613c0,4.564-0.89,8.923-2.478,12.915
					C195.098,161.896,195.062,161.891,195.034,161.879z M213.747,133.473c7.224,0,13.09,5.788,13.228,12.981
					c-0.992,0.213-2.019,0.328-3.072,0.328c-7.396,0-13.502-5.438-14.588-12.529C210.704,133.761,212.189,133.473,213.747,133.473z"
					/>
			</g>
			<path fill="#231F20" d="M263.229,166.348c-1.778-6.399-6.01-12.121-11.604-15.693c-4.883-3.168-11-4.721-16.859-4.244
				c-0.215-3.176-1.293-6.342-3.063-8.996c-1.033-1.562-2.322-2.984-3.841-4.225c2.107-5.156,2.681-11.015,1.609-16.554
				c-1.281-6.828-5.172-13.271-10.668-17.676c-5.205-4.225-12.025-6.652-18.717-6.652c-0.283,0-0.562,0.006-0.834,0.018
				c-5.559,0.119-11.102,1.893-15.684,5.012c-1.644-2.129-3.551-3.953-5.672-5.432c-1.101-0.775-2.297-1.475-3.674-2.146
				c-0.101-0.051-0.201-0.09-0.306-0.133l-0.183-0.074c-0.452-0.205-0.911-0.404-1.383-0.586c-0.188-0.068-0.367-0.135-0.543-0.197
				c-3.166-1.137-6.457-1.688-9.674-1.523c-0.154-0.609-0.295-1.287-0.453-2.068c-0.192-1.008-0.396-2.051-0.697-3.09
				c-0.627-2.342-1.489-4.646-2.555-6.854c-2.215-4.607-5.41-8.861-9.244-12.316c-4.055-3.658-8.938-6.51-14.125-8.244
				c-5.41-1.818-11.244-2.467-16.992-1.875c-8.973,0.881-17.781,5.033-24.17,11.377c-5.734,5.619-9.693,12.971-11.197,20.773
				c-0.992-0.195-1.958-0.299-2.945-0.299c-3.869,0-7.68,1.289-10.729,3.631c-2.234,1.672-4.074,3.895-5.33,6.43
				c-0.818,1.66-1.363,3.508-1.6,5.387c-5.947-1.529-12.305-1.461-18.197,0.152c-6.682,1.824-12.889,5.732-17.467,11.014
				c-3.646,4.184-6.293,9.205-7.646,14.523c-1.309,5.086-1.473,10.506-0.463,15.666c0.922,4.832,2.93,9.521,5.805,13.573
				c2.139,3.014,4.832,5.744,7.828,7.953c-3.336,1.5-6.186,3.992-8.092,7.096c-2.506,3.994-3.367,8.949-2.359,13.594
				c0.113,0.51,0.227,0.969,0.357,1.4l0.045,0.152c0.051,0.17,0.102,0.334,0.242,0.725l0.24,0.686
				c0.033,0.08,0.135,0.316,0.436,0.48l0.17,0.098h56.52l-0.264-0.73H78.48c-0.027-0.073-0.084-0.137-0.172-0.137l-53.279-1.92
				c-0.098-0.232-0.189-0.482-0.264-0.754c-0.068-0.26-0.121-0.486-0.158-0.662c-0.293-1.354-0.391-2.748-0.326-4.135
				c-0.031-11.486,8.898-15.111,14.814-16.25c1.008-0.215,2.033-0.369,3.07-0.432c1.246-0.103,2.033-0.09,2.033-0.09
				s-0.057,0.073,0,0.067c-0.057,2.084,0.209,4.174,0.861,6.162c0.875,2.646,2.369,5.047,4.324,6.935
				c0.041,0.039,0.09,0.057,0.145,0.057c0.041,0,0.084-0.012,0.123-0.047c0.084-0.062,0.098-0.174,0.047-0.267
				c-2.838-4.614-3.852-10.264-2.781-15.483c1.031-5.185,4.168-9.985,8.604-13.17c0.084-0.062,0.107-0.178,0.059-0.264
				c-0.047-0.09-0.152-0.131-0.248-0.096c-2.529,0.975-4.84,2.602-6.688,4.713c-2.045,2.307-3.506,5.27-4.123,8.333
				c-0.17,0.854-0.27,1.724-0.316,2.588c-3.418-0.524-7.066-0.096-10.281,1.229c-3.184-2.491-5.998-5.551-8.145-8.961
				c-2.48-3.938-4.164-8.406-4.859-12.91c-0.762-4.797-0.479-9.787,0.801-14.432c1.322-4.826,3.781-9.396,7.104-13.221
				c4.176-4.805,9.818-8.449,15.881-10.248c3.164-0.943,6.457-1.422,9.797-1.422c2.775,0,5.521,0.328,8.178,0.986
				c0.129,0.033,0.264,0.039,0.393,0.006c5.08,1.293,9.9,3.779,13.928,7.195c-0.363,0.346-0.742,0.672-1.088,1.031
				c-2.516,2.617-4.479,5.809-5.682,9.234c-1.076,3.059-1.547,6.342-1.365,9.49c0.006,0.105,0.092,0.188,0.201,0.193
				c0.1,0,0.184-0.074,0.201-0.17c1.037-6.445,4.021-12.504,8.408-17.059c4.335-4.564,10.261-7.805,16.683-9.121
				c0.1-0.02,0.164-0.115,0.158-0.219c-0.01-0.102-0.096-0.18-0.197-0.18c-3.133-0.057-6.424,0.561-9.422,1.76
				c-2.785,1.1-5.367,2.75-7.625,4.744c-3.854-3.807-8.646-6.666-13.857-8.271c-0.021-0.02-0.061-0.023-0.09-0.045
				c1.51-4.158,4.18-7.852,7.609-10.432c3.48-2.648,7.82-4.199,12.275-4.43c-0.439,2.768-0.59,5.6-0.432,8.418
				c0.006,0.109,0.094,0.189,0.207,0.189c0.107-0.004,0.195-0.09,0.195-0.201c0.049-2.773,0.371-5.533,0.961-8.211
				c0.096-0.076,0.16-0.189,0.191-0.324c1.711-7.605,5.807-14.725,11.529-20.043c6.16-5.789,14.158-9.428,22.525-10.258
				c1.318-0.135,2.66-0.203,3.99-0.203c4.012,0,7.965,0.607,11.742,1.807c4.826,1.529,9.434,4.066,13.322,7.34
				c3.709,3.115,6.888,7.002,9.207,11.232c1.125,2.051,2.07,4.203,2.812,6.406c0.33,0.928,0.588,1.908,0.838,2.846
				c0.234,0.883,0.496,1.77,0.795,2.648c-5.094,0.373-10.016,2.379-13.854,5.65c-0.082,0.064-0.096,0.186-0.033,0.268
				c0.062,0.092,0.18,0.107,0.271,0.051c4.104-2.582,8.975-4.031,13.721-4.062l0.346-0.006c3.064,0,6.117,0.58,8.973,1.662
				c0.781,0.316,1.555,0.648,2.305,1.016c0.638,0.311,1.261,0.66,1.884,1.012c0.467,0.283,0.926,0.572,1.366,0.885
				c4.334,3.023,7.683,7.42,9.433,12.387c1.506,4.234,1.863,8.988,1.06,13.492c-1.217-0.703-2.463-1.346-3.728-1.895
				c-3.789-1.648-7.942-2.652-12.015-2.895c-0.104,0-0.196,0.066-0.215,0.172c-0.014,0.105,0.056,0.201,0.158,0.23
				c8.219,1.877,15.971,6.168,21.83,12.068c5.885,5.87,10.152,13.629,12.016,21.854c0.021,0.096,0.103,0.164,0.226,0.158
				c0.103-0.012,0.181-0.105,0.177-0.209c-0.232-4.076-1.226-8.23-2.867-12.021c-0.166-0.391-0.353-0.772-0.531-1.155
				c2.4-2.084,5.238-3.58,8.252-4.338c1.537-0.384,3.129-0.58,4.729-0.58c2.09,0,4.141,0.33,6.084,0.981
				c3.432,1.147,6.582,3.349,8.869,6.188c1.938,2.381,3.295,5.248,3.965,8.328c-5.324,0.629-10.396,2.887-14.309,6.385
				c-0.084,0.074-0.092,0.199-0.021,0.283c0.068,0.08,0.193,0.097,0.277,0.029c3.688-2.81,8.154-4.597,12.75-5.156
				c2.436-0.295,4.918-0.103,7.332,0.262c2.334,0.344,4.619,1.021,6.766,1.998c1.287,0.582,2.521,1.266,3.683,2.062
				c4.899,3.286,8.608,8.419,10.186,14.071c1.306,4.639,1.23,9.713-0.217,14.285c-0.181,0.594-0.396,1.184-0.582,1.67l-0.578,1.371
				l-51.963,1.807c-0.084,0.006-0.146,0.068-0.176,0.143h-0.771l-0.254,0.73h55.139l0.992-2.027l0.385-0.896
				c0.224-0.543,0.48-1.188,0.695-1.856C264.57,177.303,264.708,171.588,263.229,166.348z M221.456,130.44
				c-1.901-0.645-3.901-0.965-5.94-0.965c-2.117,0-4.263,0.363-6.195,1.048c-3.137,1.105-5.926,3.084-7.965,5.617
				c-1.773-3.582-4.174-6.94-7.029-9.807c-2.186-2.186-4.664-4.107-7.309-5.693c1.52-4.564,1.645-9.625,0.311-14.33
				c-0.742-2.672-1.982-5.232-3.6-7.541c4.438-2.469,9.562-3.828,14.567-3.828c0.322,0,0.642,0.006,0.968,0.016
				c6.375,0.17,12.608,2.465,17.547,6.469c4.979,4,8.561,9.59,10.082,15.756c1.299,5.176,1.153,10.771-0.365,15.9
				C224.975,131.954,223.257,131.036,221.456,130.44z"/>
		</g>
	</g>
</g>
</svg>
