<?xml version="1.0" encoding="utf-8"?>
<!-- Generator: Adobe Illustrator 15.0.2, SVG Export Plug-In . SVG Version: 6.00 Build 0)  -->
<!DOCTYPE svg PUBLIC "-//W3C//DTD SVG 1.1//EN" "http://www.w3.org/Graphics/SVG/1.1/DTD/svg11.dtd">
<svg version="1.1" id="Layer_1" xmlns="http://www.w3.org/2000/svg" xmlns:xlink="http://www.w3.org/1999/xlink" x="0px" y="0px"
	 width="280px" height="260px" viewBox="0 0 280 260" enable-background="new 0 0 280 260" xml:space="preserve">
<g>
	<g>
		<g>
			<path fill="#FFFFFF" d="M266.721,166.514c-1.779-6.39-6.003-12.099-11.58-15.666c-4.877-3.158-10.976-4.705-16.828-4.234
				c-0.215-3.166-1.285-6.326-3.058-8.975c-1.032-1.558-2.317-2.978-3.832-4.218c2.103-5.142,2.679-10.99,1.604-16.515
				c-1.271-6.818-5.154-13.246-10.644-17.637c-5.192-4.217-12-6.637-18.674-6.637c-0.283,0-0.562,0.006-0.836,0.016
				c-5.549,0.113-11.069,1.887-15.642,4.996c-1.646-2.123-3.553-3.941-5.668-5.414c-1.096-0.777-2.291-1.477-3.662-2.141
				c-0.104-0.053-0.202-0.094-0.311-0.137l-0.176-0.076c-0.459-0.201-0.914-0.4-1.383-0.58c-0.18-0.068-0.361-0.131-0.541-0.193
				c-3.162-1.139-6.445-1.688-9.65-1.527c-0.154-0.607-0.303-1.277-0.457-2.061c-0.191-1.006-0.396-2.049-0.689-3.084
				c-0.629-2.338-1.489-4.637-2.555-6.838c-2.209-4.596-5.396-8.84-9.223-12.291c-4.043-3.652-8.914-6.502-14.094-8.229
				c-5.4-1.812-11.219-2.455-16.961-1.869c-8.949,0.883-17.74,5.021-24.113,11.35c-5.725,5.607-9.674,12.949-11.168,20.73
				c-0.994-0.197-1.967-0.293-2.945-0.293c-3.863,0-7.668,1.285-10.711,3.619c-2.225,1.664-4.062,3.887-5.311,6.416
				c-0.818,1.654-1.367,3.502-1.6,5.379c-5.936-1.533-12.279-1.465-18.16,0.15c-6.666,1.812-12.859,5.715-17.43,10.979
				c-3.641,4.182-6.277,9.193-7.627,14.5c-1.309,5.075-1.471,10.481-0.459,15.632c0.918,4.818,2.916,9.5,5.789,13.547
				c2.131,3.008,4.816,5.727,7.807,7.93c-3.322,1.5-6.168,3.992-8.068,7.08c-2.504,3.986-3.357,8.938-2.355,13.57
				c0.109,0.51,0.227,0.969,0.357,1.398l0.045,0.154c0.047,0.163,0.102,0.327,0.234,0.719l0.244,0.686
				c0.031,0.08,0.139,0.316,0.436,0.48l0.168,0.098h29.775h26.627h125.844h2.336h52.695l0.979-2.023l0.392-0.895
				c0.219-0.543,0.477-1.189,0.688-1.857C268.061,177.438,268.188,171.741,266.721,166.514z"/>
			<g>
				<path fill="#ADD3F0" d="M24.684,139.128c0.057,0.617,0.119,1.236,0.211,1.851c-0.08-0.527-0.102-1.062-0.154-1.586
					C24.721,139.307,24.702,139.216,24.684,139.128z"/>
				<path fill="#ADD3F0" d="M190.665,120.904c2.64,1.584,5.114,3.494,7.295,5.682c2.851,2.854,5.252,6.212,7.013,9.781
					c2.038-2.525,4.817-4.504,7.946-5.602c1.933-0.686,4.069-1.051,6.187-1.051c2.033,0,4.026,0.322,5.928,0.965
					c1.799,0.598,3.508,1.514,5.061,2.641c0.98-3.314,1.352-6.814,1.16-10.271c-0.059-0.088-0.123-0.176-0.197-0.252
					c0.051-0.484,0.076-0.969,0.096-1.451c-0.145-1.314-0.373-2.617-0.692-3.898c-1.517-6.148-5.097-11.73-10.062-15.719
					c-4.928-3.992-11.146-6.287-17.508-6.451c-0.328-0.012-0.646-0.018-0.966-0.018c-4.998,0-10.106,1.354-14.543,3.818
					c1.619,2.305,2.854,4.859,3.599,7.521C192.309,111.302,192.184,116.349,190.665,120.904z M200.188,100.568
					c11.186,0,20.248,9.059,20.248,20.242c0,2.486-0.47,4.859-1.291,7.055c-14.211-0.459-25.658-11.727-26.427-25.859
					C195.032,101.085,197.548,100.568,200.188,100.568z"/>
				<path fill="#ADD3F0" d="M189.165,107.177c-1.752-4.959-5.095-9.346-9.414-12.359c-0.444-0.311-0.905-0.6-1.365-0.883
					c-0.622-0.352-1.245-0.701-1.881-1.012c-0.75-0.369-1.519-0.699-2.299-1.018c-2.851-1.07-5.896-1.65-8.949-1.65h-0.35
					c-4.193,0.031-8.447,1.221-12.22,3.271c2.433-0.889,5.045-1.398,7.775-1.398c12.615,0,22.838,10.217,22.838,22.83
					c0,0.867-0.076,1.709-0.182,2.545c1.15,0.365,2.279,0.766,3.377,1.246c1.262,0.551,2.502,1.189,3.715,1.889
					C191.02,116.146,190.665,111.402,189.165,107.177z"/>
				<path fill="#ADD3F0" d="M264.15,187.146c1.562-3.416,2.451-7.198,2.451-11.196c0-15.011-12.307-27.181-27.485-27.181
					c-6.123,0-11.771,2.002-16.337,5.355c-0.006,0-0.012,0.006-0.018,0c-0.066-0.086-0.057-0.203,0.023-0.283
					c3.902-3.494,8.969-5.744,14.279-6.373c-0.086-0.41-0.222-0.803-0.334-1.203c-0.117-0.348-0.193-0.748-0.299-1.063
					c-0.224-0.654-0.488-1.285-0.771-1.906c-0.1-0.213-0.205-0.416-0.312-0.623c-0.209-0.422-0.436-0.83-0.674-1.233
					c-0.125-0.207-0.25-0.422-0.385-0.629c-0.363-0.566-0.75-1.121-1.178-1.646c-2.287-2.836-5.43-5.031-8.854-6.174
					c-1.942-0.648-3.981-0.98-6.071-0.98c-1.599,0-3.181,0.191-4.72,0.58c-3.01,0.75-5.838,2.246-8.233,4.324
					c0.182,0.385,0.365,0.771,0.531,1.151c1.635,3.781,2.627,7.929,2.854,11.994c0.012,0.103-0.068,0.193-0.17,0.209
					c-0.013,0.004-0.019,0.004-0.027,0.004c-0.094,0-0.176-0.063-0.198-0.162c-1.857-8.2-6.115-15.948-11.984-21.805
					c-0.678-0.68-1.383-1.334-2.107-1.965c-0.371-0.328-0.76-0.641-1.145-0.951c-0.346-0.281-0.68-0.566-1.033-0.836
					c-0.553-0.416-1.107-0.82-1.68-1.215c-0.119-0.09-0.244-0.176-0.373-0.26c-0.019-0.018-0.041-0.031-0.062-0.047
					c-0.695-0.473-1.4-0.928-2.127-1.365c-0.01-0.004-0.025-0.016-0.037-0.021c8.234,6.365,13.557,16.325,13.557,27.543
					c0,3.302-0.479,6.492-1.34,9.519c7.64,0.334,14.658,2.963,20.414,7.231c4.351-6.772,11.928-11.271,20.576-11.271
					c13.533,0,24.504,10.967,24.504,24.504c0,2.849-0.514,5.572-1.408,8.121C264.04,187.262,264.091,187.21,264.15,187.146z
					 M209.585,135.964c1.39-0.491,2.869-0.774,4.424-0.774c7.209,0,13.064,5.776,13.203,12.953
					c-0.989,0.207-2.014,0.321-3.065,0.321C216.766,148.464,210.671,143.038,209.585,135.964z"/>
				<path fill="#ADD3F0" d="M151.21,94.314c0.476-0.295,0.988-0.521,1.479-0.787c-0.056,0.02-0.109,0.031-0.166,0.051
					C152.081,93.816,151.639,94.05,151.21,94.314z"/>
				<path fill="#ADD3F0" d="M164.805,88.355c-0.302-0.871-0.562-1.762-0.8-2.639c-0.246-0.941-0.504-1.91-0.834-2.844
					c-0.739-2.197-1.685-4.344-2.808-6.387c-2.315-4.229-5.487-8.1-9.184-11.211c-3.879-3.27-8.479-5.803-13.299-7.33
					c-3.768-1.195-7.711-1.795-11.713-1.795c-1.328,0-2.668,0.068-3.982,0.201c-8.354,0.824-16.336,4.459-22.475,10.232
					c-5.715,5.307-9.805,12.408-11.51,19.998c-0.033,0.143-0.096,0.25-0.193,0.33c-0.588,2.662-0.91,5.426-0.957,8.191
					c0,0.111-0.088,0.199-0.197,0.199c-0.107,0-0.195-0.082-0.201-0.188c-0.162-2.814-0.008-5.639,0.43-8.402
					c-4.443,0.23-8.773,1.779-12.254,4.418c-3.42,2.584-6.086,6.266-7.59,10.41c0.035,0.023,0.068,0.029,0.092,0.049
					c5.199,1.6,9.982,4.455,13.83,8.256c0.822-0.705,1.697-1.377,2.6-2c-0.865,0.234-1.738,0.529-2.576,0.908
					c-1.439-2.43-3.561-4.104-6.027-5.252c1.152-1.039,2.523-1.926,3.592-3.027c0.643-0.66,1.371-1.215,2.158-1.658
					c1.076,2.844,3.066,5.438,5.428,7.438c0.791-0.422,1.602-0.814,2.432-1.145c2.99-1.199,6.277-1.812,9.398-1.762
					c0.02,0,0.035,0.018,0.051,0.023c0.035-0.027,0.074-0.045,0.107-0.074c-0.211-0.668-0.561-2.486-0.576-2.57
					c-0.135-0.658-0.244-1.322-0.336-1.994c-0.18-1.359-0.271-2.736-0.271-4.111c0-17.137,13.895-31.031,31.033-31.031
					c15.426,0,28.192,11.266,30.592,26.012C160.714,88.941,162.741,88.511,164.805,88.355z"/>
			</g>
			<g>
				<path fill="#FFFFFF" d="M182.348,118.242c0.213,0.107,0.438,0.207,0.645,0.32c0.008-0.037,0.01-0.076,0.016-0.119
					C182.79,118.375,182.57,118.31,182.348,118.242z"/>
			</g>
			<g>
				<path fill="#FFFFFF" d="M165.357,114.585c4.914,0,9.638,0.812,14.047,2.299c-4.021-1.619-8.399-2.518-12.995-2.518
					c-1.943,0-3.841,0.164-5.685,0.471C162.243,114.679,163.792,114.585,165.357,114.585z"/>
			</g>
			<path fill="#231F20" d="M266.721,166.514c-1.779-6.39-6.003-12.099-11.58-15.666c-4.877-3.158-10.976-4.705-16.828-4.234
				c-0.215-3.166-1.285-6.326-3.058-8.975c-1.032-1.558-2.317-2.978-3.832-4.218c2.103-5.142,2.679-10.99,1.604-16.515
				c-1.271-6.818-5.154-13.246-10.644-17.637c-5.192-4.217-12-6.637-18.674-6.637c-0.283,0-0.562,0.006-0.836,0.016
				c-5.549,0.113-11.069,1.887-15.642,4.996c-1.646-2.123-3.553-3.941-5.668-5.414c-1.096-0.777-2.291-1.477-3.662-2.141
				c-0.104-0.053-0.202-0.094-0.311-0.137l-0.176-0.076c-0.459-0.201-0.914-0.4-1.383-0.58c-0.18-0.068-0.361-0.131-0.541-0.193
				c-3.162-1.139-6.445-1.688-9.65-1.527c-0.154-0.607-0.303-1.277-0.457-2.061c-0.191-1.006-0.396-2.049-0.689-3.084
				c-0.629-2.338-1.489-4.637-2.555-6.838c-2.209-4.596-5.396-8.84-9.223-12.291c-4.043-3.652-8.914-6.502-14.094-8.229
				c-5.4-1.812-11.219-2.455-16.961-1.869c-8.949,0.883-17.74,5.021-24.113,11.35c-5.725,5.607-9.674,12.949-11.168,20.73
				c-0.994-0.197-1.967-0.293-2.945-0.293c-3.863,0-7.668,1.285-10.711,3.619c-2.225,1.664-4.062,3.887-5.311,6.416
				c-0.818,1.654-1.367,3.502-1.6,5.379c-5.936-1.533-12.279-1.465-18.16,0.15c-6.666,1.812-12.859,5.715-17.43,10.979
				c-3.641,4.182-6.277,9.193-7.627,14.5c-1.309,5.075-1.471,10.481-0.459,15.632c0.918,4.818,2.916,9.5,5.789,13.547
				c2.131,3.008,4.816,5.727,7.807,7.93c-3.322,1.5-6.168,3.992-8.068,7.08c-2.504,3.986-3.357,8.938-2.355,13.57
				c0.109,0.51,0.227,0.969,0.357,1.398l0.045,0.154c0.047,0.163,0.102,0.327,0.234,0.719l0.244,0.686
				c0.031,0.08,0.139,0.316,0.436,0.48l0.168,0.098h56.402l-0.27-0.73H82.36c-0.027-0.074-0.09-0.137-0.172-0.137l-53.166-1.914
				c-0.096-0.232-0.189-0.482-0.264-0.754c-0.064-0.26-0.119-0.486-0.156-0.662c-0.295-1.348-0.391-2.742-0.328-4.123
				c-0.027-11.465,8.881-15.078,14.783-16.211c1.008-0.221,2.031-0.375,3.07-0.436c1.24-0.104,2.021-0.086,2.021-0.086l-0.057,0.062
				c0.02,0,0.039,0,0.057,0c-0.057,2.078,0.209,4.162,0.863,6.146c0.867,2.651,2.363,5.041,4.314,6.922
				c0.039,0.041,0.088,0.057,0.141,0.057c0.045,0,0.088-0.012,0.125-0.039c0.086-0.062,0.1-0.176,0.045-0.266
				c-2.832-4.611-3.84-10.242-2.77-15.457c1.025-5.172,4.152-9.967,8.582-13.145c0.078-0.058,0.107-0.171,0.062-0.259
				c-0.047-0.088-0.156-0.131-0.254-0.094c-2.52,0.967-4.83,2.59-6.668,4.692c-2.039,2.312-3.506,5.269-4.119,8.326
				c-0.17,0.85-0.268,1.717-0.316,2.576c-3.41-0.52-7.049-0.09-10.258,1.23c-3.174-2.48-5.984-5.539-8.127-8.943
				c-2.477-3.932-4.152-8.387-4.85-12.889c-0.762-4.781-0.475-9.76,0.799-14.398c1.32-4.812,3.773-9.369,7.088-13.18
				c4.172-4.805,9.803-8.438,15.846-10.232c3.158-0.941,6.445-1.426,9.783-1.426c2.766,0,5.504,0.332,8.15,0.988h0.006h0.004
				c0.125,0.035,0.262,0.035,0.387,0.01c5.074,1.289,9.877,3.77,13.898,7.182c-0.361,0.334-0.742,0.662-1.09,1.02
				c-2.5,2.613-4.461,5.801-5.664,9.219c-1.074,3.053-1.549,6.328-1.361,9.471c0,0.104,0.086,0.186,0.191,0.189c0,0,0.006,0,0.012,0
				c0.1,0,0.182-0.072,0.197-0.17c1.031-6.43,4.014-12.473,8.389-17.021c4.328-4.553,10.242-7.779,16.646-9.1
				c0.1-0.021,0.168-0.113,0.162-0.221c-0.008-0.102-0.096-0.182-0.201-0.182c-3.121-0.051-6.408,0.562-9.398,1.762
				c-2.779,1.1-5.359,2.748-7.6,4.762c-0.002-0.006-0.002-0.02-0.006-0.025c-3.848-3.801-8.631-6.656-13.83-8.256
				c-0.023-0.02-0.057-0.025-0.092-0.049c1.504-4.145,4.17-7.826,7.59-10.41c3.48-2.639,7.811-4.188,12.254-4.418
				c-0.438,2.764-0.592,5.588-0.43,8.402c0.006,0.105,0.094,0.188,0.195,0.188c0.006,0,0.006,0,0.006,0
				c0.109,0,0.197-0.088,0.197-0.199c0.047-2.766,0.369-5.529,0.957-8.191c0.098-0.08,0.16-0.188,0.193-0.33
				c1.705-7.59,5.795-14.691,11.51-19.998c6.139-5.773,14.121-9.408,22.475-10.232c1.314-0.133,2.654-0.201,3.982-0.201
				c4.002,0,7.945,0.6,11.713,1.795c4.821,1.527,9.42,4.061,13.299,7.33c3.695,3.111,6.867,6.982,9.185,11.211
				c1.123,2.043,2.065,4.189,2.807,6.387c0.33,0.934,0.588,1.902,0.834,2.844c0.238,0.877,0.498,1.768,0.799,2.639
				c-5.088,0.379-9.998,2.379-13.826,5.639c-0.082,0.064-0.098,0.188-0.035,0.27c0.062,0.09,0.183,0.107,0.269,0.051
				c4.099-2.578,8.959-4.021,13.696-4.059h0.351c3.054,0,6.101,0.58,8.949,1.65c0.78,0.318,1.549,0.648,2.299,1.018
				c0.636,0.311,1.258,0.66,1.881,1.012c0.459,0.283,0.921,0.572,1.365,0.883c4.319,3.014,7.662,7.4,9.414,12.359
				c1.5,4.225,1.854,8.969,1.047,13.461c-1.213-0.699-2.453-1.338-3.715-1.889c-3.779-1.646-7.925-2.643-11.988-2.887
				c-0.104,0-0.198,0.068-0.213,0.17c-0.012,0.105,0.052,0.203,0.151,0.229c8.207,1.875,15.939,6.154,21.791,12.045
				c5.869,5.857,10.127,13.605,11.984,21.806c0.023,0.098,0.105,0.162,0.199,0.162c0.01,0,0.016,0,0.027-0.004
				c0.102-0.017,0.182-0.107,0.17-0.209c-0.229-4.066-1.221-8.213-2.855-11.994c-0.166-0.381-0.35-0.769-0.531-1.152
				c2.396-2.078,5.226-3.574,8.234-4.324c1.539-0.389,3.121-0.58,4.719-0.58c2.09,0,4.129,0.332,6.072,0.98
				c3.424,1.143,6.566,3.338,8.854,6.174c1.937,2.379,3.281,5.232,3.953,8.305c-5.311,0.629-10.377,2.879-14.278,6.373
				c-0.08,0.08-0.091,0.197-0.023,0.283c0.007,0.006,0.013,0,0.019,0c4.563-3.354,10.213-5.355,16.336-5.355
				c15.18,0,27.486,12.17,27.486,27.181c0,3.998-0.892,7.78-2.457,11.203l0.129,0.176l0.979-2.022l0.392-0.896
				c0.219-0.543,0.477-1.188,0.688-1.856C268.061,177.438,268.188,171.741,266.721,166.514z M230.093,133.318
				c-1.553-1.127-3.262-2.043-5.061-2.639c-1.9-0.644-3.896-0.966-5.929-0.966c-2.115,0-4.254,0.365-6.186,1.052
				c-3.129,1.096-5.908,3.075-7.947,5.601c-1.76-3.568-4.162-6.927-7.012-9.781c-2.18-2.188-4.656-4.098-7.295-5.682
				c1.518-4.555,1.643-9.602,0.312-14.305c-0.742-2.662-1.979-5.217-3.599-7.521c4.437-2.465,9.545-3.818,14.543-3.818
				c0.32,0,0.638,0.006,0.965,0.018c6.361,0.164,12.58,2.459,17.509,6.451c4.967,3.988,8.547,9.57,10.062,15.719
				C231.755,122.617,231.607,128.199,230.093,133.318z"/>
			<path fill="#ADD3F0" d="M87,158.471c-0.002,0.211,0.023,0.42,0.012,0.616C87.057,158.866,87.045,158.663,87,158.471z"/>
		</g>
		<g>
			<path fill="#ADD3F0" d="M104.362,205.438l-3.826,3.932l-1.982-0.256l2.557-3.256l-4.184-0.533l1.281-1.676l5.5,0.057l0.021-2.379
				l-5.17-0.062l-1.445-4.996l-2.285,0.65l1.49,5.279l-1.199,1.574l-1.48-3.691l-2.568,3.381l-0.857-2.062l2.789-4.729l-2.051-1.213
				l-2.637,4.453l-5.043-1.252l-0.59,2.305l5.336,1.348l0.787,1.91l-3.902-0.557l1.592,3.801l-2.238-0.295l-2.695-4.773
				l-2.074,1.166l2.549,4.537l-0.355,0.363l-3.264,3.352l1.703,1.66l3.842-3.94l2.193,0.289l-2.523,3.198l4.033,0.517l-1.334,1.729
				l-5.588-0.054l-0.02,2.38l5.221,0.086l1.389,4.967l2.291-0.65l-1.471-5.195l1.41-1.84l1.541,3.846l2.396-3.16l0.785,1.892
				l-2.791,4.729l2.045,1.213l2.678-4.479l5.01,1.272l0.58-2.305l-5.322-1.342l-0.838-2.006l4.203,0.594l-1.574-3.732l1.947,0.25
				l2.703,4.785l2.072-1.166l-2.512-4.498l3.582-3.748L104.362,205.438z M96.026,212.268l-2.656-0.386l-1.619,2.138l-0.998-2.492
				l-2.656-0.34l1.66-2.103l-1.039-2.472l2.65,0.375l1.623-2.131l0.996,2.492l2.656,0.334l-1.652,2.107L96.026,212.268z"/>
			<path fill="#ADD3F0" d="M117.54,237.251l-3.83,3.933l-1.982-0.256l2.561-3.263l-4.186-0.526l1.285-1.683l5.492,0.058l0.027-2.373
				l-5.17-0.062l-1.447-4.996l-2.283,0.646l1.49,5.289l-1.201,1.563l-1.479-3.692l-2.572,3.381l-0.861-2.062l2.793-4.729
				l-2.047-1.205l-2.641,4.445l-5.037-1.253l-0.59,2.306l5.33,1.354l0.791,1.901l-3.912-0.555l1.598,3.801l-2.234-0.289l-2.699-4.78
				l-2.072,1.172l2.549,4.531l-0.354,0.362l-3.266,3.359l1.705,1.658l3.84-3.941l2.191,0.283l-2.52,3.201l4.031,0.52l-1.336,1.729
				l-5.584-0.058l-0.023,2.379l5.225,0.084l1.385,4.97l2.295-0.646l-1.471-5.199l1.41-1.836l1.545,3.84l2.389-3.154l0.787,1.887
				l-2.795,4.734l2.051,1.207l2.676-4.48l5.008,1.279l0.584-2.305l-5.324-1.348l-0.834-2.006l4.195,0.602l-1.568-3.732l1.945,0.248
				l2.701,4.787l2.078-1.168l-2.518-4.496l3.58-3.756L117.54,237.251z M109.202,244.07l-2.656-0.379l-1.621,2.136l-0.996-2.486
				l-2.654-0.34l1.656-2.106l-1.035-2.463l2.648,0.373l1.625-2.13l0.996,2.486l2.654,0.34l-1.654,2.104L109.202,244.07z"/>
		</g>
		<g>
			<path fill="#ADD3F0" d="M57.106,205.438l-3.828,3.932l-1.977-0.256l2.553-3.256l-4.182-0.533l1.279-1.676l5.498,0.057
				l0.021-2.379l-5.166-0.062l-1.447-4.996l-2.285,0.65l1.49,5.279l-1.201,1.574l-1.479-3.691l-2.57,3.381l-0.855-2.062l2.789-4.729
				l-2.047-1.213l-2.646,4.453l-5.035-1.252l-0.586,2.305l5.328,1.348l0.787,1.91l-3.902-0.557l1.592,3.801l-2.238-0.295
				l-2.693-4.773l-2.072,1.166l2.549,4.537l-0.355,0.363l-3.264,3.352l1.707,1.66l3.834-3.94l2.193,0.289l-2.523,3.198l4.035,0.517
				l-1.338,1.729l-5.584-0.054l-0.023,2.38l5.223,0.086l1.389,4.967l2.293-0.65l-1.467-5.195l1.41-1.84l1.539,3.846l2.393-3.16
				l0.787,1.892l-2.793,4.729l2.045,1.213l2.68-4.479l5.006,1.272l0.584-2.305l-5.324-1.342l-0.832-2.006l4.197,0.594l-1.57-3.732
				l1.947,0.25l2.697,4.785l2.076-1.166l-2.512-4.498l3.58-3.748L57.106,205.438z M48.772,212.268l-2.66-0.386l-1.619,2.138
				l-0.994-2.492l-2.654-0.34l1.654-2.103l-1.031-2.472l2.641,0.375l1.631-2.131l0.99,2.492l2.66,0.334l-1.656,2.107L48.772,212.268
				z"/>
			<path fill="#ADD3F0" d="M70.28,237.251l-3.822,3.933l-1.986-0.256l2.561-3.263l-4.182-0.526l1.279-1.683l5.5,0.058l0.023-2.373
				l-5.172-0.062l-1.447-4.996l-2.285,0.646l1.494,5.289l-1.203,1.563l-1.48-3.692l-2.568,3.381l-0.859-2.062l2.793-4.729
				l-2.051-1.205l-2.639,4.445l-5.039-1.253l-0.592,2.306l5.332,1.354l0.791,1.901l-3.91-0.555l1.596,3.801l-2.234-0.289
				l-2.695-4.78l-2.076,1.172l2.549,4.531l-0.354,0.362l-3.266,3.359l1.701,1.658l3.844-3.941l2.189,0.283l-2.518,3.201l4.029,0.52
				l-1.334,1.729l-5.588-0.058L46.64,249.4l5.229,0.084l1.385,4.97l2.297-0.646l-1.473-5.199l1.41-1.836l1.539,3.84l2.395-3.154
				l0.789,1.887l-2.797,4.734l2.049,1.207l2.68-4.48l5.004,1.279l0.586-2.305l-5.324-1.348l-0.838-2.006l4.197,0.602l-1.568-3.732
				l1.947,0.248l2.697,4.787l2.078-1.168l-2.514-4.496l3.584-3.756L70.28,237.251z M61.944,244.07l-2.652-0.379l-1.619,2.136
				l-0.996-2.486l-2.656-0.34l1.656-2.106l-1.039-2.463l2.65,0.373l1.625-2.13l0.998,2.486l2.656,0.34l-1.654,2.104L61.944,244.07z"
				/>
		</g>
		<g>
			<path fill="#ADD3F0" d="M241.206,238.911l3.582,3.756l-2.513,4.496l2.076,1.168l2.699-4.787l1.947-0.248l-1.568,3.731
				l4.197-0.602l-0.838,2.006l-5.322,1.348l0.584,2.306l5.004-1.278l2.68,4.479l2.05-1.207l-2.798-4.734l0.787-1.887l2.396,3.153
				l1.537-3.84l1.412,1.836l-1.473,5.199l2.295,0.646l1.387-4.969l5.229-0.084l-0.024-2.379l-5.589,0.057l-1.329-1.729l4.032-0.521
				l-2.521-3.201l2.187-0.282l3.844,3.94l1.703-1.658l-3.267-3.358l-0.354-0.363l2.549-4.531l-2.07-1.172l-2.697,4.781l-2.237,0.289
				l1.598-3.801l-3.914,0.555l0.793-1.902l5.332-1.355l-0.592-2.305l-5.035,1.252l-2.646-4.445l-2.045,1.205l2.793,4.73l-0.86,2.061
				l-2.565-3.381l-1.48,3.693l-1.201-1.564l1.49-5.289l-2.285-0.646l-1.447,4.996l-5.172,0.062l0.027,2.373l5.498-0.057l1.279,1.682
				l-4.187,0.527l2.562,3.262l-1.982,0.256l-3.826-3.932L241.206,238.911z M252.284,241.605l-1.654-2.104l2.656-0.34l0.998-2.486
				l1.625,2.13l2.647-0.373l-1.039,2.463l1.658,2.106l-2.658,0.34l-0.994,2.486l-1.619-2.136l-2.651,0.379L252.284,241.605z"/>
		</g>
		<path fill="#ADD3F0" d="M80.418,145.284c2.867,1.274,5.285,2.485,7.279,3.567l-3.172-2.283l0.717-0.26
			c-0.633-0.793-1.346-1.502-2.182-1.965c-0.783-0.443-2.123-0.941-2.6,0.176c-0.1,0.215-0.051,0.447-0.025,0.695
			C80.43,145.239,80.428,145.261,80.418,145.284z"/>
		<path fill="#ADD3F0" d="M233.818,182.654c-1.336-2.973-3.092-5.657-5.471-7.991c-2.352-2.306-5.205-4.021-8.242-5.062
			c-6.065-2.103-12.828-1.332-18.018,1.782c-2.574,1.496-4.943,3.66-6.49,6.236c-1.559,2.578-2.41,5.493-2.486,8.383
			c-0.168,5.756,2.656,11.34,7.382,14.047c2.332,1.326,4.993,1.853,7.504,1.604c2.51-0.25,4.854-1.275,6.649-2.814
			c-2.022,1.234-4.379,1.834-6.684,1.721c-2.301-0.102-4.537-0.918-6.318-2.283c-1.799-1.348-3.062-3.268-3.86-5.381
			c-0.781-2.104-1.021-4.395-0.695-6.574c0.306-2.198,1.197-4.282,2.513-6.01c1.323-1.739,3.061-3.03,5.123-3.994
			c4.049-1.932,8.881-1.987,12.94-0.231c2.022,0.879,3.853,2.177,5.317,3.808c1.433,1.604,2.652,3.688,3.453,5.821
			c1.629,4.293,1.66,9.193,0.074,13.537c-1.596,4.386-4.688,8.021-8.916,10.371c-2.098,1.213-4.404,2.078-6.824,2.635
			c-2.559,0.595-5.119,0.72-7.733,0.781c-5.021,0.112-9.949-0.192-14.896-0.748c-4.611-0.379-9.232-0.969-13.82-1.744
			c-11.08-2.36-22.021-5.795-32.221-10.762c-7.873-3.83-15.899-8.576-22.156-14.777c-1.15-1.139-2.244-2.321-3.232-3.604
			c-0.166-0.176-0.348-0.354-0.51-0.53c0.055,0.026,0.111,0.051,0.164,0.071c-4.15-5.622-3.262-9.01-3.262-9.01
			s9.189,15.881,40.375,19.896c5.301,0.561,10.43,0.561,15.01-0.295c1.486,0.438,2.799,1.133,3.799,2.125
			c1.02,1.002,1.59,2.305,1.619,3.682c0.022,1.371-0.514,2.701-1.473,3.709c-0.89,0.969-2.234,1.508-3.646,1.445
			c-1.384-0.029-2.853-0.691-3.677-1.756c-0.848-1.076-1.049-2.656-0.401-4.021c-1.144,1.043-1.709,2.896-1.015,4.668
			c0.711,1.783,2.482,3.172,4.687,3.635c1.088,0.238,2.271,0.211,3.422-0.078c1.14-0.276,2.238-0.844,3.109-1.627
			c1.717-1.477,2.774-3.727,2.719-6.024c-0.019-2.289-1.185-4.521-2.935-5.937c-0.489-0.407-1.024-0.741-1.571-1.043
			c2.944-1.053,5.533-2.588,7.672-4.668c0.985-0.832,1.918-1.737,2.649-2.774c1.13-1.562,1.931-3.317,2.357-5.125
			c0.064-0.271,0.062-0.543,0.113-0.822c0.031-0.106,0.076-0.196,0.107-0.311c-0.025,0.026-0.051,0.051-0.076,0.073
			c0.529-3.309-0.092-6.707-1.805-9.539c-0.957-1.562-2.146-2.944-3.689-4.11c-1.527-1.146-3.309-1.949-5.168-2.373
			c-3.709-0.847-7.676-0.086-10.578,1.879c-1.441,0.953-2.729,2.256-3.504,3.75c-0.781,1.483-1.121,3.133-1.008,4.72
			c0.221,3.166,2.203,6.094,5.154,7.34c1.455,0.61,3.069,0.771,4.536,0.504c1.479-0.26,2.81-0.939,3.785-1.875
			c-1.123,0.783-2.496,1.229-3.864,1.281c-1.371,0.057-2.74-0.283-3.873-0.937c-1.144-0.65-1.988-1.647-2.591-2.765
			c-0.573-1.114-0.846-2.36-0.774-3.573c0.062-1.224,0.481-2.406,1.162-3.421c0.682-1.02,1.643-1.812,2.809-2.452
			c2.293-1.259,5.154-1.529,7.658-0.761c1.248,0.375,2.4,0.998,3.361,1.818c0.942,0.805,1.774,1.887,2.375,3.014
			c1.207,2.283,1.489,4.974,0.789,7.438c-0.689,2.476-2.328,4.627-4.701,6.129c-1.181,0.765-2.498,1.359-3.904,1.783
			c-0.701,0.221-1.42,0.385-2.168,0.521c-0.746,0.131-1.461,0.191-2.373,0.295c-3.342,0.351-6.652,0.412-9.998,0.316
			c-0.871-0.023-1.736-0.102-2.605-0.152c-16.245-1.535-26.458-9.992-25.376-20.432c1.539-7.119,7.867-12.461,15.448-12.461
			c1.324,0,2.651,0.188,3.938,0.533c-4.349-1.846-9.101-2.908-14.112-2.908c-0.193,0-0.387,0.002-0.578,0.006
			c-0.9,0.014-1.793,0.068-2.682,0.145c-0.012-0.399-0.031-0.805-0.031-1.209c0-4.243,0.777-8.311,2.168-12.063
			c2.92-8.542,8.642-15.146,15.87-19.236c-0.225,0.092-0.432,0.193-0.652,0.283l0.49-0.221c0,0-6.691,1.195-14.401,7.363
			c-1.229,0.982-2.475,2.094-3.736,3.346c-0.057,0.053-0.113,0.109-0.172,0.166c-0.617,0.623-1.229,1.266-1.863,1.978
			c-0.576,0.651-1.156,1.344-1.729,2.062c-0.09,0.106-0.182,0.217-0.266,0.328c-0.566,0.719-1.121,1.473-1.682,2.258
			c-0.092,0.133-0.182,0.269-0.277,0.403c-0.506,0.726-0.998,1.484-1.49,2.269c-0.074,0.123-0.148,0.235-0.221,0.354
			c-0.527,0.855-1.037,1.75-1.547,2.679c-0.107,0.207-0.219,0.42-0.334,0.635c-0.51,0.957-1.012,1.945-1.496,2.99
			c-0.221,0.106-0.43,0.228-0.65,0.319c-2.799,1.246-5.852,1.883-8.916,1.883c-0.668,0-1.342-0.038-2.021-0.102
			c-4.652-0.418-8.887-2.279-12.264-5.135c-0.033-0.02-0.066-0.047-0.096-0.066c-5.35-4.367-8.766-11.009-8.766-18.451
			c0-7.799,3.768-14.705,9.559-19.045c0.453-0.119,0.816-0.256,0.936-0.396c-6.334,1.342-12.176,4.553-16.467,9.059
			c-4.375,4.549-7.357,10.592-8.389,17.021c-0.016,0.098-0.098,0.17-0.197,0.17c-0.117-0.004-0.203-0.086-0.203-0.189
			c-0.188-3.143,0.287-6.418,1.361-9.471c1.203-3.418,3.164-6.605,5.664-9.219c0.348-0.357,0.729-0.686,1.09-1.02
			c-4.021-3.412-8.824-5.893-13.898-7.182c-0.125,0.025-0.262,0.025-0.387-0.01c-0.443,0-0.951-0.178-1.41-0.303
			c-0.742-0.15-1.488-0.273-2.242-0.379c-0.447-0.049-0.867-0.043-1.307-0.051c-0.197,0-0.381-0.062-0.557-0.137
			c-0.879-0.07-1.756-0.119-2.645-0.119c-3.338,0-6.625,0.484-9.783,1.426c-6.043,1.795-11.674,5.428-15.846,10.232
			c-3.314,3.811-5.768,8.367-7.088,13.18c-1.121,4.056-1.422,8.371-0.98,12.591c0.047,0.248,0.094,0.498,0.154,0.746
			c-0.012,0.283,0,0.562,0,0.84c0.008,0.076,0.016,0.148,0.027,0.222c0.697,4.502,2.373,8.957,4.85,12.889
			c2.143,3.404,4.953,6.463,8.127,8.942c3.209-1.319,6.848-1.75,10.258-1.229c0.049-0.858,0.146-1.727,0.316-2.575
			c0.613-3.06,2.08-6.017,4.119-8.326c1.838-2.104,4.148-3.728,6.668-4.693c0.098-0.037,0.207,0.006,0.254,0.094
			c0.045,0.088,0.016,0.201-0.062,0.258c-4.43,3.178-7.557,7.973-8.582,13.146c-1.07,5.215-0.062,10.846,2.77,15.457
			c0.055,0.09,0.041,0.202-0.045,0.266c-0.037,0.027-0.08,0.039-0.125,0.039c-0.053,0-0.102-0.016-0.141-0.057
			c-1.951-1.882-3.447-4.271-4.314-6.923c-0.654-1.981-0.92-4.065-0.92-6.145l0.057-0.062c0,0-0.781-0.018-2.021,0.087
			c-1.039,0.061-2.062,0.215-3.07,0.436c-5.902,1.134-14.811,4.746-14.783,16.211c-0.062,1.382,0.033,2.775,0.328,4.123
			c0.037,0.177,0.092,0.402,0.156,0.662c0.074,0.271,0.168,0.521,0.264,0.754l47.096,1.693v0.373h6.744
			c-0.068-0.078-0.137-0.164-0.201-0.242c-0.207-0.183-0.434-0.447-0.686-0.822C66.78,166.555,67.01,150.109,67.01,150.109
			s6.188,23.33,29.838,41.189c6.539,4.678,13.438,8.846,20.479,12.732c5.424,2.984,11.027,5.748,16.32,8.967
			c3.9,2.305,7.658,4.758,10.975,7.82c0.719,0.641,1.428,1.303,2.119,1.967c0.67,0.668,1.418,1.404,2.002,2.021
			c1.194,1.291,2.215,2.713,2.981,4.241c0.765,1.519,1.305,3.16,1.551,4.787c0.234,1.619,0.168,3.269-0.209,4.849
			c-0.735,3.147-2.711,5.998-5.385,7.799c-1.328,0.912-2.828,1.553-4.399,1.92c-1.537,0.369-3.098,0.393-4.614,0.057
			c-3.041-0.645-5.729-2.746-7.135-5.539c-0.689-1.398-1.135-2.945-1.109-4.445c0.008-1.518,0.436-3.047,1.238-4.361
			c1.549-2.635,4.678-4.424,7.766-4.231c3.112,0.193,5.993,2.617,6.724,5.772c-0.176-1.592-0.883-3.184-2.045-4.44
			c-1.143-1.258-2.754-2.176-4.521-2.504c-3.592-0.629-7.475,1.037-9.777,4.158c-1.146,1.551-1.891,3.455-2.084,5.448
			c-0.191,2.027,0.207,4.025,0.955,5.9c1.531,3.744,4.891,6.844,9.018,7.992c2.053,0.602,4.288,0.703,6.411,0.301
			c2.088-0.363,4.141-1.121,5.988-2.26c3.707-2.26,6.565-6.016,7.729-10.359c0.584-2.164,0.738-4.469,0.461-6.725
			c-0.279-2.242-0.951-4.389-1.928-6.41c-0.982-2.012-2.271-3.852-3.758-5.488c-0.779-0.834-1.447-1.49-2.195-2.238
			c-0.742-0.729-1.498-1.434-2.275-2.135c-6.924-6.271-15.364-10.444-23.446-14.977c-8.352-4.678-16.197-10.109-23.107-16.766
			c-1.648-1.586-3.242-3.234-4.773-4.935c-3.014-3.834-5.242-7.596-6.895-11.116c0.672,1.432,2.391,2.871,3.428,4.071
			c1.242,1.438,2.518,2.854,3.832,4.229c3.078,3.234,6.363,6.265,9.818,9.086c7.598,6.214,15.986,11.328,24.707,15.804
			c7.586,3.896,15.318,7.604,23.236,10.776c2.217,0.892,4.455,1.734,6.711,2.517c9.176,3.179,18.722,5.285,28.388,6.242
			c1.381,0.141,2.766,0.254,4.153,0.34c1.185,0.078,2.99-0.188,4.097,0.196c1.643,0.55,3.291,1.15,4.938,1.818
			c2.538,1.025,4.717,2.555,6.282,4.594c1.537,1.959,2.274,4.406,2.09,6.894c-0.192,2.479-1.313,4.81-3.1,6.479
			c-1.647,1.619-3.992,2.379-6.345,2.072c-2.293-0.277-4.645-1.699-5.85-3.732c-1.23-2.084-1.309-4.973,0.006-7.346
			c-2.086,1.711-3.348,4.984-2.481,8.291c0.891,3.32,3.625,6.09,7.229,7.273c1.782,0.584,3.774,0.736,5.731,0.391
			c1.952-0.346,3.891-1.211,5.479-2.486c3.125-2.411,5.278-6.313,5.569-10.461c0.356-4.146-1.211-8.35-3.901-11.182
			c-1.14-1.246-2.443-2.248-3.822-3.064c0.945-0.146,1.887-0.315,2.813-0.549c3.265-0.78,6.445-2.026,9.341-3.771
			c2.862-1.694,5.606-3.942,7.739-6.61c2.149-2.668,3.787-5.716,4.817-8.92C236.891,195.639,236.475,188.604,233.818,182.654z
			 M145.014,119.933l0.76-0.338c-0.396,0.199-0.783,0.41-1.168,0.617L145.014,119.933z M62.172,134.864
			c-4.809,2.092-8.992,5.336-12.223,9.381c-7.633-2.861-13.076-10.201-13.076-18.839c0-11.117,9.018-20.135,20.131-20.135
			c6.305,0,11.916,2.891,15.609,7.414C67.174,118.769,63.475,126.423,62.172,134.864z"/>
	</g>
</g>
</svg>
