<?xml version="1.0" encoding="utf-8"?>
<!-- Generator: Adobe Illustrator 15.0.2, SVG Export Plug-In . SVG Version: 6.00 Build 0)  -->
<!DOCTYPE svg PUBLIC "-//W3C//DTD SVG 1.1//EN" "http://www.w3.org/Graphics/SVG/1.1/DTD/svg11.dtd">
<svg version="1.1" id="Layer_1" xmlns="http://www.w3.org/2000/svg" xmlns:xlink="http://www.w3.org/1999/xlink" x="0px" y="0px"
	 width="280px" height="260px" viewBox="0 0 280 260" enable-background="new 0 0 280 260" xml:space="preserve">
<g>
	<g>
		<g>
			<path fill="#FFFFFF" d="M178.678,118.176c0.221,0.111,0.436,0.207,0.652,0.32c0.006-0.039,0.01-0.078,0.01-0.119
				C179.119,118.307,178.908,118.238,178.678,118.176z"/>
		</g>
		<g>
			<path fill="#FFFFFF" d="M161.654,114.51c4.928,0,9.658,0.82,14.076,2.305c-4.025-1.621-8.42-2.521-13.025-2.521
				c-1.943,0-3.846,0.164-5.697,0.471C158.533,114.605,160.088,114.51,161.654,114.51z"/>
		</g>
		<path fill="#FFFFFF" d="M263.225,166.551c-1.771-6.406-6.004-12.127-11.596-15.701c-4.887-3.166-11.004-4.713-16.865-4.242
			c-0.213-3.172-1.291-6.338-3.063-8.998c-1.031-1.557-2.32-2.979-3.834-4.223c2.106-5.154,2.678-11.01,1.602-16.551
			c-1.276-6.83-5.163-13.275-10.663-17.672c-5.205-4.227-12.025-6.652-18.716-6.652c-0.282,0-0.562,0.004-0.838,0.01
			c-5.558,0.119-11.096,1.896-15.678,5.012c-1.644-2.129-3.554-3.953-5.677-5.426c-1.096-0.775-2.295-1.479-3.67-2.15
			c-0.102-0.047-0.205-0.086-0.307-0.129l-0.184-0.076c-0.451-0.211-0.914-0.408-1.379-0.584c-0.183-0.074-0.369-0.137-0.547-0.199
			c-3.17-1.135-6.455-1.688-9.666-1.523c-0.158-0.613-0.304-1.285-0.459-2.066c-0.197-1.008-0.398-2.051-0.697-3.09
			c-0.627-2.342-1.488-4.652-2.559-6.854c-2.209-4.605-5.41-8.861-9.242-12.316c-4.054-3.66-8.935-6.508-14.125-8.25
			c-5.408-1.814-11.242-2.461-16.992-1.869c-8.971,0.883-17.779,5.033-24.168,11.377c-5.734,5.617-9.695,12.971-11.195,20.771
			c-0.996-0.201-1.962-0.299-2.947-0.299c-3.869,0-7.682,1.293-10.729,3.627c-2.234,1.672-4.078,3.9-5.33,6.436
			c-0.82,1.652-1.371,3.506-1.604,5.389c-5.947-1.537-12.301-1.471-18.191,0.15c-6.684,1.818-12.893,5.727-17.475,11.004
			c-3.643,4.188-6.287,9.213-7.641,14.523c-1.309,5.096-1.473,10.51-0.465,15.672c0.92,4.826,2.928,9.521,5.801,13.578
			c2.143,3.01,4.836,5.735,7.83,7.942c-3.334,1.504-6.182,4.002-8.088,7.099c-2.506,3.996-3.367,8.951-2.359,13.596
			c0.109,0.51,0.227,0.975,0.357,1.398l0.045,0.149c0.047,0.174,0.102,0.338,0.238,0.733l0.242,0.681
			c0.031,0.075,0.137,0.315,0.438,0.485l0.166,0.088h29.838h26.682h126.119h2.342h52.797l0.994-2.024l0.383-0.896
			c0.224-0.543,0.484-1.186,0.693-1.856C264.574,177.496,264.707,171.783,263.225,166.551z"/>
		<g>
			<path fill="#ADD3F0" d="M227.691,122.994c-0.062-0.088-0.125-0.182-0.201-0.262c0.051-0.475,0.082-0.963,0.098-1.447
				c-0.023-0.273-0.078-0.541-0.113-0.812c-0.051-0.385-0.098-0.77-0.164-1.154c-0.119-0.648-0.256-1.297-0.418-1.943
				c-1.52-6.162-5.104-11.754-10.084-15.746c-4.936-4.004-11.172-6.305-17.547-6.469c-0.324-0.012-0.646-0.018-0.967-0.018
				c-5.004,0-10.129,1.359-14.57,3.824c1.619,2.311,2.861,4.871,3.605,7.545c1.334,4.707,1.209,9.77-0.312,14.336
				c2.644,1.58,5.123,3.496,7.306,5.686c2.854,2.863,5.268,6.229,7.028,9.805c2.041-2.528,4.832-4.512,7.967-5.612
				c1.937-0.687,4.074-1.054,6.193-1.054c2.039,0,4.043,0.328,5.947,0.966c1.801,0.604,3.512,1.516,5.062,2.643
				c0.235-0.773,0.422-1.568,0.59-2.361c0.031-0.137,0.051-0.275,0.08-0.414C227.66,128.035,227.828,125.508,227.691,122.994z
				 M219.535,125.418c-14.242-0.459-25.717-11.754-26.479-25.918c2.312-0.918,4.834-1.443,7.477-1.443
				c11.209,0,20.297,9.086,20.297,20.299C220.83,120.842,220.354,123.217,219.535,125.418z"/>
			<path fill="#ADD3F0" d="M20.775,139.742c-0.018-0.125-0.025-0.25-0.039-0.373c0-0.004,0-0.016-0.006-0.018
				C20.744,139.479,20.758,139.615,20.775,139.742z"/>
			<path fill="#ADD3F0" d="M179.641,114.883c0,0.869-0.078,1.711-0.182,2.551l0,0c1.15,0.363,2.283,0.773,3.379,1.25
				c1.266,0.553,2.512,1.189,3.73,1.896c0.805-4.508,0.442-9.264-1.06-13.494c-1.752-4.971-5.102-9.365-9.432-12.385
				c-0.447-0.311-0.904-0.6-1.365-0.887c-0.629-0.348-1.252-0.699-1.887-1.01c-0.753-0.369-1.523-0.703-2.306-1.02
				c-2.854-1.076-5.908-1.654-8.971-1.654h-0.346c-4.748,0.033-9.623,1.479-13.725,4.066c0.424-0.266,0.873-0.498,1.313-0.742
				c2.479-0.922,5.16-1.453,7.957-1.453C169.395,92.002,179.641,102.246,179.641,114.883z"/>
			<path fill="#ADD3F0" d="M157.902,88.697c0.106-0.027,0.209-0.045,0.32-0.062c0.948-0.186,1.905-0.34,2.877-0.406
				c-0.304-0.879-0.562-1.771-0.802-2.646c-0.25-0.945-0.504-1.916-0.834-2.852c-0.743-2.201-1.688-4.357-2.81-6.402
				c-2.321-4.232-5.506-8.115-9.213-11.23c-3.883-3.281-8.492-5.812-13.322-7.348c-3.779-1.193-7.73-1.803-11.738-1.803
				c-1.33,0-2.674,0.068-3.992,0.205c-8.367,0.826-16.367,4.469-22.523,10.254c-5.73,5.316-9.822,12.436-11.533,20.049
				c-0.027,0.133-0.096,0.244-0.191,0.326c-0.59,2.666-0.916,5.428-0.955,8.209c0,0.107-0.09,0.195-0.203,0.195
				c-0.107,0-0.199-0.076-0.201-0.191c-0.162-2.812-0.012-5.645,0.43-8.414c-4.455,0.227-8.792,1.783-12.273,4.432
				c-3.436,2.58-6.104,6.268-7.609,10.43c0.027,0.018,0.066,0.029,0.09,0.045c0.709,0.641,2.637,0.918,3.557,1.314
				c1.246,0.547,2.459,1.162,3.631,1.848c2.402,1.404,4.662,3.109,6.631,5.08c1.557-0.705,2.852-2.254,4.464-3.064
				c4.01-2.008,8.021-3.416,12.668-3.393c0.037-0.029,0.07-0.049,0.111-0.074c-0.221-0.668-0.566-2.492-0.584-2.57
				c-0.131-0.664-0.244-1.328-0.334-2c-0.182-1.371-0.271-2.748-0.271-4.121c0-17.176,13.922-31.102,31.098-31.102
				c15.457,0,28.25,11.291,30.661,26.07C155.979,89.156,156.934,88.898,157.902,88.697z"/>
			<path fill="#ADD3F0" d="M131.105,150.254c-1.107,0-2.191,0.057-3.268,0.148c-0.016-0.402-0.029-0.805-0.029-1.213
				c0-4.254,0.771-8.326,2.17-12.086c2.928-8.564,8.66-15.185,15.905-19.275c-0.227,0.084-0.434,0.188-0.656,0.279l0.486-0.223
				c0,0-6.702,1.201-14.426,7.381c-1.229,0.984-2.48,2.096-3.744,3.348c-0.057,0.057-0.113,0.117-0.164,0.17
				c-0.621,0.617-1.238,1.273-1.855,1.959c-0.006,0.012-0.012,0.014-0.014,0.02c-0.584,0.654-1.168,1.353-1.742,2.064
				c-0.082,0.117-0.176,0.221-0.258,0.334c-0.572,0.723-1.133,1.473-1.688,2.26c-0.096,0.133-0.182,0.273-0.283,0.408
				c-0.502,0.729-1,1.484-1.49,2.277c-0.076,0.119-0.146,0.231-0.221,0.352c-0.527,0.855-1.045,1.756-1.547,2.684
				c-0.115,0.207-0.227,0.42-0.34,0.635c-0.514,0.963-1.014,1.951-1.5,2.996c-0.215,0.107-0.43,0.228-0.648,0.326
				c-2.805,1.24-5.859,1.883-8.936,1.883c-0.668,0-1.346-0.039-2.02-0.096c0,0,0,0-0.006,0c-4.664-0.428-8.902-2.291-12.287-5.158
				c-0.035-0.014-0.062-0.041-0.102-0.061c-5.359-4.377-8.785-11.035-8.785-18.49c0-7.816,3.777-14.732,9.586-19.088
				c0.451-0.123,0.816-0.25,0.934-0.393c-0.041,0.012-0.076,0.021-0.117,0.025c-2.338,0.508-4.611,1.262-6.762,2.244
				c-0.004,0.006-0.016,0.006-0.021,0.008c-0.719,0.334-1.428,0.686-2.113,1.064c-0.068,0.041-0.131,0.08-0.191,0.117
				c-0.629,0.354-1.252,0.717-1.854,1.109c-0.156,0.105-0.299,0.219-0.453,0.324c-0.504,0.336-1.002,0.68-1.48,1.045
				c-0.275,0.203-0.527,0.436-0.791,0.65c-0.346,0.283-0.699,0.555-1.029,0.854c-0.584,0.523-1.15,1.066-1.689,1.633
				c-4.383,4.561-7.369,10.615-8.404,17.062c-0.019,0.096-0.103,0.17-0.201,0.17c-0.113-0.006-0.197-0.09-0.203-0.188
				c-0.188-3.154,0.289-6.439,1.365-9.492c1.203-3.432,3.166-6.625,5.68-9.238c0.346-0.363,0.721-0.686,1.088-1.025
				c-3.018-2.566-6.484-4.605-10.172-6.01c-1.229-0.465-2.486-0.865-3.756-1.189c-0.131,0.035-0.264,0.029-0.389-0.008
				c-0.441,0-0.947-0.178-1.404-0.303c-0.008,0-0.014,0-0.02-0.004c-0.736-0.145-1.484-0.268-2.229-0.373c0,0-0.008,0-0.014,0
				c-0.439-0.049-0.861-0.049-1.303-0.055c-0.199,0-0.381-0.062-0.555-0.133c-0.885-0.074-1.766-0.121-2.658-0.121
				c-3.342,0-6.631,0.484-9.799,1.43c-6.061,1.795-11.701,5.436-15.881,10.25c-3.32,3.82-5.777,8.389-7.104,13.213
				c-0.316,1.15-0.572,2.326-0.764,3.51c-0.098,0.609-0.137,1.22-0.201,1.832c-0.062,0.584-0.156,1.152-0.189,1.732
				c-0.047,0.816-0.025,1.639-0.018,2.453c0.006,0.385-0.02,0.766,0,1.146c0.027,0.648,0.119,1.296,0.188,1.941
				c0.051,0.248,0.102,0.498,0.152,0.745c-0.006,0.263,0,0.517,0,0.771c0.018,0.1,0.018,0.197,0.033,0.295
				c0.695,4.508,2.377,8.978,4.861,12.914c2.146,3.404,4.961,6.473,8.145,8.959c3.213-1.322,6.861-1.752,10.277-1.223
				c0.047-0.867,0.15-1.732,0.32-2.592c0.611-3.064,2.078-6.029,4.123-8.34c1.846-2.107,4.156-3.732,6.686-4.701
				c0.098-0.039,0.201,0.006,0.25,0.09c0.049,0.092,0.021,0.199-0.061,0.262c-4.438,3.189-7.572,7.986-8.6,13.174
				c-1.074,5.217-0.062,10.861,2.777,15.486c0.051,0.09,0.035,0.197-0.047,0.266c-0.037,0.025-0.08,0.039-0.125,0.039
				c-0.051,0-0.105-0.014-0.143-0.051c-1.957-1.889-3.451-4.287-4.324-6.941c-0.65-1.983-0.92-4.067-0.861-6.158
				c-0.02,0-0.039,0-0.059,0l0.059-0.065c0,0-0.787-0.014-2.033,0.095c-1.039,0.062-2.061,0.213-3.072,0.432
				c-5.914,1.137-14.848,4.76-14.814,16.25c-0.062,1.381,0.033,2.777,0.332,4.129c0.031,0.176,0.088,0.404,0.154,0.656
				c0.074,0.276,0.166,0.533,0.268,0.766l52.689,1.891c-0.252-1.262-0.422-2.555-0.422-3.896c0-11.047,8.957-20.006,20.011-20.006
				c6.943,0,13.055,3.536,16.641,8.909c4.162-10.532,14.414-17.994,26.416-17.994c1.689,0,3.333,0.177,4.934,0.46
				c0.369-0.138,0.754-0.23,1.123-0.355C141.766,151.467,136.582,150.254,131.105,150.254z M141.268,119.867l0.756-0.334
				c-0.395,0.195-0.772,0.408-1.164,0.617L141.268,119.867z M44.439,145.877c-7.635-2.861-13.078-10.201-13.078-18.84
				c0-11.117,9.018-20.133,20.137-20.133c6.297,0,11.916,2.887,15.605,7.414c-5.439,6.086-9.145,13.738-10.441,22.182
				C51.854,138.586,47.672,141.832,44.439,145.877z M58.939,146.629c-0.062-0.021-0.121-0.027-0.184-0.035
				c0.121-0.082,0.246-0.162,0.365-0.248C59.059,146.443,58.996,146.533,58.939,146.629z M60.375,167.865
				c-3.791-6.707-3.229-14.824,3.328-21.211c2.135-2.068,4.746-2.879,7.33-2.658c2.188,3.801,5.273,6.934,8.92,9.521
				C71.26,154.678,63.975,160.223,60.375,167.865z"/>
			<path fill="#ADD3F0" d="M195.035,162.076c7.67,2.6,14.201,7.674,18.625,14.285c-0.23-1.238-0.355-2.516-0.355-3.824
				c0-11.504,9.32-20.826,20.824-20.826c11.498,0,20.822,9.322,20.822,20.826c0,4.684-1.57,8.994-4.191,12.473
				c0.9-0.031,1.797-0.062,2.695-0.094c0.561-0.02,1.121-0.043,1.682-0.059l0.666-0.023c0.314-0.012,0.699-0.057,1.068-0.039
				l1.926-0.066l0.582-1.375c0.164-0.428,0.35-0.936,0.516-1.453c0-0.006,0-0.012,0-0.018c0.058-0.395,0.211-0.793,0.34-1.189
				c0.05-0.17,0.103-0.346,0.148-0.522c0.078-0.325,0.141-0.653,0.205-0.985c0.061-0.265,0.117-0.529,0.156-0.795
				c0.062-0.341,0.105-0.687,0.148-1.025c0.032-0.271,0.069-0.545,0.096-0.816c0.033-0.352,0.049-0.695,0.068-1.045
				c0.012-0.264,0.03-0.523,0.036-0.789c0.009-0.363-0.006-0.73-0.01-1.1c-0.013-0.25-0.006-0.498-0.017-0.748
				c-0.022-0.373-0.062-0.736-0.094-1.107c-0.024-0.248-0.043-0.492-0.067-0.742c-0.056-0.393-0.125-0.776-0.193-1.168
				c-0.037-0.217-0.062-0.438-0.108-0.651c-0.119-0.604-0.258-1.201-0.433-1.793c-1.569-5.66-5.276-10.789-10.178-14.078
				c-0.668-0.443-1.356-0.861-2.062-1.24c-0.179-0.096-0.359-0.182-0.537-0.271c-0.539-0.277-1.088-0.543-1.648-0.781
				c-0.176-0.074-0.354-0.15-0.535-0.215c-0.705-0.289-1.43-0.547-2.154-0.766c-1.154-0.343-2.328-0.604-3.512-0.785
				c-2.42-0.365-4.895-0.556-7.33-0.258c-1.139,0.139-2.266,0.356-3.375,0.641c-1.129,0.289-2.232,0.652-3.314,1.088
				c-2.157,0.867-4.209,2.02-6.061,3.432c-0.09,0.062-0.209,0.047-0.283-0.037c-0.067-0.082-0.057-0.205,0.023-0.279
				c3.914-3.5,8.984-5.754,14.312-6.387c-0.675-3.072-2.027-5.938-3.965-8.322c-2.291-2.844-5.443-5.041-8.875-6.19
				c-1.943-0.646-3.988-0.979-6.078-0.979c-1.601,0-3.195,0.198-4.73,0.584c-3.018,0.754-5.854,2.252-8.252,4.332
				c0.176,0.387,0.363,0.771,0.529,1.157c1.641,3.787,2.631,7.945,2.867,12.019c0.006,0.106-0.066,0.195-0.177,0.209
				c-0.006,0-0.006-0.002-0.006-0.002c-0.008,0-0.008,0.002-0.021,0.002c-0.098,0-0.176-0.062-0.199-0.152
				c-1.862-8.225-6.131-15.986-12.014-21.857c-0.68-0.684-1.387-1.338-2.111-1.977c-0.396-0.346-0.805-0.67-1.213-1
				c-0.311-0.256-0.616-0.514-0.938-0.76c-0.569-0.439-1.149-0.861-1.75-1.271c-0.135-0.1-0.272-0.197-0.407-0.289
				c-0.716-0.48-1.435-0.939-2.164-1.381c0-0.006-0.007-0.006-0.007-0.006c8.259,6.381,13.597,16.363,13.597,27.611
				c0,4.568-0.879,8.918-2.478,12.918C195.098,162.092,195.059,162.088,195.035,162.076z M213.746,133.676
				c7.223,0,13.088,5.789,13.229,12.979c-0.996,0.207-2.018,0.32-3.072,0.32c-7.395,0-13.5-5.434-14.59-12.522
				C210.703,133.953,212.189,133.676,213.746,133.676z"/>
		</g>
		<path fill="#231F20" d="M263.225,166.551c-1.771-6.406-6.004-12.127-11.596-15.701c-4.887-3.166-11.004-4.713-16.865-4.242
			c-0.213-3.172-1.291-6.338-3.063-8.998c-1.031-1.557-2.32-2.979-3.834-4.223c2.106-5.154,2.678-11.01,1.602-16.551
			c-1.276-6.83-5.163-13.275-10.663-17.672c-5.205-4.227-12.025-6.652-18.716-6.652c-0.282,0-0.562,0.004-0.838,0.01
			c-5.558,0.119-11.096,1.896-15.678,5.012c-1.644-2.129-3.554-3.953-5.677-5.426c-1.096-0.775-2.295-1.479-3.67-2.15
			c-0.102-0.047-0.205-0.086-0.307-0.129l-0.184-0.076c-0.451-0.211-0.914-0.408-1.379-0.584c-0.183-0.074-0.369-0.137-0.547-0.199
			c-3.17-1.135-6.455-1.688-9.666-1.523c-0.158-0.613-0.304-1.285-0.459-2.066c-0.197-1.008-0.398-2.051-0.697-3.09
			c-0.627-2.342-1.488-4.652-2.559-6.854c-2.209-4.605-5.41-8.861-9.242-12.316c-4.054-3.66-8.935-6.508-14.125-8.25
			c-5.408-1.814-11.242-2.461-16.992-1.869c-8.971,0.883-17.779,5.033-24.168,11.377c-5.734,5.617-9.695,12.971-11.195,20.771
			c-0.996-0.201-1.962-0.299-2.947-0.299c-3.869,0-7.682,1.293-10.729,3.627c-2.234,1.672-4.078,3.9-5.33,6.436
			c-0.82,1.652-1.371,3.506-1.604,5.389c-5.947-1.537-12.301-1.471-18.191,0.15c-6.684,1.818-12.893,5.727-17.475,11.004
			c-3.643,4.188-6.287,9.213-7.641,14.523c-1.309,5.096-1.473,10.51-0.465,15.672c0.92,4.826,2.928,9.521,5.801,13.578
			c2.143,3.01,4.836,5.735,7.83,7.942c-3.334,1.504-6.182,4.002-8.088,7.099c-2.506,3.996-3.367,8.951-2.359,13.596
			c0.109,0.51,0.227,0.975,0.357,1.398l0.045,0.149c0.047,0.174,0.102,0.338,0.238,0.733l0.242,0.681
			c0.031,0.075,0.137,0.315,0.438,0.485l0.166,0.088h56.52l-0.264-0.729h-0.77c-0.031-0.072-0.088-0.135-0.174-0.139l-53.275-1.91
			c-0.102-0.232-0.193-0.488-0.268-0.766c-0.066-0.252-0.123-0.48-0.154-0.656c-0.299-1.352-0.395-2.748-0.332-4.129
			c-0.033-11.49,8.9-15.113,14.814-16.25c1.012-0.219,2.033-0.369,3.072-0.432c1.246-0.107,2.033-0.095,2.033-0.095
			s-0.059,0.065,0,0.065c-0.059,2.091,0.211,4.175,0.861,6.158c0.873,2.654,2.367,5.053,4.324,6.941
			c0.037,0.037,0.092,0.051,0.143,0.051c0.045,0,0.088-0.014,0.125-0.039c0.082-0.068,0.098-0.176,0.047-0.266
			c-2.84-4.625-3.852-10.27-2.777-15.486c1.027-5.188,4.162-9.984,8.6-13.174c0.082-0.062,0.109-0.17,0.061-0.262
			c-0.049-0.084-0.152-0.129-0.25-0.09c-2.529,0.969-4.84,2.594-6.686,4.701c-2.045,2.311-3.512,5.274-4.123,8.34
			c-0.17,0.858-0.273,1.725-0.32,2.592c-3.416-0.529-7.064-0.1-10.277,1.223c-3.184-2.486-5.998-5.555-8.145-8.959
			c-2.484-3.938-4.166-8.406-4.861-12.914c-0.758-4.793-0.479-9.783,0.799-14.428c1.326-4.824,3.783-9.393,7.104-13.213
			c4.18-4.814,9.82-8.455,15.881-10.25c3.168-0.945,6.457-1.43,9.799-1.43c2.771,0,5.523,0.334,8.182,0.988
			c0.125,0.037,0.258,0.043,0.389,0.008c5.08,1.295,9.9,3.783,13.928,7.199c-0.367,0.34-0.742,0.662-1.088,1.025
			c-2.514,2.613-4.477,5.807-5.68,9.238c-1.076,3.053-1.553,6.338-1.365,9.492c0.006,0.098,0.09,0.182,0.203,0.188
			c0.098,0,0.182-0.074,0.199-0.168c1.035-6.447,4.021-12.502,8.404-17.062c4.339-4.557,10.263-7.797,16.683-9.119
			c0.1-0.021,0.168-0.115,0.162-0.221c-0.012-0.102-0.094-0.176-0.203-0.182c-3.131-0.051-6.418,0.566-9.418,1.768
			c-2.783,1.1-5.369,2.75-7.626,4.74c-3.852-3.805-8.643-6.666-13.854-8.27c-0.023-0.016-0.062-0.027-0.09-0.045
			c1.506-4.162,4.174-7.85,7.609-10.43c3.48-2.648,7.818-4.205,12.273-4.432c-0.441,2.77-0.592,5.602-0.43,8.414
			c0.002,0.115,0.094,0.191,0.201,0.191c0.113,0,0.203-0.088,0.203-0.195c0.039-2.781,0.365-5.543,0.955-8.209
			c0.096-0.082,0.164-0.193,0.191-0.326c1.711-7.613,5.803-14.732,11.533-20.049c6.156-5.785,14.156-9.428,22.523-10.254
			c1.318-0.137,2.662-0.205,3.992-0.205c4.008,0,7.959,0.609,11.738,1.803c4.83,1.535,9.439,4.066,13.322,7.348
			c3.707,3.115,6.892,6.998,9.213,11.23c1.121,2.045,2.064,4.201,2.81,6.402c0.33,0.936,0.584,1.906,0.834,2.852
			c0.24,0.875,0.498,1.768,0.802,2.646c-5.101,0.373-10.023,2.379-13.857,5.643c-0.084,0.068-0.096,0.188-0.033,0.275
			c0.062,0.086,0.184,0.111,0.271,0.051c4.102-2.588,8.977-4.033,13.725-4.066h0.346c3.062,0,6.117,0.578,8.971,1.654
			c0.781,0.316,1.554,0.65,2.306,1.02c0.635,0.311,1.258,0.662,1.887,1.01c0.461,0.287,0.918,0.576,1.365,0.887
			c4.33,3.02,7.68,7.414,9.432,12.385c1.503,4.23,1.863,8.986,1.06,13.494c-1.219-0.707-2.465-1.344-3.73-1.896
			c-3.791-1.648-7.938-2.65-12.016-2.895c-0.102,0-0.195,0.074-0.209,0.176c-0.012,0.102,0.051,0.203,0.152,0.223
			c8.219,1.885,15.973,6.168,21.834,12.074c5.883,5.871,10.149,13.634,12.014,21.856c0.023,0.091,0.102,0.152,0.225,0.152
			c0.109-0.014,0.182-0.102,0.176-0.209c-0.236-4.072-1.227-8.229-2.867-12.018c-0.166-0.387-0.354-0.771-0.528-1.158
			c2.397-2.08,5.233-3.578,8.252-4.332c1.534-0.385,3.131-0.584,4.729-0.584c2.09,0,4.135,0.334,6.078,0.98
			c3.432,1.149,6.584,3.348,8.875,6.19c1.938,2.386,3.291,5.25,3.965,8.322c-5.328,0.633-10.397,2.887-14.312,6.387
			c-0.08,0.074-0.093,0.197-0.022,0.279c0.073,0.084,0.192,0.101,0.282,0.037c3.685-2.81,8.15-4.599,12.75-5.16
			c2.437-0.297,4.91-0.106,7.33,0.258c2.332,0.351,4.621,1.022,6.769,2c1.285,0.58,2.516,1.271,3.682,2.06
			c4.9,3.289,8.607,8.418,10.178,14.078c1.309,4.643,1.238,9.715-0.209,14.282c-0.184,0.601-0.396,1.179-0.584,1.669l-0.582,1.375
			l-51.963,1.807c-0.08,0-0.141,0.062-0.17,0.139h-0.773l-0.254,0.729h55.139l0.994-2.024l0.383-0.896
			c0.224-0.543,0.484-1.186,0.693-1.856C264.574,177.496,264.707,171.783,263.225,166.551z M221.459,130.637
			c-1.904-0.637-3.908-0.965-5.947-0.965c-2.119,0-4.258,0.367-6.193,1.053c-3.135,1.103-5.926,3.084-7.967,5.613
			c-1.762-3.576-4.174-6.941-7.028-9.805c-2.183-2.189-4.662-4.105-7.306-5.686c1.521-4.566,1.646-9.629,0.312-14.336
			c-0.744-2.674-1.986-5.234-3.605-7.545c4.441-2.465,9.566-3.824,14.57-3.824c0.32,0,0.643,0.006,0.967,0.018
			c6.375,0.164,12.611,2.465,17.547,6.469c4.979,3.992,8.564,9.584,10.084,15.746c1.297,5.182,1.154,10.775-0.371,15.904
			C224.971,132.152,223.26,131.24,221.459,130.637z"/>
	</g>
</g>
</svg>
