<?xml version="1.0" encoding="utf-8"?>
<!-- Generator: Adobe Illustrator 15.0.2, SVG Export Plug-In . SVG Version: 6.00 Build 0)  -->
<!DOCTYPE svg PUBLIC "-//W3C//DTD SVG 1.1//EN" "http://www.w3.org/Graphics/SVG/1.1/DTD/svg11.dtd">
<svg version="1.1" id="Layer_1" xmlns="http://www.w3.org/2000/svg" xmlns:xlink="http://www.w3.org/1999/xlink" x="0px" y="0px"
	 width="280px" height="260px" viewBox="0 0 280 260" enable-background="new 0 0 280 260" xml:space="preserve">
<g>
	<g>
		<g>
			<path fill="#FFFFFF" d="M86.978,116.279c0.119,0.066,0.25,0.123,0.369,0.186c0.004-0.021,0.004-0.045,0.01-0.068
				C87.234,116.352,87.103,116.318,86.978,116.279z"/>
		</g>
		<g>
			<path fill="#FFFFFF" d="M77.16,114.172c2.834,0,5.564,0.469,8.113,1.324c-2.322-0.934-4.857-1.449-7.51-1.449
				c-1.121,0-2.215,0.09-3.285,0.266C75.355,114.223,76.25,114.172,77.16,114.172z"/>
		</g>
		<g>
			<g>
				<g>
					<path fill="#3479BE" d="M107.136,162.82c24.998,1.738,54.225,2.74,85.444,2.74c31.23,0,60.457-1.002,85.459-2.74
						c-25.002-1.738-54.229-2.736-85.459-2.736C161.361,160.084,132.134,161.082,107.136,162.82z"/>
				</g>
			</g>
			<g>
				<g>
					<path fill="#3479BE" d="M107.621,172.131c24.998,1.74,54.225,2.742,85.443,2.742c31.234,0,60.455-1.002,85.455-2.742
						c-25-1.738-54.221-2.734-85.455-2.734C161.846,169.396,132.619,170.393,107.621,172.131z"/>
				</g>
			</g>
			<g>
				<g>
					<path fill="#3479BE" d="M105.482,181.24c25.002,1.738,54.229,2.74,85.45,2.74c31.229,0,60.455-1.002,85.453-2.74
						c-24.998-1.74-54.225-2.736-85.453-2.736C159.711,178.504,130.484,179.5,105.482,181.24z"/>
				</g>
			</g>
			<g>
				<g>
					<path fill="#3479BE" d="M15.505,154.742c37.064,1.734,80.379,2.736,126.667,2.736c46.295,0,89.609-1.002,126.648-2.736
						c-37.039-1.738-80.354-2.74-126.648-2.74C95.884,152.002,52.57,153.004,15.505,154.742z"/>
				</g>
			</g>
			<g>
				<g>
					<path fill="#3479BE" d="M12.636,146.666c38.207,1.738,82.875,2.742,130.604,2.742c47.729,0,92.393-1.004,130.602-2.742
						c-38.209-1.738-82.873-2.736-130.602-2.736C95.511,143.93,50.843,144.928,12.636,146.666z"/>
				</g>
			</g>
			<g>
				<g>
					<path fill="#3479BE" d="M8.222,138.596c37.725,1.732,81.809,2.734,128.928,2.734c47.125,0,91.217-1.002,128.934-2.734
						c-37.717-1.746-81.809-2.742-128.934-2.742C90.031,135.854,45.947,136.85,8.222,138.596z"/>
				</g>
			</g>
			<g>
				<g>
					<path fill="#3479BE" d="M6.738,130.512c36.943,1.74,80.133,2.742,126.277,2.742c46.151,0,89.333-1.002,126.278-2.742
						c-36.945-1.738-80.127-2.734-126.278-2.734C86.871,127.777,43.681,128.773,6.738,130.512z"/>
				</g>
			</g>
			<g>
				<g>
					<path fill="#3479BE" d="M7.404,122.441c35.598,1.732,77.221,2.734,121.695,2.734c44.481,0,86.1-1.002,121.704-2.734
						c-35.604-1.74-77.223-2.742-121.704-2.742C84.625,119.699,43.001,120.701,7.404,122.441z"/>
				</g>
			</g>
			<g>
				<g>
					<path fill="#3479BE" d="M2.9,114.357c37.455,1.746,81.238,2.742,128.023,2.742c46.793,0,90.565-0.996,128.022-2.742
						c-37.457-1.738-81.229-2.734-128.022-2.734C84.138,111.623,40.355,112.619,2.9,114.357z"/>
				</g>
			</g>
			<g>
				<g>
					<path fill="#3479BE" d="M0.939,106.361c35.193,1.896,76.33,2.99,120.299,2.99c43.967,0,85.112-1.094,120.307-2.99
						c-35.195-1.898-76.34-2.992-120.307-2.992C77.269,103.37,36.132,104.463,0.939,106.361z"/>
				</g>
			</g>
			<g>
				<g>
					<path fill="#3479BE" d="M12.875,98.211c28.809,1.738,62.48,2.74,98.471,2.74c35.989,0,69.663-1.002,98.472-2.74
						c-28.811-1.74-62.483-2.736-98.472-2.736C75.355,95.475,41.683,96.471,12.875,98.211z"/>
				</g>
			</g>
			<g>
				<g>
					<path fill="#3479BE" d="M13.234,90.133C40.791,91.868,73,92.87,107.408,92.87c34.428,0,66.627-1.002,94.178-2.736
						c-27.551-1.738-59.75-2.74-94.178-2.74C73,87.393,40.791,88.395,13.234,90.133z"/>
				</g>
			</g>
			<g>
				<g>
					<path fill="#3479BE" d="M24.724,82.057c27.314,1.738,59.234,2.74,93.357,2.74c34.12,0,66.043-1.002,93.356-2.74
						c-27.312-1.74-59.236-2.736-93.356-2.736C83.958,79.321,52.039,80.317,24.724,82.057z"/>
				</g>
			</g>
			<g>
				<g>
					<path fill="#3479BE" d="M45.324,73.985c23.125,1.734,50.162,2.736,79.055,2.736c28.893,0,55.926-1.002,79.059-2.736
						c-23.133-1.744-50.166-2.74-79.059-2.74C95.486,71.245,68.449,72.241,45.324,73.985z"/>
				</g>
			</g>
			<g>
				<g>
					<path fill="#3479BE" d="M59.906,65.903c19.457,1.738,42.207,2.742,66.518,2.742c24.307,0,47.053-1.004,66.512-2.742
						c-19.459-1.732-42.205-2.736-66.512-2.736C102.113,63.167,79.363,64.17,59.906,65.903z"/>
				</g>
			</g>
			<g>
				<g>
					<path fill="#3479BE" d="M45.908,57.831c20.219,1.734,43.848,2.736,69.107,2.736c25.262,0,48.895-1.002,69.11-2.736
						c-20.215-1.738-43.848-2.74-69.11-2.74C89.755,55.09,66.126,56.092,45.908,57.831z"/>
				</g>
			</g>
			<g>
				<g>
					<path fill="#3479BE" d="M41.535,49.749c21.244,1.744,46.055,2.742,72.586,2.742c26.525,0,51.344-0.998,72.583-2.742
						c-21.238-1.732-46.058-2.736-72.583-2.736C87.589,47.012,62.779,48.016,41.535,49.749z"/>
				</g>
			</g>
			<g>
				<g>
					<path fill="#3479BE" d="M41.242,41.678c20.543,1.738,44.553,2.734,70.223,2.734c25.664,0,49.686-0.996,70.223-2.734
						c-20.537-1.74-44.559-2.742-70.223-2.742C85.794,38.936,61.785,39.938,41.242,41.678z"/>
				</g>
			</g>
			<g>
				<g>
					<path fill="#3479BE" d="M62.322,33.04c14.982,1.734,32.496,2.736,51.221,2.736c18.709,0,36.232-1.002,51.215-2.736
						c-14.982-1.738-32.506-2.74-51.215-2.74C94.818,30.299,77.304,31.301,62.322,33.04z"/>
					<g>
						<g>
							<path fill="#3479BE" d="M70.117,22.176c12.387,1.738,26.863,2.736,42.344,2.736c15.475,0,29.961-0.998,42.35-2.736
								c-12.389-1.738-26.875-2.736-42.35-2.736C96.98,19.44,82.503,20.438,70.117,22.176z"/>
						</g>
					</g>
					<g>
						<g>
							<path fill="#3479BE" d="M67.574,13.358c10.994,1.738,23.84,2.734,37.566,2.734c13.732,0,26.578-0.996,37.567-2.734
								c-10.989-1.74-23.834-2.736-37.567-2.736C91.414,10.622,78.568,11.618,67.574,13.358z"/>
						</g>
					</g>
				</g>
			</g>
		</g>
		<g>
			<path fill="#FFEECE" d="M133.992,52.688c-0.396-3.461-1.137-6.885-2.168-10.217C121.542,9.053,85.972,3.907,85.978,3.915
				c0.113,0.098,11.641,10.207,16.846,24.752c3.941,10.643,3.008,23.172-2.906,32.926c-1.455,2.402-3.273,4.76-5.256,6.754
				c-3.953,3.953-7.936,7.008-13.209,8.998c-5.285,1.988-10.908,2.941-16.551,3.004c-4.672,0.041-9.238-0.939-13.549-2.732
				c-6.762-2.789-13.15-7.082-18.486-12.082c-1.371-1.273-2.617-2.641-3.807-4.088l0.051,0.123l-0.271-0.34
				c0,0,4.129,26.436,27.062,40.324c8.15,4.937,17.615,7.882,27.193,7.882c17.186,0,33.117-8.521,42.639-22.8
				c5.404-8.107,8.424-17.668,8.588-27.404C134.361,57.043,134.242,54.858,133.992,52.688z"/>
			<path fill="#FFD88C" d="M42.886,77.903c19.869,13.232,46.705,7.861,59.949-12.006c10.539-15.836,9.242-36.062-1.762-50.342
				c2.668,1.123,5.256,2.479,7.742,4.137c21.303,14.189,27.062,42.949,12.875,64.242c-14.195,21.291-42.951,27.05-64.248,12.865
				c-7.93-5.283-13.695-12.588-17.088-20.777C41.181,76.661,42.007,77.311,42.886,77.903z"/>
		</g>
		<g>
			<path fill="#FFFFFF" d="M188.201,154.115c-1.162-4.164-3.902-7.879-7.537-10.201c-3.18-2.057-7.152-3.064-10.959-2.76
				c-0.139-2.062-0.848-4.117-2-5.844c-0.67-1.017-1.504-1.938-2.492-2.742c1.371-3.354,1.744-7.16,1.045-10.762
				c-0.832-4.441-3.357-8.621-6.926-11.48c-3.389-2.748-7.82-4.328-12.168-4.328c-0.186,0-0.367,0.006-0.543,0.012
				c-3.613,0.078-7.211,1.229-10.194,3.256c-1.061-1.381-2.305-2.57-3.684-3.527c-0.719-0.504-1.49-0.962-2.385-1.394
				c-0.068-0.033-0.135-0.062-0.203-0.084l-0.119-0.051c-0.295-0.131-0.59-0.262-0.893-0.381c-0.125-0.045-0.24-0.09-0.359-0.129
				c-2.057-0.742-4.195-1.094-6.281-0.992c-0.096-0.396-0.199-0.832-0.295-1.342c-0.125-0.652-0.26-1.338-0.453-2.006
				c-0.408-1.523-0.965-3.023-1.66-4.457c-1.443-2.99-3.521-5.76-6.01-7.998c-2.637-2.385-5.809-4.236-9.178-5.363
				c-3.514-1.178-7.305-1.604-11.043-1.219c-5.834,0.578-11.559,3.27-15.705,7.393c-3.727,3.652-6.305,8.434-7.279,13.502
				c-0.645-0.129-1.273-0.191-1.914-0.191c-2.516,0-4.998,0.838-6.979,2.355c-1.447,1.088-2.639,2.533-3.455,4.179
				c-0.535,1.076-0.889,2.277-1.045,3.502c-3.863-0.998-7.994-0.957-11.824,0.096c-4.338,1.184-8.371,3.721-11.354,7.154
				c-2.367,2.719-4.086,5.986-4.969,9.441c-0.844,3.303-0.949,6.824-0.295,10.178c0.598,3.146,1.9,6.191,3.77,8.824
				c1.391,1.961,3.141,3.734,5.084,5.166c-2.164,0.98-4.014,2.6-5.258,4.611c-1.623,2.594-2.18,5.816-1.529,8.836
				c0.074,0.334,0.145,0.635,0.232,0.912l0.029,0.096c0.033,0.107,0.068,0.221,0.152,0.471l0.158,0.447
				c0.02,0.051,0.092,0.203,0.283,0.316l0.111,0.057H51.47h17.338h81.961h1.521h34.317l0.646-1.318l0.248-0.578
				c0.139-0.356,0.307-0.776,0.447-1.207C189.074,161.229,189.158,157.518,188.201,154.115z"/>
			<g>
				<path fill="#ADD3F0" d="M30.572,136.283c0.043,0.402,0.078,0.805,0.137,1.201c-0.049-0.34-0.068-0.687-0.1-1.031
					C30.597,136.396,30.583,136.34,30.572,136.283z"/>
				<path fill="#ADD3F0" d="M138.671,124.412c1.719,1.031,3.329,2.277,4.75,3.699c1.854,1.857,3.418,4.049,4.563,6.372
					c1.326-1.648,3.144-2.928,5.179-3.646c1.256-0.449,2.646-0.686,4.022-0.686c1.328,0,2.625,0.215,3.863,0.629
					c1.172,0.391,2.291,0.984,3.291,1.721c0.643-2.164,0.887-4.436,0.762-6.689c-0.041-0.057-0.08-0.113-0.129-0.17
					c0.031-0.311,0.049-0.629,0.062-0.939c-0.098-0.855-0.246-1.705-0.449-2.537c-0.994-4.006-3.32-7.641-6.559-10.236
					c-3.207-2.605-7.26-4.094-11.402-4.207c-0.209-0.006-0.416-0.012-0.629-0.012c-3.256,0-6.579,0.889-9.465,2.486
					c1.049,1.5,1.852,3.166,2.34,4.904C139.742,118.158,139.66,121.443,138.671,124.412z M146.734,109.838
					c7.289,0,13.195,5.902,13.195,13.186c0,1.615-0.312,3.168-0.849,4.594c-9.252-0.299-16.709-7.635-17.207-16.844
					C143.381,110.178,145.018,109.838,146.734,109.838z"/>
				<path fill="#ADD3F0" d="M112.976,107.098c0.307-0.193,0.646-0.34,0.961-0.516c-0.037,0.016-0.066,0.016-0.105,0.033
					C113.548,106.773,113.251,106.922,112.976,107.098z"/>
				<path fill="#ADD3F0" d="M137.689,115.475c-1.137-3.234-3.316-6.09-6.129-8.049c-0.289-0.205-0.59-0.391-0.889-0.578
					c-0.406-0.227-0.816-0.459-1.221-0.65c-0.494-0.244-0.992-0.459-1.498-0.664c-1.855-0.707-3.846-1.082-5.828-1.082h-0.227
					c-2.73,0.023-5.506,0.792-7.961,2.13c1.582-0.578,3.287-0.912,5.061-0.912c8.221,0,14.877,6.66,14.877,14.867
					c0,0.566-0.053,1.111-0.119,1.66c0.746,0.238,1.486,0.504,2.199,0.811c0.828,0.361,1.633,0.781,2.42,1.234
					C138.9,121.32,138.671,118.221,137.689,115.475z"/>
				<path fill="#ADD3F0" d="M188.553,157.025c0-0.697-0.213-1.303-0.352-1.982c-0.055-0.26-0.107-0.527-0.17-0.799
					c-0.125-0.486-0.258-0.984-0.453-1.428c-0.188-0.412-0.447-0.797-0.623-1.211c-0.471-1.111-0.951-2.051-1.705-3.008
					c-0.793-1.015-1.58-1.978-2.662-2.687c-0.471-0.293-0.99-0.437-1.467-0.713c-0.539-0.312-1.053-0.597-1.604-0.884
					c-0.654-0.336-1.31-0.646-1.978-0.936c-1.881-0.816-4.011-1.359-6.049-1.523c-0.642-0.057-1.298-0.022-1.919-0.221
					c-0.264-0.08-0.663-0.227-0.823-0.482c-0.146-0.231-0.177-0.645-0.271-0.922c-0.492-1.422-1.218-2.754-2.164-3.926
					c-1.488-1.846-3.533-3.279-5.769-4.027c-1.262-0.42-2.592-0.635-3.957-0.635c-1.037,0-2.071,0.125-3.069,0.381
					c-1.959,0.486-3.808,1.461-5.363,2.814c0.121,0.248,0.234,0.498,0.346,0.754c1.07,2.463,1.711,5.158,1.863,7.805
					c0.006,0.072-0.045,0.129-0.131,0.142c-0.062,0-0.119-0.039-0.125-0.103c-1.215-5.348-3.986-10.389-7.812-14.205
					c-0.436-0.441-0.893-0.861-1.363-1.275c-0.263-0.232-0.538-0.453-0.81-0.668c-0.193-0.158-0.383-0.316-0.582-0.471
					c-0.381-0.293-0.771-0.576-1.168-0.85c-0.08-0.057-0.16-0.117-0.244-0.17c-0.459-0.316-0.936-0.623-1.416-0.906
					c5.37,4.141,8.836,10.632,8.836,17.945c0,2.146-0.312,4.225-0.873,6.189c4.976,0.221,9.552,1.932,13.296,4.713
					c2.831-4.406,7.77-7.34,13.405-7.34c8.812,0,15.959,7.147,15.959,15.955c0,1.862-0.338,3.637-0.922,5.297
					c0.092-0.058,0.166-0.144,0.241-0.301c0.173-0.347,0.378-0.709,0.486-1.07c0.117-0.375,0.146-0.725,0.322-1.082
					c0.111-0.199,0.355-0.375,0.432-0.555c0.104-0.256-0.069-0.17-0.125-0.443c-0.062-0.299,0.172-0.945,0.244-1.246
					c0.154-0.605,0.379-1.137,0.461-1.75c0.09-0.572,0.023-1.172,0.043-1.75C188.559,158.646,188.553,157.842,188.553,157.025z
					 M163.137,141.461c-4.803,0-8.773-3.535-9.475-8.145c0.896-0.318,1.863-0.504,2.883-0.504c4.688,0,8.502,3.766,8.592,8.434
					C164.492,141.387,163.828,141.461,163.137,141.461z"/>
				<path fill="#ADD3F0" d="M102.333,143.523c-0.719,0-1.42,0.039-2.125,0.096c-0.004-0.262-0.021-0.516-0.021-0.781
					c0-2.77,0.51-5.416,1.418-7.857c1.9-5.565,5.623-9.864,10.334-12.526c-0.146,0.057-0.283,0.123-0.422,0.18l0.312-0.141
					c0,0-4.359,0.775-9.377,4.791c-0.799,0.641-1.609,1.365-2.43,2.182c-0.043,0.033-0.074,0.072-0.113,0.107
					c-0.402,0.402-0.803,0.826-1.201,1.272c0,0-0.006,0.006-0.012,0.018c-0.379,0.421-0.758,0.873-1.133,1.343
					c-0.057,0.067-0.113,0.137-0.17,0.211c-0.367,0.469-0.73,0.963-1.094,1.474c-0.061,0.084-0.115,0.176-0.178,0.26
					c-0.336,0.477-0.654,0.969-0.977,1.479c-0.039,0.08-0.092,0.152-0.145,0.232c-0.338,0.555-0.672,1.139-1.002,1.738
					c-0.072,0.143-0.139,0.276-0.219,0.42c-0.332,0.623-0.656,1.268-0.975,1.946c-0.141,0.062-0.283,0.147-0.422,0.211
					c-1.82,0.81-3.809,1.224-5.803,1.224c-0.441,0-0.877-0.023-1.314-0.062c-0.006,0-0.006,0-0.006,0
					c-3.033-0.277-5.787-1.49-7.986-3.348c-0.025-0.016-0.039-0.027-0.062-0.045c-3.488-2.838-5.709-7.17-5.709-12.014
					c0-5.08,2.447-9.578,6.225-12.404c0.295-0.078,0.527-0.164,0.607-0.254c-4.129,0.871-7.93,2.961-10.723,5.896
					c-2.855,2.961-4.791,6.898-5.461,11.084c-0.01,0.062-0.066,0.113-0.129,0.113c-0.08-0.006-0.131-0.057-0.137-0.125
					c-0.119-2.051,0.188-4.18,0.889-6.168c0.783-2.227,2.062-4.305,3.686-6.004c0.229-0.232,0.479-0.441,0.717-0.662
					c-2.623-2.227-5.752-3.842-9.061-4.68c-0.076,0.018-0.166,0.018-0.25-0.006c-0.285-0.006-0.613-0.119-0.914-0.197
					c-0.48-0.096-0.969-0.182-1.461-0.244c-0.295-0.033-0.561-0.033-0.855-0.039c-0.125,0-0.244-0.039-0.357-0.086
					c-0.576-0.045-1.146-0.072-1.721-0.072c-2.172,0-4.316,0.305-6.373,0.922c-3.936,1.168-7.602,3.535-10.32,6.662
					c-2.162,2.48-3.754,5.453-4.609,8.592c-0.734,2.64-0.926,5.443-0.646,8.195c0.031,0.16,0.062,0.323,0.1,0.487
					c-0.006,0.183,0,0.361,0,0.543c0.008,0.052,0.008,0.097,0.02,0.144c0.453,2.935,1.547,5.834,3.16,8.394
					c1.395,2.215,3.227,4.209,5.293,5.83c2.088-0.861,4.461-1.14,6.682-0.799c0.027-0.566,0.096-1.128,0.203-1.685
					c0.4-1.992,1.354-3.914,2.686-5.42c1.195-1.371,2.699-2.425,4.338-3.06c0.068-0.022,0.137,0.006,0.168,0.062
					c0.031,0.056,0.008,0.131-0.043,0.17c-2.881,2.072-4.922,5.188-5.59,8.559c-0.697,3.394-0.037,7.057,1.807,10.064
					c0.033,0.057,0.02,0.131-0.031,0.17c-0.02,0.018-0.055,0.029-0.076,0.029c-0.039,0-0.068-0.012-0.096-0.035
					c-1.273-1.223-2.244-2.787-2.811-4.508c-0.424-1.291-0.594-2.65-0.555-4.004c-0.02,0-0.029,0-0.039,0l0.039-0.041
					c0,0-0.518-0.013-1.322,0.057c-0.678,0.045-1.346,0.137-2.006,0.283c-3.842,0.736-9.643,3.088-9.619,10.563
					c-0.041,0.89,0.021,1.802,0.209,2.679c0.021,0.112,0.062,0.262,0.107,0.432c0.045,0.176,0.102,0.34,0.17,0.492l34.242,1.229
					c-0.168-0.82-0.275-1.658-0.275-2.525c0-7.188,5.82-13.01,13-13.01c4.514,0,8.484,2.305,10.824,5.793
					c2.701-6.848,9.359-11.695,17.162-11.695c1.102,0,2.166,0.113,3.211,0.296c0.238-0.08,0.486-0.148,0.725-0.222
					C109.263,144.316,105.896,143.523,102.333,143.523z M108.937,123.783l0.494-0.221c-0.256,0.125-0.504,0.266-0.76,0.396
					L108.937,123.783z M55.431,141.172c-0.035-0.018-0.07-0.018-0.113-0.023c0.072-0.057,0.156-0.106,0.236-0.157
					C55.509,141.047,55.468,141.109,55.431,141.172z M53.419,134.018c-2.941,1.275-5.49,3.258-7.461,5.728
					c-4.656-1.744-7.975-6.229-7.975-11.492c0-6.791,5.496-12.291,12.283-12.291c3.842,0,7.27,1.762,9.523,4.525
					C56.466,124.203,54.212,128.869,53.419,134.018z"/>
				<path fill="#ADD3F0" d="M121.824,103.211c-0.193-0.566-0.363-1.145-0.521-1.715c-0.158-0.613-0.326-1.242-0.537-1.848
					c-0.482-1.438-1.1-2.832-1.83-4.162c-1.504-2.754-3.568-5.273-5.982-7.301c-2.525-2.131-5.521-3.779-8.66-4.775
					c-2.451-0.781-5.018-1.172-7.629-1.172c-0.861,0-1.732,0.051-2.592,0.135c-5.434,0.539-10.633,2.9-14.639,6.662
					c-3.721,3.455-6.383,8.082-7.492,13.027c-0.018,0.084-0.062,0.158-0.123,0.209c-0.387,1.738-0.598,3.533-0.625,5.341
					c0,0.066-0.061,0.123-0.125,0.129c-0.074,0-0.137-0.057-0.137-0.129c-0.104-1.83-0.006-3.666,0.277-5.466
					c-2.893,0.152-5.715,1.156-7.977,2.876c-2.229,1.678-3.969,4.078-4.941,6.781c0.014,0.01,0.039,0.016,0.057,0.027
					c3.383,1.043,6.498,2.9,9.006,5.381c0.537-0.465,1.105-0.895,1.693-1.309c-0.566,0.158-1.133,0.352-1.678,0.602
					c-0.934-1.586-2.316-2.68-3.924-3.428c0.746-0.68,1.645-1.258,2.342-1.971c0.416-0.432,0.891-0.787,1.4-1.082
					c0.703,1.852,2.006,3.545,3.541,4.842c0.51-0.271,1.039-0.525,1.58-0.74c1.945-0.783,4.084-1.186,6.119-1.145
					c0.01,0,0.021,0.006,0.031,0.012c0.025-0.018,0.053-0.035,0.074-0.047c-0.141-0.436-0.367-1.619-0.373-1.676
					c-0.092-0.43-0.162-0.861-0.225-1.297c-0.115-0.885-0.178-1.785-0.178-2.674c0-11.169,9.051-20.214,20.215-20.214
					c10.045,0,18.357,7.334,19.92,16.941C119.162,103.596,120.484,103.313,121.824,103.211z"/>
			</g>
			<path fill="#231F20" d="M189.643,153.713c-1.254-4.516-4.229-8.547-8.162-11.057c-3.045-1.965-6.742-3.053-10.461-3.053
				c-0.332-1.818-1.051-3.599-2.062-5.121c-0.565-0.851-1.228-1.637-1.983-2.351c1.17-3.365,1.438-7.092,0.752-10.598
				c-0.892-4.787-3.613-9.295-7.447-12.377c-3.648-2.957-8.428-4.656-13.113-4.656l-0.574,0.012
				c-3.426,0.068-6.874,1.054-9.844,2.787c-0.949-1.059-2.002-2-3.141-2.787c-0.791-0.555-1.631-1.053-2.617-1.535
				c-0.113-0.051-0.219-0.09-0.334-0.135c-0.32-0.143-0.637-0.283-0.992-0.42l-0.367-0.135c-1.863-0.67-3.744-1.037-5.59-1.088
				c-0.012-0.041-0.018-0.08-0.029-0.113c-0.133-0.703-0.271-1.428-0.475-2.119c-0.438-1.625-1.029-3.217-1.762-4.719
				c-1.521-3.166-3.717-6.094-6.35-8.461c-2.787-2.521-6.146-4.48-9.703-5.67c-3.725-1.252-7.736-1.688-11.668-1.285
				c-6.174,0.605-12.229,3.461-16.607,7.811c-3.596,3.523-6.186,8.059-7.396,12.908c-3.062-0.199-6.197,0.77-8.621,2.627
				c-1.637,1.23-2.984,2.861-3.902,4.712c-0.369,0.742-0.662,1.547-0.875,2.373c-3.639-0.68-7.488-0.525-11.039,0.447
				c-4.631,1.258-8.924,3.965-12.09,7.619c-2.527,2.889-4.354,6.367-5.293,10.049c-0.904,3.527-1.018,7.277-0.32,10.834
				c0.637,3.348,2.027,6.6,4.021,9.408c1.039,1.467,2.285,2.85,3.656,4.078c-0.131-0.125-2.014,1.666-2.189,1.848
				c-2.078,2.162-3.668,5.221-3.279,8.297c0.166,1.314,0.561,2.674,1.045,3.902c0.125,0.318,0.43,1.037,0.789,1.348l0.068,0.199
				c0.02,0.051,0.092,0.203,0.283,0.316l0.111,0.057h36.729l-0.17-0.475H68.14c-0.023-0.047-0.062-0.086-0.117-0.086l-34.621-1.246
				c-0.068-0.152-0.125-0.316-0.17-0.492c-0.045-0.17-0.086-0.318-0.107-0.432c-0.188-0.877-0.25-1.789-0.209-2.679
				c-0.023-7.478,5.777-9.827,9.619-10.563c0.66-0.146,1.328-0.238,2.006-0.283c0.805-0.068,1.322-0.057,1.322-0.057l-0.039,0.041
				c0.01,0,0.02,0,0.039,0c-0.039,1.354,0.131,2.713,0.555,4.004c0.566,1.721,1.537,3.285,2.811,4.508
				c0.027,0.022,0.057,0.035,0.096,0.035c0.021,0,0.057-0.012,0.076-0.029c0.051-0.039,0.064-0.113,0.031-0.17
				c-1.844-3.008-2.504-6.672-1.807-10.064c0.668-3.371,2.709-6.486,5.59-8.559c0.051-0.039,0.074-0.113,0.043-0.17
				c-0.031-0.057-0.1-0.086-0.168-0.062c-1.639,0.635-3.143,1.688-4.338,3.059c-1.332,1.507-2.285,3.429-2.686,5.421
				c-0.107,0.557-0.176,1.116-0.203,1.684c-2.221-0.34-4.594-0.062-6.682,0.8c-2.066-1.621-3.898-3.615-5.293-5.83
				c-1.613-2.56-2.707-5.459-3.16-8.394c-0.492-3.108-0.311-6.351,0.527-9.369c0.855-3.139,2.447-6.111,4.609-8.592
				c2.719-3.127,6.385-5.494,10.32-6.662c2.057-0.617,4.201-0.922,6.373-0.922c1.801,0,3.584,0.215,5.305,0.633l0,0
				c0,0.006,0.004,0.006,0.004,0.006c0.084,0.023,0.174,0.023,0.25,0.006c3.309,0.838,6.438,2.453,9.061,4.68
				c-0.238,0.221-0.488,0.43-0.717,0.662c-1.623,1.699-2.902,3.777-3.686,6.004c-0.701,1.988-1.008,4.117-0.889,6.168
				c0.006,0.068,0.057,0.119,0.125,0.125c0.006,0,0.006,0,0.012,0c0.062,0,0.119-0.051,0.129-0.113
				c0.67-4.186,2.605-8.123,5.461-11.084c2.814-2.963,6.666-5.07,10.842-5.932c0.061-0.012,0.107-0.068,0.104-0.141
				c-0.006-0.062-0.062-0.113-0.131-0.113c-2.035-0.041-4.174,0.361-6.119,1.145c-1.812,0.713-3.494,1.783-4.951,3.098
				c-0.004,0-0.004-0.006-0.004-0.012c-2.508-2.48-5.623-4.338-9.006-5.381c-0.018-0.012-0.043-0.018-0.057-0.027
				c0.973-2.703,2.713-5.104,4.941-6.781c2.262-1.72,5.084-2.724,7.977-2.876c-0.283,1.801-0.381,3.636-0.277,5.466
				c0,0.072,0.062,0.129,0.131,0.129c0.006,0,0.006,0,0.006,0c0.064-0.006,0.125-0.062,0.125-0.129
				c0.027-1.809,0.238-3.603,0.625-5.341c0.061-0.051,0.105-0.125,0.123-0.209c1.109-4.945,3.771-9.572,7.492-13.027
				c4.006-3.762,9.205-6.123,14.639-6.662c0.859-0.084,1.73-0.135,2.592-0.135c2.611,0,5.178,0.391,7.629,1.172
				c3.139,0.996,6.135,2.645,8.66,4.775c2.414,2.027,4.479,4.547,5.982,7.301c0.73,1.33,1.348,2.725,1.83,4.162
				c0.211,0.605,0.379,1.234,0.537,1.848c0.158,0.57,0.328,1.148,0.521,1.715c-3.314,0.25-6.512,1.553-9.004,3.669
				c-0.053,0.053-0.062,0.125-0.02,0.182c0.039,0.057,0.119,0.068,0.176,0.035c2.662-1.684,5.834-2.623,8.922-2.646h0.227
				c1.982,0,3.973,0.375,5.828,1.082c0.506,0.205,1.004,0.42,1.498,0.664c0.404,0.191,0.814,0.424,1.221,0.65
				c0.299,0.188,0.6,0.373,0.889,0.578c2.812,1.959,4.992,4.814,6.129,8.049c0.982,2.746,1.211,5.846,0.686,8.768
				c-0.787-0.453-1.592-0.873-2.42-1.234c-2.463-1.07-5.16-1.723-7.812-1.875c-0.062,0-0.119,0.039-0.133,0.107
				c-0.006,0.068,0.033,0.131,0.102,0.146c5.338,1.225,10.379,4.012,14.186,7.846c3.826,3.816,6.599,8.857,7.812,14.206
				c0.007,0.062,0.062,0.102,0.125,0.102c0.013,0,0.019,0,0.019,0c0.067-0.012,0.119-0.068,0.113-0.141
				c-0.152-2.646-0.793-5.342-1.863-7.806c-0.11-0.256-0.226-0.506-0.346-0.754c1.557-1.354,3.403-2.327,5.362-2.813
				c0.998-0.256,2.033-0.381,3.07-0.381c1.365,0,2.695,0.215,3.957,0.635c2.234,0.748,4.279,2.182,5.768,4.027
				c1.259,1.547,2.138,3.409,2.574,5.403c-3.463,0.412-6.76,1.879-9.303,4.156c-0.051,0.045-0.057,0.125-0.012,0.182
				c0,0,0.006-0.006,0.012,0c2.975-2.182,6.645-3.487,10.637-3.487c9.887,0,17.91,7.924,17.91,17.705c0,2.6-0.588,5.063-1.604,7.295
				l0.081,0.106l0.111-0.231h1.646l0.528-1.115c0.156-0.379,0.332-0.832,0.474-1.279
				C190.586,161.432,190.682,157.404,189.643,153.713z M164.342,132.5c-1-0.736-2.119-1.33-3.291-1.721
				c-1.238-0.414-2.535-0.629-3.863-0.629c-1.377,0-2.768,0.236-4.022,0.686c-2.035,0.719-3.853,1.998-5.179,3.646
				c-1.146-2.322-2.711-4.515-4.563-6.372c-1.422-1.422-3.032-2.668-4.75-3.699c0.988-2.969,1.07-6.254,0.201-9.312
				c-0.488-1.738-1.291-3.404-2.34-4.904c2.887-1.598,6.209-2.486,9.465-2.486c0.213,0,0.42,0.006,0.629,0.012
				c4.144,0.113,8.195,1.602,11.401,4.207c3.238,2.596,5.564,6.23,6.56,10.236C165.426,125.527,165.336,129.164,164.342,132.5z"/>
		</g>
		<g>
			<g>
				<path fill="#FFFFFF" d="M191.967,136.822c0.148,0.074,0.307,0.148,0.457,0.232c0.002-0.027,0.002-0.062,0.008-0.091
					C192.279,136.92,192.127,136.869,191.967,136.822z"/>
			</g>
			<g>
				<path fill="#FFFFFF" d="M180.021,134.252c3.453,0,6.774,0.578,9.873,1.619c-2.82-1.139-5.908-1.771-9.138-1.771
					c-1.366,0-2.698,0.117-3.998,0.334C177.832,134.314,178.918,134.252,180.021,134.252z"/>
			</g>
			<path fill="#FFFFFF" d="M251.301,170.768c-1.248-4.492-4.217-8.508-8.145-11.01c-3.43-2.221-7.717-3.309-11.828-2.98
				c-0.15-2.221-0.91-4.45-2.152-6.313c-0.727-1.1-1.627-2.09-2.691-2.957c1.474-3.625,1.884-7.731,1.121-11.629
				c-0.893-4.785-3.625-9.307-7.487-12.398c-3.646-2.957-8.438-4.662-13.125-4.662c-0.195,0-0.396,0-0.586,0.012
				c-3.904,0.08-7.789,1.326-11.007,3.518c-1.162-1.5-2.489-2.775-3.983-3.812c-0.769-0.543-1.608-1.041-2.574-1.506
				c-0.067-0.039-0.143-0.068-0.219-0.096l-0.121-0.051c-0.319-0.148-0.642-0.283-0.976-0.414c-0.131-0.045-0.262-0.096-0.385-0.143
				c-2.215-0.793-4.524-1.178-6.787-1.064c-0.102-0.43-0.211-0.9-0.315-1.443c-0.138-0.715-0.276-1.445-0.485-2.176
				c-0.443-1.643-1.043-3.262-1.798-4.809c-1.551-3.234-3.795-6.224-6.483-8.642c-2.846-2.566-6.273-4.572-9.912-5.789
				c-3.795-1.275-7.891-1.729-11.926-1.314c-6.293,0.617-12.476,3.529-16.961,7.98c-4.027,3.941-6.803,9.107-7.855,14.585
				c-0.703-0.148-1.383-0.211-2.068-0.211c-2.719,0-5.389,0.9-7.533,2.543c-1.566,1.18-2.855,2.73-3.738,4.51
				c-0.578,1.172-0.963,2.469-1.121,3.789c-4.174-1.082-8.639-1.031-12.773,0.102c-4.689,1.279-9.045,4.021-12.26,7.727
				c-2.555,2.938-4.412,6.463-5.365,10.194c-0.916,3.568-1.031,7.373-0.324,10.994c0.648,3.387,2.062,6.684,4.072,9.525
				c1.504,2.113,3.393,4.027,5.494,5.58c-2.342,1.053-4.338,2.803-5.672,4.973c-1.764,2.805-2.367,6.287-1.662,9.545
				c0.078,0.361,0.164,0.68,0.252,0.984l0.033,0.102c0.037,0.125,0.072,0.238,0.168,0.51l0.17,0.482
				c0.018,0.057,0.1,0.221,0.309,0.34l0.121,0.062h20.936h18.725h88.502h1.643h37.054l0.69-1.416l0.277-0.629
				c0.158-0.385,0.34-0.832,0.488-1.303C252.238,178.453,252.336,174.443,251.301,170.768z"/>
			<g>
				<path fill="#ADD3F0" d="M226.365,140.205c-0.045-0.068-0.09-0.125-0.145-0.17c0.034-0.346,0.055-0.686,0.069-1.025
					c-0.026-0.193-0.058-0.379-0.082-0.572c-0.041-0.266-0.069-0.543-0.121-0.811c-0.08-0.453-0.176-0.906-0.282-1.365
					c-1.076-4.313-3.587-8.24-7.08-11.051c-3.468-2.809-7.845-4.418-12.314-4.541c-0.229-0.006-0.453-0.006-0.68-0.006
					c-3.517,0-7.103,0.951-10.224,2.684c1.14,1.621,2.007,3.416,2.531,5.291c0.93,3.309,0.851,6.859-0.228,10.052
					c1.857,1.117,3.599,2.466,5.135,4c2.003,2.017,3.687,4.373,4.933,6.882c1.431-1.777,3.388-3.166,5.59-3.937
					c1.354-0.488,2.859-0.742,4.345-0.742c1.434,0,2.836,0.228,4.172,0.681c1.27,0.42,2.473,1.059,3.561,1.852
					c0.164-0.549,0.291-1.098,0.406-1.657c0.023-0.099,0.041-0.193,0.057-0.289C226.338,143.75,226.457,141.967,226.365,140.205z
					 M220.637,141.91c-9.988-0.33-18.043-8.248-18.582-18.188c1.627-0.646,3.394-1.014,5.246-1.014
					c7.867,0,14.238,6.371,14.238,14.237C221.539,138.691,221.211,140.357,220.637,141.91z"/>
				<path fill="#ADD3F0" d="M81.15,151.963c-0.006-0.084-0.018-0.176-0.029-0.26v-0.018
					C81.126,151.775,81.144,151.873,81.15,151.963z"/>
				<path fill="#ADD3F0" d="M192.643,134.518c0,0.605-0.057,1.201-0.125,1.785v0.006c0.801,0.254,1.599,0.537,2.367,0.871
					c0.889,0.391,1.762,0.838,2.611,1.332c0.566-3.162,0.316-6.498-0.736-9.471c-1.232-3.484-3.58-6.57-6.615-8.689
					c-0.317-0.221-0.641-0.43-0.963-0.617c-0.438-0.248-0.879-0.498-1.32-0.719c-0.532-0.256-1.069-0.488-1.618-0.715
					c-2.007-0.746-4.146-1.16-6.293-1.16h-0.25c-3.328,0.027-6.752,1.043-9.63,2.855c0.302-0.182,0.611-0.346,0.925-0.51
					c1.743-0.658,3.618-1.025,5.584-1.025C185.453,118.461,192.643,125.654,192.643,134.518z"/>
				<path fill="#ADD3F0" d="M177.383,116.133c0.074-0.012,0.152-0.023,0.227-0.041c0.666-0.129,1.336-0.236,2.017-0.283
					c-0.209-0.617-0.394-1.246-0.556-1.863c-0.178-0.656-0.354-1.342-0.588-1.992c-0.521-1.547-1.188-3.059-1.979-4.492
					c-1.619-2.974-3.855-5.699-6.459-7.884c-2.727-2.299-5.961-4.078-9.346-5.148c-2.654-0.85-5.424-1.27-8.238-1.27
					c-0.93,0-1.877,0.047-2.805,0.143c-5.875,0.578-11.483,3.133-15.811,7.199c-4.018,3.727-6.891,8.722-8.092,14.062
					c-0.016,0.092-0.064,0.176-0.133,0.227c-0.416,1.875-0.643,3.818-0.67,5.768c0,0.072-0.066,0.135-0.143,0.135
					c-0.074,0-0.141-0.057-0.141-0.129c-0.107-1.979-0.01-3.965,0.303-5.914c-3.129,0.164-6.172,1.252-8.613,3.109
					c-2.412,1.818-4.281,4.4-5.34,7.324c0.021,0.012,0.045,0.012,0.059,0.027c0.498,0.453,1.85,0.646,2.496,0.924
					c0.877,0.379,1.727,0.816,2.549,1.303c1.688,0.986,3.275,2.176,4.652,3.562c1.096-0.499,2.002-1.581,3.135-2.152
					c2.814-1.41,5.631-2.396,8.891-2.379c0.031-0.018,0.053-0.033,0.076-0.051c-0.15-0.477-0.4-1.75-0.408-1.807
					c-0.09-0.465-0.168-0.93-0.23-1.404c-0.129-0.957-0.191-1.926-0.191-2.889c0-12.059,9.773-21.824,21.827-21.824
					c10.849,0,19.817,7.917,21.512,18.289C176.037,116.461,176.703,116.273,177.383,116.133z"/>
				<path fill="#ADD3F0" d="M158.58,159.338c-0.777,0-1.537,0.033-2.291,0.102c-0.01-0.276-0.016-0.565-0.016-0.85
					c0-2.984,0.537-5.84,1.518-8.484c2.057-6.01,6.072-10.653,11.152-13.524c-0.158,0.062-0.295,0.135-0.453,0.196l0.346-0.157
					c0,0-4.705,0.838-10.125,5.178c-0.867,0.688-1.748,1.479-2.631,2.354c-0.039,0.039-0.082,0.08-0.115,0.119
					c-0.438,0.437-0.871,0.89-1.303,1.377c0,0-0.006,0.006-0.01,0.011c-0.412,0.459-0.814,0.94-1.217,1.45
					c-0.062,0.078-0.125,0.152-0.188,0.232c-0.401,0.504-0.793,1.031-1.185,1.586c-0.067,0.09-0.125,0.191-0.199,0.283
					c-0.35,0.51-0.7,1.047-1.041,1.598c-0.055,0.084-0.106,0.164-0.157,0.248c-0.371,0.603-0.729,1.229-1.086,1.887
					c-0.076,0.142-0.158,0.296-0.233,0.437c-0.363,0.687-0.714,1.377-1.054,2.106c-0.16,0.08-0.306,0.164-0.459,0.228
					c-1.967,0.873-4.112,1.33-6.267,1.33c-0.475,0-0.951-0.033-1.423-0.078l0,0c-3.273-0.289-6.25-1.598-8.629-3.606
					c-0.023-0.019-0.045-0.035-0.068-0.047c-3.758-3.074-6.168-7.742-6.168-12.978c0-5.487,2.65-10.342,6.729-13.395
					c0.322-0.086,0.572-0.176,0.654-0.277c-0.025,0.006-0.051,0.018-0.082,0.021c-1.637,0.346-3.234,0.885-4.746,1.576
					c0,0.006-0.006,0.006-0.012,0.006c-0.504,0.23-1.002,0.48-1.486,0.746c-0.043,0.023-0.088,0.057-0.133,0.074
					c-0.438,0.25-0.879,0.504-1.299,0.781c-0.107,0.074-0.211,0.154-0.322,0.227c-0.346,0.238-0.701,0.482-1.037,0.73
					c-0.191,0.154-0.367,0.312-0.555,0.465c-0.238,0.199-0.486,0.385-0.719,0.596c-0.414,0.367-0.811,0.746-1.188,1.148
					c-3.078,3.195-5.174,7.449-5.898,11.975c-0.012,0.062-0.068,0.113-0.145,0.113s-0.133-0.062-0.137-0.137
					c-0.127-2.203,0.201-4.508,0.955-6.654c0.844-2.408,2.223-4.645,3.988-6.475c0.24-0.26,0.504-0.492,0.764-0.726
					c-2.123-1.801-4.553-3.234-7.143-4.221c-0.863-0.328-1.74-0.605-2.633-0.832c-0.092,0.018-0.182,0.018-0.271-0.006
					c-0.312,0-0.666-0.125-0.986-0.215c0,0-0.006,0-0.012,0c-0.521-0.107-1.039-0.193-1.562-0.266c-0.004,0-0.01,0-0.01,0
					c-0.316-0.035-0.607-0.035-0.92-0.035c-0.135,0-0.264-0.051-0.387-0.096c-0.623-0.051-1.238-0.084-1.865-0.084
					c-2.342,0-4.658,0.34-6.873,1.002c-4.254,1.264-8.215,3.816-11.146,7.188c-2.33,2.687-4.055,5.896-4.984,9.283
					c-0.221,0.805-0.402,1.625-0.543,2.459c-0.062,0.418-0.092,0.855-0.137,1.285c-0.045,0.408-0.107,0.811-0.131,1.223
					c-0.039,0.572-0.021,1.14-0.01,1.718c0.006,0.266-0.018,0.538-0.006,0.805c0.02,0.459,0.088,0.906,0.129,1.365
					c0.035,0.176,0.074,0.346,0.117,0.521c-0.012,0.18-0.006,0.361,0,0.537c0.008,0.068,0.008,0.143,0.02,0.215
					c0.486,3.16,1.666,6.293,3.41,9.062c1.506,2.385,3.477,4.537,5.715,6.281c2.254-0.928,4.814-1.234,7.211-0.859
					c0.039-0.613,0.102-1.219,0.227-1.818c0.43-2.146,1.457-4.227,2.895-5.852c1.291-1.479,2.914-2.617,4.689-3.303
					c0.068-0.027,0.141,0.006,0.17,0.068c0.039,0.062,0.021,0.143-0.035,0.188c-3.115,2.23-5.318,5.602-6.037,9.238
					c-0.754,3.658-0.039,7.623,1.951,10.869c0.037,0.062,0.02,0.141-0.033,0.186c-0.023,0.018-0.055,0.029-0.088,0.029
					c-0.041,0-0.072-0.012-0.1-0.039c-1.373-1.326-2.422-3.002-3.039-4.865c-0.453-1.4-0.641-2.867-0.6-4.328
					c-0.018,0-0.023,0-0.041,0l0.041-0.045c0,0-0.557-0.006-1.428,0.062c-0.73,0.045-1.451,0.151-2.152,0.305
					c-4.154,0.799-10.422,3.342-10.4,11.402c-0.041,0.975,0.025,1.948,0.227,2.905c0.029,0.123,0.062,0.271,0.113,0.459
					c0.049,0.19,0.117,0.373,0.186,0.537l36.977,1.319c-0.176-0.885-0.293-1.791-0.293-2.729c0-7.748,6.291-14.041,14.041-14.041
					c4.873,0,9.165,2.486,11.678,6.252c2.93-7.391,10.119-12.625,18.539-12.625c1.184,0,2.34,0.119,3.467,0.318
					c0.254-0.093,0.521-0.164,0.787-0.25C166.057,160.193,162.418,159.338,158.58,159.338z M165.709,138.018l0.533-0.235
					c-0.283,0.135-0.545,0.286-0.816,0.43L165.709,138.018z M97.763,156.262c-5.359-2.004-9.176-7.152-9.176-13.219
					c0-7.801,6.322-14.133,14.125-14.133c4.418,0,8.357,2.033,10.945,5.205c-3.809,4.271-6.41,9.646-7.322,15.564
					C102.962,151.148,100.025,153.43,97.763,156.262z M107.929,156.789c-0.039-0.012-0.084-0.012-0.121-0.023
					c0.082-0.057,0.172-0.106,0.254-0.176C108.017,156.664,107.974,156.727,107.929,156.789z M108.937,171.697
					c-2.656-4.713-2.26-10.406,2.34-14.885c1.502-1.457,3.33-2.029,5.143-1.869c1.539,2.672,3.705,4.865,6.266,6.688
					C116.578,162.441,111.47,166.332,108.937,171.697z"/>
				<path fill="#ADD3F0" d="M203.439,167.635c5.385,1.824,9.967,5.381,13.076,10.021c-0.164-0.873-0.25-1.762-0.25-2.687
					c0-8.071,6.543-14.612,14.612-14.612c8.065,0,14.613,6.541,14.613,14.612c0,3.291-1.107,6.314-2.938,8.751
					c0.629-0.017,1.262-0.039,1.893-0.062c0.391-0.013,0.781-0.023,1.178-0.041l0.465-0.017c0.221-0.006,0.492-0.041,0.754-0.022
					l1.354-0.052l0.402-0.963c0.113-0.301,0.248-0.657,0.365-1.024v-0.006c0.037-0.283,0.146-0.556,0.234-0.839
					c0.037-0.118,0.07-0.237,0.1-0.368c0.059-0.222,0.104-0.459,0.156-0.688c0.035-0.183,0.078-0.375,0.107-0.562
					c0.045-0.236,0.065-0.475,0.096-0.719c0.025-0.188,0.057-0.379,0.074-0.566c0.021-0.248,0.031-0.486,0.041-0.736
					c0.01-0.188,0.028-0.367,0.028-0.555c0.007-0.256,0-0.51-0.008-0.766c-0.006-0.174,0-0.355-0.012-0.531
					c-0.011-0.262-0.037-0.521-0.062-0.775c-0.023-0.176-0.035-0.346-0.052-0.521c-0.035-0.271-0.086-0.552-0.125-0.822
					c-0.039-0.151-0.056-0.305-0.082-0.453c-0.082-0.424-0.188-0.85-0.303-1.258c-1.103-3.976-3.711-7.572-7.146-9.877
					c-0.474-0.317-0.947-0.604-1.441-0.879c-0.129-0.065-0.254-0.123-0.379-0.187c-0.385-0.199-0.769-0.381-1.16-0.545
					c-0.119-0.057-0.25-0.106-0.377-0.152c-0.5-0.202-1-0.385-1.51-0.538c-0.808-0.242-1.631-0.425-2.465-0.55
					c-1.695-0.254-3.438-0.391-5.148-0.188c-0.795,0.104-1.586,0.25-2.361,0.453c-0.791,0.205-1.568,0.453-2.326,0.766
					c-1.518,0.605-2.959,1.416-4.256,2.406c-0.064,0.047-0.146,0.035-0.195-0.027c-0.057-0.057-0.049-0.143,0.015-0.192
					c2.748-2.457,6.307-4.037,10.041-4.484c-0.47-2.157-1.42-4.17-2.779-5.84c-1.61-1.994-3.819-3.535-6.226-4.34
					c-1.366-0.459-2.803-0.695-4.271-0.695c-1.127,0-2.241,0.142-3.315,0.406c-2.121,0.533-4.107,1.586-5.793,3.049
					c0.127,0.267,0.252,0.543,0.373,0.81c1.151,2.662,1.85,5.574,2.014,8.434c0,0.074-0.051,0.143-0.125,0.148
					c-0.006,0-0.006,0-0.01,0c0,0-0.006,0.006-0.01,0.006c-0.062,0-0.125-0.047-0.14-0.113c-1.305-5.771-4.305-11.221-8.435-15.34
					c-0.473-0.48-0.971-0.939-1.479-1.381c-0.277-0.244-0.566-0.478-0.852-0.709c-0.219-0.18-0.438-0.355-0.658-0.531
					c-0.398-0.307-0.812-0.607-1.227-0.895c-0.097-0.062-0.191-0.132-0.293-0.199c-0.5-0.34-1-0.668-1.521-0.969l0,0
					c5.795,4.469,9.545,11.477,9.545,19.37c0,3.201-0.621,6.261-1.748,9.062C203.488,167.646,203.465,167.641,203.439,167.635z
					 M216.572,147.703c5.072,0,9.188,4.057,9.289,9.109c-0.703,0.146-1.416,0.227-2.158,0.227c-5.188,0-9.479-3.812-10.234-8.791
					C214.438,147.896,215.484,147.703,216.572,147.703z"/>
			</g>
			<path fill="#231F20" d="M252.516,170.434c-1.33-4.791-4.496-9.074-8.67-11.735c-3.32-2.152-7.447-3.324-11.402-3.234
				c-0.317-2.021-1.088-4.01-2.213-5.696c-0.625-0.945-1.385-1.836-2.25-2.636c1.297-3.641,1.607-7.687,0.871-11.479
				c-0.951-5.08-3.842-9.874-7.936-13.152c-3.873-3.143-8.949-4.943-13.924-4.943c-0.221,0-0.438,0-0.617,0.006
				c-3.738,0.084-7.502,1.178-10.711,3.109c-1.057-1.219-2.24-2.283-3.521-3.172c-0.832-0.59-1.731-1.117-2.688-1.576
				c-0.125-0.066-0.256-0.123-0.427-0.186c-0.346-0.158-0.686-0.307-1.151-0.488l-0.303-0.113c-2.076-0.742-4.162-1.133-6.207-1.154
				c-0.031-0.143-0.062-0.289-0.095-0.453c-0.139-0.73-0.287-1.479-0.498-2.215c-0.469-1.734-1.102-3.428-1.879-5.029
				c-1.625-3.382-3.977-6.507-6.778-9.029c-2.976-2.689-6.558-4.781-10.353-6.049c-3.967-1.338-8.25-1.807-12.455-1.377
				c-6.578,0.646-13.036,3.688-17.721,8.338c-3.904,3.822-6.703,8.779-7.957,14.058c-3.285-0.289-6.734,0.73-9.375,2.752
				c-1.721,1.291-3.146,3.008-4.105,4.957c-0.436,0.877-0.775,1.834-1.006,2.82c-3.961-0.805-8.189-0.658-12.096,0.408
				c-4.922,1.348-9.498,4.23-12.873,8.121c-2.691,3.088-4.641,6.791-5.643,10.705c-0.957,3.756-1.076,7.748-0.34,11.543
				c0.68,3.564,2.16,7.029,4.283,10.021c1.199,1.688,2.645,3.272,4.248,4.653c-1.809,1.146-3.354,2.697-4.467,4.504
				c-1.932,3.076-2.598,6.897-1.826,10.483c0.092,0.392,0.18,0.742,0.303,1.146c0.039,0.142,0.082,0.283,0.195,0.595l0.17,0.485
				h24.752v-0.017h16.527l-0.184-0.504h-0.547c-0.018-0.057-0.062-0.104-0.119-0.104l-37.391-1.336
				c-0.068-0.164-0.137-0.346-0.186-0.537c-0.051-0.188-0.084-0.336-0.113-0.459c-0.201-0.957-0.268-1.932-0.227-2.906
				c-0.021-8.061,6.246-10.604,10.4-11.401c0.701-0.152,1.422-0.261,2.152-0.306c0.871-0.067,1.428-0.062,1.428-0.062
				s-0.041,0.045,0,0.045c-0.041,1.461,0.146,2.929,0.6,4.328c0.617,1.862,1.666,3.539,3.039,4.864
				c0.027,0.027,0.059,0.039,0.1,0.039c0.033,0,0.064-0.012,0.088-0.028c0.053-0.045,0.07-0.123,0.033-0.187
				c-1.99-3.246-2.705-7.211-1.951-10.869c0.719-3.637,2.922-7.008,6.037-9.237c0.057-0.045,0.074-0.125,0.035-0.188
				c-0.029-0.062-0.102-0.096-0.17-0.068c-1.775,0.687-3.398,1.824-4.689,3.304c-1.438,1.625-2.465,3.705-2.895,5.853
				c-0.125,0.6-0.188,1.205-0.227,1.817c-2.396-0.375-4.957-0.067-7.211,0.858c-2.238-1.743-4.209-3.896-5.715-6.28
				c-1.744-2.771-2.924-5.901-3.41-9.062c-0.537-3.369-0.34-6.869,0.561-10.127c0.93-3.388,2.654-6.599,4.984-9.283
				c2.932-3.372,6.893-5.924,11.146-7.188c2.215-0.662,4.531-1.002,6.873-1.002c1.947,0,3.873,0.236,5.742,0.695
				c0.09,0.023,0.18,0.023,0.271,0.006c3.568,0.906,6.949,2.65,9.775,5.053c-0.26,0.231-0.523,0.466-0.764,0.726
				c-1.766,1.83-3.145,4.065-3.988,6.475c-0.754,2.146-1.082,4.451-0.955,6.654c0.004,0.074,0.061,0.137,0.137,0.137
				s0.133-0.051,0.145-0.113c0.725-4.525,2.82-8.779,5.898-11.975c3.043-3.199,7.203-5.471,11.709-6.395
				c0.066-0.021,0.119-0.084,0.115-0.158c-0.006-0.074-0.074-0.131-0.146-0.131c-2.193-0.039-4.504,0.396-6.607,1.24
				c-1.955,0.771-3.768,1.926-5.35,3.326c-2.707-2.668-6.072-4.68-9.729-5.807c-0.014-0.016-0.037-0.016-0.059-0.027
				c1.059-2.924,2.928-5.506,5.34-7.324c2.441-1.857,5.484-2.945,8.613-3.109c-0.312,1.949-0.41,3.936-0.303,5.914
				c0,0.072,0.066,0.129,0.141,0.129c0.076,0,0.143-0.062,0.143-0.135c0.027-1.949,0.254-3.893,0.67-5.768
				c0.068-0.051,0.117-0.135,0.133-0.227c1.201-5.34,4.074-10.335,8.092-14.062c4.328-4.066,9.936-6.621,15.811-7.199
				c0.929-0.096,1.875-0.143,2.806-0.143c2.813,0,5.584,0.42,8.238,1.27c3.385,1.07,6.618,2.85,9.346,5.148
				c2.604,2.186,4.84,4.91,6.459,7.884c0.789,1.434,1.457,2.945,1.979,4.492c0.233,0.65,0.41,1.336,0.588,1.992
				c0.162,0.617,0.346,1.246,0.555,1.863c-3.574,0.262-7.025,1.666-9.719,3.961c-0.057,0.045-0.068,0.135-0.029,0.186
				c0.049,0.068,0.131,0.086,0.193,0.041c2.877-1.812,6.301-2.828,9.629-2.855h0.25c2.148,0,4.287,0.414,6.293,1.16
				c0.549,0.227,1.086,0.459,1.619,0.715c0.44,0.221,0.881,0.471,1.32,0.719c0.321,0.188,0.645,0.396,0.963,0.617
				c3.035,2.119,5.383,5.205,6.614,8.689c1.054,2.973,1.304,6.309,0.736,9.471c-0.851-0.494-1.724-0.941-2.611-1.332
				c-2.659-1.154-5.575-1.857-8.434-2.027c-0.07,0-0.134,0.045-0.146,0.125c-0.008,0.068,0.033,0.136,0.109,0.152
				c5.768,1.32,11.205,4.328,15.316,8.473c4.129,4.119,7.129,9.568,8.434,15.341c0.014,0.065,0.076,0.112,0.158,0.106
				c0.074-0.006,0.125-0.074,0.125-0.147c-0.164-2.859-0.861-5.771-2.014-8.435c-0.121-0.266-0.246-0.543-0.373-0.809
				c1.686-1.463,3.672-2.516,5.793-3.049c1.073-0.266,2.188-0.406,3.315-0.406c1.469,0,2.903,0.236,4.271,0.695
				c2.404,0.805,4.613,2.346,6.226,4.34c1.358,1.67,2.312,3.682,2.778,5.84c-3.733,0.447-7.293,2.027-10.041,4.484
				c-0.062,0.051-0.069,0.137-0.014,0.192c0.049,0.062,0.131,0.074,0.195,0.027c2.584-1.978,5.721-3.224,8.943-3.625
				c1.711-0.203,3.453-0.065,5.147,0.188c1.638,0.244,3.24,0.715,4.75,1.403c0.896,0.402,1.765,0.886,2.582,1.445
				c3.437,2.305,6.045,5.901,7.146,9.877c0.918,3.252,0.865,6.81-0.153,10.021c-0.123,0.424-0.271,0.832-0.406,1.172l-0.401,0.963
				l-36.47,1.265c-0.062,0.004-0.104,0.051-0.125,0.106h-0.54l-0.181,0.504h37.418v0.017h2.66l0.754-1.58
				c0.17-0.405,0.364-0.899,0.519-1.381C253.52,178.623,253.615,174.354,252.516,170.434z M225.545,147.426
				c-1.088-0.793-2.291-1.432-3.561-1.852c-1.336-0.453-2.738-0.68-4.172-0.68c-1.484,0-2.99,0.254-4.345,0.741
				c-2.202,0.771-4.159,2.158-5.59,3.937c-1.246-2.508-2.93-4.865-4.933-6.881c-1.536-1.535-3.276-2.883-5.135-4
				c1.076-3.193,1.156-6.744,0.228-10.053c-0.524-1.875-1.394-3.67-2.531-5.291c3.121-1.732,6.707-2.684,10.224-2.684
				c0.227,0,0.451,0,0.68,0.006c4.471,0.123,8.848,1.732,12.314,4.541c3.493,2.811,6.004,6.735,7.08,11.052
				C226.713,139.898,226.609,143.824,225.545,147.426z"/>
		</g>
	</g>
</g>
</svg>
