<?xml version="1.0" encoding="utf-8"?>
<!-- Generator: Adobe Illustrator 15.0.2, SVG Export Plug-In . SVG Version: 6.00 Build 0)  -->
<!DOCTYPE svg PUBLIC "-//W3C//DTD SVG 1.1//EN" "http://www.w3.org/Graphics/SVG/1.1/DTD/svg11.dtd">
<svg version="1.1" id="Layer_1" xmlns="http://www.w3.org/2000/svg" xmlns:xlink="http://www.w3.org/1999/xlink" x="0px" y="0px"
	 width="280px" height="260px" viewBox="0 0 280 260" enable-background="new 0 0 280 260" xml:space="preserve">
<g>
	<g>
		<g>
			<path fill="#ADD3F0" d="M43.32,244.161l-5.488,0.067l-1.215-1.592l4.117-0.488l-2.58-3.336l2.09-0.276l3.844,3.938l1.701-1.666
				l-3.607-3.711l2.52-4.541l-2.072-1.162l-2.691,4.787l-1.959,0.254l1.572-3.658l-4.209,0.572l0.854-2.068l5.318-1.354l-0.59-2.311
				l-5.012,1.272l-2.668-4.457l-2.055,1.213l2.81,4.729l-0.797,1.903l-2.361-3.161l-1.568,3.812l-1.371-1.783l1.484-5.291
				l-2.295-0.641l-1.412,5.002l-0.508,0.006l-4.684,0.057l0.027,2.38l5.504-0.062l1.344,1.756l-4.047,0.477l2.482,3.217
				l-2.168,0.277l-3.904-3.994l-1.703,1.66l3.631,3.762l-2.543,4.484l2.076,1.174l2.648-4.713l2.299-0.295l-1.637,3.801l3.926-0.533
				l-0.785,1.893l-5.32,1.359l0.588,2.305l5.064-1.268l2.625,4.451l2.041-1.211l-2.797-4.725l0.832-2.007l2.531,3.397l1.541-3.754
				l1.195,1.558l-1.484,5.297l2.295,0.64l1.41-4.949l5.188-0.113L43.32,244.161z M32.604,243.066L31,240.921l-2.656,0.356
				l1.055-2.465l-1.633-2.117l2.662-0.312l1.02-2.475l1.598,2.141l2.656-0.352l-1.059,2.459l1.637,2.122l-2.66,0.312L32.604,243.066
				z"/>
			<g>
				<path fill="#ADD3F0" d="M46.168,213.312c0.188-3.69,2.006-11.35,3.461-17.672c-3.527,5.613-7.711,12.349-10.229,15.117l0,0
					c-0.225,0.283-0.422,0.596-0.561,0.947c-0.805,1.938,0.113,4.174,2.061,4.979c1.948,0.806,4.17-0.113,4.98-2.062
					C46.061,214.198,46.148,213.757,46.168,213.312L46.168,213.312z"/>
				<path fill="#FFFFFF" d="M42.666,213.189c0.07-1.479,0.799-4.537,1.379-7.063c-1.41,2.238-3.082,4.935-4.09,6.045l0,0
					c-0.084,0.106-0.166,0.229-0.223,0.379c-0.32,0.775,0.047,1.664,0.824,1.982c0.775,0.327,1.668-0.039,1.992-0.822
					C42.623,213.534,42.654,213.359,42.666,213.189L42.666,213.189z"/>
			</g>
		</g>
		<g>
			<path fill="#ADD3F0" d="M245.669,215.546l-5.487,0.067l-1.218-1.586l4.117-0.487l-2.58-3.336l2.095-0.277l3.836,3.938
				l1.709-1.666l-3.609-3.709l2.518-4.543l-2.074-1.162l-2.69,4.781l-1.957,0.26l1.571-3.652l-4.209,0.561l0.855-2.057l5.318-1.359
				l-0.588-2.311l-5.017,1.273l-2.668-4.457l-2.055,1.213l2.812,4.729l-0.793,1.91l-2.361-3.168l-1.57,3.812l-1.375-1.789
				l1.482-5.279l-2.287-0.646l-1.416,5.008l-0.504,0.007l-4.687,0.057l0.029,2.373l5.5-0.062l1.348,1.75l-4.051,0.482l2.481,3.217
				l-2.164,0.276l-3.907-3.998l-1.699,1.664l3.627,3.763l-2.545,4.489l2.078,1.168l2.647-4.713l2.293-0.301l-1.627,3.807l3.924-0.53
				l-0.787,1.891l-5.317,1.359l0.584,2.305l5.062-1.268l2.629,4.45l2.045-1.217l-2.799-4.72l0.834-2.006l2.531,3.396l1.535-3.744
				l1.201,1.558l-1.484,5.291l2.287,0.639l1.414-4.949l5.186-0.113L245.669,215.546z M234.952,214.458l-1.604-2.146l-2.658,0.356
				l1.059-2.459l-1.637-2.123l2.664-0.312l1.018-2.48l1.6,2.146l2.66-0.353l-1.061,2.459l1.639,2.123l-2.662,0.312L234.952,214.458z
				"/>
			<g>
				<path fill="#ADD3F0" d="M224.376,245.77c0.188-3.691,2.008-11.345,3.463-17.666c-3.524,5.612-7.711,12.348-10.229,15.117
					l-0.006,0.006c-0.219,0.271-0.414,0.584-0.555,0.936c-0.805,1.941,0.117,4.174,2.061,4.984c1.943,0.805,4.175-0.113,4.979-2.062
					C224.271,246.652,224.359,246.212,224.376,245.77L224.376,245.77z"/>
				<path fill="#FFFFFF" d="M220.872,245.648c0.076-1.477,0.805-4.535,1.39-7.062c-1.416,2.244-3.089,4.935-4.097,6.043l0,0
					c-0.088,0.108-0.164,0.238-0.222,0.375c-0.323,0.774,0.046,1.67,0.824,1.994c0.777,0.321,1.668-0.047,1.988-0.828
					C220.827,246.001,220.866,245.818,220.872,245.648L220.872,245.648z"/>
			</g>
		</g>
		<g>
			<g>
				<path fill="#ADD3F0" d="M92.411,215.546l-5.488,0.067l-1.215-1.586l4.115-0.487l-2.58-3.336l2.092-0.277l3.842,3.938
					l1.703-1.666l-3.607-3.709l2.521-4.543l-2.08-1.162l-2.689,4.781l-1.961,0.26l1.576-3.652l-4.209,0.561l0.855-2.057l5.318-1.359
					l-0.586-2.311l-5.016,1.273l-2.668-4.457l-2.051,1.213l2.805,4.729l-0.793,1.91l-2.363-3.168l-1.568,3.812l-1.373-1.789
					l1.486-5.279l-2.293-0.646l-1.416,5.008l-0.506,0.007l-4.68,0.057l0.025,2.373l5.504-0.062l1.34,1.75l-4.047,0.482l2.48,3.217
					l-2.166,0.276l-3.898-3.998l-1.705,1.664l3.631,3.763l-2.547,4.489l2.076,1.168l2.645-4.713l2.301-0.301l-1.635,3.807
					l3.926-0.53l-0.785,1.891l-5.322,1.359l0.592,2.305l5.062-1.268l2.625,4.45l2.047-1.217l-2.801-4.72l0.83-2.006l2.535,3.396
					l1.54-3.744l1.199,1.558l-1.486,5.291l2.291,0.639l1.412-4.949l5.186-0.113L92.411,215.546z M81.691,214.458l-1.605-2.146
					l-2.654,0.356l1.059-2.459l-1.633-2.123l2.662-0.312l1.016-2.48l1.6,2.146l2.659-0.353l-1.061,2.459l1.637,2.123l-2.662,0.312
					L81.691,214.458z"/>
				<g>
					<path fill="#ADD3F0" d="M71.119,245.77c0.188-3.691,2.008-11.345,3.461-17.666c-3.529,5.612-7.709,12.348-10.23,15.117
						l-0.002,0.006c-0.221,0.271-0.416,0.584-0.559,0.936c-0.803,1.941,0.119,4.174,2.062,4.984
						c1.943,0.805,4.174-0.113,4.979-2.062C71.012,246.652,71.102,246.212,71.119,245.77L71.119,245.77z"/>
					<path fill="#FFFFFF" d="M67.613,245.648c0.078-1.477,0.805-4.535,1.393-7.062c-1.418,2.244-3.092,4.935-4.098,6.043l0,0
						c-0.088,0.108-0.166,0.238-0.223,0.375c-0.324,0.774,0.045,1.67,0.82,1.994c0.781,0.321,1.672-0.047,1.994-0.828
						C67.574,246.001,67.607,245.818,67.613,245.648L67.613,245.648z"/>
				</g>
			</g>
			<g>
				<path fill="#ADD3F0" d="M119.95,244.161l-5.488,0.067l-1.215-1.592l4.117-0.488l-2.58-3.336l2.09-0.276l3.846,3.938l1.699-1.666
					l-3.602-3.711l2.514-4.541l-2.072-1.162l-2.689,4.787l-1.961,0.254l1.572-3.658l-4.205,0.572l0.85-2.068l5.32-1.354
					l-0.586-2.311l-5.018,1.272l-2.668-4.457l-2.051,1.213l2.807,4.729l-0.797,1.903l-2.361-3.161l-1.566,3.812l-1.371-1.783
					l1.482-5.291l-2.291-0.641l-1.416,5.002l-0.508,0.006l-4.678,0.057l0.025,2.38l5.502-0.062l1.344,1.756l-4.049,0.477
					l2.484,3.217l-2.17,0.277l-3.902-3.994l-1.705,1.66l3.631,3.762l-2.539,4.484l2.076,1.174l2.645-4.713l2.299-0.295l-1.637,3.801
					l3.926-0.533l-0.781,1.893l-5.324,1.359l0.588,2.305l5.064-1.268l2.627,4.451l2.045-1.211l-2.803-4.725l0.832-2.007l2.531,3.397
					l1.541-3.754l1.199,1.558l-1.488,5.297l2.295,0.64l1.41-4.949l5.191-0.113L119.95,244.161z M109.233,243.066l-1.604-2.146
					l-2.656,0.356l1.057-2.465l-1.635-2.117l2.662-0.312l1.02-2.475l1.604,2.141l2.65-0.352l-1.053,2.459l1.635,2.122l-2.66,0.312
					L109.233,243.066z"/>
				<g>
					<path fill="#ADD3F0" d="M122.799,213.312c0.186-3.69,2.004-11.35,3.465-17.672c-3.533,5.613-7.717,12.349-10.234,15.117l0,0
						c-0.225,0.283-0.42,0.596-0.561,0.947c-0.805,1.938,0.113,4.174,2.062,4.979c1.945,0.806,4.168-0.113,4.984-2.062
						C122.69,214.198,122.778,213.757,122.799,213.312L122.799,213.312z"/>
					<path fill="#FFFFFF" d="M119.295,213.189c0.076-1.479,0.801-4.537,1.379-7.063c-1.408,2.238-3.082,4.935-4.086,6.045l0,0
						c-0.088,0.106-0.168,0.229-0.227,0.379c-0.32,0.775,0.047,1.664,0.83,1.982c0.77,0.327,1.664-0.039,1.986-0.822
						C119.252,213.534,119.288,213.359,119.295,213.189L119.295,213.189z"/>
				</g>
			</g>
			<g>
				<path fill="#ADD3F0" d="M169.04,215.546l-5.488,0.067l-1.213-1.586l4.113-0.487l-2.578-3.336l2.094-0.277l3.839,3.938
					l1.704-1.666l-3.608-3.709l2.521-4.543l-2.073-1.162l-2.689,4.781l-1.961,0.26l1.572-3.652l-4.211,0.561l0.856-2.057
					l5.315-1.359l-0.586-2.311l-5.016,1.273l-2.668-4.457l-2.051,1.213l2.805,4.729l-0.791,1.91l-2.365-3.168l-1.563,3.812
					l-1.375-1.789l1.483-5.279l-2.291-0.646l-1.418,5.008l-0.504,0.007l-4.682,0.057l0.025,2.373l5.506-0.062l1.342,1.75
					l-4.051,0.482l2.482,3.217l-2.168,0.276l-3.898-3.998l-1.706,1.664l3.632,3.763l-2.543,4.489l2.078,1.168l2.645-4.713
					l2.297-0.301l-1.635,3.807l3.926-0.53l-0.787,1.891l-5.317,1.359l0.59,2.305l5.062-1.268l2.623,4.45l2.047-1.217l-2.801-4.72
					l0.832-2.006l2.535,3.396l1.539-3.744l1.197,1.558l-1.486,5.291l2.291,0.639l1.412-4.949l5.189-0.113L169.04,215.546z
					 M158.32,214.458l-1.6-2.146l-2.656,0.356l1.056-2.459l-1.634-2.123l2.662-0.312l1.021-2.48l1.599,2.146l2.655-0.353
					l-1.062,2.459l1.638,2.123l-2.656,0.312L158.32,214.458z"/>
				<g>
					<path fill="#ADD3F0" d="M147.749,245.77c0.192-3.691,2.012-11.345,3.461-17.666c-3.522,5.612-7.708,12.348-10.226,15.117
						l-0.008,0.006c-0.221,0.271-0.416,0.584-0.555,0.936c-0.807,1.941,0.119,4.174,2.059,4.984
						c1.943,0.805,4.174-0.113,4.984-2.062C147.643,246.652,147.73,246.212,147.749,245.77L147.749,245.77z"/>
					<path fill="#FFFFFF" d="M144.243,245.648c0.08-1.477,0.805-4.535,1.394-7.062c-1.419,2.244-3.094,4.935-4.1,6.043l0,0
						c-0.088,0.108-0.166,0.238-0.223,0.375c-0.324,0.774,0.045,1.67,0.826,1.994c0.774,0.321,1.666-0.047,1.987-0.828
						C144.204,246.001,144.236,245.818,144.243,245.648L144.243,245.648z"/>
				</g>
			</g>
			<g>
				<path fill="#ADD3F0" d="M196.575,244.161l-5.484,0.067l-1.219-1.592l4.119-0.488l-2.58-3.336l2.092-0.276l3.84,3.938
					l1.705-1.666l-3.606-3.711l2.518-4.541l-2.07-1.162l-2.688,4.787l-1.968,0.254l1.576-3.658l-4.207,0.572l0.854-2.068
					l5.319-1.354l-0.592-2.311l-5.01,1.272l-2.67-4.457l-2.057,1.213l2.811,4.729l-0.793,1.903l-2.363-3.161l-1.567,3.812
					l-1.371-1.783l1.483-5.291l-2.291-0.641l-1.414,5.002l-0.51,0.006l-4.678,0.057l0.027,2.38l5.5-0.062l1.344,1.756l-4.045,0.477
					l2.48,3.217l-2.168,0.277l-3.904-3.994l-1.703,1.66l3.629,3.762l-2.539,4.484l2.076,1.174l2.645-4.713l2.299-0.295l-1.637,3.801
					l3.926-0.533l-0.787,1.893l-5.317,1.359l0.594,2.305l5.06-1.268l2.629,4.451l2.043-1.211l-2.803-4.725l0.83-2.007l2.534,3.397
					l1.539-3.754l1.195,1.558l-1.484,5.297l2.296,0.64l1.409-4.949l5.188-0.113L196.575,244.161z M185.859,243.066l-1.604-2.146
					l-2.651,0.356l1.061-2.465l-1.637-2.117l2.664-0.312l1.018-2.475l1.6,2.141l2.658-0.352l-1.059,2.459l1.635,2.122l-2.666,0.312
					L185.859,243.066z"/>
				<g>
					<path fill="#ADD3F0" d="M199.43,213.312c0.186-3.69,2.004-11.35,3.461-17.672c-3.529,5.613-7.716,12.349-10.232,15.117l0,0
						c-0.225,0.283-0.422,0.596-0.561,0.947c-0.806,1.938,0.114,4.174,2.061,4.979c1.945,0.806,4.174-0.113,4.984-2.062
						C199.316,214.198,199.404,213.757,199.43,213.312L199.43,213.312z"/>
					<path fill="#FFFFFF" d="M195.923,213.189c0.072-1.479,0.798-4.537,1.382-7.063c-1.408,2.238-3.084,4.935-4.087,6.045l0,0
						c-0.088,0.106-0.174,0.229-0.229,0.379c-0.322,0.775,0.049,1.664,0.828,1.982c0.776,0.327,1.664-0.039,1.994-0.822
						C195.882,213.534,195.911,213.359,195.923,213.189L195.923,213.189z"/>
				</g>
			</g>
			<g>
				<g>
					<path fill="#FFFFFF" d="M182.143,118.06c0.215,0.107,0.43,0.205,0.645,0.322c0.006-0.039,0.012-0.086,0.012-0.119
						C182.583,118.189,182.368,118.125,182.143,118.06z"/>
				</g>
				<g>
					<path fill="#FFFFFF" d="M165.113,114.394c4.927,0,9.654,0.818,14.076,2.307c-4.021-1.623-8.416-2.521-13.026-2.521
						c-1.938,0-3.84,0.164-5.692,0.471C161.995,114.486,163.546,114.394,165.113,114.394z"/>
				</g>
				<path fill="#FFFFFF" d="M266.684,166.434c-1.771-6.4-6.011-12.121-11.603-15.697c-4.881-3.166-10.998-4.717-16.858-4.241
					c-0.214-3.172-1.291-6.343-3.064-8.996c-1.031-1.562-2.32-2.983-3.834-4.226c2.1-5.161,2.678-11.018,1.602-16.552
					c-1.273-6.832-5.17-13.273-10.668-17.672c-5.203-4.229-12.025-6.652-18.717-6.652c-0.283,0-0.561,0.002-0.832,0.014
					c-5.557,0.119-11.096,1.893-15.678,5.008c-1.643-2.125-3.553-3.951-5.676-5.428c-1.094-0.773-2.295-1.479-3.67-2.146
					c-0.099-0.051-0.201-0.094-0.308-0.133l-0.183-0.076c-0.448-0.203-0.911-0.402-1.381-0.584
					c-0.182-0.068-0.369-0.133-0.545-0.195c-3.166-1.139-6.451-1.689-9.668-1.525c-0.151-0.613-0.303-1.283-0.457-2.068
					c-0.194-1.008-0.397-2.051-0.692-3.086c-0.636-2.346-1.49-4.654-2.562-6.859c-2.215-4.604-5.408-8.859-9.242-12.314
					c-4.057-3.658-8.937-6.51-14.122-8.246c-5.41-1.818-11.25-2.465-16.996-1.873c-8.971,0.885-17.781,5.029-24.168,11.377
					c-5.734,5.619-9.693,12.971-11.195,20.773c-0.996-0.201-1.965-0.299-2.947-0.299c-3.872,0-7.684,1.293-10.731,3.631
					c-2.234,1.672-4.072,3.895-5.324,6.43c-0.824,1.66-1.371,3.506-1.605,5.387c-5.945-1.533-12.303-1.467-18.197,0.152
					c-6.684,1.818-12.891,5.729-17.467,11.008c-3.648,4.186-6.293,9.211-7.646,14.523c-1.309,5.092-1.467,10.51-0.463,15.672
					c0.928,4.826,2.932,9.521,5.803,13.573c2.143,3.014,4.832,5.738,7.828,7.947c-3.336,1.506-6.186,4.004-8.088,7.096
					c-2.51,4-3.367,8.955-2.359,13.6c0.111,0.51,0.23,0.969,0.359,1.4l0.043,0.146c0.049,0.171,0.1,0.341,0.24,0.73l0.238,0.686
					c0.035,0.074,0.139,0.312,0.441,0.479l0.164,0.093h29.84h26.68h126.114h2.341h52.805l0.986-2.021l0.389-0.896
					c0.223-0.543,0.479-1.195,0.695-1.857C268.029,177.382,268.161,171.673,266.684,166.434z"/>
				<g>
					<path fill="#ADD3F0" d="M231.152,122.876c-0.062-0.09-0.131-0.178-0.204-0.254c0.051-0.484,0.079-0.967,0.096-1.451
						c-0.026-0.275-0.076-0.543-0.117-0.818c-0.053-0.383-0.092-0.768-0.166-1.15c-0.112-0.65-0.254-1.297-0.415-1.939
						c-1.515-6.162-5.099-11.758-10.078-15.752c-4.939-4.004-11.17-6.299-17.547-6.469c-0.324-0.01-0.646-0.016-0.968-0.016
						c-5.004,0-10.131,1.359-14.569,3.822c1.618,2.311,2.862,4.871,3.604,7.545c1.334,4.709,1.209,9.768-0.312,14.332
						c2.643,1.584,5.123,3.504,7.305,5.693c2.857,2.859,5.262,6.226,7.031,9.806c2.043-2.531,4.828-4.515,7.963-5.615
						c1.932-0.69,4.076-1.052,6.195-1.052c2.04,0,4.036,0.322,5.94,0.962c1.801,0.603,3.519,1.515,5.071,2.646
						c0.234-0.774,0.422-1.565,0.586-2.362c0.025-0.139,0.052-0.279,0.078-0.418C231.118,127.919,231.286,125.388,231.152,122.876z
						 M222.993,125.304c-14.248-0.465-25.718-11.754-26.479-25.92c2.316-0.92,4.834-1.441,7.478-1.441
						c11.211,0,20.291,9.086,20.291,20.291C224.282,120.724,223.814,123.101,222.993,125.304z"/>
					<path fill="#ADD3F0" d="M24.232,139.629c-0.016-0.125-0.023-0.25-0.035-0.375c-0.006-0.006-0.006-0.01-0.006-0.021
						C24.203,139.367,24.217,139.498,24.232,139.629z"/>
					<path fill="#ADD3F0" d="M183.1,114.769c0,0.865-0.08,1.709-0.183,2.549h0.006c1.146,0.367,2.277,0.773,3.373,1.252
						c1.267,0.549,2.513,1.189,3.729,1.895c0.804-4.504,0.443-9.262-1.061-13.492c-1.744-4.967-5.1-9.369-9.428-12.387
						c-0.443-0.312-0.902-0.602-1.367-0.885c-0.627-0.352-1.25-0.701-1.881-1.014c-0.754-0.367-1.529-0.699-2.305-1.018
						c-2.861-1.076-5.91-1.658-8.974-1.658l-0.352,0.002c-4.742,0.035-9.617,1.479-13.722,4.066
						c0.429-0.266,0.873-0.498,1.314-0.736c2.484-0.926,5.156-1.455,7.961-1.455C172.857,91.888,183.1,102.128,183.1,114.769z"/>
					<path fill="#ADD3F0" d="M161.359,88.578c0.107-0.02,0.216-0.039,0.322-0.062c0.949-0.188,1.906-0.334,2.877-0.404
						c-0.299-0.875-0.562-1.768-0.799-2.648c-0.248-0.943-0.504-1.914-0.838-2.85c-0.742-2.199-1.688-4.352-2.809-6.402
						c-2.32-4.23-5.5-8.113-9.211-11.229c-3.885-3.277-8.493-5.818-13.321-7.348c-3.779-1.197-7.73-1.803-11.74-1.803
						c-1.328,0-2.676,0.068-3.992,0.203c-8.369,0.828-16.367,4.473-22.523,10.256c-5.727,5.318-9.822,12.436-11.531,20.045
						c-0.031,0.139-0.098,0.246-0.193,0.324c-0.59,2.674-0.912,5.438-0.957,8.213c0,0.109-0.092,0.199-0.199,0.199
						c-0.109,0-0.197-0.086-0.203-0.193c-0.162-2.814-0.012-5.646,0.43-8.416c-4.456,0.232-8.79,1.783-12.274,4.432
						c-3.432,2.58-6.104,6.27-7.607,10.432c0.029,0.016,0.062,0.025,0.086,0.045c0.711,0.645,2.637,0.918,3.557,1.316
						c1.246,0.541,2.459,1.158,3.633,1.844c2.404,1.41,4.662,3.109,6.631,5.08c1.557-0.705,2.85-2.252,4.463-3.061
						c4.014-2.014,8.02-3.418,12.67-3.396c0.035-0.025,0.074-0.045,0.107-0.07c-0.215-0.674-0.566-2.494-0.58-2.574
						c-0.133-0.662-0.244-1.332-0.334-2c-0.184-1.365-0.275-2.74-0.275-4.121c0-17.176,13.93-31.098,31.102-31.098
						c15.46,0,28.253,11.289,30.66,26.066C159.439,89.039,160.393,88.781,161.359,88.578z"/>
					<path fill="#ADD3F0" d="M134.563,150.135c-1.105,0-2.189,0.057-3.264,0.154c-0.014-0.402-0.033-0.805-0.033-1.213
						c0-4.254,0.775-8.326,2.172-12.094c2.928-8.558,8.66-15.181,15.903-19.274c-0.228,0.084-0.43,0.191-0.651,0.283l0.488-0.221
						c0,0-6.705,1.195-14.431,7.379c-1.232,0.984-2.484,2.096-3.744,3.348c-0.053,0.057-0.109,0.113-0.166,0.17
						c-0.617,0.623-1.236,1.27-1.854,1.957c-0.002,0.01-0.01,0.015-0.016,0.021c-0.582,0.654-1.162,1.35-1.736,2.068
						c-0.088,0.113-0.18,0.221-0.264,0.332c-0.57,0.721-1.131,1.475-1.686,2.262c-0.094,0.131-0.184,0.271-0.279,0.404
						c-0.504,0.729-1.004,1.488-1.496,2.275c-0.074,0.119-0.146,0.231-0.221,0.354c-0.527,0.855-1.039,1.754-1.547,2.682
						c-0.113,0.209-0.221,0.427-0.334,0.636c-0.516,0.969-1.016,1.952-1.5,3c-0.221,0.106-0.432,0.229-0.652,0.323
						c-2.803,1.244-5.861,1.888-8.936,1.888c-0.674,0-1.344-0.039-2.018-0.103c0,0,0,0-0.006,0
						c-4.662-0.426-8.91-2.289-12.291-5.147c-0.029-0.022-0.062-0.048-0.098-0.066c-5.361-4.375-8.785-11.034-8.785-18.491
						c0-7.816,3.773-14.738,9.582-19.09c0.455-0.119,0.814-0.25,0.932-0.391c-0.035,0.008-0.074,0.02-0.113,0.027
						c-2.336,0.504-4.611,1.258-6.76,2.244c-0.006,0-0.016,0.006-0.02,0.01c-0.721,0.33-1.428,0.684-2.119,1.062
						c-0.062,0.037-0.125,0.076-0.188,0.113c-0.629,0.354-1.252,0.717-1.855,1.107c-0.154,0.105-0.299,0.219-0.455,0.326
						c-0.502,0.336-1.002,0.68-1.479,1.041c-0.275,0.211-0.529,0.439-0.793,0.658c-0.346,0.279-0.699,0.555-1.025,0.85
						c-0.588,0.523-1.155,1.07-1.69,1.637c-4.387,4.557-7.373,10.611-8.408,17.061c-0.018,0.096-0.1,0.17-0.199,0.17
						c-0.113-0.006-0.197-0.092-0.203-0.193c-0.182-3.152,0.289-6.434,1.367-9.492c1.203-3.428,3.166-6.621,5.678-9.232
						c0.346-0.363,0.725-0.686,1.088-1.029c-3.02-2.562-6.484-4.604-10.172-6.008c-1.23-0.469-2.482-0.867-3.756-1.189
						c-0.125,0.029-0.264,0.027-0.389-0.006c-0.438-0.004-0.943-0.182-1.4-0.301c-0.006-0.004-0.012-0.006-0.021-0.006
						c-0.738-0.146-1.48-0.271-2.229-0.373c-0.006,0-0.012,0-0.012-0.004c-0.443-0.047-0.865-0.045-1.307-0.047
						c-0.197-0.004-0.377-0.068-0.557-0.143c-0.881-0.068-1.764-0.113-2.656-0.113c-3.336,0-6.633,0.477-9.793,1.422
						c-6.062,1.801-11.705,5.439-15.885,10.248c-3.322,3.824-5.773,8.395-7.1,13.221c-0.32,1.15-0.572,2.322-0.77,3.506
						c-0.098,0.605-0.135,1.225-0.201,1.835c-0.062,0.578-0.154,1.152-0.188,1.732c-0.049,0.816-0.025,1.635-0.014,2.449
						c0,0.383-0.023,0.768-0.006,1.148c0.031,0.649,0.125,1.297,0.191,1.94c0.047,0.25,0.098,0.5,0.154,0.752
						c-0.01,0.254-0.004,0.513,0,0.769c0.01,0.096,0.01,0.197,0.027,0.293c0.697,4.51,2.379,8.975,4.859,12.916
						c2.15,3.404,4.963,6.47,8.146,8.961c3.213-1.325,6.863-1.756,10.279-1.229c0.049-0.864,0.146-1.731,0.32-2.588
						c0.615-3.063,2.082-6.028,4.127-8.339c1.84-2.107,4.15-3.732,6.68-4.707c0.1-0.037,0.201,0.006,0.25,0.096
						c0.047,0.088,0.025,0.199-0.057,0.262c-4.438,3.187-7.574,7.987-8.604,13.172c-1.068,5.221-0.061,10.863,2.779,15.483
						c0.049,0.093,0.035,0.205-0.047,0.267c-0.035,0.029-0.08,0.047-0.125,0.047c-0.055,0-0.102-0.018-0.141-0.057
						c-1.957-1.888-3.453-4.289-4.326-6.939c-0.654-1.988-0.92-4.072-0.863-6.156c-0.02,0-0.033,0-0.057,0l0.057-0.068
						c0,0-0.781-0.012-2.027,0.09c-1.043,0.062-2.068,0.218-3.076,0.433c-5.912,1.14-14.842,4.765-14.811,16.256
						c-0.066,1.382,0.031,2.775,0.328,4.129c0.033,0.177,0.084,0.396,0.152,0.656c0.074,0.276,0.168,0.533,0.268,0.76l52.691,1.894
						c-0.254-1.258-0.422-2.555-0.422-3.894c0-11.051,8.959-20.01,20.008-20.01c6.941,0,13.057,3.539,16.648,8.908
						c4.162-10.529,14.408-17.991,26.416-17.991c1.688,0,3.324,0.176,4.933,0.456c0.367-0.131,0.753-0.229,1.121-0.351
						C145.225,151.354,140.04,150.135,134.563,150.135z M144.725,119.755l0.76-0.336c-0.396,0.191-0.773,0.406-1.166,0.617
						L144.725,119.755z M47.898,145.762c-7.631-2.861-13.074-10.205-13.074-18.84c0-11.117,9.014-20.137,20.129-20.137
						c6.303,0,11.918,2.893,15.611,7.418c-5.441,6.082-9.143,13.734-10.445,22.18C55.312,138.473,51.127,141.719,47.898,145.762z
						 M62.396,146.51c-0.057-0.016-0.119-0.02-0.182-0.033c0.119-0.086,0.244-0.162,0.363-0.244
						C62.516,146.324,62.453,146.416,62.396,146.51z M63.836,167.753c-3.793-6.713-3.232-14.831,3.33-21.212
						c2.135-2.076,4.74-2.885,7.326-2.658c2.189,3.795,5.275,6.926,8.92,9.521C74.721,154.562,67.432,160.105,63.836,167.753z"/>
					<path fill="#ADD3F0" d="M198.486,161.964c7.677,2.601,14.205,7.67,18.63,14.279c-0.232-1.234-0.354-2.517-0.354-3.824
						c0-11.504,9.32-20.823,20.824-20.823c11.492,0,20.82,9.319,20.82,20.823c0,4.69-1.57,8.996-4.188,12.474
						c0.896-0.027,1.796-0.062,2.693-0.091c0.562-0.022,1.121-0.04,1.682-0.057l0.666-0.029c0.312-0.012,0.699-0.057,1.066-0.032
						l1.93-0.068l0.574-1.377c0.168-0.424,0.354-0.934,0.521-1.455c0-0.006,0-0.012,0-0.018c0.058-0.396,0.213-0.793,0.338-1.185
						c0.047-0.177,0.104-0.353,0.146-0.524c0.078-0.324,0.146-0.658,0.215-0.986c0.058-0.266,0.106-0.527,0.152-0.799
						c0.057-0.34,0.1-0.681,0.143-1.025c0.033-0.271,0.078-0.537,0.103-0.814c0.033-0.346,0.047-0.697,0.062-1.043
						c0.017-0.266,0.039-0.527,0.041-0.787c0.007-0.369-0.002-0.735-0.014-1.1c-0.007-0.248,0-0.504-0.019-0.752
						c-0.016-0.369-0.057-0.736-0.092-1.105c-0.025-0.25-0.037-0.492-0.066-0.742c-0.053-0.391-0.121-0.78-0.186-1.172
						c-0.047-0.215-0.068-0.436-0.111-0.651c-0.121-0.601-0.264-1.199-0.434-1.789c-1.572-5.658-5.279-10.791-10.178-14.077
						c-0.672-0.447-1.357-0.861-2.062-1.244c-0.176-0.096-0.359-0.178-0.541-0.268c-0.535-0.281-1.084-0.545-1.645-0.783
						c-0.176-0.076-0.357-0.148-0.535-0.221c-0.711-0.283-1.428-0.543-2.162-0.762c-1.146-0.343-2.318-0.604-3.508-0.781
						c-2.416-0.361-4.896-0.559-7.332-0.258c-1.133,0.137-2.258,0.354-3.371,0.641c-1.127,0.289-2.23,0.65-3.311,1.084
						c-2.16,0.869-4.211,2.02-6.062,3.434c-0.092,0.062-0.215,0.051-0.283-0.035c-0.07-0.078-0.062-0.203,0.021-0.277
						c3.914-3.503,8.99-5.76,14.314-6.393c-0.675-3.074-2.027-5.94-3.966-8.319c-2.295-2.843-5.442-5.041-8.877-6.189
						c-1.938-0.651-3.985-0.981-6.075-0.981c-1.605,0-3.195,0.195-4.73,0.582c-3.018,0.754-5.85,2.252-8.258,4.336
						c0.182,0.385,0.365,0.768,0.533,1.156c1.643,3.789,2.637,7.942,2.864,12.02c0.009,0.102-0.067,0.195-0.172,0.209
						c-0.006,0-0.006-0.006-0.01-0.006c-0.007,0-0.013,0.006-0.017,0.006c-0.094,0-0.176-0.062-0.199-0.156
						c-1.862-8.225-6.131-15.986-12.02-21.858c-0.674-0.682-1.381-1.336-2.107-1.975c-0.396-0.346-0.803-0.674-1.217-1.002
						c-0.312-0.254-0.617-0.512-0.936-0.76c-0.568-0.436-1.148-0.859-1.746-1.271c-0.137-0.096-0.275-0.195-0.41-0.287
						c-0.711-0.48-1.434-0.943-2.164-1.387h-0.006c8.258,6.379,13.594,16.366,13.594,27.614c0,4.564-0.885,8.917-2.479,12.915
						C198.557,161.98,198.52,161.977,198.486,161.964z M217.204,133.559c7.223,0,13.09,5.789,13.229,12.98
						c-0.996,0.209-2.021,0.322-3.072,0.322c-7.4,0-13.506-5.435-14.594-12.523C214.157,133.842,215.646,133.559,217.204,133.559z"
						/>
				</g>
				<path fill="#231F20" d="M266.684,166.434c-1.771-6.4-6.011-12.121-11.603-15.697c-4.881-3.166-10.998-4.717-16.858-4.241
					c-0.214-3.172-1.291-6.343-3.064-8.996c-1.031-1.562-2.32-2.983-3.834-4.226c2.1-5.161,2.678-11.018,1.602-16.552
					c-1.273-6.832-5.17-13.273-10.668-17.672c-5.203-4.229-12.025-6.652-18.717-6.652c-0.283,0-0.561,0.002-0.832,0.014
					c-5.557,0.119-11.096,1.893-15.678,5.008c-1.643-2.125-3.553-3.951-5.676-5.428c-1.094-0.773-2.295-1.479-3.67-2.146
					c-0.099-0.051-0.201-0.094-0.308-0.133l-0.183-0.076c-0.448-0.203-0.911-0.402-1.381-0.584
					c-0.182-0.068-0.369-0.133-0.545-0.195c-3.166-1.139-6.451-1.689-9.668-1.525c-0.151-0.613-0.303-1.283-0.457-2.068
					c-0.194-1.008-0.397-2.051-0.692-3.086c-0.636-2.346-1.49-4.654-2.562-6.859c-2.215-4.604-5.408-8.859-9.242-12.314
					c-4.057-3.658-8.937-6.51-14.122-8.246c-5.41-1.818-11.25-2.465-16.996-1.873c-8.971,0.885-17.781,5.029-24.168,11.377
					c-5.734,5.619-9.693,12.971-11.195,20.773c-0.996-0.201-1.965-0.299-2.947-0.299c-3.872,0-7.684,1.293-10.731,3.631
					c-2.234,1.672-4.072,3.895-5.324,6.43c-0.824,1.66-1.371,3.506-1.605,5.387c-5.945-1.533-12.303-1.467-18.197,0.152
					c-6.684,1.818-12.891,5.729-17.467,11.008c-3.648,4.186-6.293,9.211-7.646,14.523c-1.309,5.092-1.467,10.51-0.463,15.672
					c0.928,4.826,2.932,9.521,5.803,13.573c2.143,3.014,4.832,5.738,7.828,7.947c-3.336,1.506-6.186,4.004-8.088,7.096
					c-2.51,4-3.367,8.955-2.359,13.6c0.111,0.51,0.23,0.969,0.359,1.4l0.043,0.146c0.049,0.171,0.1,0.341,0.24,0.73l0.238,0.686
					c0.035,0.074,0.139,0.312,0.441,0.479l0.164,0.093h56.52l-0.264-0.726h-0.774c-0.027-0.08-0.084-0.137-0.166-0.143
					l-53.281-1.914c-0.1-0.227-0.193-0.482-0.268-0.76c-0.068-0.26-0.119-0.48-0.152-0.656c-0.297-1.354-0.395-2.748-0.328-4.129
					c-0.031-11.492,8.898-15.117,14.811-16.256c1.008-0.215,2.033-0.369,3.076-0.432c1.246-0.103,2.027-0.09,2.027-0.09
					s-0.057,0.067,0,0.067c-0.057,2.084,0.209,4.168,0.863,6.156c0.873,2.649,2.369,5.053,4.326,6.938
					c0.039,0.039,0.086,0.057,0.141,0.057c0.045,0,0.09-0.018,0.125-0.047c0.082-0.061,0.096-0.174,0.047-0.266
					c-2.84-4.621-3.848-10.264-2.779-15.484c1.029-5.184,4.166-9.984,8.604-13.17c0.082-0.062,0.104-0.174,0.057-0.263
					c-0.049-0.09-0.15-0.133-0.25-0.096c-2.529,0.976-4.84,2.601-6.68,4.707c-2.045,2.312-3.512,5.274-4.127,8.339
					c-0.174,0.855-0.271,1.723-0.32,2.588c-3.416-0.525-7.066-0.096-10.279,1.23c-3.184-2.492-5.996-5.558-8.146-8.961
					c-2.48-3.942-4.162-8.407-4.859-12.918c-0.758-4.791-0.479-9.78,0.805-14.425c1.326-4.826,3.777-9.396,7.1-13.221
					c4.18-4.809,9.822-8.447,15.885-10.248c3.16-0.945,6.457-1.422,9.793-1.422c2.775,0,5.523,0.328,8.182,0.986
					c0.125,0.033,0.264,0.035,0.389,0.006c5.086,1.291,9.904,3.779,13.934,7.197c-0.369,0.344-0.748,0.666-1.094,1.029
					c-2.512,2.611-4.475,5.805-5.678,9.232c-1.078,3.059-1.549,6.34-1.367,9.492c0.006,0.102,0.09,0.188,0.203,0.193
					c0.1,0,0.182-0.074,0.199-0.17c1.035-6.449,4.021-12.504,8.408-17.061c4.336-4.562,10.26-7.803,16.684-9.121
					c0.098-0.021,0.166-0.113,0.158-0.217c-0.006-0.104-0.094-0.18-0.199-0.184c-3.131-0.053-6.422,0.564-9.422,1.764
					c-2.783,1.1-5.367,2.748-7.624,4.742c-3.855-3.807-8.645-6.668-13.857-8.27c-0.023-0.021-0.057-0.029-0.086-0.045
					c1.504-4.162,4.176-7.852,7.607-10.432c3.484-2.648,7.818-4.199,12.274-4.432c-0.441,2.77-0.592,5.602-0.43,8.416
					c0.006,0.107,0.094,0.193,0.203,0.193c0.107,0,0.199-0.09,0.199-0.199c0.045-2.775,0.367-5.539,0.957-8.213
					c0.096-0.078,0.162-0.186,0.193-0.324c1.709-7.609,5.805-14.727,11.531-20.045c6.156-5.783,14.154-9.428,22.523-10.256
					c1.316-0.135,2.664-0.203,3.992-0.203c4.01,0,7.961,0.605,11.74,1.803c4.828,1.529,9.437,4.07,13.321,7.348
					c3.711,3.115,6.891,6.998,9.211,11.229c1.121,2.051,2.066,4.203,2.809,6.402c0.334,0.936,0.59,1.906,0.838,2.85
					c0.236,0.881,0.5,1.773,0.799,2.648c-5.098,0.373-10.02,2.379-13.856,5.646c-0.082,0.068-0.093,0.188-0.031,0.271
					c0.062,0.086,0.183,0.107,0.271,0.051c4.104-2.588,8.979-4.031,13.721-4.066l0.352-0.002c3.062,0,6.111,0.582,8.974,1.658
					c0.774,0.318,1.551,0.65,2.305,1.018c0.631,0.312,1.254,0.662,1.881,1.014c0.466,0.283,0.925,0.572,1.367,0.885
					c4.328,3.018,7.685,7.42,9.429,12.387c1.504,4.23,1.862,8.988,1.061,13.492c-1.219-0.705-2.465-1.346-3.73-1.895
					c-3.789-1.652-7.938-2.654-12.01-2.895c-0.105,0-0.199,0.066-0.217,0.172c-0.01,0.105,0.057,0.201,0.16,0.225
					c8.215,1.883,15.967,6.168,21.822,12.072c5.889,5.872,10.155,13.632,12.02,21.858c0.023,0.094,0.105,0.155,0.225,0.155
					c0.104-0.014,0.18-0.106,0.172-0.209c-0.229-4.075-1.223-8.229-2.865-12.02c-0.168-0.389-0.352-0.771-0.532-1.156
					c2.407-2.084,5.239-3.582,8.258-4.336c1.535-0.387,3.125-0.582,4.729-0.582c2.09,0,4.138,0.33,6.076,0.982
					c3.435,1.148,6.582,3.348,8.877,6.189c1.938,2.379,3.291,5.246,3.965,8.319c-5.323,0.634-10.399,2.89-14.313,6.392
					c-0.084,0.074-0.092,0.199-0.021,0.277c0.067,0.086,0.19,0.098,0.283,0.035c3.684-2.811,8.149-4.598,12.743-5.156
					c2.437-0.302,4.916-0.104,7.332,0.258c2.336,0.348,4.619,1.022,6.771,1.996c1.279,0.584,2.519,1.271,3.683,2.062
					c4.897,3.286,8.604,8.419,10.179,14.077c1.307,4.639,1.231,9.713-0.209,14.285c-0.183,0.594-0.396,1.178-0.591,1.664
					l-0.573,1.377l-51.963,1.807c-0.082,0-0.146,0.062-0.179,0.143h-0.769l-0.258,0.726h55.146l0.985-2.021l0.39-0.896
					c0.223-0.543,0.479-1.195,0.694-1.857C268.029,177.382,268.161,171.673,266.684,166.434z M224.911,130.521
					c-1.904-0.642-3.899-0.963-5.94-0.963c-2.119,0-4.265,0.361-6.195,1.053c-3.135,1.1-5.92,3.082-7.963,5.613
					c-1.771-3.58-4.174-6.946-7.031-9.805c-2.182-2.189-4.662-4.109-7.305-5.693c1.521-4.564,1.646-9.623,0.312-14.332
					c-0.742-2.674-1.986-5.234-3.604-7.545c4.438-2.463,9.565-3.822,14.569-3.822c0.32,0,0.644,0.006,0.968,0.016
					c6.377,0.17,12.606,2.465,17.547,6.469c4.979,3.994,8.563,9.59,10.078,15.752c1.307,5.18,1.157,10.77-0.361,15.903
					C228.43,132.035,226.712,131.123,224.911,130.521z"/>
			</g>
		</g>
	</g>
</g>
</svg>
